<svg width="325" height="41" viewBox="0 0 325 41" fill="none" xmlns="http://www.w3.org/2000/svg">
<path d="M11.25 37.3949C9.27003 37.3949 7.42503 36.8999 5.71503 35.9099C4.00503 34.8899 2.62503 33.3899 1.57503 31.4099C0.525029 29.4299 2.9549e-05 26.9699 2.9549e-05 24.0299C2.9549e-05 22.0499 0.34503 20.1599 1.03503 18.3599C1.72503 16.5299 2.50503 14.9099 3.37503 13.4999C3.22503 13.1099 3.15003 12.6599 3.15003 12.1499C3.15003 10.9799 3.48003 9.82488 4.14003 8.68488C4.83003 7.51488 5.73003 6.44988 6.84003 5.48988C7.98003 4.52988 9.25503 3.76488 10.665 3.19488C12.075 2.62488 13.515 2.33988 14.985 2.33988C17.265 2.33988 19.275 2.90988 21.015 4.04988C22.755 5.18988 24.12 6.77988 25.11 8.81988C26.1 10.8299 26.595 13.1549 26.595 15.7949C26.595 18.9749 26.175 21.8849 25.335 24.5249C24.525 27.1649 23.4 29.4449 21.96 31.3649C20.55 33.2849 18.915 34.7699 17.055 35.8199C15.225 36.8699 13.29 37.3949 11.25 37.3949ZM11.52 9.40488C11.58 9.58488 11.61 9.79488 11.61 10.0349C11.61 10.4849 11.52 10.8599 11.34 11.1599C11.16 11.4599 10.92 11.7899 10.62 12.1499C10.23 12.5999 9.78003 13.2899 9.27003 14.2199C8.79003 15.1199 8.32503 16.1699 7.87503 17.3699C7.42503 18.5699 7.05003 19.8149 6.75003 21.1049C6.48003 22.3649 6.34503 23.5649 6.34503 24.7049C6.34503 26.7149 6.72003 28.2899 7.47003 29.4299C8.22003 30.5699 9.33003 31.1399 10.8 31.1399C12.03 31.1399 13.215 30.7349 14.355 29.9249C15.525 29.1149 16.56 28.0199 17.46 26.6399C18.36 25.2299 19.065 23.6249 19.575 21.8249C20.115 20.0249 20.385 18.1199 20.385 16.1099C20.385 14.6699 20.19 13.3649 19.8 12.1949C19.41 11.0249 18.855 10.0949 18.135 9.40488C17.415 8.71488 16.56 8.36988 15.57 8.36988C14.76 8.36988 14.01 8.47488 13.32 8.68488C12.66 8.86488 12.06 9.10488 11.52 9.40488ZM48.4555 40.0949C47.9455 40.0949 47.4805 40.0199 47.0605 39.8699C46.6705 39.7499 46.3405 39.4949 46.0705 39.1049C44.8405 39.3149 43.6255 39.4799 42.4255 39.5999C41.2255 39.7199 40.1005 39.7799 39.0505 39.7799C38.1505 39.7799 37.4455 39.5549 36.9355 39.1049C36.4255 38.6849 36.1705 38.0849 36.1705 37.3049C36.1705 36.8549 36.4255 36.3449 36.9355 35.7749C37.4455 35.2049 38.3905 34.6649 39.7705 34.1549C41.1505 33.6149 43.1605 33.1949 45.8005 32.8949C46.0105 31.4849 46.3255 29.8199 46.7455 27.8999C47.1655 25.9499 47.6755 23.8799 48.2755 21.6899C48.8755 19.4699 49.5805 17.2799 50.3905 15.1199C49.2805 16.2899 48.1105 17.2799 46.8805 18.0899C45.6805 18.8999 44.5255 19.5149 43.4155 19.9349C42.3355 20.3549 41.4055 20.5649 40.6255 20.5649C39.9955 20.5649 39.4705 20.4599 39.0505 20.2499C38.6605 20.0399 38.4655 19.6499 38.4655 19.0799C38.4655 18.3599 38.8105 17.6999 39.5005 17.0999C40.1905 16.4699 40.9405 15.8549 41.7505 15.2549C42.9805 14.3249 44.3005 13.2149 45.7105 11.9249C47.1505 10.6349 48.4855 9.25488 49.7155 7.78488C50.9755 6.31488 51.9505 4.87488 52.6405 3.46488C52.9705 2.83488 53.3305 2.33988 53.7205 1.97988C54.1105 1.58988 54.7405 1.39488 55.6105 1.39488C56.4805 1.39488 57.1105 1.78488 57.5005 2.56488C57.8905 3.31488 58.0855 4.21488 58.0855 5.26488C58.0855 5.68488 57.9655 6.55488 57.7255 7.87488C57.4855 9.16488 57.1555 10.7549 56.7355 12.6449C56.3155 14.5049 55.8505 16.5599 55.3405 18.8099C54.8305 21.0299 54.3055 23.3099 53.7655 25.6499C53.2255 27.9899 52.7155 30.2549 52.2355 32.4449C53.2255 32.4149 54.2455 32.3999 55.2955 32.3999C56.5555 32.3999 57.6505 32.5049 58.5805 32.7149C59.5105 32.9249 59.9755 33.3749 59.9755 34.0649C59.9755 34.7849 59.6605 35.3249 59.0305 35.6849C58.4305 36.0149 57.6955 36.3149 56.8255 36.5849C56.0155 36.8249 55.1005 37.0799 54.0805 37.3499C53.0605 37.6499 51.9805 37.9199 50.8405 38.1599C50.5405 38.8499 50.1805 39.3449 49.7605 39.6449C49.3405 39.9449 48.9055 40.0949 48.4555 40.0949ZM72.2827 37.7999C71.3527 37.7999 70.4827 37.5149 69.6727 36.9449C68.8627 36.3749 68.4577 35.4449 68.4577 34.1549C68.4577 33.1649 68.7127 32.3699 69.2227 31.7699C69.7327 31.1399 70.3177 30.6749 70.9777 30.3749C71.6677 30.0749 72.2527 29.9249 72.7327 29.9249C73.2427 29.9249 73.8127 30.0449 74.4427 30.2849C75.1027 30.4949 75.6727 30.8999 76.1527 31.4999C76.6327 32.0699 76.8727 32.8949 76.8727 33.9749C76.8727 35.0249 76.4227 35.9249 75.5227 36.6749C74.6527 37.4249 73.5727 37.7999 72.2827 37.7999ZM100.547 37.3949C98.5669 37.3949 96.7219 36.8999 95.0119 35.9099C93.3019 34.8899 91.9219 33.3899 90.8719 31.4099C89.8219 29.4299 89.2969 26.9699 89.2969 24.0299C89.2969 22.0499 89.6419 20.1599 90.3319 18.3599C91.0219 16.5299 91.8019 14.9099 92.6719 13.4999C92.5219 13.1099 92.4469 12.6599 92.4469 12.1499C92.4469 10.9799 92.7769 9.82488 93.4369 8.68488C94.1269 7.51488 95.0269 6.44988 96.1369 5.48988C97.2769 4.52988 98.5519 3.76488 99.9619 3.19488C101.372 2.62488 102.812 2.33988 104.282 2.33988C106.562 2.33988 108.572 2.90988 110.312 4.04988C112.052 5.18988 113.417 6.77988 114.407 8.81988C115.397 10.8299 115.892 13.1549 115.892 15.7949C115.892 18.9749 115.472 21.8849 114.632 24.5249C113.822 27.1649 112.697 29.4449 111.257 31.3649C109.847 33.2849 108.212 34.7699 106.352 35.8199C104.522 36.8699 102.587 37.3949 100.547 37.3949ZM100.817 9.40488C100.877 9.58488 100.907 9.79488 100.907 10.0349C100.907 10.4849 100.817 10.8599 100.637 11.1599C100.457 11.4599 100.217 11.7899 99.9169 12.1499C99.5269 12.5999 99.0769 13.2899 98.5669 14.2199C98.0869 15.1199 97.6219 16.1699 97.1719 17.3699C96.7219 18.5699 96.3469 19.8149 96.0469 21.1049C95.7769 22.3649 95.6419 23.5649 95.6419 24.7049C95.6419 26.7149 96.0169 28.2899 96.7669 29.4299C97.5169 30.5699 98.6269 31.1399 100.097 31.1399C101.327 31.1399 102.512 30.7349 103.652 29.9249C104.822 29.1149 105.857 28.0199 106.757 26.6399C107.657 25.2299 108.362 23.6249 108.872 21.8249C109.412 20.0249 109.682 18.1199 109.682 16.1099C109.682 14.6699 109.487 13.3649 109.097 12.1949C108.707 11.0249 108.152 10.0949 107.432 9.40488C106.712 8.71488 105.857 8.36988 104.867 8.36988C104.057 8.36988 103.307 8.47488 102.617 8.68488C101.957 8.86488 101.357 9.10488 100.817 9.40488ZM151.424 24.2099C151.424 25.3499 150.974 26.5499 150.074 27.8099C149.174 29.0399 148.004 30.2549 146.564 31.4549C145.124 32.6549 143.549 33.7949 141.839 34.8749C140.159 35.9249 138.494 36.8549 136.844 37.6649C135.224 38.5049 133.784 39.1499 132.524 39.5999C131.264 40.0799 130.349 40.3199 129.779 40.3199C128.699 40.3199 127.814 40.1249 127.124 39.7349C126.434 39.3449 126.089 38.6549 126.089 37.6649C126.089 36.9149 126.269 36.3299 126.629 35.9099C126.989 35.4899 127.499 35.1299 128.159 34.8299C129.749 34.1099 131.384 33.3449 133.064 32.5349C134.744 31.7249 136.349 30.8999 137.879 30.0599C139.439 29.2199 140.819 28.3949 142.019 27.5849C143.249 26.7749 144.224 26.0099 144.944 25.2899C145.664 24.5399 146.024 23.8799 146.024 23.3099C146.024 22.6499 145.769 22.1699 145.259 21.8699C144.779 21.5699 144.134 21.3749 143.324 21.2849C142.514 21.1649 141.614 21.1049 140.624 21.1049C139.274 21.1049 138.149 21.1649 137.249 21.2849C136.349 21.4049 135.569 21.5249 134.909 21.6449C134.279 21.7349 133.694 21.7799 133.154 21.7799C132.254 21.7799 131.609 21.5849 131.219 21.1949C130.829 20.7749 130.634 20.2199 130.634 19.5299C130.634 18.9599 130.844 18.3749 131.264 17.7749C131.684 17.1749 132.359 16.7249 133.289 16.4249C135.239 15.7949 136.964 15.1049 138.464 14.3549C139.994 13.5749 141.179 12.7199 142.019 11.7899C142.889 10.8599 143.324 9.85488 143.324 8.77488C143.324 8.44488 143.159 8.21988 142.829 8.09988C142.529 7.97988 141.899 7.91988 140.939 7.91988C140.069 7.91988 139.094 8.02488 138.014 8.23488C136.964 8.44488 135.929 8.69988 134.909 8.99988C133.919 9.26988 133.064 9.50988 132.344 9.71988C131.654 9.92988 131.219 10.0349 131.039 10.0349C129.719 10.0349 129.059 9.37488 129.059 8.05488C129.059 7.75488 129.284 7.27488 129.734 6.61488C130.184 5.95488 130.859 5.27988 131.759 4.58988C132.659 3.86988 133.769 3.25488 135.089 2.74488C136.439 2.23488 137.999 1.97988 139.769 1.97988C141.509 1.97988 143.024 2.32488 144.314 3.01488C145.634 3.70488 146.654 4.64988 147.374 5.84988C148.124 7.01988 148.499 8.35488 148.499 9.85488C148.499 10.9949 148.139 12.1349 147.419 13.2749C146.729 14.3849 145.859 15.3749 144.809 16.2449C146.819 16.8449 148.424 17.8799 149.624 19.3499C150.824 20.7899 151.424 22.4099 151.424 24.2099ZM164.128 37.7999C163.198 37.7999 162.328 37.5149 161.518 36.9449C160.708 36.3749 160.303 35.4449 160.303 34.1549C160.303 33.1649 160.558 32.3699 161.068 31.7699C161.578 31.1399 162.163 30.6749 162.823 30.3749C163.513 30.0749 164.098 29.9249 164.578 29.9249C165.088 29.9249 165.658 30.0449 166.288 30.2849C166.948 30.4949 167.518 30.8999 167.998 31.4999C168.478 32.0699 168.718 32.8949 168.718 33.9749C168.718 35.0249 168.268 35.9249 167.368 36.6749C166.498 37.4249 165.418 37.7999 164.128 37.7999ZM182.832 38.5649C181.332 38.5649 180.267 38.2049 179.637 37.4849C179.037 36.7949 178.737 36.0749 178.737 35.3249C178.737 34.6649 178.887 34.0499 179.187 33.4799C179.517 32.8799 180.087 32.3999 180.897 32.0399C181.707 31.6799 182.862 31.5299 184.362 31.5899C185.862 30.8099 187.377 29.8499 188.907 28.7099C190.467 27.5699 191.952 26.3099 193.362 24.9299C194.802 23.5499 196.077 22.1399 197.187 20.6999C198.327 19.2299 199.212 17.7899 199.842 16.3799C200.502 14.9399 200.832 13.5899 200.832 12.3299C200.832 10.9799 200.412 9.95988 199.572 9.26988C198.762 8.57988 197.622 8.23488 196.152 8.23488C194.892 8.23488 193.737 8.38488 192.687 8.68488C191.637 8.95488 190.707 9.28488 189.897 9.67488C189.087 10.0649 188.397 10.4099 187.827 10.7099C187.287 10.9799 186.852 11.1149 186.522 11.1149C185.952 11.1149 185.442 10.8749 184.992 10.3949C184.542 9.88488 184.407 9.22488 184.587 8.41488C184.707 7.87488 185.067 7.22988 185.667 6.47988C186.267 5.72988 187.092 4.97988 188.142 4.22988C189.192 3.47988 190.437 2.86488 191.877 2.38488C193.347 1.87488 194.997 1.61988 196.827 1.61988C199.767 1.61988 202.152 2.51988 203.982 4.31988C205.842 6.11988 206.772 8.86488 206.772 12.5549C206.772 14.9849 206.127 17.3699 204.837 19.7099C203.577 22.0499 201.897 24.2699 199.797 26.3699C197.697 28.4699 195.402 30.3899 192.912 32.1299C195.162 32.0399 196.917 31.9049 198.177 31.7249C199.437 31.5149 200.442 31.3349 201.192 31.1849C201.972 31.0349 202.722 30.9599 203.442 30.9599C204.462 30.9599 205.257 31.1699 205.827 31.5899C206.397 32.0099 206.682 32.6099 206.682 33.3899C206.682 33.9599 206.532 34.5149 206.232 35.0549C205.962 35.5949 205.422 36.0899 204.612 36.5399C203.802 36.9599 202.632 37.2899 201.102 37.5299C199.572 37.7999 197.562 37.9349 195.072 37.9349C193.602 37.9349 192.087 37.9199 190.527 37.8899C188.997 37.8599 187.512 37.8149 186.072 37.7549C185.232 38.0549 184.572 38.2649 184.092 38.3849C183.642 38.5049 183.222 38.5649 182.832 38.5649ZM231.021 37.3949C229.041 37.3949 227.196 36.8999 225.486 35.9099C223.776 34.8899 222.396 33.3899 221.346 31.4099C220.296 29.4299 219.771 26.9699 219.771 24.0299C219.771 22.0499 220.116 20.1599 220.806 18.3599C221.496 16.5299 222.276 14.9099 223.146 13.4999C222.996 13.1099 222.921 12.6599 222.921 12.1499C222.921 10.9799 223.251 9.82488 223.911 8.68488C224.601 7.51488 225.501 6.44988 226.611 5.48988C227.751 4.52988 229.026 3.76488 230.436 3.19488C231.846 2.62488 233.286 2.33988 234.756 2.33988C237.036 2.33988 239.046 2.90988 240.786 4.04988C242.526 5.18988 243.891 6.77988 244.881 8.81988C245.871 10.8299 246.366 13.1549 246.366 15.7949C246.366 18.9749 245.946 21.8849 245.106 24.5249C244.296 27.1649 243.171 29.4449 241.731 31.3649C240.321 33.2849 238.686 34.7699 236.826 35.8199C234.996 36.8699 233.061 37.3949 231.021 37.3949ZM231.291 9.40488C231.351 9.58488 231.381 9.79488 231.381 10.0349C231.381 10.4849 231.291 10.8599 231.111 11.1599C230.931 11.4599 230.691 11.7899 230.391 12.1499C230.001 12.5999 229.551 13.2899 229.041 14.2199C228.561 15.1199 228.096 16.1699 227.646 17.3699C227.196 18.5699 226.821 19.8149 226.521 21.1049C226.251 22.3649 226.116 23.5649 226.116 24.7049C226.116 26.7149 226.491 28.2899 227.241 29.4299C227.991 30.5699 229.101 31.1399 230.571 31.1399C231.801 31.1399 232.986 30.7349 234.126 29.9249C235.296 29.1149 236.331 28.0199 237.231 26.6399C238.131 25.2299 238.836 23.6249 239.346 21.8249C239.886 20.0249 240.156 18.1199 240.156 16.1099C240.156 14.6699 239.961 13.3649 239.571 12.1949C239.181 11.0249 238.626 10.0949 237.906 9.40488C237.186 8.71488 236.331 8.36988 235.341 8.36988C234.531 8.36988 233.781 8.47488 233.091 8.68488C232.431 8.86488 231.831 9.10488 231.291 9.40488ZM257.89 38.5649C256.39 38.5649 255.325 38.2049 254.695 37.4849C254.095 36.7949 253.795 36.0749 253.795 35.3249C253.795 34.6649 253.945 34.0499 254.245 33.4799C254.575 32.8799 255.145 32.3999 255.955 32.0399C256.765 31.6799 257.92 31.5299 259.42 31.5899C260.92 30.8099 262.435 29.8499 263.965 28.7099C265.525 27.5699 267.01 26.3099 268.42 24.9299C269.86 23.5499 271.135 22.1399 272.245 20.6999C273.385 19.2299 274.27 17.7899 274.9 16.3799C275.56 14.9399 275.89 13.5899 275.89 12.3299C275.89 10.9799 275.47 9.95988 274.63 9.26988C273.82 8.57988 272.68 8.23488 271.21 8.23488C269.95 8.23488 268.795 8.38488 267.745 8.68488C266.695 8.95488 265.765 9.28488 264.955 9.67488C264.145 10.0649 263.455 10.4099 262.885 10.7099C262.345 10.9799 261.91 11.1149 261.58 11.1149C261.01 11.1149 260.5 10.8749 260.05 10.3949C259.6 9.88488 259.465 9.22488 259.645 8.41488C259.765 7.87488 260.125 7.22988 260.725 6.47988C261.325 5.72988 262.15 4.97988 263.2 4.22988C264.25 3.47988 265.495 2.86488 266.935 2.38488C268.405 1.87488 270.055 1.61988 271.885 1.61988C274.825 1.61988 277.21 2.51988 279.04 4.31988C280.9 6.11988 281.83 8.86488 281.83 12.5549C281.83 14.9849 281.185 17.3699 279.895 19.7099C278.635 22.0499 276.955 24.2699 274.855 26.3699C272.755 28.4699 270.46 30.3899 267.97 32.1299C270.22 32.0399 271.975 31.9049 273.235 31.7249C274.495 31.5149 275.5 31.3349 276.25 31.1849C277.03 31.0349 277.78 30.9599 278.5 30.9599C279.52 30.9599 280.315 31.1699 280.885 31.5899C281.455 32.0099 281.74 32.6099 281.74 33.3899C281.74 33.9599 281.59 34.5149 281.29 35.0549C281.02 35.5949 280.48 36.0899 279.67 36.5399C278.86 36.9599 277.69 37.2899 276.16 37.5299C274.63 37.7999 272.62 37.9349 270.13 37.9349C268.66 37.9349 267.145 37.9199 265.585 37.8899C264.055 37.8599 262.57 37.8149 261.13 37.7549C260.29 38.0549 259.63 38.2649 259.15 38.3849C258.7 38.5049 258.28 38.5649 257.89 38.5649ZM305.023 39.6449C303.643 39.6449 302.338 39.2699 301.108 38.5199C299.908 37.7999 298.873 36.7799 298.003 35.4599C297.133 34.1399 296.518 32.5799 296.158 30.7799C295.858 30.9299 295.618 31.0049 295.438 31.0049C295.378 31.0049 295.288 31.0049 295.168 31.0049C294.898 31.0349 294.643 31.0199 294.403 30.9599C294.163 30.8999 293.953 30.7049 293.773 30.3749C293.623 30.0149 293.548 29.3999 293.548 28.5299C293.548 27.6599 293.788 26.7599 294.268 25.8299C294.778 24.8999 295.468 23.9999 296.338 23.1299C296.908 21.0299 297.838 19.0049 299.128 17.0549C300.418 15.0749 301.918 13.2299 303.628 11.5199C305.338 9.77988 307.123 8.20488 308.983 6.79488C310.873 5.38488 312.703 4.18488 314.473 3.19488C316.243 2.17488 317.818 1.39488 319.198 0.854882C320.578 0.284882 321.628 -0.00011766 322.348 -0.00011766C323.998 -0.00011766 324.823 0.794882 324.823 2.38488C324.823 2.68488 324.358 3.11988 323.428 3.68988C322.498 4.22988 321.268 4.93488 319.738 5.80488C318.238 6.67488 316.603 7.70988 314.833 8.90988C313.093 10.1099 311.383 11.4899 309.703 13.0499C308.023 14.6099 306.553 16.3499 305.293 18.2699C306.313 17.9999 307.363 17.7899 308.443 17.6399C309.553 17.4899 310.693 17.4149 311.863 17.4149C313.903 17.4149 315.523 18.0449 316.723 19.3049C317.923 20.5349 318.523 22.3499 318.523 24.7499C318.523 26.6399 318.118 28.4699 317.308 30.2399C316.498 32.0099 315.418 33.6149 314.068 35.0549C312.748 36.4649 311.293 37.5749 309.703 38.3849C308.113 39.2249 306.553 39.6449 305.023 39.6449ZM302.323 26.0999C302.203 26.9399 302.143 27.7799 302.143 28.6199C302.143 29.8199 302.428 30.8549 302.998 31.7249C303.568 32.5949 304.303 33.0299 305.203 33.0299C306.193 33.0299 307.153 32.7749 308.083 32.2649C309.043 31.7549 309.913 31.0799 310.693 30.2399C311.473 29.3699 312.088 28.4099 312.538 27.3599C312.988 26.3099 313.213 25.2449 313.213 24.1649C313.213 23.7749 313.153 23.4449 313.033 23.1749C312.913 22.9049 312.658 22.7699 312.268 22.7699C310.288 22.7699 308.458 23.0999 306.778 23.7599C305.128 24.4199 303.643 25.1999 302.323 26.0999Z" fill="white"/>
</svg>
