<svg width="76" height="12" viewBox="0 0 76 12" fill="none" xmlns="http://www.w3.org/2000/svg">
<path d="M2.484 10.8C1.752 10.8 1.152 10.596 0.684004 10.188C0.228004 9.78001 3.93763e-06 9.18001 3.93763e-06 8.38801C3.93763e-06 7.80001 0.132004 7.17601 0.396004 6.51601C0.672004 5.85601 1.044 5.23201 1.512 4.64401C1.98 4.05601 2.496 3.57001 3.06 3.18601C3.036 2.75401 3.156 2.31601 3.42 1.87201C3.684 1.41601 4.05 1.03801 4.518 0.738013C4.998 0.426013 5.538 0.270013 6.138 0.270013C6.918 0.270013 7.566 0.540013 8.082 1.08001C8.598 1.60801 8.856 2.34601 8.856 3.29401C8.856 3.87001 8.736 4.49401 8.496 5.16601C8.268 5.83801 7.944 6.51001 7.524 7.18201C7.116 7.84201 6.642 8.44801 6.102 9.00001C5.562 9.54001 4.98 9.97201 4.356 10.296C3.744 10.632 3.12 10.8 2.484 10.8ZM2.268 10.512C3 10.512 3.666 10.338 4.266 9.99001C4.866 9.64201 5.4 9.18001 5.868 8.60401C6.336 8.02801 6.726 7.39801 7.038 6.71401C7.362 6.01801 7.608 5.32801 7.776 4.64401C7.944 3.94801 8.028 3.31201 8.028 2.73601C8.028 2.19601 7.89 1.72201 7.614 1.31401C7.35 0.894013 6.858 0.654013 6.138 0.594013C5.694 0.546013 5.268 0.648013 4.86 0.900013C4.464 1.14001 4.14 1.44601 3.888 1.81801C3.636 2.19001 3.498 2.55601 3.474 2.91601C3.846 2.70001 4.254 2.55601 4.698 2.48401C4.758 2.47201 4.842 2.46001 4.95 2.44801C5.058 2.43601 5.178 2.43001 5.31 2.43001C5.574 2.43001 5.844 2.47801 6.12 2.57401C6.408 2.65801 6.6 2.84401 6.696 3.13201C6.708 3.16801 6.72 3.22801 6.732 3.31201C6.744 3.39601 6.75 3.48001 6.75 3.56401C6.75 3.73201 6.714 3.81601 6.642 3.81601C6.594 3.81601 6.57 3.76201 6.57 3.65401C6.582 3.53401 6.54 3.39601 6.444 3.24001C6.336 3.04801 6.186 2.91601 5.994 2.84401C5.814 2.76001 5.616 2.71801 5.4 2.71801C5.148 2.71801 4.902 2.75401 4.662 2.82601C4.29 2.92201 3.906 3.11401 3.51 3.40201C3.594 3.64201 3.696 3.82201 3.816 3.94201C3.936 4.06201 4.056 4.15201 4.176 4.21201C4.26 4.24801 4.302 4.29601 4.302 4.35601C4.302 4.42801 4.23 4.44601 4.086 4.41001C3.858 4.35001 3.666 4.25401 3.51 4.12201C3.366 3.97801 3.258 3.82201 3.186 3.65401C2.766 4.02601 2.37 4.49401 1.998 5.05801C1.626 5.61001 1.326 6.19801 1.098 6.82201C0.882004 7.44601 0.774004 8.04601 0.774004 8.62201C0.774004 8.93401 0.834004 9.23401 0.954004 9.52201C1.086 9.81001 1.26 10.044 1.476 10.224C1.704 10.416 1.968 10.512 2.268 10.512ZM7.66604 9.99001C7.63004 9.96601 7.61204 9.94201 7.61204 9.91801C7.61204 9.89401 7.63004 9.87001 7.66604 9.84601C7.69004 9.81001 7.71404 9.78601 7.73804 9.77401C7.97804 9.70201 8.20004 9.62401 8.40404 9.54001C8.62004 9.45601 8.82404 9.33601 9.01604 9.18001C9.07604 9.12001 9.24404 8.88601 9.52004 8.47801C9.79604 8.05801 10.144 7.51201 10.564 6.84001C10.984 6.16801 11.446 5.41801 11.95 4.59001C12.466 3.76201 12.982 2.90401 13.498 2.01601L12.526 2.70001C12.334 2.84401 12.154 2.99401 11.986 3.15001C11.83 3.29401 11.638 3.45601 11.41 3.63601C11.338 3.69601 11.224 3.72601 11.068 3.72601C10.948 3.72601 10.834 3.70201 10.726 3.65401C10.618 3.60601 10.564 3.55801 10.564 3.51001C10.564 3.46201 10.612 3.42001 10.708 3.38401C10.852 3.32401 11.08 3.19201 11.392 2.98801C11.716 2.77201 12.07 2.52601 12.454 2.25001C12.838 1.97401 13.21 1.71001 13.57 1.45801C13.93 1.19401 14.23 0.978013 14.47 0.810013C14.722 0.642013 14.86 0.558013 14.884 0.558013C14.92 0.570013 14.938 0.624013 14.938 0.720013C14.938 0.840013 14.896 1.01401 14.812 1.24201C14.74 1.47001 14.626 1.72201 14.47 1.99801C14.41 2.10601 14.26 2.35801 14.02 2.75401C13.792 3.13801 13.51 3.60001 13.174 4.14001C12.838 4.68001 12.49 5.24401 12.13 5.83201C11.77 6.40801 11.434 6.95401 11.122 7.47001C10.81 7.98601 10.552 8.40601 10.348 8.73001C10.156 9.05401 10.06 9.22801 10.06 9.25201C10.084 9.38401 10.162 9.49201 10.294 9.57601C10.426 9.64801 10.552 9.70201 10.672 9.73801C10.792 9.76201 10.852 9.78001 10.852 9.79201C10.9 9.82801 10.924 9.86401 10.924 9.90001C10.936 9.93601 10.912 9.96001 10.852 9.97201C10.696 9.94801 10.522 9.93601 10.33 9.93601C10.138 9.93601 9.94004 9.93601 9.73604 9.93601C9.28004 9.93601 8.84204 9.94201 8.42204 9.95401C8.01404 9.97801 7.76204 9.99001 7.66604 9.99001ZM15.2791 10.17C15.1111 10.17 14.9491 10.11 14.7931 9.99001C14.6491 9.87001 14.5771 9.70201 14.5771 9.48601C14.5771 9.24601 14.6431 9.07801 14.7751 8.98201C14.9191 8.87401 15.0691 8.82001 15.2251 8.82001C15.4051 8.82001 15.5671 8.87401 15.7111 8.98201C15.8551 9.09001 15.9271 9.25201 15.9271 9.46801C15.9271 9.69601 15.8611 9.87001 15.7291 9.99001C15.5971 10.11 15.4471 10.17 15.2791 10.17ZM20.15 10.8C19.418 10.8 18.818 10.596 18.35 10.188C17.894 9.78001 17.666 9.18001 17.666 8.38801C17.666 7.80001 17.798 7.17601 18.062 6.51601C18.338 5.85601 18.71 5.23201 19.178 4.64401C19.646 4.05601 20.162 3.57001 20.726 3.18601C20.702 2.75401 20.822 2.31601 21.086 1.87201C21.35 1.41601 21.716 1.03801 22.184 0.738013C22.664 0.426013 23.204 0.270013 23.804 0.270013C24.584 0.270013 25.232 0.540013 25.748 1.08001C26.264 1.60801 26.522 2.34601 26.522 3.29401C26.522 3.87001 26.402 4.49401 26.162 5.16601C25.934 5.83801 25.61 6.51001 25.19 7.18201C24.782 7.84201 24.308 8.44801 23.768 9.00001C23.228 9.54001 22.646 9.97201 22.022 10.296C21.41 10.632 20.786 10.8 20.15 10.8ZM19.934 10.512C20.666 10.512 21.332 10.338 21.932 9.99001C22.532 9.64201 23.066 9.18001 23.534 8.60401C24.002 8.02801 24.392 7.39801 24.704 6.71401C25.028 6.01801 25.274 5.32801 25.442 4.64401C25.61 3.94801 25.694 3.31201 25.694 2.73601C25.694 2.19601 25.556 1.72201 25.28 1.31401C25.016 0.894013 24.524 0.654013 23.804 0.594013C23.36 0.546013 22.934 0.648013 22.526 0.900013C22.13 1.14001 21.806 1.44601 21.554 1.81801C21.302 2.19001 21.164 2.55601 21.14 2.91601C21.512 2.70001 21.92 2.55601 22.364 2.48401C22.424 2.47201 22.508 2.46001 22.616 2.44801C22.724 2.43601 22.844 2.43001 22.976 2.43001C23.24 2.43001 23.51 2.47801 23.786 2.57401C24.074 2.65801 24.266 2.84401 24.362 3.13201C24.374 3.16801 24.386 3.22801 24.398 3.31201C24.41 3.39601 24.416 3.48001 24.416 3.56401C24.416 3.73201 24.38 3.81601 24.308 3.81601C24.26 3.81601 24.236 3.76201 24.236 3.65401C24.248 3.53401 24.206 3.39601 24.11 3.24001C24.002 3.04801 23.852 2.91601 23.66 2.84401C23.48 2.76001 23.282 2.71801 23.066 2.71801C22.814 2.71801 22.568 2.75401 22.328 2.82601C21.956 2.92201 21.572 3.11401 21.176 3.40201C21.26 3.64201 21.362 3.82201 21.482 3.94201C21.602 4.06201 21.722 4.15201 21.842 4.21201C21.926 4.24801 21.968 4.29601 21.968 4.35601C21.968 4.42801 21.896 4.44601 21.752 4.41001C21.524 4.35001 21.332 4.25401 21.176 4.12201C21.032 3.97801 20.924 3.82201 20.852 3.65401C20.432 4.02601 20.036 4.49401 19.664 5.05801C19.292 5.61001 18.992 6.19801 18.764 6.82201C18.548 7.44601 18.44 8.04601 18.44 8.62201C18.44 8.93401 18.5 9.23401 18.62 9.52201C18.752 9.81001 18.926 10.044 19.142 10.224C19.37 10.416 19.634 10.512 19.934 10.512ZM28.3021 10.602C27.5821 10.602 26.9761 10.422 26.4841 10.062C26.0041 9.70201 25.7641 9.22201 25.7641 8.62201C25.7641 8.28601 25.8421 7.93801 25.9981 7.57801C26.1541 7.20601 26.3761 6.88801 26.6641 6.62401C26.9641 6.36001 27.2821 6.15601 27.6181 6.01201C27.9541 5.86801 28.2601 5.79601 28.5361 5.79601C28.8481 5.79601 29.0641 5.85601 29.1841 5.97601C29.3041 6.09601 29.3641 6.25201 29.3641 6.44401C29.3641 6.62401 29.3281 6.81601 29.2561 7.02001C29.2321 7.08001 29.1961 7.11001 29.1481 7.11001C29.0641 7.11001 29.0401 7.06201 29.0761 6.96601C29.1241 6.82201 29.1481 6.69001 29.1481 6.57001C29.1481 6.40201 29.1001 6.28801 29.0041 6.22801C28.9201 6.15601 28.8241 6.12001 28.7161 6.12001C28.5001 6.12001 28.2541 6.19201 27.9781 6.33601C27.7021 6.48001 27.4441 6.67201 27.2041 6.91201C26.9761 7.14001 26.8021 7.38601 26.6821 7.65001C26.5261 8.02201 26.4481 8.35801 26.4481 8.65801C26.4481 9.12601 26.6041 9.52201 26.9161 9.84601C27.2401 10.158 27.7081 10.314 28.3201 10.314C28.9441 10.314 29.5501 10.17 30.1381 9.88201C30.7381 9.59401 31.2721 9.22201 31.7401 8.76601C32.2201 8.31001 32.5981 7.82401 32.8741 7.30801C33.1621 6.79201 33.3061 6.30001 33.3061 5.83201C33.3061 5.50801 33.2221 5.21401 33.0541 4.95001C32.8981 4.68601 32.6341 4.47601 32.2621 4.32001C31.9021 4.46401 31.5541 4.57201 31.2181 4.64401C30.8821 4.71601 30.5941 4.75201 30.3541 4.75201C30.0661 4.75201 29.9221 4.67401 29.9221 4.51801C29.9221 4.45801 29.9401 4.40401 29.9761 4.35601C30.1201 4.12801 30.3781 3.98401 30.7501 3.92401C31.0261 3.88801 31.2781 3.87001 31.5061 3.87001C31.7581 3.87001 31.9801 3.88801 32.1721 3.92401C32.5321 3.72001 32.8441 3.46801 33.1081 3.16801C33.3841 2.85601 33.5761 2.54401 33.6841 2.23201C33.7561 2.02801 33.7921 1.84201 33.7921 1.67401C33.7921 1.39801 33.7081 1.17601 33.5401 1.00801C33.3841 0.840013 33.1501 0.756013 32.8381 0.756013C32.5621 0.756013 32.2861 0.822013 32.0101 0.954013C31.7461 1.08601 31.5121 1.26001 31.3081 1.47601C31.1041 1.68001 30.9661 1.89601 30.8941 2.12401C30.8581 2.23201 30.8401 2.33401 30.8401 2.43001C30.8401 2.69401 30.9421 2.82601 31.1461 2.82601C31.3141 2.82601 31.4521 2.78401 31.5601 2.70001C31.6801 2.60401 31.7641 2.49601 31.8121 2.37601C31.8241 2.32801 31.8481 2.30401 31.8841 2.30401C31.9201 2.30401 31.9501 2.32201 31.9741 2.35801C31.9981 2.38201 31.9981 2.41201 31.9741 2.44801C31.9021 2.60401 31.7581 2.74801 31.5421 2.88001C31.3261 3.01201 31.1101 3.07801 30.8941 3.07801C30.7141 3.07801 30.5461 3.01201 30.3901 2.88001C30.2701 2.77201 30.2101 2.63401 30.2101 2.46601C30.2101 2.29801 30.2641 2.12401 30.3721 1.94401C30.4801 1.76401 30.5941 1.60801 30.7141 1.47601C30.9661 1.21201 31.2361 1.00801 31.5241 0.864014C31.8121 0.720013 32.0881 0.618013 32.3521 0.558013C32.6161 0.498013 32.8261 0.468013 32.9821 0.468013C33.5341 0.468013 33.9361 0.594013 34.1881 0.846013C34.4401 1.08601 34.5661 1.38001 34.5661 1.72801C34.5661 2.13601 34.4101 2.56201 34.0981 3.00601C33.7981 3.43801 33.3541 3.79801 32.7661 4.08601C33.2821 4.30201 33.6541 4.58401 33.8821 4.93201C34.1101 5.26801 34.2241 5.63401 34.2241 6.03001C34.2241 6.53401 34.0621 7.05601 33.7381 7.59601C33.4261 8.12401 32.9941 8.61601 32.4421 9.07201C31.9021 9.52801 31.2721 9.89401 30.5521 10.17C29.8441 10.458 29.0941 10.602 28.3021 10.602ZM30.5341 4.51801C30.5941 4.51801 30.6661 4.51201 30.7501 4.50001C30.8341 4.48801 30.9361 4.46401 31.0561 4.42801C31.0921 4.40401 31.1701 4.36801 31.2901 4.32001C31.4221 4.27201 31.5481 4.22401 31.6681 4.17601C31.5841 4.15201 31.4821 4.13401 31.3621 4.12201C31.2541 4.09801 31.1581 4.08601 31.0741 4.08601C30.8821 4.08601 30.7081 4.12801 30.5521 4.21201C30.4081 4.29601 30.3361 4.36801 30.3361 4.42801C30.3361 4.48801 30.4021 4.51801 30.5341 4.51801ZM36.2498 10.17C36.0818 10.17 35.9198 10.11 35.7638 9.99001C35.6198 9.87001 35.5478 9.70201 35.5478 9.48601C35.5478 9.24601 35.6138 9.07801 35.7458 8.98201C35.8898 8.87401 36.0398 8.82001 36.1958 8.82001C36.3758 8.82001 36.5378 8.87401 36.6818 8.98201C36.8258 9.09001 36.8978 9.25201 36.8978 9.46801C36.8978 9.69601 36.8318 9.87001 36.6998 9.99001C36.5678 10.11 36.4178 10.17 36.2498 10.17ZM43.9647 11.34C43.6287 11.34 43.3047 11.292 42.9927 11.196C42.6807 11.1 42.3867 10.98 42.1107 10.836C41.8467 10.704 41.5647 10.542 41.2647 10.35C40.9767 10.17 40.7187 10.008 40.4907 9.86401C40.3347 9.90001 40.1667 9.94201 39.9867 9.99001C39.8187 10.05 39.6207 10.08 39.3927 10.08C39.2247 10.08 39.0387 10.068 38.8347 10.044C38.6307 10.02 38.4567 9.96601 38.3127 9.88201C38.1807 9.81001 38.1147 9.68401 38.1147 9.50401C38.1147 9.36001 38.1747 9.25801 38.2947 9.19801C38.4147 9.13801 38.5527 9.10201 38.7087 9.09001C38.8767 9.06601 39.0087 9.05401 39.1047 9.05401C39.3807 9.05401 39.6687 9.09601 39.9687 9.18001C40.2807 9.26401 40.6047 9.36601 40.9407 9.48601C41.3247 9.39001 41.6907 9.24601 42.0387 9.05401C42.2187 8.95801 42.4647 8.81401 42.7767 8.62201C43.0887 8.41801 43.4247 8.17801 43.7847 7.90201C44.1567 7.61401 44.5167 7.30201 44.8647 6.96601C45.2127 6.61801 45.5127 6.25201 45.7647 5.86801C46.1487 5.29201 46.4487 4.69201 46.6647 4.06801C46.8927 3.44401 47.0067 2.87401 47.0067 2.35801C47.0067 1.81801 46.8627 1.37401 46.5747 1.02601C46.2867 0.678013 45.7947 0.504013 45.0987 0.504013C44.5587 0.504013 44.0487 0.636013 43.5687 0.900013C43.1007 1.16401 42.6987 1.52401 42.3627 1.98001C42.0267 2.43601 41.7807 2.95201 41.6247 3.52801C41.5767 3.70801 41.5527 3.88201 41.5527 4.05001C41.5527 4.43401 41.6607 4.73401 41.8767 4.95001C42.1047 5.15401 42.3627 5.25601 42.6507 5.25601C42.9147 5.25601 43.1727 5.17201 43.4247 5.00401C43.6887 4.83601 43.9047 4.57201 44.0727 4.21201C44.1087 4.09201 44.1627 4.03201 44.2347 4.03201C44.2707 4.03201 44.2887 4.06201 44.2887 4.12201C44.2887 4.13401 44.2887 4.15801 44.2887 4.19401C44.2887 4.21801 44.2767 4.24801 44.2527 4.28401C44.1327 4.65601 43.8747 4.98001 43.4787 5.25601C43.0827 5.52001 42.6747 5.65201 42.2547 5.65201C42.0627 5.65201 41.8767 5.62201 41.6967 5.56201C41.5287 5.50201 41.3727 5.40601 41.2287 5.27401C41.0847 5.14201 40.9767 4.98001 40.9047 4.78801C40.8447 4.59601 40.8147 4.38601 40.8147 4.15801C40.8147 3.82201 40.8807 3.47401 41.0127 3.11401C41.1447 2.75401 41.3127 2.42401 41.5167 2.12401C41.8167 1.70401 42.1767 1.34401 42.5967 1.04401C43.0287 0.744013 43.4847 0.516013 43.9647 0.360014C44.4567 0.192013 44.9307 0.108013 45.3867 0.108013C46.1667 0.108013 46.8087 0.342013 47.3127 0.810013C47.8167 1.27801 48.0687 1.90801 48.0687 2.70001C48.0687 2.76001 48.0687 2.82601 48.0687 2.89801C48.0687 2.95801 48.0627 3.01801 48.0507 3.07801C47.9907 3.64201 47.7867 4.20601 47.4387 4.77001C47.0907 5.32201 46.6587 5.85601 46.1427 6.37201C45.6267 6.87601 45.0747 7.34401 44.4867 7.77601C43.8987 8.20801 43.3227 8.58001 42.7587 8.89201C42.2067 9.20401 41.7267 9.43801 41.3187 9.59401C41.5227 9.69001 41.7927 9.81001 42.1287 9.95401C42.4647 10.098 42.8367 10.224 43.2447 10.332C43.6647 10.452 44.0907 10.512 44.5227 10.512C44.7747 10.512 45.0207 10.482 45.2607 10.422C45.5127 10.362 45.7527 10.272 45.9807 10.152C46.1367 10.056 46.2387 9.93601 46.2867 9.79201C46.3347 9.64801 46.3467 9.54001 46.3227 9.46801C46.2987 9.39601 46.2867 9.34801 46.2867 9.32401C46.2867 9.25201 46.3107 9.21601 46.3587 9.21601C46.4307 9.21601 46.4967 9.29401 46.5567 9.45001C46.5807 9.52201 46.5927 9.58801 46.5927 9.64801C46.5927 9.85201 46.5267 10.05 46.3947 10.242C46.1667 10.566 45.8307 10.83 45.3867 11.034C44.9547 11.238 44.4807 11.34 43.9647 11.34ZM39.3387 9.72001C39.4827 9.72001 39.6267 9.71401 39.7707 9.70201C39.9267 9.69001 40.0527 9.67201 40.1487 9.64801C40.0047 9.56401 39.8427 9.48601 39.6627 9.41401C39.4947 9.33001 39.2967 9.28801 39.0687 9.28801C38.8047 9.28801 38.6727 9.34801 38.6727 9.46801C38.6727 9.51601 38.7027 9.56401 38.7627 9.61201C38.8347 9.66001 38.9127 9.69001 38.9967 9.70201C39.0447 9.71401 39.0987 9.72001 39.1587 9.72001C39.2187 9.72001 39.2787 9.72001 39.3387 9.72001ZM50.2086 10.8C49.4766 10.8 48.8766 10.596 48.4086 10.188C47.9526 9.78001 47.7246 9.18001 47.7246 8.38801C47.7246 7.80001 47.8566 7.17601 48.1206 6.51601C48.3966 5.85601 48.7686 5.23201 49.2366 4.64401C49.7046 4.05601 50.2206 3.57001 50.7846 3.18601C50.7606 2.75401 50.8806 2.31601 51.1446 1.87201C51.4086 1.41601 51.7746 1.03801 52.2426 0.738013C52.7226 0.426013 53.2626 0.270013 53.8626 0.270013C54.6426 0.270013 55.2906 0.540013 55.8066 1.08001C56.3226 1.60801 56.5806 2.34601 56.5806 3.29401C56.5806 3.87001 56.4606 4.49401 56.2206 5.16601C55.9926 5.83801 55.6686 6.51001 55.2486 7.18201C54.8406 7.84201 54.3666 8.44801 53.8266 9.00001C53.2866 9.54001 52.7046 9.97201 52.0806 10.296C51.4686 10.632 50.8446 10.8 50.2086 10.8ZM49.9926 10.512C50.7246 10.512 51.3906 10.338 51.9906 9.99001C52.5906 9.64201 53.1246 9.18001 53.5926 8.60401C54.0606 8.02801 54.4506 7.39801 54.7626 6.71401C55.0866 6.01801 55.3326 5.32801 55.5006 4.64401C55.6686 3.94801 55.7526 3.31201 55.7526 2.73601C55.7526 2.19601 55.6146 1.72201 55.3386 1.31401C55.0746 0.894013 54.5826 0.654013 53.8626 0.594013C53.4186 0.546013 52.9926 0.648013 52.5846 0.900013C52.1886 1.14001 51.8646 1.44601 51.6126 1.81801C51.3606 2.19001 51.2226 2.55601 51.1986 2.91601C51.5706 2.70001 51.9786 2.55601 52.4226 2.48401C52.4826 2.47201 52.5666 2.46001 52.6746 2.44801C52.7826 2.43601 52.9026 2.43001 53.0346 2.43001C53.2986 2.43001 53.5686 2.47801 53.8446 2.57401C54.1326 2.65801 54.3246 2.84401 54.4206 3.13201C54.4326 3.16801 54.4446 3.22801 54.4566 3.31201C54.4686 3.39601 54.4746 3.48001 54.4746 3.56401C54.4746 3.73201 54.4386 3.81601 54.3666 3.81601C54.3186 3.81601 54.2946 3.76201 54.2946 3.65401C54.3066 3.53401 54.2646 3.39601 54.1686 3.24001C54.0606 3.04801 53.9106 2.91601 53.7186 2.84401C53.5386 2.76001 53.3406 2.71801 53.1246 2.71801C52.8726 2.71801 52.6266 2.75401 52.3866 2.82601C52.0146 2.92201 51.6306 3.11401 51.2346 3.40201C51.3186 3.64201 51.4206 3.82201 51.5406 3.94201C51.6606 4.06201 51.7806 4.15201 51.9006 4.21201C51.9846 4.24801 52.0266 4.29601 52.0266 4.35601C52.0266 4.42801 51.9546 4.44601 51.8106 4.41001C51.5826 4.35001 51.3906 4.25401 51.2346 4.12201C51.0906 3.97801 50.9826 3.82201 50.9106 3.65401C50.4906 4.02601 50.0946 4.49401 49.7226 5.05801C49.3506 5.61001 49.0506 6.19801 48.8226 6.82201C48.6066 7.44601 48.4986 8.04601 48.4986 8.62201C48.4986 8.93401 48.5586 9.23401 48.6786 9.52201C48.8106 9.81001 48.9846 10.044 49.2006 10.224C49.4286 10.416 49.6926 10.512 49.9926 10.512ZM61.3846 11.34C61.0486 11.34 60.7246 11.292 60.4126 11.196C60.1006 11.1 59.8066 10.98 59.5306 10.836C59.2666 10.704 58.9846 10.542 58.6846 10.35C58.3966 10.17 58.1386 10.008 57.9106 9.86401C57.7546 9.90001 57.5866 9.94201 57.4066 9.99001C57.2386 10.05 57.0406 10.08 56.8126 10.08C56.6446 10.08 56.4586 10.068 56.2546 10.044C56.0506 10.02 55.8766 9.96601 55.7326 9.88201C55.6006 9.81001 55.5346 9.68401 55.5346 9.50401C55.5346 9.36001 55.5946 9.25801 55.7146 9.19801C55.8346 9.13801 55.9726 9.10201 56.1286 9.09001C56.2966 9.06601 56.4286 9.05401 56.5246 9.05401C56.8006 9.05401 57.0886 9.09601 57.3886 9.18001C57.7006 9.26401 58.0246 9.36601 58.3606 9.48601C58.7446 9.39001 59.1106 9.24601 59.4586 9.05401C59.6386 8.95801 59.8846 8.81401 60.1966 8.62201C60.5086 8.41801 60.8446 8.17801 61.2046 7.90201C61.5766 7.61401 61.9366 7.30201 62.2846 6.96601C62.6326 6.61801 62.9326 6.25201 63.1846 5.86801C63.5686 5.29201 63.8686 4.69201 64.0846 4.06801C64.3126 3.44401 64.4266 2.87401 64.4266 2.35801C64.4266 1.81801 64.2826 1.37401 63.9946 1.02601C63.7066 0.678013 63.2146 0.504013 62.5186 0.504013C61.9786 0.504013 61.4686 0.636013 60.9886 0.900013C60.5206 1.16401 60.1186 1.52401 59.7826 1.98001C59.4466 2.43601 59.2006 2.95201 59.0446 3.52801C58.9966 3.70801 58.9726 3.88201 58.9726 4.05001C58.9726 4.43401 59.0806 4.73401 59.2966 4.95001C59.5246 5.15401 59.7826 5.25601 60.0706 5.25601C60.3346 5.25601 60.5926 5.17201 60.8446 5.00401C61.1086 4.83601 61.3246 4.57201 61.4926 4.21201C61.5286 4.09201 61.5826 4.03201 61.6546 4.03201C61.6906 4.03201 61.7086 4.06201 61.7086 4.12201C61.7086 4.13401 61.7086 4.15801 61.7086 4.19401C61.7086 4.21801 61.6966 4.24801 61.6726 4.28401C61.5526 4.65601 61.2946 4.98001 60.8986 5.25601C60.5026 5.52001 60.0946 5.65201 59.6746 5.65201C59.4826 5.65201 59.2966 5.62201 59.1166 5.56201C58.9486 5.50201 58.7926 5.40601 58.6486 5.27401C58.5046 5.14201 58.3966 4.98001 58.3246 4.78801C58.2646 4.59601 58.2346 4.38601 58.2346 4.15801C58.2346 3.82201 58.3006 3.47401 58.4326 3.11401C58.5646 2.75401 58.7326 2.42401 58.9366 2.12401C59.2366 1.70401 59.5966 1.34401 60.0166 1.04401C60.4486 0.744013 60.9046 0.516013 61.3846 0.360014C61.8766 0.192013 62.3506 0.108013 62.8066 0.108013C63.5866 0.108013 64.2286 0.342013 64.7326 0.810013C65.2366 1.27801 65.4886 1.90801 65.4886 2.70001C65.4886 2.76001 65.4886 2.82601 65.4886 2.89801C65.4886 2.95801 65.4826 3.01801 65.4706 3.07801C65.4106 3.64201 65.2066 4.20601 64.8586 4.77001C64.5106 5.32201 64.0786 5.85601 63.5626 6.37201C63.0466 6.87601 62.4946 7.34401 61.9066 7.77601C61.3186 8.20801 60.7426 8.58001 60.1786 8.89201C59.6266 9.20401 59.1466 9.43801 58.7386 9.59401C58.9426 9.69001 59.2126 9.81001 59.5486 9.95401C59.8846 10.098 60.2566 10.224 60.6646 10.332C61.0846 10.452 61.5106 10.512 61.9426 10.512C62.1946 10.512 62.4406 10.482 62.6806 10.422C62.9326 10.362 63.1726 10.272 63.4006 10.152C63.5566 10.056 63.6586 9.93601 63.7066 9.79201C63.7546 9.64801 63.7666 9.54001 63.7426 9.46801C63.7186 9.39601 63.7066 9.34801 63.7066 9.32401C63.7066 9.25201 63.7306 9.21601 63.7786 9.21601C63.8506 9.21601 63.9166 9.29401 63.9766 9.45001C64.0006 9.52201 64.0126 9.58801 64.0126 9.64801C64.0126 9.85201 63.9466 10.05 63.8146 10.242C63.5866 10.566 63.2506 10.83 62.8066 11.034C62.3746 11.238 61.9006 11.34 61.3846 11.34ZM56.7586 9.72001C56.9026 9.72001 57.0466 9.71401 57.1906 9.70201C57.3466 9.69001 57.4726 9.67201 57.5686 9.64801C57.4246 9.56401 57.2626 9.48601 57.0826 9.41401C56.9146 9.33001 56.7166 9.28801 56.4886 9.28801C56.2246 9.28801 56.0926 9.34801 56.0926 9.46801C56.0926 9.51601 56.1226 9.56401 56.1826 9.61201C56.2546 9.66001 56.3326 9.69001 56.4166 9.70201C56.4646 9.71401 56.5186 9.72001 56.5786 9.72001C56.6386 9.72001 56.6986 9.72001 56.7586 9.72001ZM68.1505 10.71C67.7185 10.722 67.2925 10.626 66.8725 10.422C66.4645 10.218 66.1225 9.90601 65.8465 9.48601C65.5825 9.05401 65.4505 8.52601 65.4505 7.90201C65.4505 7.54201 65.5045 7.15201 65.6125 6.73201C65.7205 6.30001 65.8945 5.84401 66.1345 5.36401C66.3745 4.89601 66.7045 4.41601 67.1245 3.92401C67.5565 3.42001 68.0485 2.93401 68.6005 2.46601C69.1645 1.99801 69.7645 1.57801 70.4005 1.20601C71.0365 0.834013 71.6845 0.540013 72.3445 0.324013C73.0165 0.108013 73.6645 1.29938e-05 74.2885 1.29938e-05C74.5165 1.29938e-05 74.7925 0.0420132 75.1165 0.126014C75.4405 0.198013 75.6565 0.318013 75.7645 0.486013C75.8005 0.558013 75.8185 0.612013 75.8185 0.648013C75.8185 0.696013 75.8005 0.732013 75.7645 0.756013C75.7285 0.780013 75.6925 0.774013 75.6565 0.738013C75.3325 0.462013 74.8705 0.324013 74.2705 0.324013C73.6105 0.324013 72.9685 0.444013 72.3445 0.684013C71.7325 0.912013 71.1505 1.22401 70.5985 1.62001C70.0465 2.00401 69.5425 2.43001 69.0865 2.89801C68.6425 3.35401 68.2525 3.81001 67.9165 4.26601C67.5805 4.72201 67.3165 5.13001 67.1245 5.49001C66.8485 6.03001 66.6445 6.53401 66.5125 7.00201C66.3925 7.45801 66.3325 7.87801 66.3325 8.26201C66.3325 8.93401 66.5005 9.46201 66.8365 9.84601C67.1845 10.218 67.6285 10.404 68.1685 10.404C68.6605 10.404 69.1285 10.272 69.5725 10.008C70.0285 9.75601 70.4245 9.43201 70.7605 9.03601C71.1085 8.64001 71.3785 8.22001 71.5705 7.77601C71.7745 7.32001 71.8765 6.90601 71.8765 6.53401C71.8765 6.17401 71.7685 5.87401 71.5525 5.63401C71.3485 5.39401 71.0125 5.27401 70.5445 5.27401C70.0405 5.27401 69.5965 5.35801 69.2125 5.52601C68.8285 5.69401 68.4985 5.90401 68.2225 6.15601C67.9465 6.39601 67.7245 6.63001 67.5565 6.85801C67.3885 7.08601 67.2745 7.26001 67.2145 7.38001C67.1665 7.46401 67.1125 7.50601 67.0525 7.50601C66.9565 7.50601 66.9445 7.43401 67.0165 7.29001C67.1845 6.96601 67.4425 6.61201 67.7905 6.22801C68.1505 5.83201 68.5705 5.49601 69.0505 5.22001C69.5305 4.94401 70.0525 4.80601 70.6165 4.80601C71.3725 4.80601 71.9245 4.97401 72.2725 5.31001C72.6205 5.64601 72.7945 6.06001 72.7945 6.55201C72.7945 6.98401 72.6805 7.43401 72.4525 7.90201C72.2245 8.37001 71.9005 8.81401 71.4805 9.23401C71.0605 9.65401 70.5685 9.99601 70.0045 10.26C69.4405 10.536 68.8225 10.686 68.1505 10.71Z" fill="white"/>
</svg>
