<svg width="58" height="9" viewBox="0 0 58 9" fill="none" xmlns="http://www.w3.org/2000/svg">
<path d="M2.15725 8.396C1.18125 8.396 0.69325 7.88 0.69325 6.848C0.69325 5.824 1.16525 4.744 2.10925 3.608C3.09325 2.424 4.07725 1.832 5.06125 1.832C5.09325 1.832 5.10925 1.848 5.10925 1.88C5.10925 1.912 5.09325 1.928 5.06125 1.928C4.90125 1.968 4.77725 2.012 4.68925 2.06C3.88925 2.444 2.95725 3.536 1.89325 5.336C1.54925 5.904 1.37725 6.464 1.37725 7.016C1.37725 7.352 1.44125 7.624 1.56925 7.832C1.72125 8.104 1.94925 8.24 2.25325 8.24C2.80525 8.24 3.38925 7.996 4.00525 7.508C4.26125 7.316 4.49725 7.104 4.71325 6.872C4.93725 6.632 5.14525 6.376 5.33725 6.104C5.48125 5.888 5.61725 5.66 5.74525 5.42C5.88125 5.18 6.00525 4.924 6.11725 4.652C6.42125 3.932 6.57325 3.332 6.57325 2.852C6.57325 2.284 6.36125 2 5.93725 2C5.57725 2 5.24525 2.156 4.94125 2.468C4.66925 2.74 4.48925 3.064 4.40125 3.44C4.38525 3.544 4.36925 3.644 4.35325 3.74C4.34525 3.836 4.34125 3.936 4.34125 4.04C4.34125 4.68 4.54525 5 4.95325 5C4.98525 5 5.01325 4.996 5.03725 4.988C5.06925 4.98 5.09725 4.976 5.12125 4.976C5.16125 4.976 5.18125 4.992 5.18125 5.024C5.18125 5.072 5.10125 5.096 4.94125 5.096C4.67725 5.096 4.47725 4.964 4.34125 4.7C4.23725 4.5 4.18525 4.252 4.18525 3.956C4.18525 3.86 4.18925 3.768 4.19725 3.68C4.20525 3.584 4.22125 3.492 4.24525 3.404C4.33325 2.98 4.56125 2.608 4.92925 2.288C5.30525 1.936 5.70525 1.76 6.12925 1.76C6.49725 1.76 6.77725 1.936 6.96925 2.288C7.12125 2.56 7.19725 2.9 7.19725 3.308C7.19725 3.788 7.10125 4.264 6.90925 4.736C6.48525 5.76 5.86125 6.604 5.03725 7.268C4.14125 8.02 3.18125 8.396 2.15725 8.396ZM8.71553 8.156C7.69953 8.156 7.19153 7.596 7.19153 6.476C7.19153 6.276 7.20353 6.1 7.22753 5.948C7.36353 5.148 7.88753 4.296 8.79953 3.392C9.50353 2.688 10.3155 2.064 11.2355 1.52C12.0435 1.048 12.7835 0.812 13.4555 0.812C13.8075 0.812 13.9835 0.88 13.9835 1.016C13.9835 1.064 13.9475 1.088 13.8755 1.088C13.8115 1.088 13.7195 1.076 13.5995 1.052C13.4955 1.02 13.4075 1.004 13.3355 1.004C12.7035 1.004 12.0195 1.236 11.2835 1.7C10.4755 2.188 9.70353 2.98 8.96753 4.076C8.19153 5.236 7.80353 6.256 7.80353 7.136C7.80353 7.68 8.02353 7.952 8.46353 7.952C9.07153 7.952 9.77153 7.552 10.5635 6.752C11.3555 5.944 11.7515 5.24 11.7515 4.64C11.7515 4.352 11.6755 4.116 11.5235 3.932C11.3715 3.74 11.1515 3.644 10.8635 3.644C10.4395 3.644 10.0715 3.8 9.75953 4.112C9.44753 4.424 9.29153 4.796 9.29153 5.228C9.29153 5.284 9.31153 5.372 9.35153 5.492C9.37553 5.548 9.39153 5.596 9.39953 5.636C9.40753 5.668 9.41153 5.692 9.41153 5.708C9.41153 5.732 9.39553 5.748 9.36353 5.756L9.32753 5.732C9.22353 5.596 9.17153 5.4 9.17153 5.144C9.17153 4.656 9.34353 4.252 9.68753 3.932C10.0155 3.612 10.4275 3.452 10.9235 3.452C11.3315 3.452 11.6755 3.604 11.9555 3.908C12.2275 4.204 12.3635 4.564 12.3635 4.988C12.3635 5.764 11.9475 6.496 11.1155 7.184C10.3155 7.832 9.51553 8.156 8.71553 8.156ZM14.1826 8.132C13.9186 8.132 13.7866 8.004 13.7866 7.748C13.7866 7.46 13.9306 7.316 14.2186 7.316C14.4826 7.316 14.6146 7.444 14.6146 7.7C14.6146 7.988 14.4706 8.132 14.1826 8.132ZM17.3916 8.396C16.4156 8.396 15.9276 7.88 15.9276 6.848C15.9276 5.824 16.3996 4.744 17.3436 3.608C18.3276 2.424 19.3116 1.832 20.2956 1.832C20.3276 1.832 20.3436 1.848 20.3436 1.88C20.3436 1.912 20.3276 1.928 20.2956 1.928C20.1356 1.968 20.0116 2.012 19.9236 2.06C19.1236 2.444 18.1916 3.536 17.1276 5.336C16.7836 5.904 16.6116 6.464 16.6116 7.016C16.6116 7.352 16.6756 7.624 16.8036 7.832C16.9556 8.104 17.1836 8.24 17.4876 8.24C18.0396 8.24 18.6236 7.996 19.2396 7.508C19.4956 7.316 19.7316 7.104 19.9476 6.872C20.1716 6.632 20.3796 6.376 20.5716 6.104C20.7156 5.888 20.8516 5.66 20.9796 5.42C21.1156 5.18 21.2396 4.924 21.3516 4.652C21.6556 3.932 21.8076 3.332 21.8076 2.852C21.8076 2.284 21.5956 2 21.1716 2C20.8116 2 20.4796 2.156 20.1756 2.468C19.9036 2.74 19.7236 3.064 19.6356 3.44C19.6196 3.544 19.6036 3.644 19.5876 3.74C19.5796 3.836 19.5756 3.936 19.5756 4.04C19.5756 4.68 19.7796 5 20.1876 5C20.2196 5 20.2476 4.996 20.2716 4.988C20.3036 4.98 20.3316 4.976 20.3556 4.976C20.3956 4.976 20.4156 4.992 20.4156 5.024C20.4156 5.072 20.3356 5.096 20.1756 5.096C19.9116 5.096 19.7116 4.964 19.5756 4.7C19.4716 4.5 19.4196 4.252 19.4196 3.956C19.4196 3.86 19.4236 3.768 19.4316 3.68C19.4396 3.584 19.4556 3.492 19.4796 3.404C19.5676 2.98 19.7956 2.608 20.1636 2.288C20.5396 1.936 20.9396 1.76 21.3636 1.76C21.7316 1.76 22.0116 1.936 22.2036 2.288C22.3556 2.56 22.4316 2.9 22.4316 3.308C22.4316 3.788 22.3356 4.264 22.1436 4.736C21.7196 5.76 21.0956 6.604 20.2716 7.268C19.3756 8.02 18.4156 8.396 17.3916 8.396ZM24.0939 8.048C23.6379 8.048 23.2339 7.932 22.8819 7.7C22.4739 7.436 22.2699 7.092 22.2699 6.668C22.2699 6.084 22.6739 5.568 23.4819 5.12C23.6899 5.008 23.9539 4.884 24.2739 4.748C24.6019 4.612 24.9899 4.468 25.4379 4.316C25.0299 3.932 24.8259 3.492 24.8259 2.996C24.8259 2.644 25.0019 2.328 25.3539 2.048C25.6259 1.824 25.9579 1.656 26.3499 1.544C26.5099 1.496 26.6739 1.464 26.8419 1.448C27.0099 1.424 27.1819 1.412 27.3579 1.412C27.7179 1.412 28.0299 1.496 28.2939 1.664C28.5899 1.856 28.7379 2.128 28.7379 2.48C28.7379 2.656 28.6779 2.824 28.5579 2.984C28.3339 3.288 27.6019 3.664 26.3619 4.112C26.9139 4.664 27.1899 5.292 27.1899 5.996C27.1899 6.196 27.0979 6.436 26.9139 6.716C26.6259 7.148 26.2139 7.484 25.6779 7.724C25.1899 7.94 24.6619 8.048 24.0939 8.048ZM26.2659 4.016C27.6099 3.44 28.2819 2.832 28.2819 2.192C28.2819 1.768 27.9739 1.556 27.3579 1.556C26.1259 1.556 25.5099 1.98 25.5099 2.828C25.5099 3.076 25.5899 3.3 25.7499 3.5C25.7659 3.532 25.8179 3.592 25.9059 3.68C25.9939 3.76 26.1139 3.872 26.2659 4.016ZM24.0939 7.928C25.1659 7.928 25.8819 7.528 26.2419 6.728C26.3459 6.496 26.3979 6.26 26.3979 6.02C26.3979 5.692 26.3139 5.392 26.1459 5.12C26.0179 4.92 25.8099 4.68 25.5219 4.4C24.7299 4.672 24.1419 4.948 23.7579 5.228C23.1499 5.668 22.8459 6.212 22.8459 6.86C22.8459 7.572 23.2619 7.928 24.0939 7.928ZM29.4169 8.132C29.1529 8.132 29.0209 8.004 29.0209 7.748C29.0209 7.46 29.1649 7.316 29.4529 7.316C29.7169 7.316 29.8489 7.444 29.8489 7.7C29.8489 7.988 29.7049 8.132 29.4169 8.132ZM30.874 8.132C30.81 8.132 30.778 8.096 30.778 8.024C30.778 8.008 30.778 7.988 30.778 7.964C30.786 7.94 30.794 7.916 30.802 7.892C30.914 7.612 31.126 7.32 31.438 7.016C31.758 6.712 32.182 6.412 32.71 6.116C33.174 5.86 33.638 5.612 34.102 5.372C34.566 5.132 35.026 4.88 35.482 4.616C35.978 4.328 36.362 4.036 36.634 3.74C36.906 3.436 37.07 3.14 37.126 2.852C37.15 2.732 37.162 2.604 37.162 2.468C37.162 1.812 36.81 1.484 36.106 1.484C35.098 1.484 34.15 2.092 33.262 3.308C32.87 3.852 32.674 4.3 32.674 4.652C32.674 5.004 32.906 5.18 33.37 5.18C33.818 5.18 34.322 4.964 34.882 4.532C35.474 4.06 35.77 3.616 35.77 3.2C35.77 3.048 35.694 2.936 35.542 2.864C35.518 2.848 35.506 2.832 35.506 2.816C35.506 2.784 35.526 2.768 35.566 2.768C35.662 2.768 35.738 2.82 35.794 2.924C35.842 3.004 35.866 3.096 35.866 3.2C35.866 3.72 35.574 4.2 34.99 4.64C34.446 5.064 33.906 5.276 33.37 5.276C32.634 5.276 32.266 4.932 32.266 4.244C32.266 3.876 32.378 3.544 32.602 3.248C32.97 2.72 33.486 2.28 34.15 1.928C34.486 1.744 34.814 1.608 35.134 1.52C35.462 1.424 35.786 1.376 36.106 1.376C36.586 1.376 36.994 1.508 37.33 1.772C37.706 2.052 37.894 2.424 37.894 2.888C37.894 3.392 37.542 3.888 36.838 4.376C36.654 4.504 36.418 4.648 36.13 4.808C35.85 4.96 35.51 5.128 35.11 5.312C34.934 5.392 34.714 5.492 34.45 5.612C34.186 5.732 33.878 5.872 33.526 6.032C33.11 6.216 32.75 6.392 32.446 6.56C32.142 6.72 31.89 6.872 31.69 7.016C31.786 6.952 31.878 6.92 31.966 6.92C32.174 6.92 32.382 6.936 32.59 6.968C32.806 6.992 33.022 7.036 33.238 7.1C33.39 7.132 33.538 7.172 33.682 7.22C33.826 7.268 33.974 7.312 34.126 7.352C34.478 7.448 34.782 7.496 35.038 7.496C35.966 7.496 36.43 7.176 36.43 6.536C36.43 6.488 36.426 6.44 36.418 6.392C36.41 6.344 36.394 6.296 36.37 6.248C36.354 6.2 36.338 6.164 36.322 6.14C36.314 6.116 36.31 6.104 36.31 6.104C36.31 6.072 36.326 6.056 36.358 6.056C36.406 6.056 36.45 6.124 36.49 6.26C36.506 6.316 36.518 6.368 36.526 6.416C36.534 6.456 36.538 6.496 36.538 6.536C36.538 6.936 36.342 7.296 35.95 7.616C35.59 7.928 35.202 8.084 34.786 8.084C34.442 8.084 33.938 7.988 33.274 7.796C32.938 7.708 32.642 7.64 32.386 7.592C32.138 7.544 31.926 7.52 31.75 7.52C31.47 7.52 31.27 7.62 31.15 7.82C31.038 8.028 30.946 8.132 30.874 8.132ZM39.2588 8.396C38.2828 8.396 37.7948 7.88 37.7948 6.848C37.7948 5.824 38.2668 4.744 39.2108 3.608C40.1948 2.424 41.1788 1.832 42.1628 1.832C42.1948 1.832 42.2108 1.848 42.2108 1.88C42.2108 1.912 42.1948 1.928 42.1628 1.928C42.0028 1.968 41.8788 2.012 41.7908 2.06C40.9908 2.444 40.0588 3.536 38.9948 5.336C38.6508 5.904 38.4788 6.464 38.4788 7.016C38.4788 7.352 38.5428 7.624 38.6708 7.832C38.8228 8.104 39.0508 8.24 39.3548 8.24C39.9068 8.24 40.4908 7.996 41.1068 7.508C41.3628 7.316 41.5988 7.104 41.8148 6.872C42.0388 6.632 42.2468 6.376 42.4388 6.104C42.5828 5.888 42.7188 5.66 42.8468 5.42C42.9828 5.18 43.1068 4.924 43.2188 4.652C43.5228 3.932 43.6748 3.332 43.6748 2.852C43.6748 2.284 43.4628 2 43.0388 2C42.6788 2 42.3468 2.156 42.0428 2.468C41.7708 2.74 41.5908 3.064 41.5028 3.44C41.4868 3.544 41.4708 3.644 41.4548 3.74C41.4468 3.836 41.4428 3.936 41.4428 4.04C41.4428 4.68 41.6468 5 42.0548 5C42.0868 5 42.1148 4.996 42.1388 4.988C42.1708 4.98 42.1988 4.976 42.2228 4.976C42.2628 4.976 42.2828 4.992 42.2828 5.024C42.2828 5.072 42.2028 5.096 42.0428 5.096C41.7788 5.096 41.5788 4.964 41.4428 4.7C41.3388 4.5 41.2868 4.252 41.2868 3.956C41.2868 3.86 41.2908 3.768 41.2988 3.68C41.3068 3.584 41.3228 3.492 41.3468 3.404C41.4348 2.98 41.6628 2.608 42.0308 2.288C42.4068 1.936 42.8068 1.76 43.2308 1.76C43.5988 1.76 43.8788 1.936 44.0708 2.288C44.2228 2.56 44.2988 2.9 44.2988 3.308C44.2988 3.788 44.2028 4.264 44.0108 4.736C43.5868 5.76 42.9628 6.604 42.1388 7.268C41.2428 8.02 40.2828 8.396 39.2588 8.396ZM44.2451 8.132C44.1811 8.132 44.1491 8.096 44.1491 8.024C44.1491 8.008 44.1491 7.988 44.1491 7.964C44.1571 7.94 44.1651 7.916 44.1731 7.892C44.2851 7.612 44.4971 7.32 44.8091 7.016C45.1291 6.712 45.5531 6.412 46.0811 6.116C46.5451 5.86 47.0091 5.612 47.4731 5.372C47.9371 5.132 48.3971 4.88 48.8531 4.616C49.3491 4.328 49.7331 4.036 50.0051 3.74C50.2771 3.436 50.4411 3.14 50.4971 2.852C50.5211 2.732 50.5331 2.604 50.5331 2.468C50.5331 1.812 50.1811 1.484 49.4771 1.484C48.4691 1.484 47.5211 2.092 46.6331 3.308C46.2411 3.852 46.0451 4.3 46.0451 4.652C46.0451 5.004 46.2771 5.18 46.7411 5.18C47.1891 5.18 47.6931 4.964 48.2531 4.532C48.8451 4.06 49.1411 3.616 49.1411 3.2C49.1411 3.048 49.0651 2.936 48.9131 2.864C48.8891 2.848 48.8771 2.832 48.8771 2.816C48.8771 2.784 48.8971 2.768 48.9371 2.768C49.0331 2.768 49.1091 2.82 49.1651 2.924C49.2131 3.004 49.2371 3.096 49.2371 3.2C49.2371 3.72 48.9451 4.2 48.3611 4.64C47.8171 5.064 47.2771 5.276 46.7411 5.276C46.0051 5.276 45.6371 4.932 45.6371 4.244C45.6371 3.876 45.7491 3.544 45.9731 3.248C46.3411 2.72 46.8571 2.28 47.5211 1.928C47.8571 1.744 48.1851 1.608 48.5051 1.52C48.8331 1.424 49.1571 1.376 49.4771 1.376C49.9571 1.376 50.3651 1.508 50.7011 1.772C51.0771 2.052 51.2651 2.424 51.2651 2.888C51.2651 3.392 50.9131 3.888 50.2091 4.376C50.0251 4.504 49.7891 4.648 49.5011 4.808C49.2211 4.96 48.8811 5.128 48.4811 5.312C48.3051 5.392 48.0851 5.492 47.8211 5.612C47.5571 5.732 47.2491 5.872 46.8971 6.032C46.4811 6.216 46.1211 6.392 45.8171 6.56C45.5131 6.72 45.2611 6.872 45.0611 7.016C45.1571 6.952 45.2491 6.92 45.3371 6.92C45.5451 6.92 45.7531 6.936 45.9611 6.968C46.1771 6.992 46.3931 7.036 46.6091 7.1C46.7611 7.132 46.9091 7.172 47.0531 7.22C47.1971 7.268 47.3451 7.312 47.4971 7.352C47.8491 7.448 48.1531 7.496 48.4091 7.496C49.3371 7.496 49.8011 7.176 49.8011 6.536C49.8011 6.488 49.7971 6.44 49.7891 6.392C49.7811 6.344 49.7651 6.296 49.7411 6.248C49.7251 6.2 49.7091 6.164 49.6931 6.14C49.6851 6.116 49.6811 6.104 49.6811 6.104C49.6811 6.072 49.6971 6.056 49.7291 6.056C49.7771 6.056 49.8211 6.124 49.8611 6.26C49.8771 6.316 49.8891 6.368 49.8971 6.416C49.9051 6.456 49.9091 6.496 49.9091 6.536C49.9091 6.936 49.7131 7.296 49.3211 7.616C48.9611 7.928 48.5731 8.084 48.1571 8.084C47.8131 8.084 47.3091 7.988 46.6451 7.796C46.3091 7.708 46.0131 7.64 45.7571 7.592C45.5091 7.544 45.2971 7.52 45.1211 7.52C44.8411 7.52 44.6411 7.62 44.5211 7.82C44.4091 8.028 44.3171 8.132 44.2451 8.132ZM52.5219 8.24C51.2499 8.24 50.6139 7.8 50.6139 6.92C50.6139 6.48 50.8339 6.136 51.2739 5.888C51.6419 5.688 52.0659 5.588 52.5459 5.588H52.7379C53.0259 5.62 53.2739 5.72 53.4819 5.888C53.7299 6.088 53.8539 6.32 53.8539 6.584C53.8539 6.808 53.8059 6.92 53.7099 6.92C53.6779 6.92 53.6619 6.904 53.6619 6.872L53.6979 6.776C53.7299 6.72 53.7459 6.656 53.7459 6.584C53.7459 6.304 53.6139 6.08 53.3499 5.912C53.1259 5.76 52.8659 5.684 52.5699 5.684C52.2019 5.684 51.8739 5.796 51.5859 6.02C51.2979 6.26 51.1539 6.568 51.1539 6.944C51.1539 7.304 51.2939 7.592 51.5739 7.808C51.8299 7.992 52.1459 8.084 52.5219 8.084C53.2339 8.084 53.8939 7.788 54.5019 7.196C55.0939 6.612 55.3899 5.956 55.3899 5.228C55.3899 4.86 55.2779 4.58 55.0539 4.388C54.8379 4.196 54.5419 4.1 54.1659 4.1C53.7979 4.1 53.4659 4.168 53.1699 4.304C52.8179 4.824 52.5579 5.084 52.3899 5.084C52.3099 5.084 52.2699 5.036 52.2699 4.94C52.2699 4.892 52.3019 4.816 52.3659 4.712C52.4859 4.56 52.6579 4.428 52.8819 4.316C52.9939 4.18 53.1219 4.008 53.2659 3.8C53.4019 3.6 53.5179 3.416 53.6139 3.248C53.7179 3.08 53.8059 2.92 53.8779 2.768C54.0699 2.392 54.1939 2.156 54.2499 2.06C54.4419 1.796 54.6539 1.664 54.8859 1.664C54.9899 1.664 55.1179 1.688 55.2699 1.736C55.4219 1.776 55.5979 1.84 55.7979 1.928C56.1979 2.104 56.5019 2.192 56.7099 2.192C56.9579 2.192 57.1699 2.136 57.3459 2.024C57.5539 1.896 57.6579 1.712 57.6579 1.472C57.6579 1.336 57.6219 1.232 57.5499 1.16L57.4419 1.04C57.4419 1.008 57.4579 0.991999 57.4899 0.991999C57.5779 0.991999 57.6499 1.068 57.7059 1.22C57.7539 1.34 57.7779 1.448 57.7779 1.544C57.7779 1.88 57.6459 2.156 57.3819 2.372C57.1419 2.58 56.8499 2.684 56.5059 2.684C56.3779 2.684 56.2299 2.664 56.0619 2.624C55.9019 2.584 55.7219 2.524 55.5219 2.444C55.1299 2.284 54.8699 2.204 54.7419 2.204C54.5019 2.204 54.2739 2.42 54.0579 2.852C53.9539 3.044 53.8419 3.244 53.7219 3.452C53.6019 3.66 53.4619 3.88 53.3019 4.112L53.2779 4.148C53.6379 4.036 53.9939 3.98 54.3459 3.98C54.6019 3.98 54.8339 4.004 55.0419 4.052C55.2579 4.1 55.4499 4.18 55.6179 4.292C56.0259 4.54 56.2299 4.904 56.2299 5.384C56.2299 5.536 56.2099 5.7 56.1699 5.876C55.8819 6.9 55.0219 7.624 53.5899 8.048C53.1979 8.176 52.8419 8.24 52.5219 8.24Z" fill="#FEFAEF"/>
</svg>
