<svg width="79" height="12" viewBox="0 0 79 12" fill="none" xmlns="http://www.w3.org/2000/svg">
<path d="M2.484 10.8C1.752 10.8 1.152 10.596 0.684004 10.188C0.228004 9.78001 3.93763e-06 9.18001 3.93763e-06 8.38801C3.93763e-06 7.80001 0.132004 7.17601 0.396004 6.51601C0.672004 5.85601 1.044 5.23201 1.512 4.64401C1.98 4.05601 2.496 3.57001 3.06 3.18601C3.036 2.75401 3.156 2.31601 3.42 1.87201C3.684 1.41601 4.05 1.03801 4.518 0.738013C4.998 0.426013 5.538 0.270013 6.138 0.270013C6.918 0.270013 7.566 0.540013 8.082 1.08001C8.598 1.60801 8.856 2.34601 8.856 3.29401C8.856 3.87001 8.736 4.49401 8.496 5.16601C8.268 5.83801 7.944 6.51001 7.524 7.18201C7.116 7.84201 6.642 8.44801 6.102 9.00001C5.562 9.54001 4.98 9.97201 4.356 10.296C3.744 10.632 3.12 10.8 2.484 10.8ZM2.268 10.512C3 10.512 3.666 10.338 4.266 9.99001C4.866 9.64201 5.4 9.18001 5.868 8.60401C6.336 8.02801 6.726 7.39801 7.038 6.71401C7.362 6.01801 7.608 5.32801 7.776 4.64401C7.944 3.94801 8.028 3.31201 8.028 2.73601C8.028 2.19601 7.89 1.72201 7.614 1.31401C7.35 0.894013 6.858 0.654013 6.138 0.594013C5.694 0.546013 5.268 0.648013 4.86 0.900013C4.464 1.14001 4.14 1.44601 3.888 1.81801C3.636 2.19001 3.498 2.55601 3.474 2.91601C3.846 2.70001 4.254 2.55601 4.698 2.48401C4.758 2.47201 4.842 2.46001 4.95 2.44801C5.058 2.43601 5.178 2.43001 5.31 2.43001C5.574 2.43001 5.844 2.47801 6.12 2.57401C6.408 2.65801 6.6 2.84401 6.696 3.13201C6.708 3.16801 6.72 3.22801 6.732 3.31201C6.744 3.39601 6.75 3.48001 6.75 3.56401C6.75 3.73201 6.714 3.81601 6.642 3.81601C6.594 3.81601 6.57 3.76201 6.57 3.65401C6.582 3.53401 6.54 3.39601 6.444 3.24001C6.336 3.04801 6.186 2.91601 5.994 2.84401C5.814 2.76001 5.616 2.71801 5.4 2.71801C5.148 2.71801 4.902 2.75401 4.662 2.82601C4.29 2.92201 3.906 3.11401 3.51 3.40201C3.594 3.64201 3.696 3.82201 3.816 3.94201C3.936 4.06201 4.056 4.15201 4.176 4.21201C4.26 4.24801 4.302 4.29601 4.302 4.35601C4.302 4.42801 4.23 4.44601 4.086 4.41001C3.858 4.35001 3.666 4.25401 3.51 4.12201C3.366 3.97801 3.258 3.82201 3.186 3.65401C2.766 4.02601 2.37 4.49401 1.998 5.05801C1.626 5.61001 1.326 6.19801 1.098 6.82201C0.882004 7.44601 0.774004 8.04601 0.774004 8.62201C0.774004 8.93401 0.834004 9.23401 0.954004 9.52201C1.086 9.81001 1.26 10.044 1.476 10.224C1.704 10.416 1.968 10.512 2.268 10.512ZM10.87 10.764C10.678 10.764 10.474 10.662 10.258 10.458C10.054 10.266 9.95204 9.97201 9.95204 9.57601C9.95204 9.33601 10.006 9.06601 10.114 8.76601C10.258 8.37001 10.498 7.91401 10.834 7.39801C11.17 6.88201 11.572 6.34201 12.04 5.77801C12.52 5.21401 13.03 4.65601 13.57 4.10401C14.11 3.55201 14.656 3.04201 15.208 2.57401C15.772 2.10601 16.3 1.71001 16.792 1.38601C16.36 1.30201 15.91 1.20601 15.442 1.09801C14.974 0.990013 14.5 0.912013 14.02 0.864014C13.936 0.852013 13.84 0.846013 13.732 0.846013C13.624 0.834013 13.51 0.828013 13.39 0.828013C13.054 0.828013 12.694 0.864013 12.31 0.936013C11.938 0.996013 11.602 1.11001 11.302 1.27801C11.002 1.44601 10.798 1.69201 10.69 2.01601C10.642 2.16001 10.636 2.27401 10.672 2.35801C10.696 2.40601 10.708 2.44801 10.708 2.48401C10.708 2.55601 10.666 2.59201 10.582 2.59201C10.498 2.59201 10.42 2.53201 10.348 2.41201C10.276 2.28001 10.24 2.13001 10.24 1.96201C10.24 1.80601 10.276 1.65601 10.348 1.51201C10.528 1.16401 10.834 0.858013 11.266 0.594013C11.698 0.330013 12.172 0.156013 12.688 0.0720131C12.892 0.0360129 13.084 0.0180128 13.264 0.0180128C13.744 0.0180128 14.194 0.0900129 14.614 0.234013C15.046 0.378013 15.472 0.540014 15.892 0.720013C16.324 0.888013 16.774 1.02001 17.242 1.11601C17.602 0.900013 17.926 0.756013 18.214 0.684013C18.382 0.648013 18.526 0.630013 18.646 0.630013C18.946 0.630013 19.096 0.720013 19.096 0.900013C19.096 1.00801 19.018 1.12201 18.862 1.24201C18.706 1.35001 18.466 1.42201 18.142 1.45801C18.094 1.47001 18.04 1.47601 17.98 1.47601C17.92 1.47601 17.86 1.47601 17.8 1.47601C17.716 1.47601 17.632 1.47601 17.548 1.47601C17.464 1.46401 17.374 1.45201 17.278 1.44001C17.038 1.59601 16.666 1.86601 16.162 2.25001C15.658 2.62201 15.172 3.06001 14.704 3.56401C14.596 3.68401 14.41 3.88801 14.146 4.17601C13.882 4.45201 13.582 4.79401 13.246 5.20201C12.922 5.59801 12.592 6.02401 12.256 6.48001C11.92 6.93601 11.62 7.39801 11.356 7.86601C11.104 8.32201 10.924 8.76001 10.816 9.18001C10.78 9.31201 10.756 9.43201 10.744 9.54001C10.732 9.63601 10.726 9.72601 10.726 9.81001C10.726 10.002 10.756 10.146 10.816 10.242C10.876 10.338 10.936 10.404 10.996 10.44C11.08 10.488 11.122 10.548 11.122 10.62C11.122 10.716 11.038 10.764 10.87 10.764ZM17.7576 10.17C17.5896 10.17 17.4276 10.11 17.2716 9.99001C17.1276 9.87001 17.0556 9.70201 17.0556 9.48601C17.0556 9.24601 17.1216 9.07801 17.2536 8.98201C17.3976 8.87401 17.5476 8.82001 17.7036 8.82001C17.8836 8.82001 18.0456 8.87401 18.1896 8.98201C18.3336 9.09001 18.4056 9.25201 18.4056 9.46801C18.4056 9.69601 18.3396 9.87001 18.2076 9.99001C18.0756 10.11 17.9256 10.17 17.7576 10.17ZM22.6285 10.8C21.8965 10.8 21.2965 10.596 20.8285 10.188C20.3725 9.78001 20.1445 9.18001 20.1445 8.38801C20.1445 7.80001 20.2765 7.17601 20.5405 6.51601C20.8165 5.85601 21.1885 5.23201 21.6565 4.64401C22.1245 4.05601 22.6405 3.57001 23.2045 3.18601C23.1805 2.75401 23.3005 2.31601 23.5645 1.87201C23.8285 1.41601 24.1945 1.03801 24.6625 0.738013C25.1425 0.426013 25.6825 0.270013 26.2825 0.270013C27.0625 0.270013 27.7105 0.540013 28.2265 1.08001C28.7425 1.60801 29.0005 2.34601 29.0005 3.29401C29.0005 3.87001 28.8805 4.49401 28.6405 5.16601C28.4125 5.83801 28.0885 6.51001 27.6685 7.18201C27.2605 7.84201 26.7865 8.44801 26.2465 9.00001C25.7065 9.54001 25.1245 9.97201 24.5005 10.296C23.8885 10.632 23.2645 10.8 22.6285 10.8ZM22.4125 10.512C23.1445 10.512 23.8105 10.338 24.4105 9.99001C25.0105 9.64201 25.5445 9.18001 26.0125 8.60401C26.4805 8.02801 26.8705 7.39801 27.1825 6.71401C27.5065 6.01801 27.7525 5.32801 27.9205 4.64401C28.0885 3.94801 28.1725 3.31201 28.1725 2.73601C28.1725 2.19601 28.0345 1.72201 27.7585 1.31401C27.4945 0.894013 27.0025 0.654013 26.2825 0.594013C25.8385 0.546013 25.4125 0.648013 25.0045 0.900013C24.6085 1.14001 24.2845 1.44601 24.0325 1.81801C23.7805 2.19001 23.6425 2.55601 23.6185 2.91601C23.9905 2.70001 24.3985 2.55601 24.8425 2.48401C24.9025 2.47201 24.9865 2.46001 25.0945 2.44801C25.2025 2.43601 25.3225 2.43001 25.4545 2.43001C25.7185 2.43001 25.9885 2.47801 26.2645 2.57401C26.5525 2.65801 26.7445 2.84401 26.8405 3.13201C26.8525 3.16801 26.8645 3.22801 26.8765 3.31201C26.8885 3.39601 26.8945 3.48001 26.8945 3.56401C26.8945 3.73201 26.8585 3.81601 26.7865 3.81601C26.7385 3.81601 26.7145 3.76201 26.7145 3.65401C26.7265 3.53401 26.6845 3.39601 26.5885 3.24001C26.4805 3.04801 26.3305 2.91601 26.1385 2.84401C25.9585 2.76001 25.7605 2.71801 25.5445 2.71801C25.2925 2.71801 25.0465 2.75401 24.8065 2.82601C24.4345 2.92201 24.0505 3.11401 23.6545 3.40201C23.7385 3.64201 23.8405 3.82201 23.9605 3.94201C24.0805 4.06201 24.2005 4.15201 24.3205 4.21201C24.4045 4.24801 24.4465 4.29601 24.4465 4.35601C24.4465 4.42801 24.3745 4.44601 24.2305 4.41001C24.0025 4.35001 23.8105 4.25401 23.6545 4.12201C23.5105 3.97801 23.4025 3.82201 23.3305 3.65401C22.9105 4.02601 22.5145 4.49401 22.1425 5.05801C21.7705 5.61001 21.4705 6.19801 21.2425 6.82201C21.0265 7.44601 20.9185 8.04601 20.9185 8.62201C20.9185 8.93401 20.9785 9.23401 21.0985 9.52201C21.2305 9.81001 21.4045 10.044 21.6205 10.224C21.8485 10.416 22.1125 10.512 22.4125 10.512ZM33.8046 11.34C33.4686 11.34 33.1446 11.292 32.8326 11.196C32.5206 11.1 32.2266 10.98 31.9506 10.836C31.6866 10.704 31.4046 10.542 31.1046 10.35C30.8166 10.17 30.5586 10.008 30.3306 9.86401C30.1746 9.90001 30.0066 9.94201 29.8266 9.99001C29.6586 10.05 29.4606 10.08 29.2326 10.08C29.0646 10.08 28.8786 10.068 28.6746 10.044C28.4706 10.02 28.2966 9.96601 28.1526 9.88201C28.0206 9.81001 27.9546 9.68401 27.9546 9.50401C27.9546 9.36001 28.0146 9.25801 28.1346 9.19801C28.2546 9.13801 28.3926 9.10201 28.5486 9.09001C28.7166 9.06601 28.8486 9.05401 28.9446 9.05401C29.2206 9.05401 29.5086 9.09601 29.8086 9.18001C30.1206 9.26401 30.4446 9.36601 30.7806 9.48601C31.1646 9.39001 31.5306 9.24601 31.8786 9.05401C32.0586 8.95801 32.3046 8.81401 32.6166 8.62201C32.9286 8.41801 33.2646 8.17801 33.6246 7.90201C33.9966 7.61401 34.3566 7.30201 34.7046 6.96601C35.0526 6.61801 35.3526 6.25201 35.6046 5.86801C35.9886 5.29201 36.2886 4.69201 36.5046 4.06801C36.7326 3.44401 36.8466 2.87401 36.8466 2.35801C36.8466 1.81801 36.7026 1.37401 36.4146 1.02601C36.1266 0.678013 35.6346 0.504013 34.9386 0.504013C34.3986 0.504013 33.8886 0.636013 33.4086 0.900013C32.9406 1.16401 32.5386 1.52401 32.2026 1.98001C31.8666 2.43601 31.6206 2.95201 31.4646 3.52801C31.4166 3.70801 31.3926 3.88201 31.3926 4.05001C31.3926 4.43401 31.5006 4.73401 31.7166 4.95001C31.9446 5.15401 32.2026 5.25601 32.4906 5.25601C32.7546 5.25601 33.0126 5.17201 33.2646 5.00401C33.5286 4.83601 33.7446 4.57201 33.9126 4.21201C33.9486 4.09201 34.0026 4.03201 34.0746 4.03201C34.1106 4.03201 34.1286 4.06201 34.1286 4.12201C34.1286 4.13401 34.1286 4.15801 34.1286 4.19401C34.1286 4.21801 34.1166 4.24801 34.0926 4.28401C33.9726 4.65601 33.7146 4.98001 33.3186 5.25601C32.9226 5.52001 32.5146 5.65201 32.0946 5.65201C31.9026 5.65201 31.7166 5.62201 31.5366 5.56201C31.3686 5.50201 31.2126 5.40601 31.0686 5.27401C30.9246 5.14201 30.8166 4.98001 30.7446 4.78801C30.6846 4.59601 30.6546 4.38601 30.6546 4.15801C30.6546 3.82201 30.7206 3.47401 30.8526 3.11401C30.9846 2.75401 31.1526 2.42401 31.3566 2.12401C31.6566 1.70401 32.0166 1.34401 32.4366 1.04401C32.8686 0.744013 33.3246 0.516013 33.8046 0.360014C34.2966 0.192013 34.7706 0.108013 35.2266 0.108013C36.0066 0.108013 36.6486 0.342013 37.1526 0.810013C37.6566 1.27801 37.9086 1.90801 37.9086 2.70001C37.9086 2.76001 37.9086 2.82601 37.9086 2.89801C37.9086 2.95801 37.9026 3.01801 37.8906 3.07801C37.8306 3.64201 37.6266 4.20601 37.2786 4.77001C36.9306 5.32201 36.4986 5.85601 35.9826 6.37201C35.4666 6.87601 34.9146 7.34401 34.3266 7.77601C33.7386 8.20801 33.1626 8.58001 32.5986 8.89201C32.0466 9.20401 31.5666 9.43801 31.1586 9.59401C31.3626 9.69001 31.6326 9.81001 31.9686 9.95401C32.3046 10.098 32.6766 10.224 33.0846 10.332C33.5046 10.452 33.9306 10.512 34.3626 10.512C34.6146 10.512 34.8606 10.482 35.1006 10.422C35.3526 10.362 35.5926 10.272 35.8206 10.152C35.9766 10.056 36.0786 9.93601 36.1266 9.79201C36.1746 9.64801 36.1866 9.54001 36.1626 9.46801C36.1386 9.39601 36.1266 9.34801 36.1266 9.32401C36.1266 9.25201 36.1506 9.21601 36.1986 9.21601C36.2706 9.21601 36.3366 9.29401 36.3966 9.45001C36.4206 9.52201 36.4326 9.58801 36.4326 9.64801C36.4326 9.85201 36.3666 10.05 36.2346 10.242C36.0066 10.566 35.6706 10.83 35.2266 11.034C34.7946 11.238 34.3206 11.34 33.8046 11.34ZM29.1786 9.72001C29.3226 9.72001 29.4666 9.71401 29.6106 9.70201C29.7666 9.69001 29.8926 9.67201 29.9886 9.64801C29.8446 9.56401 29.6826 9.48601 29.5026 9.41401C29.3346 9.33001 29.1366 9.28801 28.9086 9.28801C28.6446 9.28801 28.5126 9.34801 28.5126 9.46801C28.5126 9.51601 28.5426 9.56401 28.6026 9.61201C28.6746 9.66001 28.7526 9.69001 28.8366 9.70201C28.8846 9.71401 28.9386 9.72001 28.9986 9.72001C29.0586 9.72001 29.1186 9.72001 29.1786 9.72001ZM39.2205 10.17C39.0525 10.17 38.8905 10.11 38.7345 9.99001C38.5905 9.87001 38.5185 9.70201 38.5185 9.48601C38.5185 9.24601 38.5845 9.07801 38.7165 8.98201C38.8605 8.87401 39.0105 8.82001 39.1665 8.82001C39.3465 8.82001 39.5085 8.87401 39.6525 8.98201C39.7965 9.09001 39.8685 9.25201 39.8685 9.46801C39.8685 9.69601 39.8025 9.87001 39.6705 9.99001C39.5385 10.11 39.3885 10.17 39.2205 10.17ZM46.9354 11.34C46.5994 11.34 46.2754 11.292 45.9634 11.196C45.6514 11.1 45.3574 10.98 45.0814 10.836C44.8174 10.704 44.5354 10.542 44.2354 10.35C43.9474 10.17 43.6894 10.008 43.4614 9.86401C43.3054 9.90001 43.1374 9.94201 42.9574 9.99001C42.7894 10.05 42.5914 10.08 42.3634 10.08C42.1954 10.08 42.0094 10.068 41.8054 10.044C41.6014 10.02 41.4274 9.96601 41.2834 9.88201C41.1514 9.81001 41.0854 9.68401 41.0854 9.50401C41.0854 9.36001 41.1454 9.25801 41.2654 9.19801C41.3854 9.13801 41.5234 9.10201 41.6794 9.09001C41.8474 9.06601 41.9794 9.05401 42.0754 9.05401C42.3514 9.05401 42.6394 9.09601 42.9394 9.18001C43.2514 9.26401 43.5754 9.36601 43.9114 9.48601C44.2954 9.39001 44.6614 9.24601 45.0094 9.05401C45.1894 8.95801 45.4354 8.81401 45.7474 8.62201C46.0594 8.41801 46.3954 8.17801 46.7554 7.90201C47.1274 7.61401 47.4874 7.30201 47.8354 6.96601C48.1834 6.61801 48.4834 6.25201 48.7354 5.86801C49.1194 5.29201 49.4194 4.69201 49.6354 4.06801C49.8634 3.44401 49.9774 2.87401 49.9774 2.35801C49.9774 1.81801 49.8334 1.37401 49.5454 1.02601C49.2574 0.678013 48.7654 0.504013 48.0694 0.504013C47.5294 0.504013 47.0194 0.636013 46.5394 0.900013C46.0714 1.16401 45.6694 1.52401 45.3334 1.98001C44.9974 2.43601 44.7514 2.95201 44.5954 3.52801C44.5474 3.70801 44.5234 3.88201 44.5234 4.05001C44.5234 4.43401 44.6314 4.73401 44.8474 4.95001C45.0754 5.15401 45.3334 5.25601 45.6214 5.25601C45.8854 5.25601 46.1434 5.17201 46.3954 5.00401C46.6594 4.83601 46.8754 4.57201 47.0434 4.21201C47.0794 4.09201 47.1334 4.03201 47.2054 4.03201C47.2414 4.03201 47.2594 4.06201 47.2594 4.12201C47.2594 4.13401 47.2594 4.15801 47.2594 4.19401C47.2594 4.21801 47.2474 4.24801 47.2234 4.28401C47.1034 4.65601 46.8454 4.98001 46.4494 5.25601C46.0534 5.52001 45.6454 5.65201 45.2254 5.65201C45.0334 5.65201 44.8474 5.62201 44.6674 5.56201C44.4994 5.50201 44.3434 5.40601 44.1994 5.27401C44.0554 5.14201 43.9474 4.98001 43.8754 4.78801C43.8154 4.59601 43.7854 4.38601 43.7854 4.15801C43.7854 3.82201 43.8514 3.47401 43.9834 3.11401C44.1154 2.75401 44.2834 2.42401 44.4874 2.12401C44.7874 1.70401 45.1474 1.34401 45.5674 1.04401C45.9994 0.744013 46.4554 0.516013 46.9354 0.360014C47.4274 0.192013 47.9014 0.108013 48.3574 0.108013C49.1374 0.108013 49.7794 0.342013 50.2834 0.810013C50.7874 1.27801 51.0394 1.90801 51.0394 2.70001C51.0394 2.76001 51.0394 2.82601 51.0394 2.89801C51.0394 2.95801 51.0334 3.01801 51.0214 3.07801C50.9614 3.64201 50.7574 4.20601 50.4094 4.77001C50.0614 5.32201 49.6294 5.85601 49.1134 6.37201C48.5974 6.87601 48.0454 7.34401 47.4574 7.77601C46.8694 8.20801 46.2934 8.58001 45.7294 8.89201C45.1774 9.20401 44.6974 9.43801 44.2894 9.59401C44.4934 9.69001 44.7634 9.81001 45.0994 9.95401C45.4354 10.098 45.8074 10.224 46.2154 10.332C46.6354 10.452 47.0614 10.512 47.4934 10.512C47.7454 10.512 47.9914 10.482 48.2314 10.422C48.4834 10.362 48.7234 10.272 48.9514 10.152C49.1074 10.056 49.2094 9.93601 49.2574 9.79201C49.3054 9.64801 49.3174 9.54001 49.2934 9.46801C49.2694 9.39601 49.2574 9.34801 49.2574 9.32401C49.2574 9.25201 49.2814 9.21601 49.3294 9.21601C49.4014 9.21601 49.4674 9.29401 49.5274 9.45001C49.5514 9.52201 49.5634 9.58801 49.5634 9.64801C49.5634 9.85201 49.4974 10.05 49.3654 10.242C49.1374 10.566 48.8014 10.83 48.3574 11.034C47.9254 11.238 47.4514 11.34 46.9354 11.34ZM42.3094 9.72001C42.4534 9.72001 42.5974 9.71401 42.7414 9.70201C42.8974 9.69001 43.0234 9.67201 43.1194 9.64801C42.9754 9.56401 42.8134 9.48601 42.6334 9.41401C42.4654 9.33001 42.2674 9.28801 42.0394 9.28801C41.7754 9.28801 41.6434 9.34801 41.6434 9.46801C41.6434 9.51601 41.6734 9.56401 41.7334 9.61201C41.8054 9.66001 41.8834 9.69001 41.9674 9.70201C42.0154 9.71401 42.0694 9.72001 42.1294 9.72001C42.1894 9.72001 42.2494 9.72001 42.3094 9.72001ZM53.1793 10.8C52.4473 10.8 51.8473 10.596 51.3793 10.188C50.9233 9.78001 50.6953 9.18001 50.6953 8.38801C50.6953 7.80001 50.8273 7.17601 51.0913 6.51601C51.3673 5.85601 51.7393 5.23201 52.2073 4.64401C52.6753 4.05601 53.1913 3.57001 53.7553 3.18601C53.7313 2.75401 53.8513 2.31601 54.1153 1.87201C54.3793 1.41601 54.7453 1.03801 55.2133 0.738013C55.6933 0.426013 56.2333 0.270013 56.8333 0.270013C57.6133 0.270013 58.2613 0.540013 58.7773 1.08001C59.2933 1.60801 59.5513 2.34601 59.5513 3.29401C59.5513 3.87001 59.4313 4.49401 59.1913 5.16601C58.9633 5.83801 58.6393 6.51001 58.2193 7.18201C57.8113 7.84201 57.3373 8.44801 56.7973 9.00001C56.2573 9.54001 55.6753 9.97201 55.0513 10.296C54.4393 10.632 53.8153 10.8 53.1793 10.8ZM52.9633 10.512C53.6953 10.512 54.3613 10.338 54.9613 9.99001C55.5613 9.64201 56.0953 9.18001 56.5633 8.60401C57.0313 8.02801 57.4213 7.39801 57.7333 6.71401C58.0573 6.01801 58.3033 5.32801 58.4713 4.64401C58.6393 3.94801 58.7233 3.31201 58.7233 2.73601C58.7233 2.19601 58.5853 1.72201 58.3093 1.31401C58.0453 0.894013 57.5533 0.654013 56.8333 0.594013C56.3893 0.546013 55.9633 0.648013 55.5553 0.900013C55.1593 1.14001 54.8353 1.44601 54.5833 1.81801C54.3313 2.19001 54.1933 2.55601 54.1693 2.91601C54.5413 2.70001 54.9493 2.55601 55.3933 2.48401C55.4533 2.47201 55.5373 2.46001 55.6453 2.44801C55.7533 2.43601 55.8733 2.43001 56.0053 2.43001C56.2693 2.43001 56.5393 2.47801 56.8153 2.57401C57.1033 2.65801 57.2953 2.84401 57.3913 3.13201C57.4033 3.16801 57.4153 3.22801 57.4273 3.31201C57.4393 3.39601 57.4453 3.48001 57.4453 3.56401C57.4453 3.73201 57.4093 3.81601 57.3373 3.81601C57.2893 3.81601 57.2653 3.76201 57.2653 3.65401C57.2773 3.53401 57.2353 3.39601 57.1393 3.24001C57.0313 3.04801 56.8813 2.91601 56.6893 2.84401C56.5093 2.76001 56.3113 2.71801 56.0953 2.71801C55.8433 2.71801 55.5973 2.75401 55.3573 2.82601C54.9853 2.92201 54.6013 3.11401 54.2053 3.40201C54.2893 3.64201 54.3913 3.82201 54.5113 3.94201C54.6313 4.06201 54.7513 4.15201 54.8713 4.21201C54.9553 4.24801 54.9973 4.29601 54.9973 4.35601C54.9973 4.42801 54.9253 4.44601 54.7813 4.41001C54.5533 4.35001 54.3613 4.25401 54.2053 4.12201C54.0613 3.97801 53.9533 3.82201 53.8813 3.65401C53.4613 4.02601 53.0653 4.49401 52.6933 5.05801C52.3213 5.61001 52.0213 6.19801 51.7933 6.82201C51.5773 7.44601 51.4693 8.04601 51.4693 8.62201C51.4693 8.93401 51.5293 9.23401 51.6493 9.52201C51.7813 9.81001 51.9553 10.044 52.1713 10.224C52.3993 10.416 52.6633 10.512 52.9633 10.512ZM64.3553 11.34C64.0193 11.34 63.6953 11.292 63.3833 11.196C63.0713 11.1 62.7773 10.98 62.5013 10.836C62.2373 10.704 61.9553 10.542 61.6553 10.35C61.3673 10.17 61.1093 10.008 60.8813 9.86401C60.7253 9.90001 60.5573 9.94201 60.3773 9.99001C60.2093 10.05 60.0113 10.08 59.7833 10.08C59.6153 10.08 59.4293 10.068 59.2253 10.044C59.0213 10.02 58.8473 9.96601 58.7033 9.88201C58.5713 9.81001 58.5053 9.68401 58.5053 9.50401C58.5053 9.36001 58.5653 9.25801 58.6853 9.19801C58.8053 9.13801 58.9433 9.10201 59.0993 9.09001C59.2673 9.06601 59.3993 9.05401 59.4953 9.05401C59.7713 9.05401 60.0593 9.09601 60.3593 9.18001C60.6713 9.26401 60.9953 9.36601 61.3313 9.48601C61.7153 9.39001 62.0813 9.24601 62.4293 9.05401C62.6093 8.95801 62.8553 8.81401 63.1673 8.62201C63.4793 8.41801 63.8153 8.17801 64.1753 7.90201C64.5473 7.61401 64.9073 7.30201 65.2553 6.96601C65.6033 6.61801 65.9033 6.25201 66.1553 5.86801C66.5393 5.29201 66.8393 4.69201 67.0553 4.06801C67.2833 3.44401 67.3973 2.87401 67.3973 2.35801C67.3973 1.81801 67.2533 1.37401 66.9653 1.02601C66.6773 0.678013 66.1853 0.504013 65.4893 0.504013C64.9493 0.504013 64.4393 0.636013 63.9593 0.900013C63.4913 1.16401 63.0893 1.52401 62.7533 1.98001C62.4173 2.43601 62.1713 2.95201 62.0153 3.52801C61.9673 3.70801 61.9433 3.88201 61.9433 4.05001C61.9433 4.43401 62.0513 4.73401 62.2673 4.95001C62.4953 5.15401 62.7533 5.25601 63.0413 5.25601C63.3053 5.25601 63.5633 5.17201 63.8153 5.00401C64.0793 4.83601 64.2953 4.57201 64.4633 4.21201C64.4993 4.09201 64.5533 4.03201 64.6253 4.03201C64.6613 4.03201 64.6793 4.06201 64.6793 4.12201C64.6793 4.13401 64.6793 4.15801 64.6793 4.19401C64.6793 4.21801 64.6673 4.24801 64.6433 4.28401C64.5233 4.65601 64.2653 4.98001 63.8693 5.25601C63.4733 5.52001 63.0653 5.65201 62.6453 5.65201C62.4533 5.65201 62.2673 5.62201 62.0873 5.56201C61.9193 5.50201 61.7633 5.40601 61.6193 5.27401C61.4753 5.14201 61.3673 4.98001 61.2953 4.78801C61.2353 4.59601 61.2053 4.38601 61.2053 4.15801C61.2053 3.82201 61.2713 3.47401 61.4033 3.11401C61.5353 2.75401 61.7033 2.42401 61.9073 2.12401C62.2073 1.70401 62.5673 1.34401 62.9873 1.04401C63.4193 0.744013 63.8753 0.516013 64.3553 0.360014C64.8473 0.192013 65.3213 0.108013 65.7773 0.108013C66.5573 0.108013 67.1993 0.342013 67.7033 0.810013C68.2073 1.27801 68.4593 1.90801 68.4593 2.70001C68.4593 2.76001 68.4593 2.82601 68.4593 2.89801C68.4593 2.95801 68.4533 3.01801 68.4413 3.07801C68.3813 3.64201 68.1773 4.20601 67.8293 4.77001C67.4813 5.32201 67.0493 5.85601 66.5333 6.37201C66.0173 6.87601 65.4653 7.34401 64.8773 7.77601C64.2893 8.20801 63.7133 8.58001 63.1493 8.89201C62.5973 9.20401 62.1173 9.43801 61.7093 9.59401C61.9133 9.69001 62.1833 9.81001 62.5193 9.95401C62.8553 10.098 63.2273 10.224 63.6353 10.332C64.0553 10.452 64.4813 10.512 64.9133 10.512C65.1653 10.512 65.4113 10.482 65.6513 10.422C65.9033 10.362 66.1433 10.272 66.3713 10.152C66.5273 10.056 66.6293 9.93601 66.6773 9.79201C66.7253 9.64801 66.7373 9.54001 66.7133 9.46801C66.6893 9.39601 66.6773 9.34801 66.6773 9.32401C66.6773 9.25201 66.7013 9.21601 66.7493 9.21601C66.8213 9.21601 66.8873 9.29401 66.9473 9.45001C66.9713 9.52201 66.9833 9.58801 66.9833 9.64801C66.9833 9.85201 66.9173 10.05 66.7853 10.242C66.5573 10.566 66.2213 10.83 65.7773 11.034C65.3453 11.238 64.8713 11.34 64.3553 11.34ZM59.7293 9.72001C59.8733 9.72001 60.0173 9.71401 60.1613 9.70201C60.3173 9.69001 60.4433 9.67201 60.5393 9.64801C60.3953 9.56401 60.2333 9.48601 60.0533 9.41401C59.8853 9.33001 59.6873 9.28801 59.4593 9.28801C59.1953 9.28801 59.0633 9.34801 59.0633 9.46801C59.0633 9.51601 59.0933 9.56401 59.1533 9.61201C59.2253 9.66001 59.3033 9.69001 59.3873 9.70201C59.4353 9.71401 59.4893 9.72001 59.5493 9.72001C59.6093 9.72001 59.6693 9.72001 59.7293 9.72001ZM71.1212 10.71C70.6892 10.722 70.2632 10.626 69.8432 10.422C69.4352 10.218 69.0932 9.90601 68.8172 9.48601C68.5532 9.05401 68.4212 8.52601 68.4212 7.90201C68.4212 7.54201 68.4752 7.15201 68.5832 6.73201C68.6912 6.30001 68.8652 5.84401 69.1052 5.36401C69.3452 4.89601 69.6752 4.41601 70.0952 3.92401C70.5272 3.42001 71.0192 2.93401 71.5712 2.46601C72.1352 1.99801 72.7352 1.57801 73.3712 1.20601C74.0072 0.834013 74.6552 0.540013 75.3152 0.324013C75.9872 0.108013 76.6352 1.29938e-05 77.2592 1.29938e-05C77.4872 1.29938e-05 77.7632 0.0420132 78.0872 0.126014C78.4112 0.198013 78.6272 0.318013 78.7352 0.486013C78.7712 0.558013 78.7892 0.612013 78.7892 0.648013C78.7892 0.696013 78.7712 0.732013 78.7352 0.756013C78.6992 0.780013 78.6632 0.774013 78.6272 0.738013C78.3032 0.462013 77.8412 0.324013 77.2412 0.324013C76.5812 0.324013 75.9392 0.444013 75.3152 0.684013C74.7032 0.912013 74.1212 1.22401 73.5692 1.62001C73.0172 2.00401 72.5132 2.43001 72.0572 2.89801C71.6132 3.35401 71.2232 3.81001 70.8872 4.26601C70.5512 4.72201 70.2872 5.13001 70.0952 5.49001C69.8192 6.03001 69.6152 6.53401 69.4832 7.00201C69.3632 7.45801 69.3032 7.87801 69.3032 8.26201C69.3032 8.93401 69.4712 9.46201 69.8072 9.84601C70.1552 10.218 70.5992 10.404 71.1392 10.404C71.6312 10.404 72.0992 10.272 72.5432 10.008C72.9992 9.75601 73.3952 9.43201 73.7312 9.03601C74.0792 8.64001 74.3492 8.22001 74.5412 7.77601C74.7452 7.32001 74.8472 6.90601 74.8472 6.53401C74.8472 6.17401 74.7392 5.87401 74.5232 5.63401C74.3192 5.39401 73.9832 5.27401 73.5152 5.27401C73.0112 5.27401 72.5672 5.35801 72.1832 5.52601C71.7992 5.69401 71.4692 5.90401 71.1932 6.15601C70.9172 6.39601 70.6952 6.63001 70.5272 6.85801C70.3592 7.08601 70.2452 7.26001 70.1852 7.38001C70.1372 7.46401 70.0832 7.50601 70.0232 7.50601C69.9272 7.50601 69.9152 7.43401 69.9872 7.29001C70.1552 6.96601 70.4132 6.61201 70.7612 6.22801C71.1212 5.83201 71.5412 5.49601 72.0212 5.22001C72.5012 4.94401 73.0232 4.80601 73.5872 4.80601C74.3432 4.80601 74.8952 4.97401 75.2432 5.31001C75.5912 5.64601 75.7652 6.06001 75.7652 6.55201C75.7652 6.98401 75.6512 7.43401 75.4232 7.90201C75.1952 8.37001 74.8712 8.81401 74.4512 9.23401C74.0312 9.65401 73.5392 9.99601 72.9752 10.26C72.4112 10.536 71.7932 10.686 71.1212 10.71Z" fill="white"/>
</svg>
