<svg width="74" height="12" viewBox="0 0 74 12" fill="none" xmlns="http://www.w3.org/2000/svg">
<path d="M0.0539746 9.99001C0.0179746 9.96601 -2.54102e-05 9.94201 -2.54102e-05 9.91801C-2.54102e-05 9.89401 0.0179746 9.87001 0.0539746 9.84601C0.0779746 9.81001 0.101975 9.78601 0.125975 9.77401C0.365975 9.70201 0.587975 9.62401 0.791975 9.54001C1.00797 9.45601 1.21197 9.33601 1.40397 9.18001C1.46397 9.12001 1.63197 8.88601 1.90797 8.47801C2.18397 8.05801 2.53197 7.51201 2.95197 6.84001C3.37197 6.16801 3.83397 5.41801 4.33797 4.59001C4.85397 3.76201 5.36997 2.90401 5.88597 2.01601L4.91398 2.70001C4.72197 2.84401 4.54197 2.99401 4.37397 3.15001C4.21797 3.29401 4.02597 3.45601 3.79797 3.63601C3.72597 3.69601 3.61197 3.72601 3.45597 3.72601C3.33597 3.72601 3.22197 3.70201 3.11397 3.65401C3.00597 3.60601 2.95197 3.55801 2.95197 3.51001C2.95197 3.46201 2.99997 3.42001 3.09597 3.38401C3.23997 3.32401 3.46797 3.19201 3.77997 2.98801C4.10397 2.77201 4.45797 2.52601 4.84197 2.25001C5.22597 1.97401 5.59798 1.71001 5.95798 1.45801C6.31798 1.19401 6.61797 0.978013 6.85797 0.810013C7.10997 0.642013 7.24797 0.558013 7.27197 0.558013C7.30797 0.570013 7.32598 0.624013 7.32598 0.720013C7.32598 0.840013 7.28398 1.01401 7.19998 1.24201C7.12797 1.47001 7.01397 1.72201 6.85797 1.99801C6.79797 2.10601 6.64797 2.35801 6.40798 2.75401C6.17997 3.13801 5.89797 3.60001 5.56197 4.14001C5.22597 4.68001 4.87797 5.24401 4.51797 5.83201C4.15797 6.40801 3.82197 6.95401 3.50997 7.47001C3.19797 7.98601 2.93997 8.40601 2.73597 8.73001C2.54397 9.05401 2.44797 9.22801 2.44797 9.25201C2.47197 9.38401 2.54997 9.49201 2.68197 9.57601C2.81397 9.64801 2.93997 9.70201 3.05997 9.73801C3.17997 9.76201 3.23997 9.78001 3.23997 9.79201C3.28797 9.82801 3.31197 9.86401 3.31197 9.90001C3.32397 9.93601 3.29997 9.96001 3.23997 9.97201C3.08397 9.94801 2.90997 9.93601 2.71797 9.93601C2.52597 9.93601 2.32797 9.93601 2.12397 9.93601C1.66797 9.93601 1.22997 9.94201 0.809975 9.95401C0.401975 9.97801 0.149975 9.99001 0.0539746 9.99001ZM5.34499 9.99001C5.30899 9.96601 5.29099 9.94201 5.29099 9.91801C5.29099 9.89401 5.30899 9.87001 5.34499 9.84601C5.36899 9.81001 5.39299 9.78601 5.41699 9.77401C5.65699 9.70201 5.87899 9.62401 6.08299 9.54001C6.29899 9.45601 6.50299 9.33601 6.69499 9.18001C6.75499 9.12001 6.92299 8.88601 7.19899 8.47801C7.47499 8.05801 7.82299 7.51201 8.24299 6.84001C8.66299 6.16801 9.12499 5.41801 9.62899 4.59001C10.145 3.76201 10.661 2.90401 11.177 2.01601L10.205 2.70001C10.013 2.84401 9.83299 2.99401 9.66499 3.15001C9.50899 3.29401 9.31699 3.45601 9.08899 3.63601C9.01699 3.69601 8.90299 3.72601 8.74699 3.72601C8.62699 3.72601 8.51299 3.70201 8.40499 3.65401C8.29699 3.60601 8.24299 3.55801 8.24299 3.51001C8.24299 3.46201 8.29099 3.42001 8.38699 3.38401C8.53099 3.32401 8.75899 3.19201 9.07099 2.98801C9.39499 2.77201 9.74899 2.52601 10.133 2.25001C10.517 1.97401 10.889 1.71001 11.249 1.45801C11.609 1.19401 11.909 0.978013 12.149 0.810013C12.401 0.642013 12.539 0.558013 12.563 0.558013C12.599 0.570013 12.617 0.624013 12.617 0.720013C12.617 0.840013 12.575 1.01401 12.491 1.24201C12.419 1.47001 12.305 1.72201 12.149 1.99801C12.089 2.10601 11.939 2.35801 11.699 2.75401C11.471 3.13801 11.189 3.60001 10.853 4.14001C10.517 4.68001 10.169 5.24401 9.80899 5.83201C9.44899 6.40801 9.11299 6.95401 8.80099 7.47001C8.48899 7.98601 8.23099 8.40601 8.02699 8.73001C7.83499 9.05401 7.73899 9.22801 7.73899 9.25201C7.76299 9.38401 7.84099 9.49201 7.97299 9.57601C8.10499 9.64801 8.23099 9.70201 8.35099 9.73801C8.47099 9.76201 8.53099 9.78001 8.53099 9.79201C8.57899 9.82801 8.60299 9.86401 8.60299 9.90001C8.61499 9.93601 8.59099 9.96001 8.53099 9.97201C8.37499 9.94801 8.20099 9.93601 8.00899 9.93601C7.81699 9.93601 7.61899 9.93601 7.41499 9.93601C6.95899 9.93601 6.52099 9.94201 6.10099 9.95401C5.69299 9.97801 5.44099 9.99001 5.34499 9.99001ZM12.958 10.17C12.79 10.17 12.628 10.11 12.472 9.99001C12.328 9.87001 12.256 9.70201 12.256 9.48601C12.256 9.24601 12.322 9.07801 12.454 8.98201C12.598 8.87401 12.748 8.82001 12.904 8.82001C13.084 8.82001 13.246 8.87401 13.39 8.98201C13.534 9.09001 13.606 9.25201 13.606 9.46801C13.606 9.69601 13.54 9.87001 13.408 9.99001C13.276 10.11 13.126 10.17 12.958 10.17ZM17.829 10.8C17.097 10.8 16.497 10.596 16.029 10.188C15.573 9.78001 15.345 9.18001 15.345 8.38801C15.345 7.80001 15.477 7.17601 15.741 6.51601C16.017 5.85601 16.389 5.23201 16.857 4.64401C17.325 4.05601 17.841 3.57001 18.405 3.18601C18.381 2.75401 18.501 2.31601 18.765 1.87201C19.029 1.41601 19.395 1.03801 19.863 0.738013C20.343 0.426013 20.883 0.270013 21.483 0.270013C22.263 0.270013 22.911 0.540013 23.427 1.08001C23.943 1.60801 24.201 2.34601 24.201 3.29401C24.201 3.87001 24.081 4.49401 23.841 5.16601C23.613 5.83801 23.289 6.51001 22.869 7.18201C22.461 7.84201 21.987 8.44801 21.447 9.00001C20.907 9.54001 20.325 9.97201 19.701 10.296C19.089 10.632 18.465 10.8 17.829 10.8ZM17.613 10.512C18.345 10.512 19.011 10.338 19.611 9.99001C20.211 9.64201 20.745 9.18001 21.213 8.60401C21.681 8.02801 22.071 7.39801 22.383 6.71401C22.707 6.01801 22.953 5.32801 23.121 4.64401C23.289 3.94801 23.373 3.31201 23.373 2.73601C23.373 2.19601 23.235 1.72201 22.959 1.31401C22.695 0.894013 22.203 0.654013 21.483 0.594013C21.039 0.546013 20.613 0.648013 20.205 0.900013C19.809 1.14001 19.485 1.44601 19.233 1.81801C18.981 2.19001 18.843 2.55601 18.819 2.91601C19.191 2.70001 19.599 2.55601 20.043 2.48401C20.103 2.47201 20.187 2.46001 20.295 2.44801C20.403 2.43601 20.523 2.43001 20.655 2.43001C20.919 2.43001 21.189 2.47801 21.465 2.57401C21.753 2.65801 21.945 2.84401 22.041 3.13201C22.053 3.16801 22.065 3.22801 22.077 3.31201C22.089 3.39601 22.095 3.48001 22.095 3.56401C22.095 3.73201 22.059 3.81601 21.987 3.81601C21.939 3.81601 21.915 3.76201 21.915 3.65401C21.927 3.53401 21.885 3.39601 21.789 3.24001C21.681 3.04801 21.531 2.91601 21.339 2.84401C21.159 2.76001 20.961 2.71801 20.745 2.71801C20.493 2.71801 20.247 2.75401 20.007 2.82601C19.635 2.92201 19.251 3.11401 18.855 3.40201C18.939 3.64201 19.041 3.82201 19.161 3.94201C19.281 4.06201 19.401 4.15201 19.521 4.21201C19.605 4.24801 19.647 4.29601 19.647 4.35601C19.647 4.42801 19.575 4.44601 19.431 4.41001C19.203 4.35001 19.011 4.25401 18.855 4.12201C18.711 3.97801 18.603 3.82201 18.531 3.65401C18.111 4.02601 17.715 4.49401 17.343 5.05801C16.971 5.61001 16.671 6.19801 16.443 6.82201C16.227 7.44601 16.119 8.04601 16.119 8.62201C16.119 8.93401 16.179 9.23401 16.299 9.52201C16.431 9.81001 16.605 10.044 16.821 10.224C17.049 10.416 17.313 10.512 17.613 10.512ZM29.005 11.34C28.669 11.34 28.345 11.292 28.033 11.196C27.721 11.1 27.427 10.98 27.151 10.836C26.887 10.704 26.605 10.542 26.305 10.35C26.017 10.17 25.759 10.008 25.531 9.86401C25.375 9.90001 25.207 9.94201 25.027 9.99001C24.859 10.05 24.661 10.08 24.433 10.08C24.265 10.08 24.079 10.068 23.875 10.044C23.671 10.02 23.497 9.96601 23.353 9.88201C23.221 9.81001 23.155 9.68401 23.155 9.50401C23.155 9.36001 23.215 9.25801 23.335 9.19801C23.455 9.13801 23.593 9.10201 23.749 9.09001C23.917 9.06601 24.049 9.05401 24.145 9.05401C24.421 9.05401 24.709 9.09601 25.009 9.18001C25.321 9.26401 25.645 9.36601 25.981 9.48601C26.365 9.39001 26.731 9.24601 27.079 9.05401C27.259 8.95801 27.505 8.81401 27.817 8.62201C28.129 8.41801 28.465 8.17801 28.825 7.90201C29.197 7.61401 29.557 7.30201 29.905 6.96601C30.253 6.61801 30.553 6.25201 30.805 5.86801C31.189 5.29201 31.489 4.69201 31.705 4.06801C31.933 3.44401 32.047 2.87401 32.047 2.35801C32.047 1.81801 31.903 1.37401 31.615 1.02601C31.327 0.678013 30.835 0.504013 30.139 0.504013C29.599 0.504013 29.089 0.636013 28.609 0.900013C28.141 1.16401 27.739 1.52401 27.403 1.98001C27.067 2.43601 26.821 2.95201 26.665 3.52801C26.617 3.70801 26.593 3.88201 26.593 4.05001C26.593 4.43401 26.701 4.73401 26.917 4.95001C27.145 5.15401 27.403 5.25601 27.691 5.25601C27.955 5.25601 28.213 5.17201 28.465 5.00401C28.729 4.83601 28.945 4.57201 29.113 4.21201C29.149 4.09201 29.203 4.03201 29.275 4.03201C29.311 4.03201 29.329 4.06201 29.329 4.12201C29.329 4.13401 29.329 4.15801 29.329 4.19401C29.329 4.21801 29.317 4.24801 29.293 4.28401C29.173 4.65601 28.915 4.98001 28.519 5.25601C28.123 5.52001 27.715 5.65201 27.295 5.65201C27.103 5.65201 26.917 5.62201 26.737 5.56201C26.569 5.50201 26.413 5.40601 26.269 5.27401C26.125 5.14201 26.017 4.98001 25.945 4.78801C25.885 4.59601 25.855 4.38601 25.855 4.15801C25.855 3.82201 25.921 3.47401 26.053 3.11401C26.185 2.75401 26.353 2.42401 26.557 2.12401C26.857 1.70401 27.217 1.34401 27.637 1.04401C28.069 0.744013 28.525 0.516013 29.005 0.360014C29.497 0.192013 29.971 0.108013 30.427 0.108013C31.207 0.108013 31.849 0.342013 32.353 0.810013C32.857 1.27801 33.109 1.90801 33.109 2.70001C33.109 2.76001 33.109 2.82601 33.109 2.89801C33.109 2.95801 33.103 3.01801 33.091 3.07801C33.031 3.64201 32.827 4.20601 32.479 4.77001C32.131 5.32201 31.699 5.85601 31.183 6.37201C30.667 6.87601 30.115 7.34401 29.527 7.77601C28.939 8.20801 28.363 8.58001 27.799 8.89201C27.247 9.20401 26.767 9.43801 26.359 9.59401C26.563 9.69001 26.833 9.81001 27.169 9.95401C27.505 10.098 27.877 10.224 28.285 10.332C28.705 10.452 29.131 10.512 29.563 10.512C29.815 10.512 30.061 10.482 30.301 10.422C30.553 10.362 30.793 10.272 31.021 10.152C31.177 10.056 31.279 9.93601 31.327 9.79201C31.375 9.64801 31.387 9.54001 31.363 9.46801C31.339 9.39601 31.327 9.34801 31.327 9.32401C31.327 9.25201 31.351 9.21601 31.399 9.21601C31.471 9.21601 31.537 9.29401 31.597 9.45001C31.621 9.52201 31.633 9.58801 31.633 9.64801C31.633 9.85201 31.567 10.05 31.435 10.242C31.207 10.566 30.871 10.83 30.427 11.034C29.995 11.238 29.521 11.34 29.005 11.34ZM24.379 9.72001C24.523 9.72001 24.667 9.71401 24.811 9.70201C24.967 9.69001 25.093 9.67201 25.189 9.64801C25.045 9.56401 24.883 9.48601 24.703 9.41401C24.535 9.33001 24.337 9.28801 24.109 9.28801C23.845 9.28801 23.713 9.34801 23.713 9.46801C23.713 9.51601 23.743 9.56401 23.803 9.61201C23.875 9.66001 23.953 9.69001 24.037 9.70201C24.085 9.71401 24.139 9.72001 24.199 9.72001C24.259 9.72001 24.319 9.72001 24.379 9.72001ZM34.4209 10.17C34.2529 10.17 34.0909 10.11 33.9349 9.99001C33.7909 9.87001 33.7189 9.70201 33.7189 9.48601C33.7189 9.24601 33.7849 9.07801 33.9169 8.98201C34.0609 8.87401 34.2109 8.82001 34.3669 8.82001C34.5469 8.82001 34.7089 8.87401 34.8529 8.98201C34.9969 9.09001 35.0689 9.25201 35.0689 9.46801C35.0689 9.69601 35.0029 9.87001 34.8709 9.99001C34.7389 10.11 34.5889 10.17 34.4209 10.17ZM42.1359 11.34C41.7999 11.34 41.4759 11.292 41.1639 11.196C40.8519 11.1 40.5579 10.98 40.2819 10.836C40.0179 10.704 39.7359 10.542 39.4359 10.35C39.1479 10.17 38.8899 10.008 38.6619 9.86401C38.5059 9.90001 38.3379 9.94201 38.1579 9.99001C37.9899 10.05 37.7919 10.08 37.5639 10.08C37.3959 10.08 37.2099 10.068 37.0059 10.044C36.8019 10.02 36.6279 9.96601 36.4839 9.88201C36.3519 9.81001 36.2859 9.68401 36.2859 9.50401C36.2859 9.36001 36.3459 9.25801 36.4659 9.19801C36.5859 9.13801 36.7239 9.10201 36.8799 9.09001C37.0479 9.06601 37.1799 9.05401 37.2759 9.05401C37.5519 9.05401 37.8399 9.09601 38.1399 9.18001C38.4519 9.26401 38.7759 9.36601 39.1119 9.48601C39.4959 9.39001 39.8619 9.24601 40.2099 9.05401C40.3899 8.95801 40.6359 8.81401 40.9479 8.62201C41.2599 8.41801 41.5959 8.17801 41.9559 7.90201C42.3279 7.61401 42.6879 7.30201 43.0359 6.96601C43.3839 6.61801 43.6839 6.25201 43.9359 5.86801C44.3199 5.29201 44.6199 4.69201 44.8359 4.06801C45.0639 3.44401 45.1779 2.87401 45.1779 2.35801C45.1779 1.81801 45.0339 1.37401 44.7459 1.02601C44.4579 0.678013 43.9659 0.504013 43.2699 0.504013C42.7299 0.504013 42.2199 0.636013 41.7399 0.900013C41.2719 1.16401 40.8699 1.52401 40.5339 1.98001C40.1979 2.43601 39.9519 2.95201 39.7959 3.52801C39.7479 3.70801 39.7239 3.88201 39.7239 4.05001C39.7239 4.43401 39.8319 4.73401 40.0479 4.95001C40.2759 5.15401 40.5339 5.25601 40.8219 5.25601C41.0859 5.25601 41.3439 5.17201 41.5959 5.00401C41.8599 4.83601 42.0759 4.57201 42.2439 4.21201C42.2799 4.09201 42.3339 4.03201 42.4059 4.03201C42.4419 4.03201 42.4599 4.06201 42.4599 4.12201C42.4599 4.13401 42.4599 4.15801 42.4599 4.19401C42.4599 4.21801 42.4479 4.24801 42.4239 4.28401C42.3039 4.65601 42.0459 4.98001 41.6499 5.25601C41.2539 5.52001 40.8459 5.65201 40.4259 5.65201C40.2339 5.65201 40.0479 5.62201 39.8679 5.56201C39.6999 5.50201 39.5439 5.40601 39.3999 5.27401C39.2559 5.14201 39.1479 4.98001 39.0759 4.78801C39.0159 4.59601 38.9859 4.38601 38.9859 4.15801C38.9859 3.82201 39.0519 3.47401 39.1839 3.11401C39.3159 2.75401 39.4839 2.42401 39.6879 2.12401C39.9879 1.70401 40.3479 1.34401 40.7679 1.04401C41.1999 0.744013 41.6559 0.516013 42.1359 0.360014C42.6279 0.192013 43.1019 0.108013 43.5579 0.108013C44.3379 0.108013 44.9799 0.342013 45.4839 0.810013C45.9879 1.27801 46.2399 1.90801 46.2399 2.70001C46.2399 2.76001 46.2399 2.82601 46.2399 2.89801C46.2399 2.95801 46.2339 3.01801 46.2219 3.07801C46.1619 3.64201 45.9579 4.20601 45.6099 4.77001C45.2619 5.32201 44.8299 5.85601 44.3139 6.37201C43.7979 6.87601 43.2459 7.34401 42.6579 7.77601C42.0699 8.20801 41.4939 8.58001 40.9299 8.89201C40.3779 9.20401 39.8979 9.43801 39.4899 9.59401C39.6939 9.69001 39.9639 9.81001 40.2999 9.95401C40.6359 10.098 41.0079 10.224 41.4159 10.332C41.8359 10.452 42.2619 10.512 42.6939 10.512C42.9459 10.512 43.1919 10.482 43.4319 10.422C43.6839 10.362 43.9239 10.272 44.1519 10.152C44.3079 10.056 44.4099 9.93601 44.4579 9.79201C44.5059 9.64801 44.5179 9.54001 44.4939 9.46801C44.4699 9.39601 44.4579 9.34801 44.4579 9.32401C44.4579 9.25201 44.4819 9.21601 44.5299 9.21601C44.6019 9.21601 44.6679 9.29401 44.7279 9.45001C44.7519 9.52201 44.7639 9.58801 44.7639 9.64801C44.7639 9.85201 44.6979 10.05 44.5659 10.242C44.3379 10.566 44.0019 10.83 43.5579 11.034C43.1259 11.238 42.6519 11.34 42.1359 11.34ZM37.5099 9.72001C37.6539 9.72001 37.7979 9.71401 37.9419 9.70201C38.0979 9.69001 38.2239 9.67201 38.3199 9.64801C38.1759 9.56401 38.0139 9.48601 37.8339 9.41401C37.6659 9.33001 37.4679 9.28801 37.2399 9.28801C36.9759 9.28801 36.8439 9.34801 36.8439 9.46801C36.8439 9.51601 36.8739 9.56401 36.9339 9.61201C37.0059 9.66001 37.0839 9.69001 37.1679 9.70201C37.2159 9.71401 37.2699 9.72001 37.3299 9.72001C37.3899 9.72001 37.4499 9.72001 37.5099 9.72001ZM48.3798 10.8C47.6478 10.8 47.0478 10.596 46.5798 10.188C46.1238 9.78001 45.8958 9.18001 45.8958 8.38801C45.8958 7.80001 46.0278 7.17601 46.2918 6.51601C46.5678 5.85601 46.9398 5.23201 47.4078 4.64401C47.8758 4.05601 48.3918 3.57001 48.9558 3.18601C48.9318 2.75401 49.0518 2.31601 49.3158 1.87201C49.5798 1.41601 49.9458 1.03801 50.4138 0.738013C50.8938 0.426013 51.4338 0.270013 52.0338 0.270013C52.8138 0.270013 53.4618 0.540013 53.9778 1.08001C54.4938 1.60801 54.7518 2.34601 54.7518 3.29401C54.7518 3.87001 54.6318 4.49401 54.3918 5.16601C54.1638 5.83801 53.8398 6.51001 53.4198 7.18201C53.0118 7.84201 52.5378 8.44801 51.9978 9.00001C51.4578 9.54001 50.8758 9.97201 50.2518 10.296C49.6398 10.632 49.0158 10.8 48.3798 10.8ZM48.1638 10.512C48.8958 10.512 49.5618 10.338 50.1618 9.99001C50.7618 9.64201 51.2958 9.18001 51.7638 8.60401C52.2318 8.02801 52.6218 7.39801 52.9338 6.71401C53.2578 6.01801 53.5038 5.32801 53.6718 4.64401C53.8398 3.94801 53.9238 3.31201 53.9238 2.73601C53.9238 2.19601 53.7858 1.72201 53.5098 1.31401C53.2458 0.894013 52.7538 0.654013 52.0338 0.594013C51.5898 0.546013 51.1638 0.648013 50.7558 0.900013C50.3598 1.14001 50.0358 1.44601 49.7838 1.81801C49.5318 2.19001 49.3938 2.55601 49.3698 2.91601C49.7418 2.70001 50.1498 2.55601 50.5938 2.48401C50.6538 2.47201 50.7378 2.46001 50.8458 2.44801C50.9538 2.43601 51.0738 2.43001 51.2058 2.43001C51.4698 2.43001 51.7398 2.47801 52.0158 2.57401C52.3038 2.65801 52.4958 2.84401 52.5918 3.13201C52.6038 3.16801 52.6158 3.22801 52.6278 3.31201C52.6398 3.39601 52.6458 3.48001 52.6458 3.56401C52.6458 3.73201 52.6098 3.81601 52.5378 3.81601C52.4898 3.81601 52.4658 3.76201 52.4658 3.65401C52.4778 3.53401 52.4358 3.39601 52.3398 3.24001C52.2318 3.04801 52.0818 2.91601 51.8898 2.84401C51.7098 2.76001 51.5118 2.71801 51.2958 2.71801C51.0438 2.71801 50.7978 2.75401 50.5578 2.82601C50.1858 2.92201 49.8018 3.11401 49.4058 3.40201C49.4898 3.64201 49.5918 3.82201 49.7118 3.94201C49.8318 4.06201 49.9518 4.15201 50.0718 4.21201C50.1558 4.24801 50.1978 4.29601 50.1978 4.35601C50.1978 4.42801 50.1258 4.44601 49.9818 4.41001C49.7538 4.35001 49.5618 4.25401 49.4058 4.12201C49.2618 3.97801 49.1538 3.82201 49.0818 3.65401C48.6618 4.02601 48.2658 4.49401 47.8938 5.05801C47.5218 5.61001 47.2218 6.19801 46.9938 6.82201C46.7778 7.44601 46.6698 8.04601 46.6698 8.62201C46.6698 8.93401 46.7298 9.23401 46.8498 9.52201C46.9818 9.81001 47.1558 10.044 47.3718 10.224C47.5998 10.416 47.8638 10.512 48.1638 10.512ZM59.5558 11.34C59.2198 11.34 58.8958 11.292 58.5838 11.196C58.2718 11.1 57.9778 10.98 57.7018 10.836C57.4378 10.704 57.1558 10.542 56.8558 10.35C56.5678 10.17 56.3098 10.008 56.0818 9.86401C55.9258 9.90001 55.7578 9.94201 55.5778 9.99001C55.4098 10.05 55.2118 10.08 54.9838 10.08C54.8158 10.08 54.6298 10.068 54.4258 10.044C54.2218 10.02 54.0478 9.96601 53.9038 9.88201C53.7718 9.81001 53.7058 9.68401 53.7058 9.50401C53.7058 9.36001 53.7658 9.25801 53.8858 9.19801C54.0058 9.13801 54.1438 9.10201 54.2998 9.09001C54.4678 9.06601 54.5998 9.05401 54.6958 9.05401C54.9718 9.05401 55.2598 9.09601 55.5598 9.18001C55.8718 9.26401 56.1958 9.36601 56.5318 9.48601C56.9158 9.39001 57.2818 9.24601 57.6298 9.05401C57.8098 8.95801 58.0558 8.81401 58.3678 8.62201C58.6798 8.41801 59.0158 8.17801 59.3758 7.90201C59.7478 7.61401 60.1078 7.30201 60.4558 6.96601C60.8038 6.61801 61.1038 6.25201 61.3558 5.86801C61.7398 5.29201 62.0398 4.69201 62.2558 4.06801C62.4838 3.44401 62.5978 2.87401 62.5978 2.35801C62.5978 1.81801 62.4538 1.37401 62.1658 1.02601C61.8778 0.678013 61.3858 0.504013 60.6898 0.504013C60.1498 0.504013 59.6398 0.636013 59.1598 0.900013C58.6918 1.16401 58.2898 1.52401 57.9538 1.98001C57.6178 2.43601 57.3718 2.95201 57.2158 3.52801C57.1678 3.70801 57.1438 3.88201 57.1438 4.05001C57.1438 4.43401 57.2518 4.73401 57.4678 4.95001C57.6958 5.15401 57.9538 5.25601 58.2418 5.25601C58.5058 5.25601 58.7638 5.17201 59.0158 5.00401C59.2798 4.83601 59.4958 4.57201 59.6638 4.21201C59.6998 4.09201 59.7538 4.03201 59.8258 4.03201C59.8618 4.03201 59.8798 4.06201 59.8798 4.12201C59.8798 4.13401 59.8798 4.15801 59.8798 4.19401C59.8798 4.21801 59.8678 4.24801 59.8438 4.28401C59.7238 4.65601 59.4658 4.98001 59.0698 5.25601C58.6738 5.52001 58.2658 5.65201 57.8458 5.65201C57.6538 5.65201 57.4678 5.62201 57.2878 5.56201C57.1198 5.50201 56.9638 5.40601 56.8198 5.27401C56.6758 5.14201 56.5678 4.98001 56.4958 4.78801C56.4358 4.59601 56.4058 4.38601 56.4058 4.15801C56.4058 3.82201 56.4718 3.47401 56.6038 3.11401C56.7358 2.75401 56.9038 2.42401 57.1078 2.12401C57.4078 1.70401 57.7678 1.34401 58.1878 1.04401C58.6198 0.744013 59.0758 0.516013 59.5558 0.360014C60.0478 0.192013 60.5218 0.108013 60.9778 0.108013C61.7578 0.108013 62.3998 0.342013 62.9038 0.810013C63.4078 1.27801 63.6598 1.90801 63.6598 2.70001C63.6598 2.76001 63.6598 2.82601 63.6598 2.89801C63.6598 2.95801 63.6538 3.01801 63.6418 3.07801C63.5818 3.64201 63.3778 4.20601 63.0298 4.77001C62.6818 5.32201 62.2498 5.85601 61.7338 6.37201C61.2178 6.87601 60.6658 7.34401 60.0778 7.77601C59.4898 8.20801 58.9138 8.58001 58.3498 8.89201C57.7978 9.20401 57.3178 9.43801 56.9098 9.59401C57.1138 9.69001 57.3838 9.81001 57.7198 9.95401C58.0558 10.098 58.4278 10.224 58.8358 10.332C59.2558 10.452 59.6818 10.512 60.1138 10.512C60.3658 10.512 60.6118 10.482 60.8518 10.422C61.1038 10.362 61.3438 10.272 61.5718 10.152C61.7278 10.056 61.8298 9.93601 61.8778 9.79201C61.9258 9.64801 61.9378 9.54001 61.9138 9.46801C61.8898 9.39601 61.8778 9.34801 61.8778 9.32401C61.8778 9.25201 61.9018 9.21601 61.9498 9.21601C62.0218 9.21601 62.0878 9.29401 62.1478 9.45001C62.1718 9.52201 62.1838 9.58801 62.1838 9.64801C62.1838 9.85201 62.1178 10.05 61.9858 10.242C61.7578 10.566 61.4218 10.83 60.9778 11.034C60.5458 11.238 60.0718 11.34 59.5558 11.34ZM54.9298 9.72001C55.0738 9.72001 55.2178 9.71401 55.3618 9.70201C55.5178 9.69001 55.6438 9.67201 55.7398 9.64801C55.5958 9.56401 55.4338 9.48601 55.2538 9.41401C55.0858 9.33001 54.8878 9.28801 54.6598 9.28801C54.3958 9.28801 54.2638 9.34801 54.2638 9.46801C54.2638 9.51601 54.2938 9.56401 54.3538 9.61201C54.4258 9.66001 54.5038 9.69001 54.5878 9.70201C54.6358 9.71401 54.6898 9.72001 54.7498 9.72001C54.8098 9.72001 54.8698 9.72001 54.9298 9.72001ZM66.3217 10.71C65.8897 10.722 65.4637 10.626 65.0437 10.422C64.6357 10.218 64.2937 9.90601 64.0177 9.48601C63.7537 9.05401 63.6217 8.52601 63.6217 7.90201C63.6217 7.54201 63.6757 7.15201 63.7837 6.73201C63.8917 6.30001 64.0657 5.84401 64.3057 5.36401C64.5457 4.89601 64.8757 4.41601 65.2957 3.92401C65.7277 3.42001 66.2197 2.93401 66.7717 2.46601C67.3357 1.99801 67.9357 1.57801 68.5717 1.20601C69.2077 0.834013 69.8557 0.540013 70.5157 0.324013C71.1877 0.108013 71.8357 1.29938e-05 72.4597 1.29938e-05C72.6877 1.29938e-05 72.9637 0.0420132 73.2877 0.126014C73.6117 0.198013 73.8277 0.318013 73.9357 0.486013C73.9717 0.558013 73.9897 0.612013 73.9897 0.648013C73.9897 0.696013 73.9717 0.732013 73.9357 0.756013C73.8997 0.780013 73.8637 0.774013 73.8277 0.738013C73.5037 0.462013 73.0417 0.324013 72.4417 0.324013C71.7817 0.324013 71.1397 0.444013 70.5157 0.684013C69.9037 0.912013 69.3217 1.22401 68.7697 1.62001C68.2177 2.00401 67.7137 2.43001 67.2577 2.89801C66.8137 3.35401 66.4237 3.81001 66.0877 4.26601C65.7517 4.72201 65.4877 5.13001 65.2957 5.49001C65.0197 6.03001 64.8157 6.53401 64.6837 7.00201C64.5637 7.45801 64.5037 7.87801 64.5037 8.26201C64.5037 8.93401 64.6717 9.46201 65.0077 9.84601C65.3557 10.218 65.7997 10.404 66.3397 10.404C66.8317 10.404 67.2997 10.272 67.7437 10.008C68.1997 9.75601 68.5957 9.43201 68.9317 9.03601C69.2797 8.64001 69.5497 8.22001 69.7417 7.77601C69.9457 7.32001 70.0477 6.90601 70.0477 6.53401C70.0477 6.17401 69.9397 5.87401 69.7237 5.63401C69.5197 5.39401 69.1837 5.27401 68.7157 5.27401C68.2117 5.27401 67.7677 5.35801 67.3837 5.52601C66.9997 5.69401 66.6697 5.90401 66.3937 6.15601C66.1177 6.39601 65.8957 6.63001 65.7277 6.85801C65.5597 7.08601 65.4457 7.26001 65.3857 7.38001C65.3377 7.46401 65.2837 7.50601 65.2237 7.50601C65.1277 7.50601 65.1157 7.43401 65.1877 7.29001C65.3557 6.96601 65.6137 6.61201 65.9617 6.22801C66.3217 5.83201 66.7417 5.49601 67.2217 5.22001C67.7017 4.94401 68.2237 4.80601 68.7877 4.80601C69.5437 4.80601 70.0957 4.97401 70.4437 5.31001C70.7917 5.64601 70.9657 6.06001 70.9657 6.55201C70.9657 6.98401 70.8517 7.43401 70.6237 7.90201C70.3957 8.37001 70.0717 8.81401 69.6517 9.23401C69.2317 9.65401 68.7397 9.99601 68.1757 10.26C67.6117 10.536 66.9937 10.686 66.3217 10.71Z" fill="white"/>
</svg>
