<svg xmlns="http://www.w3.org/2000/svg" width="63" height="18" viewBox="0 0 63 18" fill="none"><path d="M10.9542 17.256V15.768L13.2102 15.384V17.64L10.9542 18V17.64H0.826156V17.256C0.826156 17.256 10.9542 14.04 10.9542 5.616C10.9542 1.872 8.89016 0.743999 6.05816 0.743999C2.79416 0.743999 1.57016 3.744 1.57016 3.744L1.06616 2.76C1.06616 2.76 2.31416 0.36 6.44216 0.36C10.2342 0.36 13.2102 1.872 13.2102 5.616C13.2102 12.768 2.31416 17.256 2.31416 17.256H10.9542ZM23.7987 0.36C28.6707 0.36 31.6707 3 31.6707 9C31.6707 15 28.3107 18 23.7987 18C18.9267 18 15.9267 15 15.9267 9C15.9267 3 19.2867 0.36 23.7987 0.36ZM24.5427 17.64C28.6707 17.64 29.4387 13.128 29.4387 9C29.4387 3 26.4147 0.743999 23.0547 0.743999C19.2867 0.743999 18.1587 4.872 18.1587 9C18.1587 15 21.1587 17.64 24.5427 17.64ZM43.7901 17.256V15.768L46.0461 15.384V17.64L43.7901 18V17.64H33.6621V17.256C33.6621 17.256 43.7901 14.04 43.7901 5.616C43.7901 1.872 41.7261 0.743999 38.8941 0.743999C35.6301 0.743999 34.4061 3.744 34.4061 3.744L33.9021 2.76C33.9021 2.76 35.1501 0.36 39.2781 0.36C43.0701 0.36 46.0461 1.872 46.0461 5.616C46.0461 12.768 35.1501 17.256 35.1501 17.256H43.7901ZM54.6945 6.744C58.8465 6.744 62.9745 8.448 62.9745 12.384C62.9745 16.296 58.9905 18 54.6945 18C50.1825 18 48.3345 16.056 48.3345 16.056L48.8145 15.072C50.3745 16.656 52.4865 17.568 54.6945 17.64C58.5105 17.64 60.3345 14.832 60.3345 12.384C60.3345 9.144 58.0785 7.128 54.6945 7.128C53.1825 7.08 51.6945 7.2 50.2065 7.488H49.8225L50.9505 0.743999H58.4625L60.7185 0.36V2.616L58.4625 3V1.128H51.2625L50.2545 7.104C51.7185 6.84 53.2065 6.72 54.6945 6.744Z" fill="#929783"/></svg>