<svg width="68" height="21" viewBox="0 0 68 21" fill="none" xmlns="http://www.w3.org/2000/svg">
<path d="M10.4 20.1599C9.80267 20.1599 9.22667 20.0746 8.672 19.9039C8.11733 19.7332 7.59467 19.5199 7.104 19.2639C6.63467 19.0292 6.13333 18.7412 5.6 18.3999C5.088 18.0799 4.62933 17.7919 4.224 17.5359C3.94667 17.5999 3.648 17.6746 3.328 17.7599C3.02933 17.8666 2.67733 17.9199 2.272 17.9199C1.97333 17.9199 1.64267 17.8986 1.28 17.8559C0.917332 17.8132 0.607999 17.7172 0.351999 17.5679C0.117332 17.4399 -9.83477e-07 17.2159 -9.83477e-07 16.8959C-9.83477e-07 16.6399 0.106666 16.4586 0.319999 16.3519C0.533332 16.2452 0.778666 16.1812 1.056 16.1599C1.35467 16.1172 1.58933 16.0959 1.76 16.0959C2.25067 16.0959 2.76267 16.1706 3.296 16.3199C3.85067 16.4692 4.42667 16.6506 5.024 16.8639C5.70667 16.6932 6.35733 16.4372 6.976 16.0959C7.296 15.9252 7.73333 15.6692 8.288 15.3279C8.84267 14.9652 9.44 14.5386 10.08 14.0479C10.7413 13.5359 11.3813 12.9812 12 12.3839C12.6187 11.7652 13.152 11.1146 13.6 10.4319C14.2827 9.40789 14.816 8.34122 15.2 7.23189C15.6053 6.12255 15.808 5.10922 15.808 4.19189C15.808 3.23189 15.552 2.44255 15.04 1.82389C14.528 1.20522 13.6533 0.895887 12.416 0.895887C11.456 0.895887 10.5493 1.13055 9.696 1.59989C8.864 2.06922 8.14933 2.70922 7.552 3.51989C6.95467 4.33055 6.51733 5.24789 6.24 6.27189C6.15467 6.59189 6.112 6.90122 6.112 7.19989C6.112 7.88256 6.304 8.41589 6.688 8.79989C7.09333 9.16256 7.552 9.34389 8.064 9.34389C8.53333 9.34389 8.992 9.19455 9.44 8.89589C9.90933 8.59722 10.2933 8.12789 10.592 7.48789C10.656 7.27456 10.752 7.16789 10.88 7.16789C10.944 7.16789 10.976 7.22122 10.976 7.32789C10.976 7.34922 10.976 7.39189 10.976 7.45589C10.976 7.49855 10.9547 7.55189 10.912 7.61589C10.6987 8.27722 10.24 8.85322 9.536 9.34389C8.832 9.81322 8.10667 10.0479 7.36 10.0479C7.01867 10.0479 6.688 9.99455 6.368 9.88789C6.06933 9.78122 5.792 9.61055 5.536 9.37589C5.28 9.14122 5.088 8.85322 4.96 8.51189C4.85333 8.17056 4.8 7.79722 4.8 7.39189C4.8 6.79455 4.91733 6.17589 5.152 5.53589C5.38667 4.89589 5.68533 4.30922 6.048 3.77589C6.58133 3.02922 7.22133 2.38922 7.968 1.85589C8.736 1.32255 9.54667 0.917221 10.4 0.639889C11.2747 0.341221 12.1173 0.191887 12.928 0.191887C14.3147 0.191887 15.456 0.607887 16.352 1.43989C17.248 2.27189 17.696 3.39189 17.696 4.79989C17.696 4.90655 17.696 5.02389 17.696 5.15189C17.696 5.25855 17.6853 5.36522 17.664 5.47189C17.5573 6.47456 17.1947 7.47722 16.576 8.47989C15.9573 9.46122 15.1893 10.4106 14.272 11.3279C13.3547 12.2239 12.3733 13.0559 11.328 13.8239C10.2827 14.5919 9.25867 15.2532 8.256 15.8079C7.27467 16.3626 6.42133 16.7786 5.696 17.0559C6.05867 17.2266 6.53867 17.4399 7.136 17.6959C7.73333 17.9519 8.39467 18.1759 9.12 18.3679C9.86667 18.5812 10.624 18.6879 11.392 18.6879C11.84 18.6879 12.2773 18.6346 12.704 18.5279C13.152 18.4212 13.5787 18.2612 13.984 18.0479C14.2613 17.8772 14.4427 17.6639 14.528 17.4079C14.6133 17.1519 14.6347 16.9599 14.592 16.8319C14.5493 16.7039 14.528 16.6186 14.528 16.5759C14.528 16.4479 14.5707 16.3839 14.656 16.3839C14.784 16.3839 14.9013 16.5226 15.008 16.7999C15.0507 16.9279 15.072 17.0452 15.072 17.1519C15.072 17.5146 14.9547 17.8666 14.72 18.2079C14.3147 18.7839 13.7173 19.2532 12.928 19.6159C12.16 19.9786 11.3173 20.1599 10.4 20.1599ZM2.176 17.2799C2.432 17.2799 2.688 17.2692 2.944 17.2479C3.22133 17.2266 3.44533 17.1946 3.616 17.1519C3.36 17.0026 3.072 16.8639 2.752 16.7359C2.45333 16.5866 2.10133 16.5119 1.696 16.5119C1.22667 16.5119 0.991999 16.6186 0.991999 16.8319C0.991999 16.9172 1.04533 17.0026 1.152 17.0879C1.28 17.1732 1.41867 17.2266 1.568 17.2479C1.65333 17.2692 1.74933 17.2799 1.856 17.2799C1.96267 17.2799 2.06933 17.2799 2.176 17.2799ZM21.5002 19.1999C20.1989 19.1999 19.1322 18.8372 18.3002 18.1119C17.4896 17.3866 17.0842 16.3199 17.0842 14.9119C17.0842 13.8666 17.3189 12.7572 17.7882 11.5839C18.2789 10.4106 18.9402 9.30122 19.7722 8.25589C20.6042 7.21055 21.5216 6.34655 22.5242 5.66389C22.4816 4.89589 22.6949 4.11722 23.1642 3.32789C23.6336 2.51722 24.2842 1.84522 25.1162 1.31189C25.9696 0.757221 26.9296 0.479887 27.9962 0.479887C29.3829 0.479887 30.5349 0.959887 31.4522 1.91989C32.3696 2.85855 32.8282 4.17055 32.8282 5.85589C32.8282 6.87989 32.6149 7.98922 32.1882 9.18389C31.7829 10.3786 31.2069 11.5732 30.4602 12.7679C29.7349 13.9412 28.8922 15.0186 27.9323 15.9999C26.9722 16.9599 25.9376 17.7279 24.8282 18.3039C23.7402 18.9012 22.6309 19.1999 21.5002 19.1999ZM21.1162 18.6879C22.4176 18.6879 23.6016 18.3786 24.6682 17.7599C25.7349 17.1412 26.6842 16.3199 27.5162 15.2959C28.3482 14.2719 29.0416 13.1519 29.5962 11.9359C30.1722 10.6986 30.6096 9.47189 30.9082 8.25589C31.2069 7.01855 31.3562 5.88789 31.3562 4.86389C31.3562 3.90389 31.1109 3.06122 30.6202 2.33589C30.1509 1.58922 29.2762 1.16255 27.9962 1.05589C27.2069 0.970554 26.4496 1.15189 25.7242 1.59989C25.0202 2.02655 24.4442 2.57055 23.9962 3.23189C23.5482 3.89322 23.3029 4.54389 23.2602 5.18389C23.9216 4.79989 24.6469 4.54389 25.4362 4.41589C25.5429 4.39455 25.6922 4.37322 25.8842 4.35189C26.0762 4.33055 26.2896 4.31989 26.5242 4.31989C26.9936 4.31989 27.4736 4.40522 27.9642 4.57589C28.4762 4.72522 28.8176 5.05589 28.9882 5.56789C29.0096 5.63189 29.0309 5.73855 29.0522 5.88789C29.0736 6.03722 29.0842 6.18655 29.0842 6.33589C29.0842 6.63455 29.0202 6.78389 28.8923 6.78389C28.8069 6.78389 28.7642 6.68789 28.7642 6.49589C28.7856 6.28255 28.7109 6.03722 28.5402 5.75989C28.3482 5.41855 28.0816 5.18389 27.7402 5.05589C27.4202 4.90655 27.0682 4.83189 26.6842 4.83189C26.2362 4.83189 25.7989 4.89589 25.3722 5.02389C24.7109 5.19455 24.0282 5.53589 23.3242 6.04789C23.4736 6.47455 23.6549 6.79455 23.8682 7.00789C24.0816 7.22122 24.2949 7.38122 24.5082 7.48789C24.6576 7.55189 24.7322 7.63722 24.7322 7.74389C24.7322 7.87189 24.6042 7.90389 24.3482 7.83989C23.9429 7.73322 23.6016 7.56255 23.3242 7.32789C23.0682 7.07189 22.8762 6.79455 22.7482 6.49589C22.0016 7.15722 21.2976 7.98922 20.6362 8.99189C19.9749 9.97322 19.4416 11.0186 19.0362 12.1279C18.6522 13.2372 18.4602 14.3039 18.4602 15.3279C18.4602 15.8826 18.5669 16.4159 18.7802 16.9279C19.0149 17.4399 19.3242 17.8559 19.7082 18.1759C20.1136 18.5172 20.5829 18.6879 21.1162 18.6879ZM41.3687 20.1599C40.7714 20.1599 40.1954 20.0746 39.6407 19.9039C39.0861 19.7332 38.5634 19.5199 38.0727 19.2639C37.6034 19.0292 37.1021 18.7412 36.5687 18.3999C36.0567 18.0799 35.5981 17.7919 35.1927 17.5359C34.9154 17.5999 34.6167 17.6746 34.2967 17.7599C33.9981 17.8666 33.6461 17.9199 33.2407 17.9199C32.9421 17.9199 32.6114 17.8986 32.2487 17.8559C31.8861 17.8132 31.5767 17.7172 31.3207 17.5679C31.0861 17.4399 30.9687 17.2159 30.9687 16.8959C30.9687 16.6399 31.0754 16.4586 31.2887 16.3519C31.5021 16.2452 31.7474 16.1812 32.0247 16.1599C32.3234 16.1172 32.5581 16.0959 32.7287 16.0959C33.2194 16.0959 33.7314 16.1706 34.2647 16.3199C34.8194 16.4692 35.3954 16.6506 35.9927 16.8639C36.6754 16.6932 37.3261 16.4372 37.9447 16.0959C38.2647 15.9252 38.7021 15.6692 39.2567 15.3279C39.8114 14.9652 40.4087 14.5386 41.0487 14.0479C41.7101 13.5359 42.3501 12.9812 42.9688 12.3839C43.5874 11.7652 44.1207 11.1146 44.5687 10.4319C45.2514 9.40789 45.7847 8.34122 46.1687 7.23189C46.5741 6.12255 46.7767 5.10922 46.7767 4.19189C46.7767 3.23189 46.5207 2.44255 46.0087 1.82389C45.4967 1.20522 44.6221 0.895887 43.3847 0.895887C42.4247 0.895887 41.5181 1.13055 40.6647 1.59989C39.8327 2.06922 39.1181 2.70922 38.5207 3.51989C37.9234 4.33055 37.4861 5.24789 37.2087 6.27189C37.1234 6.59189 37.0807 6.90122 37.0807 7.19989C37.0807 7.88256 37.2727 8.41589 37.6567 8.79989C38.0621 9.16256 38.5207 9.34389 39.0327 9.34389C39.5021 9.34389 39.9607 9.19455 40.4087 8.89589C40.8781 8.59722 41.2621 8.12789 41.5607 7.48789C41.6247 7.27456 41.7207 7.16789 41.8487 7.16789C41.9127 7.16789 41.9447 7.22122 41.9447 7.32789C41.9447 7.34922 41.9447 7.39189 41.9447 7.45589C41.9447 7.49855 41.9234 7.55189 41.8807 7.61589C41.6674 8.27722 41.2087 8.85322 40.5047 9.34389C39.8007 9.81322 39.0754 10.0479 38.3287 10.0479C37.9874 10.0479 37.6567 9.99455 37.3367 9.88789C37.0381 9.78122 36.7607 9.61055 36.5047 9.37589C36.2487 9.14122 36.0567 8.85322 35.9287 8.51189C35.8221 8.17056 35.7687 7.79722 35.7687 7.39189C35.7687 6.79455 35.8861 6.17589 36.1207 5.53589C36.3554 4.89589 36.6541 4.30922 37.0167 3.77589C37.5501 3.02922 38.1901 2.38922 38.9367 1.85589C39.7047 1.32255 40.5154 0.917221 41.3687 0.639889C42.2434 0.341221 43.0861 0.191887 43.8967 0.191887C45.2834 0.191887 46.4247 0.607887 47.3207 1.43989C48.2167 2.27189 48.6647 3.39189 48.6647 4.79989C48.6647 4.90655 48.6647 5.02389 48.6647 5.15189C48.6647 5.25855 48.6541 5.36522 48.6327 5.47189C48.5261 6.47456 48.1634 7.47722 47.5448 8.47989C46.9261 9.46122 46.1581 10.4106 45.2407 11.3279C44.3234 12.2239 43.3421 13.0559 42.2967 13.8239C41.2514 14.5919 40.2274 15.2532 39.2247 15.8079C38.2434 16.3626 37.3901 16.7786 36.6647 17.0559C37.0274 17.2266 37.5074 17.4399 38.1047 17.6959C38.7021 17.9519 39.3634 18.1759 40.0887 18.3679C40.8354 18.5812 41.5927 18.6879 42.3607 18.6879C42.8087 18.6879 43.2461 18.6346 43.6727 18.5279C44.1207 18.4212 44.5474 18.2612 44.9527 18.0479C45.2301 17.8772 45.4114 17.6639 45.4967 17.4079C45.5821 17.1519 45.6034 16.9599 45.5608 16.8319C45.5181 16.7039 45.4967 16.6186 45.4967 16.5759C45.4967 16.4479 45.5394 16.3839 45.6248 16.3839C45.7527 16.3839 45.8701 16.5226 45.9767 16.7999C46.0194 16.9279 46.0407 17.0452 46.0407 17.1519C46.0407 17.5146 45.9234 17.8666 45.6887 18.2079C45.2834 18.7839 44.6861 19.2532 43.8967 19.6159C43.1287 19.9786 42.2861 20.1599 41.3687 20.1599ZM33.1447 17.2799C33.4007 17.2799 33.6567 17.2692 33.9127 17.2479C34.1901 17.2266 34.4141 17.1946 34.5847 17.1519C34.3287 17.0026 34.0407 16.8639 33.7207 16.7359C33.4221 16.5866 33.0701 16.5119 32.6647 16.5119C32.1954 16.5119 31.9607 16.6186 31.9607 16.8319C31.9607 16.9172 32.0141 17.0026 32.1207 17.0879C32.2487 17.1732 32.3874 17.2266 32.5367 17.2479C32.6221 17.2692 32.7181 17.2799 32.8247 17.2799C32.9314 17.2799 33.0381 17.2799 33.1447 17.2799ZM53.397 19.0399C52.629 19.0612 51.8717 18.8906 51.125 18.5279C50.3997 18.1652 49.7917 17.6106 49.301 16.8639C48.8317 16.0959 48.597 15.1572 48.597 14.0479C48.597 13.4079 48.693 12.7146 48.885 11.9679C49.077 11.1999 49.3863 10.3892 49.813 9.53589C50.2397 8.70389 50.8263 7.85056 51.573 6.97589C52.341 6.07989 53.2157 5.21589 54.197 4.38389C55.1997 3.55189 56.2663 2.80522 57.397 2.14389C58.5277 1.48255 59.6797 0.959888 60.853 0.575888C62.0477 0.191888 63.1997 -0.000112534 64.309 -0.000112534C64.7143 -0.000112534 65.205 0.0745544 65.781 0.223888C66.357 0.351888 66.741 0.565221 66.933 0.863888C66.997 0.991887 67.029 1.08789 67.029 1.15189C67.029 1.23722 66.997 1.30122 66.933 1.34389C66.869 1.38655 66.805 1.37589 66.741 1.31189C66.165 0.821221 65.3437 0.575888 64.277 0.575888C63.1037 0.575888 61.9623 0.789221 60.853 1.21589C59.765 1.62122 58.7303 2.17589 57.749 2.87989C56.7677 3.56255 55.8717 4.31989 55.061 5.15189C54.2717 5.96255 53.5783 6.77322 52.981 7.58389C52.3837 8.39456 51.9143 9.11989 51.573 9.75989C51.0823 10.7199 50.7197 11.6159 50.485 12.4479C50.2717 13.2586 50.165 14.0052 50.165 14.6879C50.165 15.8826 50.4637 16.8212 51.061 17.5039C51.6797 18.1652 52.469 18.4959 53.429 18.4959C54.3037 18.4959 55.1357 18.2612 55.925 17.7919C56.7357 17.3439 57.4397 16.7679 58.037 16.0639C58.6557 15.3599 59.1357 14.6132 59.477 13.8239C59.8397 13.0132 60.021 12.2772 60.021 11.6159C60.021 10.9759 59.829 10.4426 59.445 10.0159C59.0823 9.58922 58.485 9.37589 57.653 9.37589C56.757 9.37589 55.9677 9.52522 55.285 9.82389C54.6023 10.1226 54.0157 10.4959 53.525 10.9439C53.0343 11.3706 52.6397 11.7866 52.341 12.1919C52.0423 12.5972 51.8397 12.9066 51.733 13.1199C51.6477 13.2692 51.5517 13.3439 51.445 13.3439C51.2743 13.3439 51.253 13.2159 51.381 12.9599C51.6797 12.3839 52.1383 11.7546 52.757 11.0719C53.397 10.3679 54.1437 9.77055 54.997 9.27989C55.8503 8.78922 56.7783 8.54389 57.781 8.54389C59.125 8.54389 60.1063 8.84255 60.725 9.43989C61.3437 10.0372 61.653 10.7732 61.653 11.6479C61.653 12.4159 61.4503 13.2159 61.045 14.0479C60.6397 14.8799 60.0637 15.6692 59.317 16.4159C58.5703 17.1626 57.6957 17.7706 56.693 18.2399C55.6903 18.7306 54.5917 18.9972 53.397 19.0399Z" fill="#B81D1B"/>
</svg>
