<svg width="239" height="83" viewBox="0 0 239 83" fill="none" xmlns="http://www.w3.org/2000/svg">
<g clip-path="url(#clip0_80_43)">
<mask id="mask0_80_43" style="mask-type:luminance" maskUnits="userSpaceOnUse" x="0" y="0" width="239" height="83">
<path d="M239 0H0V83H239V0Z" fill="white"/>
</mask>
<g mask="url(#mask0_80_43)">
<path d="M68.482 50.4526L68.1433 51L67 48L68.1433 45L68.482 45.5474L67.5399 48L68.482 50.4526ZM69.6994 50.4526L69.3606 51L68.2068 48L69.3606 45L69.6994 45.5474L68.7572 48L69.6994 50.4526ZM169.782 48L168.629 51L168.301 50.4526L169.243 48L168.301 45.5474L168.629 45L169.782 48ZM171 48L169.846 51L169.507 50.4526L170.45 48L169.507 45.5474L169.846 45L171 48Z" fill="#FEFAEF"/>
<path d="M101.6 15.1002C101.787 15.0202 101.92 15.0735 102 15.2602C102.08 15.4469 102.027 15.5802 101.84 15.6602C101.027 16.0069 99.2208 16.5269 96.4208 17.2202C94.7275 18.7269 92.8875 19.7202 90.9008 20.2002C90.1008 20.3869 89.4741 20.4335 89.0208 20.3402C88.5541 20.2469 88.3808 20.0269 88.5008 19.6802C88.7008 19.1202 89.5208 18.5802 90.9608 18.0602C91.8808 17.7402 93.4408 17.3202 95.6408 16.8002C96.6675 15.8802 97.5275 14.8602 98.2208 13.7402C99.4608 11.6735 99.9473 9.67353 99.6803 7.74023C99.5475 6.84693 99.2541 6.12693 98.8008 5.58023C98.3208 5.00693 97.7075 4.68693 96.9608 4.62023C94.6941 4.42023 92.0541 6.17353 89.0408 9.88023C88.4141 12.6535 87.0075 16.2802 84.8208 20.7602C83.1141 24.2669 81.4341 27.3269 79.7808 29.9402C79.2341 30.8069 78.8608 31.3469 78.6608 31.5602C78.4741 31.7469 78.2941 31.7935 78.1208 31.7002C78.0541 31.6469 78.0075 31.6002 77.9808 31.5602V31.5202L77.9608 31.4802C77.9208 31.3202 77.9675 30.9602 78.1008 30.4002C78.1541 30.2002 78.2075 29.9869 78.2608 29.7602C78.2875 29.6669 78.3141 29.5802 78.3408 29.5002C78.3675 29.4202 78.3875 29.3535 78.4008 29.3002C79.7075 24.7402 81.5408 20.3135 83.9008 16.0202C85.3141 13.5135 86.8541 11.2802 88.5208 9.32023C88.7075 8.48023 88.7875 7.74693 88.7608 7.12023C88.7208 5.96023 88.2208 5.22023 87.2608 4.90023C86.4075 4.62023 85.4008 4.72023 84.2408 5.20023C82.3608 5.97353 80.5941 7.39353 78.9408 9.46023C77.2875 11.5269 76.6008 13.1802 76.8808 14.4202C77.0008 14.9802 77.4008 15.2535 78.0808 15.2402C78.7075 15.2269 79.2541 15.0002 79.7208 14.5602C79.8675 14.4269 80.0141 14.4335 80.1608 14.5802C80.2941 14.7269 80.2875 14.8669 80.1408 15.0002C79.5541 15.5469 78.8341 15.8269 77.9808 15.8402C77.0208 15.8669 76.4075 15.4669 76.1408 14.6402C75.6741 13.2002 76.3675 11.3402 78.2208 9.06023C80.0075 6.87353 81.9275 5.38023 83.9808 4.58023C85.3808 4.03353 86.5941 3.96023 87.6208 4.36023C88.7275 4.80023 89.3075 5.71353 89.3608 7.10023C89.3875 7.51353 89.3675 7.96023 89.3008 8.44023C92.1675 5.28023 94.7408 3.80693 97.0208 4.02023C97.9275 4.11353 98.6741 4.49353 99.2608 5.16023C99.8203 5.78693 100.187 6.60023 100.36 7.60023C100.734 9.76023 100.26 11.9535 98.9408 14.1802C98.4875 14.9402 97.9275 15.6802 97.2608 16.4002C99.2875 15.9202 100.734 15.4869 101.6 15.1002ZM79.2808 29.6202C80.6408 27.4602 82.1275 24.7469 83.7408 21.4802C85.8075 17.3469 87.2475 13.9069 88.0608 11.1602C86.8475 12.7869 85.7141 14.5469 84.6608 16.4402C82.1808 20.8535 80.2941 25.2002 79.0008 29.4802L78.7208 30.4602C78.9208 30.1935 79.1075 29.9135 79.2808 29.6202ZM89.8208 19.7002C91.2875 19.5535 92.8608 18.8802 94.5408 17.6802C91.3808 18.4669 89.5941 19.1402 89.1808 19.7002C89.2741 19.7135 89.3875 19.7202 89.5208 19.7202C89.6275 19.7202 89.7275 19.7135 89.8208 19.7002ZM106.013 18.9402C106.093 19.0735 106.053 19.2202 105.893 19.3802C105.68 19.5802 105.327 19.8469 104.833 20.1802L104.673 20.2802L104.493 20.4002C104.36 20.4935 104.233 20.5735 104.113 20.6402C103.78 20.8269 103.467 20.9735 103.173 21.0802C102.36 21.4002 101.567 21.4802 100.793 21.3202C100.247 21.2002 99.8533 20.9202 99.6133 20.4802C99.4136 20.0935 99.3803 19.7069 99.5136 19.3202C99.3136 19.4802 99.1536 19.6002 99.0336 19.6802C98.9936 19.7069 98.9336 19.7202 98.8536 19.7202C98.7869 19.7069 98.7269 19.6735 98.6736 19.6202C98.6336 19.5669 98.6203 19.5002 98.6336 19.4202C98.6469 19.3402 98.6736 19.2802 98.7136 19.2402C98.7536 19.2002 98.8269 19.1335 98.9336 19.0402L99.0136 18.9602L99.0936 18.9002C99.1603 18.8335 99.2269 18.7735 99.2936 18.7202C99.3203 18.7069 99.4003 18.6535 99.5336 18.5602L99.6133 18.5202L99.7133 18.4402L99.9333 18.3002C100.333 17.6469 100.86 17.1269 101.513 16.7402C102.22 16.3002 102.873 16.1602 103.473 16.3202C103.74 16.3869 103.927 16.5202 104.033 16.7202C104.287 17.1335 103.873 17.5669 102.793 18.0202C102.607 18.1002 102.393 18.1802 102.153 18.2602L101.833 18.3802L101.533 18.4802C101.067 18.6402 100.787 18.7535 100.693 18.8202C100.413 19.3135 100.333 19.7202 100.453 20.0402C100.56 20.3469 100.813 20.5402 101.213 20.6202C102.12 20.8202 103.173 20.5335 104.373 19.7602C104.707 19.5602 105.093 19.2802 105.533 18.9202C105.613 18.8535 105.7 18.8269 105.793 18.8402C105.887 18.8402 105.96 18.8735 106.013 18.9402ZM103.433 17.0202L103.333 16.9802C103.293 16.9802 103.247 16.9735 103.193 16.9602C103.06 16.9602 102.92 16.9735 102.773 17.0002C102.36 17.1069 101.907 17.3802 101.413 17.8202L101.253 17.9802C101.6 17.8602 101.947 17.7269 102.293 17.5802C102.72 17.3935 103.093 17.2069 103.413 17.0202H103.433ZM112.478 18.9402C112.558 19.0735 112.518 19.2202 112.358 19.3802C112.145 19.5802 111.791 19.8469 111.298 20.1802L111.138 20.2802L110.958 20.4002C110.825 20.4935 110.698 20.5735 110.578 20.6402C110.245 20.8269 109.931 20.9735 109.638 21.0802C108.825 21.4002 108.031 21.4802 107.258 21.3202C106.711 21.2002 106.318 20.9202 106.078 20.4802C105.878 20.0935 105.845 19.7069 105.978 19.3202C105.778 19.4802 105.618 19.6002 105.498 19.6802C105.458 19.7069 105.398 19.7202 105.318 19.7202C105.251 19.7069 105.191 19.6735 105.138 19.6202C105.098 19.5669 105.085 19.5002 105.098 19.4202C105.111 19.3402 105.138 19.2802 105.178 19.2402C105.218 19.2002 105.291 19.1335 105.398 19.0402L105.478 18.9602L105.558 18.9002C105.625 18.8335 105.691 18.7735 105.758 18.7202C105.798 18.6935 105.911 18.6069 106.098 18.4602C106.151 18.4202 106.238 18.3469 106.358 18.2402L106.678 18.0002C107.238 17.5735 107.558 17.3269 107.638 17.2602C107.651 17.2469 107.678 17.2269 107.718 17.2002L107.798 17.1402L107.858 17.0802C107.991 16.9735 108.111 16.8869 108.218 16.8202C108.525 16.5935 108.711 16.4935 108.778 16.5202C109.471 16.0535 110.038 16.0335 110.478 16.4602C110.691 16.6735 110.678 16.8802 110.438 17.0802C110.171 17.3069 109.718 17.3535 109.078 17.2202C109.038 17.2469 108.938 17.3002 108.778 17.3802C108.685 17.4202 108.611 17.4602 108.558 17.5002C108.465 17.5535 108.378 17.6002 108.298 17.6402C107.845 17.9335 107.485 18.3002 107.218 18.7402C106.911 19.2469 106.805 19.6735 106.898 20.0202C106.991 20.3269 107.245 20.5269 107.658 20.6202C108.551 20.8335 109.611 20.5469 110.838 19.7602C111.171 19.5602 111.558 19.2802 111.998 18.9202C112.078 18.8535 112.165 18.8269 112.258 18.8402C112.351 18.8402 112.425 18.8735 112.478 18.9402ZM123.603 18.9402C123.696 19.0735 123.663 19.2202 123.503 19.3802L122.723 19.9802C122.496 20.1402 122.236 20.3069 121.943 20.4802C121.583 20.7069 121.243 20.8935 120.923 21.0402C120.056 21.4402 119.463 21.5202 119.143 21.2802C118.929 21.1202 118.903 20.8402 119.063 20.4402C119.116 20.2802 119.216 20.0735 119.363 19.8202L119.543 19.4802L119.763 19.1002C119.989 18.6869 120.156 18.3469 120.263 18.0802C120.303 17.9869 120.336 17.9002 120.363 17.8202C120.389 17.7669 120.403 17.7269 120.403 17.7002C119.763 17.6335 118.936 17.9802 117.923 18.7402C117.536 19.0335 117.136 19.3802 116.723 19.7802C116.389 20.1002 116.083 20.4269 115.803 20.7602C115.669 20.9202 115.523 20.9402 115.363 20.8202C115.189 20.7002 115.176 20.5202 115.323 20.2802L115.363 20.2202L115.443 20.1002C115.496 20.0069 115.556 19.9135 115.623 19.8202C115.783 19.5402 115.929 19.2869 116.063 19.0602C116.463 18.3269 116.643 17.8402 116.603 17.6002C116.389 17.5735 116.076 17.6802 115.663 17.9202C115.343 18.1069 114.983 18.3669 114.583 18.7002C114.276 18.9669 113.943 19.2802 113.583 19.6402C113.436 19.7735 113.289 19.9202 113.143 20.0802C113.036 20.1869 112.923 20.3002 112.803 20.4202L112.503 20.7602C112.423 20.8402 112.323 20.8402 112.203 20.7602C112.069 20.6935 112.029 20.6002 112.083 20.4802C112.083 20.3869 112.349 19.8602 112.883 18.9002L112.803 18.9802L112.703 19.0602C112.636 19.1269 112.596 19.1669 112.583 19.1802C112.289 19.4202 112.076 19.5869 111.943 19.6802C111.809 19.7602 111.683 19.7402 111.563 19.6202C111.523 19.5669 111.509 19.5002 111.523 19.4202C111.536 19.3535 111.563 19.2935 111.603 19.2402C111.643 19.2002 111.769 19.0935 111.983 18.9202C112.089 18.8269 112.189 18.7402 112.283 18.6602C112.403 18.5535 112.523 18.4469 112.643 18.3402C112.843 18.1535 113.069 17.9202 113.323 17.6402L113.463 17.5002L113.583 17.3602C113.676 17.2535 113.756 17.1735 113.823 17.1202C114.103 16.8269 114.316 16.7469 114.463 16.8802C114.569 16.9735 114.589 17.1002 114.523 17.2602C114.469 17.3935 114.216 17.8469 113.763 18.6202C114.843 17.6202 115.736 17.0869 116.443 17.0202C117.203 16.9935 117.383 17.4935 116.983 18.5202C117.849 17.7602 118.683 17.2669 119.483 17.0402C120.123 16.8669 120.589 16.8869 120.883 17.1002C121.229 17.3535 121.209 17.8669 120.823 18.6402C120.703 18.8669 120.516 19.1802 120.263 19.5802L120.123 19.8202L119.983 20.0402C119.889 20.1869 119.816 20.3135 119.763 20.4202L119.683 20.5802C119.656 20.6335 119.643 20.6802 119.643 20.7202C119.656 20.8002 119.776 20.8069 120.003 20.7402C120.283 20.6602 120.629 20.5135 121.043 20.3002C121.203 20.2202 121.369 20.1335 121.543 20.0402C121.663 19.9602 121.789 19.8802 121.923 19.8002C122.376 19.5069 122.776 19.2135 123.123 18.9202C123.203 18.8535 123.296 18.8269 123.403 18.8402C123.496 18.8402 123.563 18.8735 123.603 18.9402ZM130.116 18.9402C130.209 19.0735 130.176 19.2202 130.016 19.3802L129.876 19.5002L129.716 19.6202C129.582 19.7269 129.456 19.8202 129.336 19.9002C128.389 20.6069 127.396 20.8135 126.356 20.5202C125.542 21.1469 124.836 21.3002 124.236 20.9802C123.636 20.6735 123.462 20.0602 123.716 19.1402L123.496 19.3202L123.016 19.6802C122.962 19.7069 122.902 19.7202 122.836 19.7202C122.756 19.7069 122.689 19.6735 122.636 19.6202C122.596 19.5669 122.582 19.5002 122.596 19.4202C122.609 19.3535 122.636 19.2935 122.676 19.2402C122.716 19.2135 122.769 19.1669 122.836 19.1002L122.956 19.0002L123.076 18.9002C123.316 18.7002 123.556 18.4869 123.796 18.2602L124.516 17.5402C124.662 17.4202 124.796 17.4202 124.916 17.5402C125.329 16.7669 125.929 16.2935 126.716 16.1202C127.542 15.9335 128.029 16.2602 128.176 17.1002C128.282 17.7535 128.049 18.4869 127.476 19.3002C127.262 19.6069 127.076 19.8402 126.916 20.0002C127.182 20.0535 127.462 20.0535 127.756 20.0002C128.142 19.9202 128.536 19.7402 128.936 19.4602C129.202 19.2602 129.436 19.0802 129.636 18.9202C129.716 18.8535 129.809 18.8269 129.916 18.8402C130.009 18.8402 130.076 18.8735 130.116 18.9402ZM126.116 19.8402C126.636 19.3602 127.022 18.8069 127.276 18.1802C127.542 17.5402 127.542 17.1269 127.276 16.9402L127.236 16.9202L127.176 16.8802C127.109 16.8669 127.036 16.8535 126.956 16.8402C126.449 16.8135 126.016 17.0469 125.656 17.5402C125.282 18.0469 125.202 18.5735 125.416 19.1202C125.549 19.4402 125.782 19.6802 126.116 19.8402ZM124.776 20.5202C125.042 20.5069 125.322 20.4069 125.616 20.2202C125.376 20.0469 125.182 19.8602 125.036 19.6602C124.756 19.2469 124.636 18.8135 124.676 18.3602C124.289 19.0135 124.136 19.5602 124.216 20.0002C124.296 20.3735 124.482 20.5469 124.776 20.5202ZM137.578 18.9402C137.672 19.0735 137.638 19.2202 137.478 19.3802L137.318 19.5002L137.138 19.6402C136.992 19.7602 136.858 19.8669 136.738 19.9602L136.598 20.0602L136.438 20.1802L136.098 20.4002C135.805 20.5735 135.525 20.7135 135.258 20.8202C134.538 21.1135 133.845 21.1535 133.178 20.9402C132.512 21.3802 131.965 21.5402 131.538 21.4202C131.312 21.3535 131.152 21.2269 131.058 21.0402C130.978 20.8669 130.985 20.6869 131.078 20.5002C131.305 20.0469 131.865 19.9335 132.758 20.1602C132.865 20.1735 132.992 20.2069 133.138 20.2602C133.698 19.8069 134.132 19.2735 134.438 18.6602C134.745 18.0469 134.725 17.7269 134.378 17.7002C133.312 17.6869 132.058 18.5802 130.618 20.3802C129.685 22.6335 128.878 24.4535 128.198 25.8402C127.252 27.7735 126.612 28.7602 126.278 28.8002H126.158C125.905 28.7335 125.985 28.0735 126.398 26.8202C127.452 23.7535 128.765 21.3069 130.338 19.4802L130.498 19.1202L130.638 18.7802L130.658 18.7402V18.7002C130.392 18.9535 130.152 19.1669 129.938 19.3402C129.792 19.4602 129.645 19.5735 129.498 19.6802C129.445 19.7069 129.385 19.7202 129.318 19.7202C129.238 19.7069 129.172 19.6735 129.118 19.6202C129.078 19.5669 129.065 19.5002 129.078 19.4202C129.092 19.3535 129.118 19.2935 129.158 19.2402C129.198 19.2002 129.332 19.0869 129.558 18.9002C129.665 18.8069 129.772 18.7135 129.878 18.6202C130.012 18.5002 130.145 18.3802 130.278 18.2602C130.585 17.9802 130.945 17.5535 131.358 16.9802C131.465 16.8469 131.592 16.8269 131.738 16.9202C131.885 17.0135 131.925 17.1335 131.858 17.2802L131.838 17.3602L131.798 17.4402C131.772 17.5335 131.745 17.6135 131.718 17.6802C131.625 17.9202 131.532 18.1469 131.438 18.3602C132.158 17.7335 132.845 17.3069 133.498 17.0802C134.098 16.8669 134.572 16.8535 134.918 17.0402C135.252 17.2269 135.385 17.5669 135.318 18.0602C135.238 18.5935 134.912 19.2069 134.338 19.9002C134.192 20.0869 134.032 20.2535 133.858 20.4002C134.698 20.3735 135.525 20.0735 136.338 19.5002C136.578 19.3402 136.832 19.1469 137.098 18.9202C137.178 18.8535 137.272 18.8269 137.378 18.8402C137.472 18.8402 137.538 18.8735 137.578 18.9402ZM126.738 27.5002C127.232 26.6602 127.985 25.0669 128.998 22.7202C127.958 24.4402 127.205 26.0335 126.738 27.5002ZM131.898 20.8602C132.072 20.8335 132.238 20.7869 132.398 20.7202C132.265 20.6935 132.158 20.6802 132.078 20.6802H131.958L131.818 20.7002C131.698 20.7135 131.625 20.7469 131.598 20.8002C131.612 20.8135 131.652 20.8269 131.718 20.8402C131.785 20.8535 131.845 20.8602 131.898 20.8602ZM145.118 18.9402C145.211 19.0735 145.178 19.2202 145.018 19.3802C143.991 20.3002 143.011 20.8669 142.078 21.0802C141.118 21.3202 140.718 21.0269 140.878 20.2002C140.238 20.7069 139.631 20.9869 139.058 21.0402C138.431 21.0935 137.998 20.9402 137.758 20.5802C137.544 20.2469 137.531 19.8202 137.718 19.3002C137.518 19.4735 137.351 19.6002 137.218 19.6802C137.164 19.7069 137.104 19.7202 137.038 19.7202C136.971 19.7069 136.911 19.6735 136.858 19.6202C136.804 19.5669 136.784 19.5002 136.798 19.4202C136.811 19.3535 136.844 19.2935 136.898 19.2402C136.938 19.2002 137.011 19.1335 137.118 19.0402L137.198 18.9602L137.278 18.9002C137.344 18.8335 137.411 18.7735 137.478 18.7202C137.504 18.7069 137.538 18.6869 137.578 18.6602C137.618 18.6202 137.664 18.5802 137.718 18.5402C137.864 18.4335 137.998 18.3335 138.118 18.2402C138.478 17.9869 138.711 17.8335 138.818 17.7802C139.538 17.3935 140.171 17.1602 140.718 17.0802C141.238 17.0002 141.751 17.0002 142.258 17.0802C142.444 17.1069 142.531 17.2135 142.518 17.4002C142.491 17.6002 142.384 17.6935 142.198 17.6802C141.278 17.6269 140.371 17.8535 139.478 18.3602C138.878 18.7735 138.511 19.1735 138.378 19.5602C138.258 19.9069 138.351 20.1402 138.658 20.2602C138.978 20.3802 139.398 20.3202 139.918 20.0802C140.531 19.7869 141.144 19.2869 141.758 18.5802C142.064 18.1269 142.371 17.7269 142.678 17.3802C142.811 17.2469 142.951 17.2402 143.098 17.3602C143.231 17.4802 143.244 17.6135 143.138 17.7602L143.118 17.8002L143.098 17.8402C142.951 18.0269 142.738 18.3269 142.458 18.7402C142.124 19.2469 141.871 19.6535 141.698 19.9602C141.444 20.4402 141.538 20.6202 141.978 20.5002C142.151 20.4602 142.358 20.3802 142.598 20.2602C142.784 20.1669 142.971 20.0669 143.158 19.9602C143.424 19.8135 143.704 19.6269 143.998 19.4002C144.118 19.3202 144.238 19.2335 144.358 19.1402C144.451 19.0735 144.544 19.0002 144.638 18.9202C144.718 18.8535 144.804 18.8269 144.898 18.8402C144.991 18.8402 145.064 18.8735 145.118 18.9402ZM149.819 17.8602C150.086 17.4335 150.319 17.1135 150.519 16.9002C150.639 16.7669 150.773 16.7535 150.919 16.8602C151.066 16.9802 151.093 17.1135 150.999 17.2602C150.986 17.2735 150.966 17.3002 150.939 17.3402L150.899 17.4002L150.859 17.4802C150.779 17.6269 150.699 17.7669 150.619 17.9002C150.379 18.3002 150.166 18.6669 149.979 19.0002C149.419 20.0135 149.206 20.5469 149.339 20.6002C149.606 20.6935 150.066 20.5535 150.719 20.1802C151.319 19.8602 151.939 19.4402 152.579 18.9202C152.659 18.8535 152.753 18.8269 152.859 18.8402C152.953 18.8402 153.019 18.8735 153.059 18.9402C153.153 19.0735 153.119 19.2202 152.959 19.3802C152.746 19.5669 152.393 19.8335 151.899 20.1802C151.206 20.6735 150.613 21.0135 150.119 21.2002C149.479 21.4269 149.019 21.3869 148.739 21.0802C148.433 20.7469 148.506 20.1669 148.959 19.3402C147.759 20.1535 146.899 20.4535 146.379 20.2402C146.046 20.1069 145.893 19.8135 145.919 19.3602C145.866 19.4269 145.819 19.5002 145.779 19.5802L145.159 20.7602C145.026 20.8135 144.913 20.7935 144.819 20.7002C144.726 20.5935 144.706 20.4535 144.759 20.2802C144.813 20.1069 145.019 19.7002 145.379 19.0602C145.206 19.2069 145.046 19.3402 144.899 19.4602C144.846 19.5002 144.786 19.5402 144.719 19.5802L144.579 19.6802C144.539 19.7069 144.479 19.7202 144.399 19.7202C144.333 19.7069 144.273 19.6735 144.219 19.6202C144.179 19.5669 144.166 19.5002 144.179 19.4202C144.193 19.3535 144.219 19.2935 144.259 19.2402C144.299 19.2002 144.386 19.1269 144.519 19.0202C144.586 18.9535 144.646 18.9002 144.699 18.8602C144.779 18.7935 144.853 18.7269 144.919 18.6602C144.946 18.6469 144.973 18.6202 144.999 18.5802C145.039 18.5535 145.086 18.5135 145.139 18.4602C145.259 18.3535 145.393 18.2335 145.539 18.1002C145.939 17.7135 146.326 17.3135 146.699 16.9002C146.833 16.7669 146.973 16.7602 147.119 16.8802C147.266 17.0002 147.286 17.1269 147.179 17.2602C147.086 17.4069 146.999 17.5535 146.919 17.7002L146.959 17.6602C146.626 18.5269 146.493 19.1802 146.559 19.6202C146.599 19.7135 146.753 19.7335 147.019 19.6802C147.313 19.6002 147.666 19.4402 148.079 19.2002C148.639 18.8535 149.219 18.4069 149.819 17.8602Z" fill="#FEFAEF"/>
<path d="M98 74.46V69.48H100.952V70.272H98.864V74.46H98ZM100.929 73.98C100.929 73.656 101.205 73.38 101.529 73.38C101.853 73.38 102.129 73.656 102.129 73.98C102.129 74.304 101.853 74.58 101.529 74.58C101.205 74.58 100.929 74.304 100.929 73.98Z" fill="white"/>
</g>
<path d="M74.8618 52.726C74.5978 52.5793 74.4511 52.418 74.4218 52.242C74.4071 52.066 74.5098 51.758 74.7298 51.318C74.9498 50.878 75.2944 50.196 75.7638 49.272C76.1158 48.612 76.3798 48.0987 76.5558 47.732C76.7464 47.3507 76.8711 47.0793 76.9298 46.918C77.0031 46.7567 77.0398 46.654 77.0398 46.61C77.0104 46.478 77.0251 46.3753 77.0838 46.302C77.1424 46.214 77.2378 46.1407 77.3698 46.082C77.4431 46.0087 77.5604 45.8767 77.7218 45.686C77.8978 45.4953 78.0591 45.268 78.2058 45.004C78.3378 44.696 78.4918 44.3807 78.6678 44.058C78.8438 43.7353 79.0784 43.332 79.3718 42.848C79.6651 42.3493 80.0464 41.704 80.5158 40.912C80.8091 40.3987 81.1318 39.878 81.4838 39.35C81.8358 38.8073 82.2098 38.272 82.6058 37.744C82.7671 37.5387 82.9138 37.3773 83.0458 37.26C83.1778 37.128 83.3098 37.0693 83.4418 37.084C83.6178 37.084 83.8158 37.1427 84.0358 37.26C84.2704 37.3773 84.4831 37.5313 84.6738 37.722C84.8644 37.9127 85.0038 38.118 85.0918 38.338C85.1651 38.4553 85.1944 38.7047 85.1798 39.086C85.1651 39.4673 85.1358 39.9293 85.0918 40.472C85.0478 41.0147 84.9964 41.594 84.9378 42.21C84.8938 42.8113 84.8278 43.5227 84.7398 44.344C84.6518 45.1653 84.5638 46.0233 84.4758 46.918C84.4024 47.8127 84.3438 48.678 84.2998 49.514C84.2558 50.3353 84.2558 51.054 84.2998 51.67C84.3144 51.802 84.3144 51.9267 84.2998 52.044C84.2851 52.1613 84.2778 52.2567 84.2778 52.33C84.1898 52.418 84.0431 52.4547 83.8378 52.44C83.6471 52.44 83.4564 52.396 83.2658 52.308C83.0898 52.22 82.9871 52.11 82.9578 51.978C82.9138 51.934 82.8844 51.8753 82.8698 51.802C82.8698 51.714 82.8771 51.538 82.8918 51.274C82.9064 51.01 82.9211 50.592 82.9358 50.02L83.0458 46.456L82.7598 46.478C82.6278 46.478 82.3784 46.4927 82.0118 46.522C81.6451 46.5513 81.2491 46.5953 80.8238 46.654C80.3984 46.698 80.0024 46.7493 79.6358 46.808C79.2838 46.852 79.0418 46.896 78.9098 46.94C78.7778 46.94 78.6164 47.028 78.4258 47.204C78.2498 47.38 78.0811 47.6073 77.9198 47.886C77.8611 48.0913 77.7511 48.3113 77.5898 48.546C77.4431 48.766 77.3698 48.9127 77.3698 48.986C77.2671 49.0593 77.1791 49.1473 77.1058 49.25C77.0471 49.3527 77.0178 49.404 77.0178 49.404C77.0178 49.492 76.9444 49.712 76.7978 50.064C76.6658 50.4013 76.4971 50.7827 76.2918 51.208C76.0864 51.6187 75.8811 51.978 75.6758 52.286L75.2138 52.99L74.8618 52.726ZM79.4158 45.642C79.4158 45.642 79.4891 45.6273 79.6358 45.598C79.7971 45.5687 79.9804 45.5393 80.1858 45.51C80.4058 45.466 80.6038 45.444 80.7798 45.444C81.3958 45.2973 81.8431 45.202 82.1218 45.158C82.4004 45.0993 82.5911 45.07 82.6938 45.07C82.8111 45.07 82.9138 45.092 83.0018 45.136C83.0604 45.2093 83.1118 45.2533 83.1558 45.268C83.2144 45.2827 83.2438 45.29 83.2438 45.29C83.2584 45.2607 83.2804 45.092 83.3098 44.784C83.3391 44.476 83.3758 44.0947 83.4198 43.64C83.4784 43.1853 83.5298 42.716 83.5738 42.232C83.6324 41.7333 83.6764 41.2787 83.7058 40.868C83.7351 40.4427 83.7571 40.12 83.7718 39.9C83.7864 39.6213 83.8011 39.372 83.8158 39.152C83.8304 38.9173 83.8378 38.8 83.8378 38.8C83.7498 38.8 83.5591 38.9613 83.2658 39.284C82.9871 39.6067 82.6718 40.032 82.3198 40.56C81.9678 41.088 81.6378 41.6527 81.3298 42.254C81.1831 42.5327 81.0438 42.782 80.9118 43.002C80.7798 43.222 80.6771 43.332 80.6038 43.332C80.5744 43.3613 80.4864 43.4933 80.3398 43.728C80.2078 43.948 80.0611 44.2047 79.8998 44.498C79.7384 44.7767 79.6064 45.0333 79.5038 45.268C79.4011 45.488 79.3718 45.6127 79.4158 45.642ZM85.6407 51.912C85.5821 51.8827 85.5014 51.824 85.3987 51.736C85.3107 51.648 85.2301 51.56 85.1567 51.472C85.1127 51.428 85.0761 51.3913 85.0467 51.362C85.0174 51.318 84.9881 51.2887 84.9587 51.274C84.9587 51.1713 84.9807 51.098 85.0247 51.054C85.0834 51.01 85.1421 50.9587 85.2007 50.9C85.2594 50.812 85.3547 50.768 85.4867 50.768C85.6187 50.768 85.7214 50.7313 85.7947 50.658C86.0587 50.4673 86.3301 50.2693 86.6087 50.064C86.8874 49.8587 87.1221 49.6167 87.3127 49.338C87.5181 49.0447 87.7234 48.7293 87.9287 48.392C88.1341 48.0547 88.3321 47.7247 88.5227 47.402C88.5814 47.2993 88.6767 47.116 88.8087 46.852C88.9407 46.588 89.0654 46.3313 89.1827 46.082C89.3147 45.818 89.3881 45.6347 89.4027 45.532C89.2707 45.488 89.1461 45.4513 89.0287 45.422C88.9261 45.378 88.8234 45.3413 88.7207 45.312C88.5887 45.1067 88.5154 44.9893 88.5007 44.96C88.4861 44.916 88.4787 44.7767 88.4787 44.542C88.4787 44.366 88.5741 44.256 88.7647 44.212C89.1901 44.1093 89.5641 44.0433 89.8867 44.014C90.2241 43.9847 90.5541 43.926 90.8767 43.838C91.0821 43.7793 91.3314 43.7573 91.6247 43.772C91.9181 43.7867 92.2114 43.8527 92.5047 43.97C92.6367 44.0287 92.7467 44.102 92.8347 44.19C92.9227 44.278 93.0034 44.3807 93.0767 44.498C93.2674 44.762 93.3627 44.9893 93.3627 45.18C93.3774 45.3707 93.3701 45.554 93.3407 45.73C93.3114 45.906 93.3334 46.104 93.4067 46.324C93.3041 46.72 93.2014 47.072 93.0987 47.38C92.9961 47.6733 92.9007 47.952 92.8127 48.216C92.7247 48.4653 92.6441 48.7 92.5707 48.92C92.4974 49.14 92.4387 49.36 92.3947 49.58C92.3361 49.8147 92.2627 50.0493 92.1747 50.284C92.0867 50.5187 92.0207 50.7607 91.9767 51.01C91.9474 51.2007 91.8594 51.34 91.7127 51.428C91.5807 51.516 91.4341 51.5967 91.2727 51.67C91.2141 51.6847 91.1114 51.67 90.9647 51.626C90.8327 51.5673 90.7081 51.4867 90.5907 51.384C90.5467 51.2227 90.5321 51.076 90.5467 50.944C90.5614 50.812 90.5907 50.68 90.6347 50.548C90.6787 50.4307 90.7594 50.1667 90.8767 49.756C90.9941 49.3453 91.1261 48.8833 91.2727 48.37C91.4194 47.8567 91.5587 47.38 91.6907 46.94C91.8227 46.5 91.9107 46.192 91.9547 46.016C92.0281 45.7813 92.0501 45.6053 92.0207 45.488C92.0061 45.3707 91.9841 45.2607 91.9547 45.158C91.6467 45.0407 91.4341 45.004 91.3167 45.048C91.2141 45.0773 91.0821 45.1067 90.9207 45.136C90.8474 45.1947 90.7887 45.2607 90.7447 45.334C90.7007 45.4073 90.6714 45.4807 90.6567 45.554C90.4954 45.9793 90.3561 46.3167 90.2387 46.566C90.1361 46.8153 90.0334 47.0427 89.9307 47.248C89.8281 47.4387 89.7107 47.6513 89.5787 47.886C89.4614 48.1207 89.3074 48.4433 89.1167 48.854C88.9994 49.118 88.8527 49.36 88.6767 49.58C88.5154 49.8 88.3687 50.0347 88.2367 50.284L87.9947 50.592C88.0094 50.592 87.9507 50.6507 87.8187 50.768C87.6867 50.8853 87.5547 51.0027 87.4227 51.12C87.3054 51.2373 87.2467 51.296 87.2467 51.296L86.5647 51.824C86.4914 51.8827 86.3667 51.912 86.1907 51.912C86.0147 51.912 85.8314 51.912 85.6407 51.912ZM94.9801 51.186C94.9361 51.1273 94.8921 51.054 94.8481 50.966C94.8187 50.878 94.8041 50.8047 94.8041 50.746C94.8041 50.7167 94.7967 50.68 94.7821 50.636C94.7821 50.592 94.7527 50.57 94.6941 50.57C94.6501 50.526 94.6794 50.3573 94.7821 50.064C94.8994 49.756 95.0461 49.404 95.2221 49.008C95.4127 48.612 95.6034 48.2307 95.7941 47.864C95.9994 47.4827 96.1681 47.182 96.3001 46.962C96.3734 46.918 96.4174 46.8593 96.4321 46.786C96.4614 46.698 96.4614 46.654 96.4321 46.654C96.4321 46.654 96.4687 46.588 96.5421 46.456C96.6301 46.3093 96.6961 46.214 96.7401 46.17C96.8574 45.9647 96.9454 45.7593 97.0041 45.554C97.0627 45.334 97.0774 45.1507 97.0481 45.004C96.9894 44.9307 96.9234 44.9087 96.8501 44.938C96.7767 44.9673 96.7401 44.982 96.7401 44.982C96.6814 44.9967 96.5934 45.026 96.4761 45.07C96.3734 45.0993 96.2781 45.1433 96.1901 45.202C95.8527 45.4367 95.6254 45.5467 95.5081 45.532C95.3907 45.5027 95.2587 45.312 95.1121 44.96C95.0534 44.7987 95.0314 44.6813 95.0461 44.608C95.0607 44.5347 95.1194 44.454 95.2221 44.366C95.3394 44.2633 95.4494 44.1973 95.5521 44.168C95.6547 44.124 95.7354 44.08 95.7941 44.036C95.9554 43.9333 96.0874 43.86 96.1901 43.816C96.3074 43.772 96.3954 43.7427 96.4541 43.728C96.8354 43.6107 97.1581 43.5887 97.4221 43.662C97.6861 43.7353 97.8841 43.926 98.0161 44.234C98.2214 44.4833 98.3241 44.7693 98.3241 45.092C98.3241 45.4 98.2214 45.7593 98.0161 46.17L97.7961 46.5C97.7227 46.6467 97.7081 46.72 97.7521 46.72C97.8107 46.72 97.8767 46.6687 97.9501 46.566C97.9941 46.5073 98.0821 46.4193 98.2141 46.302C98.3461 46.1847 98.4341 46.126 98.4781 46.126C98.4781 46.126 98.4927 46.1187 98.5221 46.104C98.5661 46.0893 98.5881 46.0307 98.5881 45.928C98.6321 45.884 98.6761 45.84 98.7201 45.796C98.7787 45.752 98.8081 45.73 98.8081 45.73C98.8667 45.73 98.9767 45.664 99.1381 45.532C99.3141 45.3853 99.5194 45.2167 99.7541 45.026C99.9154 44.9087 100.062 44.85 100.194 44.85C100.531 44.7473 100.803 44.8573 101.008 45.18C101.228 45.5027 101.338 45.9207 101.338 46.434L100.876 47.622L101.668 46.654C101.756 46.5367 101.844 46.434 101.932 46.346C102.035 46.258 102.123 46.1847 102.196 46.126C102.225 46.0233 102.269 45.9647 102.328 45.95C102.387 45.9353 102.416 45.928 102.416 45.928C102.416 45.928 102.431 45.928 102.46 45.928C102.489 45.9133 102.504 45.884 102.504 45.84C102.577 45.7813 102.658 45.73 102.746 45.686C102.834 45.6273 102.893 45.5687 102.922 45.51C103.171 45.4073 103.399 45.3927 103.604 45.466C103.809 45.5247 103.985 45.708 104.132 46.016C104.235 46.192 104.293 46.346 104.308 46.478C104.323 46.61 104.33 46.808 104.33 47.072C104.301 47.292 104.271 47.468 104.242 47.6C104.227 47.7173 104.213 47.842 104.198 47.974C104.183 48.106 104.161 48.2893 104.132 48.524C104.073 48.6413 104.037 48.766 104.022 48.898C104.022 49.03 104.022 49.1547 104.022 49.272C104.022 49.4627 104.029 49.5947 104.044 49.668C104.059 49.7267 104.117 49.756 104.22 49.756C104.425 49.712 104.704 49.6093 105.056 49.448C105.423 49.272 105.694 49.1033 105.87 48.942C106.09 48.7367 106.281 48.634 106.442 48.634C106.618 48.6193 106.728 48.7 106.772 48.876C106.801 48.9347 106.75 49.0667 106.618 49.272C106.501 49.4773 106.361 49.6753 106.2 49.866C106.053 50.0567 105.943 50.152 105.87 50.152C105.826 50.152 105.775 50.196 105.716 50.284C105.657 50.3573 105.591 50.416 105.518 50.46C105.415 50.5627 105.313 50.658 105.21 50.746C105.122 50.834 105.019 50.878 104.902 50.878C104.843 50.878 104.77 50.9 104.682 50.944C104.609 50.9733 104.521 50.988 104.418 50.988C104.271 51.032 104.044 51.01 103.736 50.922C103.443 50.834 103.252 50.6287 103.164 50.306C103.105 50.1447 103.054 49.888 103.01 49.536C102.966 49.1693 102.973 48.8027 103.032 48.436C103.091 48.172 103.127 47.93 103.142 47.71C103.157 47.49 103.186 47.336 103.23 47.248C103.23 47.204 103.23 47.1013 103.23 46.94C103.23 46.764 103.208 46.676 103.164 46.676C103.105 46.676 102.966 46.786 102.746 47.006C102.541 47.2113 102.291 47.4753 101.998 47.798C101.719 48.1207 101.441 48.458 101.162 48.81C100.883 49.162 100.656 49.4773 100.48 49.756C100.348 49.9173 100.231 50.1153 100.128 50.35C100.025 50.5847 99.9521 50.7167 99.9081 50.746C99.8054 50.8633 99.6807 50.878 99.5341 50.79C99.4021 50.702 99.2774 50.5627 99.1601 50.372C99.1161 50.284 99.0867 50.2107 99.0721 50.152C99.0574 50.0787 99.0574 49.9833 99.0721 49.866C99.1014 49.734 99.1527 49.5433 99.2261 49.294C99.3141 49.0447 99.4314 48.6927 99.5781 48.238C99.7394 47.7393 99.8787 47.292 99.9961 46.896C100.128 46.4853 100.194 46.28 100.194 46.28C100.194 46.2213 100.084 46.28 99.8641 46.456C99.6441 46.6173 99.3874 46.8227 99.0941 47.072C98.9621 47.2333 98.7421 47.4753 98.4341 47.798C98.1261 48.1207 97.7887 48.4873 97.4221 48.898C97.0554 49.3087 96.7034 49.7413 96.3661 50.196C95.9407 50.7973 95.6401 51.164 95.4641 51.296C95.3027 51.428 95.1414 51.3913 94.9801 51.186ZM111.707 51.714C111.208 51.846 110.856 51.912 110.651 51.912C110.445 51.912 110.225 51.8093 109.991 51.604C109.917 51.5307 109.873 51.4573 109.859 51.384C109.844 51.296 109.807 51.2447 109.749 51.23C109.734 51.1273 109.741 51.0467 109.771 50.988C109.815 50.9147 109.91 50.8487 110.057 50.79C110.277 50.922 110.555 50.9587 110.893 50.9C111.23 50.8413 111.56 50.7167 111.883 50.526C112.22 50.3207 112.484 50.0787 112.675 49.8C112.968 49.448 113.195 49.118 113.357 48.81C113.518 48.4873 113.606 48.2013 113.621 47.952C113.621 47.8053 113.599 47.7027 113.555 47.644C113.525 47.5707 113.452 47.4607 113.335 47.314C113.071 47.402 112.829 47.5047 112.609 47.622C112.403 47.7393 112.235 47.864 112.103 47.996C111.663 48.3627 111.318 48.6633 111.069 48.898C110.834 49.1327 110.629 49.3673 110.453 49.602C110.291 49.8367 110.086 50.152 109.837 50.548C109.719 50.6947 109.609 50.8047 109.507 50.878C109.419 50.9513 109.323 50.988 109.221 50.988C109.265 51.2813 109.162 51.4573 108.913 51.516C108.59 51.4427 108.355 51.3473 108.209 51.23C108.062 51.098 108.018 50.8487 108.077 50.482C108.135 50.2767 108.194 50.0347 108.253 49.756C108.311 49.4627 108.377 49.2207 108.451 49.03C108.803 48.0913 109.111 47.2553 109.375 46.522C109.653 45.7887 109.895 45.268 110.101 44.96L110.585 43.706C110.834 43.7207 111.025 43.772 111.157 43.86C111.289 43.9333 111.443 44.1167 111.619 44.41C111.619 44.4833 111.545 44.696 111.399 45.048C111.267 45.3853 111.105 45.774 110.915 46.214C110.739 46.654 110.57 47.0647 110.409 47.446C110.262 47.8127 110.159 48.0693 110.101 48.216C110.042 48.3773 110.086 48.348 110.233 48.128C110.394 47.908 110.673 47.6293 111.069 47.292C111.259 47.1013 111.494 46.9253 111.773 46.764C112.051 46.588 112.286 46.456 112.477 46.368C112.682 46.28 112.851 46.2287 112.983 46.214C113.115 46.1993 113.21 46.1847 113.269 46.17C113.635 46.17 113.929 46.2653 114.149 46.456C114.369 46.632 114.523 46.8373 114.611 47.072C114.713 47.3067 114.765 47.4973 114.765 47.644C114.809 47.8787 114.838 48.106 114.853 48.326C114.882 48.5313 114.867 48.7513 114.809 48.986C114.765 49.1033 114.684 49.2647 114.567 49.47C114.449 49.6753 114.31 49.888 114.149 50.108C114.002 50.3133 113.826 50.482 113.621 50.614C113.489 50.746 113.313 50.8853 113.093 51.032C112.873 51.1787 112.638 51.318 112.389 51.45C112.154 51.5673 111.927 51.6553 111.707 51.714ZM116.283 52.066C116.019 52.0367 115.799 51.956 115.623 51.824C115.461 51.6773 115.344 51.4647 115.271 51.186C115.271 50.9367 115.3 50.7093 115.359 50.504C115.432 50.284 115.491 50.0713 115.535 49.866C115.608 49.5287 115.711 49.1913 115.843 48.854C115.975 48.5167 116.092 48.1793 116.195 47.842C116.283 47.6367 116.356 47.4387 116.415 47.248C116.473 47.0573 116.532 46.8667 116.591 46.676C116.664 46.4413 116.737 46.214 116.811 45.994C116.884 45.774 116.957 45.554 117.031 45.334C117.089 45.1433 117.133 44.9453 117.163 44.74C117.207 44.5347 117.243 44.3293 117.273 44.124C117.434 43.948 117.61 43.8747 117.801 43.904C118.006 43.9333 118.255 44.102 118.549 44.41C118.622 44.586 118.659 44.7473 118.659 44.894C118.659 45.026 118.622 45.1653 118.549 45.312C118.49 45.444 118.409 45.642 118.307 45.906C118.219 46.17 118.123 46.434 118.021 46.698C117.933 46.9473 117.867 47.138 117.823 47.27C117.793 47.4313 117.713 47.6953 117.581 48.062C117.463 48.4287 117.339 48.81 117.207 49.206C117.075 49.5873 116.979 49.8953 116.921 50.13C116.833 50.35 116.767 50.5627 116.723 50.768C116.679 50.9733 116.635 51.23 116.591 51.538C116.62 51.67 116.598 51.78 116.525 51.868C116.466 51.9413 116.385 52.0073 116.283 52.066ZM126.014 44.19C126.219 44.0727 126.432 44.036 126.652 44.08C126.872 44.1093 127.04 44.2047 127.158 44.366C127.29 44.5127 127.312 44.7033 127.224 44.938C127.253 44.85 127.216 44.9087 127.114 45.114C127.026 45.3047 126.908 45.554 126.762 45.862C126.63 46.17 126.505 46.4633 126.388 46.742C126.285 47.006 126.219 47.16 126.19 47.204V47.27C126.424 47.27 126.564 47.3433 126.608 47.49C126.666 47.622 126.688 47.776 126.674 47.952C126.498 47.9813 126.373 48.0327 126.3 48.106C126.226 48.1647 126.131 48.2013 126.014 48.216C125.97 48.216 125.918 48.238 125.86 48.282C125.801 48.326 125.764 48.3773 125.75 48.436C125.735 48.48 125.691 48.656 125.618 48.964C125.559 49.2573 125.486 49.58 125.398 49.932C125.324 50.2693 125.258 50.526 125.2 50.702C125.17 50.8193 125.112 50.9147 125.024 50.988C124.936 51.0467 124.877 51.0833 124.848 51.098C124.554 50.9807 124.356 50.9073 124.254 50.878C124.166 50.834 124.078 50.7753 123.99 50.702C123.975 50.614 123.975 50.5113 123.99 50.394C124.004 50.262 124.041 50.108 124.1 49.932C124.173 49.712 124.232 49.5067 124.276 49.316C124.334 49.1107 124.393 48.8247 124.452 48.458C124.393 48.4287 124.268 48.4287 124.078 48.458C123.902 48.4727 123.711 48.4947 123.506 48.524C123.3 48.5533 123.124 48.5827 122.978 48.612C122.846 48.6413 122.787 48.6487 122.802 48.634C122.728 48.6633 122.589 48.6853 122.384 48.7C122.193 48.7 121.995 48.6927 121.79 48.678C121.599 48.6487 121.46 48.6193 121.372 48.59L121.24 48.656C121.225 48.8027 121.159 49.0227 121.042 49.316C120.924 49.5947 120.866 49.8587 120.866 50.108C120.851 50.2987 120.822 50.4893 120.778 50.68C120.734 50.8707 120.704 51.0687 120.69 51.274C120.675 51.5967 120.587 51.7947 120.426 51.868C120.279 51.9413 120.052 51.89 119.744 51.714C119.67 51.67 119.597 51.6187 119.524 51.56C119.465 51.5013 119.399 51.4353 119.326 51.362L119.678 49.668C119.736 49.4627 119.788 49.272 119.832 49.096C119.876 48.9053 119.927 48.722 119.986 48.546C120.103 48.2233 120.213 47.8933 120.316 47.556C120.433 47.2187 120.565 46.9033 120.712 46.61C120.712 46.61 120.734 46.5367 120.778 46.39C120.836 46.2287 120.902 46.0527 120.976 45.862C121.049 45.6567 121.108 45.4953 121.152 45.378C121.196 45.2607 121.203 45.2387 121.174 45.312C121.218 45.224 121.284 45.0553 121.372 44.806C121.46 44.542 121.54 44.2927 121.614 44.058C121.702 43.8087 121.746 43.6767 121.746 43.662C121.775 43.574 121.819 43.5153 121.878 43.486C121.936 43.442 122.01 43.42 122.098 43.42C122.347 43.4053 122.552 43.464 122.714 43.596C122.875 43.7133 122.963 43.86 122.978 44.036C122.963 44.124 122.956 44.2047 122.956 44.278C122.956 44.3513 122.941 44.41 122.912 44.454L121.768 47.248V47.424C121.914 47.512 122.127 47.5267 122.406 47.468C122.699 47.3947 122.919 47.358 123.066 47.358C123.139 47.3433 123.308 47.3287 123.572 47.314C123.85 47.2993 124.114 47.292 124.364 47.292C124.628 47.292 124.767 47.2993 124.782 47.314C124.943 46.874 125.09 46.4633 125.222 46.082C125.354 45.686 125.537 45.2827 125.772 44.872C125.786 44.8427 125.816 44.7473 125.86 44.586C125.918 44.4247 125.97 44.2927 126.014 44.19ZM130.24 48.084C130.152 48.084 130.042 48.084 129.91 48.084C129.778 48.0693 129.632 48.0327 129.47 47.974C129.25 47.974 129.104 47.952 129.03 47.908C128.957 47.8493 128.891 47.7687 128.832 47.666C128.671 47.446 128.656 47.2993 128.788 47.226C128.92 47.138 129.258 47.0647 129.8 47.006C130.299 46.8887 130.761 46.808 131.186 46.764C131.612 46.72 132.118 46.698 132.704 46.698C133.086 46.698 133.342 46.7127 133.474 46.742C133.606 46.7713 133.753 46.8667 133.914 47.028C134.134 47.248 134.215 47.4607 134.156 47.666C134.098 47.8567 133.9 47.9227 133.562 47.864C133.46 47.8787 133.269 47.8933 132.99 47.908C132.712 47.9227 132.44 47.9447 132.176 47.974C132.015 47.9887 131.758 48.0107 131.406 48.04C131.054 48.0693 130.666 48.084 130.24 48.084ZM135.018 52.726C134.754 52.5793 134.607 52.418 134.578 52.242C134.563 52.066 134.666 51.758 134.886 51.318C135.106 50.878 135.451 50.196 135.92 49.272C136.272 48.612 136.536 48.0987 136.712 47.732C136.903 47.3507 137.027 47.0793 137.086 46.918C137.159 46.7567 137.196 46.654 137.196 46.61C137.167 46.478 137.181 46.3753 137.24 46.302C137.299 46.214 137.394 46.1407 137.526 46.082C137.599 46.0087 137.717 45.8767 137.878 45.686C138.054 45.4953 138.215 45.268 138.362 45.004C138.494 44.696 138.648 44.3807 138.824 44.058C139 43.7353 139.235 43.332 139.528 42.848C139.821 42.3493 140.203 41.704 140.672 40.912C140.965 40.3987 141.288 39.878 141.64 39.35C141.992 38.8073 142.366 38.272 142.762 37.744C142.923 37.5387 143.07 37.3773 143.202 37.26C143.334 37.128 143.466 37.0693 143.598 37.084C143.774 37.084 143.972 37.1427 144.192 37.26C144.427 37.3773 144.639 37.5313 144.83 37.722C145.021 37.9127 145.16 38.118 145.248 38.338C145.321 38.4553 145.351 38.7047 145.336 39.086C145.321 39.4673 145.292 39.9293 145.248 40.472C145.204 41.0147 145.153 41.594 145.094 42.21C145.05 42.8113 144.984 43.5227 144.896 44.344C144.808 45.1653 144.72 46.0233 144.632 46.918C144.559 47.8127 144.5 48.678 144.456 49.514C144.412 50.3353 144.412 51.054 144.456 51.67C144.471 51.802 144.471 51.9267 144.456 52.044C144.441 52.1613 144.434 52.2567 144.434 52.33C144.346 52.418 144.199 52.4547 143.994 52.44C143.803 52.44 143.613 52.396 143.422 52.308C143.246 52.22 143.143 52.11 143.114 51.978C143.07 51.934 143.041 51.8753 143.026 51.802C143.026 51.714 143.033 51.538 143.048 51.274C143.063 51.01 143.077 50.592 143.092 50.02L143.202 46.456L142.916 46.478C142.784 46.478 142.535 46.4927 142.168 46.522C141.801 46.5513 141.405 46.5953 140.98 46.654C140.555 46.698 140.159 46.7493 139.792 46.808C139.44 46.852 139.198 46.896 139.066 46.94C138.934 46.94 138.773 47.028 138.582 47.204C138.406 47.38 138.237 47.6073 138.076 47.886C138.017 48.0913 137.907 48.3113 137.746 48.546C137.599 48.766 137.526 48.9127 137.526 48.986C137.423 49.0593 137.335 49.1473 137.262 49.25C137.203 49.3527 137.174 49.404 137.174 49.404C137.174 49.492 137.101 49.712 136.954 50.064C136.822 50.4013 136.653 50.7827 136.448 51.208C136.243 51.6187 136.037 51.978 135.832 52.286L135.37 52.99L135.018 52.726ZM139.572 45.642C139.572 45.642 139.645 45.6273 139.792 45.598C139.953 45.5687 140.137 45.5393 140.342 45.51C140.562 45.466 140.76 45.444 140.936 45.444C141.552 45.2973 141.999 45.202 142.278 45.158C142.557 45.0993 142.747 45.07 142.85 45.07C142.967 45.07 143.07 45.092 143.158 45.136C143.217 45.2093 143.268 45.2533 143.312 45.268C143.371 45.2827 143.4 45.29 143.4 45.29C143.415 45.2607 143.437 45.092 143.466 44.784C143.495 44.476 143.532 44.0947 143.576 43.64C143.635 43.1853 143.686 42.716 143.73 42.232C143.789 41.7333 143.833 41.2787 143.862 40.868C143.891 40.4427 143.913 40.12 143.928 39.9C143.943 39.6213 143.957 39.372 143.972 39.152C143.987 38.9173 143.994 38.8 143.994 38.8C143.906 38.8 143.715 38.9613 143.422 39.284C143.143 39.6067 142.828 40.032 142.476 40.56C142.124 41.088 141.794 41.6527 141.486 42.254C141.339 42.5327 141.2 42.782 141.068 43.002C140.936 43.222 140.833 43.332 140.76 43.332C140.731 43.3613 140.643 43.4933 140.496 43.728C140.364 43.948 140.217 44.2047 140.056 44.498C139.895 44.7767 139.763 45.0333 139.66 45.268C139.557 45.488 139.528 45.6127 139.572 45.642ZM147.095 51.89C146.919 51.89 146.765 51.868 146.633 51.824C146.516 51.7653 146.42 51.692 146.347 51.604C146.288 51.5013 146.23 51.3987 146.171 51.296C146.112 51.1787 146.061 51.054 146.017 50.922C146.046 50.8047 146.112 50.6873 146.215 50.57C146.318 50.4527 146.457 50.4453 146.633 50.548C146.662 50.548 146.692 50.5627 146.721 50.592C146.75 50.6213 146.787 50.6507 146.831 50.68C147.374 50.4307 147.814 50.108 148.151 49.712C148.503 49.3013 148.84 48.8467 149.163 48.348C148.914 48.2747 148.664 48.1573 148.415 47.996C148.18 47.8347 148.012 47.666 147.909 47.49C147.762 47.2553 147.667 46.9767 147.623 46.654C147.579 46.3313 147.542 46.1553 147.513 46.126C147.645 45.8327 147.726 45.5833 147.755 45.378C147.799 45.1727 147.858 44.9747 147.931 44.784C148.004 44.5787 148.144 44.344 148.349 44.08C148.51 43.8747 148.708 43.684 148.943 43.508C149.178 43.3173 149.405 43.1633 149.625 43.046C149.845 42.9287 150.006 42.87 150.109 42.87C150.27 42.9287 150.424 42.9213 150.571 42.848C150.718 42.7747 150.864 42.7673 151.011 42.826C151.07 42.8407 151.121 42.848 151.165 42.848C151.224 42.8333 151.268 42.8333 151.297 42.848C151.664 42.9213 151.986 43.024 152.265 43.156C152.544 43.288 152.727 43.53 152.815 43.882C152.742 44.19 152.661 44.498 152.573 44.806C152.5 45.0993 152.382 45.3927 152.221 45.686C152.074 45.9647 151.928 46.258 151.781 46.566C151.649 46.8593 151.48 47.138 151.275 47.402L151.319 47.534C151.48 47.5633 151.678 47.6 151.913 47.644C152.162 47.6733 152.294 47.688 152.309 47.688C152.47 47.732 152.61 47.8053 152.727 47.908C152.859 47.996 152.998 48.0987 153.145 48.216C153.16 48.2747 153.16 48.3333 153.145 48.392C153.13 48.4507 153.101 48.5167 153.057 48.59C152.896 48.9127 152.727 49.2427 152.551 49.58C152.375 49.9027 152.206 50.2327 152.045 50.57C151.986 50.7167 151.935 50.9 151.891 51.12C151.847 51.34 151.788 51.516 151.715 51.648C151.583 51.78 151.495 51.8607 151.451 51.89C151.422 51.9047 151.392 51.8973 151.363 51.868C151.334 51.8387 151.253 51.824 151.121 51.824C150.916 51.78 150.776 51.67 150.703 51.494C150.674 51.3913 150.63 51.296 150.571 51.208C150.527 51.12 150.52 51.0173 150.549 50.9C150.578 50.812 150.608 50.7313 150.637 50.658C150.666 50.57 150.703 50.4893 150.747 50.416C150.864 50.1813 150.967 49.9467 151.055 49.712C151.143 49.4773 151.238 49.25 151.341 49.03C151.4 48.9713 151.429 48.8907 151.429 48.788H151.275C151.187 48.7733 151.084 48.7587 150.967 48.744C150.864 48.7147 150.747 48.6927 150.615 48.678C150.542 48.7367 150.454 48.8027 150.351 48.876C150.248 48.9347 150.168 49.0447 150.109 49.206C149.948 49.382 149.794 49.58 149.647 49.8C149.515 50.0053 149.354 50.2033 149.163 50.394C148.972 50.5847 148.782 50.7753 148.591 50.966C148.415 51.1567 148.217 51.3473 147.997 51.538C147.674 51.7727 147.374 51.89 147.095 51.89ZM149.735 47.314C149.808 47.2993 149.911 47.2113 150.043 47.05C150.19 46.874 150.336 46.6833 150.483 46.478C150.644 46.258 150.784 46.06 150.901 45.884C151.018 45.6933 151.084 45.576 151.099 45.532C151.099 45.5613 151.128 45.4953 151.187 45.334C151.246 45.1727 151.312 44.982 151.385 44.762C151.473 44.542 151.554 44.3367 151.627 44.146C151.7 43.9553 151.737 43.8527 151.737 43.838C151.546 43.706 151.392 43.64 151.275 43.64C151.158 43.64 151.018 43.6693 150.857 43.728C150.314 43.8747 149.867 44.124 149.515 44.476C149.163 44.8133 148.906 45.2533 148.745 45.796C148.628 46.2947 148.657 46.7127 148.833 47.05C149.024 47.3727 149.324 47.4607 149.735 47.314ZM159.949 51.604C159.714 51.5307 159.509 51.4207 159.333 51.274C159.157 51.1127 158.988 50.9367 158.827 50.746C158.754 50.658 158.629 50.482 158.453 50.218C158.277 49.954 158.086 49.6607 157.881 49.338C157.69 49.0153 157.507 48.7147 157.331 48.436C157.155 48.1427 157.023 47.9227 156.935 47.776C156.862 47.996 156.781 48.1793 156.693 48.326C156.62 48.458 156.583 48.6707 156.583 48.964C156.436 49.1693 156.326 49.404 156.253 49.668C156.194 49.9173 156.128 50.1667 156.055 50.416C156.011 50.5773 155.938 50.724 155.835 50.856C155.747 50.988 155.63 51.1053 155.483 51.208C155.307 51.1933 155.153 51.1347 155.021 51.032C154.904 50.9293 154.801 50.8267 154.713 50.724C154.625 50.548 154.588 50.3793 154.603 50.218C154.618 50.0567 154.654 49.9027 154.713 49.756C154.742 49.624 154.823 49.3673 154.955 48.986C155.102 48.6047 155.256 48.194 155.417 47.754C155.578 47.2993 155.725 46.896 155.857 46.544C155.989 46.1773 156.062 45.95 156.077 45.862C156.165 45.5687 156.319 45.2533 156.539 44.916C156.774 44.564 156.935 44.1827 157.023 43.772C157.052 43.6693 157.126 43.574 157.243 43.486C157.36 43.3833 157.492 43.332 157.639 43.332C157.8 43.3173 157.932 43.398 158.035 43.574C158.064 43.5887 158.108 43.6107 158.167 43.64C158.226 43.6547 158.27 43.684 158.299 43.728C158.416 43.86 158.482 43.9993 158.497 44.146C158.526 44.2927 158.497 44.4467 158.409 44.608C158.218 44.9453 158.057 45.224 157.925 45.444C157.808 45.6493 157.69 45.8767 157.573 46.126C157.456 46.3753 157.324 46.72 157.177 47.16C157.426 47.1013 157.61 47.0573 157.727 47.028C157.844 46.984 157.954 46.918 158.057 46.83C158.174 46.7273 158.328 46.5733 158.519 46.368C158.592 46.2947 158.739 46.1553 158.959 45.95C159.194 45.73 159.436 45.4953 159.685 45.246C159.949 44.9967 160.176 44.7767 160.367 44.586C160.572 44.3953 160.682 44.2853 160.697 44.256C160.785 44.124 160.873 44.0067 160.961 43.904C161.064 43.7867 161.196 43.6987 161.357 43.64C161.577 43.6693 161.731 43.7133 161.819 43.772C161.907 43.816 162.076 43.9407 162.325 44.146C162.398 44.2047 162.428 44.344 162.413 44.564C162.398 44.7693 162.318 44.9307 162.171 45.048C161.907 45.2533 161.577 45.5173 161.181 45.84C160.785 46.1627 160.36 46.5 159.905 46.852C159.465 47.204 159.025 47.534 158.585 47.842C158.79 48.1793 158.974 48.502 159.135 48.81C159.296 49.1033 159.428 49.3527 159.531 49.558C159.56 49.9247 159.692 50.174 159.927 50.306C160.176 50.4233 160.477 50.482 160.829 50.482C160.946 50.5407 161.02 50.614 161.049 50.702C161.093 50.7753 161.115 50.8633 161.115 50.966C161.13 51.054 161.144 51.142 161.159 51.23C160.954 51.362 160.807 51.4793 160.719 51.582C160.646 51.67 160.558 51.7213 160.455 51.736C160.367 51.736 160.198 51.692 159.949 51.604Z" fill="white"/>
<path d="M103.957 75.666C103.801 75.57 103.717 75.474 103.705 75.378C103.693 75.294 103.723 75.126 103.795 74.874C103.783 74.718 103.789 74.574 103.813 74.442C103.849 74.31 103.873 74.22 103.885 74.172C103.945 74.172 103.981 74.136 103.993 74.064C104.005 73.992 104.011 73.932 104.011 73.884C104.011 73.788 104.047 73.626 104.119 73.398C104.203 73.17 104.275 72.936 104.335 72.696C104.431 72.456 104.521 72.234 104.605 72.03C104.701 71.814 104.749 71.682 104.749 71.634C104.749 71.538 104.773 71.442 104.821 71.346C104.869 71.238 104.923 71.136 104.983 71.04C105.043 70.896 105.085 70.74 105.109 70.572C105.145 70.392 105.163 70.254 105.163 70.158C105.235 70.002 105.313 69.834 105.397 69.654C105.481 69.474 105.547 69.288 105.595 69.096C105.667 68.892 105.769 68.598 105.901 68.214C106.045 67.818 106.195 67.416 106.351 67.008C106.459 66.78 106.567 66.54 106.675 66.288C106.783 66.036 106.879 65.82 106.963 65.64C107.047 65.46 107.107 65.37 107.143 65.37C107.143 65.37 107.143 65.352 107.143 65.316C107.143 65.268 107.143 65.22 107.143 65.172C107.143 65.112 107.191 64.998 107.287 64.83C107.383 64.65 107.473 64.464 107.557 64.272C107.677 64.092 107.761 63.924 107.809 63.768C107.857 63.6 107.881 63.516 107.881 63.516C107.881 63.516 107.899 63.48 107.935 63.408C107.983 63.336 108.031 63.276 108.079 63.228C108.235 63.12 108.379 63.078 108.511 63.102C108.655 63.126 108.775 63.24 108.871 63.444C108.967 63.636 109.009 63.798 108.997 63.93C108.985 64.05 108.931 64.182 108.835 64.326C108.739 64.542 108.613 64.818 108.457 65.154C108.301 65.478 108.133 65.832 107.953 66.216C107.785 66.588 107.623 66.948 107.467 67.296C107.323 67.632 107.203 67.926 107.107 68.178C107.023 68.418 106.981 68.568 106.981 68.628L106.243 70.446C106.243 70.47 106.219 70.53 106.171 70.626C106.135 70.722 106.081 70.866 106.009 71.058C105.949 71.25 105.871 71.502 105.775 71.814C105.679 72.126 105.565 72.504 105.433 72.948C105.193 73.716 105.007 74.316 104.875 74.748C104.743 75.168 104.635 75.456 104.551 75.612C104.479 75.78 104.401 75.864 104.317 75.864C104.269 75.864 104.215 75.84 104.155 75.792C104.107 75.756 104.041 75.714 103.957 75.666ZM110.311 75.81C110.203 75.822 110.053 75.768 109.861 75.648C109.681 75.54 109.483 75.402 109.267 75.234C109.063 75.066 108.865 74.892 108.673 74.712C108.493 74.532 108.349 74.376 108.241 74.244C108.049 73.968 107.809 73.608 107.521 73.164C107.233 72.708 107.017 72.222 106.873 71.706C106.789 71.322 106.705 71.022 106.621 70.806C106.537 70.578 106.483 70.392 106.459 70.248L106.477 68.988L107.395 69.276C107.455 69.924 107.545 70.464 107.665 70.896C107.797 71.316 107.953 71.688 108.133 72.012C108.277 72.324 108.439 72.636 108.619 72.948C108.799 73.248 108.991 73.5 109.195 73.704C109.471 74.004 109.717 74.226 109.933 74.37C110.149 74.514 110.311 74.586 110.419 74.586C110.479 74.598 110.563 74.64 110.671 74.712C110.791 74.784 110.899 74.862 110.995 74.946C111.103 75.018 111.163 75.09 111.175 75.162C111.187 75.198 111.193 75.252 111.193 75.324C111.193 75.408 111.181 75.48 111.157 75.54C111.145 75.612 111.127 75.666 111.103 75.702C111.067 75.786 111.001 75.858 110.905 75.918C110.821 75.99 110.623 75.954 110.311 75.81ZM106.279 69.132L107.593 68.178C107.629 68.142 107.755 68.022 107.971 67.818C108.199 67.614 108.571 67.32 109.087 66.936L111.301 65.136C111.601 64.98 111.907 64.782 112.219 64.542C112.543 64.302 112.789 64.128 112.957 64.02C113.161 63.876 113.341 63.75 113.497 63.642C113.653 63.534 113.755 63.486 113.803 63.498C113.899 63.45 113.995 63.468 114.091 63.552C114.199 63.624 114.283 63.726 114.343 63.858C114.415 63.978 114.445 64.086 114.433 64.182C114.457 64.302 114.433 64.404 114.361 64.488C114.289 64.572 114.115 64.692 113.839 64.848C113.611 64.956 113.407 65.064 113.227 65.172C113.059 65.28 112.957 65.37 112.921 65.442C112.921 65.442 112.807 65.532 112.579 65.712C112.363 65.88 112.081 66.084 111.733 66.324C111.253 66.636 110.839 66.93 110.491 67.206C110.155 67.482 109.939 67.692 109.843 67.836C109.795 67.836 109.747 67.854 109.699 67.89C109.663 67.926 109.621 67.938 109.573 67.926C109.573 67.926 109.525 67.956 109.429 68.016C109.345 68.076 109.279 68.136 109.231 68.196C109.207 68.256 109.153 68.34 109.069 68.448C108.997 68.556 108.901 68.604 108.781 68.592C108.697 68.64 108.547 68.742 108.331 68.898C108.115 69.042 107.887 69.204 107.647 69.384C107.419 69.564 107.221 69.726 107.053 69.87C106.885 70.014 106.795 70.098 106.783 70.122L106.279 69.132ZM112.4 74.352C112.352 74.256 112.292 74.184 112.22 74.136C112.148 74.076 112.112 74.022 112.112 73.974C112.112 73.926 112.106 73.878 112.094 73.83C112.094 73.77 112.07 73.716 112.022 73.668C111.962 73.596 111.968 73.434 112.04 73.182C112.112 72.918 112.232 72.6 112.4 72.228C112.568 71.844 112.766 71.442 112.994 71.022C113.09 70.926 113.186 70.8 113.282 70.644C113.378 70.488 113.45 70.386 113.498 70.338C113.498 70.29 113.516 70.248 113.552 70.212C113.588 70.164 113.63 70.14 113.678 70.14V70.032C113.678 69.972 113.732 69.87 113.84 69.726C113.96 69.582 114.104 69.426 114.272 69.258C114.44 69.078 114.614 68.91 114.794 68.754C114.974 68.586 115.124 68.466 115.244 68.394C115.496 68.226 115.754 68.124 116.018 68.088C116.294 68.052 116.528 68.112 116.72 68.268C116.756 68.304 116.816 68.364 116.9 68.448C116.984 68.532 117.08 68.628 117.188 68.736C117.308 68.832 117.428 68.934 117.548 69.042L118.214 69.636L117.89 70.536C117.734 71.016 117.692 71.436 117.764 71.796C117.848 72.156 117.968 72.468 118.124 72.732C118.184 72.864 118.304 72.99 118.484 73.11C118.676 73.23 118.856 73.302 119.024 73.326C119.12 73.338 119.21 73.374 119.294 73.434C119.378 73.494 119.42 73.59 119.42 73.722C119.42 73.842 119.396 73.938 119.348 74.01C119.3 74.082 119.216 74.13 119.096 74.154C118.7 74.202 118.328 74.106 117.98 73.866C117.644 73.626 117.332 73.23 117.044 72.678C116.996 72.606 116.93 72.474 116.846 72.282C116.774 72.078 116.732 71.946 116.72 71.886C116.672 71.946 116.582 72.06 116.45 72.228C116.318 72.384 116.216 72.498 116.144 72.57C115.292 73.434 114.554 74.016 113.93 74.316C113.318 74.604 112.808 74.616 112.4 74.352ZM113.048 73.344C113.048 73.428 113.174 73.428 113.426 73.344C113.69 73.248 113.972 73.08 114.272 72.84C114.68 72.492 115.088 72.108 115.496 71.688C115.916 71.268 116.252 70.878 116.504 70.518L116.9 69.87C116.78 69.594 116.648 69.408 116.504 69.312C116.372 69.204 116.258 69.15 116.162 69.15C116.006 69.15 115.772 69.294 115.46 69.582C115.16 69.87 114.836 70.254 114.488 70.734C114.14 71.214 113.81 71.742 113.498 72.318C113.378 72.558 113.27 72.792 113.174 73.02C113.09 73.236 113.048 73.344 113.048 73.344ZM125.495 68.61C125.663 68.514 125.837 68.484 126.017 68.52C126.197 68.544 126.335 68.622 126.431 68.754C126.539 68.874 126.557 69.03 126.485 69.222C126.509 69.15 126.479 69.198 126.395 69.366C126.323 69.522 126.227 69.726 126.107 69.978C125.999 70.23 125.897 70.47 125.801 70.698C125.717 70.914 125.663 71.04 125.639 71.076V71.13C125.831 71.13 125.945 71.19 125.981 71.31C126.029 71.418 126.047 71.544 126.035 71.688C125.891 71.712 125.789 71.754 125.729 71.814C125.669 71.862 125.591 71.892 125.495 71.904C125.459 71.904 125.417 71.922 125.369 71.958C125.321 71.994 125.291 72.036 125.279 72.084C125.267 72.12 125.231 72.264 125.171 72.516C125.123 72.756 125.063 73.02 124.991 73.308C124.931 73.584 124.877 73.794 124.829 73.938C124.805 74.034 124.757 74.112 124.685 74.172C124.613 74.22 124.565 74.25 124.541 74.262C124.301 74.166 124.139 74.106 124.055 74.082C123.983 74.046 123.911 73.998 123.839 73.938C123.827 73.866 123.827 73.782 123.839 73.686C123.851 73.578 123.881 73.452 123.929 73.308C123.989 73.128 124.037 72.96 124.073 72.804C124.121 72.636 124.169 72.402 124.217 72.102C124.169 72.078 124.067 72.078 123.911 72.102C123.767 72.114 123.611 72.132 123.443 72.156C123.275 72.18 123.131 72.204 123.011 72.228C122.903 72.252 122.855 72.258 122.867 72.246C122.807 72.27 122.693 72.288 122.525 72.3C122.369 72.3 122.207 72.294 122.039 72.282C121.883 72.258 121.769 72.234 121.697 72.21L121.589 72.264C121.577 72.384 121.523 72.564 121.427 72.804C121.331 73.032 121.283 73.248 121.283 73.452C121.271 73.608 121.247 73.764 121.211 73.92C121.175 74.076 121.151 74.238 121.139 74.406C121.127 74.67 121.055 74.832 120.923 74.892C120.803 74.952 120.617 74.91 120.365 74.766C120.305 74.73 120.245 74.688 120.185 74.64C120.137 74.592 120.083 74.538 120.023 74.478L120.311 73.092C120.359 72.924 120.401 72.768 120.437 72.624C120.473 72.468 120.515 72.318 120.563 72.174C120.659 71.91 120.749 71.64 120.833 71.364C120.929 71.088 121.037 70.83 121.157 70.59C121.157 70.59 121.175 70.53 121.211 70.41C121.259 70.278 121.313 70.134 121.373 69.978C121.433 69.81 121.481 69.678 121.517 69.582C121.553 69.486 121.559 69.468 121.535 69.528C121.571 69.456 121.625 69.318 121.697 69.114C121.769 68.898 121.835 68.694 121.895 68.502C121.967 68.298 122.003 68.19 122.003 68.178C122.027 68.106 122.063 68.058 122.111 68.034C122.159 67.998 122.219 67.98 122.291 67.98C122.495 67.968 122.663 68.016 122.795 68.124C122.927 68.22 122.999 68.34 123.011 68.484C122.999 68.556 122.993 68.622 122.993 68.682C122.993 68.742 122.981 68.79 122.957 68.826L122.021 71.112V71.256C122.141 71.328 122.315 71.34 122.543 71.292C122.783 71.232 122.963 71.202 123.083 71.202C123.143 71.19 123.281 71.178 123.497 71.166C123.725 71.154 123.941 71.148 124.145 71.148C124.361 71.148 124.475 71.154 124.487 71.166C124.619 70.806 124.739 70.47 124.847 70.158C124.955 69.834 125.105 69.504 125.297 69.168C125.309 69.144 125.333 69.066 125.369 68.934C125.417 68.802 125.459 68.694 125.495 68.61ZM128.053 74.334C128.017 74.286 127.981 74.226 127.945 74.154C127.921 74.082 127.909 74.022 127.909 73.974C127.909 73.95 127.903 73.92 127.891 73.884C127.891 73.848 127.867 73.83 127.819 73.83C127.783 73.794 127.807 73.656 127.891 73.416C127.987 73.164 128.107 72.876 128.251 72.552C128.407 72.228 128.563 71.916 128.719 71.616C128.887 71.304 129.025 71.058 129.133 70.878C129.193 70.842 129.229 70.794 129.241 70.734C129.265 70.662 129.265 70.626 129.241 70.626C129.241 70.626 129.271 70.572 129.331 70.464C129.403 70.344 129.457 70.266 129.493 70.23C129.589 70.062 129.661 69.894 129.709 69.726C129.757 69.546 129.769 69.396 129.745 69.276C129.697 69.216 129.643 69.198 129.583 69.222C129.523 69.246 129.493 69.258 129.493 69.258C129.445 69.27 129.373 69.294 129.277 69.33C129.193 69.354 129.115 69.39 129.043 69.438C128.767 69.63 128.581 69.72 128.485 69.708C128.389 69.684 128.281 69.528 128.161 69.24C128.113 69.108 128.095 69.012 128.107 68.952C128.119 68.892 128.167 68.826 128.251 68.754C128.347 68.67 128.437 68.616 128.521 68.592C128.605 68.556 128.671 68.52 128.719 68.484C128.851 68.4 128.959 68.34 129.043 68.304C129.139 68.268 129.211 68.244 129.259 68.232C129.571 68.136 129.835 68.118 130.051 68.178C130.267 68.238 130.429 68.394 130.537 68.646C130.705 68.85 130.789 69.084 130.789 69.348C130.789 69.6 130.705 69.894 130.537 70.23L130.357 70.5C130.297 70.62 130.285 70.68 130.321 70.68C130.369 70.68 130.423 70.638 130.483 70.554C130.519 70.506 130.591 70.434 130.699 70.338C130.807 70.242 130.879 70.194 130.915 70.194C130.915 70.194 130.927 70.188 130.951 70.176C130.987 70.164 131.005 70.116 131.005 70.032C131.041 69.996 131.077 69.96 131.113 69.924C131.161 69.888 131.185 69.87 131.185 69.87C131.233 69.87 131.323 69.816 131.455 69.708C131.599 69.588 131.767 69.45 131.959 69.294C132.091 69.198 132.211 69.15 132.319 69.15C132.595 69.066 132.817 69.156 132.985 69.42C133.165 69.684 133.255 70.026 133.255 70.446L132.877 71.418L133.525 70.626C133.597 70.53 133.669 70.446 133.741 70.374C133.825 70.302 133.897 70.242 133.957 70.194C133.981 70.11 134.017 70.062 134.065 70.05C134.113 70.038 134.137 70.032 134.137 70.032C134.137 70.032 134.149 70.032 134.173 70.032C134.197 70.02 134.209 69.996 134.209 69.96C134.269 69.912 134.335 69.87 134.407 69.834C134.479 69.786 134.527 69.738 134.551 69.69C134.755 69.606 134.941 69.594 135.109 69.654C135.277 69.702 135.421 69.852 135.541 70.104C135.625 70.248 135.673 70.374 135.685 70.482C135.697 70.59 135.703 70.752 135.703 70.968C135.679 71.148 135.655 71.292 135.631 71.4C135.619 71.496 135.607 71.598 135.595 71.706C135.583 71.814 135.565 71.964 135.541 72.156C135.493 72.252 135.463 72.354 135.451 72.462C135.451 72.57 135.451 72.672 135.451 72.768C135.451 72.924 135.457 73.032 135.469 73.092C135.481 73.14 135.529 73.164 135.613 73.164C135.781 73.128 136.009 73.044 136.297 72.912C136.597 72.768 136.819 72.63 136.963 72.498C137.143 72.33 137.299 72.246 137.431 72.246C137.575 72.234 137.665 72.3 137.701 72.444C137.725 72.492 137.683 72.6 137.575 72.768C137.479 72.936 137.365 73.098 137.233 73.254C137.113 73.41 137.023 73.488 136.963 73.488C136.927 73.488 136.885 73.524 136.837 73.596C136.789 73.656 136.735 73.704 136.675 73.74C136.591 73.824 136.507 73.902 136.423 73.974C136.351 74.046 136.267 74.082 136.171 74.082C136.123 74.082 136.063 74.1 135.991 74.136C135.931 74.16 135.859 74.172 135.775 74.172C135.655 74.208 135.469 74.19 135.217 74.118C134.977 74.046 134.821 73.878 134.749 73.614C134.701 73.482 134.659 73.272 134.623 72.984C134.587 72.684 134.593 72.384 134.641 72.084C134.689 71.868 134.719 71.67 134.731 71.49C134.743 71.31 134.767 71.184 134.803 71.112C134.803 71.076 134.803 70.992 134.803 70.86C134.803 70.716 134.785 70.644 134.749 70.644C134.701 70.644 134.587 70.734 134.407 70.914C134.239 71.082 134.035 71.298 133.795 71.562C133.567 71.826 133.339 72.102 133.111 72.39C132.883 72.678 132.697 72.936 132.553 73.164C132.445 73.296 132.349 73.458 132.265 73.65C132.181 73.842 132.121 73.95 132.085 73.974C132.001 74.07 131.899 74.082 131.779 74.01C131.671 73.938 131.569 73.824 131.473 73.668C131.437 73.596 131.413 73.536 131.401 73.488C131.389 73.428 131.389 73.35 131.401 73.254C131.425 73.146 131.467 72.99 131.527 72.786C131.599 72.582 131.695 72.294 131.815 71.922C131.947 71.514 132.061 71.148 132.157 70.824C132.265 70.488 132.319 70.32 132.319 70.32C132.319 70.272 132.229 70.32 132.049 70.464C131.869 70.596 131.659 70.764 131.419 70.968C131.311 71.1 131.131 71.298 130.879 71.562C130.627 71.826 130.351 72.126 130.051 72.462C129.751 72.798 129.463 73.152 129.187 73.524C128.839 74.016 128.593 74.316 128.449 74.424C128.317 74.532 128.185 74.502 128.053 74.334Z" fill="white"/>
</g>
<defs>
<clipPath id="clip0_80_43">
<rect width="239" height="83" fill="white"/>
</clipPath>
</defs>
</svg>
