<svg width="239" height="83" viewBox="0 0 239 83" fill="none" xmlns="http://www.w3.org/2000/svg">
<g clip-path="url(#clip0_36_56)">
<path d="M20.9213 51.4526L20.2536 52L18 49L20.2536 46L20.9213 46.5474L19.0642 49L20.9213 51.4526ZM23.3209 51.4526L22.6532 52L20.3788 49L22.6532 46L23.3209 46.5474L21.4638 49L23.3209 51.4526ZM220.6 49L218.326 52L217.679 51.4526L219.536 49L217.679 46.5474L218.326 46L220.6 49ZM223 49L220.726 52L220.058 51.4526L221.915 49L220.058 46.5474L220.726 46L223 49Z" fill="#FEFAEF"/>
<path d="M101.996 23.86C102.183 23.78 102.316 23.8333 102.396 24.02C102.476 24.2067 102.423 24.34 102.236 24.42C101.423 24.7667 99.6165 25.2867 96.8165 25.98C95.1232 27.4867 93.2832 28.48 91.2965 28.96C90.4965 29.1467 89.8698 29.1933 89.4165 29.1C88.9498 29.0067 88.7765 28.7867 88.8965 28.44C89.0965 27.88 89.9165 27.34 91.3565 26.82C92.2765 26.5 93.8365 26.08 96.0365 25.56C97.0632 24.64 97.9232 23.62 98.6165 22.5C99.8565 20.4333 100.343 18.4333 100.076 16.5C99.9432 15.6067 99.6498 14.8867 99.1965 14.34C98.7165 13.7667 98.1032 13.4467 97.3565 13.38C95.0898 13.18 92.4498 14.9333 89.4365 18.64C88.8098 21.4133 87.4032 25.04 85.2165 29.52C83.5098 33.0267 81.8298 36.0867 80.1765 38.7C79.6298 39.5667 79.2565 40.1067 79.0565 40.32C78.8698 40.5067 78.6898 40.5533 78.5165 40.46C78.4498 40.4067 78.4032 40.36 78.3765 40.32V40.28L78.3565 40.24C78.3165 40.08 78.3632 39.72 78.4965 39.16C78.5498 38.96 78.6032 38.7467 78.6565 38.52C78.6832 38.4267 78.7098 38.34 78.7365 38.26C78.7632 38.18 78.7832 38.1133 78.7965 38.06C80.1032 33.5 81.9365 29.0733 84.2965 24.78C85.7098 22.2733 87.2498 20.04 88.9165 18.08C89.1032 17.24 89.1832 16.5067 89.1565 15.88C89.1165 14.72 88.6165 13.98 87.6565 13.66C86.8032 13.38 85.7965 13.48 84.6365 13.96C82.7565 14.7333 80.9898 16.1533 79.3365 18.22C77.6832 20.2867 76.9965 21.94 77.2765 23.18C77.3965 23.74 77.7965 24.0133 78.4765 24C79.1032 23.9867 79.6498 23.76 80.1165 23.32C80.2632 23.1867 80.4098 23.1933 80.5565 23.34C80.6898 23.4867 80.6832 23.6267 80.5365 23.76C79.9498 24.3067 79.2298 24.5867 78.3765 24.6C77.4165 24.6267 76.8032 24.2267 76.5365 23.4C76.0698 21.96 76.7632 20.1 78.6165 17.82C80.4032 15.6333 82.3232 14.14 84.3765 13.34C85.7765 12.7933 86.9898 12.72 88.0165 13.12C89.1232 13.56 89.7032 14.4733 89.7565 15.86C89.7832 16.2733 89.7632 16.72 89.6965 17.2C92.5632 14.04 95.1365 12.5667 97.4165 12.78C98.3232 12.8733 99.0698 13.2533 99.6565 13.92C100.216 14.5467 100.583 15.36 100.756 16.36C101.13 18.52 100.656 20.7133 99.3365 22.94C98.8832 23.7 98.3232 24.44 97.6565 25.16C99.6832 24.68 101.13 24.2467 101.996 23.86ZM79.6765 38.38C81.0365 36.22 82.5232 33.5067 84.1365 30.24C86.2032 26.1067 87.6432 22.6667 88.4565 19.92C87.2432 21.5467 86.1098 23.3067 85.0565 25.2C82.5765 29.6133 80.6898 33.96 79.3965 38.24L79.1165 39.22C79.3165 38.9533 79.5032 38.6733 79.6765 38.38ZM90.2165 28.46C91.6832 28.3133 93.2565 27.64 94.9365 26.44C91.7765 27.2267 89.9898 27.9 89.5765 28.46C89.6698 28.4733 89.7832 28.48 89.9165 28.48C90.0232 28.48 90.1232 28.4733 90.2165 28.46ZM106.409 27.7C106.489 27.8333 106.449 27.98 106.289 28.14C106.076 28.34 105.723 28.6067 105.229 28.94L105.069 29.04L104.889 29.16C104.756 29.2533 104.629 29.3333 104.509 29.4C104.176 29.5867 103.863 29.7333 103.569 29.84C102.756 30.16 101.963 30.24 101.189 30.08C100.643 29.96 100.249 29.68 100.009 29.24C99.8093 28.8533 99.776 28.4667 99.9093 28.08C99.7093 28.24 99.5493 28.36 99.4293 28.44C99.3893 28.4667 99.3293 28.48 99.2493 28.48C99.1826 28.4667 99.1226 28.4333 99.0693 28.38C99.0293 28.3267 99.016 28.26 99.0293 28.18C99.0426 28.1 99.0693 28.04 99.1093 28C99.1493 27.96 99.2226 27.8933 99.3293 27.8L99.4093 27.72L99.4893 27.66C99.556 27.5933 99.6226 27.5333 99.6893 27.48C99.716 27.4667 99.796 27.4133 99.9293 27.32L100.009 27.28L100.109 27.2L100.329 27.06C100.729 26.4067 101.256 25.8867 101.909 25.5C102.616 25.06 103.269 24.92 103.869 25.08C104.136 25.1467 104.323 25.28 104.429 25.48C104.683 25.8933 104.269 26.3267 103.189 26.78C103.003 26.86 102.789 26.94 102.549 27.02L102.229 27.14L101.929 27.24C101.463 27.4 101.183 27.5133 101.089 27.58C100.809 28.0733 100.729 28.48 100.849 28.8C100.956 29.1067 101.209 29.3 101.609 29.38C102.516 29.58 103.569 29.2933 104.769 28.52C105.103 28.32 105.489 28.04 105.929 27.68C106.009 27.6133 106.096 27.5867 106.189 27.6C106.283 27.6 106.356 27.6333 106.409 27.7ZM103.829 25.78L103.729 25.74C103.689 25.74 103.643 25.7333 103.589 25.72C103.456 25.72 103.316 25.7333 103.169 25.76C102.756 25.8667 102.303 26.14 101.809 26.58L101.649 26.74C101.996 26.62 102.343 26.4867 102.689 26.34C103.116 26.1533 103.489 25.9667 103.809 25.78H103.829ZM112.874 27.7C112.954 27.8333 112.914 27.98 112.754 28.14C112.541 28.34 112.187 28.6067 111.694 28.94L111.534 29.04L111.354 29.16C111.221 29.2533 111.094 29.3333 110.974 29.4C110.641 29.5867 110.327 29.7333 110.034 29.84C109.221 30.16 108.427 30.24 107.654 30.08C107.107 29.96 106.714 29.68 106.474 29.24C106.274 28.8533 106.241 28.4667 106.374 28.08C106.174 28.24 106.014 28.36 105.894 28.44C105.854 28.4667 105.794 28.48 105.714 28.48C105.647 28.4667 105.587 28.4333 105.534 28.38C105.494 28.3267 105.481 28.26 105.494 28.18C105.507 28.1 105.534 28.04 105.574 28C105.614 27.96 105.687 27.8933 105.794 27.8L105.874 27.72L105.954 27.66C106.021 27.5933 106.087 27.5333 106.154 27.48C106.194 27.4533 106.307 27.3667 106.494 27.22C106.547 27.18 106.634 27.1067 106.754 27L107.074 26.76C107.634 26.3333 107.954 26.0867 108.034 26.02C108.047 26.0067 108.074 25.9867 108.114 25.96L108.194 25.9L108.254 25.84C108.387 25.7333 108.507 25.6467 108.614 25.58C108.921 25.3533 109.107 25.2533 109.174 25.28C109.867 24.8133 110.434 24.7933 110.874 25.22C111.087 25.4333 111.074 25.64 110.834 25.84C110.567 26.0667 110.114 26.1133 109.474 25.98C109.434 26.0067 109.334 26.06 109.174 26.14C109.081 26.18 109.007 26.22 108.954 26.26C108.861 26.3133 108.774 26.36 108.694 26.4C108.241 26.6933 107.881 27.06 107.614 27.5C107.307 28.0067 107.201 28.4333 107.294 28.78C107.387 29.0867 107.641 29.2867 108.054 29.38C108.947 29.5933 110.007 29.3067 111.234 28.52C111.567 28.32 111.954 28.04 112.394 27.68C112.474 27.6133 112.561 27.5867 112.654 27.6C112.747 27.6 112.821 27.6333 112.874 27.7ZM123.999 27.7C124.092 27.8333 124.059 27.98 123.899 28.14L123.119 28.74C122.892 28.9 122.632 29.0667 122.339 29.24C121.979 29.4667 121.639 29.6533 121.319 29.8C120.452 30.2 119.859 30.28 119.539 30.04C119.325 29.88 119.299 29.6 119.459 29.2C119.512 29.04 119.612 28.8333 119.759 28.58L119.939 28.24L120.159 27.86C120.385 27.4467 120.552 27.1067 120.659 26.84C120.699 26.7467 120.732 26.66 120.759 26.58C120.785 26.5267 120.799 26.4867 120.799 26.46C120.159 26.3933 119.332 26.74 118.319 27.5C117.932 27.7933 117.532 28.14 117.119 28.54C116.785 28.86 116.479 29.1867 116.199 29.52C116.065 29.68 115.919 29.7 115.759 29.58C115.585 29.46 115.572 29.28 115.719 29.04L115.759 28.98L115.839 28.86C115.892 28.7667 115.952 28.6733 116.019 28.58C116.179 28.3 116.325 28.0467 116.459 27.82C116.859 27.0867 117.039 26.6 116.999 26.36C116.785 26.3333 116.472 26.44 116.059 26.68C115.739 26.8667 115.379 27.1267 114.979 27.46C114.672 27.7267 114.339 28.04 113.979 28.4C113.832 28.5333 113.685 28.68 113.539 28.84C113.432 28.9467 113.319 29.06 113.199 29.18L112.899 29.52C112.819 29.6 112.719 29.6 112.599 29.52C112.465 29.4533 112.425 29.36 112.479 29.24C112.479 29.1467 112.745 28.62 113.279 27.66L113.199 27.74L113.099 27.82C113.032 27.8867 112.992 27.9267 112.979 27.94C112.685 28.18 112.472 28.3467 112.339 28.44C112.205 28.52 112.079 28.5 111.959 28.38C111.919 28.3267 111.905 28.26 111.919 28.18C111.932 28.1133 111.959 28.0533 111.999 28C112.039 27.96 112.165 27.8533 112.379 27.68C112.485 27.5867 112.585 27.5 112.679 27.42C112.799 27.3133 112.919 27.2067 113.039 27.1C113.239 26.9133 113.465 26.68 113.719 26.4L113.859 26.26L113.979 26.12C114.072 26.0133 114.152 25.9333 114.219 25.88C114.499 25.5867 114.712 25.5067 114.859 25.64C114.965 25.7333 114.985 25.86 114.919 26.02C114.865 26.1533 114.612 26.6067 114.159 27.38C115.239 26.38 116.132 25.8467 116.839 25.78C117.599 25.7533 117.779 26.2533 117.379 27.28C118.245 26.52 119.079 26.0267 119.879 25.8C120.519 25.6267 120.985 25.6467 121.279 25.86C121.625 26.1133 121.605 26.6267 121.219 27.4C121.099 27.6267 120.912 27.94 120.659 28.34L120.519 28.58L120.379 28.8C120.285 28.9467 120.212 29.0733 120.159 29.18L120.079 29.34C120.052 29.3933 120.039 29.44 120.039 29.48C120.052 29.56 120.172 29.5667 120.399 29.5C120.679 29.42 121.025 29.2733 121.439 29.06C121.599 28.98 121.765 28.8933 121.939 28.8C122.059 28.72 122.185 28.64 122.319 28.56C122.772 28.2667 123.172 27.9733 123.519 27.68C123.599 27.6133 123.692 27.5867 123.799 27.6C123.892 27.6 123.959 27.6333 123.999 27.7ZM130.512 27.7C130.605 27.8333 130.572 27.98 130.412 28.14L130.272 28.26L130.112 28.38C129.978 28.4867 129.852 28.58 129.732 28.66C128.785 29.3667 127.792 29.5733 126.752 29.28C125.938 29.9067 125.232 30.06 124.632 29.74C124.032 29.4333 123.858 28.82 124.112 27.9L123.892 28.08L123.412 28.44C123.358 28.4667 123.298 28.48 123.232 28.48C123.152 28.4667 123.085 28.4333 123.032 28.38C122.992 28.3267 122.978 28.26 122.992 28.18C123.005 28.1133 123.032 28.0533 123.072 28C123.112 27.9733 123.165 27.9267 123.232 27.86L123.352 27.76L123.472 27.66C123.712 27.46 123.952 27.2467 124.192 27.02L124.912 26.3C125.058 26.18 125.192 26.18 125.312 26.3C125.725 25.5267 126.325 25.0533 127.112 24.88C127.938 24.6933 128.425 25.02 128.572 25.86C128.678 26.5133 128.445 27.2467 127.872 28.06C127.658 28.3667 127.472 28.6 127.312 28.76C127.578 28.8133 127.858 28.8133 128.152 28.76C128.538 28.68 128.932 28.5 129.332 28.22C129.598 28.02 129.832 27.84 130.032 27.68C130.112 27.6133 130.205 27.5867 130.312 27.6C130.405 27.6 130.472 27.6333 130.512 27.7ZM126.512 28.6C127.032 28.12 127.418 27.5667 127.672 26.94C127.938 26.3 127.938 25.8867 127.672 25.7L127.632 25.68L127.572 25.64C127.505 25.6267 127.432 25.6133 127.352 25.6C126.845 25.5733 126.412 25.8067 126.052 26.3C125.678 26.8067 125.598 27.3333 125.812 27.88C125.945 28.2 126.178 28.44 126.512 28.6ZM125.172 29.28C125.438 29.2667 125.718 29.1667 126.012 28.98C125.772 28.8067 125.578 28.62 125.432 28.42C125.152 28.0067 125.032 27.5733 125.072 27.12C124.685 27.7733 124.532 28.32 124.612 28.76C124.692 29.1333 124.878 29.3067 125.172 29.28ZM137.974 27.7C138.068 27.8333 138.034 27.98 137.874 28.14L137.714 28.26L137.534 28.4C137.388 28.52 137.254 28.6267 137.134 28.72L136.994 28.82L136.834 28.94L136.494 29.16C136.201 29.3333 135.921 29.4733 135.654 29.58C134.934 29.8733 134.241 29.9133 133.574 29.7C132.908 30.14 132.361 30.3 131.934 30.18C131.708 30.1133 131.548 29.9867 131.454 29.8C131.374 29.6267 131.381 29.4467 131.474 29.26C131.701 28.8067 132.261 28.6933 133.154 28.92C133.261 28.9333 133.388 28.9667 133.534 29.02C134.094 28.5667 134.528 28.0333 134.834 27.42C135.141 26.8067 135.121 26.4867 134.774 26.46C133.708 26.4467 132.454 27.34 131.014 29.14C130.081 31.3933 129.274 33.2133 128.594 34.6C127.648 36.5333 127.008 37.52 126.674 37.56H126.554C126.301 37.4933 126.381 36.8333 126.794 35.58C127.848 32.5133 129.161 30.0667 130.734 28.24L130.894 27.88L131.034 27.54L131.054 27.5V27.46C130.788 27.7133 130.548 27.9267 130.334 28.1C130.188 28.22 130.041 28.3333 129.894 28.44C129.841 28.4667 129.781 28.48 129.714 28.48C129.634 28.4667 129.568 28.4333 129.514 28.38C129.474 28.3267 129.461 28.26 129.474 28.18C129.488 28.1133 129.514 28.0533 129.554 28C129.594 27.96 129.728 27.8467 129.954 27.66C130.061 27.5667 130.168 27.4733 130.274 27.38C130.408 27.26 130.541 27.14 130.674 27.02C130.981 26.74 131.341 26.3133 131.754 25.74C131.861 25.6067 131.988 25.5867 132.134 25.68C132.281 25.7733 132.321 25.8933 132.254 26.04L132.234 26.12L132.194 26.2C132.168 26.2933 132.141 26.3733 132.114 26.44C132.021 26.68 131.928 26.9067 131.834 27.12C132.554 26.4933 133.241 26.0667 133.894 25.84C134.494 25.6267 134.968 25.6133 135.314 25.8C135.648 25.9867 135.781 26.3267 135.714 26.82C135.634 27.3533 135.308 27.9667 134.734 28.66C134.588 28.8467 134.428 29.0133 134.254 29.16C135.094 29.1333 135.921 28.8333 136.734 28.26C136.974 28.1 137.228 27.9067 137.494 27.68C137.574 27.6133 137.668 27.5867 137.774 27.6C137.868 27.6 137.934 27.6333 137.974 27.7ZM127.134 36.26C127.628 35.42 128.381 33.8267 129.394 31.48C128.354 33.2 127.601 34.7933 127.134 36.26ZM132.294 29.62C132.468 29.5933 132.634 29.5467 132.794 29.48C132.661 29.4533 132.554 29.44 132.474 29.44H132.354L132.214 29.46C132.094 29.4733 132.021 29.5067 131.994 29.56C132.008 29.5733 132.048 29.5867 132.114 29.6C132.181 29.6133 132.241 29.62 132.294 29.62ZM145.514 27.7C145.607 27.8333 145.574 27.98 145.414 28.14C144.387 29.06 143.407 29.6267 142.474 29.84C141.514 30.08 141.114 29.7867 141.274 28.96C140.634 29.4667 140.027 29.7467 139.454 29.8C138.827 29.8533 138.394 29.7 138.154 29.34C137.94 29.0067 137.927 28.58 138.114 28.06C137.914 28.2333 137.747 28.36 137.614 28.44C137.56 28.4667 137.5 28.48 137.434 28.48C137.367 28.4667 137.307 28.4333 137.254 28.38C137.2 28.3267 137.18 28.26 137.194 28.18C137.207 28.1133 137.24 28.0533 137.294 28C137.334 27.96 137.407 27.8933 137.514 27.8L137.594 27.72L137.674 27.66C137.74 27.5933 137.807 27.5333 137.874 27.48C137.9 27.4667 137.934 27.4467 137.974 27.42C138.014 27.38 138.06 27.34 138.114 27.3C138.26 27.1933 138.394 27.0933 138.514 27C138.874 26.7467 139.107 26.5933 139.214 26.54C139.934 26.1533 140.567 25.92 141.114 25.84C141.634 25.76 142.147 25.76 142.654 25.84C142.84 25.8667 142.927 25.9733 142.914 26.16C142.887 26.36 142.78 26.4533 142.594 26.44C141.674 26.3867 140.767 26.6133 139.874 27.12C139.274 27.5333 138.907 27.9333 138.774 28.32C138.654 28.6667 138.747 28.9 139.054 29.02C139.374 29.14 139.794 29.08 140.314 28.84C140.927 28.5467 141.54 28.0467 142.154 27.34C142.46 26.8867 142.767 26.4867 143.074 26.14C143.207 26.0067 143.347 26 143.494 26.12C143.627 26.24 143.64 26.3733 143.534 26.52L143.514 26.56L143.494 26.6C143.347 26.7867 143.134 27.0867 142.854 27.5C142.52 28.0067 142.267 28.4133 142.094 28.72C141.84 29.2 141.934 29.38 142.374 29.26C142.547 29.22 142.754 29.14 142.994 29.02C143.18 28.9267 143.367 28.8267 143.554 28.72C143.82 28.5733 144.1 28.3867 144.394 28.16C144.514 28.08 144.634 27.9933 144.754 27.9C144.847 27.8333 144.94 27.76 145.034 27.68C145.114 27.6133 145.2 27.5867 145.294 27.6C145.387 27.6 145.46 27.6333 145.514 27.7ZM150.215 26.62C150.482 26.1933 150.715 25.8733 150.915 25.66C151.035 25.5267 151.169 25.5133 151.315 25.62C151.462 25.74 151.489 25.8733 151.395 26.02C151.382 26.0333 151.362 26.06 151.335 26.1L151.295 26.16L151.255 26.24C151.175 26.3867 151.095 26.5267 151.015 26.66C150.775 27.06 150.562 27.4267 150.375 27.76C149.815 28.7733 149.602 29.3067 149.735 29.36C150.002 29.4533 150.462 29.3133 151.115 28.94C151.715 28.62 152.335 28.2 152.975 27.68C153.055 27.6133 153.149 27.5867 153.255 27.6C153.349 27.6 153.415 27.6333 153.455 27.7C153.549 27.8333 153.515 27.98 153.355 28.14C153.142 28.3267 152.789 28.5933 152.295 28.94C151.602 29.4333 151.009 29.7733 150.515 29.96C149.875 30.1867 149.415 30.1467 149.135 29.84C148.829 29.5067 148.902 28.9267 149.355 28.1C148.155 28.9133 147.295 29.2133 146.775 29C146.442 28.8667 146.289 28.5733 146.315 28.12C146.262 28.1867 146.215 28.26 146.175 28.34L145.555 29.52C145.422 29.5733 145.309 29.5533 145.215 29.46C145.122 29.3533 145.102 29.2133 145.155 29.04C145.209 28.8667 145.415 28.46 145.775 27.82C145.602 27.9667 145.442 28.1 145.295 28.22C145.242 28.26 145.182 28.3 145.115 28.34L144.975 28.44C144.935 28.4667 144.875 28.48 144.795 28.48C144.729 28.4667 144.669 28.4333 144.615 28.38C144.575 28.3267 144.562 28.26 144.575 28.18C144.589 28.1133 144.615 28.0533 144.655 28C144.695 27.96 144.782 27.8867 144.915 27.78C144.982 27.7133 145.042 27.66 145.095 27.62C145.175 27.5533 145.249 27.4867 145.315 27.42C145.342 27.4067 145.369 27.38 145.395 27.34C145.435 27.3133 145.482 27.2733 145.535 27.22C145.655 27.1133 145.789 26.9933 145.935 26.86C146.335 26.4733 146.722 26.0733 147.095 25.66C147.229 25.5267 147.369 25.52 147.515 25.64C147.662 25.76 147.682 25.8867 147.575 26.02C147.482 26.1667 147.395 26.3133 147.315 26.46L147.355 26.42C147.022 27.2867 146.889 27.94 146.955 28.38C146.995 28.4733 147.149 28.4933 147.415 28.44C147.709 28.36 148.062 28.2 148.475 27.96C149.035 27.6133 149.615 27.1667 150.215 26.62Z" fill="#FEFAEF"/>
<path d="M98 74.46V69.48H100.952V70.272H98.864V74.46H98ZM100.929 73.98C100.929 73.656 101.205 73.38 101.529 73.38C101.853 73.38 102.129 73.656 102.129 73.98C102.129 74.304 101.853 74.58 101.529 74.58C101.205 74.58 100.929 74.304 100.929 73.98Z" fill="white"/>
<path d="M35.239 34.636V35.329C34.139 35.329 33.468 35.45 33.226 35.692C32.984 35.912 33.017 36.275 33.325 36.781L45.667 55.657C46.085 56.295 46.437 56.724 46.723 56.944C47.009 57.142 47.394 57.263 47.878 57.307V58C47.592 57.978 47.185 57.956 46.657 57.934C46.151 57.89 45.612 57.868 45.04 57.868C44.16 57.868 43.269 57.89 42.367 57.934C41.487 57.956 40.827 57.978 40.387 58V57.307C41.487 57.307 42.191 57.241 42.499 57.109C42.807 56.977 42.807 56.669 42.499 56.185L29.959 36.979C29.541 36.341 29.189 35.912 28.903 35.692C28.639 35.472 28.254 35.351 27.748 35.329V34.636C28.034 34.658 28.441 34.691 28.969 34.735C29.497 34.757 30.036 34.768 30.586 34.768C31.488 34.768 32.335 34.757 33.127 34.735C33.919 34.691 34.623 34.658 35.239 34.636ZM37.054 45.955C37.054 45.955 37.076 46.032 37.12 46.186C37.164 46.318 37.208 46.461 37.252 46.615C37.318 46.747 37.351 46.813 37.351 46.813L33.292 52.852C32.5 54.04 32.082 54.953 32.038 55.591C32.016 56.229 32.269 56.68 32.797 56.944C33.325 57.186 34.051 57.318 34.975 57.34V58C34.667 57.978 34.315 57.967 33.919 57.967C33.523 57.945 33.116 57.934 32.698 57.934C32.302 57.912 31.906 57.901 31.51 57.901C31.136 57.901 30.806 57.901 30.52 57.901C29.97 57.901 29.442 57.912 28.936 57.934C28.452 57.934 28.045 57.956 27.715 58V57.34C28.397 57.23 29.035 56.922 29.629 56.416C30.223 55.91 30.828 55.206 31.444 54.304L37.054 45.955ZM47.185 34.636V35.296C46.503 35.384 45.865 35.692 45.271 36.22C44.677 36.726 44.072 37.43 43.456 38.332L38.143 46.252C38.143 46.252 38.11 46.109 38.044 45.823C37.978 45.537 37.945 45.394 37.945 45.394L41.707 39.784C42.499 38.596 42.961 37.683 43.093 37.045C43.225 36.407 43.071 35.967 42.631 35.725C42.191 35.461 41.509 35.318 40.585 35.296V34.636C41.003 34.658 41.432 34.68 41.872 34.702C42.312 34.702 42.741 34.713 43.159 34.735C43.599 34.735 44.006 34.735 44.38 34.735C44.952 34.735 45.48 34.724 45.964 34.702C46.448 34.68 46.855 34.658 47.185 34.636ZM53.7451 58.231C52.8431 58.231 52.0621 58.066 51.4021 57.736C50.7421 57.384 50.2361 56.9 49.8841 56.284C49.5541 55.668 49.3891 54.953 49.3891 54.139C49.3891 53.171 49.6091 52.379 50.0491 51.763C50.5111 51.147 51.0941 50.652 51.7981 50.278C52.5021 49.904 53.2391 49.596 54.0091 49.354C54.8011 49.09 55.5491 48.848 56.2531 48.628C56.9571 48.386 57.5291 48.111 57.9691 47.803C58.4311 47.495 58.6621 47.088 58.6621 46.582V44.536C58.6621 43.612 58.5191 42.908 58.2331 42.424C57.9691 41.94 57.6061 41.621 57.1441 41.467C56.6821 41.291 56.1651 41.203 55.5931 41.203C55.0431 41.203 54.4491 41.28 53.8111 41.434C53.1951 41.588 52.7001 41.907 52.3261 42.391C52.7441 42.479 53.1071 42.699 53.4151 43.051C53.7231 43.403 53.8771 43.854 53.8771 44.404C53.8771 44.954 53.7011 45.394 53.3491 45.724C52.9971 46.032 52.5461 46.186 51.9961 46.186C51.3581 46.186 50.8851 45.988 50.5771 45.592C50.2911 45.174 50.1481 44.712 50.1481 44.206C50.1481 43.634 50.2911 43.172 50.5771 42.82C50.8631 42.468 51.2261 42.138 51.6661 41.83C52.1721 41.478 52.8211 41.181 53.6131 40.939C54.4271 40.675 55.3401 40.543 56.3521 40.543C57.2541 40.543 58.0241 40.653 58.6621 40.873C59.3001 41.071 59.8281 41.368 60.2461 41.764C60.8181 42.292 61.1921 42.941 61.3681 43.711C61.5441 44.459 61.6321 45.361 61.6321 46.417V55.591C61.6321 56.141 61.7091 56.537 61.8631 56.779C62.0391 57.021 62.3031 57.142 62.6551 57.142C62.8971 57.142 63.1281 57.087 63.3481 56.977C63.5681 56.867 63.8321 56.691 64.1401 56.449L64.5031 57.01C64.0411 57.362 63.6011 57.659 63.1831 57.901C62.7651 58.121 62.2041 58.231 61.5001 58.231C60.8621 58.231 60.3341 58.121 59.9161 57.901C59.4981 57.681 59.1791 57.362 58.9591 56.944C58.7611 56.504 58.6621 55.954 58.6621 55.294C58.0681 56.284 57.3531 57.021 56.5171 57.505C55.7031 57.989 54.7791 58.231 53.7451 58.231ZM54.9331 56.911C55.6591 56.911 56.3301 56.702 56.9461 56.284C57.5841 55.866 58.1561 55.239 58.6621 54.403V47.935C58.3981 48.309 58.0131 48.628 57.5071 48.892C57.0011 49.134 56.4511 49.387 55.8571 49.651C55.2631 49.893 54.6911 50.19 54.1411 50.542C53.6131 50.872 53.1731 51.312 52.8211 51.862C52.4691 52.412 52.2931 53.127 52.2931 54.007C52.2931 54.887 52.5241 55.591 52.9861 56.119C53.4701 56.647 54.1191 56.911 54.9331 56.911ZM83.7436 41.038V41.731C82.8416 41.731 82.1926 41.896 81.7966 42.226C81.4226 42.556 81.2356 43.183 81.2356 44.107V54.931C81.2356 55.855 81.4226 56.482 81.7966 56.812C82.1926 57.142 82.8416 57.307 83.7436 57.307V58C83.3696 57.978 82.7976 57.956 82.0276 57.934C81.2576 57.89 80.5096 57.868 79.7836 57.868C79.0576 57.868 78.3426 57.89 77.6386 57.934C76.9566 57.956 76.4396 57.978 76.0876 58V57.307C76.8796 57.307 77.4406 57.142 77.7706 56.812C78.1006 56.482 78.2656 55.855 78.2656 54.931V44.107C78.2656 43.183 78.1006 42.556 77.7706 42.226C77.4406 41.896 76.8796 41.731 76.0876 41.731V41.038C76.4396 41.06 76.9566 41.093 77.6386 41.137C78.3426 41.159 79.0576 41.17 79.7836 41.17C80.5096 41.17 81.2576 41.159 82.0276 41.137C82.7976 41.093 83.3696 41.06 83.7436 41.038ZM73.1506 41.038V41.731C72.3586 41.731 71.7976 41.896 71.4676 42.226C71.1376 42.556 70.9726 43.183 70.9726 44.107V54.931C70.9726 55.855 71.1376 56.482 71.4676 56.812C71.7976 57.142 72.3586 57.307 73.1506 57.307V58C72.7986 57.978 72.2706 57.956 71.5666 57.934C70.8846 57.89 70.1806 57.868 69.4546 57.868C68.7286 57.868 67.9806 57.89 67.2106 57.934C66.4406 57.956 65.8686 57.978 65.4946 58V57.307C66.3966 57.307 67.0346 57.142 67.4086 56.812C67.8046 56.482 68.0026 55.855 68.0026 54.931V44.107C68.0026 43.183 67.8046 42.556 67.4086 42.226C67.0346 41.896 66.3966 41.731 65.4946 41.731V41.038C65.8686 41.06 66.4406 41.093 67.2106 41.137C67.9806 41.159 68.7286 41.17 69.4546 41.17C70.1806 41.17 70.8846 41.159 71.5666 41.137C72.2706 41.093 72.7986 41.06 73.1506 41.038ZM79.1896 48.925V49.585H69.8836V48.925H79.1896ZM98.418 48.166V50.08H86.505V48.166H98.418ZM120.232 34.636C120.144 35.472 120.078 36.286 120.034 37.078C120.012 37.848 120.001 38.442 120.001 38.86C120.001 39.388 120.012 39.883 120.034 40.345C120.056 40.807 120.078 41.214 120.1 41.566H119.341C119.187 40.026 118.978 38.816 118.714 37.936C118.45 37.034 117.988 36.385 117.328 35.989C116.668 35.593 115.645 35.395 114.259 35.395H112.477V54.172C112.477 55.052 112.554 55.712 112.708 56.152C112.884 56.592 113.214 56.889 113.698 57.043C114.182 57.197 114.886 57.296 115.81 57.34V58C115.238 57.956 114.512 57.934 113.632 57.934C112.752 57.912 111.861 57.901 110.959 57.901C109.969 57.901 109.034 57.912 108.154 57.934C107.296 57.934 106.603 57.956 106.075 58V57.34C106.999 57.296 107.703 57.197 108.187 57.043C108.671 56.889 108.99 56.592 109.144 56.152C109.32 55.712 109.408 55.052 109.408 54.172V35.395H107.626C106.262 35.395 105.239 35.593 104.557 35.989C103.897 36.385 103.435 37.034 103.171 37.936C102.907 38.816 102.698 40.026 102.544 41.566H101.785C101.829 41.214 101.851 40.807 101.851 40.345C101.873 39.883 101.884 39.388 101.884 38.86C101.884 38.442 101.862 37.848 101.818 37.078C101.796 36.286 101.741 35.472 101.653 34.636C102.577 34.658 103.578 34.68 104.656 34.702C105.756 34.724 106.856 34.735 107.956 34.735C109.056 34.735 110.057 34.735 110.959 34.735C111.861 34.735 112.851 34.735 113.929 34.735C115.029 34.735 116.129 34.724 117.229 34.702C118.329 34.68 119.33 34.658 120.232 34.636ZM128.75 40.543C130.686 40.543 132.193 41.137 133.271 42.325C134.371 43.491 134.921 45.317 134.921 47.803H123.272L123.239 47.176H131.753C131.797 46.098 131.709 45.108 131.489 44.206C131.269 43.282 130.917 42.545 130.433 41.995C129.971 41.445 129.366 41.17 128.618 41.17C127.606 41.17 126.704 41.676 125.912 42.688C125.142 43.7 124.68 45.306 124.526 47.506L124.625 47.638C124.581 47.968 124.548 48.331 124.526 48.727C124.504 49.123 124.493 49.519 124.493 49.915C124.493 51.411 124.735 52.698 125.219 53.776C125.703 54.854 126.33 55.679 127.1 56.251C127.892 56.801 128.706 57.076 129.542 57.076C130.202 57.076 130.829 56.977 131.423 56.779C132.017 56.559 132.567 56.207 133.073 55.723C133.579 55.239 134.019 54.59 134.393 53.776L135.053 54.04C134.811 54.766 134.415 55.47 133.865 56.152C133.315 56.834 132.622 57.395 131.786 57.835C130.95 58.253 129.982 58.462 128.882 58.462C127.298 58.462 125.934 58.099 124.79 57.373C123.668 56.647 122.799 55.646 122.183 54.37C121.589 53.072 121.292 51.587 121.292 49.915C121.292 47.979 121.6 46.318 122.216 44.932C122.832 43.524 123.701 42.446 124.823 41.698C125.945 40.928 127.254 40.543 128.75 40.543ZM155.673 41.038V41.731C154.771 41.731 154.122 41.896 153.726 42.226C153.352 42.556 153.165 43.183 153.165 44.107V54.931C153.165 55.855 153.352 56.482 153.726 56.812C154.122 57.142 154.771 57.307 155.673 57.307V58C155.299 57.978 154.727 57.956 153.957 57.934C153.187 57.89 152.439 57.868 151.713 57.868C150.987 57.868 150.272 57.89 149.568 57.934C148.886 57.956 148.369 57.978 148.017 58V57.307C148.809 57.307 149.37 57.142 149.7 56.812C150.03 56.482 150.195 55.855 150.195 54.931V44.107C150.195 43.183 150.03 42.556 149.7 42.226C149.37 41.896 148.809 41.731 148.017 41.731V41.038C148.369 41.06 148.886 41.093 149.568 41.137C150.272 41.159 150.987 41.17 151.713 41.17C152.439 41.17 153.187 41.159 153.957 41.137C154.727 41.093 155.299 41.06 155.673 41.038ZM145.08 41.038V41.731C144.288 41.731 143.727 41.896 143.397 42.226C143.067 42.556 142.902 43.183 142.902 44.107V54.931C142.902 55.855 143.067 56.482 143.397 56.812C143.727 57.142 144.288 57.307 145.08 57.307V58C144.728 57.978 144.2 57.956 143.496 57.934C142.814 57.89 142.11 57.868 141.384 57.868C140.658 57.868 139.91 57.89 139.14 57.934C138.37 57.956 137.798 57.978 137.424 58V57.307C138.326 57.307 138.964 57.142 139.338 56.812C139.734 56.482 139.932 55.855 139.932 54.931V44.107C139.932 43.183 139.734 42.556 139.338 42.226C138.964 41.896 138.326 41.731 137.424 41.731V41.038C137.798 41.06 138.37 41.093 139.14 41.137C139.91 41.159 140.658 41.17 141.384 41.17C142.11 41.17 142.814 41.159 143.496 41.137C144.2 41.093 144.728 41.06 145.08 41.038ZM151.119 48.925V49.585H141.813V48.925H151.119ZM170.996 41.038C170.908 41.808 170.842 42.545 170.798 43.249C170.776 43.953 170.765 44.492 170.765 44.866C170.765 45.262 170.776 45.647 170.798 46.021C170.82 46.373 170.842 46.67 170.864 46.912H170.105C169.995 45.614 169.841 44.591 169.643 43.843C169.467 43.073 169.148 42.523 168.686 42.193C168.246 41.863 167.575 41.698 166.673 41.698C166.453 41.698 166.222 41.698 165.98 41.698C165.738 41.698 165.496 41.698 165.254 41.698C164.462 41.698 163.901 41.874 163.571 42.226C163.241 42.556 163.076 43.183 163.076 44.107V54.601C163.076 55.679 163.384 56.405 164 56.779C164.638 57.131 165.496 57.307 166.574 57.307V58C166.068 57.978 165.353 57.956 164.429 57.934C163.505 57.89 162.526 57.868 161.492 57.868C160.744 57.868 159.996 57.89 159.248 57.934C158.522 57.956 157.972 57.978 157.598 58V57.307C158.5 57.307 159.138 57.142 159.512 56.812C159.908 56.482 160.106 55.855 160.106 54.931V44.107C160.106 43.183 159.908 42.556 159.512 42.226C159.138 41.896 158.5 41.731 157.598 41.731V41.038C157.972 41.06 158.544 41.093 159.314 41.137C160.084 41.159 160.832 41.17 161.558 41.17C162.284 41.17 163.021 41.148 163.769 41.104C164.517 41.06 165.21 41.038 165.848 41.038H170.996ZM178.185 40.642V60.904C178.185 61.85 178.46 62.477 179.01 62.785C179.582 63.115 180.363 63.28 181.353 63.28V63.973C180.869 63.951 180.198 63.918 179.34 63.874C178.482 63.852 177.569 63.841 176.601 63.841C175.919 63.841 175.237 63.852 174.555 63.874C173.895 63.918 173.389 63.951 173.037 63.973V63.28C173.829 63.28 174.39 63.137 174.72 62.851C175.05 62.565 175.215 62.026 175.215 61.234V44.602C175.215 43.612 175.039 42.886 174.687 42.424C174.335 41.94 173.675 41.698 172.707 41.698V41.005C173.411 41.071 174.093 41.104 174.753 41.104C175.391 41.104 175.996 41.071 176.568 41.005C177.162 40.917 177.701 40.796 178.185 40.642ZM183.465 40.543C184.631 40.543 185.676 40.862 186.6 41.5C187.524 42.116 188.25 43.029 188.778 44.239C189.328 45.449 189.603 46.945 189.603 48.727C189.603 49.915 189.46 51.092 189.174 52.258C188.888 53.402 188.437 54.447 187.821 55.393C187.227 56.317 186.446 57.065 185.478 57.637C184.532 58.187 183.388 58.462 182.046 58.462C181.012 58.462 180.11 58.22 179.34 57.736C178.592 57.252 178.086 56.669 177.822 55.987L178.152 55.525C178.46 56.141 178.9 56.658 179.472 57.076C180.066 57.494 180.803 57.703 181.683 57.703C182.915 57.703 183.872 57.318 184.554 56.548C185.236 55.778 185.709 54.755 185.973 53.479C186.259 52.181 186.402 50.751 186.402 49.189C186.402 47.429 186.259 45.988 185.973 44.866C185.687 43.744 185.258 42.908 184.686 42.358C184.114 41.808 183.41 41.533 182.574 41.533C181.496 41.533 180.517 41.984 179.637 42.886C178.757 43.766 178.196 45.108 177.954 46.912L177.558 46.45C177.8 44.58 178.46 43.128 179.538 42.094C180.638 41.06 181.947 40.543 183.465 40.543ZM210.857 41.038V41.731C209.955 41.731 209.306 41.896 208.91 42.226C208.536 42.556 208.349 43.183 208.349 44.107V54.931C208.349 55.855 208.536 56.482 208.91 56.812C209.306 57.142 209.955 57.307 210.857 57.307V58C210.483 57.978 209.911 57.956 209.141 57.934C208.371 57.89 207.623 57.868 206.897 57.868C206.171 57.868 205.456 57.89 204.752 57.934C204.07 57.956 203.553 57.978 203.201 58V57.307C203.993 57.307 204.554 57.142 204.884 56.812C205.214 56.482 205.379 55.855 205.379 54.931V44.107C205.379 43.183 205.214 42.556 204.884 42.226C204.554 41.896 203.993 41.731 203.201 41.731V41.038C203.553 41.06 204.07 41.093 204.752 41.137C205.456 41.159 206.171 41.17 206.897 41.17C207.623 41.17 208.371 41.159 209.141 41.137C209.911 41.093 210.483 41.06 210.857 41.038ZM199.769 41.038V41.731C198.977 41.731 198.416 41.896 198.086 42.226C197.756 42.556 197.591 43.183 197.591 44.107V54.931C197.591 55.855 197.756 56.482 198.086 56.812C198.416 57.142 198.977 57.307 199.769 57.307V58C199.417 57.978 198.889 57.956 198.185 57.934C197.503 57.89 196.799 57.868 196.073 57.868C195.347 57.868 194.599 57.89 193.829 57.934C193.059 57.956 192.487 57.978 192.113 58V57.307C193.015 57.307 193.653 57.142 194.027 56.812C194.423 56.482 194.621 55.855 194.621 54.931V44.107C194.621 43.183 194.423 42.556 194.027 42.226C193.653 41.896 193.015 41.731 192.113 41.731V41.038C192.487 41.06 193.059 41.093 193.829 41.137C194.599 41.159 195.347 41.17 196.073 41.17C196.799 41.17 197.503 41.159 198.185 41.137C198.889 41.093 199.417 41.06 199.769 41.038ZM205.709 43.348L206.237 43.711L197.162 56.251L196.634 55.855L205.709 43.348Z" fill="white"/>
<path d="M107.019 74V73.86C107.178 73.8507 107.297 73.832 107.376 73.804C107.46 73.776 107.516 73.72 107.544 73.636C107.572 73.552 107.586 73.426 107.586 73.258V69.786C107.586 69.6133 107.572 69.4873 107.544 69.408C107.516 69.324 107.46 69.268 107.376 69.24C107.297 69.2073 107.178 69.1887 107.019 69.184V69.044C107.127 69.0487 107.262 69.0533 107.425 69.058C107.589 69.0627 107.75 69.065 107.908 69.065C108.09 69.065 108.261 69.0627 108.419 69.058C108.578 69.0533 108.706 69.0487 108.804 69.044V69.184C108.646 69.1887 108.524 69.2073 108.44 69.24C108.361 69.268 108.307 69.324 108.279 69.408C108.251 69.4873 108.237 69.6133 108.237 69.786V73.258C108.237 73.426 108.251 73.552 108.279 73.636C108.307 73.72 108.361 73.776 108.44 73.804C108.524 73.832 108.646 73.8507 108.804 73.86V74C108.706 73.9907 108.578 73.986 108.419 73.986C108.261 73.9813 108.09 73.979 107.908 73.979C107.75 73.979 107.589 73.9813 107.425 73.986C107.262 73.986 107.127 73.9907 107.019 74ZM104.093 74V73.86C104.252 73.8507 104.371 73.832 104.45 73.804C104.534 73.776 104.59 73.72 104.618 73.636C104.646 73.552 104.66 73.426 104.66 73.258V69.786C104.66 69.6133 104.646 69.4873 104.618 69.408C104.59 69.324 104.534 69.268 104.45 69.24C104.371 69.2073 104.252 69.1887 104.093 69.184V69.044C104.191 69.0487 104.32 69.0533 104.478 69.058C104.637 69.0627 104.807 69.065 104.989 69.065C105.153 69.065 105.314 69.0627 105.472 69.058C105.636 69.0533 105.771 69.0487 105.878 69.044V69.184C105.72 69.1887 105.598 69.2073 105.514 69.24C105.435 69.268 105.381 69.324 105.353 69.408C105.325 69.4873 105.311 69.6133 105.311 69.786V73.258C105.311 73.426 105.325 73.552 105.353 73.636C105.381 73.72 105.435 73.776 105.514 73.804C105.598 73.832 105.72 73.8507 105.878 73.86V74C105.771 73.9907 105.636 73.986 105.472 73.986C105.314 73.9813 105.153 73.979 104.989 73.979C104.807 73.979 104.637 73.9813 104.478 73.986C104.32 73.986 104.191 73.9907 104.093 74ZM105.066 71.578V71.438H107.831V71.578H105.066ZM110.26 74.049C110.069 74.049 109.903 74.014 109.763 73.944C109.623 73.8693 109.516 73.7667 109.441 73.636C109.371 73.5053 109.336 73.3537 109.336 73.181C109.336 72.9757 109.383 72.8077 109.476 72.677C109.574 72.5463 109.698 72.4413 109.847 72.362C109.996 72.2827 110.153 72.2173 110.316 72.166C110.484 72.11 110.643 72.0587 110.792 72.012C110.941 71.9607 111.063 71.9023 111.156 71.837C111.254 71.7717 111.303 71.6853 111.303 71.578V71.144C111.303 70.948 111.273 70.7987 111.212 70.696C111.156 70.5933 111.079 70.5257 110.981 70.493C110.883 70.4557 110.773 70.437 110.652 70.437C110.535 70.437 110.409 70.4533 110.274 70.486C110.143 70.5187 110.038 70.5863 109.959 70.689C110.048 70.7077 110.125 70.7543 110.19 70.829C110.255 70.9037 110.288 70.9993 110.288 71.116C110.288 71.2327 110.251 71.326 110.176 71.396C110.101 71.4613 110.006 71.494 109.889 71.494C109.754 71.494 109.653 71.452 109.588 71.368C109.527 71.2793 109.497 71.1813 109.497 71.074C109.497 70.9527 109.527 70.8547 109.588 70.78C109.649 70.7053 109.726 70.6353 109.819 70.57C109.926 70.4953 110.064 70.4323 110.232 70.381C110.405 70.325 110.598 70.297 110.813 70.297C111.004 70.297 111.168 70.3203 111.303 70.367C111.438 70.409 111.55 70.472 111.639 70.556C111.76 70.668 111.84 70.8057 111.877 70.969C111.914 71.1277 111.933 71.319 111.933 71.543V73.489C111.933 73.6057 111.949 73.6897 111.982 73.741C112.019 73.7923 112.075 73.818 112.15 73.818C112.201 73.818 112.25 73.8063 112.297 73.783C112.344 73.7597 112.4 73.7223 112.465 73.671L112.542 73.79C112.444 73.8647 112.351 73.9277 112.262 73.979C112.173 74.0257 112.054 74.049 111.905 74.049C111.77 74.049 111.658 74.0257 111.569 73.979C111.48 73.9323 111.413 73.8647 111.366 73.776C111.324 73.6827 111.303 73.566 111.303 73.426C111.177 73.636 111.025 73.7923 110.848 73.895C110.675 73.9977 110.479 74.049 110.26 74.049ZM110.512 73.769C110.666 73.769 110.808 73.7247 110.939 73.636C111.074 73.5473 111.196 73.4143 111.303 73.237V71.865C111.247 71.9443 111.165 72.012 111.058 72.068C110.951 72.1193 110.834 72.173 110.708 72.229C110.582 72.2803 110.461 72.3433 110.344 72.418C110.232 72.488 110.139 72.5813 110.064 72.698C109.989 72.8147 109.952 72.9663 109.952 73.153C109.952 73.3397 110.001 73.489 110.099 73.601C110.202 73.713 110.339 73.769 110.512 73.769ZM113.865 70.318V74.616C113.865 74.8167 113.924 74.9497 114.04 75.015C114.162 75.085 114.327 75.12 114.537 75.12V75.267C114.435 75.2623 114.292 75.2553 114.11 75.246C113.928 75.2413 113.735 75.239 113.529 75.239C113.385 75.239 113.24 75.2413 113.095 75.246C112.955 75.2553 112.848 75.2623 112.773 75.267V75.12C112.941 75.12 113.06 75.0897 113.13 75.029C113.2 74.9683 113.235 74.854 113.235 74.686V71.158C113.235 70.948 113.198 70.794 113.123 70.696C113.049 70.5933 112.909 70.542 112.703 70.542V70.395C112.853 70.409 112.997 70.416 113.137 70.416C113.273 70.416 113.401 70.409 113.522 70.395C113.648 70.3763 113.763 70.3507 113.865 70.318ZM114.985 70.297C115.233 70.297 115.454 70.3647 115.65 70.5C115.846 70.6307 116 70.8243 116.112 71.081C116.229 71.3377 116.287 71.655 116.287 72.033C116.287 72.285 116.257 72.5347 116.196 72.782C116.136 73.0247 116.04 73.2463 115.909 73.447C115.783 73.643 115.618 73.8017 115.412 73.923C115.212 74.0397 114.969 74.098 114.684 74.098C114.465 74.098 114.274 74.0467 114.11 73.944C113.952 73.8413 113.844 73.7177 113.788 73.573L113.858 73.475C113.924 73.6057 114.017 73.7153 114.138 73.804C114.264 73.8927 114.421 73.937 114.607 73.937C114.869 73.937 115.072 73.8553 115.216 73.692C115.361 73.5287 115.461 73.3117 115.517 73.041C115.578 72.7657 115.608 72.4623 115.608 72.131C115.608 71.7577 115.578 71.452 115.517 71.214C115.457 70.976 115.366 70.7987 115.244 70.682C115.123 70.5653 114.974 70.507 114.796 70.507C114.568 70.507 114.36 70.6027 114.173 70.794C113.987 70.9807 113.868 71.2653 113.816 71.648L113.732 71.55C113.784 71.1533 113.924 70.8453 114.152 70.626C114.386 70.4067 114.663 70.297 114.985 70.297ZM118.5 70.402V70.549C118.308 70.549 118.171 70.584 118.087 70.654C118.007 70.724 117.968 70.857 117.968 71.053V73.349C117.968 73.5357 117.989 73.6663 118.031 73.741C118.077 73.8157 118.157 73.853 118.269 73.853C118.521 73.853 118.712 73.811 118.843 73.727C118.978 73.643 119.071 73.531 119.123 73.391C119.174 73.251 119.2 73.1017 119.2 72.943C119.2 72.621 119.109 72.3877 118.927 72.243C118.749 72.0937 118.453 72.019 118.038 72.019C117.958 72.019 117.877 72.019 117.793 72.019C117.709 72.019 117.627 72.019 117.548 72.019L117.534 71.9C117.688 71.9 117.839 71.9 117.989 71.9C118.143 71.9 118.297 71.9 118.451 71.9C118.959 71.9 119.321 71.9957 119.536 72.187C119.75 72.3737 119.858 72.6117 119.858 72.901C119.858 73.0737 119.809 73.244 119.711 73.412C119.617 73.58 119.459 73.72 119.235 73.832C119.015 73.944 118.719 74 118.346 74C118.248 74 118.136 73.9953 118.01 73.986C117.884 73.9767 117.758 73.972 117.632 73.972C117.487 73.972 117.333 73.9767 117.17 73.986C117.006 73.9907 116.885 73.9953 116.806 74V73.853C116.997 73.853 117.132 73.818 117.212 73.748C117.296 73.678 117.338 73.545 117.338 73.349V71.053C117.338 70.857 117.303 70.724 117.233 70.654C117.163 70.584 117.044 70.549 116.876 70.549V70.402C116.95 70.4067 117.06 70.4137 117.205 70.423C117.354 70.4277 117.506 70.43 117.66 70.43C117.814 70.43 117.972 70.4277 118.136 70.423C118.299 70.4137 118.42 70.4067 118.5 70.402ZM121.664 70.402V70.549C121.496 70.549 121.377 70.584 121.307 70.654C121.237 70.724 121.202 70.857 121.202 71.053V73.349C121.202 73.545 121.241 73.678 121.321 73.748C121.405 73.818 121.542 73.853 121.734 73.853V74C121.654 73.9953 121.531 73.9907 121.363 73.986C121.195 73.9767 121.034 73.972 120.88 73.972C120.74 73.972 120.595 73.9767 120.446 73.986C120.296 73.9907 120.184 73.9953 120.11 74V73.853C120.278 73.853 120.397 73.818 120.467 73.748C120.537 73.678 120.572 73.545 120.572 73.349V71.053C120.572 70.857 120.537 70.724 120.467 70.654C120.397 70.584 120.278 70.549 120.11 70.549V70.402C120.184 70.4067 120.296 70.4137 120.446 70.423C120.595 70.4277 120.74 70.43 120.88 70.43C121.034 70.43 121.183 70.4277 121.328 70.423C121.477 70.4137 121.589 70.4067 121.664 70.402ZM125.995 70.402V70.549C125.804 70.549 125.666 70.584 125.582 70.654C125.503 70.724 125.463 70.857 125.463 71.053V73.349C125.463 73.545 125.503 73.678 125.582 73.748C125.666 73.818 125.804 73.853 125.995 73.853V74C125.916 73.9953 125.795 73.9907 125.631 73.986C125.468 73.9767 125.309 73.972 125.155 73.972C125.001 73.972 124.85 73.9767 124.7 73.986C124.556 73.9907 124.446 73.9953 124.371 74V73.853C124.539 73.853 124.658 73.818 124.728 73.748C124.798 73.678 124.833 73.545 124.833 73.349V71.053C124.833 70.857 124.798 70.724 124.728 70.654C124.658 70.584 124.539 70.549 124.371 70.549V70.402C124.446 70.4067 124.556 70.4137 124.7 70.423C124.85 70.4277 125.001 70.43 125.155 70.43C125.309 70.43 125.468 70.4277 125.631 70.423C125.795 70.4137 125.916 70.4067 125.995 70.402ZM123.748 70.402V70.549C123.58 70.549 123.461 70.584 123.391 70.654C123.321 70.724 123.286 70.857 123.286 71.053V73.349C123.286 73.545 123.321 73.678 123.391 73.748C123.461 73.818 123.58 73.853 123.748 73.853V74C123.674 73.9953 123.562 73.9907 123.412 73.986C123.268 73.9767 123.118 73.972 122.964 73.972C122.81 73.972 122.652 73.9767 122.488 73.986C122.325 73.9907 122.204 73.9953 122.124 74V73.853C122.316 73.853 122.451 73.818 122.53 73.748C122.614 73.678 122.656 73.545 122.656 73.349V71.053C122.656 70.857 122.614 70.724 122.53 70.654C122.451 70.584 122.316 70.549 122.124 70.549V70.402C122.204 70.4067 122.325 70.4137 122.488 70.423C122.652 70.4277 122.81 70.43 122.964 70.43C123.118 70.43 123.268 70.4277 123.412 70.423C123.562 70.4137 123.674 70.4067 123.748 70.402ZM125.029 72.075V72.215H123.055V72.075H125.029Z" fill="white"/>
</g>
<defs>
<clipPath id="clip0_36_56">
<rect width="239" height="83" fill="white"/>
</clipPath>
</defs>
</svg>
