<svg width="239" height="83" viewBox="0 0 239 83" fill="none" xmlns="http://www.w3.org/2000/svg">
<g clip-path="url(#clip0_80_43)">
<mask id="mask0_80_43" style="mask-type:luminance" maskUnits="userSpaceOnUse" x="0" y="0" width="239" height="83">
<path d="M239 0H0V83H239V0Z" fill="white"/>
</mask>
<g mask="url(#mask0_80_43)">
<path d="M89.6983 50.4526L89.5387 51L89 48L89.5387 45L89.6983 45.5474L89.2544 48L89.6983 50.4526ZM90.2718 50.4526L90.1122 51L89.5686 48L90.1122 45L90.2718 45.5474L89.8279 48L90.2718 50.4526ZM137.426 48L136.883 51L136.728 50.4526L137.172 48L136.728 45.5474L136.883 45L137.426 48ZM138 48L137.456 51L137.297 50.4526L137.741 48L137.297 45.5474L137.456 45L138 48Z" fill="#FEFAEF"/>
<path d="M101.6 15.1002C101.787 15.0202 101.92 15.0735 102 15.2602C102.08 15.4469 102.027 15.5802 101.84 15.6602C101.027 16.0069 99.2208 16.5269 96.4208 17.2202C94.7275 18.7269 92.8875 19.7202 90.9008 20.2002C90.1008 20.3869 89.4741 20.4335 89.0208 20.3402C88.5541 20.2469 88.3808 20.0269 88.5008 19.6802C88.7008 19.1202 89.5208 18.5802 90.9608 18.0602C91.8808 17.7402 93.4408 17.3202 95.6408 16.8002C96.6675 15.8802 97.5275 14.8602 98.2208 13.7402C99.4608 11.6735 99.9473 9.67353 99.6803 7.74023C99.5475 6.84693 99.2541 6.12693 98.8008 5.58023C98.3208 5.00693 97.7075 4.68693 96.9608 4.62023C94.6941 4.42023 92.0541 6.17353 89.0408 9.88023C88.4141 12.6535 87.0075 16.2802 84.8208 20.7602C83.1141 24.2669 81.4341 27.3269 79.7808 29.9402C79.2341 30.8069 78.8608 31.3469 78.6608 31.5602C78.4741 31.7469 78.2941 31.7935 78.1208 31.7002C78.0541 31.6469 78.0075 31.6002 77.9808 31.5602V31.5202L77.9608 31.4802C77.9208 31.3202 77.9675 30.9602 78.1008 30.4002C78.1541 30.2002 78.2075 29.9869 78.2608 29.7602C78.2875 29.6669 78.3141 29.5802 78.3408 29.5002C78.3675 29.4202 78.3875 29.3535 78.4008 29.3002C79.7075 24.7402 81.5408 20.3135 83.9008 16.0202C85.3141 13.5135 86.8541 11.2802 88.5208 9.32023C88.7075 8.48023 88.7875 7.74693 88.7608 7.12023C88.7208 5.96023 88.2208 5.22023 87.2608 4.90023C86.4075 4.62023 85.4008 4.72023 84.2408 5.20023C82.3608 5.97353 80.5941 7.39353 78.9408 9.46023C77.2875 11.5269 76.6008 13.1802 76.8808 14.4202C77.0008 14.9802 77.4008 15.2535 78.0808 15.2402C78.7075 15.2269 79.2541 15.0002 79.7208 14.5602C79.8675 14.4269 80.0141 14.4335 80.1608 14.5802C80.2941 14.7269 80.2875 14.8669 80.1408 15.0002C79.5541 15.5469 78.8341 15.8269 77.9808 15.8402C77.0208 15.8669 76.4075 15.4669 76.1408 14.6402C75.6741 13.2002 76.3675 11.3402 78.2208 9.06023C80.0075 6.87353 81.9275 5.38023 83.9808 4.58023C85.3808 4.03353 86.5941 3.96023 87.6208 4.36023C88.7275 4.80023 89.3075 5.71353 89.3608 7.10023C89.3875 7.51353 89.3675 7.96023 89.3008 8.44023C92.1675 5.28023 94.7408 3.80693 97.0208 4.02023C97.9275 4.11353 98.6741 4.49353 99.2608 5.16023C99.8203 5.78693 100.187 6.60023 100.36 7.60023C100.734 9.76023 100.26 11.9535 98.9408 14.1802C98.4875 14.9402 97.9275 15.6802 97.2608 16.4002C99.2875 15.9202 100.734 15.4869 101.6 15.1002ZM79.2808 29.6202C80.6408 27.4602 82.1275 24.7469 83.7408 21.4802C85.8075 17.3469 87.2475 13.9069 88.0608 11.1602C86.8475 12.7869 85.7141 14.5469 84.6608 16.4402C82.1808 20.8535 80.2941 25.2002 79.0008 29.4802L78.7208 30.4602C78.9208 30.1935 79.1075 29.9135 79.2808 29.6202ZM89.8208 19.7002C91.2875 19.5535 92.8608 18.8802 94.5408 17.6802C91.3808 18.4669 89.5941 19.1402 89.1808 19.7002C89.2741 19.7135 89.3875 19.7202 89.5208 19.7202C89.6275 19.7202 89.7275 19.7135 89.8208 19.7002ZM106.013 18.9402C106.093 19.0735 106.053 19.2202 105.893 19.3802C105.68 19.5802 105.327 19.8469 104.833 20.1802L104.673 20.2802L104.493 20.4002C104.36 20.4935 104.233 20.5735 104.113 20.6402C103.78 20.8269 103.467 20.9735 103.173 21.0802C102.36 21.4002 101.567 21.4802 100.793 21.3202C100.247 21.2002 99.8533 20.9202 99.6133 20.4802C99.4136 20.0935 99.3803 19.7069 99.5136 19.3202C99.3136 19.4802 99.1536 19.6002 99.0336 19.6802C98.9936 19.7069 98.9336 19.7202 98.8536 19.7202C98.7869 19.7069 98.7269 19.6735 98.6736 19.6202C98.6336 19.5669 98.6203 19.5002 98.6336 19.4202C98.6469 19.3402 98.6736 19.2802 98.7136 19.2402C98.7536 19.2002 98.8269 19.1335 98.9336 19.0402L99.0136 18.9602L99.0936 18.9002C99.1603 18.8335 99.2269 18.7735 99.2936 18.7202C99.3203 18.7069 99.4003 18.6535 99.5336 18.5602L99.6133 18.5202L99.7133 18.4402L99.9333 18.3002C100.333 17.6469 100.86 17.1269 101.513 16.7402C102.22 16.3002 102.873 16.1602 103.473 16.3202C103.74 16.3869 103.927 16.5202 104.033 16.7202C104.287 17.1335 103.873 17.5669 102.793 18.0202C102.607 18.1002 102.393 18.1802 102.153 18.2602L101.833 18.3802L101.533 18.4802C101.067 18.6402 100.787 18.7535 100.693 18.8202C100.413 19.3135 100.333 19.7202 100.453 20.0402C100.56 20.3469 100.813 20.5402 101.213 20.6202C102.12 20.8202 103.173 20.5335 104.373 19.7602C104.707 19.5602 105.093 19.2802 105.533 18.9202C105.613 18.8535 105.7 18.8269 105.793 18.8402C105.887 18.8402 105.96 18.8735 106.013 18.9402ZM103.433 17.0202L103.333 16.9802C103.293 16.9802 103.247 16.9735 103.193 16.9602C103.06 16.9602 102.92 16.9735 102.773 17.0002C102.36 17.1069 101.907 17.3802 101.413 17.8202L101.253 17.9802C101.6 17.8602 101.947 17.7269 102.293 17.5802C102.72 17.3935 103.093 17.2069 103.413 17.0202H103.433ZM112.478 18.9402C112.558 19.0735 112.518 19.2202 112.358 19.3802C112.145 19.5802 111.791 19.8469 111.298 20.1802L111.138 20.2802L110.958 20.4002C110.825 20.4935 110.698 20.5735 110.578 20.6402C110.245 20.8269 109.931 20.9735 109.638 21.0802C108.825 21.4002 108.031 21.4802 107.258 21.3202C106.711 21.2002 106.318 20.9202 106.078 20.4802C105.878 20.0935 105.845 19.7069 105.978 19.3202C105.778 19.4802 105.618 19.6002 105.498 19.6802C105.458 19.7069 105.398 19.7202 105.318 19.7202C105.251 19.7069 105.191 19.6735 105.138 19.6202C105.098 19.5669 105.085 19.5002 105.098 19.4202C105.111 19.3402 105.138 19.2802 105.178 19.2402C105.218 19.2002 105.291 19.1335 105.398 19.0402L105.478 18.9602L105.558 18.9002C105.625 18.8335 105.691 18.7735 105.758 18.7202C105.798 18.6935 105.911 18.6069 106.098 18.4602C106.151 18.4202 106.238 18.3469 106.358 18.2402L106.678 18.0002C107.238 17.5735 107.558 17.3269 107.638 17.2602C107.651 17.2469 107.678 17.2269 107.718 17.2002L107.798 17.1402L107.858 17.0802C107.991 16.9735 108.111 16.8869 108.218 16.8202C108.525 16.5935 108.711 16.4935 108.778 16.5202C109.471 16.0535 110.038 16.0335 110.478 16.4602C110.691 16.6735 110.678 16.8802 110.438 17.0802C110.171 17.3069 109.718 17.3535 109.078 17.2202C109.038 17.2469 108.938 17.3002 108.778 17.3802C108.685 17.4202 108.611 17.4602 108.558 17.5002C108.465 17.5535 108.378 17.6002 108.298 17.6402C107.845 17.9335 107.485 18.3002 107.218 18.7402C106.911 19.2469 106.805 19.6735 106.898 20.0202C106.991 20.3269 107.245 20.5269 107.658 20.6202C108.551 20.8335 109.611 20.5469 110.838 19.7602C111.171 19.5602 111.558 19.2802 111.998 18.9202C112.078 18.8535 112.165 18.8269 112.258 18.8402C112.351 18.8402 112.425 18.8735 112.478 18.9402ZM123.603 18.9402C123.696 19.0735 123.663 19.2202 123.503 19.3802L122.723 19.9802C122.496 20.1402 122.236 20.3069 121.943 20.4802C121.583 20.7069 121.243 20.8935 120.923 21.0402C120.056 21.4402 119.463 21.5202 119.143 21.2802C118.929 21.1202 118.903 20.8402 119.063 20.4402C119.116 20.2802 119.216 20.0735 119.363 19.8202L119.543 19.4802L119.763 19.1002C119.989 18.6869 120.156 18.3469 120.263 18.0802C120.303 17.9869 120.336 17.9002 120.363 17.8202C120.389 17.7669 120.403 17.7269 120.403 17.7002C119.763 17.6335 118.936 17.9802 117.923 18.7402C117.536 19.0335 117.136 19.3802 116.723 19.7802C116.389 20.1002 116.083 20.4269 115.803 20.7602C115.669 20.9202 115.523 20.9402 115.363 20.8202C115.189 20.7002 115.176 20.5202 115.323 20.2802L115.363 20.2202L115.443 20.1002C115.496 20.0069 115.556 19.9135 115.623 19.8202C115.783 19.5402 115.929 19.2869 116.063 19.0602C116.463 18.3269 116.643 17.8402 116.603 17.6002C116.389 17.5735 116.076 17.6802 115.663 17.9202C115.343 18.1069 114.983 18.3669 114.583 18.7002C114.276 18.9669 113.943 19.2802 113.583 19.6402C113.436 19.7735 113.289 19.9202 113.143 20.0802C113.036 20.1869 112.923 20.3002 112.803 20.4202L112.503 20.7602C112.423 20.8402 112.323 20.8402 112.203 20.7602C112.069 20.6935 112.029 20.6002 112.083 20.4802C112.083 20.3869 112.349 19.8602 112.883 18.9002L112.803 18.9802L112.703 19.0602C112.636 19.1269 112.596 19.1669 112.583 19.1802C112.289 19.4202 112.076 19.5869 111.943 19.6802C111.809 19.7602 111.683 19.7402 111.563 19.6202C111.523 19.5669 111.509 19.5002 111.523 19.4202C111.536 19.3535 111.563 19.2935 111.603 19.2402C111.643 19.2002 111.769 19.0935 111.983 18.9202C112.089 18.8269 112.189 18.7402 112.283 18.6602C112.403 18.5535 112.523 18.4469 112.643 18.3402C112.843 18.1535 113.069 17.9202 113.323 17.6402L113.463 17.5002L113.583 17.3602C113.676 17.2535 113.756 17.1735 113.823 17.1202C114.103 16.8269 114.316 16.7469 114.463 16.8802C114.569 16.9735 114.589 17.1002 114.523 17.2602C114.469 17.3935 114.216 17.8469 113.763 18.6202C114.843 17.6202 115.736 17.0869 116.443 17.0202C117.203 16.9935 117.383 17.4935 116.983 18.5202C117.849 17.7602 118.683 17.2669 119.483 17.0402C120.123 16.8669 120.589 16.8869 120.883 17.1002C121.229 17.3535 121.209 17.8669 120.823 18.6402C120.703 18.8669 120.516 19.1802 120.263 19.5802L120.123 19.8202L119.983 20.0402C119.889 20.1869 119.816 20.3135 119.763 20.4202L119.683 20.5802C119.656 20.6335 119.643 20.6802 119.643 20.7202C119.656 20.8002 119.776 20.8069 120.003 20.7402C120.283 20.6602 120.629 20.5135 121.043 20.3002C121.203 20.2202 121.369 20.1335 121.543 20.0402C121.663 19.9602 121.789 19.8802 121.923 19.8002C122.376 19.5069 122.776 19.2135 123.123 18.9202C123.203 18.8535 123.296 18.8269 123.403 18.8402C123.496 18.8402 123.563 18.8735 123.603 18.9402ZM130.116 18.9402C130.209 19.0735 130.176 19.2202 130.016 19.3802L129.876 19.5002L129.716 19.6202C129.582 19.7269 129.456 19.8202 129.336 19.9002C128.389 20.6069 127.396 20.8135 126.356 20.5202C125.542 21.1469 124.836 21.3002 124.236 20.9802C123.636 20.6735 123.462 20.0602 123.716 19.1402L123.496 19.3202L123.016 19.6802C122.962 19.7069 122.902 19.7202 122.836 19.7202C122.756 19.7069 122.689 19.6735 122.636 19.6202C122.596 19.5669 122.582 19.5002 122.596 19.4202C122.609 19.3535 122.636 19.2935 122.676 19.2402C122.716 19.2135 122.769 19.1669 122.836 19.1002L122.956 19.0002L123.076 18.9002C123.316 18.7002 123.556 18.4869 123.796 18.2602L124.516 17.5402C124.662 17.4202 124.796 17.4202 124.916 17.5402C125.329 16.7669 125.929 16.2935 126.716 16.1202C127.542 15.9335 128.029 16.2602 128.176 17.1002C128.282 17.7535 128.049 18.4869 127.476 19.3002C127.262 19.6069 127.076 19.8402 126.916 20.0002C127.182 20.0535 127.462 20.0535 127.756 20.0002C128.142 19.9202 128.536 19.7402 128.936 19.4602C129.202 19.2602 129.436 19.0802 129.636 18.9202C129.716 18.8535 129.809 18.8269 129.916 18.8402C130.009 18.8402 130.076 18.8735 130.116 18.9402ZM126.116 19.8402C126.636 19.3602 127.022 18.8069 127.276 18.1802C127.542 17.5402 127.542 17.1269 127.276 16.9402L127.236 16.9202L127.176 16.8802C127.109 16.8669 127.036 16.8535 126.956 16.8402C126.449 16.8135 126.016 17.0469 125.656 17.5402C125.282 18.0469 125.202 18.5735 125.416 19.1202C125.549 19.4402 125.782 19.6802 126.116 19.8402ZM124.776 20.5202C125.042 20.5069 125.322 20.4069 125.616 20.2202C125.376 20.0469 125.182 19.8602 125.036 19.6602C124.756 19.2469 124.636 18.8135 124.676 18.3602C124.289 19.0135 124.136 19.5602 124.216 20.0002C124.296 20.3735 124.482 20.5469 124.776 20.5202ZM137.578 18.9402C137.672 19.0735 137.638 19.2202 137.478 19.3802L137.318 19.5002L137.138 19.6402C136.992 19.7602 136.858 19.8669 136.738 19.9602L136.598 20.0602L136.438 20.1802L136.098 20.4002C135.805 20.5735 135.525 20.7135 135.258 20.8202C134.538 21.1135 133.845 21.1535 133.178 20.9402C132.512 21.3802 131.965 21.5402 131.538 21.4202C131.312 21.3535 131.152 21.2269 131.058 21.0402C130.978 20.8669 130.985 20.6869 131.078 20.5002C131.305 20.0469 131.865 19.9335 132.758 20.1602C132.865 20.1735 132.992 20.2069 133.138 20.2602C133.698 19.8069 134.132 19.2735 134.438 18.6602C134.745 18.0469 134.725 17.7269 134.378 17.7002C133.312 17.6869 132.058 18.5802 130.618 20.3802C129.685 22.6335 128.878 24.4535 128.198 25.8402C127.252 27.7735 126.612 28.7602 126.278 28.8002H126.158C125.905 28.7335 125.985 28.0735 126.398 26.8202C127.452 23.7535 128.765 21.3069 130.338 19.4802L130.498 19.1202L130.638 18.7802L130.658 18.7402V18.7002C130.392 18.9535 130.152 19.1669 129.938 19.3402C129.792 19.4602 129.645 19.5735 129.498 19.6802C129.445 19.7069 129.385 19.7202 129.318 19.7202C129.238 19.7069 129.172 19.6735 129.118 19.6202C129.078 19.5669 129.065 19.5002 129.078 19.4202C129.092 19.3535 129.118 19.2935 129.158 19.2402C129.198 19.2002 129.332 19.0869 129.558 18.9002C129.665 18.8069 129.772 18.7135 129.878 18.6202C130.012 18.5002 130.145 18.3802 130.278 18.2602C130.585 17.9802 130.945 17.5535 131.358 16.9802C131.465 16.8469 131.592 16.8269 131.738 16.9202C131.885 17.0135 131.925 17.1335 131.858 17.2802L131.838 17.3602L131.798 17.4402C131.772 17.5335 131.745 17.6135 131.718 17.6802C131.625 17.9202 131.532 18.1469 131.438 18.3602C132.158 17.7335 132.845 17.3069 133.498 17.0802C134.098 16.8669 134.572 16.8535 134.918 17.0402C135.252 17.2269 135.385 17.5669 135.318 18.0602C135.238 18.5935 134.912 19.2069 134.338 19.9002C134.192 20.0869 134.032 20.2535 133.858 20.4002C134.698 20.3735 135.525 20.0735 136.338 19.5002C136.578 19.3402 136.832 19.1469 137.098 18.9202C137.178 18.8535 137.272 18.8269 137.378 18.8402C137.472 18.8402 137.538 18.8735 137.578 18.9402ZM126.738 27.5002C127.232 26.6602 127.985 25.0669 128.998 22.7202C127.958 24.4402 127.205 26.0335 126.738 27.5002ZM131.898 20.8602C132.072 20.8335 132.238 20.7869 132.398 20.7202C132.265 20.6935 132.158 20.6802 132.078 20.6802H131.958L131.818 20.7002C131.698 20.7135 131.625 20.7469 131.598 20.8002C131.612 20.8135 131.652 20.8269 131.718 20.8402C131.785 20.8535 131.845 20.8602 131.898 20.8602ZM145.118 18.9402C145.211 19.0735 145.178 19.2202 145.018 19.3802C143.991 20.3002 143.011 20.8669 142.078 21.0802C141.118 21.3202 140.718 21.0269 140.878 20.2002C140.238 20.7069 139.631 20.9869 139.058 21.0402C138.431 21.0935 137.998 20.9402 137.758 20.5802C137.544 20.2469 137.531 19.8202 137.718 19.3002C137.518 19.4735 137.351 19.6002 137.218 19.6802C137.164 19.7069 137.104 19.7202 137.038 19.7202C136.971 19.7069 136.911 19.6735 136.858 19.6202C136.804 19.5669 136.784 19.5002 136.798 19.4202C136.811 19.3535 136.844 19.2935 136.898 19.2402C136.938 19.2002 137.011 19.1335 137.118 19.0402L137.198 18.9602L137.278 18.9002C137.344 18.8335 137.411 18.7735 137.478 18.7202C137.504 18.7069 137.538 18.6869 137.578 18.6602C137.618 18.6202 137.664 18.5802 137.718 18.5402C137.864 18.4335 137.998 18.3335 138.118 18.2402C138.478 17.9869 138.711 17.8335 138.818 17.7802C139.538 17.3935 140.171 17.1602 140.718 17.0802C141.238 17.0002 141.751 17.0002 142.258 17.0802C142.444 17.1069 142.531 17.2135 142.518 17.4002C142.491 17.6002 142.384 17.6935 142.198 17.6802C141.278 17.6269 140.371 17.8535 139.478 18.3602C138.878 18.7735 138.511 19.1735 138.378 19.5602C138.258 19.9069 138.351 20.1402 138.658 20.2602C138.978 20.3802 139.398 20.3202 139.918 20.0802C140.531 19.7869 141.144 19.2869 141.758 18.5802C142.064 18.1269 142.371 17.7269 142.678 17.3802C142.811 17.2469 142.951 17.2402 143.098 17.3602C143.231 17.4802 143.244 17.6135 143.138 17.7602L143.118 17.8002L143.098 17.8402C142.951 18.0269 142.738 18.3269 142.458 18.7402C142.124 19.2469 141.871 19.6535 141.698 19.9602C141.444 20.4402 141.538 20.6202 141.978 20.5002C142.151 20.4602 142.358 20.3802 142.598 20.2602C142.784 20.1669 142.971 20.0669 143.158 19.9602C143.424 19.8135 143.704 19.6269 143.998 19.4002C144.118 19.3202 144.238 19.2335 144.358 19.1402C144.451 19.0735 144.544 19.0002 144.638 18.9202C144.718 18.8535 144.804 18.8269 144.898 18.8402C144.991 18.8402 145.064 18.8735 145.118 18.9402ZM149.819 17.8602C150.086 17.4335 150.319 17.1135 150.519 16.9002C150.639 16.7669 150.773 16.7535 150.919 16.8602C151.066 16.9802 151.093 17.1135 150.999 17.2602C150.986 17.2735 150.966 17.3002 150.939 17.3402L150.899 17.4002L150.859 17.4802C150.779 17.6269 150.699 17.7669 150.619 17.9002C150.379 18.3002 150.166 18.6669 149.979 19.0002C149.419 20.0135 149.206 20.5469 149.339 20.6002C149.606 20.6935 150.066 20.5535 150.719 20.1802C151.319 19.8602 151.939 19.4402 152.579 18.9202C152.659 18.8535 152.753 18.8269 152.859 18.8402C152.953 18.8402 153.019 18.8735 153.059 18.9402C153.153 19.0735 153.119 19.2202 152.959 19.3802C152.746 19.5669 152.393 19.8335 151.899 20.1802C151.206 20.6735 150.613 21.0135 150.119 21.2002C149.479 21.4269 149.019 21.3869 148.739 21.0802C148.433 20.7469 148.506 20.1669 148.959 19.3402C147.759 20.1535 146.899 20.4535 146.379 20.2402C146.046 20.1069 145.893 19.8135 145.919 19.3602C145.866 19.4269 145.819 19.5002 145.779 19.5802L145.159 20.7602C145.026 20.8135 144.913 20.7935 144.819 20.7002C144.726 20.5935 144.706 20.4535 144.759 20.2802C144.813 20.1069 145.019 19.7002 145.379 19.0602C145.206 19.2069 145.046 19.3402 144.899 19.4602C144.846 19.5002 144.786 19.5402 144.719 19.5802L144.579 19.6802C144.539 19.7069 144.479 19.7202 144.399 19.7202C144.333 19.7069 144.273 19.6735 144.219 19.6202C144.179 19.5669 144.166 19.5002 144.179 19.4202C144.193 19.3535 144.219 19.2935 144.259 19.2402C144.299 19.2002 144.386 19.1269 144.519 19.0202C144.586 18.9535 144.646 18.9002 144.699 18.8602C144.779 18.7935 144.853 18.7269 144.919 18.6602C144.946 18.6469 144.973 18.6202 144.999 18.5802C145.039 18.5535 145.086 18.5135 145.139 18.4602C145.259 18.3535 145.393 18.2335 145.539 18.1002C145.939 17.7135 146.326 17.3135 146.699 16.9002C146.833 16.7669 146.973 16.7602 147.119 16.8802C147.266 17.0002 147.286 17.1269 147.179 17.2602C147.086 17.4069 146.999 17.5535 146.919 17.7002L146.959 17.6602C146.626 18.5269 146.493 19.1802 146.559 19.6202C146.599 19.7135 146.753 19.7335 147.019 19.6802C147.313 19.6002 147.666 19.4402 148.079 19.2002C148.639 18.8535 149.219 18.4069 149.819 17.8602Z" fill="#FEFAEF"/>
<path d="M83 74.98V70H85.952V70.792H83.864V74.98H83ZM85.929 74.5C85.929 74.176 86.205 73.9 86.529 73.9C86.853 73.9 87.129 74.176 87.129 74.5C87.129 74.824 86.853 75.1 86.529 75.1C86.205 75.1 85.929 74.824 85.929 74.5Z" fill="white"/>
</g>
<path d="M93.5071 55.4C93.3751 55.2387 93.2578 55.0993 93.1551 54.982C93.0524 54.8793 92.9791 54.7693 92.9351 54.652C92.9058 54.5493 92.9058 54.4393 92.9351 54.322C92.9351 54.3513 92.9644 54.2633 93.0231 54.058C93.0818 53.8673 93.1478 53.618 93.2211 53.31C93.3091 53.0167 93.3751 52.7307 93.4191 52.452L93.7931 50.802C93.7344 50.6993 93.7418 50.5893 93.8151 50.472C93.9031 50.34 93.9984 50.208 94.1011 50.076L95.5751 49.834C95.8098 49.7753 96.0738 49.6213 96.3671 49.372C96.6751 49.1227 96.9684 48.844 97.2471 48.536C97.5258 48.228 97.7531 47.9567 97.9291 47.722C98.4278 47.0473 98.8458 46.3947 99.1831 45.764C99.5351 45.1187 99.8431 44.4587 100.107 43.784C100.386 43.0947 100.65 42.3613 100.899 41.584C101.163 40.792 101.456 39.912 101.779 38.944C101.911 38.8267 102.006 38.614 102.065 38.306C102.124 37.998 102.153 37.7707 102.153 37.624C102.021 37.5653 101.911 37.5507 101.823 37.58C101.735 37.6093 101.632 37.6093 101.515 37.58C101.28 37.4627 101.112 37.2867 101.009 37.052C100.921 36.8173 100.906 36.6047 100.965 36.414C101.038 36.3993 101.119 36.4067 101.207 36.436C101.295 36.4507 101.405 36.458 101.537 36.458C101.669 36.458 101.823 36.4433 101.999 36.414C102.146 36.3847 102.373 36.348 102.681 36.304C102.989 36.26 103.275 36.216 103.539 36.172C103.818 36.128 103.979 36.0913 104.023 36.062C104.639 36.0033 105.182 35.9593 105.651 35.93C106.135 35.886 106.597 35.8567 107.037 35.842C107.477 35.8127 107.954 35.798 108.467 35.798C108.716 35.798 108.944 35.8713 109.149 36.018C109.369 36.1647 109.501 36.3187 109.545 36.48C109.56 36.6413 109.508 36.9567 109.391 37.426C109.274 37.8953 109.12 38.4527 108.929 39.098C108.738 39.7433 108.526 40.4253 108.291 41.144C108.056 41.848 107.807 42.5373 107.543 43.212C107.294 43.8867 107.059 44.4807 106.839 44.994C106.722 45.3607 106.582 45.742 106.421 46.138C106.274 46.534 106.12 46.9447 105.959 47.37C105.9 47.6047 105.827 47.8467 105.739 48.096C105.666 48.3307 105.585 48.5947 105.497 48.888C105.526 48.9907 105.57 49.064 105.629 49.108C105.688 49.1373 105.812 49.1373 106.003 49.108C106.384 49.0347 106.612 48.9833 106.685 48.954C106.773 48.91 106.861 48.844 106.949 48.756C106.964 48.7413 107.008 48.734 107.081 48.734C107.169 48.734 107.242 48.7487 107.301 48.778C107.609 48.8807 107.844 49.0347 108.005 49.24C108.166 49.4307 108.247 49.5847 108.247 49.702C108.218 50.1713 108.1 50.6847 107.895 51.242C107.704 51.814 107.47 52.3713 107.191 52.914C106.927 53.4567 106.678 53.948 106.443 54.388C106.384 54.5787 106.355 54.6813 106.355 54.696C106.37 54.7253 106.37 54.7547 106.355 54.784C106.355 54.8133 106.282 54.9307 106.135 55.136C106.047 55.224 105.93 55.2313 105.783 55.158C105.651 55.0847 105.519 54.9747 105.387 54.828C105.27 54.696 105.189 54.6007 105.145 54.542C105.101 54.3807 105.101 54.212 105.145 54.036C105.189 53.86 105.284 53.6253 105.431 53.332C105.724 52.7747 106.003 52.232 106.267 51.704C106.531 51.176 106.7 50.7287 106.773 50.362L106.619 50.186C106.56 50.23 106.377 50.2667 106.069 50.296C105.761 50.3107 105.416 50.3253 105.035 50.34C104.668 50.3547 104.346 50.3693 104.067 50.384C103.803 50.384 103.671 50.384 103.671 50.384C103.598 50.3253 103.532 50.296 103.473 50.296C103.429 50.2813 103.319 50.296 103.143 50.34L101.757 50.384C101.654 50.384 101.566 50.384 101.493 50.384C101.42 50.3693 101.339 50.3767 101.251 50.406C100.958 50.4647 100.73 50.494 100.569 50.494C100.422 50.4793 100.188 50.494 99.8651 50.538C99.8358 50.538 99.6891 50.5527 99.4251 50.582C99.1611 50.6113 98.8458 50.6407 98.4791 50.67C98.1271 50.6993 97.7751 50.736 97.4231 50.78C97.0858 50.8093 96.7998 50.8387 96.5651 50.868C96.3451 50.8827 96.2498 50.89 96.2791 50.89C95.9271 50.89 95.6778 50.9413 95.5311 51.044C95.3844 51.1613 95.2158 51.2347 95.0251 51.264C94.8784 51.7627 94.7318 52.2833 94.5851 52.826C94.4531 53.3833 94.3358 53.86 94.2331 54.256C94.1451 54.652 94.0938 54.872 94.0791 54.916C94.0644 55.0187 94.0131 55.1067 93.9251 55.18C93.8518 55.268 93.7124 55.3413 93.5071 55.4ZM98.0611 49.614C98.2664 49.614 98.5891 49.5993 99.0291 49.57C99.4838 49.5407 99.9824 49.504 100.525 49.46C101.082 49.416 101.61 49.372 102.109 49.328C102.622 49.2693 103.055 49.2253 103.407 49.196C103.759 49.1667 103.95 49.1447 103.979 49.13C104.067 48.7193 104.162 48.3453 104.265 48.008C104.382 47.656 104.5 47.326 104.617 47.018C104.749 46.6953 104.874 46.38 104.991 46.072C105.006 46.072 105.064 45.9547 105.167 45.72C105.27 45.4707 105.387 45.1627 105.519 44.796C105.666 44.4147 105.812 44.0333 105.959 43.652C106.106 43.256 106.23 42.904 106.333 42.596C106.45 42.288 106.531 42.0753 106.575 41.958C106.986 40.7847 107.323 39.7947 107.587 38.988C107.866 38.1667 108.042 37.514 108.115 37.03C107.866 36.986 107.536 36.9713 107.125 36.986C106.729 36.986 106.311 37.0007 105.871 37.03C105.431 37.0593 105.02 37.1107 104.639 37.184C104.272 37.2573 103.979 37.338 103.759 37.426L103.341 38.46C103.312 38.5333 103.224 38.8047 103.077 39.274C102.945 39.7433 102.754 40.3373 102.505 41.056C102.27 41.7747 101.992 42.552 101.669 43.388C101.346 44.2093 100.994 45.0307 100.613 45.852C100.232 46.6587 99.8211 47.392 99.3811 48.052C98.9558 48.712 98.5158 49.2327 98.0611 49.614ZM115.048 50.956C114.901 50.8093 114.755 50.6113 114.608 50.362C114.461 50.098 114.344 49.7973 114.256 49.46C114.227 49.3427 114.212 49.1813 114.212 48.976C114.227 48.7707 114.227 48.624 114.212 48.536C114.168 48.6387 114.095 48.7487 113.992 48.866C113.904 48.9687 113.816 49.0567 113.728 49.13C113.669 49.1887 113.537 49.306 113.332 49.482C113.127 49.6433 112.921 49.7753 112.716 49.878C112.232 50.186 111.829 50.3547 111.506 50.384C111.198 50.4133 110.905 50.252 110.626 49.9C110.391 49.7093 110.223 49.4967 110.12 49.262C110.032 49.0273 110.032 48.7047 110.12 48.294C110.149 47.7807 110.223 47.282 110.34 46.798C110.457 46.2993 110.699 45.6393 111.066 44.818C111.374 44.2167 111.609 43.7767 111.77 43.498C111.931 43.2047 112.034 43.0287 112.078 42.97C112.298 42.8967 112.481 42.904 112.628 42.992C112.775 43.0653 112.863 43.2047 112.892 43.41C112.98 43.5567 112.965 43.806 112.848 44.158C112.745 44.51 112.562 44.9427 112.298 45.456C112.093 45.9547 111.902 46.4533 111.726 46.952C111.565 47.4507 111.469 47.876 111.44 48.228C111.411 48.58 111.499 48.7927 111.704 48.866C111.836 48.9393 112.063 48.9173 112.386 48.8C112.723 48.6827 113.097 48.3893 113.508 47.92C113.933 47.4507 114.344 46.7393 114.74 45.786C114.857 45.4927 114.945 45.236 115.004 45.016C115.063 44.7813 115.099 44.5247 115.114 44.246C115.085 44.07 115.092 43.916 115.136 43.784C115.195 43.6373 115.312 43.5127 115.488 43.41C115.547 43.3367 115.627 43.2707 115.73 43.212C115.833 43.1387 115.899 43.1387 115.928 43.212L116.28 43.19C116.339 43.1753 116.375 43.212 116.39 43.3C116.419 43.3733 116.471 43.4393 116.544 43.498C116.705 43.63 116.749 43.916 116.676 44.356C116.603 44.796 116.397 45.412 116.06 46.204C115.781 46.8053 115.591 47.26 115.488 47.568C115.4 47.876 115.349 48.1767 115.334 48.47C115.334 48.734 115.385 48.9833 115.488 49.218C115.591 49.4527 115.752 49.6653 115.972 49.856C116.133 49.9587 116.221 50.076 116.236 50.208C116.265 50.34 116.273 50.494 116.258 50.67C116.229 50.802 116.141 50.912 115.994 51C115.862 51.0733 115.708 51.11 115.532 51.11C115.356 51.11 115.195 51.0587 115.048 50.956ZM122.596 43.388C122.42 43.388 122.171 43.3807 121.848 43.366C121.54 43.3513 121.306 43.3807 121.144 43.454C120.968 43.542 120.792 43.674 120.616 43.85C120.44 44.0113 120.294 44.1947 120.176 44.4C120.059 44.6053 119.993 44.818 119.978 45.038C119.978 45.17 120.008 45.302 120.066 45.434C120.14 45.5513 120.25 45.6687 120.396 45.786C120.616 45.9327 120.866 46.0793 121.144 46.226C121.438 46.3727 121.68 46.5267 121.87 46.688C122.002 46.3947 122.09 46.1087 122.134 45.83C122.193 45.5513 122.281 45.28 122.398 45.016C122.428 44.9427 122.457 44.796 122.486 44.576C122.53 44.3413 122.56 44.1067 122.574 43.872C122.604 43.6227 122.611 43.4613 122.596 43.388ZM121.848 51C121.731 50.9267 121.614 50.8533 121.496 50.78C121.379 50.692 121.262 50.6113 121.144 50.538C121.115 50.054 121.159 49.5773 121.276 49.108C121.408 48.624 121.526 48.1547 121.628 47.7C121.614 47.656 121.57 47.6413 121.496 47.656C121.423 47.6707 121.335 47.7073 121.232 47.766C121.042 47.8687 120.836 48.0007 120.616 48.162C120.396 48.3087 120.257 48.404 120.198 48.448C120.125 48.492 119.956 48.602 119.692 48.778C119.443 48.9393 119.164 49.1227 118.856 49.328C118.548 49.5187 118.27 49.6873 118.02 49.834C117.786 49.9807 117.654 50.054 117.624 50.054C117.36 50.0393 117.17 49.9367 117.052 49.746C116.95 49.5407 116.876 49.3207 116.832 49.086C116.935 48.9393 117.045 48.822 117.162 48.734C117.294 48.646 117.441 48.58 117.602 48.536C117.793 48.4773 118.057 48.3527 118.394 48.162C118.732 47.9713 119.084 47.7587 119.45 47.524C119.817 47.2747 120.118 47.0693 120.352 46.908C120.25 46.864 120.14 46.82 120.022 46.776C119.905 46.7173 119.788 46.666 119.67 46.622C119.465 46.4753 119.296 46.3287 119.164 46.182C119.032 46.0207 118.908 45.764 118.79 45.412C118.746 45.2507 118.717 45.0967 118.702 44.95C118.702 44.8033 118.732 44.6493 118.79 44.488C118.922 44.1067 119.01 43.828 119.054 43.652C119.113 43.476 119.208 43.322 119.34 43.19C119.428 43.102 119.538 43.014 119.67 42.926C119.802 42.838 119.986 42.728 120.22 42.596C120.25 42.5667 120.279 42.5447 120.308 42.53C120.338 42.5153 120.367 42.508 120.396 42.508C120.646 42.4787 120.917 42.442 121.21 42.398C121.504 42.3393 121.775 42.3247 122.024 42.354C122.215 42.3687 122.398 42.376 122.574 42.376C122.75 42.376 122.934 42.376 123.124 42.376C123.374 42.4933 123.564 42.6327 123.696 42.794C123.828 42.9553 123.894 43.1827 123.894 43.476C123.894 43.7547 123.843 44.18 123.74 44.752C123.638 45.3093 123.506 45.9107 123.344 46.556C123.198 47.2013 123.044 47.7953 122.882 48.338C122.736 48.8807 122.611 49.284 122.508 49.548C122.538 49.68 122.523 49.8193 122.464 49.966C122.42 50.098 122.391 50.23 122.376 50.362C122.362 50.582 122.31 50.7287 122.222 50.802C122.134 50.8607 122.01 50.9267 121.848 51ZM123.906 55.928C123.848 55.928 123.774 55.928 123.686 55.928C123.598 55.9427 123.518 55.884 123.444 55.752C123.386 55.6787 123.349 55.5687 123.334 55.422C123.334 55.2753 123.371 55.0113 123.444 54.63C123.518 54.3807 123.576 54.1313 123.62 53.882C123.664 53.6473 123.686 53.4713 123.686 53.354C123.686 53.2953 123.701 53.178 123.73 53.002C123.774 52.8407 123.796 52.7233 123.796 52.65C123.87 52.5327 123.928 52.3713 123.972 52.166C124.016 51.9607 124.038 51.7773 124.038 51.616C124.038 51.44 124.126 51.2787 124.302 51.132C124.302 51.0147 124.324 50.868 124.368 50.692C124.427 50.516 124.456 50.3987 124.456 50.34C124.5 50.1347 124.596 49.7753 124.742 49.262C124.904 48.734 125.094 48.14 125.314 47.48C125.549 46.82 125.776 46.1747 125.996 45.544C126.216 44.9133 126.414 44.378 126.59 43.938C126.766 43.5273 126.884 43.1753 126.942 42.882C127.016 42.574 127.052 42.3467 127.052 42.2C127.052 42.1413 127.067 42.0973 127.096 42.068C127.126 42.024 127.192 41.9433 127.294 41.826C127.441 41.6793 127.566 41.6353 127.668 41.694C127.786 41.7527 127.925 41.8407 128.086 41.958C128.204 42.1487 128.284 42.31 128.328 42.442C128.387 42.574 128.387 42.8013 128.328 43.124C128.328 43.344 128.292 43.5347 128.218 43.696C128.145 43.8573 128.079 43.982 128.02 44.07C127.962 44.1433 127.947 44.1727 127.976 44.158C128.578 43.8793 129.106 43.7327 129.56 43.718C130.03 43.6887 130.418 43.7693 130.726 43.96C131.049 44.136 131.291 44.3853 131.452 44.708C131.614 45.0307 131.694 45.4047 131.694 45.83C131.694 46.006 131.658 46.2187 131.584 46.468C131.511 46.7027 131.416 46.9227 131.298 47.128C131.196 47.3187 131.1 47.458 131.012 47.546C130.954 47.546 130.895 47.5973 130.836 47.7C130.778 47.788 130.719 47.8907 130.66 48.008C130.543 48.1547 130.352 48.3233 130.088 48.514C129.839 48.69 129.59 48.8367 129.34 48.954C129.091 49.0567 128.908 49.086 128.79 49.042C128.79 49.042 128.768 49.0493 128.724 49.064C128.695 49.064 128.68 49.1007 128.68 49.174C128.68 49.2033 128.563 49.2693 128.328 49.372C128.094 49.46 127.822 49.548 127.514 49.636C127.206 49.7093 126.935 49.746 126.7 49.746C126.392 49.746 126.172 49.6873 126.04 49.57C126.011 49.5993 125.974 49.6433 125.93 49.702C125.901 49.7607 125.886 49.812 125.886 49.856C125.886 49.944 125.85 50.1127 125.776 50.362C125.718 50.5967 125.644 50.824 125.556 51.044C125.468 51.264 125.388 51.374 125.314 51.374C125.314 51.374 125.3 51.396 125.27 51.44C125.241 51.484 125.256 51.5427 125.314 51.616C125.314 51.616 125.307 51.6967 125.292 51.858C125.292 52.034 125.256 52.1807 125.182 52.298C125.182 52.4153 125.16 52.5913 125.116 52.826C125.072 53.0607 125.021 53.2367 124.962 53.354C124.962 53.53 124.933 53.6987 124.874 53.86C124.83 54.036 124.779 54.124 124.72 54.124C124.662 54.1387 124.625 54.2267 124.61 54.388C124.596 54.564 124.588 54.6887 124.588 54.762C124.574 55.1287 124.5 55.4147 124.368 55.62C124.236 55.8253 124.082 55.928 123.906 55.928ZM126.568 48.58C126.686 48.58 126.928 48.5287 127.294 48.426C127.661 48.3233 128.035 48.1987 128.416 48.052C128.812 47.8907 129.106 47.7293 129.296 47.568C129.678 47.2307 129.971 46.8493 130.176 46.424C130.396 45.984 130.382 45.566 130.132 45.17C130.015 44.9647 129.802 44.884 129.494 44.928C129.186 44.9573 128.849 45.0747 128.482 45.28C128.116 45.4853 127.771 45.742 127.448 46.05C127.272 46.2407 127.111 46.4753 126.964 46.754C126.818 47.0327 126.693 47.3113 126.59 47.59C126.502 47.8687 126.451 48.1033 126.436 48.294C126.422 48.4847 126.466 48.58 126.568 48.58Z" fill="white"/>
<path d="M92.3891 75.018C92.2691 75.03 92.0891 75 91.8491 74.928C91.6211 74.844 91.4651 74.76 91.3811 74.676C91.2971 74.556 91.2191 74.412 91.1471 74.244C91.0871 74.076 91.0391 73.926 91.0031 73.794C90.9791 73.65 90.9671 73.566 90.9671 73.542L91.1831 72.048C91.2431 71.94 91.2731 71.826 91.2731 71.706C91.2851 71.586 91.3151 71.472 91.3631 71.364C91.3511 71.304 91.3691 71.184 91.4171 71.004C91.4771 70.812 91.5431 70.602 91.6151 70.374C91.6991 70.134 91.7771 69.918 91.8491 69.726C91.9211 69.522 91.9631 69.39 91.9751 69.33C92.0231 69.15 92.0891 68.97 92.1731 68.79C92.2571 68.61 92.3351 68.43 92.4071 68.25C92.5031 67.938 92.5751 67.71 92.6231 67.566C92.6711 67.422 92.7131 67.308 92.7491 67.224C92.7971 67.14 92.8511 67.044 92.9111 66.936C92.9711 66.816 93.0551 66.636 93.1631 66.396L94.2251 63.984C94.1051 63.924 93.9971 63.81 93.9011 63.642C93.8051 63.462 93.7571 63.3 93.7571 63.156C93.7451 63.084 93.7571 63.036 93.7931 63.012C93.8291 62.976 93.8891 62.94 93.9731 62.904C94.1051 62.904 94.2431 62.898 94.3871 62.886C94.5311 62.874 94.6751 62.88 94.8191 62.904C94.9271 62.916 94.9991 62.91 95.0351 62.886C95.0711 62.85 95.1431 62.844 95.2511 62.868C95.3591 62.904 95.4671 62.916 95.5751 62.904C95.6951 62.892 95.7971 62.862 95.8811 62.814C95.9171 62.814 96.0251 62.808 96.2051 62.796C96.3851 62.784 96.5831 62.772 96.7991 62.76C97.0271 62.748 97.2251 62.736 97.3931 62.724C97.5731 62.712 97.6811 62.706 97.7171 62.706C97.7051 62.706 97.7831 62.7 97.9511 62.688C98.1311 62.676 98.3411 62.664 98.5811 62.652C98.8211 62.628 99.0371 62.61 99.2291 62.598C99.4211 62.574 99.5291 62.556 99.5531 62.544C99.8051 62.484 99.9791 62.508 100.075 62.616C100.171 62.724 100.243 62.826 100.291 62.922C100.315 62.982 100.345 63.048 100.381 63.12C100.417 63.18 100.441 63.234 100.453 63.282C100.477 63.318 100.471 63.342 100.435 63.354C100.375 63.438 100.291 63.498 100.183 63.534C100.087 63.57 99.9731 63.564 99.8411 63.516C99.7931 63.504 99.6191 63.504 99.3191 63.516C99.0191 63.528 98.6531 63.552 98.2211 63.588C97.8011 63.624 97.3691 63.666 96.9251 63.714C96.4931 63.75 96.1151 63.786 95.7911 63.822C95.6711 63.894 95.5691 63.99 95.4851 64.11C95.4011 64.218 95.3231 64.338 95.2511 64.47C95.2151 64.542 95.1311 64.71 94.9991 64.974C94.8791 65.238 94.7471 65.526 94.6031 65.838C94.4591 66.15 94.3391 66.42 94.2431 66.648C94.1471 66.864 94.0991 66.966 94.0991 66.954C94.0031 67.086 94.0271 67.164 94.1711 67.188C94.3271 67.212 94.4591 67.224 94.5671 67.224C94.6631 67.224 94.7591 67.248 94.8551 67.296C94.9631 67.332 95.0651 67.344 95.1611 67.332C95.2211 67.32 95.3351 67.338 95.5031 67.386C95.6831 67.422 95.8751 67.476 96.0791 67.548C96.2951 67.608 96.4871 67.674 96.6551 67.746C96.8351 67.806 96.9611 67.86 97.0331 67.908C97.3091 68.076 97.5491 68.244 97.7531 68.412C97.9571 68.58 98.1191 68.784 98.2391 69.024C98.3591 69.264 98.4611 69.51 98.5451 69.762C98.6291 70.014 98.6591 70.278 98.6351 70.554C98.6351 70.614 98.6171 70.74 98.5811 70.932C98.5571 71.112 98.5211 71.298 98.4731 71.49C98.4251 71.682 98.3711 71.826 98.3111 71.922C98.1671 72.162 98.0111 72.39 97.8431 72.606C97.6871 72.81 97.5431 72.99 97.4111 73.146C97.2191 73.386 96.9911 73.59 96.7271 73.758C96.4751 73.914 96.2111 74.058 95.9351 74.19C95.7191 74.298 95.5511 74.382 95.4311 74.442C95.3231 74.49 95.2211 74.526 95.1251 74.55C95.0291 74.574 94.8971 74.604 94.7291 74.64C94.7411 74.64 94.6811 74.658 94.5491 74.694C94.4171 74.718 94.2851 74.748 94.1531 74.784C94.0211 74.82 93.9551 74.838 93.9551 74.838C93.7991 74.922 93.6371 74.976 93.4691 75C93.3011 75.012 93.1331 75.018 92.9651 75.018C92.8691 75.018 92.7731 75.012 92.6771 75C92.5811 75 92.4851 75.006 92.3891 75.018ZM92.2271 74.064C92.4071 74.052 92.5931 74.046 92.7851 74.046C92.9771 74.046 93.1691 74.022 93.3611 73.974C93.9611 73.806 94.5191 73.626 95.0351 73.434C95.5631 73.242 96.0431 72.906 96.4751 72.426C96.7751 72.078 96.9971 71.754 97.1411 71.454C97.2971 71.154 97.4171 70.812 97.5011 70.428C97.5491 70.236 97.5491 70.062 97.5011 69.906C97.4531 69.738 97.4111 69.54 97.3751 69.312C97.2671 69.06 97.1651 68.892 97.0691 68.808C96.9731 68.712 96.8771 68.652 96.7811 68.628C96.6851 68.604 96.5891 68.568 96.4931 68.52C96.3371 68.388 96.1151 68.298 95.8271 68.25C95.5391 68.202 95.3411 68.172 95.2331 68.16C95.3051 68.172 95.2871 68.172 95.1791 68.16C95.0831 68.136 94.9391 68.112 94.7471 68.088C94.5551 68.052 94.3631 68.022 94.1711 67.998C93.9791 67.974 93.8291 67.962 93.7211 67.962C93.6371 68.154 93.5471 68.364 93.4511 68.592C93.3671 68.82 93.2771 69.048 93.1811 69.276C93.0971 69.492 93.0191 69.708 92.9471 69.924C92.8271 70.272 92.7131 70.626 92.6051 70.986C92.4971 71.334 92.3951 71.688 92.2991 72.048C92.2511 72.252 92.2031 72.498 92.1551 72.786C92.1071 73.074 92.0831 73.344 92.0831 73.596C92.0951 73.836 92.1431 73.992 92.2271 74.064ZM104.049 74.964C103.929 74.844 103.809 74.682 103.689 74.478C103.569 74.262 103.473 74.016 103.401 73.74C103.377 73.644 103.365 73.512 103.365 73.344C103.377 73.176 103.377 73.056 103.365 72.984C103.329 73.068 103.269 73.158 103.185 73.254C103.113 73.338 103.041 73.41 102.969 73.47C102.921 73.518 102.813 73.614 102.645 73.758C102.477 73.89 102.309 73.998 102.141 74.082C101.745 74.334 101.415 74.472 101.151 74.496C100.899 74.52 100.659 74.388 100.431 74.1C100.239 73.944 100.101 73.77 100.017 73.578C99.9453 73.386 99.9453 73.122 100.017 72.786C100.041 72.366 100.101 71.958 100.197 71.562C100.293 71.154 100.491 70.614 100.791 69.942C101.043 69.45 101.235 69.09 101.367 68.862C101.499 68.622 101.583 68.478 101.619 68.43C101.799 68.37 101.949 68.376 102.069 68.448C102.189 68.508 102.261 68.622 102.285 68.79C102.357 68.91 102.345 69.114 102.249 69.402C102.165 69.69 102.015 70.044 101.799 70.464C101.631 70.872 101.475 71.28 101.331 71.688C101.199 72.096 101.121 72.444 101.097 72.732C101.073 73.02 101.145 73.194 101.313 73.254C101.421 73.314 101.607 73.296 101.871 73.2C102.147 73.104 102.453 72.864 102.789 72.48C103.137 72.096 103.473 71.514 103.797 70.734C103.893 70.494 103.965 70.284 104.013 70.104C104.061 69.912 104.091 69.702 104.103 69.474C104.079 69.33 104.085 69.204 104.121 69.096C104.169 68.976 104.265 68.874 104.409 68.79C104.457 68.73 104.523 68.676 104.607 68.628C104.691 68.568 104.745 68.568 104.769 68.628L105.057 68.61C105.105 68.598 105.135 68.628 105.147 68.7C105.171 68.76 105.213 68.814 105.273 68.862C105.405 68.97 105.441 69.204 105.381 69.564C105.321 69.924 105.153 70.428 104.877 71.076C104.649 71.568 104.493 71.94 104.409 72.192C104.337 72.444 104.295 72.69 104.283 72.93C104.283 73.146 104.325 73.35 104.409 73.542C104.493 73.734 104.625 73.908 104.805 74.064C104.937 74.148 105.009 74.244 105.021 74.352C105.045 74.46 105.051 74.586 105.039 74.73C105.015 74.838 104.943 74.928 104.823 75C104.715 75.06 104.589 75.09 104.445 75.09C104.301 75.09 104.169 75.048 104.049 74.964ZM107.147 74.496C106.991 74.352 106.847 74.232 106.715 74.136C106.595 74.028 106.493 73.902 106.409 73.758C106.337 73.602 106.283 73.386 106.247 73.11C106.235 72.894 106.247 72.69 106.283 72.498C106.319 72.306 106.373 72.12 106.445 71.94C106.553 71.676 106.667 71.418 106.787 71.166C106.907 70.914 107.027 70.656 107.147 70.392C107.303 70.02 107.471 69.696 107.651 69.42C107.831 69.132 108.005 68.988 108.173 68.988C108.377 69 108.521 69.072 108.605 69.204C108.701 69.324 108.827 69.486 108.983 69.69C108.959 69.81 108.917 69.93 108.857 70.05C108.797 70.158 108.725 70.26 108.641 70.356C108.485 70.512 108.353 70.686 108.245 70.878C108.137 71.07 108.053 71.268 107.993 71.472C107.909 71.652 107.825 71.832 107.741 72.012C107.657 72.18 107.579 72.354 107.507 72.534C107.291 72.93 107.213 73.17 107.273 73.254C107.333 73.338 107.471 73.308 107.687 73.164C107.915 73.02 108.155 72.81 108.407 72.534C108.623 72.306 108.791 72.132 108.911 72.012C109.031 71.892 109.145 71.76 109.253 71.616C109.289 71.58 109.373 71.472 109.505 71.292C109.649 71.1 109.793 70.902 109.937 70.698C110.093 70.482 110.207 70.332 110.279 70.248C110.375 70.128 110.459 70.008 110.531 69.888C110.603 69.756 110.663 69.624 110.711 69.492C110.735 69.372 110.783 69.294 110.855 69.258C110.939 69.21 111.041 69.198 111.161 69.222C111.281 69.294 111.401 69.378 111.521 69.474C111.641 69.558 111.743 69.702 111.827 69.906C111.887 70.026 111.863 70.212 111.755 70.464C111.659 70.716 111.545 70.968 111.413 71.22C111.305 71.436 111.221 71.658 111.161 71.886C111.113 72.114 111.059 72.348 110.999 72.588C110.963 72.756 110.999 72.948 111.107 73.164C111.347 73.068 111.527 72.96 111.647 72.84C111.779 72.708 111.899 72.57 112.007 72.426C112.127 72.282 112.283 72.15 112.475 72.03C112.535 71.886 112.625 71.772 112.745 71.688C112.877 71.592 112.967 71.466 113.015 71.31L113.717 70.482C113.813 70.374 113.897 70.242 113.969 70.086C114.053 69.918 114.137 69.78 114.221 69.672C114.317 69.552 114.419 69.51 114.527 69.546C114.899 69.678 115.145 69.93 115.265 70.302C115.265 70.458 115.199 70.716 115.067 71.076C114.947 71.424 114.857 71.772 114.797 72.12C114.761 72.324 114.737 72.534 114.725 72.75C114.725 72.954 114.755 73.164 114.815 73.38C114.911 73.452 115.031 73.47 115.175 73.434C115.331 73.386 115.469 73.362 115.589 73.362C115.685 73.482 115.727 73.632 115.715 73.812C115.703 73.992 115.685 74.124 115.661 74.208C115.553 74.268 115.445 74.322 115.337 74.37C115.229 74.406 115.109 74.418 114.977 74.406C114.797 74.37 114.671 74.328 114.599 74.28C114.527 74.232 114.461 74.172 114.401 74.1C114.353 74.016 114.269 73.926 114.149 73.83C113.957 73.662 113.825 73.446 113.753 73.182C113.693 72.918 113.651 72.648 113.627 72.372C113.579 72.36 113.501 72.408 113.393 72.516C113.285 72.624 113.159 72.768 113.015 72.948C112.871 73.116 112.709 73.302 112.529 73.506C112.361 73.698 112.175 73.884 111.971 74.064C111.839 74.184 111.695 74.28 111.539 74.352C111.383 74.412 111.191 74.418 110.963 74.37C110.819 74.286 110.693 74.172 110.585 74.028C110.489 73.872 110.369 73.746 110.225 73.65C110.177 73.518 110.129 73.398 110.081 73.29C110.045 73.17 110.015 73.05 109.991 72.93C109.967 72.822 109.949 72.714 109.937 72.606C109.925 72.486 109.949 72.378 110.009 72.282C109.937 72.258 109.859 72.306 109.775 72.426C109.691 72.534 109.595 72.666 109.487 72.822C109.379 72.966 109.247 73.098 109.091 73.218C108.899 73.374 108.737 73.518 108.605 73.65C108.473 73.782 108.341 73.914 108.209 74.046C108.077 74.178 107.915 74.328 107.723 74.496H107.147ZM117.225 74.91C117.129 74.874 117.027 74.802 116.919 74.694C116.811 74.574 116.721 74.436 116.649 74.28C116.577 74.124 116.541 73.98 116.541 73.848C116.601 73.716 116.679 73.488 116.775 73.164C116.871 72.828 116.991 72.444 117.135 72.012C117.231 71.88 117.303 71.724 117.351 71.544C117.411 71.364 117.465 71.202 117.513 71.058C117.609 70.866 117.723 70.62 117.855 70.32C117.987 70.008 118.113 69.696 118.233 69.384C118.365 69.06 118.479 68.79 118.575 68.574C118.707 68.262 118.785 68.07 118.809 67.998C118.833 67.914 118.851 67.848 118.863 67.8C118.863 67.704 118.887 67.626 118.935 67.566C118.983 67.494 119.031 67.458 119.079 67.458C119.127 67.41 119.181 67.386 119.241 67.386C119.313 67.374 119.373 67.368 119.421 67.368C119.553 67.368 119.667 67.458 119.763 67.638C119.859 67.806 119.907 67.962 119.907 68.106C119.907 68.25 119.853 68.454 119.745 68.718C119.649 68.97 119.535 69.234 119.403 69.51C119.283 69.786 119.181 70.026 119.097 70.23C119.013 70.434 118.989 70.554 119.025 70.59C119.025 70.59 119.109 70.554 119.277 70.482C119.445 70.398 119.625 70.284 119.817 70.14C119.949 70.068 120.093 69.978 120.249 69.87C120.405 69.762 120.555 69.66 120.699 69.564C120.843 69.456 120.963 69.39 121.059 69.366C121.203 69.27 121.353 69.18 121.509 69.096C121.665 69 121.767 68.928 121.815 68.88C122.019 68.784 122.169 68.754 122.265 68.79C122.373 68.826 122.481 68.916 122.589 69.06C122.721 69.216 122.745 69.354 122.661 69.474C122.577 69.582 122.379 69.732 122.067 69.924C121.815 70.08 121.509 70.266 121.149 70.482C120.801 70.698 120.489 70.89 120.213 71.058C119.949 71.226 119.799 71.328 119.763 71.364C119.763 71.364 119.811 71.454 119.907 71.634C120.003 71.814 120.099 71.976 120.195 72.12C120.291 72.312 120.393 72.492 120.501 72.66C120.621 72.816 120.681 72.924 120.681 72.984C120.777 73.236 120.897 73.446 121.041 73.614C121.185 73.77 121.347 73.872 121.527 73.92C121.719 73.956 121.911 73.932 122.103 73.848C122.343 73.752 122.517 73.722 122.625 73.758C122.745 73.794 122.829 73.884 122.877 74.028C122.925 74.124 122.937 74.196 122.913 74.244C122.901 74.28 122.823 74.37 122.679 74.514C122.451 74.742 122.217 74.886 121.977 74.946C121.749 75.006 121.539 74.988 121.347 74.892C121.227 74.892 121.089 74.844 120.933 74.748C120.777 74.64 120.585 74.466 120.357 74.226C120.141 73.986 119.871 73.65 119.547 73.218C119.547 73.17 119.523 73.104 119.475 73.02C119.439 72.924 119.397 72.834 119.349 72.75C119.301 72.654 119.241 72.552 119.169 72.444C119.097 72.324 119.061 72.264 119.061 72.264C119.061 72.228 119.049 72.198 119.025 72.174C119.013 72.138 118.989 72.096 118.953 72.048C118.929 72 118.899 71.946 118.863 71.886C118.671 71.826 118.533 71.862 118.449 71.994C118.365 72.126 118.275 72.264 118.179 72.408C118.119 72.564 118.041 72.786 117.945 73.074C117.861 73.35 117.789 73.62 117.729 73.884C117.681 74.148 117.669 74.328 117.693 74.424C117.693 74.616 117.663 74.748 117.603 74.82C117.543 74.88 117.417 74.91 117.225 74.91ZM125.311 75.054C124.783 75.054 124.351 74.856 124.015 74.46C123.679 74.052 123.517 73.548 123.529 72.948C123.553 72.516 123.637 72.054 123.781 71.562C123.937 71.058 124.141 70.578 124.393 70.122C124.645 69.654 124.921 69.246 125.221 68.898C125.521 68.55 125.833 68.304 126.157 68.16C126.277 68.1 126.403 68.052 126.535 68.016C126.679 67.98 126.823 67.962 126.967 67.962C127.099 67.962 127.237 67.986 127.381 68.034C127.525 68.07 127.645 68.112 127.741 68.16C127.945 68.244 128.101 68.346 128.209 68.466C128.317 68.586 128.413 68.772 128.497 69.024C128.533 69.252 128.551 69.414 128.551 69.51C128.551 69.606 128.521 69.75 128.461 69.942C128.317 70.374 128.131 70.746 127.903 71.058C127.675 71.37 127.369 71.634 126.985 71.85C126.889 71.91 126.775 71.958 126.643 71.994C126.523 72.018 126.397 72.03 126.265 72.03C126.025 72.03 125.791 71.988 125.563 71.904C125.347 71.808 125.173 71.67 125.041 71.49L124.915 71.346L124.861 71.49C124.741 71.814 124.645 72.114 124.573 72.39C124.513 72.666 124.483 72.918 124.483 73.146C124.483 73.29 124.495 73.428 124.519 73.56C124.555 73.692 124.603 73.806 124.663 73.902C124.711 73.974 124.789 74.028 124.897 74.064C125.017 74.088 125.143 74.1 125.275 74.1C125.359 74.1 125.443 74.1 125.527 74.1C125.623 74.088 125.713 74.064 125.797 74.028C126.001 73.956 126.163 73.878 126.283 73.794C126.415 73.71 126.547 73.62 126.679 73.524L126.751 73.488H126.733C126.877 73.416 127.003 73.344 127.111 73.272C127.231 73.2 127.291 73.164 127.291 73.164C127.339 73.164 127.387 73.134 127.435 73.074C127.531 73.026 127.651 73.044 127.795 73.128C127.951 73.212 128.029 73.32 128.029 73.452C128.017 73.512 127.963 73.608 127.867 73.74C127.771 73.86 127.663 73.974 127.543 74.082C127.435 74.19 127.345 74.25 127.273 74.262C127.261 74.274 127.219 74.298 127.147 74.334C127.075 74.358 127.027 74.382 127.003 74.406H127.021C126.913 74.55 126.805 74.622 126.697 74.622H126.553C126.505 74.706 126.349 74.802 126.085 74.91C125.821 75.006 125.563 75.054 125.311 75.054ZM126.121 71.094C126.337 71.094 126.523 71.034 126.679 70.914C126.847 70.782 126.991 70.638 127.111 70.482C127.351 70.158 127.489 69.846 127.525 69.546C127.573 69.234 127.537 69.018 127.417 68.898C127.345 68.862 127.279 68.844 127.219 68.844C127.171 68.832 127.069 68.85 126.913 68.898C126.805 68.922 126.655 69.012 126.463 69.168C126.271 69.324 126.079 69.498 125.887 69.69C125.707 69.882 125.569 70.044 125.473 70.176L125.239 70.554C125.335 70.518 125.425 70.5 125.509 70.5C125.605 70.488 125.659 70.494 125.671 70.518C125.671 70.626 125.689 70.728 125.725 70.824C125.773 70.908 125.827 70.974 125.887 71.022C125.959 71.07 126.037 71.094 126.121 71.094ZM129.563 74.604C129.443 74.52 129.353 74.442 129.293 74.37C129.233 74.298 129.209 74.196 129.221 74.064C129.245 73.884 129.281 73.698 129.329 73.506C129.377 73.302 129.437 73.104 129.509 72.912C129.545 72.696 129.587 72.48 129.635 72.264C129.695 72.048 129.791 71.844 129.923 71.652C130.127 71.076 130.313 70.518 130.481 69.978C130.661 69.426 130.901 68.778 131.201 68.034C131.261 67.902 131.315 67.806 131.363 67.746C131.423 67.674 131.477 67.602 131.525 67.53C131.537 67.482 131.573 67.458 131.633 67.458C131.705 67.446 131.783 67.458 131.867 67.494C131.951 67.518 132.017 67.56 132.065 67.62C132.113 67.608 132.179 67.686 132.263 67.854C132.359 68.022 132.395 68.154 132.371 68.25C132.371 68.298 132.359 68.364 132.335 68.448C132.311 68.532 132.275 68.61 132.227 68.682C132.179 68.73 132.131 68.802 132.083 68.898C132.035 68.982 131.963 69.096 131.867 69.24C131.747 69.576 131.645 69.858 131.561 70.086C131.477 70.314 131.375 70.572 131.255 70.86C131.171 70.98 131.105 71.142 131.057 71.346C131.009 71.55 130.961 71.748 130.913 71.94C130.829 72.156 130.751 72.354 130.679 72.534C130.619 72.714 130.589 72.828 130.589 72.876C130.505 73.14 130.439 73.404 130.391 73.668C130.343 73.92 130.265 74.142 130.157 74.334C130.145 74.514 130.091 74.634 129.995 74.694C129.911 74.754 129.767 74.724 129.563 74.604ZM133.865 74.892C133.673 74.868 133.529 74.832 133.433 74.784C133.337 74.724 133.157 74.598 132.893 74.406C132.749 74.262 132.551 74.04 132.299 73.74C132.047 73.44 131.795 73.122 131.543 72.786C131.291 72.438 131.081 72.144 130.913 71.904L131.651 70.914C131.807 71.106 131.933 71.286 132.029 71.454C132.125 71.622 132.203 71.736 132.263 71.796C132.539 72.204 132.755 72.534 132.911 72.786C133.079 73.038 133.229 73.242 133.361 73.398C133.493 73.554 133.631 73.692 133.775 73.812C133.931 73.932 134.123 74.058 134.351 74.19C134.387 74.214 134.423 74.25 134.459 74.298C134.495 74.346 134.507 74.418 134.495 74.514C134.447 74.646 134.393 74.73 134.333 74.766C134.285 74.79 134.129 74.832 133.865 74.892ZM130.859 71.706C130.787 71.502 130.811 71.298 130.931 71.094C131.063 70.878 131.207 70.728 131.363 70.644C131.411 70.56 131.459 70.506 131.507 70.482C131.567 70.446 131.603 70.404 131.615 70.356C131.639 70.308 131.699 70.242 131.795 70.158C131.903 70.074 131.999 69.996 132.083 69.924C132.275 69.804 132.491 69.66 132.731 69.492C132.983 69.312 133.223 69.132 133.451 68.952C133.679 68.772 133.871 68.616 134.027 68.484C134.195 68.352 134.297 68.268 134.333 68.232C134.369 68.184 134.417 68.154 134.477 68.142C134.549 68.118 134.639 68.13 134.747 68.178C134.891 68.214 134.987 68.274 135.035 68.358C135.083 68.43 135.107 68.574 135.107 68.79C135.143 68.922 135.089 69.066 134.945 69.222C134.813 69.366 134.609 69.528 134.333 69.708C134.237 69.768 134.105 69.858 133.937 69.978C133.781 70.098 133.643 70.212 133.523 70.32C133.439 70.368 133.313 70.452 133.145 70.572C132.989 70.68 132.851 70.788 132.731 70.896C132.635 70.956 132.509 71.064 132.353 71.22C132.197 71.364 132.041 71.472 131.885 71.544C131.501 71.904 131.249 72.096 131.129 72.12C131.009 72.144 130.919 72.006 130.859 71.706Z" fill="white"/>
</g>
<defs>
<clipPath id="clip0_80_43">
<rect width="239" height="83" fill="white"/>
</clipPath>
</defs>
</svg>
