<svg width="132" height="19" viewBox="0 0 132 19" fill="none" xmlns="http://www.w3.org/2000/svg">
    <path
        d="M2.14814 16.625C1.63148 16.625 1.20648 16.475 0.873145 16.175C0.556478 15.875 0.431478 15.425 0.498145 14.825C0.514811 14.6083 0.564811 14.3833 0.648145 14.15C0.748145 13.9 0.856478 13.6583 0.973145 13.425C1.07314 13.1917 1.17314 13.075 1.27314 13.075C1.35648 13.075 1.36481 13.1417 1.29814 13.275C1.08148 13.725 0.973145 14.125 0.973145 14.475C0.973145 14.8417 1.09814 15.1167 1.34814 15.3C1.61481 15.4833 1.95648 15.575 2.37314 15.575C3.18981 15.575 4.08981 15.3167 5.07314 14.8C6.05648 14.2667 7.07314 13.5917 8.12314 12.775C9.17315 11.9417 10.1815 11.075 11.1481 10.175C10.4981 10.1417 9.88981 10.1083 9.32314 10.075C8.75648 10.0417 8.25648 10.025 7.82314 10.025C7.45648 10.025 7.01481 10.0583 6.49814 10.125C5.98148 10.1917 5.58148 10.3667 5.29814 10.65C5.18148 10.7667 5.07314 10.9417 4.97314 11.175C4.88981 11.3917 4.84814 11.6167 4.84814 11.85C4.84814 11.9167 4.84814 11.9833 4.84814 12.05C4.86481 12.1 4.88148 12.1583 4.89814 12.225C4.83148 12.1917 4.70648 12.1667 4.52314 12.15C4.35648 12.1167 4.24814 12.0083 4.19814 11.825C4.18148 11.775 4.17314 11.6917 4.17314 11.575C4.17314 11.3083 4.27314 11.0917 4.47314 10.925C4.67314 10.7417 4.91481 10.5833 5.19814 10.45C5.48148 10.3167 5.73981 10.2 5.97314 10.1C6.52314 9.86667 7.08981 9.675 7.67315 9.525C8.25648 9.375 8.84815 9.3 9.44814 9.3C10.1315 9.3 10.9815 9.325 11.9981 9.375C12.7815 8.60833 13.5065 7.88333 14.1731 7.2C14.8398 6.51667 15.3815 5.95 15.7981 5.5C16.3815 4.88333 16.9981 4.35833 17.6481 3.925C18.3148 3.475 18.9898 3.15833 19.6731 2.975H18.2981C17.7148 2.975 17.0815 3 16.3981 3.05C15.7148 3.1 15.0731 3.20833 14.4731 3.375C13.8731 3.54167 13.3731 3.79167 12.9731 4.125C12.7231 4.34167 12.5315 4.59167 12.3981 4.875C12.2815 5.14167 12.2231 5.39167 12.2231 5.625C12.2231 5.94167 12.3148 6.15833 12.4981 6.275C12.5148 6.275 12.5231 6.28333 12.5231 6.3C12.5231 6.35 12.4648 6.40833 12.3481 6.475C12.2315 6.525 12.1481 6.53333 12.0981 6.5C11.9315 6.38333 11.7815 6.15 11.6481 5.8C11.5315 5.43333 11.4898 5.14167 11.5231 4.925C11.6065 4.40833 11.8315 3.99167 12.1981 3.675C12.5815 3.34167 13.0481 3.08333 13.5981 2.9C14.1648 2.71667 14.7565 2.59167 15.3731 2.525C16.0065 2.45833 16.6065 2.41667 17.1731 2.4C17.7565 2.38333 18.2481 2.375 18.6481 2.375H21.3731C21.4065 2.375 21.4148 2.38333 21.3981 2.4C21.8148 2.21667 22.2481 2.03333 22.6981 1.85C23.1648 1.66667 23.5648 1.575 23.8981 1.575C23.9815 1.575 24.0648 1.6 24.1481 1.65C24.2481 1.7 24.2981 1.75 24.2981 1.8C24.2981 1.88333 24.1315 1.925 23.7981 1.925C23.6315 1.925 23.4565 1.95833 23.2731 2.025C23.1065 2.075 22.8815 2.25 22.5981 2.55C22.3648 2.78333 22.0731 3.15833 21.7231 3.675C21.3731 4.19167 20.9898 4.8 20.5731 5.5C20.1565 6.18333 19.7398 6.91667 19.3231 7.7C18.9065 8.46667 18.5065 9.225 18.1231 9.975C17.7398 10.725 17.4065 11.4167 17.1231 12.05C17.0898 12.15 16.9981 12.3833 16.8481 12.75C16.6981 13.1 16.5565 13.4917 16.4231 13.925C16.2898 14.3417 16.2231 14.7167 16.2231 15.05C16.2231 15.5 16.3815 15.725 16.6981 15.725C16.8481 15.725 16.9981 15.6917 17.1481 15.625C17.3648 15.5417 17.5898 15.4167 17.8231 15.25C18.0565 15.0833 18.2815 14.8917 18.4981 14.675C18.9315 14.2583 19.2981 13.8583 19.5981 13.475C19.8981 13.075 20.0815 12.8333 20.1481 12.75C20.1981 12.6667 20.2565 12.625 20.3231 12.625C20.3898 12.625 20.4231 12.6667 20.4231 12.75C20.4231 12.8 20.3981 12.8667 20.3481 12.95C20.2315 13.1167 20.0148 13.4083 19.6981 13.825C19.3815 14.225 19.0065 14.6333 18.5731 15.05C18.1565 15.4667 17.7065 15.7833 17.2231 16C17.0731 16.0667 16.9148 16.1167 16.7481 16.15C16.5815 16.2 16.4148 16.225 16.2481 16.225C15.9148 16.225 15.6065 16.1083 15.3231 15.875C15.0565 15.6417 14.9231 15.2583 14.9231 14.725C14.9231 14.2417 15.0148 13.725 15.1981 13.175C15.3981 12.6083 15.5815 12.15 15.7481 11.8C16.0815 11.0833 16.4731 10.2833 16.9231 9.4C17.3898 8.51667 17.8648 7.63333 18.3481 6.75C18.8481 5.86667 19.3065 5.06667 19.7231 4.35C20.1398 3.63333 20.4815 3.1 20.7481 2.75C20.4815 2.75 20.1231 2.85833 19.6731 3.075C19.2231 3.275 18.7398 3.55 18.2231 3.9C17.7231 4.23333 17.2565 4.625 16.8231 5.075C16.3065 5.60833 15.7065 6.25833 15.0231 7.025C14.3565 7.79167 13.6315 8.59167 12.8481 9.425C13.2315 9.44167 13.6148 9.45833 13.9981 9.475C14.3815 9.475 14.7648 9.475 15.1481 9.475C15.4148 9.475 15.7065 9.45 16.0231 9.4C16.3565 9.33333 16.6648 9.23333 16.9481 9.1C16.9481 9.1 16.8981 9.19167 16.7981 9.375C16.7148 9.54167 16.5648 9.71667 16.3481 9.9C16.1481 10.0667 15.8731 10.1667 15.5231 10.2C15.2065 10.2167 14.8898 10.2333 14.5731 10.25C14.2565 10.25 13.9398 10.25 13.6231 10.25C13.3565 10.25 13.0898 10.25 12.8231 10.25C12.5731 10.25 12.3231 10.2417 12.0731 10.225C11.3065 11.025 10.5065 11.8083 9.67314 12.575C8.83981 13.325 7.99815 14.0083 7.14814 14.625C6.29814 15.2417 5.44814 15.725 4.59814 16.075C3.76481 16.4417 2.94814 16.625 2.14814 16.625ZM20.1626 16.35C20.0959 16.35 20.0959 16.2833 20.1626 16.15C20.2459 16 20.3209 15.8333 20.3876 15.65C20.4709 15.4667 20.5543 15.2667 20.6376 15.05C20.8043 14.65 20.9876 14.2 21.1876 13.7C21.3876 13.2 21.5793 12.7167 21.7626 12.25C21.9459 11.7667 22.1043 11.3583 22.2376 11.025C22.3876 10.675 22.4876 10.45 22.5376 10.35C22.3043 10.6 22.0209 10.9167 21.6876 11.3C21.3709 11.6667 21.0709 12.025 20.7876 12.375C20.5043 12.725 20.2876 13 20.1376 13.2C20.0876 13.2667 20.0459 13.3 20.0126 13.3C19.9793 13.3 19.9626 13.2583 19.9626 13.175C19.9626 13.0417 20.0043 12.9167 20.0876 12.8C20.4043 12.4 20.7543 11.95 21.1376 11.45C21.5376 10.95 21.8959 10.4917 22.2126 10.075C22.5293 9.64167 22.7293 9.35833 22.8126 9.225C22.9959 9.19167 23.2626 9.14167 23.6126 9.075C23.9793 9.00833 24.2293 8.91667 24.3626 8.8C24.4126 8.75 24.4626 8.725 24.5126 8.725C24.5459 8.725 24.5626 8.75833 24.5626 8.825C24.5793 8.875 24.5626 8.93333 24.5126 9C24.4126 9.1 24.2626 9.31667 24.0626 9.65C23.8793 9.98333 23.6709 10.3667 23.4376 10.8C23.2043 11.2333 22.9793 11.65 22.7626 12.05C22.9293 11.8 23.1459 11.5083 23.4126 11.175C23.6959 10.825 24.0043 10.4917 24.3376 10.175C24.6709 9.84167 25.0043 9.56667 25.3376 9.35C25.6876 9.13333 26.0126 9.025 26.3126 9.025C26.5293 9.025 26.7126 9.075 26.8626 9.175C27.0126 9.25833 27.1293 9.41667 27.2126 9.65C27.2626 9.76667 27.2876 9.9 27.2876 10.05C27.2876 10.3333 27.2126 10.6083 27.0626 10.875C26.9293 11.125 26.8293 11.3167 26.7626 11.45C26.7459 11.5 26.6876 11.55 26.5876 11.6C26.4876 11.6333 26.4459 11.6167 26.4626 11.55C26.4793 11.4667 26.4876 11.3833 26.4876 11.3C26.5043 11.2167 26.5126 11.125 26.5126 11.025C26.5126 10.7417 26.4543 10.4833 26.3376 10.25C26.2376 10.0167 26.0459 9.9 25.7626 9.9C25.4959 9.9 25.1709 10.0667 24.7876 10.4C24.4043 10.7333 24.0209 11.1167 23.6376 11.55C23.1543 12.1167 22.7709 12.6583 22.4876 13.175C22.2043 13.675 21.9709 14.1667 21.7876 14.65C21.6876 14.9167 21.5876 15.1833 21.4876 15.45C21.3876 15.7 21.3126 15.9 21.2626 16.05C21.0459 16.0667 20.8293 16.1167 20.6126 16.2C20.3959 16.3 20.2459 16.35 20.1626 16.35ZM28.3241 16.4C28.0241 16.4 27.7075 16.3583 27.3741 16.275C27.0408 16.1917 26.7408 16.0583 26.4741 15.875C26.2241 15.675 26.0575 15.4083 25.9741 15.075C25.9575 15.025 25.9491 14.95 25.9491 14.85C25.9491 14.6167 25.9991 14.3583 26.0991 14.075C26.2158 13.7917 26.3575 13.5917 26.5241 13.475C26.5908 13.4417 26.6408 13.4417 26.6741 13.475C26.7241 13.5083 26.7325 13.5417 26.6991 13.575C26.6825 13.625 26.6575 13.6917 26.6241 13.775C26.5908 13.8417 26.5658 13.9167 26.5491 14C26.4991 14.4333 26.5908 14.8167 26.8241 15.15C26.9241 15.2833 27.0408 15.4083 27.1741 15.525C27.3241 15.6417 27.4658 15.7417 27.5991 15.825C27.7158 15.8917 27.8575 15.9417 28.0241 15.975C28.1908 15.9917 28.3575 16 28.5241 16C28.7908 16 29.0491 15.9667 29.2991 15.9C29.5491 15.8333 29.7325 15.725 29.8491 15.575C30.0658 15.3083 30.1741 15.0083 30.1741 14.675C30.1741 14.425 30.1075 14.1583 29.9741 13.875C29.8408 13.5917 29.6325 13.2917 29.3491 12.975C29.1658 12.775 28.9908 12.5583 28.8241 12.325C28.6575 12.0917 28.5491 11.8417 28.4991 11.575C28.4825 11.525 28.4658 11.475 28.4491 11.425C28.4491 11.375 28.4491 11.325 28.4491 11.275C28.2325 11.5917 28.0075 11.8917 27.7741 12.175C27.5575 12.4417 27.3658 12.675 27.1991 12.875C27.1325 12.975 27.0741 13.025 27.0241 13.025C26.9908 13.025 26.9741 12.9917 26.9741 12.925C26.9741 12.775 27.0408 12.6167 27.1741 12.45C27.3075 12.3 27.4575 12.1167 27.6241 11.9C27.7908 11.6667 27.9241 11.4833 28.0241 11.35C28.3075 10.9333 28.5158 10.6083 28.6491 10.375C28.7991 10.125 28.9575 9.9 29.1241 9.7C29.3075 9.48333 29.5325 9.30833 29.7991 9.175C30.0825 9.04167 30.3741 8.975 30.6741 8.975C31.0241 8.975 31.3408 9.03333 31.6241 9.15C31.9241 9.25 32.0825 9.51667 32.0991 9.95C32.0991 10.15 32.0575 10.3583 31.9741 10.575C31.9075 10.775 31.8325 10.9667 31.7491 11.15C31.6991 11.25 31.6241 11.325 31.5241 11.375C31.4408 11.4083 31.3991 11.3917 31.3991 11.325C31.3991 11.2583 31.4075 11.1833 31.4241 11.1C31.4408 11.0167 31.4491 10.9417 31.4491 10.875C31.4491 10.5917 31.3991 10.3417 31.2991 10.125C31.2158 9.89167 31.0908 9.725 30.9241 9.625C30.7575 9.50833 30.5825 9.45 30.3991 9.45C30.1325 9.45 29.8741 9.55833 29.6241 9.775C29.3741 9.975 29.2491 10.2417 29.2491 10.575C29.2491 10.6083 29.2491 10.65 29.2491 10.7C29.2491 10.75 29.2575 10.7917 29.2741 10.825C29.3408 11.0917 29.5408 11.3917 29.8741 11.725C30.2075 12.0583 30.4658 12.35 30.6491 12.6C30.9658 13.0333 31.1241 13.475 31.1241 13.925C31.1241 14.375 30.9908 14.7917 30.7241 15.175C30.4741 15.5417 30.1325 15.8333 29.6991 16.05C29.2825 16.2833 28.8241 16.4 28.3241 16.4ZM33.6347 16.075C33.468 16.075 33.3263 16.0417 33.2097 15.975C33.093 15.9083 33.0347 15.7833 33.0347 15.6C33.0347 15.3667 33.093 15.0917 33.2097 14.775C33.343 14.4583 33.4847 14.1417 33.6347 13.825C33.7847 13.5083 33.9097 13.25 34.0097 13.05C34.093 12.9 34.2013 12.6667 34.3347 12.35C34.4847 12.0167 34.6347 11.675 34.7847 11.325C34.9513 10.9583 35.0847 10.65 35.1847 10.4C35.3013 10.15 35.3597 10.025 35.3597 10.025C35.2097 10.1917 35.0097 10.425 34.7597 10.725C34.5263 11.025 34.268 11.3417 33.9847 11.675C33.718 11.9917 33.468 12.2917 33.2347 12.575C33.018 12.8583 32.8597 13.0667 32.7597 13.2C32.7097 13.2667 32.668 13.3 32.6347 13.3C32.6013 13.3 32.5847 13.2583 32.5847 13.175C32.5847 13.0417 32.6263 12.9167 32.7097 12.8C32.9097 12.55 33.1513 12.25 33.4347 11.9C33.718 11.5333 34.0013 11.1667 34.2847 10.8C34.5847 10.4333 34.843 10.1083 35.0597 9.825C34.9263 9.825 34.7513 9.83333 34.5347 9.85C34.3347 9.86667 34.1513 9.89167 33.9847 9.925C33.818 9.94167 33.7263 9.95 33.7097 9.95C33.6263 9.95 33.6347 9.88333 33.7347 9.75C33.8347 9.61667 33.968 9.48333 34.1347 9.35C34.3013 9.21667 34.4263 9.15 34.5097 9.15C34.5263 9.15 34.6597 9.15833 34.9097 9.175C35.1597 9.175 35.343 9.175 35.4597 9.175C35.793 8.725 36.118 8.20833 36.4347 7.625C36.768 7.04167 37.093 6.4 37.4097 5.7C37.543 5.68333 37.768 5.59167 38.0847 5.425C38.418 5.24167 38.6763 5.05833 38.8597 4.875C38.943 4.79167 39.0097 4.75 39.0597 4.75C39.1597 4.75 39.1597 4.81667 39.0597 4.95C38.943 5.08333 38.743 5.36667 38.4597 5.8C38.1763 6.21667 37.8597 6.725 37.5097 7.325C37.1597 7.90833 36.8263 8.525 36.5097 9.175H38.5347C38.718 9.175 38.8097 9.2 38.8097 9.25C38.8097 9.31667 38.6847 9.38333 38.4347 9.45C38.1513 9.53333 37.8513 9.58333 37.5347 9.6C37.2347 9.61667 36.9513 9.65 36.6847 9.7C36.4347 9.75 36.2513 9.85833 36.1347 10.025C36.0347 10.1417 35.893 10.3917 35.7097 10.775C35.5263 11.1583 35.3263 11.6 35.1097 12.1C34.9097 12.5833 34.7347 13.075 34.5847 13.575C34.4347 14.0583 34.343 14.4667 34.3097 14.8V14.9C34.3097 15.0333 34.3513 15.1417 34.4347 15.225C34.518 15.3083 34.6013 15.35 34.6847 15.35C34.9013 15.35 35.1763 15.2167 35.5097 14.95C35.8597 14.6833 36.218 14.3667 36.5847 14C36.9513 13.6167 37.268 13.2667 37.5347 12.95C37.6513 12.8167 37.7513 12.6917 37.8347 12.575C37.9347 12.4583 37.993 12.3833 38.0097 12.35C38.043 12.4167 38.0597 12.4667 38.0597 12.5C38.0597 12.6 38.0263 12.7083 37.9597 12.825C37.9097 12.9417 37.8513 13.0417 37.7847 13.125C37.468 13.5417 37.0847 13.9833 36.6347 14.45C36.1847 14.9 35.7013 15.2833 35.1847 15.6C34.6847 15.9167 34.168 16.075 33.6347 16.075ZM40.9907 16.075C40.8241 16.075 40.6824 16.0417 40.5657 15.975C40.4491 15.9083 40.3907 15.7833 40.3907 15.6C40.3907 15.3667 40.4491 15.1 40.5657 14.8C40.6824 14.5 40.8157 14.2083 40.9657 13.925C41.1157 13.625 41.2491 13.3833 41.3657 13.2C40.7824 13.8167 40.1741 14.4 39.5407 14.95C39.2241 15.2167 38.8741 15.4667 38.4907 15.7C38.1074 15.9333 37.6991 16.05 37.2657 16.05C37.0991 16.05 36.9824 16 36.9157 15.9C36.8491 15.7833 36.8157 15.65 36.8157 15.5C36.8157 15.4167 36.8241 15.3583 36.8407 15.325C36.9241 14.675 37.1324 14 37.4657 13.3C37.7991 12.6 38.2074 11.9417 38.6907 11.325C39.1741 10.7083 39.6657 10.2083 40.1657 9.825C40.7324 9.39167 41.3574 9.175 42.0407 9.175H44.9157C44.9991 9.175 45.0407 9.20833 45.0407 9.275C45.0407 9.40833 44.9657 9.475 44.8157 9.475C44.6491 9.475 44.4824 9.58333 44.3157 9.8C44.1491 10 44.0241 10.1667 43.9407 10.3C43.8241 10.4833 43.6407 10.7917 43.3907 11.225C43.1407 11.6583 42.8824 12.1333 42.6157 12.65C42.3657 13.15 42.1491 13.6167 41.9657 14.05C41.7824 14.4833 41.6907 14.8 41.6907 15C41.6907 15.2333 41.8074 15.35 42.0407 15.35C42.2907 15.35 42.5741 15.2333 42.8907 15C43.2074 14.7667 43.5241 14.4833 43.8407 14.15C44.1741 13.8 44.4741 13.4583 44.7407 13.125C45.0241 12.775 45.2491 12.5 45.4157 12.3C45.5157 12.4 45.5074 12.5417 45.3907 12.725C45.2907 12.8917 45.1991 13.025 45.1157 13.125C44.7824 13.5583 44.3991 14.0083 43.9657 14.475C43.5324 14.925 43.0574 15.3083 42.5407 15.625C42.0407 15.925 41.5241 16.075 40.9907 16.075ZM38.2907 15.2C38.4907 15.2 38.7657 15.0583 39.1157 14.775C39.4824 14.475 39.8741 14.1083 40.2907 13.675C40.7074 13.225 41.0991 12.7583 41.4657 12.275C41.8324 11.775 42.1324 11.325 42.3657 10.925C42.6157 10.5083 42.7407 10.1917 42.7407 9.975C42.7407 9.79167 42.6824 9.66667 42.5657 9.6C42.4657 9.53333 42.3324 9.5 42.1657 9.5C41.8991 9.5 41.6074 9.6 41.2907 9.8C40.9907 9.98333 40.7491 10.1667 40.5657 10.35C40.3657 10.5333 40.1241 10.825 39.8407 11.225C39.5741 11.6083 39.3074 12.0333 39.0407 12.5C38.7741 12.9667 38.5491 13.4167 38.3657 13.85C38.1824 14.2833 38.0907 14.6333 38.0907 14.9C38.0907 15.1 38.1574 15.2 38.2907 15.2ZM45.0894 16.375C45.0227 16.375 45.0227 16.3 45.0894 16.15C45.1727 16 45.2477 15.8333 45.3144 15.65C45.3977 15.4667 45.481 15.2667 45.5644 15.05C45.731 14.65 45.9144 14.2 46.1144 13.7C46.3144 13.2 46.506 12.7167 46.6894 12.25C46.8727 11.7667 47.031 11.3583 47.1644 11.025C47.3144 10.675 47.4144 10.45 47.4644 10.35C47.231 10.6 46.9477 10.9167 46.6144 11.3C46.2977 11.6667 45.9977 12.025 45.7144 12.375C45.431 12.725 45.2144 13 45.0644 13.2C45.0144 13.2667 44.9727 13.3 44.9394 13.3C44.906 13.3 44.8894 13.2583 44.8894 13.175C44.8894 13.0417 44.931 12.9167 45.0144 12.8C45.331 12.4 45.681 11.95 46.0644 11.45C46.4644 10.95 46.8227 10.4917 47.1394 10.075C47.456 9.64167 47.656 9.35833 47.7394 9.225C47.9227 9.19167 48.1894 9.14167 48.5394 9.075C48.906 9.00833 49.156 8.91667 49.2894 8.8C49.3394 8.75 49.3894 8.725 49.4394 8.725C49.4727 8.725 49.4894 8.75833 49.4894 8.825C49.506 8.875 49.4894 8.93333 49.4394 9C49.3394 9.11667 49.1644 9.39167 48.9144 9.825C48.681 10.2417 48.4227 10.7083 48.1394 11.225C47.8727 11.7417 47.6227 12.2083 47.3894 12.625C47.5894 12.3583 47.806 12.1 48.0394 11.85C48.2727 11.6 48.4977 11.3583 48.7144 11.125C48.9144 10.925 49.1894 10.675 49.5394 10.375C49.8894 10.075 50.256 9.8 50.6394 9.55C51.0227 9.3 51.356 9.15833 51.6394 9.125C51.706 9.10833 51.7644 9.1 51.8144 9.1C51.881 9.1 51.931 9.1 51.9644 9.1C52.331 9.1 52.5144 9.23333 52.5144 9.5C52.5144 9.7 52.406 9.96667 52.1894 10.3C52.0727 10.4833 51.8894 10.7917 51.6394 11.225C51.406 11.6417 51.1644 12.1 50.9144 12.6C50.681 13.0833 50.4727 13.5417 50.2894 13.975C50.1227 14.3917 50.0394 14.7 50.0394 14.9C50.0394 15.1333 50.156 15.25 50.3894 15.25C50.6727 15.25 50.981 15.1083 51.3144 14.825C51.6644 14.5417 52.0394 14.1833 52.4394 13.75C52.8394 13.3 53.2394 12.825 53.6394 12.325C53.6727 12.3583 53.6894 12.4167 53.6894 12.5C53.6894 12.6167 53.6477 12.7333 53.5644 12.85C53.4977 12.95 53.431 13.0417 53.3644 13.125C53.1977 13.3417 52.9727 13.6167 52.6894 13.95C52.4227 14.2667 52.1477 14.5833 51.8644 14.9C51.581 15.2 51.3227 15.4417 51.0894 15.625C50.9227 15.7417 50.706 15.8667 50.4394 16C50.1727 16.1333 49.906 16.2 49.6394 16.2C49.3394 16.2 49.131 16.125 49.0144 15.975C48.8977 15.8083 48.8394 15.6083 48.8394 15.375C48.8394 15.1083 48.8894 14.825 48.9894 14.525C49.0894 14.225 49.1977 13.9417 49.3144 13.675C49.4477 13.3917 49.5477 13.1833 49.6144 13.05C49.9144 12.4667 50.1894 11.9167 50.4394 11.4C50.6894 10.8833 50.8644 10.5167 50.9644 10.3C51.0144 10.2 51.0394 10.1167 51.0394 10.05C51.0394 9.93333 50.9477 9.925 50.7644 10.025C50.581 10.125 50.356 10.275 50.0894 10.475C49.8394 10.675 49.606 10.875 49.3894 11.075C49.1727 11.2583 49.031 11.3833 48.9644 11.45C48.3477 12.1 47.806 12.825 47.3394 13.625C46.8894 14.4083 46.506 15.2167 46.1894 16.05C45.9727 16.0667 45.756 16.125 45.5394 16.225C45.3227 16.325 45.1727 16.375 45.0894 16.375ZM54.2413 16.225C54.0246 16.225 53.7663 16.1833 53.4663 16.1C53.1663 16.0333 53.0163 15.85 53.0163 15.55C53.0163 15.4333 53.0413 15.3 53.0913 15.15C53.1413 15 53.1913 14.8667 53.2413 14.75C53.408 14.3167 53.583 13.875 53.7663 13.425C53.9496 12.975 54.1413 12.5167 54.3413 12.05C54.1246 12.3 53.9163 12.5333 53.7163 12.75C53.533 12.95 53.3996 13.1 53.3163 13.2C53.2663 13.2667 53.2246 13.3 53.1913 13.3C53.158 13.3 53.1413 13.2583 53.1413 13.175C53.1413 13.0417 53.183 12.9167 53.2663 12.8C53.4996 12.5 53.7663 12.1833 54.0663 11.85C54.3663 11.5167 54.658 11.1667 54.9413 10.8C55.6413 9.33333 56.4246 7.91667 57.2913 6.55C58.158 5.16667 59.133 3.94167 60.2163 2.875C60.5496 2.55833 60.9246 2.23333 61.3413 1.9C61.758 1.56667 62.1996 1.28333 62.6663 1.05C63.1496 0.816665 63.6246 0.699999 64.0913 0.699999C64.3413 0.699999 64.5663 0.766666 64.7663 0.899999C64.983 1.03333 65.0996 1.24167 65.1163 1.525V2.25C65.1163 2.31667 65.0663 2.35 64.9663 2.35C64.9163 2.35 64.8913 2.33333 64.8913 2.3C64.8913 2.03333 64.7746 1.85833 64.5413 1.775C64.308 1.675 64.0746 1.625 63.8413 1.625C62.9246 1.625 62.0996 1.86667 61.3663 2.35C60.633 2.81667 59.983 3.43333 59.4163 4.2C58.8496 4.95 58.3413 5.78333 57.8913 6.7C57.4413 7.6 57.033 8.49167 56.6663 9.375C56.3163 10.2417 55.983 11.0167 55.6663 11.7C55.6663 11.7 55.6663 11.7167 55.6663 11.75C55.6663 11.7833 55.6746 11.8 55.6913 11.8C55.708 11.8 55.8413 11.675 56.0913 11.425C56.358 11.1583 56.683 10.85 57.0663 10.5C57.4663 10.15 57.883 9.85 58.3163 9.6C58.7496 9.33333 59.1496 9.2 59.5163 9.2C59.6996 9.2 59.8163 9.26667 59.8663 9.4C59.9163 9.51667 59.9413 9.65 59.9413 9.8V10.025C59.858 10.6417 59.6413 11.3083 59.2913 12.025C58.958 12.7417 58.5246 13.425 57.9913 14.075C57.4746 14.7083 56.8913 15.225 56.2413 15.625C55.608 16.025 54.9413 16.225 54.2413 16.225ZM54.6413 15.8C54.908 15.8 55.1913 15.7 55.4913 15.5C55.808 15.2833 56.0496 15.0917 56.2163 14.925C56.4163 14.7417 56.658 14.4583 56.9413 14.075C57.2246 13.675 57.4996 13.2417 57.7663 12.775C58.033 12.3083 58.258 11.8583 58.4413 11.425C58.6246 10.9917 58.7163 10.6417 58.7163 10.375C58.7163 10.2917 58.6996 10.2167 58.6663 10.15C58.633 10.0833 58.5746 10.05 58.4913 10.05C58.3413 10.05 58.1413 10.1417 57.8913 10.325C57.658 10.5083 57.3996 10.7333 57.1163 11C56.8496 11.25 56.5996 11.5 56.3663 11.75C56.1496 11.9833 55.9913 12.1583 55.8913 12.275C55.708 12.475 55.4746 12.7667 55.1913 13.15C54.908 13.5333 54.6496 13.925 54.4163 14.325C54.1996 14.7083 54.0913 15.0333 54.0913 15.3C54.0913 15.6333 54.2746 15.8 54.6413 15.8ZM61.3302 16.2C60.6468 16.2 60.1718 16.0667 59.9052 15.8C59.6385 15.5333 59.5052 15.2083 59.5052 14.825C59.5052 14.3417 59.6302 13.825 59.8802 13.275C60.1468 12.725 60.3968 12.2583 60.6302 11.875C60.8968 11.475 61.2552 11.0583 61.7052 10.625C62.1552 10.1917 62.6468 9.825 63.1802 9.525C63.7135 9.225 64.2302 9.075 64.7302 9.075C65.1635 9.075 65.4635 9.18333 65.6302 9.4C65.7968 9.6 65.8802 9.84167 65.8802 10.125C65.8802 10.6417 65.7218 11.0667 65.4052 11.4C65.1052 11.7333 64.7302 12.0083 64.2802 12.225C63.8302 12.425 63.3968 12.5917 62.9802 12.725C62.7302 12.7917 62.4385 12.8583 62.1052 12.925C61.7718 12.9917 61.4552 13.025 61.1552 13.025C61.0385 13.325 60.9468 13.6167 60.8802 13.9C60.8135 14.1833 60.7802 14.4417 60.7802 14.675C60.7802 14.9583 60.8468 15.1917 60.9802 15.375C61.1302 15.5583 61.3718 15.65 61.7052 15.65C61.8385 15.65 61.9968 15.6333 62.1802 15.6C62.3635 15.5667 62.5635 15.5167 62.7802 15.45C63.2802 15.2833 63.7718 15.0167 64.2552 14.65C64.7385 14.2833 65.1802 13.8917 65.5802 13.475C65.9968 13.0417 66.3135 12.6833 66.5302 12.4C66.5802 12.45 66.6052 12.5083 66.6052 12.575C66.6052 12.6583 66.5468 12.7917 66.4302 12.975C66.0968 13.4417 65.6635 13.925 65.1302 14.425C64.5968 14.925 64.0052 15.35 63.3552 15.7C62.7052 16.0333 62.0302 16.2 61.3302 16.2ZM61.3552 12.525C61.5718 12.5417 61.8135 12.5417 62.0802 12.525C62.3635 12.4917 62.6385 12.4333 62.9052 12.35C63.5885 12.15 64.0802 11.8333 64.3802 11.4C64.6968 10.95 64.8552 10.55 64.8552 10.2C64.8552 10 64.8135 9.83333 64.7302 9.7C64.6468 9.56667 64.5135 9.5 64.3302 9.5C63.8468 9.5 63.4135 9.68333 63.0302 10.05C62.6468 10.4 62.3135 10.8083 62.0302 11.275C61.7468 11.7417 61.5218 12.1583 61.3552 12.525ZM70.6058 16.125C70.1891 16.125 69.8724 15.9833 69.6558 15.7C69.5224 15.5 69.3891 15.2 69.2558 14.8C69.1224 14.4 69.0058 13.9833 68.9058 13.55C68.8058 13.1167 68.7224 12.7667 68.6558 12.5C68.1891 13.1 67.7724 13.7 67.4058 14.3C67.0558 14.9 66.8224 15.3667 66.7058 15.7C66.6724 15.8 66.5558 15.8833 66.3558 15.95C66.1724 16.0167 65.9891 16.05 65.8058 16.05C65.5391 16.05 65.4391 15.9667 65.5058 15.8C66.0224 14.65 66.5141 13.5417 66.9808 12.475C67.4474 11.4083 67.9391 10.3333 68.4558 9.25C68.9891 8.16667 69.5891 7.04167 70.2558 5.875C70.7224 5.025 71.2808 4.20833 71.9308 3.425C72.5974 2.625 73.3058 1.975 74.0558 1.475C74.8058 0.958332 75.5641 0.699999 76.3308 0.699999C76.5808 0.699999 76.8141 0.766666 77.0308 0.899999C77.2474 1.03333 77.3558 1.24167 77.3558 1.525V2.25C77.3558 2.31667 77.3058 2.35 77.2058 2.35C77.1558 2.35 77.1308 2.33333 77.1308 2.3C77.1308 2.03333 77.0141 1.85833 76.7808 1.775C76.5474 1.675 76.3224 1.625 76.1058 1.625C75.5224 1.625 74.9308 1.74167 74.3308 1.975C73.6641 2.24167 73.1058 2.64167 72.6558 3.175C72.2058 3.70833 71.7891 4.275 71.4058 4.875C70.9058 5.64167 70.4141 6.54167 69.9308 7.575C69.4474 8.59167 68.9974 9.61667 68.5808 10.65C68.1808 11.6833 67.8224 12.6167 67.5058 13.45C67.6891 13.2167 67.8724 12.9833 68.0558 12.75C68.2391 12.5167 68.4141 12.3 68.5808 12.1C68.5808 12.0667 68.5724 12.0333 68.5558 12C68.5558 11.9667 68.5558 11.9333 68.5558 11.9C68.5558 11.7833 68.5808 11.6833 68.6308 11.6C68.6808 11.5167 68.7474 11.4167 68.8308 11.3C68.9474 11.1333 69.0558 11.0083 69.1558 10.925C69.2558 10.825 69.3641 10.7 69.4808 10.55L69.5558 10.975C70.2891 10.225 70.9308 9.68333 71.4808 9.35C71.8641 9.11667 72.2391 9 72.6058 9C72.9724 9 73.1558 9.14167 73.1558 9.425C73.1558 9.65833 73.0391 9.95 72.8058 10.3C72.7224 10.4167 72.6724 10.5 72.6558 10.55C72.6391 10.6 72.6058 10.65 72.5558 10.7C72.5391 10.7167 72.5058 10.7167 72.4558 10.7C72.4058 10.6833 72.3808 10.6583 72.3808 10.625C72.3808 10.425 72.3141 10.3 72.1808 10.25C72.0474 10.1833 71.8974 10.15 71.7308 10.15C71.4141 10.15 71.0724 10.2667 70.7058 10.5C70.3558 10.7167 69.9974 11.0167 69.6308 11.4C69.7141 11.8167 69.8058 12.275 69.9058 12.775C70.0224 13.2583 70.1474 13.7083 70.2808 14.125C70.4141 14.5417 70.5391 14.85 70.6558 15.05C70.7391 15.1833 70.8558 15.275 71.0058 15.325C71.1558 15.3583 71.2808 15.375 71.3808 15.375C71.6141 15.375 71.8808 15.2583 72.1808 15.025C72.4974 14.775 72.8141 14.4833 73.1308 14.15C73.4641 13.8 73.7641 13.4583 74.0308 13.125C74.3141 12.7917 74.5308 12.525 74.6808 12.325C74.7474 12.4083 74.7641 12.4917 74.7308 12.575C74.7141 12.675 74.6641 12.7833 74.5808 12.9C74.5141 13 74.4474 13.0917 74.3808 13.175C74.0474 13.5917 73.6891 14.0167 73.3058 14.45C72.9224 14.8667 72.5141 15.2417 72.0808 15.575C71.8974 15.725 71.6724 15.8583 71.4058 15.975C71.1391 16.075 70.8724 16.125 70.6058 16.125ZM93.9099 18.775C93.4265 18.775 92.9265 18.6 92.4099 18.25C91.9099 17.9167 91.3849 17.3667 90.8349 16.6C90.6182 16.2833 90.3849 15.925 90.1349 15.525C89.9015 15.125 89.6682 14.7167 89.4349 14.3C89.1682 14.5667 88.8932 14.825 88.6099 15.075C88.3265 15.3083 87.9849 15.55 87.5849 15.8C86.9015 16.2333 86.2432 16.5417 85.6099 16.725C84.9765 16.925 84.3765 17.025 83.8099 17.025C83.2265 17.025 82.6932 16.925 82.2099 16.725C81.7432 16.525 81.3599 16.2583 81.0599 15.925C80.6099 15.425 80.3849 14.8417 80.3849 14.175C80.3849 13.5583 80.5432 12.9917 80.8599 12.475C81.1932 11.9583 81.5765 11.5083 82.0099 11.125C82.6932 10.525 83.4432 10.0167 84.2599 9.6C85.0765 9.16667 85.8682 8.725 86.6349 8.275L86.6599 8.25C86.4765 7.66667 86.3849 7.10833 86.3849 6.575C86.3849 6.425 86.3932 6.275 86.4099 6.125C86.4432 5.95833 86.4682 5.8 86.4849 5.65C86.6182 5.05 86.8765 4.61667 87.2599 4.35C87.6599 4.06667 88.0599 3.925 88.4599 3.925C88.8432 3.925 89.1682 4.03333 89.4349 4.25C89.7182 4.46667 89.8599 4.76667 89.8599 5.15C89.8599 5.5 89.7265 5.85833 89.4599 6.225C89.1932 6.59167 88.8765 6.93333 88.5099 7.25C88.1599 7.56667 87.8265 7.83333 87.5099 8.05C87.6432 8.36667 87.8265 8.78333 88.0599 9.3C88.3099 9.8 88.5682 10.3167 88.8349 10.85H92.1849C92.4182 10.85 92.6515 10.85 92.8849 10.85C93.1349 10.8333 93.3182 10.775 93.4349 10.675C93.4682 10.6417 93.5015 10.6333 93.5349 10.65C93.5682 10.6667 93.5682 10.7083 93.5349 10.775L93.0849 11.45C93.0349 11.5667 92.9349 11.625 92.7849 11.625C92.7349 11.625 92.6765 11.625 92.6099 11.625C92.5432 11.625 92.4599 11.6167 92.3599 11.6C92.1599 11.5667 91.9432 11.5417 91.7099 11.525C91.4932 11.4917 91.2682 11.4667 91.0349 11.45C90.9682 11.75 90.8599 12.075 90.7099 12.425C90.5599 12.775 90.3932 13.0917 90.2099 13.375C90.5099 13.8917 90.8099 14.3917 91.1099 14.875C91.4099 15.3417 91.6849 15.7417 91.9349 16.075C92.4349 16.7083 92.9015 17.1583 93.3349 17.425C93.7682 17.6917 94.1682 17.825 94.5349 17.825C95.1015 17.825 95.6099 17.6083 96.0599 17.175C96.5265 16.7583 96.9432 16.3083 97.3099 15.825C97.3599 15.7583 97.4099 15.725 97.4599 15.725C97.5432 15.725 97.5849 15.775 97.5849 15.875C97.5849 15.975 97.5515 16.0583 97.4849 16.125C96.9015 16.9417 96.3182 17.5833 95.7349 18.05C95.1515 18.5333 94.5432 18.775 93.9099 18.775ZM87.4099 7.775C87.8932 7.44167 88.3265 7.06667 88.7099 6.65C89.1099 6.21667 89.3682 5.78333 89.4849 5.35C89.5015 5.3 89.5099 5.25 89.5099 5.2C89.5099 5.15 89.5099 5.10833 89.5099 5.075C89.5099 4.79167 89.4182 4.58333 89.2349 4.45C89.0515 4.3 88.8432 4.225 88.6099 4.225C88.3432 4.225 88.0682 4.33333 87.7849 4.55C87.5182 4.75 87.3265 5.09167 87.2099 5.575C87.1932 5.675 87.1765 5.775 87.1599 5.875C87.1599 5.975 87.1599 6.075 87.1599 6.175C87.1599 6.49167 87.1849 6.8 87.2349 7.1C87.3015 7.38333 87.3599 7.60833 87.4099 7.775ZM84.7849 15.8C85.7015 15.8 86.5432 15.65 87.3099 15.35C87.6599 15.2167 87.9932 15.0167 88.3099 14.75C88.6432 14.4833 88.9432 14.1917 89.2099 13.875C89.0599 13.5917 88.8682 13.225 88.6349 12.775C88.4015 12.325 88.1515 11.825 87.8849 11.275C87.5515 11.2917 87.1682 11.35 86.7349 11.45C86.3015 11.55 85.9265 11.7167 85.6099 11.95C85.3099 12.1833 85.1765 12.5167 85.2099 12.95C85.2099 13.0667 85.2349 13.2167 85.2849 13.4C85.3515 13.5667 85.3932 13.675 85.4099 13.725L85.2099 13.875C85.0932 13.6583 84.9349 13.3917 84.7349 13.075C84.5515 12.7583 84.4515 12.525 84.4349 12.375C84.4182 12.225 84.4182 12.0417 84.4349 11.825C84.4682 11.6083 84.5849 11.4167 84.7849 11.25C85.0015 11.0667 85.3015 10.95 85.6849 10.9C86.0682 10.8333 86.4682 10.8 86.8849 10.8C87.0182 10.8 87.1515 10.8083 87.2849 10.825C87.4182 10.825 87.5432 10.825 87.6599 10.825C87.5099 10.4583 87.3515 10.0833 87.1849 9.7C87.0349 9.31667 86.8849 8.93333 86.7349 8.55L86.5099 8.7C85.8599 9.1 85.1765 9.54167 84.4599 10.025C83.7599 10.5083 83.1682 11.05 82.6849 11.65C82.4682 11.9167 82.2765 12.2417 82.1099 12.625C81.9599 13.0083 81.8849 13.3917 81.8849 13.775C81.8849 13.9917 81.9182 14.2167 81.9849 14.45C82.0682 14.6667 82.1932 14.8667 82.3599 15.05C82.6432 15.3167 82.9932 15.5083 83.4099 15.625C83.8432 15.7417 84.3015 15.8 84.7849 15.8ZM89.9349 12.9C90.0849 12.6667 90.2265 12.4167 90.3599 12.15C90.4932 11.8667 90.6015 11.6167 90.6849 11.4C90.4182 11.3667 90.1515 11.3417 89.8849 11.325C89.6182 11.3083 89.3432 11.2917 89.0599 11.275C89.2432 11.5917 89.4015 11.8917 89.5349 12.175C89.6849 12.4583 89.8182 12.7 89.9349 12.9ZM97.2435 16.175C97.2268 16.1917 97.2101 16.2 97.1935 16.2C97.1435 16.2 97.1185 16.125 97.1185 15.975C97.1185 15.875 97.1435 15.775 97.1935 15.675C97.2601 15.5583 97.3768 15.4917 97.5435 15.475C98.0101 15.4417 98.4518 15.2833 98.8685 15C99.2851 14.7167 99.6518 14.3833 99.9685 14C100.285 13.6 100.51 13.225 100.643 12.875L102.943 7.125C103.26 6.34167 103.618 5.58333 104.018 4.85C104.435 4.11667 104.96 3.51667 105.593 3.05C106.243 2.58333 107.06 2.35 108.043 2.35C108.427 2.35 108.81 2.4 109.193 2.5C109.593 2.58333 109.927 2.725 110.193 2.925C110.46 3.125 110.593 3.40833 110.593 3.775C110.593 3.825 110.593 3.875 110.593 3.925C110.593 3.975 110.585 4.025 110.568 4.075C110.518 4.34167 110.368 4.60833 110.118 4.875C109.885 5.14167 109.702 5.475 109.568 5.875C109.552 5.99167 109.477 6.05 109.343 6.05C109.227 6.05 109.202 5.975 109.268 5.825C109.402 5.625 109.502 5.39167 109.568 5.125C109.652 4.84167 109.693 4.55833 109.693 4.275C109.693 3.84167 109.593 3.45833 109.393 3.125C109.193 2.79167 108.852 2.625 108.368 2.625C107.935 2.625 107.493 2.75 107.043 3C106.593 3.25 106.202 3.68333 105.868 4.3L101.243 12.825C100.81 13.625 100.41 14.2 100.043 14.55C99.6935 14.8833 99.4018 15.0917 99.1685 15.175H105.193C105.993 15.175 106.735 15.15 107.418 15.1C108.102 15.05 108.518 14.925 108.668 14.725C108.835 14.4917 108.918 14.2417 108.918 13.975C108.918 13.5583 108.693 13.25 108.243 13.05C108.193 13.0167 108.168 12.9833 108.168 12.95C108.168 12.9167 108.185 12.8833 108.218 12.85C108.268 12.8167 108.327 12.8167 108.393 12.85C108.543 12.9167 108.718 13.0667 108.918 13.3C109.135 13.5167 109.335 13.7583 109.518 14.025C109.702 14.275 109.818 14.475 109.868 14.625C109.918 14.775 109.943 14.925 109.943 15.075C109.943 15.7583 109.352 16.1 108.168 16.1C107.235 16.1 106.235 16.0667 105.168 16C104.102 15.9333 103.043 15.8583 101.993 15.775C100.96 15.6917 99.9851 15.6333 99.0685 15.6C98.7185 15.5667 98.3685 15.6167 98.0185 15.75C97.6851 15.8667 97.4268 16.0083 97.2435 16.175ZM111.965 16.05C111.699 16.05 111.457 16 111.24 15.9C111.04 15.7833 110.94 15.5417 110.94 15.175C110.94 14.5917 111.09 14.0083 111.39 13.425C111.69 12.825 111.999 12.3 112.315 11.85C112.599 11.4667 112.915 11.1083 113.265 10.775C113.632 10.425 114.024 10.125 114.44 9.875C114.707 9.70833 115.065 9.53333 115.515 9.35C115.982 9.15 116.374 9.05 116.69 9.05C116.957 9.05 117.19 9.125 117.39 9.275C117.59 9.40833 117.69 9.65833 117.69 10.025C117.69 10.5917 117.54 11.175 117.24 11.775C116.957 12.3583 116.657 12.875 116.34 13.325C116.19 13.525 116.04 13.7167 115.89 13.9C115.74 14.0667 115.574 14.2417 115.39 14.425C116.007 14.425 116.574 14.25 117.09 13.9C117.607 13.5333 118.057 13.0917 118.44 12.575L118.49 12.525C118.54 12.525 118.565 12.575 118.565 12.675C118.565 12.7917 118.532 12.9 118.465 13C118.132 13.4667 117.715 13.8833 117.215 14.25C116.715 14.6 116.149 14.775 115.515 14.775C115.449 14.775 115.382 14.775 115.315 14.775C115.249 14.775 115.182 14.7667 115.115 14.75C114.182 15.6167 113.132 16.05 111.965 16.05ZM112.615 15.625C112.849 15.625 113.099 15.5417 113.365 15.375C113.649 15.2083 113.865 15.05 114.015 14.9C114.299 14.6167 114.557 14.3167 114.79 14C115.024 13.6667 115.24 13.3333 115.44 13C115.674 12.6 115.907 12.125 116.14 11.575C116.374 11.025 116.49 10.5083 116.49 10.025C116.49 9.64167 116.357 9.45 116.09 9.45C115.874 9.45 115.607 9.54167 115.29 9.725C114.99 9.90833 114.765 10.075 114.615 10.225C114.049 10.8083 113.574 11.4417 113.19 12.125C112.974 12.5083 112.74 12.9583 112.49 13.475C112.24 13.9917 112.115 14.4667 112.115 14.9C112.115 14.9667 112.115 15.0333 112.115 15.1C112.132 15.15 112.149 15.2083 112.165 15.275C112.232 15.5083 112.382 15.625 112.615 15.625ZM119.832 16.05C119.332 16.05 118.99 15.9333 118.807 15.7C118.623 15.45 118.532 15.15 118.532 14.8C118.532 14.3333 118.632 13.8333 118.832 13.3C119.048 12.7667 119.223 12.35 119.357 12.05C119.14 12.2833 118.932 12.5083 118.732 12.725C118.532 12.9417 118.39 13.1 118.307 13.2C118.257 13.2667 118.215 13.3 118.182 13.3C118.148 13.3 118.132 13.2583 118.132 13.175C118.132 13.0417 118.173 12.9167 118.257 12.8C118.49 12.5 118.757 12.1833 119.057 11.85C119.357 11.5167 119.648 11.1667 119.932 10.8C120.265 10.1833 120.632 9.46667 121.032 8.65C121.448 7.81667 121.873 6.96667 122.307 6.1C122.757 5.21667 123.19 4.40833 123.607 3.675C124.04 2.925 124.423 2.325 124.757 1.875C125.04 1.75833 125.307 1.60833 125.557 1.425C125.823 1.24167 126.082 1.075 126.332 0.924999C126.598 0.758332 126.873 0.674999 127.157 0.674999C127.34 0.674999 127.473 0.724999 127.557 0.824999C127.657 0.924999 127.723 1.04167 127.757 1.175C127.773 1.225 127.782 1.31667 127.782 1.45C127.782 1.83333 127.648 2.3 127.382 2.85C127.132 3.4 126.832 3.94167 126.482 4.475C126.148 4.99167 125.857 5.41667 125.607 5.75C124.94 6.68333 124.257 7.53333 123.557 8.3C122.857 9.05 122.223 9.68333 121.657 10.2C121.107 10.7 120.707 11.0667 120.457 11.3C120.34 11.5167 120.198 11.8083 120.032 12.175C119.882 12.525 119.748 12.9 119.632 13.3C119.515 13.6833 119.457 14.0417 119.457 14.375C119.457 14.6583 119.523 14.9 119.657 15.1C119.79 15.2833 120.015 15.375 120.332 15.375C120.382 15.375 120.432 15.375 120.482 15.375C120.532 15.375 120.59 15.3667 120.657 15.35C120.94 15.3 121.248 15.1417 121.582 14.875C121.915 14.6083 122.248 14.3 122.582 13.95C122.915 13.6 123.215 13.2667 123.482 12.95C123.598 12.8167 123.707 12.6917 123.807 12.575C123.907 12.4417 123.973 12.35 124.007 12.3C124.123 12.4167 124.115 12.5667 123.982 12.75C123.865 12.9167 123.765 13.0583 123.682 13.175C123.565 13.325 123.398 13.5333 123.182 13.8C122.965 14.05 122.715 14.325 122.432 14.625C122.115 14.9417 121.723 15.2583 121.257 15.575C120.79 15.8917 120.315 16.05 119.832 16.05ZM120.882 10.3C121.398 9.86667 122.048 9.25 122.832 8.45C123.632 7.63333 124.415 6.65 125.182 5.5C125.265 5.36667 125.398 5.14167 125.582 4.825C125.782 4.50833 125.982 4.15 126.182 3.75C126.398 3.33333 126.582 2.93333 126.732 2.55C126.882 2.15 126.957 1.80833 126.957 1.525C126.957 1.25833 126.882 1.125 126.732 1.125C126.548 1.125 126.307 1.28333 126.007 1.6C125.657 1.96667 125.257 2.50833 124.807 3.225C124.373 3.925 123.915 4.70833 123.432 5.575C122.948 6.44167 122.482 7.29167 122.032 8.125C121.598 8.95833 121.215 9.68333 120.882 10.3ZM126.928 16.075C126.762 16.075 126.62 16.0417 126.503 15.975C126.387 15.9083 126.328 15.7833 126.328 15.6C126.328 15.3667 126.387 15.1 126.503 14.8C126.62 14.5 126.753 14.2083 126.903 13.925C127.053 13.625 127.187 13.3833 127.303 13.2C126.72 13.8167 126.112 14.4 125.478 14.95C125.162 15.2167 124.812 15.4667 124.428 15.7C124.045 15.9333 123.637 16.05 123.203 16.05C123.037 16.05 122.92 16 122.853 15.9C122.787 15.7833 122.753 15.65 122.753 15.5C122.753 15.4167 122.762 15.3583 122.778 15.325C122.862 14.675 123.07 14 123.403 13.3C123.737 12.6 124.145 11.9417 124.628 11.325C125.112 10.7083 125.603 10.2083 126.103 9.825C126.67 9.39167 127.295 9.175 127.978 9.175H130.853C130.937 9.175 130.978 9.20833 130.978 9.275C130.978 9.40833 130.903 9.475 130.753 9.475C130.587 9.475 130.42 9.58333 130.253 9.8C130.087 10 129.962 10.1667 129.878 10.3C129.762 10.4833 129.578 10.7917 129.328 11.225C129.078 11.6583 128.82 12.1333 128.553 12.65C128.303 13.15 128.087 13.6167 127.903 14.05C127.72 14.4833 127.628 14.8 127.628 15C127.628 15.2333 127.745 15.35 127.978 15.35C128.228 15.35 128.512 15.2333 128.828 15C129.145 14.7667 129.462 14.4833 129.778 14.15C130.112 13.8 130.412 13.4583 130.678 13.125C130.962 12.775 131.187 12.5 131.353 12.3C131.453 12.4 131.445 12.5417 131.328 12.725C131.228 12.8917 131.137 13.025 131.053 13.125C130.72 13.5583 130.337 14.0083 129.903 14.475C129.47 14.925 128.995 15.3083 128.478 15.625C127.978 15.925 127.462 16.075 126.928 16.075ZM124.228 15.2C124.428 15.2 124.703 15.0583 125.053 14.775C125.42 14.475 125.812 14.1083 126.228 13.675C126.645 13.225 127.037 12.7583 127.403 12.275C127.77 11.775 128.07 11.325 128.303 10.925C128.553 10.5083 128.678 10.1917 128.678 9.975C128.678 9.79167 128.62 9.66667 128.503 9.6C128.403 9.53333 128.27 9.5 128.103 9.5C127.837 9.5 127.545 9.6 127.228 9.8C126.928 9.98333 126.687 10.1667 126.503 10.35C126.303 10.5333 126.062 10.825 125.778 11.225C125.512 11.6083 125.245 12.0333 124.978 12.5C124.712 12.9667 124.487 13.4167 124.303 13.85C124.12 14.2833 124.028 14.6333 124.028 14.9C124.028 15.1 124.095 15.2 124.228 15.2Z"
        fill="#262626" />
</svg>