<svg width="573" height="23" viewBox="0 0 573 23" fill="none" xmlns="http://www.w3.org/2000/svg">
<g clip-path="url(#clip0_34_30)">
<path d="M11.1231 3.62L13.0031 3.3V17.7L11.1231 18V6.78L2.66313 17.64V17.7L0.803125 18V3.62L2.66313 3.3V17.14L11.1231 6.26V3.62ZM25.5328 6.74C28.6728 6.74 31.1728 8.62 31.1728 12.38C31.1728 16.14 28.6728 18 25.5328 18C22.4128 18 19.9128 16.14 19.9128 12.4C18.2728 12.56 17.7128 14.04 17.7128 15.5V17.7L15.8528 18V7.06L17.7128 6.74V13.24C18.2328 12.54 19.0528 12.1 19.9128 12.08C20.0528 8.52 22.4928 6.74 25.5328 6.74ZM26.1728 17.7C28.6728 17.7 29.2928 14.88 29.2928 12.38C29.2928 8.62 26.7928 7.06 24.9128 7.06C22.4128 7.06 21.7928 9.88 21.7928 12.38C21.7928 16.14 24.2928 17.7 26.1728 17.7ZM41.3556 7.06L43.2356 6.74V17.7L41.3556 18V10.82C39.1756 10.82 37.2956 12.06 35.0956 12.06V17.7L33.2356 18V7.06L35.0956 6.74V11.76C37.2956 11.76 39.1756 10.5 41.3556 10.5V7.06ZM50.6966 11.12C53.5166 11.12 55.6966 12.06 55.6966 14.56C55.6966 17.08 53.1966 18 50.3766 18C49.4366 18.04 48.4766 17.94 47.5566 17.7L45.6966 18V7.06L47.5566 6.74V11.58C48.1566 11.32 49.1366 11.12 50.6966 11.12ZM50.3766 17.7C52.8766 17.7 53.8166 16.14 53.8166 14.56C53.8166 12.5 52.5766 11.44 50.3766 11.44C48.8166 11.44 47.8166 11.88 47.5566 12.38V17.38C48.4766 17.62 49.4366 17.72 50.3766 17.7ZM80.8777 2.8H82.3377V22.82H80.8777V2.8ZM118.838 3.62L120.718 3.3V17.7L118.838 18V6.78L110.378 17.64V17.7L108.518 18V3.62L110.378 3.3V17.14L118.838 6.26V3.62ZM133.248 6.74C136.388 6.74 138.888 8.62 138.888 12.38C138.888 16.14 136.388 18 133.248 18C130.128 18 127.628 16.14 127.628 12.4C125.988 12.56 125.428 14.04 125.428 15.5V17.7L123.568 18V7.06L125.428 6.74V13.24C125.948 12.54 126.768 12.1 127.628 12.08C127.768 8.52 130.208 6.74 133.248 6.74ZM133.888 17.7C136.388 17.7 137.008 14.88 137.008 12.38C137.008 8.62 134.508 7.06 132.628 7.06C130.128 7.06 129.508 9.88 129.508 12.38C129.508 16.14 132.008 17.7 133.888 17.7ZM147.665 7.06L149.545 6.74V17.7L147.665 18V7.38H142.625C142.405 9.66 142.325 11.96 142.345 14.26C142.345 16.76 141.085 18 139.525 18L139.225 17.7C140.785 17.7 142.025 16.76 142.025 13.94C141.985 11.64 142.105 9.34 142.345 7.06H147.665ZM157.005 11.12C159.825 11.12 162.005 12.06 162.005 14.56C162.005 17.08 159.505 18 156.685 18C155.745 18.04 154.785 17.94 153.865 17.7L152.005 18V7.06L153.865 6.74V11.58C154.465 11.32 155.445 11.12 157.005 11.12ZM156.685 17.7C159.185 17.7 160.125 16.14 160.125 14.56C160.125 12.5 158.885 11.44 156.685 11.44C155.125 11.44 154.125 11.88 153.865 12.38V17.38C154.785 17.62 155.745 17.72 156.685 17.7ZM492.624 3.3C496.684 3.3 500.124 5.5 500.124 10.5C500.124 15.5 496.684 18 492.624 18C488.564 18 485.124 15.5 485.124 10.5C485.124 5.5 488.564 3.3 492.624 3.3ZM493.244 17.7C497.004 17.7 498.244 13.94 498.244 10.5C498.244 5.5 494.804 3.62 492.004 3.62C488.244 3.62 486.984 7.06 486.984 10.5C486.984 15.5 490.424 17.7 493.244 17.7ZM506.178 11.48C509.358 11.84 511.238 15.92 511.238 17.72L509.978 18C509.978 16.46 508.878 11.88 505.838 11.78L504.158 13.18V17.72L502.298 18.02V7.08L504.158 6.76V12.78L505.738 11.46L511.338 6.74L511.558 6.98L506.178 11.48ZM522.234 7.06V7.38H518.174V17.7L516.294 18V7.38H512.234V7.06H516.294L518.174 6.74V7.06H522.234ZM531.269 7.06L533.149 6.74V17.7L531.269 18V13.62H528.769C524.709 13.62 524.709 16.44 524.709 18L523.449 17.7C523.449 16.18 524.269 14.24 526.929 13.56C524.729 13.32 523.149 12.32 523.149 10.18C523.149 7.68 525.649 6.74 528.449 6.74C529.409 6.72 530.349 6.82 531.269 7.06ZM531.269 13.32V7.38C530.349 7.14 529.409 7.02 528.469 7.06C525.949 7.06 525.009 8.62 525.009 10.18C525.009 12.24 526.269 13.32 528.469 13.32H531.269ZM541.159 6.74C544.279 6.74 546.799 8.62 546.799 12.38C546.799 16.14 544.279 18 541.159 18C538.039 18 535.539 16.14 535.539 12.38C535.539 4.24 538.039 1.74 540.839 1.74C544.279 1.74 545.539 0.8 545.539 0.8L545.859 2.06C544.199 2.3 542.519 2.4 540.839 2.36C538.459 2.36 536.759 4.16 536.279 9.28C537.259 7.6 539.059 6.74 541.159 6.74ZM541.779 17.7C544.279 17.7 544.919 14.88 544.919 12.38C544.919 8.62 542.419 7.06 540.539 7.06C538.039 7.06 537.399 9.88 537.399 12.38C537.399 16.14 539.899 17.7 541.779 17.7ZM554.5 6.74C557.62 6.74 560.14 8.62 560.14 12.38C560.14 16.14 557.62 18 554.5 18C553.14 18.04 551.82 17.62 550.74 16.8V21.46L548.88 21.76V7.38L550.74 7.06V7.96C551.82 7.14 553.14 6.7 554.5 6.74ZM555.12 17.7C557.62 17.7 558.26 14.88 558.26 12.38C558.26 8.62 555.76 7.06 553.88 7.06C552.62 7.12 551.46 7.74 550.74 8.78V15.66C551.88 16.88 553.46 17.62 555.12 17.7ZM567.2 11.12C570.02 11.12 572.2 12.06 572.2 14.56C572.2 17.08 569.7 18 566.88 18C565.94 18.04 564.98 17.94 564.06 17.7L562.2 18V7.06L564.06 6.74V11.58C564.66 11.32 565.64 11.12 567.2 11.12ZM566.88 17.7C569.38 17.7 570.32 16.14 570.32 14.56C570.32 12.5 569.08 11.44 566.88 11.44C565.32 11.44 564.32 11.88 564.06 12.38V17.38C564.98 17.62 565.94 17.72 566.88 17.7Z" fill="#979797"/>
<path d="M187.186 2.8H188.646V22.82H187.186V2.8ZM307.323 2.8H308.783V22.82H307.323V2.8ZM458.143 2.8H459.603V22.82H458.143V2.8Z" fill="#820201"/>
<path d="M346.803 14.88L347.343 15.88C345.863 17.3 343.863 18.08 341.803 18C337.743 18 334.303 15.5 334.303 10.5C334.303 5.5 337.743 3.3 341.803 3.3C343.463 3.28 345.083 3.74 346.443 4.68L345.903 5.94C344.763 4.5 343.023 3.64 341.183 3.62C337.423 3.62 336.163 7.06 336.163 10.5C336.163 15.5 339.603 17.7 342.423 17.7C344.303 17.66 345.983 16.56 346.803 14.88ZM354.935 17.7C356.215 17.6 357.375 16.9 358.075 15.82L358.375 16.44C357.435 17.38 355.615 18.02 354.315 18.02C351.375 18.02 348.975 16.34 348.715 13C348.695 12.8 348.695 12.6 348.695 12.38C348.695 8.62 351.195 6.74 354.315 6.74C354.475 6.74 354.655 6.76 354.815 6.76C354.875 6.76 354.935 6.78 354.995 6.78C355.095 6.8 355.195 6.8 355.295 6.82C355.375 6.82 355.435 6.84 355.515 6.84C355.595 6.86 355.675 6.88 355.755 6.9C355.835 6.92 355.915 6.94 355.995 6.94C356.075 6.96 356.135 6.98 356.215 7C356.295 7.02 356.375 7.06 356.435 7.08C356.515 7.1 356.575 7.12 356.655 7.16C356.715 7.18 356.795 7.22 356.875 7.24C356.935 7.28 356.995 7.3 357.055 7.32C357.135 7.36 357.215 7.4 357.275 7.44C357.335 7.48 357.395 7.5 357.455 7.54C357.535 7.58 357.595 7.62 357.655 7.66C357.695 7.68 357.735 7.7 357.755 7.72C358.895 8.52 359.655 9.76 359.835 11.12H358.075C355.435 11.12 353.175 12.28 350.555 12.36V12.38C350.555 16.14 353.055 17.7 354.935 17.7ZM353.695 7.06C351.295 7.06 350.615 9.64 350.575 12.06C353.115 11.96 355.335 10.86 357.895 10.82C357.755 10.16 357.495 9.54 357.135 8.98C357.035 8.82 356.915 8.68 356.815 8.56C356.795 8.54 356.755 8.5 356.735 8.48C356.655 8.38 356.555 8.28 356.455 8.18C356.415 8.16 356.375 8.12 356.355 8.1C356.235 8 356.115 7.9 355.975 7.8C355.835 7.7 355.695 7.62 355.555 7.56C355.535 7.54 355.495 7.52 355.455 7.5C355.355 7.44 355.235 7.4 355.115 7.34C355.095 7.34 355.055 7.32 355.035 7.32C354.895 7.26 354.755 7.22 354.615 7.18C354.595 7.18 354.555 7.16 354.535 7.16C354.415 7.14 354.315 7.12 354.195 7.1C354.155 7.1 354.115 7.08 354.095 7.08C353.955 7.06 353.815 7.06 353.695 7.06ZM369.715 7.06L371.595 6.74V17.7L369.715 18V10.82C367.535 10.82 365.655 12.06 363.455 12.06V17.7L361.595 18V7.06L363.455 6.74V11.76C365.655 11.76 367.535 10.5 369.715 10.5V7.06ZM382.996 7.06V7.38H378.936V17.7L377.056 18V7.38H372.996V7.06H377.056L378.936 6.74V7.06H382.996ZM392.03 7.06L393.91 6.74V17.7L392.03 18V13.62H389.53C385.47 13.62 385.47 16.44 385.47 18L384.21 17.7C384.21 16.18 385.03 14.24 387.69 13.56C385.49 13.32 383.91 12.32 383.91 10.18C383.91 7.68 386.41 6.74 389.21 6.74C390.17 6.72 391.11 6.82 392.03 7.06ZM392.03 13.32V7.38C391.11 7.14 390.17 7.02 389.23 7.06C386.71 7.06 385.77 8.62 385.77 10.18C385.77 12.24 387.03 13.32 389.23 13.32H392.03ZM401.921 6.74C405.041 6.74 407.561 8.62 407.561 12.38C407.561 16.14 405.041 18 401.921 18C398.801 18 396.301 16.14 396.301 12.38C396.301 4.24 398.801 1.74 401.601 1.74C405.041 1.74 406.301 0.8 406.301 0.8L406.621 2.06C404.961 2.3 403.281 2.4 401.601 2.36C399.221 2.36 397.521 4.16 397.041 9.28C398.021 7.6 399.821 6.74 401.921 6.74ZM402.541 17.7C405.041 17.7 405.681 14.88 405.681 12.38C405.681 8.62 403.181 7.06 401.301 7.06C398.801 7.06 398.161 9.88 398.161 12.38C398.161 16.14 400.661 17.7 402.541 17.7ZM415.262 6.74C418.382 6.74 420.902 8.62 420.902 12.38C420.902 16.14 418.382 18 415.262 18C413.902 18.04 412.582 17.62 411.502 16.8V21.46L409.642 21.76V7.38L411.502 7.06V7.96C412.582 7.14 413.902 6.7 415.262 6.74ZM415.882 17.7C418.382 17.7 419.022 14.88 419.022 12.38C419.022 8.62 416.522 7.06 414.642 7.06C413.382 7.12 412.222 7.74 411.502 8.78V15.66C412.642 16.88 414.222 17.62 415.882 17.7ZM427.962 11.12C430.782 11.12 432.962 12.06 432.962 14.56C432.962 17.08 430.462 18 427.642 18C426.702 18.04 425.742 17.94 424.822 17.7L422.962 18V7.06L424.822 6.74V11.58C425.422 11.32 426.402 11.12 427.962 11.12ZM427.642 17.7C430.142 17.7 431.082 16.14 431.082 14.56C431.082 12.5 429.842 11.44 427.642 11.44C426.082 11.44 425.082 11.88 424.822 12.38V17.38C425.742 17.62 426.702 17.72 427.642 17.7Z" fill="#979797"/>
<path d="M223.504 4.453L228.14 16.404C228.33 16.8853 228.546 17.2083 228.786 17.373C229.027 17.525 229.249 17.6073 229.451 17.62V18C229.198 17.9747 228.888 17.962 228.52 17.962C228.153 17.9493 227.786 17.943 227.418 17.943C226.924 17.943 226.462 17.9493 226.031 17.962C225.601 17.962 225.252 17.9747 224.986 18V17.62C225.632 17.5947 226.044 17.487 226.221 17.297C226.399 17.0943 226.361 16.67 226.107 16.024L222.573 6.581L222.877 6.334L219.571 14.922C219.369 15.4287 219.248 15.8593 219.21 16.214C219.172 16.556 219.204 16.8283 219.305 17.031C219.419 17.2337 219.603 17.3793 219.856 17.468C220.122 17.5567 220.452 17.6073 220.844 17.62V18C220.49 17.9747 220.116 17.962 219.723 17.962C219.343 17.9493 218.989 17.943 218.659 17.943C218.343 17.943 218.07 17.9493 217.842 17.962C217.627 17.962 217.424 17.9747 217.234 18V17.62C217.488 17.5567 217.747 17.411 218.013 17.183C218.279 16.9423 218.52 16.537 218.735 15.967L223.2 4.453C223.251 4.453 223.302 4.453 223.352 4.453C223.403 4.453 223.454 4.453 223.504 4.453ZM225.822 12.528V12.908H220.16L220.35 12.528H225.822ZM234.617 8.234C235.554 8.234 236.289 8.329 236.821 8.519C237.366 8.709 237.752 8.98133 237.98 9.336C238.208 9.678 238.322 10.077 238.322 10.533C238.322 11.1917 237.974 11.768 237.277 12.262C236.593 12.756 235.554 13.003 234.161 13.003C234.161 13.003 234.129 12.9903 234.066 12.965C234.015 12.9397 233.958 12.9143 233.895 12.889C233.832 12.8637 233.8 12.851 233.8 12.851C234.56 12.8383 235.136 12.756 235.529 12.604C235.934 12.4393 236.207 12.1987 236.346 11.882C236.498 11.5653 236.574 11.1663 236.574 10.685C236.574 10.2923 236.517 9.944 236.403 9.64C236.302 9.32333 236.093 9.07633 235.776 8.899C235.472 8.72167 235.022 8.633 234.427 8.633C233.92 8.633 233.559 8.73433 233.344 8.937C233.141 9.127 233.04 9.48167 233.04 10.001V16.233C233.04 16.765 233.141 17.126 233.344 17.316C233.559 17.506 233.939 17.601 234.484 17.601C235.193 17.601 235.738 17.4933 236.118 17.278C236.511 17.0627 236.777 16.7777 236.916 16.423C237.068 16.0683 237.144 15.682 237.144 15.264C237.144 14.4533 236.916 13.9023 236.46 13.611C236.017 13.3197 235.447 13.174 234.75 13.174H231.862C231.862 13.174 231.862 13.1233 231.862 13.022C231.862 12.908 231.862 12.851 231.862 12.851H234.579L234.75 12.889C235.763 12.889 236.574 12.984 237.182 13.174C237.803 13.3513 238.246 13.6173 238.512 13.972C238.791 14.314 238.93 14.7383 238.93 15.245C238.93 15.7517 238.791 16.214 238.512 16.632C238.246 17.05 237.803 17.3857 237.182 17.639C236.561 17.8797 235.725 18 234.674 18C234.281 18 233.876 17.9873 233.458 17.962C233.04 17.9367 232.597 17.924 232.128 17.924C231.735 17.924 231.317 17.9367 230.874 17.962C230.431 17.9747 230.101 17.9873 229.886 18V17.601C230.405 17.601 230.773 17.506 230.988 17.316C231.216 17.126 231.33 16.765 231.33 16.233V10.001C231.33 9.469 231.216 9.108 230.988 8.918C230.773 8.728 230.405 8.633 229.886 8.633V8.234C230.101 8.24667 230.431 8.26567 230.874 8.291C231.317 8.30367 231.735 8.31 232.128 8.31C232.584 8.31 233.027 8.29733 233.458 8.272C233.889 8.24667 234.275 8.234 234.617 8.234ZM247.972 8.234C247.921 8.67733 247.883 9.10167 247.858 9.507C247.845 9.91233 247.839 10.2227 247.839 10.438C247.839 10.666 247.845 10.8877 247.858 11.103C247.871 11.3057 247.883 11.4767 247.896 11.616H247.459C247.396 10.8687 247.307 10.2797 247.193 9.849C247.092 9.40567 246.908 9.089 246.642 8.899C246.389 8.709 246.002 8.614 245.483 8.614C245.356 8.614 245.223 8.614 245.084 8.614C244.945 8.614 244.805 8.614 244.666 8.614C244.21 8.614 243.887 8.71533 243.697 8.918C243.507 9.108 243.412 9.469 243.412 10.001V16.043C243.412 16.6637 243.589 17.0817 243.944 17.297C244.311 17.4997 244.805 17.601 245.426 17.601V18C245.135 17.9873 244.723 17.9747 244.191 17.962C243.659 17.9367 243.095 17.924 242.5 17.924C242.069 17.924 241.639 17.9367 241.208 17.962C240.79 17.9747 240.473 17.9873 240.258 18V17.601C240.777 17.601 241.145 17.506 241.36 17.316C241.588 17.126 241.702 16.765 241.702 16.233V10.001C241.702 9.469 241.588 9.108 241.36 8.918C241.145 8.728 240.777 8.633 240.258 8.633V8.234C240.473 8.24667 240.803 8.26567 241.246 8.291C241.689 8.30367 242.12 8.31 242.538 8.31C242.956 8.31 243.38 8.29733 243.811 8.272C244.242 8.24667 244.641 8.234 245.008 8.234H247.972ZM257.925 8.215V8.595C257.684 8.62033 257.463 8.728 257.26 8.918C257.057 9.108 256.867 9.44367 256.69 9.925L253.574 18.095H253.251L249.755 9.678C249.514 9.184 249.274 8.88633 249.033 8.785C248.805 8.671 248.615 8.614 248.463 8.614V8.215C248.742 8.253 249.033 8.28467 249.337 8.31C249.641 8.32267 249.97 8.329 250.325 8.329C250.718 8.329 251.129 8.31633 251.56 8.291C252.003 8.26567 252.415 8.24033 252.795 8.215V8.614C252.478 8.614 252.193 8.63933 251.94 8.69C251.699 8.728 251.547 8.861 251.484 9.089C251.421 9.30433 251.497 9.678 251.712 10.21L254.049 16.005L253.935 16.043L256.101 10.381C256.266 9.963 256.329 9.63367 256.291 9.393C256.266 9.13967 256.139 8.94967 255.911 8.823C255.683 8.69633 255.341 8.62033 254.885 8.595V8.215C255.113 8.22767 255.309 8.24033 255.474 8.253C255.639 8.253 255.797 8.25933 255.949 8.272C256.114 8.272 256.291 8.272 256.481 8.272C256.772 8.272 257.032 8.26567 257.26 8.253C257.501 8.24033 257.722 8.22767 257.925 8.215ZM253.574 18.095L252.928 19.748C252.801 20.0647 252.668 20.3307 252.529 20.546C252.402 20.7613 252.263 20.9387 252.111 21.078C251.908 21.268 251.668 21.3947 251.389 21.458C251.11 21.534 250.857 21.572 250.629 21.572C250.388 21.572 250.167 21.5277 249.964 21.439C249.774 21.3503 249.622 21.2173 249.508 21.04C249.394 20.8753 249.337 20.6727 249.337 20.432C249.337 20.128 249.426 19.881 249.603 19.691C249.78 19.5137 250.027 19.425 250.344 19.425C250.61 19.425 250.838 19.501 251.028 19.653C251.218 19.805 251.313 20.0267 251.313 20.318C251.313 20.5333 251.262 20.7107 251.161 20.85C251.06 20.9893 250.939 21.097 250.8 21.173C250.825 21.1857 250.844 21.192 250.857 21.192C250.882 21.192 250.901 21.192 250.914 21.192C251.256 21.192 251.56 21.0717 251.826 20.831C252.092 20.603 252.326 20.2293 252.529 19.71L253.213 17.943L253.574 18.095ZM263.173 7.949C263.578 7.949 263.971 7.99967 264.351 8.101C264.731 8.20233 265.073 8.35433 265.377 8.557C265.668 8.747 265.89 8.96867 266.042 9.222C266.194 9.46267 266.27 9.72867 266.27 10.02C266.27 10.362 266.175 10.628 265.985 10.818C265.795 10.9953 265.554 11.084 265.263 11.084C264.984 11.084 264.737 11.0017 264.522 10.837C264.319 10.6723 264.218 10.438 264.218 10.134C264.218 9.84267 264.294 9.60833 264.446 9.431C264.611 9.25367 264.801 9.13967 265.016 9.089C264.889 8.861 264.661 8.671 264.332 8.519C264.015 8.367 263.673 8.291 263.306 8.291C262.989 8.291 262.673 8.367 262.356 8.519C262.039 8.671 261.748 8.92433 261.482 9.279C261.216 9.621 261.001 10.096 260.836 10.704C260.671 11.2993 260.589 12.0467 260.589 12.946C260.589 14.0607 260.716 14.9473 260.969 15.606C261.222 16.2647 261.552 16.7397 261.957 17.031C262.375 17.3097 262.831 17.449 263.325 17.449C263.654 17.449 263.99 17.3857 264.332 17.259C264.674 17.1323 264.997 16.9297 265.301 16.651C265.605 16.3597 265.865 15.9733 266.08 15.492L266.441 15.625C266.314 16.0303 266.105 16.442 265.814 16.86C265.523 17.2653 265.143 17.601 264.674 17.867C264.205 18.133 263.629 18.266 262.945 18.266C262.16 18.266 261.45 18.0633 260.817 17.658C260.184 17.2527 259.677 16.6763 259.297 15.929C258.93 15.169 258.746 14.2697 258.746 13.231C258.746 12.1923 258.93 11.2803 259.297 10.495C259.677 9.697 260.203 9.07633 260.874 8.633C261.545 8.177 262.312 7.949 263.173 7.949ZM277.03 8.234C276.98 8.67733 276.942 9.10167 276.916 9.507C276.904 9.91233 276.897 10.2227 276.897 10.438C276.897 10.666 276.904 10.8877 276.916 11.103C276.929 11.3057 276.942 11.4767 276.954 11.616H276.517C276.454 10.742 276.321 10.0897 276.118 9.659C275.916 9.22833 275.637 8.94967 275.282 8.823C274.928 8.68367 274.491 8.614 273.971 8.614H273.23V16.043C273.23 16.6637 273.408 17.0817 273.762 17.297C274.13 17.4997 274.624 17.601 275.244 17.601V18C274.953 17.9873 274.548 17.9747 274.028 17.962C273.522 17.9367 272.971 17.924 272.375 17.924C271.793 17.924 271.242 17.9367 270.722 17.962C270.203 17.9747 269.798 17.9873 269.506 18V17.601C270.14 17.601 270.634 17.4997 270.988 17.297C271.343 17.0817 271.52 16.6637 271.52 16.043V8.614H270.589C270.07 8.614 269.646 8.68367 269.316 8.823C269 8.96233 268.753 9.24733 268.575 9.678C268.411 10.1087 268.297 10.761 268.233 11.635H267.796C267.822 11.4957 267.834 11.3247 267.834 11.122C267.847 10.9067 267.853 10.685 267.853 10.457C267.853 10.2417 267.841 9.93133 267.815 9.526C267.803 9.12067 267.771 8.69633 267.72 8.253H269.544C269.975 8.253 270.431 8.25933 270.912 8.272C271.406 8.28467 271.888 8.291 272.356 8.291C272.838 8.291 273.325 8.28467 273.819 8.272C274.313 8.24667 274.776 8.234 275.206 8.234H277.03Z" fill="#262626"/>
</g>
<defs>
<clipPath id="clip0_34_30">
<rect width="573" height="23" fill="white"/>
</clipPath>
</defs>
</svg>
