<svg width="499" height="25" viewBox="0 0 499 25" fill="none" xmlns="http://www.w3.org/2000/svg">
<path d="M7.25001 11.55L2.62501 18.95H1.22506e-05L5.00001 11.15C4.36668 10.9333 3.76668 10.6333 3.20001 10.25C2.65001 9.86662 2.20001 9.34162 1.85001 8.67495C1.50001 8.00828 1.32501 7.14995 1.32501 6.09995C1.32501 4.48328 1.88335 3.24995 3.00001 2.39995C4.11668 1.53328 5.78335 1.09995 8.00001 1.09995H13V18.95H10.75V11.55H7.25001ZM8.05001 3.02495C7.10001 3.02495 6.30001 3.13328 5.65001 3.34995C5.00001 3.56662 4.50001 3.90828 4.15001 4.37495C3.81668 4.84162 3.65001 5.44995 3.65001 6.19995C3.65001 7.29995 4.01668 8.14995 4.75001 8.74995C5.48335 9.34995 6.61668 9.64995 8.15001 9.64995H10.75V3.02495H8.05001ZM19.7418 5.54995V11.125H27.0168V5.54995H29.2168V18.95H27.0168V12.975H19.7418V18.95H17.5418V5.54995H19.7418ZM44.2348 8.92495C44.2348 9.75828 43.9848 10.4083 43.4848 10.875C42.9848 11.3416 42.3431 11.6583 41.5598 11.825V11.925C42.3931 12.0416 43.1181 12.3416 43.7348 12.825C44.3514 13.2916 44.6598 14.025 44.6598 15.025C44.6598 15.5916 44.5514 16.1166 44.3348 16.6C44.1348 17.0833 43.8181 17.5 43.3848 17.85C42.9514 18.2 42.3931 18.475 41.7098 18.675C41.0264 18.8583 40.2014 18.95 39.2348 18.95H33.4598V5.54995H39.2098C40.1598 5.54995 41.0098 5.65828 41.7598 5.87495C42.5264 6.07495 43.1264 6.42495 43.5598 6.92495C44.0098 7.40828 44.2348 8.07495 44.2348 8.92495ZM42.3848 15.025C42.3848 14.2583 42.0931 13.7083 41.5098 13.375C40.9264 13.0416 40.0681 12.875 38.9348 12.875H35.6598V17.175H38.9848C40.0848 17.175 40.9264 17.0166 41.5098 16.7C42.0931 16.3666 42.3848 15.8083 42.3848 15.025ZM42.0098 9.19995C42.0098 8.56662 41.7764 8.10828 41.3098 7.82495C40.8598 7.52495 40.1181 7.37495 39.0848 7.37495H35.6598V11.05H38.6848C39.7681 11.05 40.5931 10.9 41.1598 10.6C41.7264 10.3 42.0098 9.83328 42.0098 9.19995ZM52.9391 5.32495C54.5724 5.32495 55.7807 5.68328 56.5641 6.39995C57.3474 7.11662 57.7391 8.25828 57.7391 9.82495V18.95H56.1391L55.7141 17.05H55.6141C55.2307 17.5333 54.8307 17.9416 54.4141 18.275C54.0141 18.5916 53.5474 18.825 53.0141 18.975C52.4974 19.125 51.8641 19.2 51.1141 19.2C50.3141 19.2 49.5891 19.0583 48.9391 18.775C48.3057 18.4916 47.8057 18.0583 47.4391 17.475C47.0724 16.875 46.8891 16.125 46.8891 15.225C46.8891 13.8916 47.4141 12.8666 48.4641 12.15C49.5141 11.4166 51.1307 11.0166 53.3141 10.95L55.5891 10.875V10.075C55.5891 8.95828 55.3474 8.18328 54.8641 7.74995C54.3807 7.31662 53.6974 7.09995 52.8141 7.09995C52.1141 7.09995 51.4474 7.20828 50.8141 7.42495C50.1807 7.62495 49.5891 7.85828 49.0391 8.12495L48.3641 6.47495C48.9474 6.15828 49.6391 5.89162 50.4391 5.67495C51.2391 5.44162 52.0724 5.32495 52.9391 5.32495ZM53.5891 12.475C51.9224 12.5416 50.7641 12.8083 50.1141 13.275C49.4807 13.7416 49.1641 14.4 49.1641 15.25C49.1641 16 49.3891 16.55 49.8391 16.9C50.3057 17.25 50.8974 17.425 51.6141 17.425C52.7474 17.425 53.6891 17.1166 54.4391 16.5C55.1891 15.8666 55.5641 14.9 55.5641 13.6V12.4L53.5891 12.475ZM68.2527 5.29995C69.9027 5.29995 71.2277 5.87495 72.2277 7.02495C73.2444 8.17495 73.7527 9.90828 73.7527 12.225C73.7527 13.7416 73.5194 15.025 73.0527 16.075C72.6027 17.1083 71.9611 17.8916 71.1277 18.425C70.3111 18.9416 69.3444 19.2 68.2277 19.2C67.5444 19.2 66.9361 19.1083 66.4027 18.925C65.8694 18.7416 65.4111 18.5083 65.0277 18.225C64.6611 17.925 64.3444 17.6 64.0777 17.25H63.9277C63.9611 17.5333 63.9944 17.8916 64.0277 18.325C64.0611 18.7583 64.0777 19.1333 64.0777 19.45V24.95H61.8777V5.54995H63.6777L63.9777 7.37495H64.0777C64.3444 6.99162 64.6611 6.64162 65.0277 6.32495C65.4111 6.00828 65.8611 5.75828 66.3777 5.57495C66.9111 5.39162 67.5361 5.29995 68.2527 5.29995ZM67.8527 7.14995C66.9527 7.14995 66.2277 7.32495 65.6777 7.67495C65.1277 8.00828 64.7277 8.51662 64.4777 9.19995C64.2277 9.88328 64.0944 10.75 64.0777 11.8V12.225C64.0777 13.325 64.1944 14.2583 64.4277 15.025C64.6611 15.7916 65.0527 16.375 65.6027 16.775C66.1694 17.175 66.9361 17.375 67.9027 17.375C68.7194 17.375 69.3861 17.15 69.9027 16.7C70.4361 16.25 70.8277 15.6416 71.0777 14.875C71.3444 14.0916 71.4777 13.2 71.4777 12.2C71.4777 10.6666 71.1777 9.44162 70.5777 8.52495C69.9944 7.60828 69.0861 7.14995 67.8527 7.14995ZM83.4336 11.05C84.6003 11.05 85.5669 11.1916 86.3336 11.475C87.1003 11.7583 87.6753 12.1833 88.0586 12.75C88.4586 13.3 88.6586 14 88.6586 14.85C88.6586 15.6833 88.4669 16.4083 88.0836 17.025C87.7169 17.6416 87.1419 18.1166 86.3586 18.45C85.5753 18.7833 84.5669 18.95 83.3336 18.95H77.2586V5.54995H79.4586V11.05H83.4336ZM86.4586 14.975C86.4586 14.1583 86.1669 13.6083 85.5836 13.325C85.0169 13.025 84.2169 12.875 83.1836 12.875H79.4586V17.175H83.2336C84.1669 17.175 84.9336 17.0083 85.5336 16.675C86.1503 16.3416 86.4586 15.775 86.4586 14.975ZM102.184 0.761475H103.906V21.7209H102.184V0.761475ZM127.055 0.84995V3.04995C128.988 3.08328 130.513 3.39995 131.63 3.99995C132.747 4.59995 133.538 5.39995 134.005 6.39995C134.472 7.38328 134.705 8.48328 134.705 9.69995C134.705 10.5 134.58 11.3 134.33 12.1C134.097 12.8833 133.688 13.6 133.105 14.25C132.522 14.8833 131.738 15.4 130.755 15.8C129.772 16.2 128.538 16.4166 127.055 16.45V19.2H124.83V16.45C123.313 16.4166 122.055 16.2 121.055 15.8C120.072 15.3833 119.297 14.85 118.73 14.2C118.163 13.5333 117.763 12.8083 117.53 12.025C117.297 11.2416 117.18 10.4666 117.18 9.69995C117.18 8.81662 117.305 7.98328 117.555 7.19995C117.822 6.39995 118.247 5.69995 118.83 5.09995C119.43 4.48328 120.222 3.99162 121.205 3.62495C122.188 3.25828 123.397 3.06662 124.83 3.04995V0.84995H127.055ZM124.83 4.94995C123.497 4.98328 122.43 5.19995 121.63 5.59995C120.847 5.99995 120.288 6.54995 119.955 7.24995C119.622 7.93328 119.455 8.74162 119.455 9.67495C119.455 10.6583 119.638 11.5166 120.005 12.25C120.388 12.9666 120.972 13.525 121.755 13.925C122.555 14.325 123.58 14.55 124.83 14.6V4.94995ZM127.055 14.6C128.338 14.55 129.372 14.3166 130.155 13.9C130.955 13.4833 131.53 12.9166 131.88 12.2C132.247 11.4666 132.43 10.625 132.43 9.67495C132.43 8.72495 132.263 7.90828 131.93 7.22495C131.597 6.52495 131.038 5.98328 130.255 5.59995C129.472 5.19995 128.405 4.98328 127.055 4.94995V14.6ZM143.298 5.29995C144.448 5.29995 145.431 5.54995 146.248 6.04995C147.081 6.54995 147.715 7.25828 148.148 8.17495C148.598 9.07495 148.823 10.1333 148.823 11.35V12.675H139.648C139.681 14.1916 140.065 15.35 140.798 16.15C141.548 16.9333 142.59 17.325 143.923 17.325C144.773 17.325 145.523 17.25 146.173 17.1C146.84 16.9333 147.523 16.7 148.223 16.4V18.325C147.54 18.625 146.865 18.8416 146.198 18.975C145.531 19.125 144.74 19.2 143.823 19.2C142.556 19.2 141.431 18.9416 140.448 18.425C139.481 17.9083 138.723 17.1416 138.173 16.125C137.64 15.0916 137.373 13.8333 137.373 12.35C137.373 10.8833 137.615 9.62495 138.098 8.57495C138.598 7.52495 139.29 6.71662 140.173 6.14995C141.073 5.58328 142.115 5.29995 143.298 5.29995ZM143.273 7.09995C142.223 7.09995 141.39 7.44162 140.773 8.12495C140.173 8.79162 139.815 9.72495 139.698 10.925H146.523C146.523 10.1583 146.406 9.49162 146.173 8.92495C145.94 8.35828 145.581 7.91662 145.098 7.59995C144.631 7.26662 144.023 7.09995 143.273 7.09995ZM163.009 8.92495C163.009 9.75828 162.759 10.4083 162.259 10.875C161.759 11.3416 161.118 11.6583 160.334 11.825V11.925C161.168 12.0416 161.893 12.3416 162.509 12.825C163.126 13.2916 163.434 14.025 163.434 15.025C163.434 15.5916 163.326 16.1166 163.109 16.6C162.909 17.0833 162.593 17.5 162.159 17.85C161.726 18.2 161.168 18.475 160.484 18.675C159.801 18.8583 158.976 18.95 158.009 18.95H152.234V5.54995H157.984C158.934 5.54995 159.784 5.65828 160.534 5.87495C161.301 6.07495 161.901 6.42495 162.334 6.92495C162.784 7.40828 163.009 8.07495 163.009 8.92495ZM161.159 15.025C161.159 14.2583 160.868 13.7083 160.284 13.375C159.701 13.0416 158.843 12.875 157.709 12.875H154.434V17.175H157.759C158.859 17.175 159.701 17.0166 160.284 16.7C160.868 16.3666 161.159 15.8083 161.159 15.025ZM160.784 9.19995C160.784 8.56662 160.551 8.10828 160.084 7.82495C159.634 7.52495 158.893 7.37495 157.859 7.37495H154.434V11.05H157.459C158.543 11.05 159.368 10.9 159.934 10.6C160.501 10.3 160.784 9.83328 160.784 9.19995ZM173.013 5.29995C174.663 5.29995 175.988 5.87495 176.988 7.02495C178.005 8.17495 178.513 9.90828 178.513 12.225C178.513 13.7416 178.28 15.025 177.813 16.075C177.363 17.1083 176.722 17.8916 175.888 18.425C175.072 18.9416 174.105 19.2 172.988 19.2C172.305 19.2 171.697 19.1083 171.163 18.925C170.63 18.7416 170.172 18.5083 169.788 18.225C169.422 17.925 169.105 17.6 168.838 17.25H168.688C168.722 17.5333 168.755 17.8916 168.788 18.325C168.822 18.7583 168.838 19.1333 168.838 19.45V24.95H166.638V5.54995H168.438L168.738 7.37495H168.838C169.105 6.99162 169.422 6.64162 169.788 6.32495C170.172 6.00828 170.622 5.75828 171.138 5.57495C171.672 5.39162 172.297 5.29995 173.013 5.29995ZM172.613 7.14995C171.713 7.14995 170.988 7.32495 170.438 7.67495C169.888 8.00828 169.488 8.51662 169.238 9.19995C168.988 9.88328 168.855 10.75 168.838 11.8V12.225C168.838 13.325 168.955 14.2583 169.188 15.025C169.422 15.7916 169.813 16.375 170.363 16.775C170.93 17.175 171.697 17.375 172.663 17.375C173.48 17.375 174.147 17.15 174.663 16.7C175.197 16.25 175.588 15.6416 175.838 14.875C176.105 14.0916 176.238 13.2 176.238 12.2C176.238 10.6666 175.938 9.44162 175.338 8.52495C174.755 7.60828 173.847 7.14995 172.613 7.14995ZM187.094 5.32495C188.728 5.32495 189.936 5.68328 190.719 6.39995C191.503 7.11662 191.894 8.25828 191.894 9.82495V18.95H190.294L189.869 17.05H189.769C189.386 17.5333 188.986 17.9416 188.569 18.275C188.169 18.5916 187.703 18.825 187.169 18.975C186.653 19.125 186.019 19.2 185.269 19.2C184.469 19.2 183.744 19.0583 183.094 18.775C182.461 18.4916 181.961 18.0583 181.594 17.475C181.228 16.875 181.044 16.125 181.044 15.225C181.044 13.8916 181.569 12.8666 182.619 12.15C183.669 11.4166 185.286 11.0166 187.469 10.95L189.744 10.875V10.075C189.744 8.95828 189.503 8.18328 189.019 7.74995C188.536 7.31662 187.853 7.09995 186.969 7.09995C186.269 7.09995 185.603 7.20828 184.969 7.42495C184.336 7.62495 183.744 7.85828 183.194 8.12495L182.519 6.47495C183.103 6.15828 183.794 5.89162 184.594 5.67495C185.394 5.44162 186.228 5.32495 187.094 5.32495ZM187.744 12.475C186.078 12.5416 184.919 12.8083 184.269 13.275C183.636 13.7416 183.319 14.4 183.319 15.25C183.319 16 183.544 16.55 183.994 16.9C184.461 17.25 185.053 17.425 185.769 17.425C186.903 17.425 187.844 17.1166 188.594 16.5C189.344 15.8666 189.719 14.9 189.719 13.6V12.4L187.744 12.475ZM206.233 18.95H204.008V7.37495H200.058C199.891 9.49162 199.683 11.3 199.433 12.8C199.183 14.2833 198.866 15.4916 198.483 16.425C198.1 17.3583 197.641 18.0416 197.108 18.475C196.575 18.9083 195.95 19.125 195.233 19.125C195.016 19.125 194.8 19.1083 194.583 19.075C194.383 19.0583 194.216 19.0166 194.083 18.95V17.3C194.183 17.3333 194.291 17.3583 194.408 17.375C194.525 17.3916 194.641 17.4 194.758 17.4C195.125 17.4 195.458 17.25 195.758 16.95C196.058 16.65 196.325 16.1916 196.558 15.575C196.808 14.9583 197.033 14.1833 197.233 13.25C197.433 12.3 197.608 11.1833 197.758 9.89995C197.908 8.61662 198.041 7.16662 198.158 5.54995H206.233V18.95ZM216.661 11.05C217.828 11.05 218.794 11.1916 219.561 11.475C220.328 11.7583 220.903 12.1833 221.286 12.75C221.686 13.3 221.886 14 221.886 14.85C221.886 15.6833 221.694 16.4083 221.311 17.025C220.944 17.6416 220.369 18.1166 219.586 18.45C218.803 18.7833 217.794 18.95 216.561 18.95H210.486V5.54995H212.686V11.05H216.661ZM219.686 14.975C219.686 14.1583 219.394 13.6083 218.811 13.325C218.244 13.025 217.444 12.875 216.411 12.875H212.686V17.175H216.461C217.394 17.175 218.161 17.0083 218.761 16.675C219.378 16.3416 219.686 15.775 219.686 14.975ZM235.412 0.761475H237.133V21.7209H235.412V0.761475ZM325.06 0.761475H326.782V21.7209H325.06V0.761475ZM352.406 18.95L350.256 13.425H343.181L341.056 18.95H338.781L345.756 1.02495H347.781L354.731 18.95H352.406ZM347.581 6.02495C347.531 5.89162 347.448 5.64995 347.331 5.29995C347.214 4.94995 347.098 4.59162 346.981 4.22495C346.881 3.84162 346.798 3.54995 346.731 3.34995C346.648 3.68328 346.556 4.02495 346.456 4.37495C346.373 4.70828 346.281 5.01662 346.181 5.29995C346.098 5.58328 346.023 5.82495 345.956 6.02495L343.931 11.425H349.581L347.581 6.02495ZM368.198 5.54995V18.95H365.998V7.42495H359.073V18.95H356.873V5.54995H368.198ZM378.848 5.29995C380.498 5.29995 381.823 5.87495 382.823 7.02495C383.84 8.17495 384.348 9.90828 384.348 12.225C384.348 13.7416 384.115 15.025 383.648 16.075C383.198 17.1083 382.557 17.8916 381.723 18.425C380.907 18.9416 379.94 19.2 378.823 19.2C378.14 19.2 377.532 19.1083 376.998 18.925C376.465 18.7416 376.007 18.5083 375.623 18.225C375.257 17.925 374.94 17.6 374.673 17.25H374.523C374.557 17.5333 374.59 17.8916 374.623 18.325C374.657 18.7583 374.673 19.1333 374.673 19.45V24.95H372.473V5.54995H374.273L374.573 7.37495H374.673C374.94 6.99162 375.257 6.64162 375.623 6.32495C376.007 6.00828 376.457 5.75828 376.973 5.57495C377.507 5.39162 378.132 5.29995 378.848 5.29995ZM378.448 7.14995C377.548 7.14995 376.823 7.32495 376.273 7.67495C375.723 8.00828 375.323 8.51662 375.073 9.19995C374.823 9.88328 374.69 10.75 374.673 11.8V12.225C374.673 13.325 374.79 14.2583 375.023 15.025C375.257 15.7916 375.648 16.375 376.198 16.775C376.765 17.175 377.532 17.375 378.498 17.375C379.315 17.375 379.982 17.15 380.498 16.7C381.032 16.25 381.423 15.6416 381.673 14.875C381.94 14.0916 382.073 13.2 382.073 12.2C382.073 10.6666 381.773 9.44162 381.173 8.52495C380.59 7.60828 379.682 7.14995 378.448 7.14995ZM393.029 5.29995C394.179 5.29995 395.163 5.54995 395.979 6.04995C396.813 6.54995 397.446 7.25828 397.879 8.17495C398.329 9.07495 398.554 10.1333 398.554 11.35V12.675H389.379C389.413 14.1916 389.796 15.35 390.529 16.15C391.279 16.9333 392.321 17.325 393.654 17.325C394.504 17.325 395.254 17.25 395.904 17.1C396.571 16.9333 397.254 16.7 397.954 16.4V18.325C397.271 18.625 396.596 18.8416 395.929 18.975C395.263 19.125 394.471 19.2 393.554 19.2C392.288 19.2 391.163 18.9416 390.179 18.425C389.213 17.9083 388.454 17.1416 387.904 16.125C387.371 15.0916 387.104 13.8333 387.104 12.35C387.104 10.8833 387.346 9.62495 387.829 8.57495C388.329 7.52495 389.021 6.71662 389.904 6.14995C390.804 5.58328 391.846 5.29995 393.029 5.29995ZM393.004 7.09995C391.954 7.09995 391.121 7.44162 390.504 8.12495C389.904 8.79162 389.546 9.72495 389.429 10.925H396.254C396.254 10.1583 396.138 9.49162 395.904 8.92495C395.671 8.35828 395.313 7.91662 394.829 7.59995C394.363 7.26662 393.754 7.09995 393.004 7.09995ZM412.166 18.95H409.941V7.37495H405.991C405.824 9.49162 405.616 11.3 405.366 12.8C405.116 14.2833 404.799 15.4916 404.416 16.425C404.032 17.3583 403.574 18.0416 403.041 18.475C402.507 18.9083 401.882 19.125 401.166 19.125C400.949 19.125 400.732 19.1083 400.516 19.075C400.316 19.0583 400.149 19.0166 400.016 18.95V17.3C400.116 17.3333 400.224 17.3583 400.341 17.375C400.457 17.3916 400.574 17.4 400.691 17.4C401.057 17.4 401.391 17.25 401.691 16.95C401.991 16.65 402.257 16.1916 402.491 15.575C402.741 14.9583 402.966 14.1833 403.166 13.25C403.366 12.3 403.541 11.1833 403.691 9.89995C403.841 8.61662 403.974 7.16662 404.091 5.54995H412.166V18.95ZM422.594 11.05C423.76 11.05 424.727 11.1916 425.494 11.475C426.26 11.7583 426.835 12.1833 427.219 12.75C427.619 13.3 427.819 14 427.819 14.85C427.819 15.6833 427.627 16.4083 427.244 17.025C426.877 17.6416 426.302 18.1166 425.519 18.45C424.735 18.7833 423.727 18.95 422.494 18.95H416.419V5.54995H418.619V11.05H422.594ZM425.619 14.975C425.619 14.1583 425.327 13.6083 424.744 13.325C424.177 13.025 423.377 12.875 422.344 12.875H418.619V17.175H422.394C423.327 17.175 424.094 17.0083 424.694 16.675C425.31 16.3416 425.619 15.775 425.619 14.975ZM434.631 0.761475H436.352V21.7209H434.631V0.761475ZM458.651 18.95L452.776 3.29995H452.676C452.71 3.63328 452.735 4.05828 452.751 4.57495C452.785 5.09162 452.81 5.65828 452.826 6.27495C452.843 6.87495 452.851 7.49162 452.851 8.12495V18.95H450.776V1.09995H454.101L459.601 15.725H459.701L465.301 1.09995H468.601V18.95H466.376V7.97495C466.376 7.39162 466.385 6.81662 466.401 6.24995C466.418 5.66662 466.443 5.12495 466.476 4.62495C466.51 4.10828 466.535 3.67495 466.551 3.32495H466.451L460.501 18.95H458.651ZM478.232 5.32495C479.865 5.32495 481.074 5.68328 481.857 6.39995C482.64 7.11662 483.032 8.25828 483.032 9.82495V18.95H481.432L481.007 17.05H480.907C480.524 17.5333 480.124 17.9416 479.707 18.275C479.307 18.5916 478.84 18.825 478.307 18.975C477.79 19.125 477.157 19.2 476.407 19.2C475.607 19.2 474.882 19.0583 474.232 18.775C473.599 18.4916 473.099 18.0583 472.732 17.475C472.365 16.875 472.182 16.125 472.182 15.225C472.182 13.8916 472.707 12.8666 473.757 12.15C474.807 11.4166 476.424 11.0166 478.607 10.95L480.882 10.875V10.075C480.882 8.95828 480.64 8.18328 480.157 7.74995C479.674 7.31662 478.99 7.09995 478.107 7.09995C477.407 7.09995 476.74 7.20828 476.107 7.42495C475.474 7.62495 474.882 7.85828 474.332 8.12495L473.657 6.47495C474.24 6.15828 474.932 5.89162 475.732 5.67495C476.532 5.44162 477.365 5.32495 478.232 5.32495ZM478.882 12.475C477.215 12.5416 476.057 12.8083 475.407 13.275C474.774 13.7416 474.457 14.4 474.457 15.25C474.457 16 474.682 16.55 475.132 16.9C475.599 17.25 476.19 17.425 476.907 17.425C478.04 17.425 478.982 17.1166 479.732 16.5C480.482 15.8666 480.857 14.9 480.857 13.6V12.4L478.882 12.475ZM498.021 -4.92334e-05C497.954 0.833284 497.746 1.53328 497.396 2.09995C497.062 2.66662 496.562 3.09162 495.896 3.37495C495.229 3.65828 494.362 3.79995 493.296 3.79995C492.212 3.79995 491.337 3.65828 490.671 3.37495C490.021 3.09162 489.546 2.67495 489.246 2.12495C488.946 1.55828 488.762 0.849951 488.696 -4.92334e-05H490.746C490.829 0.89995 491.062 1.50828 491.446 1.82495C491.846 2.12495 492.479 2.27495 493.346 2.27495C494.112 2.27495 494.712 2.11662 495.146 1.79995C495.596 1.46662 495.862 0.866617 495.946 -4.92334e-05H498.021ZM489.246 13.725C489.246 13.875 489.237 14.0916 489.221 14.375C489.221 14.6416 489.212 14.9333 489.196 15.25C489.179 15.55 489.162 15.8416 489.146 16.125C489.129 16.3916 489.112 16.6083 489.096 16.775L496.271 5.54995H498.971V18.95H496.921V11.05C496.921 10.7833 496.921 10.4333 496.921 9.99995C496.937 9.56662 496.954 9.14162 496.971 8.72495C496.987 8.29162 497.004 7.96662 497.021 7.74995L489.896 18.95H487.171V5.54995H489.246V13.725Z" fill="#979797"/>
<path d="M259.433 18.95L253.558 3.29995H253.458C253.491 3.63328 253.516 4.05828 253.533 4.57495C253.566 5.09162 253.591 5.65828 253.608 6.27495C253.624 6.87495 253.633 7.49162 253.633 8.12495V18.95H251.558V1.09995H254.883L260.383 15.725H260.483L266.083 1.09995H269.383V18.95H267.158V7.97495C267.158 7.39162 267.166 6.81662 267.183 6.24995C267.199 5.66662 267.224 5.12495 267.258 4.62495C267.291 4.10828 267.316 3.67495 267.333 3.32495H267.233L261.283 18.95H259.433ZM279.013 5.32495C280.647 5.32495 281.855 5.68328 282.638 6.39995C283.422 7.11662 283.813 8.25828 283.813 9.82495V18.95H282.213L281.788 17.05H281.688C281.305 17.5333 280.905 17.9416 280.488 18.275C280.088 18.5916 279.622 18.825 279.088 18.975C278.572 19.125 277.938 19.2 277.188 19.2C276.388 19.2 275.663 19.0583 275.013 18.775C274.38 18.4916 273.88 18.0583 273.513 17.475C273.147 16.875 272.963 16.125 272.963 15.225C272.963 13.8916 273.488 12.8666 274.538 12.15C275.588 11.4166 277.205 11.0166 279.388 10.95L281.663 10.875V10.075C281.663 8.95828 281.422 8.18328 280.938 7.74995C280.455 7.31662 279.772 7.09995 278.888 7.09995C278.188 7.09995 277.522 7.20828 276.888 7.42495C276.255 7.62495 275.663 7.85828 275.113 8.12495L274.438 6.47495C275.022 6.15828 275.713 5.89162 276.513 5.67495C277.313 5.44162 278.147 5.32495 279.013 5.32495ZM279.663 12.475C277.997 12.5416 276.838 12.8083 276.188 13.275C275.555 13.7416 275.238 14.4 275.238 15.25C275.238 16 275.463 16.55 275.913 16.9C276.38 17.25 276.972 17.425 277.688 17.425C278.822 17.425 279.763 17.1166 280.513 16.5C281.263 15.8666 281.638 14.9 281.638 13.6V12.4L279.663 12.475ZM294.327 5.29995C295.977 5.29995 297.302 5.87495 298.302 7.02495C299.319 8.17495 299.827 9.90828 299.827 12.225C299.827 13.7416 299.594 15.025 299.127 16.075C298.677 17.1083 298.035 17.8916 297.202 18.425C296.385 18.9416 295.419 19.2 294.302 19.2C293.619 19.2 293.01 19.1083 292.477 18.925C291.944 18.7416 291.485 18.5083 291.102 18.225C290.735 17.925 290.419 17.6 290.152 17.25H290.002C290.035 17.5333 290.069 17.8916 290.102 18.325C290.135 18.7583 290.152 19.1333 290.152 19.45V24.95H287.952V5.54995H289.752L290.052 7.37495H290.152C290.419 6.99162 290.735 6.64162 291.102 6.32495C291.485 6.00828 291.935 5.75828 292.452 5.57495C292.985 5.39162 293.61 5.29995 294.327 5.29995ZM293.927 7.14995C293.027 7.14995 292.302 7.32495 291.752 7.67495C291.202 8.00828 290.802 8.51662 290.552 9.19995C290.302 9.88328 290.169 10.75 290.152 11.8V12.225C290.152 13.325 290.269 14.2583 290.502 15.025C290.735 15.7916 291.127 16.375 291.677 16.775C292.244 17.175 293.01 17.375 293.977 17.375C294.794 17.375 295.46 17.15 295.977 16.7C296.51 16.25 296.902 15.6416 297.152 14.875C297.419 14.0916 297.552 13.2 297.552 12.2C297.552 10.6666 297.252 9.44162 296.652 8.52495C296.069 7.60828 295.16 7.14995 293.927 7.14995ZM312.339 7.39995H307.964V18.95H305.789V7.39995H301.464V5.54995H312.339V7.39995Z" fill="#262626"/>
</svg>
