<svg width="118" height="60" viewBox="0 0 118 60" fill="none" xmlns="http://www.w3.org/2000/svg">
<g clip-path="url(#clip0_43_62)">
<path d="M5.56271 3.99198L8.57071 3.47998V26.52L5.56271 27V4.82398L2.39471 7.47998L2.07471 7.09598L5.56271 4.18398V3.99198ZM35.357 27C34.557 27 33.885 26.328 33.885 25.528C33.885 24.696 34.557 24.024 35.357 24.024C36.189 24.024 36.861 24.696 36.861 25.528C36.861 26.328 36.189 27 35.357 27ZM35.357 11.992C34.557 11.992 33.885 11.32 33.885 10.488C33.885 9.65598 34.557 8.98398 35.357 8.98398C36.189 8.98398 36.861 9.65598 36.861 10.488C36.861 11.32 36.189 11.992 35.357 11.992ZM51.4243 3.47998C57.9203 3.47998 61.9203 6.99998 61.9203 15C61.9203 23 57.4403 27 51.4243 27C44.9283 27 40.9283 23 40.9283 15C40.9283 6.99998 45.4083 3.47998 51.4243 3.47998ZM52.4163 26.52C57.9203 26.52 58.9443 20.504 58.9443 15C58.9443 6.99998 54.9123 3.99198 50.4323 3.99198C45.4083 3.99198 43.9043 9.49598 43.9043 15C43.9043 23 47.9043 26.52 52.4163 26.52ZM76.9868 3.47998C83.4828 3.47998 87.4828 6.99998 87.4828 15C87.4828 23 83.0028 27 76.9868 27C70.4908 27 66.4908 23 66.4908 15C66.4908 6.99998 70.9708 3.47998 76.9868 3.47998ZM77.9788 26.52C83.4828 26.52 84.5068 20.504 84.5068 15C84.5068 6.99998 80.4748 3.99198 75.9948 3.99198C70.9708 3.99198 69.4668 9.49598 69.4668 15C69.4668 23 73.4668 26.52 77.9788 26.52Z" fill="#262626"/>
<path d="M23.2718 3.17395C24.2618 3.17395 25.1638 3.34995 25.9778 3.70195C26.8138 4.03195 27.4738 4.53795 27.9578 5.21995C28.4638 5.87995 28.7168 6.70495 28.7168 7.69495C28.7168 9.03695 28.2768 10.225 27.3968 11.259C26.5168 12.293 25.3838 13.25 23.9978 14.13L23.7338 13.668C24.3058 13.184 24.7568 12.656 25.0868 12.084C25.4388 11.512 25.6918 10.896 25.8458 10.236C25.9998 9.55395 26.0768 8.84995 26.0768 8.12395C26.0768 6.82595 25.8018 5.78095 25.2518 4.98895C24.7238 4.17495 23.9428 3.76795 22.9088 3.76795C22.0288 3.76795 21.2918 4.08695 20.6978 4.72495C20.1038 5.34095 19.8068 6.19895 19.8068 7.29895C19.8068 8.33295 20.0488 9.24595 20.5328 10.038C21.0168 10.808 21.6438 11.512 22.4138 12.15C23.1838 12.788 23.9978 13.415 24.8558 14.031C25.7138 14.625 26.5278 15.263 27.2978 15.945C28.0678 16.605 28.6948 17.364 29.1788 18.222C29.6628 19.058 29.9048 20.037 29.9048 21.159C29.9048 22.413 29.5968 23.513 28.9808 24.459C28.3648 25.405 27.5178 26.142 26.4398 26.67C25.3838 27.198 24.1628 27.462 22.7768 27.462C21.6108 27.462 20.5218 27.264 19.5098 26.868C18.4978 26.45 17.6838 25.834 17.0678 25.02C16.4518 24.184 16.1438 23.1499 16.1438 21.9179C16.1438 20.7739 16.3968 19.751 16.9028 18.849C17.4308 17.925 18.1238 17.122 18.9818 16.44C19.8618 15.736 20.8298 15.142 21.8858 14.658L22.1498 15.12C21.0058 15.89 20.2028 16.8249 19.7408 17.9249C19.2788 19.0029 19.0478 20.169 19.0478 21.423C19.0478 22.369 19.1688 23.26 19.4108 24.096C19.6748 24.91 20.0928 25.5809 20.6648 26.1089C21.2588 26.6149 22.0288 26.868 22.9748 26.868C24.0748 26.868 25.0318 26.5049 25.8458 25.7789C26.6818 25.0309 27.0998 23.953 27.0998 22.545C27.0998 21.467 26.8578 20.521 26.3738 19.707C25.9118 18.893 25.3068 18.1449 24.5588 17.4629C23.8108 16.7589 23.0078 16.088 22.1498 15.45C21.3138 14.812 20.5218 14.152 19.7738 13.47C19.0258 12.788 18.4098 12.029 17.9258 11.193C17.4638 10.357 17.2328 9.39995 17.2328 8.32195C17.2328 7.28795 17.4968 6.38595 18.0248 5.61595C18.5748 4.84595 19.3008 4.25195 20.2028 3.83395C21.1268 3.39395 22.1498 3.17395 23.2718 3.17395Z" fill="#262626"/>
<path d="M5.54834 54.425C5.33167 54.4417 5.03167 54.3833 4.64834 54.25C4.28167 54.1167 4.02334 53.975 3.87334 53.825C3.75667 53.6583 3.64001 53.45 3.52334 53.2C3.42334 52.9333 3.34001 52.6833 3.27334 52.45C3.20667 52.2 3.18167 52.025 3.19834 51.925L3.49834 49.85C3.54834 49.6667 3.59001 49.4833 3.62334 49.3C3.67334 49.1167 3.72334 48.9417 3.77334 48.775C3.75667 48.7417 3.79001 48.5917 3.87334 48.325C3.95667 48.0417 4.04834 47.7333 4.14834 47.4C4.26501 47.05 4.37334 46.7417 4.47334 46.475C4.57334 46.1917 4.62334 46.0417 4.62334 46.025C4.69001 45.7417 4.78167 45.475 4.89834 45.225C5.01501 44.9583 5.12334 44.7083 5.22334 44.475C5.35667 44.1083 5.48167 43.7667 5.59834 43.45C5.73167 43.1333 5.84834 42.8583 5.94834 42.625C6.04834 42.3917 6.12334 42.2083 6.17334 42.075C6.24001 41.9417 6.27334 41.8833 6.27334 41.9L7.67334 38.7C7.54001 38.5667 7.40667 38.4083 7.27334 38.225C7.14001 38.0417 7.07334 37.8167 7.07334 37.55C7.05667 37.3667 7.09834 37.2167 7.19834 37.1C7.31501 36.9833 7.44001 36.8917 7.57334 36.825C7.80667 36.8083 8.02334 36.7917 8.22334 36.775C8.44001 36.7583 8.68167 36.7667 8.94834 36.8C9.04834 36.7833 9.14834 36.775 9.24834 36.775C9.36501 36.775 9.47334 36.7667 9.57334 36.75C9.65667 36.7667 9.74834 36.7833 9.84834 36.8C9.94834 36.8 10.0733 36.775 10.2233 36.725C10.39 36.6917 10.6067 36.6667 10.8733 36.65C11.1567 36.6333 11.44 36.6167 11.7233 36.6C12.0067 36.5667 12.2567 36.55 12.4733 36.55C12.7067 36.5333 12.8567 36.525 12.9233 36.525C13.1233 36.5083 13.3233 36.4917 13.5233 36.475C13.7233 36.4583 13.9233 36.4417 14.1233 36.425C14.34 36.4083 14.5483 36.3917 14.7483 36.375C14.9483 36.3583 15.1483 36.3417 15.3483 36.325C15.865 36.2083 16.2067 36.2583 16.3733 36.475C16.5567 36.675 16.6983 36.8583 16.7983 37.025C16.8317 37.1083 16.89 37.2417 16.9733 37.425C17.0733 37.5917 17.1233 37.7583 17.1233 37.925C17.14 38.075 17.0233 38.175 16.7733 38.225C16.74 38.3417 16.6233 38.4333 16.4233 38.5C16.24 38.55 16.015 38.525 15.7483 38.425C15.715 38.4083 15.4817 38.4167 15.0483 38.45C14.6317 38.4667 14.115 38.5 13.4983 38.55C12.8817 38.6 12.265 38.6583 11.6483 38.725C11.0483 38.775 10.54 38.825 10.1233 38.875C10.0733 38.9917 10.015 39.1083 9.94834 39.225C9.89834 39.3417 9.84834 39.4583 9.79834 39.575C9.68167 39.825 9.56501 40.075 9.44834 40.325C9.34834 40.5583 9.24001 40.8 9.12334 41.05C9.00667 41.3 8.89001 41.55 8.77334 41.8C8.67334 42.0333 8.57334 42.2667 8.47334 42.5C8.42334 42.5833 8.37334 42.675 8.32334 42.775C8.27334 42.875 8.22334 42.9667 8.17334 43.05C8.32334 43.0333 8.46501 43.0167 8.59834 43C8.74834 42.9833 8.89834 42.9667 9.04834 42.95C9.28167 42.9167 9.54834 42.9333 9.84834 43C10.1483 43.05 10.4483 43.125 10.7483 43.225C11.0483 43.3083 11.3233 43.4083 11.5733 43.525C11.8233 43.625 12.015 43.7167 12.1483 43.8C12.5317 44.0333 12.8733 44.2833 13.1733 44.55C13.49 44.8 13.7567 45.125 13.9733 45.525C14.1233 45.8583 14.265 46.225 14.3983 46.625C14.5317 47.0083 14.5817 47.425 14.5483 47.875C14.5483 47.9417 14.5233 48.1167 14.4733 48.4C14.44 48.6667 14.3817 48.95 14.2983 49.25C14.2317 49.5333 14.1483 49.7583 14.0483 49.925C13.8817 50.225 13.6817 50.525 13.4483 50.825C13.2317 51.125 12.9983 51.4167 12.7483 51.7C12.4483 52.0667 12.1067 52.375 11.7233 52.625C11.34 52.8583 10.965 53.0583 10.5983 53.225C10.265 53.3917 10.0067 53.5167 9.82334 53.6C9.64001 53.6833 9.47334 53.75 9.32334 53.8C9.19001 53.8333 8.99834 53.875 8.74834 53.925C8.64834 53.9417 8.54834 53.9667 8.44834 54C8.36501 54.0167 8.27334 54.0333 8.17334 54.05C8.07334 54.0667 7.97334 54.0917 7.87334 54.125C7.60667 54.275 7.34001 54.3583 7.07334 54.375C6.80667 54.4083 6.55667 54.425 6.32334 54.425C6.19001 54.425 6.05667 54.4167 5.92334 54.4C5.80667 54.4 5.68167 54.4083 5.54834 54.425ZM5.27334 52.3C5.54001 52.2833 5.79834 52.2833 6.04834 52.3C6.29834 52.3 6.54001 52.2667 6.77334 52.2C7.60667 51.9667 8.36501 51.725 9.04834 51.475C9.74834 51.225 10.3733 50.7917 10.9233 50.175C11.3233 49.7083 11.6233 49.2833 11.8233 48.9C12.0233 48.5167 12.1733 48.0667 12.2733 47.55C12.3233 47.3667 12.3233 47.175 12.2733 46.975C12.2233 46.775 12.165 46.5083 12.0983 46.175C11.9983 45.9417 11.9067 45.7917 11.8233 45.725C11.74 45.6417 11.64 45.5833 11.5233 45.55C11.4067 45.5167 11.2567 45.45 11.0733 45.35C10.9067 45.2167 10.665 45.1167 10.3483 45.05C10.0317 44.9833 9.73167 44.9333 9.44834 44.9C9.29834 44.8667 9.14001 44.8417 8.97334 44.825C8.82334 44.8083 8.67334 44.7917 8.52334 44.775C8.37334 44.7417 8.21501 44.7167 8.04834 44.7C7.89834 44.6667 7.74834 44.6417 7.59834 44.625C7.58167 44.6917 7.50667 44.8667 7.37334 45.15C7.25667 45.4333 7.12334 45.7583 6.97334 46.125C6.84001 46.475 6.72334 46.7917 6.62334 47.075C6.45667 47.5583 6.29834 48.05 6.14834 48.55C5.99834 49.0333 5.86501 49.5167 5.74834 50C5.69834 50.25 5.64001 50.525 5.57334 50.825C5.52334 51.1083 5.46501 51.3833 5.39834 51.65C5.34834 51.9 5.30667 52.1167 5.27334 52.3ZM16.4813 53.475C16.4147 53.3417 16.2647 53.2083 16.0313 53.075C15.8147 52.9417 15.7063 52.8417 15.7063 52.775C15.7063 52.7083 15.6647 52.6083 15.5813 52.475C15.5147 52.325 15.448 52.2167 15.3813 52.15C15.298 52.05 15.323 51.8083 15.4563 51.425C15.5897 51.025 15.7897 50.5417 16.0563 49.975C16.323 49.4083 16.6147 48.8333 16.9313 48.25C17.0647 48.1167 17.198 47.9417 17.3313 47.725C17.4647 47.5083 17.5647 47.3667 17.6313 47.3C17.6313 47.2333 17.6563 47.175 17.7063 47.125C17.7563 47.0583 17.8147 47.025 17.8813 47.025L18.0813 46.625C18.1147 46.5583 18.2147 46.425 18.3813 46.225C18.5647 46.025 18.7813 45.8083 19.0313 45.575C19.2813 45.325 19.5313 45.0917 19.7813 44.875C20.048 44.6583 20.2647 44.5 20.4313 44.4C20.7813 44.1667 21.1397 44.0583 21.5063 44.075C21.8897 44.0917 22.2147 44.2083 22.4813 44.425C22.5313 44.475 22.6397 44.575 22.8063 44.725C22.9897 44.875 23.1897 45.0417 23.4063 45.225C23.6397 45.4083 23.8397 45.575 24.0063 45.725L24.9313 46.55L24.5063 47.8C24.2897 48.4667 24.2313 49.05 24.3313 49.55C24.4313 50.05 24.5897 50.4833 24.8063 50.85C24.8897 51.0333 24.998 51.175 25.1313 51.275C25.2813 51.375 25.473 51.4417 25.7063 51.475C25.8397 51.4917 25.9647 51.5417 26.0813 51.625C26.198 51.7083 26.2563 51.8417 26.2563 52.025C26.2563 52.425 26.1813 52.7167 26.0313 52.9C25.898 53.0667 25.748 53.1667 25.5813 53.2C25.0313 53.2667 24.5063 53.2083 24.0063 53.025C23.5063 52.8417 23.0563 52.3667 22.6563 51.6C22.5897 51.5 22.498 51.3167 22.3813 51.05C22.2813 50.7667 22.223 50.5833 22.2063 50.5C22.1397 50.5833 22.048 50.6917 21.9313 50.825C21.8313 50.9417 21.7313 51.05 21.6313 51.15C20.448 52.35 19.4313 53.1333 18.5813 53.5C17.748 53.85 17.048 53.8417 16.4813 53.475ZM17.8563 51.4C17.973 51.4167 18.1563 51.3583 18.4063 51.225C18.6563 51.075 18.9897 50.8333 19.4063 50.5C19.973 50.0167 20.4397 49.6167 20.8063 49.3C21.173 48.9833 21.5313 48.575 21.8813 48.075L22.4313 47.175C22.2647 46.7917 22.1147 46.5417 21.9813 46.425C21.848 46.3083 21.7147 46.25 21.5813 46.25C21.3647 46.25 21.1063 46.3917 20.8063 46.675C20.5063 46.9417 20.1647 47.3417 19.7813 47.875C19.4147 48.3917 18.998 49.0417 18.5313 49.825C18.3147 50.1917 18.148 50.55 18.0313 50.9C17.9147 51.2333 17.8563 51.4 17.8563 51.4ZM34.6886 44.75C34.9219 44.6167 35.2136 44.575 35.5636 44.625C35.9136 44.6583 36.1969 44.8 36.4136 45.05C36.6469 45.3 36.6969 45.675 36.5636 46.175C36.4969 46.3083 36.4136 46.4667 36.3136 46.65C36.2136 46.8333 36.1136 47.0333 36.0136 47.25C35.9136 47.45 35.8136 47.6417 35.7136 47.825C35.6302 48.0083 35.5719 48.1667 35.5386 48.3V48.375C35.7386 48.4417 35.8636 48.6083 35.9136 48.875C35.9802 49.1417 35.9886 49.3333 35.9386 49.45C35.8219 49.6333 35.7219 49.75 35.6386 49.8C35.5719 49.85 35.3969 49.9167 35.1136 50C35.0469 50.0167 34.9886 50.0333 34.9386 50.05C34.9052 50.0667 34.8802 50.1083 34.8636 50.175C34.8136 50.4917 34.7552 50.7917 34.6886 51.075C34.6386 51.3417 34.5719 51.6083 34.4886 51.875C34.4219 52.125 34.3469 52.3833 34.2636 52.65C34.2302 52.7833 34.1636 52.925 34.0636 53.075C33.9636 53.225 33.7469 53.3167 33.4136 53.35C33.0802 53.2167 32.8386 53.125 32.6886 53.075C32.5552 53.0083 32.4386 52.9333 32.3386 52.85C32.2386 52.7833 32.1886 52.6167 32.1886 52.35C32.2052 52.0833 32.2469 51.85 32.3136 51.65C32.3969 51.4 32.4719 51.1833 32.5386 51C32.6219 50.8 32.6969 50.4917 32.7636 50.075C32.5802 50.075 32.4052 50.0917 32.2386 50.125C32.0886 50.1417 31.9386 50.1667 31.7886 50.2C31.6552 50.2167 31.5136 50.2417 31.3636 50.275C31.2302 50.3083 31.0886 50.3333 30.9386 50.35C30.8386 50.35 30.7302 50.35 30.6136 50.35C30.4969 50.35 30.3802 50.35 30.2636 50.35C30.1469 50.3333 30.0136 50.3083 29.8636 50.275L29.7636 50.35C29.7469 50.5167 29.6719 50.7417 29.5386 51.025C29.4219 51.2917 29.3636 51.5667 29.3636 51.85C29.3469 52.0667 29.2969 52.3583 29.2136 52.725C29.1469 53.075 29.1052 53.3667 29.0886 53.6C29.0719 53.9667 28.8636 54.1833 28.4636 54.25C28.0802 54.3333 27.6386 54.1417 27.1386 53.675C27.0719 53.625 27.0219 53.5667 26.9886 53.5C26.9719 53.4333 26.9469 53.35 26.9136 53.25L27.2886 51.35C27.3552 51.1167 27.4136 50.9 27.4636 50.7C27.5136 50.4833 27.5719 50.275 27.6386 50.075C27.7719 49.7083 27.9052 49.3167 28.0386 48.9C28.1719 48.4667 28.3136 48.125 28.4636 47.875C28.4969 47.8083 28.5302 47.7083 28.5636 47.575C28.6136 47.4417 28.6636 47.3 28.7136 47.15C28.7636 47 28.8136 46.8583 28.8636 46.725C28.9136 46.5917 28.9552 46.4833 28.9886 46.4C29.0552 46.2333 29.1386 45.9917 29.2386 45.675C29.3552 45.3417 29.4636 45.0333 29.5636 44.75C29.6636 44.4667 29.7136 44.3167 29.7136 44.3C29.7636 44.1167 29.8636 44 30.0136 43.95C30.1636 43.8833 30.2886 43.85 30.3886 43.85C30.9219 43.85 31.2886 43.9917 31.4886 44.275C31.6886 44.5583 31.7802 44.8167 31.7636 45.05C31.7469 45.15 31.7386 45.2417 31.7386 45.325C31.7386 45.4083 31.7219 45.475 31.6886 45.525L30.5636 48.325L30.5136 48.45C30.6802 48.45 30.8469 48.4333 31.0136 48.4C31.1969 48.35 31.3719 48.325 31.5386 48.325C31.6219 48.3083 31.7469 48.2917 31.9136 48.275C32.0969 48.2583 32.2969 48.25 32.5136 48.25C32.7469 48.25 32.9802 48.275 33.2136 48.325C33.4302 47.8083 33.5969 47.3667 33.7136 47C33.8302 46.6167 34.0219 46.1917 34.2886 45.725C34.3052 45.6917 34.3386 45.575 34.3886 45.375C34.4552 45.1583 34.5552 44.95 34.6886 44.75ZM38.9731 54.075C38.8398 54.0417 38.6648 53.9167 38.4481 53.7C38.2315 53.4667 38.0315 53.2083 37.8481 52.925C37.6815 52.6417 37.5981 52.4083 37.5981 52.225C37.6815 52.0417 37.7898 51.725 37.9231 51.275C38.0565 50.8083 38.2231 50.275 38.4231 49.675C38.5565 49.4917 38.6565 49.275 38.7231 49.025C38.8065 48.775 38.8815 48.55 38.9481 48.35C39.0815 48.0833 39.2315 47.7417 39.3981 47.325C39.5815 46.8917 39.7648 46.4583 39.9481 46.025C40.1315 45.575 40.2898 45.2 40.4231 44.9C40.5065 44.75 40.5898 44.6 40.6731 44.45C40.7565 44.3 40.8315 44.15 40.8981 44C40.8981 43.9167 40.9398 43.8417 41.0231 43.775C41.1065 43.6917 41.2148 43.6333 41.3481 43.6C41.4315 43.5667 41.5231 43.5417 41.6231 43.525C41.7398 43.5083 41.8565 43.5 41.9731 43.5C42.2065 43.5 42.4148 43.65 42.5981 43.95C42.7981 44.2333 42.8981 44.4917 42.8981 44.725C42.8981 45.075 42.8398 45.3667 42.7231 45.6C42.6231 45.8167 42.5065 46.0083 42.3731 46.175C42.2398 46.325 42.1148 46.4833 41.9981 46.65C41.8981 46.8167 41.8481 47.0333 41.8481 47.3C41.8481 47.3667 41.9065 47.375 42.0231 47.325C42.1398 47.2583 42.2731 47.1833 42.4231 47.1C42.5565 47.0333 42.7481 46.9 42.9981 46.7C43.2648 46.5 43.5398 46.3 43.8231 46.1C44.1065 45.8833 44.3398 45.75 44.5231 45.7C44.8898 45.45 45.1815 45.2667 45.3981 45.15C45.6148 45.0167 45.7731 44.95 45.8731 44.95C46.0565 44.95 46.2481 45.0667 46.4481 45.3C46.6481 45.5167 46.7481 45.725 46.7481 45.925C46.7481 46.0917 46.6815 46.2583 46.5481 46.425C46.4315 46.575 46.2648 46.7417 46.0481 46.925C45.6981 47.2083 45.2898 47.4917 44.8231 47.775C44.3565 48.0417 43.9315 48.275 43.5481 48.475C43.1815 48.6583 42.9648 48.7917 42.8981 48.875C42.8981 48.8917 42.9565 48.9917 43.0731 49.175C43.2065 49.3417 43.3481 49.5333 43.4981 49.75C43.5981 49.9333 43.6898 50.1167 43.7731 50.3C43.8731 50.4667 43.9565 50.625 44.0231 50.775C44.2398 51.225 44.4231 51.575 44.5731 51.825C44.7398 52.0583 44.9315 52.2 45.1481 52.25C45.3648 52.2833 45.6815 52.2417 46.0981 52.125C46.4148 52.025 46.6565 52.0833 46.8231 52.3C47.0065 52.5167 47.0981 52.7167 47.0981 52.9C47.0981 52.9833 47.0481 53.075 46.9481 53.175C46.8648 53.275 46.7565 53.3833 46.6231 53.5C46.3565 53.7167 46.0398 53.9083 45.6731 54.075C45.3231 54.2583 45.0565 54.35 44.8731 54.35C44.6898 54.35 44.4898 54.3 44.2731 54.2C44.0565 54.1 43.7815 53.8833 43.4481 53.55C43.1148 53.2167 42.6731 52.6917 42.1231 51.975C42.1231 51.9083 42.0815 51.8 41.9981 51.65C41.9148 51.4833 41.8315 51.3167 41.7481 51.15C41.6815 51.0167 41.6148 50.9083 41.5481 50.825C41.4981 50.725 41.4648 50.6667 41.4481 50.65C41.4481 50.7333 41.4315 50.7167 41.3981 50.6C41.3815 50.4833 41.3398 50.3583 41.2731 50.225C41.2065 50.075 41.1065 50 40.9731 50C40.9065 50 40.8148 50.1083 40.6981 50.325C40.5815 50.525 40.4565 50.775 40.3231 51.075C40.2398 51.275 40.1565 51.4917 40.0731 51.725C39.9898 51.9583 39.9231 52.1917 39.8731 52.425C39.8398 52.6417 39.8231 52.85 39.8231 53.05C39.8231 53.3 39.7481 53.5333 39.5981 53.75C39.4648 53.9667 39.2565 54.075 38.9731 54.075ZM51.0323 54.45C50.1157 54.45 49.4073 54.1833 48.9073 53.65C48.424 53.1167 48.1823 52.3 48.1823 51.2C48.1823 50.6 48.2907 49.9417 48.5073 49.225C48.7407 48.5083 49.0407 47.8083 49.4073 47.125C49.7907 46.4417 50.2073 45.85 50.6573 45.35C51.1073 44.8333 51.5573 44.475 52.0073 44.275C52.174 44.1917 52.349 44.1333 52.5323 44.1C52.7323 44.05 52.924 44.025 53.1073 44.025C53.3073 44.025 53.524 44.0417 53.7573 44.075C54.0073 44.0917 54.2407 44.1417 54.4573 44.225C54.8407 44.3417 55.174 44.5667 55.4573 44.9C55.7573 45.2333 55.9073 45.7167 55.9073 46.35C55.9073 46.5167 55.8907 46.7 55.8573 46.9C55.824 47.0833 55.7657 47.2667 55.6823 47.45C55.4657 48 55.1323 48.525 54.6823 49.025C54.249 49.525 53.7907 49.875 53.3073 50.075C53.174 50.1417 53.0407 50.1917 52.9073 50.225C52.7907 50.2417 52.6657 50.25 52.5323 50.25C52.1823 50.25 51.8657 50.2 51.5823 50.1C51.3157 50 51.0657 49.8667 50.8323 49.7L50.6323 49.525L50.5073 49.775C50.3907 50.0917 50.3073 50.3583 50.2573 50.575C50.224 50.7917 50.2073 50.95 50.2073 51.05C50.2073 51.25 50.2157 51.4583 50.2323 51.675C50.249 51.875 50.299 52.0417 50.3823 52.175C50.449 52.2583 50.5323 52.325 50.6323 52.375C50.749 52.425 50.8907 52.45 51.0573 52.45C51.1573 52.45 51.249 52.45 51.3323 52.45C51.4323 52.4333 51.5157 52.4167 51.5823 52.4C51.8823 52.3333 52.124 52.225 52.3073 52.075C52.5073 51.9083 52.7157 51.7667 52.9323 51.65L53.0323 51.6L53.0073 51.525C53.2907 51.375 53.4823 51.2833 53.5823 51.25C53.6823 51.2 53.7573 51.1583 53.8073 51.125C53.874 51.0583 53.949 51.025 54.0323 51.025C54.2657 50.9917 54.4907 51.0583 54.7073 51.225C54.9407 51.375 55.0573 51.5667 55.0573 51.8C55.0573 51.9 54.9823 52.0583 54.8323 52.275C54.699 52.4917 54.524 52.7083 54.3073 52.925C54.1073 53.125 53.899 53.2833 53.6823 53.4C53.6323 53.4167 53.5823 53.4417 53.5323 53.475C53.4823 53.4917 53.4323 53.5167 53.3823 53.55H53.4073C53.2573 53.75 53.1073 53.85 52.9573 53.85H52.7573C52.6907 53.9667 52.474 54.0917 52.1073 54.225C51.7407 54.375 51.3823 54.45 51.0323 54.45ZM52.3323 48.425C52.4823 48.425 52.6157 48.4 52.7323 48.35C52.8657 48.3 52.9907 48.2417 53.1073 48.175C53.5073 47.8917 53.7657 47.525 53.8823 47.075C53.999 46.625 53.9573 46.2833 53.7573 46.05C53.724 46 53.6823 45.9667 53.6323 45.95C53.5823 45.9167 53.524 45.9 53.4573 45.9C53.274 45.9 53.0657 45.9583 52.8323 46.075C52.6157 46.1917 52.399 46.3583 52.1823 46.575C51.9657 46.7917 51.7657 47.05 51.5823 47.35L51.2573 47.875C51.2907 47.8583 51.3157 47.85 51.3323 47.85C51.3657 47.8333 51.3907 47.825 51.4073 47.825C51.5573 47.825 51.6573 47.875 51.7073 47.975C51.7573 48.075 51.8157 48.175 51.8823 48.275C51.9657 48.375 52.1157 48.425 52.3323 48.425ZM58.7417 53.175C58.425 53.0417 58.1667 52.8417 57.9667 52.575C57.7834 52.2917 57.6917 51.95 57.6917 51.55C57.6917 51.3833 57.725 51.1 57.7917 50.7C57.8584 50.3 57.95 49.85 58.0667 49.35C58.1834 48.85 58.3 48.3833 58.4167 47.95C58.5834 47.65 58.6917 47.35 58.7417 47.05C58.8084 46.75 58.8417 46.5667 58.8417 46.5C58.875 46.3 58.9334 46.0333 59.0167 45.7C59.1 45.3667 59.1834 45.0667 59.2667 44.8C59.3667 44.5167 59.4334 44.3583 59.4667 44.325C59.55 44.2417 59.6917 44.1917 59.8917 44.175C60.0917 44.1583 60.2917 44.1833 60.4917 44.25C60.6917 44.3 60.825 44.4083 60.8917 44.575C61.075 44.775 61.175 45.075 61.1917 45.475C61.225 45.875 61.15 46.3417 60.9667 46.875C60.8167 47.2083 60.6667 47.6 60.5167 48.05C60.3667 48.5 60.2334 48.9167 60.1167 49.3C60.0167 49.6667 59.9584 49.9167 59.9417 50.05L59.0417 50.025C59.325 49.7583 59.5917 49.4833 59.8417 49.2C60.0917 48.9 60.275 48.6667 60.3917 48.5C60.675 48.1167 60.9167 47.8 61.1167 47.55C61.3334 47.2833 61.6084 46.9667 61.9417 46.6C62.275 46.2167 62.6334 45.95 63.0167 45.8C63.4 45.6333 63.6834 45.55 63.8667 45.55C64.2334 45.6167 64.5584 45.8083 64.8417 46.125C65.1417 46.425 65.325 46.875 65.3917 47.475C65.3917 47.7083 65.3667 47.9833 65.3167 48.3C65.2834 48.6167 65.2667 48.775 65.2667 48.775C65.2667 48.775 65.4 48.6083 65.6667 48.275C65.95 47.9417 66.325 47.5667 66.7917 47.15C67.1084 46.9167 67.4167 46.7833 67.7167 46.75C68.0167 46.7 68.2834 46.8 68.5167 47.05C68.95 47.2833 69.2667 47.6917 69.4667 48.275C69.6667 48.8583 69.7334 49.5167 69.6667 50.25C69.6167 50.6833 69.6167 51.0333 69.6667 51.3C69.7334 51.55 69.8 51.775 69.8667 51.975C70.0834 52.275 70.1167 52.5417 69.9667 52.775C69.8167 52.9917 69.6834 53.1 69.5667 53.1C69.4 53.1 69.15 53.0667 68.8167 53C68.4834 52.9333 68.175 52.8167 67.8917 52.65C67.625 52.4833 67.4917 52.2583 67.4917 51.975V50.425C67.4917 50.0583 67.475 49.7917 67.4417 49.625C67.425 49.4417 67.3834 49.325 67.3167 49.275C67.1334 49.175 66.9084 49.25 66.6417 49.5C66.375 49.75 66.0834 50.1083 65.7667 50.575C65.4667 51.025 65.1417 51.5333 64.7917 52.1C64.475 52.6167 64.2167 52.9333 64.0167 53.05C63.8167 53.15 63.625 53.1417 63.4417 53.025C63.075 52.9083 62.8417 52.75 62.7417 52.55C62.6584 52.3333 62.65 52.0917 62.7167 51.825C62.8 51.5417 62.9 51.175 63.0167 50.725C63.15 50.275 63.275 49.8417 63.3917 49.425C63.5084 48.9917 63.5834 48.675 63.6167 48.475C63.55 48.3417 63.4334 48.3 63.2667 48.35C63.1167 48.3833 62.9584 48.4583 62.7917 48.575C62.5917 48.7083 62.375 48.85 62.1417 49C61.925 49.15 61.6667 49.4667 61.3667 49.95C61.1667 50.2667 60.9417 50.6167 60.6917 51C60.4417 51.3667 60.2084 51.7 59.9917 52C59.7917 52.3 59.625 52.5083 59.4917 52.625C59.375 52.925 59.2667 53.1167 59.1667 53.2C59.0667 53.2667 58.925 53.2583 58.7417 53.175Z" fill="#929783"/>
</g>
<defs>
<clipPath id="clip0_43_62">
<rect width="118" height="60" fill="white"/>
</clipPath>
</defs>
</svg>
