<svg width="118" height="60" viewBox="0 0 118 60" fill="none" xmlns="http://www.w3.org/2000/svg">
<g clip-path="url(#clip0_43_62)">
<path d="M35.3571 27C34.5571 27 33.8851 26.328 33.8851 25.528C33.8851 24.696 34.5571 24.024 35.3571 24.024C36.1891 24.024 36.8611 24.696 36.8611 25.528C36.8611 26.328 36.1891 27 35.3571 27ZM35.3571 11.992C34.5571 11.992 33.8851 11.32 33.8851 10.488C33.8851 9.65598 34.5571 8.98398 35.3571 8.98398C36.1891 8.98398 36.8611 9.65598 36.8611 10.488C36.8611 11.32 36.1891 11.992 35.3571 11.992ZM51.4244 3.47998C57.9204 3.47998 61.9204 6.99998 61.9204 15C61.9204 23 57.4404 27 51.4244 27C44.9284 27 40.9284 23 40.9284 15C40.9284 6.99998 45.4084 3.47998 51.4244 3.47998ZM52.4164 26.52C57.9204 26.52 58.9444 20.504 58.9444 15C58.9444 6.99998 54.9124 3.99198 50.4324 3.99198C45.4084 3.99198 43.9044 9.49598 43.9044 15C43.9044 23 47.9044 26.52 52.4164 26.52ZM76.9869 3.47998C83.4829 3.47998 87.4829 6.99998 87.4829 15C87.4829 23 83.0029 27 76.9869 27C70.4909 27 66.4909 23 66.4909 15C66.4909 6.99998 70.9709 3.47998 76.9869 3.47998ZM77.9789 26.52C83.4829 26.52 84.5069 20.504 84.5069 15C84.5069 6.99998 80.4749 3.99198 75.9949 3.99198C70.9709 3.99198 69.4669 9.49598 69.4669 15C69.4669 23 73.4669 26.52 77.9789 26.52Z" fill="#262626"/>
<path d="M13.9766 27.032C12.6753 26.9893 11.2353 26.968 9.65663 26.968C8.09929 26.968 6.69129 26.968 5.43263 26.968C4.21663 26.968 3.19263 26.968 2.36063 26.968C1.52863 26.968 0.888625 26.9787 0.440625 27C0.333958 26.7227 0.280625 26.4347 0.280625 26.136C2.86196 24.1307 4.87796 22.3387 6.32863 20.76C7.77929 19.1813 8.80329 17.7627 9.40063 16.504C9.99796 15.2453 10.2966 14.0933 10.2966 13.048C10.2966 11.704 9.89129 10.7013 9.08063 10.04C8.26996 9.35733 7.27796 9.016 6.10463 9.016C5.31529 9.016 4.52596 9.15467 3.73663 9.432C2.96863 9.70933 2.25396 10.0933 1.59263 10.584C1.48596 10.4773 1.37929 10.36 1.27263 10.232C1.16596 10.104 1.06996 9.96533 0.984625 9.816C1.90196 8.81333 2.91529 8.06667 4.02463 7.576C5.13396 7.08533 6.28596 6.84 7.48063 6.84C8.58996 6.84 9.61396 7.05333 10.5526 7.48C11.5126 7.88533 12.2806 8.472 12.8566 9.24C13.454 10.008 13.7526 10.9253 13.7526 11.992C13.7526 13.2507 13.3793 14.4987 12.6326 15.736C11.886 16.952 10.8086 18.2533 9.40063 19.64C7.99263 21.0053 6.30729 22.5413 4.34462 24.248C5.51796 24.248 6.59529 24.248 7.57663 24.248C8.55796 24.2267 9.34729 24.2053 9.94463 24.184C10.5633 24.1627 10.8833 24.152 10.9046 24.152C11.4806 24.1307 11.9286 24.0773 12.2486 23.992C12.5686 23.9067 12.8673 23.6827 13.1446 23.32C13.422 22.936 13.7846 22.3067 14.2326 21.432C14.3606 21.432 14.5206 21.4427 14.7126 21.464C14.9046 21.4853 15.0753 21.528 15.2246 21.592C14.9686 22.488 14.734 23.4053 14.5206 24.344C14.3286 25.2827 14.1473 26.1787 13.9766 27.032ZM21.0574 18.872C22.4867 18.424 23.6387 17.8587 24.5134 17.176C25.388 16.4933 26.028 15.7573 26.4334 14.968C26.8387 14.1787 27.0414 13.4107 27.0414 12.664C27.0414 11.6613 26.7107 10.808 26.0494 10.104C25.4094 9.37867 24.4174 9.016 23.0734 9.016C22.284 9.016 21.5054 9.15467 20.7374 9.432C19.9694 9.70933 19.2547 10.0933 18.5934 10.584C18.316 10.3067 18.1347 10.0507 18.0494 9.816C18.988 8.77067 19.98 8.01333 21.0254 7.544C22.0707 7.07467 23.2334 6.84 24.5134 6.84C25.8147 6.84 26.9027 7.05333 27.7774 7.48C28.652 7.90667 29.3027 8.48267 29.7294 9.208C30.1774 9.912 30.4014 10.68 30.4014 11.512C30.4014 12.5573 30.0494 13.6453 29.3454 14.776C28.6627 15.9067 27.6067 16.9093 26.1774 17.784C28.076 18.104 29.5054 18.808 30.4654 19.896C31.4467 20.984 31.9374 22.3173 31.9374 23.896C31.9374 25.112 31.6707 26.1893 31.1374 27.128C30.604 28.0667 29.8894 28.856 28.9934 29.496C28.0974 30.136 27.0947 30.616 25.9854 30.936C24.876 31.2773 23.7454 31.448 22.5934 31.448C21.3774 31.448 20.3747 31.2773 19.5854 30.936C18.796 30.616 18.2094 30.2213 17.8254 29.752C17.4414 29.2827 17.2494 28.824 17.2494 28.376C17.2494 27.9493 17.3987 27.576 17.6974 27.256C18.0174 26.9573 18.412 26.808 18.8814 26.808C19.5427 26.808 20.14 27.096 20.6734 27.672C21.2067 28.2693 21.612 29.112 21.8894 30.2C22.3374 30.264 22.7534 30.296 23.1374 30.296C24.2894 30.296 25.2814 30.04 26.1134 29.528C26.9454 29.016 27.5747 28.344 28.0014 27.512C28.4494 26.68 28.6734 25.784 28.6734 24.824C28.6734 23.9707 28.4814 23.1493 28.0974 22.36C27.7134 21.5493 27.1267 20.888 26.3374 20.376C25.548 19.8427 24.556 19.576 23.3614 19.576C22.7214 19.576 22.06 19.6613 21.3774 19.832C21.292 19.6613 21.228 19.5013 21.1854 19.352C21.1427 19.2027 21.1 19.0427 21.0574 18.872Z" fill="#262626"/>
<path d="M3.12627 55.175C2.9096 55.0417 2.7096 54.875 2.52627 54.675C2.34294 54.4917 2.30127 54.225 2.40127 53.875C2.3846 53.675 2.39294 53.4833 2.42627 53.3C2.47627 53.1167 2.5096 52.9917 2.52627 52.925C2.6096 52.925 2.6596 52.8833 2.67627 52.8C2.69294 52.7 2.70127 52.6167 2.70127 52.55C2.70127 52.4167 2.75127 52.1917 2.85127 51.875C2.95127 51.5583 3.05127 51.225 3.15127 50.875C3.2846 50.5917 3.4096 50.2917 3.52627 49.975C3.6596 49.6583 3.72627 49.4667 3.72627 49.4C3.72627 49.2667 3.7596 49.1333 3.82627 49C3.89294 48.85 3.96794 48.7083 4.05127 48.575C4.1346 48.375 4.19294 48.1583 4.22627 47.925C4.27627 47.675 4.30127 47.4833 4.30127 47.35C4.40127 47.1333 4.5096 46.9 4.62627 46.65C4.74294 46.4 4.8346 46.1417 4.90127 45.875C5.00127 45.5917 5.15127 45.175 5.35127 44.625C5.55127 44.0583 5.7596 43.4917 5.97627 42.925C6.12627 42.6083 6.26794 42.2833 6.40127 41.95C6.55127 41.6 6.6846 41.3083 6.80127 41.075C6.91794 40.825 7.00127 40.7 7.05127 40.7C7.05127 40.7 7.05127 40.675 7.05127 40.625C7.05127 40.5583 7.05127 40.4917 7.05127 40.425C7.05127 40.3417 7.11794 40.1833 7.25127 39.95C7.3846 39.7 7.5096 39.4417 7.62627 39.175C7.79294 38.925 7.9096 38.6917 7.97627 38.475C8.04294 38.2417 8.07627 38.125 8.07627 38.125C8.07627 38.125 8.1096 38.075 8.17627 37.975C8.24294 37.8583 8.3096 37.7667 8.37627 37.7C8.8096 37.4667 9.17627 37.35 9.47627 37.35C9.79294 37.35 10.0096 37.55 10.1263 37.95C10.2596 38.3167 10.3179 38.575 10.3013 38.725C10.2846 38.8583 10.2263 39.025 10.1263 39.225C9.99294 39.525 9.81794 39.9083 9.60127 40.375C9.3846 40.825 9.1596 41.3083 8.92627 41.825C8.69294 42.3417 8.46794 42.8417 8.25127 43.325C8.05127 43.7917 7.8846 44.1917 7.75127 44.525C7.6346 44.8583 7.57627 45.0667 7.57627 45.15L6.52627 47.725C6.4596 47.8417 6.35127 48.1417 6.20127 48.625C6.05127 49.0917 5.87627 49.6583 5.67627 50.325C5.47627 50.975 5.26794 51.6417 5.05127 52.325C4.85127 52.9917 4.65127 53.6 4.45127 54.15C4.35127 54.4333 4.2596 54.6667 4.17627 54.85C4.09294 55.05 4.0096 55.2 3.92627 55.3C3.84294 55.4 3.74294 55.45 3.62627 55.45C3.5596 55.45 3.4846 55.425 3.40127 55.375C3.31794 55.325 3.22627 55.2583 3.12627 55.175ZM11.9763 55.125C11.8263 55.1417 11.6179 55.0667 11.3513 54.9C11.1013 54.75 10.8263 54.5583 10.5263 54.325C10.2429 54.0917 9.96794 53.85 9.70127 53.6C9.45127 53.35 9.25127 53.1333 9.10127 52.95C8.8346 52.5667 8.49294 52.05 8.07627 51.4C7.67627 50.75 7.37627 50.0667 7.17627 49.35C7.0596 48.8167 6.9346 48.3917 6.80127 48.075C6.6846 47.7417 6.62627 47.45 6.62627 47.2L6.65127 45.65L8.47627 45.525C8.5596 46.425 8.69294 47.175 8.87627 47.775C9.0596 48.3583 9.27627 48.8833 9.52627 49.35C9.72627 49.7833 9.94294 50.2083 10.1763 50.625C10.4263 51.0417 10.7013 51.3917 11.0013 51.675C11.3846 52.0917 11.7263 52.4 12.0263 52.6C12.3263 52.8 12.5513 52.9 12.7013 52.9C13.0179 53.05 13.2513 53.1917 13.4013 53.325C13.5513 53.4583 13.6513 53.575 13.7013 53.675C13.7513 53.775 13.7679 53.8667 13.7513 53.95C13.7679 54 13.7596 54.1083 13.7263 54.275C13.6929 54.4583 13.6429 54.6333 13.5763 54.8C13.5096 54.9833 13.4179 55.1 13.3013 55.15C13.1846 55.2667 13.0346 55.3333 12.8513 55.35C12.6679 55.3833 12.3763 55.3083 11.9763 55.125ZM6.17627 45.575L8.00127 44.225C8.05127 44.175 8.19294 44.0417 8.42627 43.825C8.67627 43.5917 9.15127 43.2083 9.85127 42.675L13.1513 40C13.5679 39.7833 13.9513 39.5417 14.3013 39.275C14.6513 39.0083 14.9429 38.8 15.1763 38.65C15.4596 38.45 15.7513 38.2417 16.0513 38.025C16.3513 37.8083 16.5346 37.7083 16.6013 37.725C16.7346 37.6583 16.8929 37.725 17.0763 37.925C17.2596 38.1083 17.4096 38.3333 17.5263 38.6C17.6596 38.85 17.7179 39.0417 17.7013 39.175C17.7346 39.3417 17.7096 39.4833 17.6263 39.6C17.5429 39.7167 17.3263 39.875 16.9763 40.075C16.5596 40.2583 16.2263 40.4333 15.9763 40.6C15.7429 40.7667 15.6096 40.8917 15.5763 40.975C15.5763 40.975 15.4013 41.1083 15.0513 41.375C14.7013 41.6417 14.2846 41.9417 13.8013 42.275C13.1346 42.725 12.5846 43.125 12.1513 43.475C11.7346 43.8083 11.4596 44.075 11.3263 44.275C11.2596 44.275 11.1929 44.3 11.1263 44.35C11.0763 44.4 11.0179 44.4167 10.9513 44.4C10.9513 44.4 10.8846 44.45 10.7513 44.55C10.6179 44.6333 10.5179 44.725 10.4513 44.825C10.4179 44.9083 10.3429 45.0167 10.2263 45.15C10.1263 45.2833 10.0013 45.3417 9.85127 45.325C9.7346 45.3917 9.52627 45.5333 9.22627 45.75C8.92627 45.95 8.6096 46.175 8.27627 46.425C7.9596 46.675 7.6846 46.9 7.45127 47.1C7.21794 47.3 7.09294 47.4167 7.07627 47.45L6.17627 45.575ZM16.0765 53.825C15.8598 53.825 15.6848 53.7833 15.5515 53.7C15.4348 53.6167 15.2848 53.5 15.1015 53.35C14.7848 53.0167 14.5265 52.6583 14.3265 52.275C14.1431 51.8917 14.0765 51.5583 14.1265 51.275C14.1765 51.1417 14.1931 51.0167 14.1765 50.9C14.1765 50.7667 14.1765 50.7 14.1765 50.7C14.0931 50.6167 14.0681 50.5667 14.1015 50.55C14.1348 50.5167 14.1681 50.4667 14.2015 50.4C14.3015 50.4 14.3348 50.3083 14.3015 50.125C14.2681 49.9917 14.3181 49.7083 14.4515 49.275C14.6015 48.825 14.8015 48.4 15.0515 48C15.1515 47.8333 15.3015 47.6167 15.5015 47.35C15.7015 47.0667 15.9181 46.7917 16.1515 46.525C16.4015 46.2417 16.6265 46.0167 16.8265 45.85C17.2431 45.5 17.6265 45.2167 17.9765 45C18.3431 44.7833 18.7098 44.6333 19.0765 44.55C19.4431 44.4667 19.8181 44.425 20.2015 44.425C20.6015 44.425 20.9265 44.5583 21.1765 44.825C21.5598 44.9917 21.8265 45.2167 21.9765 45.5C22.1431 45.7833 22.2515 46.15 22.3015 46.6C22.3515 47.1 22.3015 47.7167 22.1515 48.45C22.0015 49.1667 21.5931 50 20.9265 50.95C20.5098 51.55 20.1015 52.0167 19.7015 52.35C19.3015 52.6833 18.8598 52.9917 18.3765 53.275C18.0265 53.5083 17.6515 53.65 17.2515 53.7C16.8515 53.75 16.4598 53.7917 16.0765 53.825ZM18.6265 50.775C18.9931 50.4583 19.2515 50.1083 19.4015 49.725C19.5681 49.3417 19.7431 48.8917 19.9265 48.375C19.9931 48.275 20.0348 48.1083 20.0515 47.875C20.0848 47.6417 20.0931 47.4167 20.0765 47.2C20.0598 46.9667 20.0015 46.8333 19.9015 46.8C19.7515 46.6833 19.6015 46.6583 19.4515 46.725C19.3015 46.775 19.1098 46.8833 18.8765 47.05C18.3765 47.4667 17.9098 47.95 17.4765 48.5C17.0598 49.0333 16.7681 49.6917 16.6015 50.475C16.5515 50.8917 16.5931 51.2083 16.7265 51.425C16.8765 51.625 17.1098 51.6833 17.4265 51.6C17.7598 51.5 18.1598 51.225 18.6265 50.775ZM31.0841 44.75C31.3174 44.6167 31.6091 44.575 31.9591 44.625C32.3091 44.6583 32.5924 44.8 32.8091 45.05C33.0424 45.3 33.0924 45.675 32.9591 46.175C32.8924 46.3083 32.8091 46.4667 32.7091 46.65C32.6091 46.8333 32.5091 47.0333 32.4091 47.25C32.3091 47.45 32.2091 47.6417 32.1091 47.825C32.0257 48.0083 31.9674 48.1667 31.9341 48.3V48.375C32.1341 48.4417 32.2591 48.6083 32.3091 48.875C32.3757 49.1417 32.3841 49.3333 32.3341 49.45C32.2174 49.6333 32.1174 49.75 32.0341 49.8C31.9674 49.85 31.7924 49.9167 31.5091 50C31.4424 50.0167 31.3841 50.0333 31.3341 50.05C31.3007 50.0667 31.2757 50.1083 31.2591 50.175C31.2091 50.4917 31.1507 50.7917 31.0841 51.075C31.0341 51.3417 30.9674 51.6083 30.8841 51.875C30.8174 52.125 30.7424 52.3833 30.6591 52.65C30.6257 52.7833 30.5591 52.925 30.4591 53.075C30.3591 53.225 30.1424 53.3167 29.8091 53.35C29.4757 53.2167 29.2341 53.125 29.0841 53.075C28.9507 53.0083 28.8341 52.9333 28.7341 52.85C28.6341 52.7833 28.5841 52.6167 28.5841 52.35C28.6007 52.0833 28.6424 51.85 28.7091 51.65C28.7924 51.4 28.8674 51.1833 28.9341 51C29.0174 50.8 29.0924 50.4917 29.1591 50.075C28.9757 50.075 28.8007 50.0917 28.6341 50.125C28.4841 50.1417 28.3341 50.1667 28.1841 50.2C28.0507 50.2167 27.9091 50.2417 27.7591 50.275C27.6257 50.3083 27.4841 50.3333 27.3341 50.35C27.2341 50.35 27.1257 50.35 27.0091 50.35C26.8924 50.35 26.7757 50.35 26.6591 50.35C26.5424 50.3333 26.4091 50.3083 26.2591 50.275L26.1591 50.35C26.1424 50.5167 26.0674 50.7417 25.9341 51.025C25.8174 51.2917 25.7591 51.5667 25.7591 51.85C25.7424 52.0667 25.6924 52.3583 25.6091 52.725C25.5424 53.075 25.5007 53.3667 25.4841 53.6C25.4674 53.9667 25.2591 54.1833 24.8591 54.25C24.4757 54.3333 24.0341 54.1417 23.5341 53.675C23.4674 53.625 23.4174 53.5667 23.3841 53.5C23.3674 53.4333 23.3424 53.35 23.3091 53.25L23.6841 51.35C23.7507 51.1167 23.8091 50.9 23.8591 50.7C23.9091 50.4833 23.9674 50.275 24.0341 50.075C24.1674 49.7083 24.3007 49.3167 24.4341 48.9C24.5674 48.4667 24.7091 48.125 24.8591 47.875C24.8924 47.8083 24.9257 47.7083 24.9591 47.575C25.0091 47.4417 25.0591 47.3 25.1091 47.15C25.1591 47 25.2091 46.8583 25.2591 46.725C25.3091 46.5917 25.3507 46.4833 25.3841 46.4C25.4507 46.2333 25.5341 45.9917 25.6341 45.675C25.7507 45.3417 25.8591 45.0333 25.9591 44.75C26.0591 44.4667 26.1091 44.3167 26.1091 44.3C26.1591 44.1167 26.2591 44 26.4091 43.95C26.5591 43.8833 26.6841 43.85 26.7841 43.85C27.3174 43.85 27.6841 43.9917 27.8841 44.275C28.0841 44.5583 28.1757 44.8167 28.1591 45.05C28.1424 45.15 28.1341 45.2417 28.1341 45.325C28.1341 45.4083 28.1174 45.475 28.0841 45.525L26.9591 48.325L26.9091 48.45C27.0757 48.45 27.2424 48.4333 27.4091 48.4C27.5924 48.35 27.7674 48.325 27.9341 48.325C28.0174 48.3083 28.1424 48.2917 28.3091 48.275C28.4924 48.2583 28.6924 48.25 28.9091 48.25C29.1424 48.25 29.3757 48.275 29.6091 48.325C29.8257 47.8083 29.9924 47.3667 30.1091 47C30.2257 46.6167 30.4174 46.1917 30.6841 45.725C30.7007 45.6917 30.7341 45.575 30.7841 45.375C30.8507 45.1583 30.9507 44.95 31.0841 44.75ZM37.3937 54.45C36.477 54.45 35.7687 54.1833 35.2687 53.65C34.7853 53.1167 34.5437 52.3 34.5437 51.2C34.5437 50.6 34.652 49.9417 34.8687 49.225C35.102 48.5083 35.402 47.8083 35.7687 47.125C36.152 46.4417 36.5687 45.85 37.0187 45.35C37.4687 44.8333 37.9187 44.475 38.3687 44.275C38.5353 44.1917 38.7103 44.1333 38.8937 44.1C39.0937 44.05 39.2853 44.025 39.4687 44.025C39.6687 44.025 39.8853 44.0417 40.1187 44.075C40.3687 44.0917 40.602 44.1417 40.8187 44.225C41.202 44.3417 41.5353 44.5667 41.8187 44.9C42.1187 45.2333 42.2687 45.7167 42.2687 46.35C42.2687 46.5167 42.252 46.7 42.2187 46.9C42.1853 47.0833 42.127 47.2667 42.0437 47.45C41.827 48 41.4937 48.525 41.0437 49.025C40.6103 49.525 40.152 49.875 39.6687 50.075C39.5353 50.1417 39.402 50.1917 39.2687 50.225C39.152 50.2417 39.027 50.25 38.8937 50.25C38.5437 50.25 38.227 50.2 37.9437 50.1C37.677 50 37.427 49.8667 37.1937 49.7L36.9937 49.525L36.8687 49.775C36.752 50.0917 36.6687 50.3583 36.6187 50.575C36.5853 50.7917 36.5687 50.95 36.5687 51.05C36.5687 51.25 36.577 51.4583 36.5937 51.675C36.6103 51.875 36.6603 52.0417 36.7437 52.175C36.8103 52.2583 36.8937 52.325 36.9937 52.375C37.1103 52.425 37.252 52.45 37.4187 52.45C37.5187 52.45 37.6103 52.45 37.6937 52.45C37.7937 52.4333 37.877 52.4167 37.9437 52.4C38.2437 52.3333 38.4853 52.225 38.6687 52.075C38.8687 51.9083 39.077 51.7667 39.2937 51.65L39.3937 51.6L39.3687 51.525C39.652 51.375 39.8437 51.2833 39.9437 51.25C40.0437 51.2 40.1187 51.1583 40.1687 51.125C40.2353 51.0583 40.3103 51.025 40.3937 51.025C40.627 50.9917 40.852 51.0583 41.0687 51.225C41.302 51.375 41.4187 51.5667 41.4187 51.8C41.4187 51.9 41.3437 52.0583 41.1937 52.275C41.0603 52.4917 40.8853 52.7083 40.6687 52.925C40.4687 53.125 40.2603 53.2833 40.0437 53.4C39.9937 53.4167 39.9437 53.4417 39.8937 53.475C39.8437 53.4917 39.7937 53.5167 39.7437 53.55H39.7687C39.6187 53.75 39.4687 53.85 39.3187 53.85H39.1187C39.052 53.9667 38.8353 54.0917 38.4687 54.225C38.102 54.375 37.7437 54.45 37.3937 54.45ZM38.6937 48.425C38.8437 48.425 38.977 48.4 39.0937 48.35C39.227 48.3 39.352 48.2417 39.4687 48.175C39.8687 47.8917 40.127 47.525 40.2437 47.075C40.3603 46.625 40.3187 46.2833 40.1187 46.05C40.0853 46 40.0437 45.9667 39.9937 45.95C39.9437 45.9167 39.8853 45.9 39.8187 45.9C39.6353 45.9 39.427 45.9583 39.1937 46.075C38.977 46.1917 38.7603 46.3583 38.5437 46.575C38.327 46.7917 38.127 47.05 37.9437 47.35L37.6187 47.875C37.652 47.8583 37.677 47.85 37.6937 47.85C37.727 47.8333 37.752 47.825 37.7687 47.825C37.9187 47.825 38.0187 47.875 38.0687 47.975C38.1187 48.075 38.177 48.175 38.2437 48.275C38.327 48.375 38.477 48.425 38.6937 48.425ZM48.978 56.425C48.8614 56.0917 48.8197 55.825 48.853 55.625C48.8864 55.425 48.978 55.175 49.128 54.875C49.228 54.675 49.3197 54.475 49.403 54.275C49.503 54.075 49.5947 53.875 49.678 53.675C49.778 53.475 49.8614 53.275 49.928 53.075C49.5947 53.1083 49.253 53.1583 48.903 53.225C48.553 53.275 48.2114 53.3417 47.878 53.425C47.5447 53.4917 47.2114 53.575 46.878 53.675C46.728 53.725 46.578 53.75 46.428 53.75C46.278 53.7333 46.1197 53.7417 45.953 53.775C45.503 53.8417 45.1114 53.8583 44.778 53.825C44.4447 53.7917 44.0697 53.6667 43.653 53.45C43.5197 53.2333 43.403 53.0167 43.303 52.8C43.203 52.5667 43.153 52.3167 43.153 52.05C43.153 51.8333 43.2197 51.5 43.353 51.05C43.4864 50.5833 43.6614 50.0667 43.878 49.5C44.0947 48.9167 44.3114 48.325 44.528 47.725C44.7614 47.125 44.9697 46.575 45.153 46.075C45.3364 45.5583 45.4614 45.15 45.528 44.85C45.578 44.6167 45.6697 44.4583 45.803 44.375C45.9364 44.275 46.0864 44.225 46.253 44.225C46.553 44.225 46.8614 44.3667 47.178 44.65C47.4947 44.9333 47.678 45.2833 47.728 45.7C47.6447 45.9333 47.5614 46.175 47.478 46.425C47.4114 46.675 47.3364 46.925 47.253 47.175C47.1697 47.4083 47.078 47.6417 46.978 47.875C46.7114 48.4917 46.4364 49.1 46.153 49.7C45.8697 50.2833 45.6614 50.9083 45.528 51.575C45.678 51.5583 45.8447 51.5333 46.028 51.5C46.228 51.4667 46.428 51.4333 46.628 51.4C46.828 51.35 47.0197 51.3 47.203 51.25C47.403 51.1833 47.5697 51.125 47.703 51.075C47.7697 50.8917 47.8697 50.6167 48.003 50.25C48.153 49.8833 48.2864 49.525 48.403 49.175C48.5364 48.825 48.603 48.5833 48.603 48.45C48.603 48.3333 48.6197 48.2083 48.653 48.075C48.703 47.925 48.7614 47.7833 48.828 47.65C48.8947 47.5 48.953 47.3833 49.003 47.3C49.1864 46.8833 49.3364 46.4667 49.453 46.05C49.5697 45.6333 49.703 45.2083 49.853 44.775C49.9697 44.725 50.078 44.6833 50.178 44.65C50.278 44.6 50.3697 44.5333 50.453 44.45C51.003 44.4667 51.4197 44.6 51.703 44.85C51.9864 45.1 52.128 45.5083 52.128 46.075C51.7614 46.8083 51.4364 47.5667 51.153 48.35C50.8697 49.1167 50.6114 49.8917 50.378 50.675C50.4947 50.6083 50.603 50.55 50.703 50.5C50.8197 50.45 50.9364 50.4083 51.053 50.375C51.1697 50.3417 51.2864 50.3167 51.403 50.3C51.503 50.3833 51.5947 50.4667 51.678 50.55C51.778 50.6333 51.8614 50.7167 51.928 50.8C52.0947 50.9833 52.2197 51.175 52.303 51.375C52.3864 51.5583 52.428 51.7583 52.428 51.975C52.428 52.175 52.3864 52.4 52.303 52.65C52.2364 52.8833 52.128 53.15 51.978 53.45C51.9114 53.6 51.828 53.8167 51.728 54.1C51.628 54.4 51.5197 54.7083 51.403 55.025C51.2864 55.3583 51.1697 55.65 51.053 55.9C50.953 56.15 50.8614 56.3167 50.778 56.4C50.5614 56.6167 50.2614 56.725 49.878 56.725C49.5114 56.725 49.2114 56.625 48.978 56.425Z" fill="#820201"/>
</g>
<defs>
<clipPath id="clip0_43_62">
<rect width="118" height="60" fill="white"/>
</clipPath>
</defs>
</svg>
