<svg width="118" height="60" viewBox="0 0 118 60" fill="none" xmlns="http://www.w3.org/2000/svg">
<g clip-path="url(#clip0_36_51)">
<path d="M9.7 46.26C12.5 46.26 15.02 47.44 15.02 50.62C15.02 53.82 12.7 55 7.52 55C5.92 55 3.44 54.7 3.44 54.7L1.58 55V40.62L3.44 40.3H13.78V42.18L11.9 42.5V40.62H3.44V47.48C5.74 47.3 7.28 46.26 9.7 46.26ZM7.82 54.7C11.8 54.7 13.14 52.62 13.14 50.64C13.14 48.14 11.56 46.7 9.7 46.56C7.28 46.56 5.74 47.62 3.44 47.78V54.38C3.44 54.38 6.24 54.7 7.82 54.7ZM26.0789 44.06L27.9589 43.74V54.7L26.0789 55V53.8C24.9989 54.62 23.6789 55.04 22.3189 55C19.1989 55 16.6989 53.14 16.6989 49.38C16.6989 45.62 19.1989 43.74 22.3189 43.74C23.6789 43.7 24.9989 44.14 26.0789 44.96V44.06ZM22.9389 54.7C24.1989 54.64 25.3589 54 26.0789 52.98V46.08C24.9389 44.86 23.3589 44.14 21.6989 44.06C19.1989 44.06 18.5589 46.88 18.5589 49.38C18.5589 53.14 21.0589 54.7 22.9389 54.7ZM38.5392 44.06L40.4192 43.74V54.7L38.5392 55V47.82C36.3592 47.82 34.4792 49.06 32.2792 49.06V54.7L30.4192 55V44.06L32.2792 43.74V48.76C34.4792 48.76 36.3592 47.5 38.5392 47.5V44.06ZM46.7602 48.48C49.9402 48.84 51.8202 52.92 51.8202 54.72L50.5602 55C50.5602 53.46 49.4602 48.88 46.4202 48.78L44.7402 50.18V54.72L42.8802 55.02V44.08L44.7402 43.76V49.78L46.3202 48.46L51.9202 43.74L52.1402 43.98L46.7602 48.48ZM59.7163 54.7C60.9963 54.6 62.1563 53.9 62.8563 52.82L63.1563 53.44C62.2163 54.38 60.3963 55.02 59.0963 55.02C56.1563 55.02 53.7563 53.34 53.4963 50C53.4763 49.8 53.4763 49.6 53.4763 49.38C53.4763 45.62 55.9763 43.74 59.0963 43.74C59.2563 43.74 59.4363 43.76 59.5963 43.76C59.6563 43.76 59.7163 43.78 59.7763 43.78C59.8763 43.8 59.9763 43.8 60.0763 43.82C60.1563 43.82 60.2163 43.84 60.2963 43.84C60.3763 43.86 60.4563 43.88 60.5363 43.9C60.6163 43.92 60.6963 43.94 60.7763 43.94C60.8563 43.96 60.9163 43.98 60.9963 44C61.0763 44.02 61.1563 44.06 61.2163 44.08C61.2963 44.1 61.3563 44.12 61.4363 44.16C61.4963 44.18 61.5763 44.22 61.6563 44.24C61.7163 44.28 61.7763 44.3 61.8363 44.32C61.9163 44.36 61.9963 44.4 62.0563 44.44C62.1163 44.48 62.1763 44.5 62.2363 44.54C62.3163 44.58 62.3763 44.62 62.4363 44.66C62.4763 44.68 62.5163 44.7 62.5363 44.72C63.6762 45.52 64.4363 46.76 64.6163 48.12H62.8563C60.2163 48.12 57.9563 49.28 55.3363 49.36V49.38C55.3363 53.14 57.8363 54.7 59.7163 54.7ZM58.4763 44.06C56.0763 44.06 55.3963 46.64 55.3563 49.06C57.8963 48.96 60.1163 47.86 62.6763 47.82C62.5363 47.16 62.2763 46.54 61.9163 45.98C61.8163 45.82 61.6963 45.68 61.5963 45.56C61.5763 45.54 61.5363 45.5 61.5163 45.48C61.4363 45.38 61.3363 45.28 61.2363 45.18C61.1963 45.16 61.1563 45.12 61.1363 45.1C61.0163 45 60.8963 44.9 60.7563 44.8C60.6163 44.7 60.4763 44.62 60.3363 44.56C60.3163 44.54 60.2763 44.52 60.2363 44.5C60.1363 44.44 60.0163 44.4 59.8963 44.34C59.8763 44.34 59.8363 44.32 59.8163 44.32C59.6763 44.26 59.5363 44.22 59.3963 44.18C59.3763 44.18 59.3363 44.16 59.3163 44.16C59.1963 44.14 59.0963 44.12 58.9763 44.1C58.9363 44.1 58.8963 44.08 58.8763 44.08C58.7363 44.06 58.5963 44.06 58.4763 44.06ZM74.9842 44.06V44.38H70.9242V54.7L69.0442 55V44.38H64.9842V44.06H69.0442L70.9242 43.74V44.06H74.9842Z" fill="#820201"/>
<path d="M5.56275 3.992L8.57075 3.48V26.52L5.56275 27V4.824L2.39475 7.48L2.07475 7.096L5.56275 4.184V3.992ZM35.357 27C34.557 27 33.885 26.328 33.885 25.528C33.885 24.696 34.557 24.024 35.357 24.024C36.189 24.024 36.861 24.696 36.861 25.528C36.861 26.328 36.189 27 35.357 27ZM35.357 11.992C34.557 11.992 33.885 11.32 33.885 10.488C33.885 9.656 34.557 8.984 35.357 8.984C36.189 8.984 36.861 9.656 36.861 10.488C36.861 11.32 36.189 11.992 35.357 11.992ZM51.4243 3.48C57.9203 3.48 61.9203 7 61.9203 15C61.9203 23 57.4403 27 51.4243 27C44.9283 27 40.9283 23 40.9283 15C40.9283 7 45.4083 3.48 51.4243 3.48ZM52.4163 26.52C57.9203 26.52 58.9443 20.504 58.9443 15C58.9443 7 54.9123 3.992 50.4323 3.992C45.4083 3.992 43.9043 9.496 43.9043 15C43.9043 23 47.9043 26.52 52.4163 26.52ZM76.9868 3.48C83.4828 3.48 87.4828 7 87.4828 15C87.4828 23 83.0028 27 76.9868 27C70.4908 27 66.4908 23 66.4908 15C66.4908 7 70.9708 3.48 76.9868 3.48ZM77.9788 26.52C83.4828 26.52 84.5068 20.504 84.5068 15C84.5068 7 80.4748 3.992 75.9948 3.992C70.9708 3.992 69.4668 9.496 69.4668 15C69.4668 23 73.4668 26.52 77.9788 26.52Z" fill="#262626"/>
<path d="M23.2717 3.174C24.2617 3.174 25.1637 3.35 25.9777 3.702C26.8137 4.032 27.4737 4.538 27.9577 5.22C28.4637 5.88 28.7167 6.705 28.7167 7.695C28.7167 9.037 28.2767 10.225 27.3967 11.259C26.5167 12.293 25.3837 13.25 23.9977 14.13L23.7337 13.668C24.3057 13.184 24.7567 12.656 25.0867 12.084C25.4387 11.512 25.6917 10.896 25.8457 10.236C25.9997 9.554 26.0767 8.85 26.0767 8.124C26.0767 6.826 25.8017 5.781 25.2517 4.989C24.7237 4.175 23.9427 3.768 22.9087 3.768C22.0287 3.768 21.2917 4.087 20.6977 4.725C20.1037 5.341 19.8067 6.199 19.8067 7.299C19.8067 8.333 20.0487 9.246 20.5327 10.038C21.0167 10.808 21.6437 11.512 22.4137 12.15C23.1837 12.788 23.9977 13.415 24.8557 14.031C25.7137 14.625 26.5277 15.263 27.2977 15.945C28.0677 16.605 28.6947 17.364 29.1787 18.222C29.6627 19.058 29.9047 20.037 29.9047 21.159C29.9047 22.413 29.5967 23.513 28.9807 24.459C28.3647 25.405 27.5177 26.142 26.4397 26.67C25.3837 27.198 24.1627 27.462 22.7767 27.462C21.6107 27.462 20.5217 27.264 19.5097 26.868C18.4977 26.45 17.6837 25.834 17.0677 25.02C16.4517 24.184 16.1437 23.15 16.1437 21.918C16.1437 20.774 16.3967 19.751 16.9027 18.849C17.4307 17.925 18.1237 17.122 18.9817 16.44C19.8617 15.736 20.8297 15.142 21.8857 14.658L22.1497 15.12C21.0057 15.89 20.2027 16.825 19.7407 17.925C19.2787 19.003 19.0477 20.169 19.0477 21.423C19.0477 22.369 19.1687 23.26 19.4107 24.096C19.6747 24.91 20.0927 25.581 20.6647 26.109C21.2587 26.615 22.0287 26.868 22.9747 26.868C24.0747 26.868 25.0317 26.505 25.8457 25.779C26.6817 25.031 27.0997 23.953 27.0997 22.545C27.0997 21.467 26.8577 20.521 26.3737 19.707C25.9117 18.893 25.3067 18.145 24.5587 17.463C23.8107 16.759 23.0077 16.088 22.1497 15.45C21.3137 14.812 20.5217 14.152 19.7737 13.47C19.0257 12.788 18.4097 12.029 17.9257 11.193C17.4637 10.357 17.2327 9.4 17.2327 8.322C17.2327 7.288 17.4967 6.386 18.0247 5.616C18.5747 4.846 19.3007 4.252 20.2027 3.834C21.1267 3.394 22.1497 3.174 23.2717 3.174Z" fill="#262626"/>
</g>
<defs>
<clipPath id="clip0_36_51">
<rect width="118" height="60" fill="white"/>
</clipPath>
</defs>
</svg>
