<svg width="118" height="60" viewBox="0 0 118 60" fill="none" xmlns="http://www.w3.org/2000/svg">
<g clip-path="url(#clip0_43_62)">
<path d="M35.3571 27C34.5571 27 33.8851 26.328 33.8851 25.528C33.8851 24.696 34.5571 24.024 35.3571 24.024C36.1891 24.024 36.8611 24.696 36.8611 25.528C36.8611 26.328 36.1891 27 35.3571 27ZM35.3571 11.992C34.5571 11.992 33.8851 11.32 33.8851 10.488C33.8851 9.65598 34.5571 8.98398 35.3571 8.98398C36.1891 8.98398 36.8611 9.65598 36.8611 10.488C36.8611 11.32 36.1891 11.992 35.3571 11.992ZM51.4244 3.47998C57.9204 3.47998 61.9204 6.99998 61.9204 15C61.9204 23 57.4404 27 51.4244 27C44.9284 27 40.9284 23 40.9284 15C40.9284 6.99998 45.4084 3.47998 51.4244 3.47998ZM52.4164 26.52C57.9204 26.52 58.9444 20.504 58.9444 15C58.9444 6.99998 54.9124 3.99198 50.4324 3.99198C45.4084 3.99198 43.9044 9.49598 43.9044 15C43.9044 23 47.9044 26.52 52.4164 26.52ZM76.9869 3.47998C83.4829 3.47998 87.4829 6.99998 87.4829 15C87.4829 23 83.0029 27 76.9869 27C70.4909 27 66.4909 23 66.4909 15C66.4909 6.99998 70.9709 3.47998 76.9869 3.47998ZM77.9789 26.52C83.4829 26.52 84.5069 20.504 84.5069 15C84.5069 6.99998 80.4749 3.99198 75.9949 3.99198C70.9709 3.99198 69.4669 9.49598 69.4669 15C69.4669 23 73.4669 26.52 77.9789 26.52Z" fill="#262626"/>
<path d="M12.8673 27.032C11.5659 26.9893 10.1259 26.968 8.54725 26.968C6.98992 26.968 5.58192 26.968 4.32325 26.968C3.10725 26.968 2.08325 26.968 1.25125 26.968C0.41925 26.968 -0.22075 26.9787 -0.66875 27C-0.775417 26.7227 -0.82875 26.4347 -0.82875 26.136C1.75258 24.1307 3.76858 22.3387 5.21925 20.76C6.66992 19.1813 7.69392 17.7627 8.29125 16.504C8.88858 15.2453 9.18725 14.0933 9.18725 13.048C9.18725 11.704 8.78192 10.7013 7.97125 10.04C7.16058 9.35733 6.16858 9.016 4.99525 9.016C4.20592 9.016 3.41658 9.15467 2.62725 9.432C1.85925 9.70933 1.14458 10.0933 0.48325 10.584C0.376583 10.4773 0.269917 10.36 0.16325 10.232C0.0565834 10.104 -0.0394166 9.96533 -0.12475 9.816C0.792583 8.81333 1.80592 8.06667 2.91525 7.576C4.02458 7.08533 5.17658 6.84 6.37125 6.84C7.48058 6.84 8.50458 7.05333 9.44325 7.48C10.4033 7.88533 11.1713 8.472 11.7473 9.24C12.3446 10.008 12.6433 10.9253 12.6433 11.992C12.6433 13.2507 12.2699 14.4987 11.5233 15.736C10.7766 16.952 9.69925 18.2533 8.29125 19.64C6.88325 21.0053 5.19792 22.5413 3.23525 24.248C4.40858 24.248 5.48592 24.248 6.46725 24.248C7.44858 24.2267 8.23792 24.2053 8.83525 24.184C9.45392 24.1627 9.77392 24.152 9.79525 24.152C10.3713 24.1307 10.8193 24.0773 11.1393 23.992C11.4593 23.9067 11.7579 23.6827 12.0353 23.32C12.3126 22.936 12.6753 22.3067 13.1233 21.432C13.2513 21.432 13.4113 21.4427 13.6033 21.464C13.7953 21.4853 13.9659 21.528 14.1153 21.592C13.8593 22.488 13.6246 23.4053 13.4113 24.344C13.2193 25.2827 13.0379 26.1787 12.8673 27.032ZM29.836 27.032C28.5347 26.9893 27.0947 26.968 25.516 26.968C23.9587 26.968 22.5507 26.968 21.292 26.968C20.076 26.968 19.052 26.968 18.22 26.968C17.388 26.968 16.748 26.9787 16.3 27C16.1933 26.7227 16.14 26.4347 16.14 26.136C18.7213 24.1307 20.7373 22.3387 22.188 20.76C23.6387 19.1813 24.6627 17.7627 25.26 16.504C25.8573 15.2453 26.156 14.0933 26.156 13.048C26.156 11.704 25.7507 10.7013 24.94 10.04C24.1293 9.35733 23.1373 9.016 21.964 9.016C21.1747 9.016 20.3853 9.15467 19.596 9.432C18.828 9.70933 18.1133 10.0933 17.452 10.584C17.3453 10.4773 17.2387 10.36 17.132 10.232C17.0253 10.104 16.9293 9.96533 16.844 9.816C17.7613 8.81333 18.7747 8.06667 19.884 7.576C20.9933 7.08533 22.1453 6.84 23.34 6.84C24.4493 6.84 25.4733 7.05333 26.412 7.48C27.372 7.88533 28.14 8.472 28.716 9.24C29.3133 10.008 29.612 10.9253 29.612 11.992C29.612 13.2507 29.2387 14.4987 28.492 15.736C27.7453 16.952 26.668 18.2533 25.26 19.64C23.852 21.0053 22.1667 22.5413 20.204 24.248C21.3773 24.248 22.4547 24.248 23.436 24.248C24.4173 24.2267 25.2067 24.2053 25.804 24.184C26.4227 24.1627 26.7427 24.152 26.764 24.152C27.34 24.1307 27.788 24.0773 28.108 23.992C28.428 23.9067 28.7267 23.6827 29.004 23.32C29.2813 22.936 29.644 22.3067 30.092 21.432C30.22 21.432 30.38 21.4427 30.572 21.464C30.764 21.4853 30.9347 21.528 31.084 21.592C30.828 22.488 30.5933 23.4053 30.38 24.344C30.188 25.2827 30.0067 26.1787 29.836 27.032Z" fill="#262626"/>
<path d="M1.6749 54.825C1.3749 54.6583 1.20824 54.475 1.1749 54.275C1.15824 54.075 1.2749 53.725 1.5249 53.225C1.7749 52.725 2.16657 51.95 2.6999 50.9C3.0999 50.15 3.36657 49.5667 3.4999 49.15C3.6499 48.7167 3.73324 48.4083 3.7499 48.225C3.76657 48.0417 3.7749 47.925 3.7749 47.875C3.74157 47.725 3.75824 47.6083 3.8249 47.525C3.89157 47.425 3.9999 47.3417 4.1499 47.275C4.23324 47.1917 4.4249 47.0417 4.7249 46.825C5.0249 46.6083 5.25824 46.35 5.4249 46.05C5.5749 45.7 5.74157 45.3417 5.9249 44.975C6.1249 44.6083 6.38324 44.15 6.6999 43.6C7.01657 43.0333 7.44157 42.3 7.9749 41.4C8.30824 40.8167 8.6999 40.1583 9.1499 39.425C9.61657 38.6917 10.0749 38.025 10.5249 37.425C10.7082 37.1917 10.8999 37.0083 11.0999 36.875C11.2999 36.7417 11.4749 36.675 11.6249 36.675C11.9916 36.675 12.3582 36.775 12.7249 36.975C13.0916 37.1583 13.4166 37.3917 13.6999 37.675C13.9832 37.9583 14.1749 38.225 14.2749 38.475C14.3582 38.6083 14.3916 38.8917 14.3749 39.325C14.3582 39.7583 14.3249 40.2833 14.2749 40.9C14.2249 41.5167 14.1666 42.175 14.0999 42.875C14.0499 43.5583 13.9749 44.3667 13.8749 45.3C13.7749 46.2333 13.6749 47.2083 13.5749 48.225C13.4916 49.2417 13.4249 50.225 13.3749 51.175C13.3249 52.1083 13.3249 52.925 13.3749 53.625C13.3916 53.775 13.3916 53.9167 13.3749 54.05C13.3582 54.1833 13.3499 54.2917 13.3499 54.375C13.2499 54.475 13.0332 54.5167 12.6999 54.5C12.3666 54.5 12.0416 54.45 11.7249 54.35C11.4082 54.25 11.2332 54.125 11.1999 53.975C11.1499 53.925 11.1166 53.8833 11.0999 53.85C11.0832 53.8167 11.0832 53.6583 11.0999 53.375C11.1166 53.075 11.1416 52.5333 11.1749 51.75L11.2999 47.925L10.9749 47.95C10.8249 47.95 10.5499 47.9667 10.1499 48C9.76657 48.0333 9.34157 48.0833 8.8749 48.15C8.4249 48.2 8.00824 48.2583 7.6249 48.325C7.24157 48.375 6.9749 48.425 6.8249 48.475C6.6749 48.475 6.49157 48.575 6.2749 48.775C6.0749 48.975 5.88324 49.2333 5.6999 49.55C5.63324 49.7833 5.50824 50.0333 5.3249 50.3C5.15824 50.55 5.0749 50.7167 5.0749 50.8C4.95824 50.8833 4.85824 50.9833 4.7749 51.1C4.70824 51.2167 4.6749 51.275 4.6749 51.275C4.6749 51.375 4.5999 51.625 4.4499 52.025C4.2999 52.4083 4.11657 52.8417 3.8999 53.325C3.68324 53.7917 3.45824 54.2 3.2249 54.55L2.5499 55.5L1.6749 54.825ZM7.6499 46.225C7.6499 46.225 7.74157 46.2083 7.9249 46.175C8.10824 46.1417 8.3249 46.1083 8.5749 46.075C8.84157 46.025 9.0749 46 9.2749 46C9.65824 45.9 9.9749 45.825 10.2249 45.775C10.4916 45.725 10.7082 45.7 10.8749 45.7C11.0416 45.6833 11.1749 45.7 11.2749 45.75C11.3416 45.8333 11.3999 45.8833 11.4499 45.9C11.5166 45.9167 11.5499 45.925 11.5499 45.925C11.5666 45.8917 11.5999 45.7167 11.6499 45.4C11.6999 45.0833 11.7582 44.6917 11.8249 44.225C11.8916 43.7583 11.9582 43.275 12.0249 42.775C12.0916 42.2583 12.1499 41.7833 12.1999 41.35C12.2499 40.9 12.2832 40.55 12.2999 40.3C12.3166 39.9833 12.3082 39.7 12.2749 39.45C12.2416 39.1833 12.2249 39.05 12.2249 39.05C12.1249 39.05 11.9332 39.2333 11.6499 39.6C11.3832 39.95 11.0666 40.425 10.6999 41.025C10.3499 41.6083 9.9999 42.2417 9.6499 42.925C9.48324 43.2417 9.3249 43.4917 9.1749 43.675C9.04157 43.8583 8.93324 43.95 8.8499 43.95C8.81657 43.9833 8.7249 44.1167 8.5749 44.35C8.44157 44.5667 8.29157 44.8167 8.1249 45.1C7.9749 45.3667 7.84157 45.6167 7.7249 45.85C7.6249 46.0667 7.5999 46.1917 7.6499 46.225ZM15.6685 54.225C15.4351 54.225 15.2685 54.1917 15.1685 54.125C15.0685 54.0583 14.9518 53.95 14.8185 53.8C14.6518 53.5667 14.5351 53.3917 14.4685 53.275C14.4018 53.1417 14.3768 52.9417 14.3935 52.675C14.4601 52.4417 14.5685 52.2667 14.7185 52.15C14.8851 52.0167 15.0685 51.9667 15.2685 52C15.3185 52.0167 15.3685 52.0333 15.4185 52.05C15.4851 52.05 15.5435 52.0667 15.5935 52.1C16.0601 51.8667 16.4518 51.575 16.7685 51.225C17.1018 50.875 17.4185 50.4833 17.7185 50.05C17.4685 49.9333 17.2351 49.7917 17.0185 49.625C16.8185 49.4417 16.6601 49.2583 16.5435 49.075C16.3935 48.8083 16.2851 48.5167 16.2185 48.2C16.1685 47.8833 16.1268 47.5417 16.0935 47.175C16.1935 46.9583 16.2685 46.725 16.3185 46.475C16.3851 46.225 16.4685 45.9583 16.5685 45.675C16.6851 45.375 16.8601 45.075 17.0935 44.775C17.2768 44.5417 17.5101 44.3083 17.7935 44.075C18.0768 43.8417 18.3601 43.65 18.6435 43.5C18.9435 43.3333 19.1768 43.25 19.3435 43.25C19.5435 43.3167 19.7185 43.3083 19.8685 43.225C20.0351 43.125 20.2351 43.1167 20.4685 43.2C20.5351 43.2167 20.5935 43.225 20.6435 43.225C20.7101 43.225 20.7768 43.2333 20.8435 43.25C21.4435 43.3667 21.8935 43.5417 22.1935 43.775C22.4935 43.9917 22.6768 44.3083 22.7435 44.725C22.6268 45.375 22.5185 45.85 22.4185 46.15C22.3351 46.45 22.2101 46.75 22.0435 47.05C21.9268 47.2667 21.8101 47.5 21.6935 47.75C21.5935 47.9833 21.4768 48.2167 21.3435 48.45L21.2435 48.625C21.3935 48.6417 21.5435 48.6667 21.6935 48.7C21.8601 48.7167 21.9518 48.7333 21.9685 48.75C22.1851 48.8 22.3768 48.8917 22.5435 49.025C22.7101 49.1417 22.8685 49.2667 23.0185 49.4C23.1018 49.4667 23.1518 49.6 23.1685 49.8C23.1851 50 23.1268 50.1667 22.9935 50.3C22.8101 50.6833 22.6185 51.0667 22.4185 51.45C22.2185 51.8333 22.0351 52.2083 21.8685 52.575C21.8018 52.725 21.7435 52.9167 21.6935 53.15C21.6435 53.3667 21.5518 53.6167 21.4185 53.9C21.3185 53.9333 21.2185 53.9667 21.1185 54C21.0185 54.0333 20.9101 54.0667 20.7935 54.1C20.6935 54.1333 20.5935 54.1667 20.4935 54.2C20.1101 54.1167 19.8518 53.9 19.7185 53.55C19.7018 53.5167 19.6435 53.425 19.5435 53.275C19.4601 53.1083 19.4518 52.9083 19.5185 52.675C19.5518 52.5417 19.5935 52.425 19.6435 52.325C19.6935 52.2083 19.7351 52.1167 19.7685 52.05C19.8518 51.8667 19.9351 51.675 20.0185 51.475C20.1018 51.275 20.1935 51.075 20.2935 50.875C20.3101 50.825 20.3351 50.7667 20.3685 50.7L20.2185 50.675C20.1185 50.6583 20.0268 50.65 19.9435 50.65C19.8601 50.6333 19.7851 50.6167 19.7185 50.6C19.6518 50.65 19.5851 50.7083 19.5185 50.775C19.4685 50.825 19.4101 50.9167 19.3435 51.05C19.1601 51.25 18.9851 51.475 18.8185 51.725C18.6518 51.975 18.4685 52.2 18.2685 52.4C17.9518 52.7333 17.6851 53 17.4685 53.2C17.2685 53.4 17.0768 53.5833 16.8935 53.75C16.4435 54.0667 16.0351 54.225 15.6685 54.225ZM18.9685 48.75C19.1351 48.7167 19.2768 48.6667 19.3935 48.6C19.5268 48.5167 19.6435 48.4 19.7435 48.25C19.8601 48.1 19.9601 47.9 20.0435 47.65C20.1268 47.4 20.2185 47.0917 20.3185 46.725C20.3685 46.575 20.4101 46.4333 20.4435 46.3C20.4935 46.15 20.5435 46.0083 20.5935 45.875C20.6435 45.7417 20.6851 45.6083 20.7185 45.475C20.7685 45.3417 20.8185 45.2083 20.8685 45.075C20.7518 44.9917 20.5935 44.95 20.3935 44.95C20.2101 44.9333 20.0268 44.9417 19.8435 44.975C19.3935 45.1417 19.0351 45.4 18.7685 45.75C18.5185 46.0833 18.3101 46.525 18.1435 47.075C18.0268 47.5417 18.0268 47.9333 18.1435 48.25C18.2768 48.55 18.5518 48.7167 18.9685 48.75ZM24.0726 53.425C24.0559 53.2083 24.0809 52.9083 24.1476 52.525C24.2309 52.1417 24.3226 51.7667 24.4226 51.4C24.5392 51.0333 24.6309 50.7667 24.6976 50.6C24.8476 50.1333 24.9976 49.6667 25.1476 49.2C25.3142 48.7167 25.4726 48.2417 25.6226 47.775C25.7892 47.3083 25.9392 46.875 26.0726 46.475C26.0726 46.4583 26.0726 46.45 26.0726 46.45C26.0892 46.4333 26.0976 46.4167 26.0976 46.4C26.0976 46.3833 26.0976 46.3667 26.0976 46.35C26.0976 46.3167 26.0976 46.2833 26.0976 46.25C26.0976 46.2167 26.0976 46.175 26.0976 46.125C26.0309 45.775 26.0642 45.4917 26.1976 45.275C26.3476 45.0583 26.4392 44.9083 26.4726 44.825C26.6226 44.6917 26.7892 44.6 26.9726 44.55C27.1559 44.5 27.3642 44.5417 27.5976 44.675C27.8476 44.6083 28.1976 44.5417 28.6476 44.475C29.1142 44.4083 29.4559 44.325 29.6726 44.225C29.8892 44.2083 30.0726 44.1917 30.2226 44.175C30.3726 44.1583 30.5226 44.15 30.6726 44.15C30.8226 44.1333 31.0059 44.1417 31.2226 44.175C31.4392 44.175 31.6726 44.2583 31.9226 44.425C32.1726 44.575 32.4142 44.8 32.6476 45.1C32.6809 45.4 32.6559 45.6417 32.5726 45.825C32.4892 45.9917 32.3142 46.0917 32.0476 46.125C31.9476 46.125 31.7392 46.125 31.4226 46.125C31.1226 46.125 30.8059 46.1417 30.4726 46.175C30.1392 46.1917 29.8642 46.2417 29.6476 46.325C29.4809 46.375 29.3142 46.4167 29.1476 46.45C28.9809 46.4667 28.8226 46.4833 28.6726 46.5C28.5392 46.5 28.4142 46.525 28.2976 46.575C28.1976 46.7917 28.1142 47.0417 28.0476 47.325C27.9976 47.6083 27.9309 47.8583 27.8476 48.075C27.7642 48.3417 27.6809 48.6 27.5976 48.85C27.5142 49.0833 27.4309 49.3167 27.3476 49.55C27.2809 49.7667 27.2142 49.975 27.1476 50.175C27.0476 50.5083 26.9476 50.8167 26.8476 51.1C26.7642 51.3667 26.6809 51.6167 26.5976 51.85C26.5309 52.0667 26.4642 52.275 26.3976 52.475C26.2809 52.8417 26.1809 53.1417 26.0976 53.375C26.0142 53.5917 25.9476 53.7667 25.8976 53.9C25.8642 54.0167 25.8226 54.1083 25.7726 54.175C25.6559 54.2417 25.5059 54.2917 25.3226 54.325C25.1392 54.3583 24.9642 54.3667 24.7976 54.35C24.5309 54.3167 24.3476 54.2167 24.2476 54.05C24.1642 53.9 24.1059 53.6917 24.0726 53.425ZM36.0567 53.875C35.4901 54.025 35.0734 54.0917 34.8067 54.075C34.5567 54.075 34.2984 53.9667 34.0317 53.75C33.9484 53.6667 33.8567 53.575 33.7567 53.475C33.6567 53.375 33.5984 53.1917 33.5817 52.925C33.5651 52.8083 33.6317 52.6667 33.7817 52.5C33.9484 52.3167 34.1901 52.2417 34.5067 52.275C34.6734 52.3583 34.8984 52.3833 35.1817 52.35C35.4651 52.3167 35.7567 52.225 36.0567 52.075C36.3734 51.925 36.6651 51.7167 36.9317 51.45C37.2651 51.05 37.5317 50.675 37.7317 50.325C37.9317 49.9583 38.0401 49.6667 38.0567 49.45C38.0401 49.35 38.0151 49.2583 37.9817 49.175C37.9484 49.0917 37.8984 49.0083 37.8317 48.925C37.5317 49.025 37.2901 49.1417 37.1067 49.275C36.9401 49.3917 36.7734 49.5167 36.6067 49.65C36.0901 50.0667 35.7067 50.4 35.4567 50.65C35.2234 50.8833 35.0401 51.1 34.9067 51.3C34.7734 51.5 34.6067 51.75 34.4067 52.05C34.2734 52.2667 34.1151 52.4667 33.9317 52.65C33.7484 52.8167 33.6234 52.9417 33.5567 53.025C33.4567 53.375 33.2484 53.5833 32.9317 53.65C32.5151 53.5667 32.2151 53.425 32.0317 53.225C31.8651 53.0083 31.8151 52.6917 31.8817 52.275C31.9151 52.0417 31.9817 51.725 32.0817 51.325C32.1984 50.9083 32.2984 50.5917 32.3817 50.375C32.8651 48.8083 33.3401 47.5333 33.8067 46.55C34.2901 45.5667 34.6067 44.8417 34.7567 44.375L35.1567 44.125C35.4401 44.1417 35.6901 44.225 35.9067 44.375C36.1234 44.5083 36.2567 44.8 36.3067 45.25C36.3067 45.3333 36.2401 45.525 36.1067 45.825C35.9901 46.125 35.8484 46.475 35.6817 46.875C35.5151 47.2583 35.3567 47.625 35.2067 47.975C35.0734 48.3083 34.9734 48.5583 34.9067 48.725C34.8567 48.8583 34.8984 48.8667 35.0317 48.75C35.1817 48.6167 35.3984 48.425 35.6817 48.175C35.8984 47.9917 36.1067 47.85 36.3067 47.75C36.5067 47.6333 36.6734 47.55 36.8067 47.5C37.0401 47.4 37.2651 47.3417 37.4817 47.325C37.7151 47.3083 37.8901 47.2917 38.0067 47.275C38.5734 47.2917 38.9817 47.4 39.2317 47.6C39.4984 47.8 39.6651 48.025 39.7317 48.275C39.8151 48.525 39.8567 48.7333 39.8567 48.9C39.9401 49.1667 39.9817 49.4333 39.9817 49.7C39.9984 49.9667 39.9734 50.2333 39.9067 50.5C39.8567 50.6333 39.7484 50.8417 39.5817 51.125C39.4151 51.3917 39.2234 51.6667 39.0067 51.95C38.8067 52.2333 38.5901 52.45 38.3567 52.6C38.2067 52.75 37.9817 52.9167 37.6817 53.1C37.3984 53.2833 37.1067 53.45 36.8067 53.6C36.5067 53.7333 36.2567 53.825 36.0567 53.875ZM41.7317 54.3C41.2317 54.2667 40.8567 54.1667 40.6067 54C40.3734 53.8167 40.1901 53.5 40.0567 53.05C40.0567 52.6833 40.0901 52.375 40.1567 52.125C40.2401 51.8583 40.3067 51.6083 40.3567 51.375C40.4901 50.7917 40.6151 50.3667 40.7317 50.1C40.8484 49.8167 40.9817 49.4917 41.1317 49.125C41.2151 48.9417 41.2984 48.7333 41.3817 48.5C41.4651 48.2667 41.5401 48.0417 41.6067 47.825C41.6901 47.5583 41.7567 47.3167 41.8067 47.1C41.8734 46.8667 41.9401 46.6417 42.0067 46.425C42.0901 46.1417 42.1651 45.8583 42.2317 45.575C42.2984 45.2917 42.3651 44.9917 42.4317 44.675C42.7151 44.375 43.0151 44.25 43.3317 44.3C43.6484 44.35 43.9901 44.5833 44.3567 45C44.4901 45.3167 44.5567 45.575 44.5567 45.775C44.5734 45.975 44.5317 46.2 44.4317 46.45C44.3984 46.5333 44.3401 46.6917 44.2567 46.925C44.1734 47.1417 44.0734 47.4083 43.9567 47.725C43.8567 48.025 43.7401 48.35 43.6067 48.7C43.4567 49.1333 43.3067 49.575 43.1567 50.025C43.0234 50.4583 42.9067 50.8417 42.8067 51.175C42.7067 51.4917 42.6401 51.7083 42.6067 51.825C42.5067 52.0917 42.4317 52.3333 42.3817 52.55C42.3317 52.7667 42.2817 53.05 42.2317 53.4C42.2651 53.5333 42.2401 53.6833 42.1567 53.85C42.0901 54.0167 41.9484 54.1667 41.7317 54.3Z" fill="#820201"/>
</g>
<defs>
<clipPath id="clip0_43_62">
<rect width="118" height="60" fill="white"/>
</clipPath>
</defs>
</svg>
