<svg width="683" height="200" viewBox="0 0 683 200" fill="none" xmlns="http://www.w3.org/2000/svg">
<path d="M18.5005 3.774L12.4945 3.648C6.36248 3.648 3.29648 4.992 3.29648 7.68C3.29648 8.38 3.54848 8.954 4.05248 9.402C4.58448 9.822 5.36848 10.032 6.40448 10.032C7.44048 10.032 8.79848 9.556 10.4785 8.604L11.1085 9.696C10.2405 10.62 9.26048 11.348 8.16848 11.88C7.07648 12.412 5.98448 12.678 4.89248 12.678C3.80048 12.678 2.86248 12.314 2.07848 11.586C1.29448 10.858 0.902477 9.948 0.902477 8.856C0.902477 6.644 2.09248 4.712 4.47248 3.06C6.88048 1.408 10.1285 0.582 14.2165 0.582C14.3005 0.582 15.1965 0.623999 16.9045 0.707998C21.5525 0.987998 24.8705 1.128 26.8585 1.128C31.2545 1.128 33.9565 0.931998 34.9645 0.539998C35.3565 0.427999 35.5945 0.372 35.6785 0.372C36.0705 0.372 36.2665 0.694 36.2665 1.338C36.2665 1.954 35.8185 2.514 34.9225 3.018C34.0545 3.522 32.8225 3.774 31.2265 3.774C30.3585 4.334 29.4345 5.496 28.4545 7.26C27.5025 8.996 26.5645 11.488 25.6405 14.736C24.7445 17.956 24.2965 20.196 24.2965 21.456C24.2965 22.688 24.6045 23.57 25.2205 24.102C25.8645 24.606 26.8585 24.984 28.2025 25.236L27.3205 26.79C26.5925 26.846 26.0465 26.874 25.6825 26.874C24.3665 26.874 23.3445 26.44 22.6165 25.572C21.9165 24.676 21.5665 23.458 21.5665 21.918C21.5665 19.006 22.3225 15.632 23.8345 11.796C25.3465 7.932 26.9425 5.244 28.6225 3.732H26.0185C25.0105 4.74 24.1705 5.93 23.4985 7.302C22.8545 8.646 22.2525 10.256 21.6925 12.132C21.1605 14.008 20.7965 15.296 20.6005 15.996C20.4045 16.696 20.1105 17.634 19.7185 18.81C19.3545 19.986 19.0465 20.84 18.7945 21.372C18.5705 21.876 18.2765 22.52 17.9125 23.304C17.5485 24.088 17.1985 24.648 16.8625 24.984C16.5545 25.292 16.1765 25.642 15.7285 26.034C15.0005 26.678 13.9925 27 12.7045 27L12.8725 24.858C14.1605 24.634 15.0705 23.99 15.6025 22.926C16.1625 21.862 17.0725 19.258 18.3325 15.114C19.5925 10.97 20.4745 8.38 20.9785 7.344C21.5105 6.28 22.5185 5.09 24.0025 3.774L21.5665 3.816H21.0625C19.2145 5.608 17.5905 8.744 16.1905 13.224C14.8185 17.676 13.1665 21.078 11.2345 23.43C9.33048 25.754 7.06248 26.916 4.43048 26.916C3.39448 26.916 2.41448 26.58 1.49048 25.908L2.45648 24.312C3.24048 24.704 4.02448 24.9 4.80848 24.9C6.20848 24.9 7.45448 24.228 8.54648 22.884C9.66648 21.54 10.8285 19.006 12.0325 15.282C13.2645 11.53 14.2165 9.052 14.8885 7.848C15.5885 6.616 16.7925 5.258 18.5005 3.774ZM43.9653 14.526C44.6933 15.73 45.0573 17.06 45.0573 18.516C45.0573 20.784 44.2733 22.814 42.7053 24.606C41.1373 26.37 39.2893 27.252 37.1613 27.252C35.5373 27.252 34.2633 26.79 33.3393 25.866C32.4433 24.914 31.9953 23.612 31.9953 21.96C31.9953 19.3 33.0313 16.92 35.1033 14.82C37.1753 12.692 39.4993 11.628 42.0753 11.628C42.5513 11.628 42.8873 11.642 43.0833 11.67L43.2093 13.056C40.9693 13.056 39.1073 13.7 37.6233 14.988C36.1393 16.276 35.3973 17.928 35.3973 19.944C35.3973 21.148 35.6913 22.128 36.2793 22.884C36.8673 23.612 37.7213 23.976 38.8413 23.976C39.9893 23.976 40.8993 23.472 41.5713 22.464C42.2433 21.456 42.5793 20.28 42.5793 18.936C42.5793 17.564 42.3133 16.318 41.7813 15.198L43.9653 14.526ZM63.8139 22.086L64.6959 22.8C64.2199 23.976 63.4639 24.97 62.4279 25.782C61.4199 26.594 60.4959 27 59.6559 27C58.8439 27 58.1999 26.72 57.7239 26.16C57.2479 25.572 57.0099 24.816 57.0099 23.892C57.0099 22.968 57.1639 21.778 57.4719 20.322C56.1559 22.394 54.7419 24.018 53.2299 25.194C51.7179 26.37 50.4439 26.958 49.4079 26.958C47.8399 26.958 47.0559 26.02 47.0559 24.144C47.0559 22.268 47.6999 19.748 48.9879 16.584C50.3039 13.392 51.2419 11.572 51.8019 11.124L53.8179 12.006C52.6699 13.854 51.8019 15.674 51.2139 17.466C50.6259 19.258 50.3319 20.462 50.3319 21.078C50.3319 21.666 50.5139 22.142 50.8779 22.506C51.2699 22.87 51.7179 23.052 52.2219 23.052C53.3419 23.052 54.7279 22.03 56.3799 19.986C58.0599 17.914 59.7679 14.834 61.5039 10.746L63.6459 11.712C63.5899 11.936 62.9459 13.56 61.7139 16.584C60.5099 19.608 59.9079 21.428 59.9079 22.044C59.9079 22.632 60.0339 23.08 60.2859 23.388C60.5659 23.696 60.8319 23.85 61.0839 23.85C61.3639 23.85 61.5739 23.836 61.7139 23.808C61.8539 23.78 61.9939 23.724 62.1339 23.64C62.2739 23.556 62.3859 23.486 62.4699 23.43C62.5819 23.374 62.7079 23.276 62.8479 23.136L63.1839 22.8C63.2399 22.744 63.3379 22.632 63.4779 22.464C63.6459 22.268 63.7579 22.142 63.8139 22.086ZM61.3779 6.084L62.6379 6.756C62.0779 7.624 61.3499 8.394 60.4539 9.066C59.5859 9.738 58.7179 10.074 57.8499 10.074C56.9819 10.074 56.0719 9.752 55.1199 9.108C54.1679 8.436 53.3979 7.764 52.8099 7.092L54.1539 5.958C55.6099 7.386 56.7999 8.1 57.7239 8.1C59.1519 8.1 60.3699 7.428 61.3779 6.084ZM85.8219 25.488L85.8639 26.496C85.5839 26.664 84.3099 27.168 82.0419 28.008C81.1459 33.356 79.8299 37.22 78.0939 39.6C76.3579 41.98 74.2299 43.17 71.7099 43.17C70.5339 43.17 69.5959 42.792 68.8959 42.036C68.1959 41.28 67.8459 40.3 67.8459 39.096C67.8459 36.688 68.9519 34.434 71.1639 32.334C73.3759 30.262 76.3299 28.624 80.0259 27.42C80.4459 25.544 81.2019 22.898 82.2939 19.482C80.4179 22.338 78.7099 24.27 77.1699 25.278C75.6579 26.286 74.2859 26.79 73.0539 26.79C71.8219 26.79 70.8839 26.454 70.2399 25.782C69.6239 25.11 69.3159 24.214 69.3159 23.094C69.3159 21.246 70.0859 19.37 71.6259 17.466C73.1659 15.534 75.0979 13.966 77.4219 12.762C79.7739 11.53 82.0419 10.914 84.2259 10.914L84.5619 12.384C81.4539 12.72 78.7799 13.812 76.5399 15.66C74.3279 17.508 73.2219 19.286 73.2219 20.994C73.2219 21.722 73.4459 22.324 73.8939 22.8C74.3419 23.276 74.8879 23.514 75.5319 23.514C76.4839 23.514 77.9259 22.506 79.8579 20.49C81.7899 18.474 83.1479 16.752 83.9319 15.324L85.4859 16.206C83.9459 20.322 82.8819 23.794 82.2939 26.622L85.8219 25.488ZM79.7739 28.68C77.3379 29.8 75.3219 31.144 73.7259 32.712C72.1299 34.28 71.3319 35.708 71.3319 36.996C71.3319 37.668 71.5279 38.214 71.9199 38.634C72.3119 39.054 72.8019 39.264 73.3899 39.264C74.5659 39.264 75.7279 38.438 76.8759 36.786C78.0239 35.134 78.9899 32.432 79.7739 28.68ZM99.3774 14.526C100.105 15.73 100.469 17.06 100.469 18.516C100.469 20.784 99.6854 22.814 98.1174 24.606C96.5494 26.37 94.7014 27.252 92.5734 27.252C90.9494 27.252 89.6754 26.79 88.7514 25.866C87.8554 24.914 87.4074 23.612 87.4074 21.96C87.4074 19.3 88.4434 16.92 90.5154 14.82C92.5874 12.692 94.9114 11.628 97.4874 11.628C97.9634 11.628 98.2994 11.642 98.4954 11.67L98.6214 13.056C96.3814 13.056 94.5194 13.7 93.0354 14.988C91.5514 16.276 90.8094 17.928 90.8094 19.944C90.8094 21.148 91.1034 22.128 91.6914 22.884C92.2794 23.612 93.1334 23.976 94.2534 23.976C95.4014 23.976 96.3114 23.472 96.9834 22.464C97.6554 21.456 97.9914 20.28 97.9914 18.936C97.9914 17.564 97.7254 16.318 97.1934 15.198L99.3774 14.526ZM150.746 21.54L151.628 22.38C150.032 25.236 148.198 26.664 146.126 26.664C145.286 26.664 144.628 26.44 144.152 25.992C143.704 25.516 143.48 24.9 143.48 24.144C143.48 23.36 143.942 22.03 144.866 20.154C145.79 18.278 146.28 16.85 146.336 15.87C146.364 15.422 146.224 15.058 145.916 14.778C145.636 14.498 145.244 14.358 144.74 14.358C144.236 14.358 143.718 14.484 143.186 14.736C142.682 14.96 142.178 15.338 141.674 15.87C141.198 16.402 140.75 16.92 140.33 17.424C139.938 17.928 139.49 18.642 138.986 19.566C138.51 20.49 138.104 21.26 137.768 21.876C137.18 23.024 136.34 24.746 135.248 27.042L132.728 26.16C132.728 26.076 133.19 24.494 134.114 21.414C135.038 18.334 135.5 16.5 135.5 15.912C135.5 15.324 135.36 14.904 135.08 14.652C134.8 14.372 134.45 14.232 134.03 14.232C132.77 14.232 131.02 15.8 128.78 18.936C126.568 22.072 125.154 24.746 124.538 26.958L122.144 26.16C122.284 24.676 122.942 22.016 124.118 18.18C125.294 14.316 126.288 11.684 127.1 10.284L128.99 10.956C128.122 12.888 127.52 14.526 127.184 15.87C126.848 17.186 126.554 18.6 126.302 20.112C128.71 16.668 130.726 14.26 132.35 12.888C133.974 11.488 135.444 10.788 136.76 10.788C138.188 10.788 138.902 11.502 138.902 12.93C138.902 13.49 138.65 14.596 138.146 16.248C137.67 17.9 137.292 19.202 137.012 20.154C140.876 13.938 144.334 10.83 147.386 10.83C148.142 10.83 148.744 11.068 149.192 11.544C149.64 11.992 149.864 12.678 149.864 13.602C149.864 14.498 149.332 15.996 148.268 18.096C147.232 20.196 146.714 21.526 146.714 22.086C146.714 22.618 146.826 23.01 147.05 23.262C147.274 23.514 147.554 23.64 147.89 23.64C148.618 23.64 149.57 22.94 150.746 21.54ZM171.502 22.758L172.468 23.472C172.076 24.312 171.348 25.11 170.284 25.866C169.248 26.622 168.296 27 167.428 27C165.776 27 164.95 26.132 164.95 24.396C164.95 23.584 165.16 22.618 165.58 21.498L164.026 23.094C162.514 24.634 161.198 25.67 160.078 26.202C158.986 26.734 157.908 27 156.844 27C155.78 27 154.968 26.706 154.408 26.118C153.876 25.502 153.61 24.662 153.61 23.598C153.61 21.638 154.366 19.706 155.878 17.802C157.39 15.87 159.322 14.302 161.674 13.098C164.026 11.894 166.378 11.278 168.73 11.25L168.814 12.636L167.05 13.014C164.502 13.574 162.248 14.694 160.288 16.374C158.356 18.054 157.39 19.734 157.39 21.414C157.39 23.066 158.062 23.892 159.406 23.892C160.666 23.892 162.22 23.01 164.068 21.246C165.916 19.482 167.456 17.41 168.688 15.03L170.452 16.08C168.716 19.58 167.848 21.806 167.848 22.758C167.848 23.15 167.974 23.486 168.226 23.766C168.506 24.018 168.772 24.144 169.024 24.144C169.304 24.144 169.486 24.13 169.57 24.102C169.654 24.074 169.738 24.046 169.822 24.018C169.906 23.962 170.004 23.892 170.116 23.808C170.256 23.724 170.368 23.64 170.452 23.556C170.564 23.472 170.732 23.346 170.956 23.178C171.18 23.01 171.362 22.87 171.502 22.758ZM180.29 19.272C182.418 16.08 184.266 13.91 185.834 12.762C187.402 11.586 188.774 10.998 189.95 10.998C191.126 10.998 192.036 11.362 192.68 12.09C193.324 12.79 193.646 13.686 193.646 14.778C193.646 17.802 192.554 20.602 190.37 23.178C188.214 25.726 185.778 27 183.062 27C181.858 27 180.906 26.79 180.206 26.37L181.214 24.564C182.698 24.76 183.608 24.858 183.944 24.858C185.456 24.858 186.87 23.976 188.186 22.212C189.502 20.448 190.16 18.642 190.16 16.794C190.16 16.094 189.95 15.52 189.53 15.072C189.138 14.596 188.62 14.358 187.976 14.358C186.436 14.358 184.686 15.716 182.726 18.432C180.794 21.148 178.974 24.508 177.266 28.512C175.586 32.544 174.116 36.828 172.856 41.364L170.336 40.482C170.392 40.314 170.924 38.858 171.932 36.114C172.912 33.398 173.878 30.696 174.83 28.008C177.462 20.616 178.778 16.57 178.778 15.87C178.778 14.078 178.414 12.454 177.686 10.998L179.786 9.948C180.654 11.152 181.088 12.426 181.088 13.77C181.088 15.086 180.822 16.92 180.29 19.272ZM222.482 21.54L223.364 22.38C221.768 25.236 219.934 26.664 217.862 26.664C217.022 26.664 216.364 26.44 215.888 25.992C215.44 25.516 215.216 24.9 215.216 24.144C215.216 23.36 215.678 22.03 216.602 20.154C217.526 18.278 218.016 16.85 218.072 15.87C218.1 15.422 217.96 15.058 217.652 14.778C217.372 14.498 216.98 14.358 216.476 14.358C215.972 14.358 215.454 14.484 214.922 14.736C214.418 14.96 213.914 15.338 213.41 15.87C212.934 16.402 212.486 16.92 212.066 17.424C211.674 17.928 211.226 18.642 210.722 19.566C210.246 20.49 209.84 21.26 209.504 21.876C208.916 23.024 208.076 24.746 206.984 27.042L204.464 26.16C204.464 26.076 204.926 24.494 205.85 21.414C206.774 18.334 207.236 16.5 207.236 15.912C207.236 15.324 207.096 14.904 206.816 14.652C206.536 14.372 206.186 14.232 205.766 14.232C204.506 14.232 202.756 15.8 200.516 18.936C198.304 22.072 196.89 24.746 196.274 26.958L193.88 26.16C194.02 24.676 194.678 22.016 195.854 18.18C197.03 14.316 198.024 11.684 198.836 10.284L200.726 10.956C199.858 12.888 199.256 14.526 198.92 15.87C198.584 17.186 198.29 18.6 198.038 20.112C200.446 16.668 202.462 14.26 204.086 12.888C205.71 11.488 207.18 10.788 208.496 10.788C209.924 10.788 210.638 11.502 210.638 12.93C210.638 13.49 210.386 14.596 209.882 16.248C209.406 17.9 209.028 19.202 208.748 20.154C212.612 13.938 216.07 10.83 219.122 10.83C219.878 10.83 220.48 11.068 220.928 11.544C221.376 11.992 221.6 12.678 221.6 13.602C221.6 14.498 221.068 15.996 220.004 18.096C218.968 20.196 218.45 21.526 218.45 22.086C218.45 22.618 218.562 23.01 218.786 23.262C219.01 23.514 219.29 23.64 219.626 23.64C220.354 23.64 221.306 22.94 222.482 21.54ZM234.082 17.214C235.622 17.158 236.392 17.788 236.392 19.104C236.392 20.84 235.454 22.562 233.578 24.27C231.73 25.95 229.868 26.79 227.992 26.79C226.228 26.79 225.346 25.6 225.346 23.22C225.346 21.344 225.808 19.02 226.732 16.248C227.684 13.448 228.468 11.474 229.084 10.326L230.974 10.956C230.246 13.084 229.504 15.688 228.748 18.768L229.294 18.516C231.17 17.648 232.766 17.214 234.082 17.214ZM233.41 21.54C233.578 21.148 233.662 20.784 233.662 20.448C233.578 19.692 232.92 19.314 231.688 19.314C231.1 19.314 230.008 19.566 228.412 20.07C228.188 20.91 228.076 21.666 228.076 22.338C228.076 22.982 228.23 23.5 228.538 23.892C228.874 24.284 229.308 24.48 229.84 24.48C230.4 24.48 231.058 24.2 231.814 23.64C232.57 23.052 233.102 22.352 233.41 21.54ZM240.424 21.036L239.164 26.58L236.77 26.202C237.33 22.814 238.03 19.664 238.87 16.752C239.738 13.84 240.564 11.754 241.348 10.494L243.406 10.746C242.398 13.35 241.404 16.78 240.424 21.036ZM246.059 23.304L248.159 22.254C248.159 22.758 248.341 23.192 248.705 23.556C249.097 23.92 249.545 24.102 250.049 24.102C252.429 24.102 255.145 20.966 258.197 14.694C258.365 14.33 258.561 13.924 258.785 13.476C259.009 13 259.177 12.65 259.289 12.426C259.401 12.174 259.527 11.894 259.667 11.586C259.835 11.278 259.961 11.054 260.045 10.914C260.157 10.746 260.269 10.592 260.381 10.452C260.633 10.2 260.913 10.074 261.221 10.074C261.557 10.074 261.851 10.228 262.103 10.536C262.355 10.844 262.481 11.208 262.481 11.628C262.481 12.02 261.949 13.756 260.885 16.836C259.849 19.888 259.331 21.736 259.331 22.38C259.331 23.024 259.457 23.5 259.709 23.808C259.989 24.116 260.255 24.27 260.507 24.27C260.787 24.27 260.997 24.256 261.137 24.228C261.277 24.2 261.417 24.144 261.557 24.06C261.697 23.976 261.809 23.906 261.893 23.85C262.005 23.794 262.131 23.696 262.271 23.556L262.565 23.22C262.649 23.164 262.761 23.052 262.901 22.884C263.069 22.688 263.181 22.562 263.237 22.506L264.119 23.22C263.643 24.396 262.887 25.39 261.851 26.202C260.843 27.014 259.919 27.42 259.079 27.42C258.267 27.42 257.623 27.14 257.147 26.58C256.671 25.992 256.433 25.236 256.433 24.312C256.433 23.388 256.587 22.198 256.895 20.742C255.607 22.758 254.193 24.298 252.653 25.362C251.113 26.398 249.867 26.916 248.915 26.916C247.963 26.916 247.249 26.566 246.773 25.866C246.297 25.166 246.059 24.312 246.059 23.304ZM278.154 22.044L278.994 22.716C278.154 23.836 276.992 24.83 275.508 25.698C274.052 26.566 272.876 27 271.98 27C271.112 27 270.44 26.818 269.964 26.454C269.516 26.062 269.292 25.558 269.292 24.942C269.292 24.326 269.824 23.416 270.888 22.212C271.952 20.98 273.016 19.748 274.08 18.516C275.172 17.284 275.718 16.388 275.718 15.828C275.718 15.268 275.564 14.806 275.256 14.442C274.976 14.05 274.5 13.854 273.828 13.854C273.156 13.854 271.938 14.428 270.174 15.576L269.796 14.106C271.056 13.126 272.386 12.328 273.786 11.712C275.214 11.096 276.32 10.788 277.104 10.788C277.888 10.788 278.49 10.97 278.91 11.334C279.358 11.698 279.582 12.272 279.582 13.056C279.582 13.84 278.7 15.492 276.936 18.012C276.572 18.516 276.194 19.048 275.802 19.608C275.41 20.168 275.116 20.574 274.92 20.826C274.752 21.078 274.584 21.344 274.416 21.624C274.136 22.044 273.996 22.38 273.996 22.632C273.996 22.856 274.108 23.08 274.332 23.304C274.584 23.528 274.822 23.64 275.046 23.64C275.298 23.64 275.508 23.626 275.676 23.598C275.844 23.542 276.026 23.458 276.222 23.346C276.418 23.206 276.586 23.094 276.726 23.01L278.154 22.044ZM300.004 22.758L300.97 23.472C300.578 24.312 299.85 25.11 298.786 25.866C297.75 26.622 296.798 27 295.93 27C294.278 27 293.452 26.132 293.452 24.396C293.452 23.584 293.662 22.618 294.082 21.498L292.528 23.094C291.016 24.634 289.7 25.67 288.58 26.202C287.488 26.734 286.41 27 285.346 27C284.282 27 283.47 26.706 282.91 26.118C282.378 25.502 282.112 24.662 282.112 23.598C282.112 21.638 282.868 19.706 284.38 17.802C285.892 15.87 287.824 14.302 290.176 13.098C292.528 11.894 294.88 11.278 297.232 11.25L297.316 12.636L295.552 13.014C293.004 13.574 290.75 14.694 288.79 16.374C286.858 18.054 285.892 19.734 285.892 21.414C285.892 23.066 286.564 23.892 287.908 23.892C289.168 23.892 290.722 23.01 292.57 21.246C294.418 19.482 295.958 17.41 297.19 15.03L298.954 16.08C297.218 19.58 296.35 21.806 296.35 22.758C296.35 23.15 296.476 23.486 296.728 23.766C297.008 24.018 297.274 24.144 297.526 24.144C297.806 24.144 297.988 24.13 298.072 24.102C298.156 24.074 298.24 24.046 298.324 24.018C298.408 23.962 298.506 23.892 298.618 23.808C298.758 23.724 298.87 23.64 298.954 23.556C299.066 23.472 299.234 23.346 299.458 23.178C299.682 23.01 299.864 22.87 300.004 22.758ZM319.46 10.662L321.098 11.04C321.07 11.236 320.664 12.09 319.88 13.602C319.124 15.086 318.312 17.046 317.444 19.482C316.576 21.89 316.016 24.326 315.764 26.79L313.076 26.58C313.076 25.04 313.566 23.052 314.546 20.616C314.294 20.588 313.776 20.574 312.992 20.574C312.236 20.574 310.836 20.756 308.792 21.12C307.364 24.312 306.65 27.042 306.65 29.31L303.836 28.932C303.836 26.944 304.578 24.494 306.062 21.582C304.634 21.806 303.206 22.142 301.778 22.59L301.358 20.952C301.358 20.868 302.1 20.63 303.584 20.238C305.096 19.846 306.216 19.594 306.944 19.482C309.184 14.33 310.71 11.348 311.522 10.536L313.328 11.25C313.188 11.53 312.866 12.16 312.362 13.14C311.102 15.576 310.248 17.48 309.8 18.852C312.236 18.6 313.692 18.474 314.168 18.474C314.672 18.474 315.092 18.488 315.428 18.516C317.388 14.008 318.732 11.39 319.46 10.662ZM354.563 21.036L355.571 21.876C354.899 23.416 353.821 24.648 352.337 25.572C350.853 26.496 349.411 26.958 348.011 26.958C346.639 26.958 345.491 26.524 344.567 25.656C343.671 24.788 343.223 23.598 343.223 22.086C343.223 20.574 343.881 18.936 345.197 17.172C346.513 15.408 348.207 13.952 350.279 12.804C352.379 11.656 354.437 11.082 356.453 11.082C356.733 11.082 357.153 11.11 357.713 11.166L357.587 12.804C354.507 12.944 351.945 13.882 349.901 15.618C347.885 17.354 346.877 19.202 346.877 21.162C346.877 21.974 347.129 22.632 347.633 23.136C348.137 23.64 348.795 23.892 349.607 23.892C350.895 23.892 352.547 22.94 354.563 21.036ZM371.017 37.08H367.321V27.084L358.501 4.488H362.365L367.069 16.836C367.489 17.956 367.895 19.146 368.287 20.406C368.679 21.638 368.945 22.604 369.085 23.304H369.295C369.463 22.604 369.729 21.638 370.093 20.406C370.457 19.174 370.863 17.984 371.311 16.836L375.973 4.488H379.837L371.017 27.084V37.08ZM386.927 19.272C389.055 16.08 390.903 13.91 392.471 12.762C394.039 11.586 395.411 10.998 396.587 10.998C397.763 10.998 398.673 11.362 399.317 12.09C399.961 12.79 400.283 13.686 400.283 14.778C400.283 17.802 399.191 20.602 397.007 23.178C394.851 25.726 392.415 27 389.699 27C388.495 27 387.543 26.79 386.843 26.37L387.851 24.564C389.335 24.76 390.245 24.858 390.581 24.858C392.093 24.858 393.507 23.976 394.823 22.212C396.139 20.448 396.797 18.642 396.797 16.794C396.797 16.094 396.587 15.52 396.167 15.072C395.775 14.596 395.257 14.358 394.613 14.358C393.073 14.358 391.323 15.716 389.363 18.432C387.431 21.148 385.611 24.508 383.903 28.512C382.223 32.544 380.753 36.828 379.493 41.364L376.973 40.482C377.029 40.314 377.561 38.858 378.569 36.114C379.549 33.398 380.515 30.696 381.467 28.008C384.099 20.616 385.415 16.57 385.415 15.87C385.415 14.078 385.051 12.454 384.323 10.998L386.423 9.948C387.291 11.152 387.725 12.426 387.725 13.77C387.725 15.086 387.459 16.92 386.927 19.272ZM424.586 15.702C424.586 18.194 424.152 20.322 423.284 22.086C422.444 23.822 421.24 25.152 419.672 26.076C418.104 26.972 416.242 27.42 414.086 27.42C412.098 27.42 410.32 26.972 408.752 26.076C407.212 25.152 405.994 23.822 405.098 22.086C404.202 20.322 403.754 18.194 403.754 15.702C403.754 11.978 404.692 9.108 406.568 7.092C408.444 5.076 410.992 4.068 414.212 4.068C416.256 4.068 418.048 4.53 419.588 5.454C421.156 6.35 422.374 7.666 423.242 9.402C424.138 11.11 424.586 13.21 424.586 15.702ZM414.17 24.354C415.598 24.354 416.774 24.074 417.698 23.514C418.65 22.954 419.364 22.128 419.84 21.036C420.344 19.916 420.638 18.558 420.722 16.962H407.576C407.66 18.558 407.954 19.916 408.458 21.036C408.962 22.128 409.676 22.954 410.6 23.514C411.552 24.074 412.742 24.354 414.17 24.354ZM414.128 7.176C412.056 7.176 410.502 7.75 409.466 8.898C408.43 10.018 407.814 11.684 407.618 13.896H420.722C420.582 12.412 420.246 11.18 419.714 10.2C419.21 9.192 418.496 8.436 417.572 7.932C416.648 7.428 415.5 7.176 414.128 7.176ZM456.148 21.54L457.03 22.38C455.434 25.236 453.6 26.664 451.528 26.664C450.688 26.664 450.03 26.44 449.554 25.992C449.106 25.516 448.882 24.9 448.882 24.144C448.882 23.36 449.344 22.03 450.268 20.154C451.192 18.278 451.682 16.85 451.738 15.87C451.766 15.422 451.626 15.058 451.318 14.778C451.038 14.498 450.646 14.358 450.142 14.358C449.638 14.358 449.12 14.484 448.588 14.736C448.084 14.96 447.58 15.338 447.076 15.87C446.6 16.402 446.152 16.92 445.732 17.424C445.34 17.928 444.892 18.642 444.388 19.566C443.912 20.49 443.506 21.26 443.17 21.876C442.582 23.024 441.742 24.746 440.65 27.042L438.13 26.16C438.13 26.076 438.592 24.494 439.516 21.414C440.44 18.334 440.902 16.5 440.902 15.912C440.902 15.324 440.762 14.904 440.482 14.652C440.202 14.372 439.852 14.232 439.432 14.232C438.172 14.232 436.422 15.8 434.182 18.936C431.97 22.072 430.556 24.746 429.94 26.958L427.546 26.16C427.686 24.676 428.344 22.016 429.52 18.18C430.696 14.316 431.69 11.684 432.502 10.284L434.392 10.956C433.524 12.888 432.922 14.526 432.586 15.87C432.25 17.186 431.956 18.6 431.704 20.112C434.112 16.668 436.128 14.26 437.752 12.888C439.376 11.488 440.846 10.788 442.162 10.788C443.59 10.788 444.304 11.502 444.304 12.93C444.304 13.49 444.052 14.596 443.548 16.248C443.072 17.9 442.694 19.202 442.414 20.154C446.278 13.938 449.736 10.83 452.788 10.83C453.544 10.83 454.146 11.068 454.594 11.544C455.042 11.992 455.266 12.678 455.266 13.602C455.266 14.498 454.734 15.996 453.67 18.096C452.634 20.196 452.116 21.526 452.116 22.086C452.116 22.618 452.228 23.01 452.452 23.262C452.676 23.514 452.956 23.64 453.292 23.64C454.02 23.64 454.972 22.94 456.148 21.54ZM487.32 21.54L488.202 22.38C486.606 25.236 484.772 26.664 482.7 26.664C481.86 26.664 481.202 26.44 480.726 25.992C480.278 25.516 480.054 24.9 480.054 24.144C480.054 23.36 480.516 22.03 481.44 20.154C482.364 18.278 482.854 16.85 482.91 15.87C482.938 15.422 482.798 15.058 482.49 14.778C482.21 14.498 481.818 14.358 481.314 14.358C480.81 14.358 480.292 14.484 479.76 14.736C479.256 14.96 478.752 15.338 478.248 15.87C477.772 16.402 477.324 16.92 476.904 17.424C476.512 17.928 476.064 18.642 475.56 19.566C475.084 20.49 474.678 21.26 474.342 21.876C473.754 23.024 472.914 24.746 471.822 27.042L469.302 26.16C469.302 26.076 469.764 24.494 470.688 21.414C471.612 18.334 472.074 16.5 472.074 15.912C472.074 15.324 471.934 14.904 471.654 14.652C471.374 14.372 471.024 14.232 470.604 14.232C469.344 14.232 467.594 15.8 465.354 18.936C463.142 22.072 461.728 24.746 461.112 26.958L458.718 26.16C458.858 24.676 459.516 22.016 460.692 18.18C461.868 14.316 462.862 11.684 463.674 10.284L465.564 10.956C464.696 12.888 464.094 14.526 463.758 15.87C463.422 17.186 463.128 18.6 462.876 20.112C465.284 16.668 467.3 14.26 468.924 12.888C470.548 11.488 472.018 10.788 473.334 10.788C474.762 10.788 475.476 11.502 475.476 12.93C475.476 13.49 475.224 14.596 474.72 16.248C474.244 17.9 473.866 19.202 473.586 20.154C477.45 13.938 480.908 10.83 483.96 10.83C484.716 10.83 485.318 11.068 485.766 11.544C486.214 11.992 486.438 12.678 486.438 13.602C486.438 14.498 485.906 15.996 484.842 18.096C483.806 20.196 483.288 21.526 483.288 22.086C483.288 22.618 483.4 23.01 483.624 23.262C483.848 23.514 484.128 23.64 484.464 23.64C485.192 23.64 486.144 22.94 487.32 21.54ZM512.36 15.702C512.36 18.194 511.926 20.322 511.058 22.086C510.218 23.822 509.014 25.152 507.446 26.076C505.878 26.972 504.016 27.42 501.86 27.42C499.872 27.42 498.094 26.972 496.526 26.076C494.986 25.152 493.768 23.822 492.872 22.086C491.976 20.322 491.528 18.194 491.528 15.702C491.528 11.978 492.466 9.108 494.342 7.092C496.218 5.076 498.766 4.068 501.986 4.068C504.03 4.068 505.822 4.53 507.362 5.454C508.93 6.35 510.148 7.666 511.016 9.402C511.912 11.11 512.36 13.21 512.36 15.702ZM501.944 24.354C503.372 24.354 504.548 24.074 505.472 23.514C506.424 22.954 507.138 22.128 507.614 21.036C508.118 19.916 508.412 18.558 508.496 16.962H495.35C495.434 18.558 495.728 19.916 496.232 21.036C496.736 22.128 497.45 22.954 498.374 23.514C499.326 24.074 500.516 24.354 501.944 24.354ZM501.902 7.176C499.83 7.176 498.276 7.75 497.24 8.898C496.204 10.018 495.588 11.684 495.392 13.896H508.496C508.356 12.412 508.02 11.18 507.488 10.2C506.984 9.192 506.27 8.436 505.346 7.932C504.422 7.428 503.274 7.176 501.902 7.176ZM521.745 19.272C523.873 16.08 525.721 13.91 527.289 12.762C528.857 11.586 530.229 10.998 531.405 10.998C532.581 10.998 533.491 11.362 534.135 12.09C534.779 12.79 535.101 13.686 535.101 14.778C535.101 17.802 534.009 20.602 531.825 23.178C529.669 25.726 527.233 27 524.517 27C523.313 27 522.361 26.79 521.661 26.37L522.669 24.564C524.153 24.76 525.063 24.858 525.399 24.858C526.911 24.858 528.325 23.976 529.641 22.212C530.957 20.448 531.615 18.642 531.615 16.794C531.615 16.094 531.405 15.52 530.985 15.072C530.593 14.596 530.075 14.358 529.431 14.358C527.891 14.358 526.141 15.716 524.181 18.432C522.249 21.148 520.429 24.508 518.721 28.512C517.041 32.544 515.571 36.828 514.311 41.364L511.791 40.482C511.847 40.314 512.379 38.858 513.387 36.114C514.367 33.398 515.333 30.696 516.285 28.008C518.917 20.616 520.233 16.57 520.233 15.87C520.233 14.078 519.869 12.454 519.141 10.998L521.241 9.948C522.109 11.152 522.543 12.426 522.543 13.77C522.543 15.086 522.277 16.92 521.745 19.272ZM555.205 25.488L555.247 26.496C554.967 26.664 553.693 27.168 551.425 28.008C550.529 33.356 549.213 37.22 547.477 39.6C545.741 41.98 543.613 43.17 541.093 43.17C539.917 43.17 538.979 42.792 538.279 42.036C537.579 41.28 537.229 40.3 537.229 39.096C537.229 36.688 538.335 34.434 540.547 32.334C542.759 30.262 545.713 28.624 549.409 27.42C549.829 25.544 550.585 22.898 551.677 19.482C549.801 22.338 548.093 24.27 546.553 25.278C545.041 26.286 543.669 26.79 542.437 26.79C541.205 26.79 540.267 26.454 539.623 25.782C539.007 25.11 538.699 24.214 538.699 23.094C538.699 21.246 539.469 19.37 541.009 17.466C542.549 15.534 544.481 13.966 546.805 12.762C549.157 11.53 551.425 10.914 553.609 10.914L553.945 12.384C550.837 12.72 548.163 13.812 545.923 15.66C543.711 17.508 542.605 19.286 542.605 20.994C542.605 21.722 542.829 22.324 543.277 22.8C543.725 23.276 544.271 23.514 544.915 23.514C545.867 23.514 547.309 22.506 549.241 20.49C551.173 18.474 552.531 16.752 553.315 15.324L554.869 16.206C553.329 20.322 552.265 23.794 551.677 26.622L555.205 25.488ZM549.157 28.68C546.721 29.8 544.705 31.144 543.109 32.712C541.513 34.28 540.715 35.708 540.715 36.996C540.715 37.668 540.911 38.214 541.303 38.634C541.695 39.054 542.185 39.264 542.773 39.264C543.949 39.264 545.111 38.438 546.259 36.786C547.407 35.134 548.373 32.432 549.157 28.68ZM568.466 37.08H564.77V27.084L555.95 4.488H559.814L564.518 16.836C564.938 17.956 565.344 19.146 565.736 20.406C566.128 21.638 566.394 22.604 566.534 23.304H566.744C566.912 22.604 567.178 21.638 567.542 20.406C567.906 19.174 568.312 17.984 568.76 16.836L573.422 4.488H577.286L568.466 27.084V37.08ZM598.466 26.664C599.978 23.836 602.764 20.854 606.824 17.718C605.564 16.766 604.304 15.618 603.044 14.274C601.812 12.902 601.126 11.712 600.986 10.704L603.506 10.41C603.674 11.278 605.256 13.126 608.252 15.954C608.364 14.274 608.42 12.314 608.42 10.074L611.15 10.326L610.73 15.324C614.174 12.888 616.442 11.474 617.534 11.082L619.382 12.72C618.402 13.028 616.82 13.896 614.636 15.324C612.452 16.752 611.178 17.648 610.814 18.012C611.57 19.02 612.69 20.182 614.174 21.498C615.658 22.786 616.96 23.836 618.08 24.648L619.76 25.824L618.542 27.336C617.73 26.86 616.372 25.95 614.468 24.606C612.592 23.234 611.164 22.03 610.184 20.994C609.792 24.102 609.4 26.342 609.008 27.714L606.446 28.05C607.118 26.706 607.65 23.962 608.042 19.818C607.426 20.014 606.432 20.784 605.06 22.128C603.688 23.444 602.47 24.732 601.406 25.992L599.768 27.84L598.466 26.664ZM640.105 22.758L641.071 23.472C640.679 24.312 639.951 25.11 638.887 25.866C637.851 26.622 636.899 27 636.031 27C634.379 27 633.553 26.132 633.553 24.396C633.553 23.584 633.763 22.618 634.183 21.498L632.629 23.094C631.117 24.634 629.801 25.67 628.681 26.202C627.589 26.734 626.511 27 625.447 27C624.383 27 623.571 26.706 623.011 26.118C622.479 25.502 622.213 24.662 622.213 23.598C622.213 21.638 622.969 19.706 624.481 17.802C625.993 15.87 627.925 14.302 630.277 13.098C632.629 11.894 634.981 11.278 637.333 11.25L637.417 12.636L635.653 13.014C633.105 13.574 630.851 14.694 628.891 16.374C626.959 18.054 625.993 19.734 625.993 21.414C625.993 23.066 626.665 23.892 628.009 23.892C629.269 23.892 630.823 23.01 632.671 21.246C634.519 19.482 636.059 17.41 637.291 15.03L639.055 16.08C637.319 19.58 636.451 21.806 636.451 22.758C636.451 23.15 636.577 23.486 636.829 23.766C637.109 24.018 637.375 24.144 637.627 24.144C637.907 24.144 638.089 24.13 638.173 24.102C638.257 24.074 638.341 24.046 638.425 24.018C638.509 23.962 638.607 23.892 638.719 23.808C638.859 23.724 638.971 23.64 639.055 23.556C639.167 23.472 639.335 23.346 639.559 23.178C639.783 23.01 639.965 22.87 640.105 22.758ZM659.562 10.662L661.2 11.04C661.172 11.236 660.766 12.09 659.982 13.602C659.226 15.086 658.414 17.046 657.546 19.482C656.678 21.89 656.118 24.326 655.866 26.79L653.178 26.58C653.178 25.04 653.668 23.052 654.648 20.616C654.396 20.588 653.878 20.574 653.094 20.574C652.338 20.574 650.938 20.756 648.894 21.12C647.466 24.312 646.752 27.042 646.752 29.31L643.938 28.932C643.938 26.944 644.68 24.494 646.164 21.582C644.736 21.806 643.308 22.142 641.88 22.59L641.46 20.952C641.46 20.868 642.202 20.63 643.686 20.238C645.198 19.846 646.318 19.594 647.046 19.482C649.286 14.33 650.812 11.348 651.624 10.536L653.43 11.25C653.29 11.53 652.968 12.16 652.464 13.14C651.204 15.576 650.35 17.48 649.902 18.852C652.338 18.6 653.794 18.474 654.27 18.474C654.774 18.474 655.194 18.488 655.53 18.516C657.49 14.008 658.834 11.39 659.562 10.662ZM681.121 22.758L682.087 23.472C681.695 24.312 680.967 25.11 679.903 25.866C678.867 26.622 677.915 27 677.047 27C675.395 27 674.569 26.132 674.569 24.396C674.569 23.584 674.779 22.618 675.199 21.498L673.645 23.094C672.133 24.634 670.817 25.67 669.697 26.202C668.605 26.734 667.527 27 666.463 27C665.399 27 664.587 26.706 664.027 26.118C663.495 25.502 663.229 24.662 663.229 23.598C663.229 21.638 663.985 19.706 665.497 17.802C667.009 15.87 668.941 14.302 671.293 13.098C673.645 11.894 675.997 11.278 678.349 11.25L678.433 12.636L676.669 13.014C674.121 13.574 671.867 14.694 669.907 16.374C667.975 18.054 667.009 19.734 667.009 21.414C667.009 23.066 667.681 23.892 669.025 23.892C670.285 23.892 671.839 23.01 673.687 21.246C675.535 19.482 677.075 17.41 678.307 15.03L680.071 16.08C678.335 19.58 677.467 21.806 677.467 22.758C677.467 23.15 677.593 23.486 677.845 23.766C678.125 24.018 678.391 24.144 678.643 24.144C678.923 24.144 679.105 24.13 679.189 24.102C679.273 24.074 679.357 24.046 679.441 24.018C679.525 23.962 679.623 23.892 679.735 23.808C679.875 23.724 679.987 23.64 680.071 23.556C680.183 23.472 680.351 23.346 680.575 23.178C680.799 23.01 680.981 22.87 681.121 22.758ZM242.852 65.812C242.18 69.004 241.83 71.328 241.802 72.784C241.802 74.772 242.376 75.766 243.524 75.766C244.756 75.766 245.862 75.234 246.842 74.17C247.822 73.106 248.312 71.86 248.312 70.432C248.312 69.004 247.78 68.29 246.716 68.29C246.408 68.29 245.736 68.472 244.7 68.836L244.196 67.576C245.988 66.316 247.402 65.686 248.438 65.686C250.37 65.686 251.336 66.652 251.336 68.584C251.336 70.852 250.384 73.162 248.48 75.514C246.604 77.838 244.63 79 242.558 79C240.29 79 239.156 77.376 239.156 74.128C239.156 72.588 239.59 70.04 240.458 66.484L237.056 67.744L237.014 66.736C237.294 66.568 238.568 66.064 240.836 65.224C241.788 59.624 243.104 55.704 244.784 53.464C246.464 51.196 248.592 50.062 251.168 50.062C252.344 50.062 253.282 50.44 253.982 51.196C254.682 51.952 255.032 52.932 255.032 54.136C255.032 56.544 253.926 58.798 251.714 60.898C249.502 62.97 246.548 64.608 242.852 65.812ZM243.104 64.552C245.54 63.432 247.556 62.088 249.152 60.52C250.748 58.952 251.546 57.524 251.546 56.236C251.546 55.564 251.35 55.018 250.958 54.598C250.566 54.178 250.076 53.968 249.488 53.968C248.312 53.968 247.15 54.794 246.002 56.446C244.854 58.098 243.888 60.8 243.104 64.552ZM273.823 74.086L274.705 74.8C274.229 75.976 273.473 76.97 272.437 77.782C271.429 78.594 270.505 79 269.665 79C268.853 79 268.209 78.72 267.733 78.16C267.257 77.572 267.019 76.816 267.019 75.892C267.019 74.968 267.173 73.778 267.481 72.322C266.165 74.394 264.751 76.018 263.239 77.194C261.727 78.37 260.453 78.958 259.417 78.958C257.849 78.958 257.065 78.02 257.065 76.144C257.065 74.268 257.709 71.748 258.997 68.584C260.313 65.392 261.251 63.572 261.811 63.124L263.827 64.006C262.679 65.854 261.811 67.674 261.223 69.466C260.635 71.258 260.341 72.462 260.341 73.078C260.341 73.666 260.523 74.142 260.887 74.506C261.279 74.87 261.727 75.052 262.231 75.052C263.351 75.052 264.737 74.03 266.389 71.986C268.069 69.914 269.777 66.834 271.513 62.746L273.655 63.712C273.599 63.936 272.955 65.56 271.723 68.584C270.519 71.608 269.917 73.428 269.917 74.044C269.917 74.632 270.043 75.08 270.295 75.388C270.575 75.696 270.841 75.85 271.093 75.85C271.373 75.85 271.583 75.836 271.723 75.808C271.863 75.78 272.003 75.724 272.143 75.64C272.283 75.556 272.395 75.486 272.479 75.43C272.591 75.374 272.717 75.276 272.857 75.136L273.151 74.8C273.235 74.744 273.347 74.632 273.487 74.464C273.655 74.268 273.767 74.142 273.823 74.086ZM295.453 77.488L295.495 78.496C295.215 78.664 293.941 79.168 291.673 80.008C290.777 85.356 289.461 89.22 287.725 91.6C285.989 93.98 283.861 95.17 281.341 95.17C280.165 95.17 279.227 94.792 278.527 94.036C277.827 93.28 277.477 92.3 277.477 91.096C277.477 88.688 278.583 86.434 280.795 84.334C283.007 82.262 285.961 80.624 289.657 79.42C290.077 77.544 290.833 74.898 291.925 71.482C290.049 74.338 288.341 76.27 286.801 77.278C285.289 78.286 283.917 78.79 282.685 78.79C281.453 78.79 280.515 78.454 279.871 77.782C279.255 77.11 278.947 76.214 278.947 75.094C278.947 73.246 279.717 71.37 281.257 69.466C282.797 67.534 284.729 65.966 287.053 64.762C289.405 63.53 291.673 62.914 293.857 62.914L294.193 64.384C291.085 64.72 288.411 65.812 286.171 67.66C283.959 69.508 282.853 71.286 282.853 72.994C282.853 73.722 283.077 74.324 283.525 74.8C283.973 75.276 284.519 75.514 285.163 75.514C286.115 75.514 287.557 74.506 289.489 72.49C291.421 70.474 292.779 68.752 293.563 67.324L295.117 68.206C293.577 72.322 292.513 75.794 291.925 78.622L295.453 77.488ZM289.405 80.68C286.969 81.8 284.953 83.144 283.357 84.712C281.761 86.28 280.963 87.708 280.963 88.996C280.963 89.668 281.159 90.214 281.551 90.634C281.943 91.054 282.433 91.264 283.021 91.264C284.197 91.264 285.359 90.438 286.507 88.786C287.655 87.134 288.621 84.432 289.405 80.68ZM308.798 74.044L309.764 74.8C308.896 76.004 307.706 77.012 306.194 77.824C304.682 78.608 303.212 79 301.784 79C300.356 79 299.208 78.58 298.34 77.74C297.472 76.9 297.038 75.794 297.038 74.422C297.038 71.846 298.396 69.312 301.112 66.82C303.856 64.328 306.628 63.082 309.428 63.082C311.276 63.082 312.2 63.81 312.2 65.266C312.2 66.778 311.22 68.304 309.26 69.844C307.328 71.384 304.598 72.784 301.07 74.044C301.322 74.688 301.714 75.192 302.246 75.556C302.778 75.92 303.324 76.102 303.884 76.102C305.088 76.102 306.726 75.416 308.798 74.044ZM300.86 72.784C303.128 72 305.074 71.02 306.698 69.844C308.322 68.668 309.134 67.59 309.134 66.61C309.134 66.246 308.994 65.924 308.714 65.644C308.434 65.364 308.112 65.224 307.748 65.224C306.432 65.224 305.004 66.05 303.464 67.702C301.952 69.326 301.084 71.02 300.86 72.784ZM324.43 66.526C325.158 67.73 325.522 69.06 325.522 70.516C325.522 72.784 324.738 74.814 323.17 76.606C321.602 78.37 319.754 79.252 317.626 79.252C316.002 79.252 314.728 78.79 313.804 77.866C312.908 76.914 312.46 75.612 312.46 73.96C312.46 71.3 313.496 68.92 315.568 66.82C317.64 64.692 319.964 63.628 322.54 63.628C323.016 63.628 323.352 63.642 323.548 63.67L323.674 65.056C321.434 65.056 319.572 65.7 318.088 66.988C316.604 68.276 315.862 69.928 315.862 71.944C315.862 73.148 316.156 74.128 316.744 74.884C317.332 75.612 318.186 75.976 319.306 75.976C320.454 75.976 321.364 75.472 322.036 74.464C322.708 73.456 323.044 72.28 323.044 70.936C323.044 69.564 322.778 68.318 322.246 67.198L324.43 66.526ZM329.075 75.304L331.175 74.254C331.175 74.758 331.357 75.192 331.721 75.556C332.113 75.92 332.561 76.102 333.065 76.102C335.445 76.102 338.161 72.966 341.213 66.694C341.381 66.33 341.577 65.924 341.801 65.476C342.025 65 342.193 64.65 342.305 64.426C342.417 64.174 342.543 63.894 342.683 63.586C342.851 63.278 342.977 63.054 343.061 62.914C343.173 62.746 343.285 62.592 343.397 62.452C343.649 62.2 343.929 62.074 344.237 62.074C344.573 62.074 344.867 62.228 345.119 62.536C345.371 62.844 345.497 63.208 345.497 63.628C345.497 64.02 344.965 65.756 343.901 68.836C342.865 71.888 342.347 73.736 342.347 74.38C342.347 75.024 342.473 75.5 342.725 75.808C343.005 76.116 343.271 76.27 343.523 76.27C343.803 76.27 344.013 76.256 344.153 76.228C344.293 76.2 344.433 76.144 344.573 76.06C344.713 75.976 344.825 75.906 344.909 75.85C345.021 75.794 345.147 75.696 345.287 75.556L345.581 75.22C345.665 75.164 345.777 75.052 345.917 74.884C346.085 74.688 346.197 74.562 346.253 74.506L347.135 75.22C346.659 76.396 345.903 77.39 344.867 78.202C343.859 79.014 342.935 79.42 342.095 79.42C341.283 79.42 340.639 79.14 340.163 78.58C339.687 77.992 339.449 77.236 339.449 76.312C339.449 75.388 339.603 74.198 339.911 72.742C338.623 74.758 337.209 76.298 335.669 77.362C334.129 78.398 332.883 78.916 331.931 78.916C330.979 78.916 330.265 78.566 329.789 77.866C329.313 77.166 329.075 76.312 329.075 75.304ZM363.354 66.526C364.082 67.73 364.446 69.06 364.446 70.516C364.446 72.784 363.662 74.814 362.094 76.606C360.526 78.37 358.678 79.252 356.55 79.252C354.926 79.252 353.652 78.79 352.728 77.866C351.832 76.914 351.384 75.612 351.384 73.96C351.384 71.3 352.42 68.92 354.492 66.82C356.564 64.692 358.888 63.628 361.464 63.628C361.94 63.628 362.276 63.642 362.472 63.67L362.598 65.056C360.358 65.056 358.496 65.7 357.012 66.988C355.528 68.276 354.786 69.928 354.786 71.944C354.786 73.148 355.08 74.128 355.668 74.884C356.256 75.612 357.11 75.976 358.23 75.976C359.378 75.976 360.288 75.472 360.96 74.464C361.632 73.456 361.968 72.28 361.968 70.936C361.968 69.564 361.702 68.318 361.17 67.198L363.354 66.526ZM372.367 71.272C374.495 68.08 376.343 65.91 377.911 64.762C379.479 63.586 380.851 62.998 382.027 62.998C383.203 62.998 384.113 63.362 384.757 64.09C385.401 64.79 385.723 65.686 385.723 66.778C385.723 69.802 384.631 72.602 382.447 75.178C380.291 77.726 377.855 79 375.139 79C373.935 79 372.983 78.79 372.283 78.37L373.291 76.564C374.775 76.76 375.685 76.858 376.021 76.858C377.533 76.858 378.947 75.976 380.263 74.212C381.579 72.448 382.237 70.642 382.237 68.794C382.237 68.094 382.027 67.52 381.607 67.072C381.215 66.596 380.697 66.358 380.053 66.358C378.513 66.358 376.763 67.716 374.803 70.432C372.871 73.148 371.051 76.508 369.343 80.512C367.663 84.544 366.193 88.828 364.933 93.364L362.413 92.482C362.469 92.314 363.001 90.858 364.009 88.114C364.989 85.398 365.955 82.696 366.907 80.008C369.539 72.616 370.855 68.57 370.855 67.87C370.855 66.078 370.491 64.454 369.763 62.998L371.863 61.948C372.731 63.152 373.165 64.426 373.165 65.77C373.165 67.086 372.899 68.92 372.367 71.272ZM405.826 77.488L405.868 78.496C405.588 78.664 404.314 79.168 402.046 80.008C401.15 85.356 399.834 89.22 398.098 91.6C396.362 93.98 394.234 95.17 391.714 95.17C390.538 95.17 389.6 94.792 388.9 94.036C388.2 93.28 387.85 92.3 387.85 91.096C387.85 88.688 388.956 86.434 391.168 84.334C393.38 82.262 396.334 80.624 400.03 79.42C400.45 77.544 401.206 74.898 402.298 71.482C400.422 74.338 398.714 76.27 397.174 77.278C395.662 78.286 394.29 78.79 393.058 78.79C391.826 78.79 390.888 78.454 390.244 77.782C389.628 77.11 389.32 76.214 389.32 75.094C389.32 73.246 390.09 71.37 391.63 69.466C393.17 67.534 395.102 65.966 397.426 64.762C399.778 63.53 402.046 62.914 404.23 62.914L404.566 64.384C401.458 64.72 398.784 65.812 396.544 67.66C394.332 69.508 393.226 71.286 393.226 72.994C393.226 73.722 393.45 74.324 393.898 74.8C394.346 75.276 394.892 75.514 395.536 75.514C396.488 75.514 397.93 74.506 399.862 72.49C401.794 70.474 403.152 68.752 403.936 67.324L405.49 68.206C403.95 72.322 402.886 75.794 402.298 78.622L405.826 77.488ZM399.778 80.68C397.342 81.8 395.326 83.144 393.73 84.712C392.134 86.28 391.336 87.708 391.336 88.996C391.336 89.668 391.532 90.214 391.924 90.634C392.316 91.054 392.806 91.264 393.394 91.264C394.57 91.264 395.732 90.438 396.88 88.786C398.028 87.134 398.994 84.432 399.778 80.68ZM424.181 76.354L424.307 77.446C424.195 77.53 422.893 78.034 420.401 78.958C420.065 80.806 419.631 82.626 419.099 84.418C418.595 86.238 418.077 87.61 417.545 88.534C417.041 89.486 416.439 90.424 415.739 91.348C414.339 93.196 412.449 94.12 410.069 94.12C408.893 94.12 407.955 93.756 407.255 93.028C406.555 92.3 406.205 91.306 406.205 90.046C406.205 85.202 410.265 81.31 418.385 78.37L420.653 70.39C418.245 74.002 416.075 76.228 414.143 77.068C413.191 77.516 412.183 77.74 411.119 77.74C410.083 77.74 409.243 77.404 408.599 76.732C407.983 76.06 407.675 75.08 407.675 73.792C407.675 72.504 408.109 70.712 408.977 68.416C409.873 66.092 410.867 64.146 411.959 62.578L414.017 63.46C413.933 63.544 413.541 64.286 412.841 65.686C411.609 68.234 410.993 70.124 410.993 71.356C410.993 72.588 411.231 73.414 411.707 73.834C412.183 74.254 412.883 74.464 413.807 74.464C414.731 74.464 415.767 73.918 416.915 72.826C418.091 71.706 419.897 69.508 422.333 66.232L423.845 67.114C423.621 68.038 423.117 69.718 422.333 72.154C421.577 74.562 421.059 76.41 420.779 77.698L424.181 76.354ZM418.133 79.63C416.369 80.442 414.815 81.366 413.471 82.402C410.951 84.306 409.691 86.154 409.691 87.946C409.691 88.618 409.887 89.164 410.279 89.584C410.671 90.004 411.161 90.214 411.749 90.214C414.549 90.214 416.677 86.686 418.133 79.63ZM81.7416 128.354L81.8676 129.446C81.7556 129.53 80.4536 130.034 77.9616 130.958C77.6256 132.806 77.1916 134.626 76.6596 136.418C76.1556 138.238 75.6376 139.61 75.1056 140.534C74.6016 141.486 73.9996 142.424 73.2996 143.348C71.8996 145.196 70.0096 146.12 67.6296 146.12C66.4536 146.12 65.5156 145.756 64.8156 145.028C64.1156 144.3 63.7656 143.306 63.7656 142.046C63.7656 137.202 67.8256 133.31 75.9456 130.37L78.2136 122.39C75.8056 126.002 73.6356 128.228 71.7036 129.068C70.7516 129.516 69.7436 129.74 68.6796 129.74C67.6436 129.74 66.8036 129.404 66.1596 128.732C65.5436 128.06 65.2356 127.08 65.2356 125.792C65.2356 124.504 65.6696 122.712 66.5376 120.416C67.4336 118.092 68.4276 116.146 69.5196 114.578L71.5776 115.46C71.4936 115.544 71.1016 116.286 70.4016 117.686C69.1696 120.234 68.5536 122.124 68.5536 123.356C68.5536 124.588 68.7916 125.414 69.2676 125.834C69.7436 126.254 70.4436 126.464 71.3676 126.464C72.2916 126.464 73.3276 125.918 74.4756 124.826C75.6516 123.706 77.4576 121.508 79.8936 118.232L81.4056 119.114C81.1816 120.038 80.6776 121.718 79.8936 124.154C79.1376 126.562 78.6196 128.41 78.3396 129.698L81.7416 128.354ZM75.6936 131.63C73.9296 132.442 72.3756 133.366 71.0316 134.402C68.5116 136.306 67.2516 138.154 67.2516 139.946C67.2516 140.618 67.4476 141.164 67.8396 141.584C68.2316 142.004 68.7216 142.214 69.3096 142.214C72.1096 142.214 74.2376 138.686 75.6936 131.63ZM105.459 126.002C105.459 126.562 105.585 126.996 105.837 127.304C106.117 127.612 106.397 127.766 106.677 127.766C106.957 127.766 107.167 127.752 107.307 127.724C107.447 127.696 107.587 127.64 107.727 127.556C107.867 127.444 107.979 127.36 108.063 127.304C108.175 127.248 108.301 127.15 108.441 127.01C108.609 126.842 108.721 126.73 108.777 126.674C108.889 126.506 109.085 126.282 109.365 126.002L110.247 126.716C109.743 127.892 108.973 128.886 107.937 129.698C106.929 130.51 106.019 130.916 105.207 130.916C104.395 130.916 103.751 130.622 103.275 130.034C102.799 129.446 102.561 128.704 102.561 127.808C102.561 126.884 102.715 125.694 103.023 124.238C101.679 126.366 100.321 128.004 98.9492 129.152C97.6052 130.3 96.3872 130.874 95.2952 130.874C93.7832 130.874 93.0272 129.908 93.0272 127.976C93.0272 127.36 93.2232 126.128 93.6152 124.28C92.2712 126.38 90.8992 128.018 89.4992 129.194C88.1272 130.342 86.8952 130.916 85.8032 130.916C84.2912 130.916 83.5352 129.978 83.5352 128.102C83.5352 126.226 84.1792 123.72 85.4672 120.584C86.7552 117.42 87.6932 115.586 88.2812 115.082L90.2972 115.964C89.3452 117.504 88.5192 119.282 87.8192 121.298C87.1472 123.286 86.8112 124.56 86.8112 125.12C86.8112 125.652 86.9652 126.128 87.2732 126.548C87.5812 126.94 87.9172 127.136 88.2812 127.136C89.3172 127.136 90.9132 125.624 93.0692 122.6C95.2532 119.576 96.7232 117 97.4792 114.872L99.9992 115.964C99.4392 116.72 98.6832 118.246 97.7312 120.542C96.7792 122.81 96.3032 124.266 96.3032 124.91C96.3032 125.554 96.4992 126.058 96.8912 126.422C97.2832 126.786 97.6752 126.968 98.0672 126.968C99.0752 126.968 100.559 125.694 102.519 123.146C104.507 120.57 106.033 117.84 107.097 114.956L109.575 116.048C109.407 116.412 108.945 117.336 108.189 118.82C106.369 122.264 105.459 124.658 105.459 126.002ZM128.335 128.354L128.461 129.446C128.349 129.53 127.047 130.034 124.555 130.958C124.219 132.806 123.785 134.626 123.253 136.418C122.749 138.238 122.231 139.61 121.699 140.534C121.195 141.486 120.593 142.424 119.893 143.348C118.493 145.196 116.603 146.12 114.223 146.12C113.047 146.12 112.109 145.756 111.409 145.028C110.709 144.3 110.359 143.306 110.359 142.046C110.359 137.202 114.419 133.31 122.539 130.37L124.807 122.39C122.399 126.002 120.229 128.228 118.297 129.068C117.345 129.516 116.337 129.74 115.273 129.74C114.237 129.74 113.397 129.404 112.753 128.732C112.137 128.06 111.829 127.08 111.829 125.792C111.829 124.504 112.263 122.712 113.131 120.416C114.027 118.092 115.021 116.146 116.113 114.578L118.171 115.46C118.087 115.544 117.695 116.286 116.995 117.686C115.763 120.234 115.147 122.124 115.147 123.356C115.147 124.588 115.385 125.414 115.861 125.834C116.337 126.254 117.037 126.464 117.961 126.464C118.885 126.464 119.921 125.918 121.069 124.826C122.245 123.706 124.051 121.508 126.487 118.232L127.999 119.114C127.775 120.038 127.271 121.718 126.487 124.154C125.731 126.562 125.213 128.41 124.933 129.698L128.335 128.354ZM122.287 131.63C120.523 132.442 118.969 133.366 117.625 134.402C115.105 136.306 113.845 138.154 113.845 139.946C113.845 140.618 114.041 141.164 114.433 141.584C114.825 142.004 115.315 142.214 115.903 142.214C118.703 142.214 120.831 138.686 122.287 131.63ZM130.559 127.304L132.659 126.254C132.659 126.758 132.841 127.192 133.205 127.556C133.597 127.92 134.045 128.102 134.549 128.102C136.929 128.102 139.645 124.966 142.697 118.694C142.865 118.33 143.061 117.924 143.285 117.476C143.509 117 143.677 116.65 143.789 116.426C143.901 116.174 144.027 115.894 144.167 115.586C144.335 115.278 144.461 115.054 144.545 114.914C144.657 114.746 144.769 114.592 144.881 114.452C145.133 114.2 145.413 114.074 145.721 114.074C146.057 114.074 146.351 114.228 146.603 114.536C146.855 114.844 146.981 115.208 146.981 115.628C146.981 116.02 146.449 117.756 145.385 120.836C144.349 123.888 143.831 125.736 143.831 126.38C143.831 127.024 143.957 127.5 144.209 127.808C144.489 128.116 144.755 128.27 145.007 128.27C145.287 128.27 145.497 128.256 145.637 128.228C145.777 128.2 145.917 128.144 146.057 128.06C146.197 127.976 146.309 127.906 146.393 127.85C146.505 127.794 146.631 127.696 146.771 127.556L147.065 127.22C147.149 127.164 147.261 127.052 147.401 126.884C147.569 126.688 147.681 126.562 147.737 126.506L148.619 127.22C148.143 128.396 147.387 129.39 146.351 130.202C145.343 131.014 144.419 131.42 143.579 131.42C142.767 131.42 142.123 131.14 141.647 130.58C141.171 129.992 140.933 129.236 140.933 128.312C140.933 127.388 141.087 126.198 141.395 124.742C140.107 126.758 138.693 128.298 137.153 129.362C135.613 130.398 134.367 130.916 133.415 130.916C132.463 130.916 131.749 130.566 131.273 129.866C130.797 129.166 130.559 128.312 130.559 127.304ZM191.066 107.69L185.06 107.564C178.928 107.564 175.862 108.908 175.862 111.596C175.862 112.296 176.114 112.87 176.618 113.318C177.15 113.738 177.934 113.948 178.97 113.948C180.006 113.948 181.364 113.472 183.044 112.52L183.674 113.612C182.806 114.536 181.826 115.264 180.734 115.796C179.642 116.328 178.55 116.594 177.458 116.594C176.366 116.594 175.428 116.23 174.644 115.502C173.86 114.774 173.468 113.864 173.468 112.772C173.468 110.56 174.658 108.628 177.038 106.976C179.446 105.324 182.694 104.498 186.782 104.498C187.118 104.498 188.322 104.554 190.394 104.666C192.466 104.778 194.104 104.834 195.308 104.834C196.512 104.834 197.618 104.652 198.626 104.288C199.018 104.176 199.256 104.12 199.34 104.12C199.732 104.12 199.928 104.372 199.928 104.876C199.928 105.604 199.284 106.262 197.996 106.85C196.736 107.438 195.28 107.732 193.628 107.732C191.78 109.524 190.156 112.66 188.756 117.14C187.384 121.592 185.732 124.994 183.8 127.346C181.896 129.67 179.628 130.832 176.996 130.832C175.96 130.832 174.98 130.496 174.056 129.824L175.022 128.228C175.358 128.396 175.736 128.55 176.156 128.69L176.744 128.774C176.884 128.802 177.094 128.816 177.374 128.816C178.774 128.816 180.02 128.144 181.112 126.8C182.232 125.456 183.394 122.922 184.598 119.198C185.83 115.446 186.782 112.968 187.454 111.764C188.154 110.532 189.358 109.174 191.066 107.69ZM201.943 126.044L202.909 126.8C202.041 128.004 200.851 129.012 199.339 129.824C197.827 130.608 196.357 131 194.929 131C193.501 131 192.353 130.58 191.485 129.74C190.617 128.9 190.183 127.794 190.183 126.422C190.183 123.846 191.541 121.312 194.257 118.82C197.001 116.328 199.773 115.082 202.573 115.082C204.421 115.082 205.345 115.81 205.345 117.266C205.345 118.778 204.365 120.304 202.405 121.844C200.473 123.384 197.743 124.784 194.215 126.044C194.467 126.688 194.859 127.192 195.391 127.556C195.923 127.92 196.469 128.102 197.029 128.102C198.233 128.102 199.871 127.416 201.943 126.044ZM194.005 124.784C196.273 124 198.219 123.02 199.843 121.844C201.467 120.668 202.279 119.59 202.279 118.61C202.279 118.246 202.139 117.924 201.859 117.644C201.579 117.364 201.257 117.224 200.893 117.224C199.577 117.224 198.149 118.05 196.609 119.702C195.097 121.326 194.229 123.02 194.005 124.784ZM212.731 126.968L213.613 127.682C212.661 129.166 211.835 130.244 211.135 130.916C210.463 131.56 209.707 131.882 208.867 131.882C208.027 131.882 207.341 131.546 206.809 130.874C206.277 130.202 206.011 129.362 206.011 128.354C206.011 126.394 207.299 122.18 209.875 115.712C212.451 109.216 215.097 103.504 217.813 98.576L219.661 99.584C216.917 104.904 214.439 110.196 212.227 115.46C210.015 120.696 208.909 124.462 208.909 126.758C208.909 128.074 209.399 128.732 210.379 128.732C211.163 128.732 211.947 128.144 212.731 126.968ZM229.341 126.044L230.307 126.8C229.439 128.004 228.249 129.012 226.737 129.824C225.225 130.608 223.755 131 222.327 131C220.899 131 219.751 130.58 218.883 129.74C218.015 128.9 217.581 127.794 217.581 126.422C217.581 123.846 218.939 121.312 221.655 118.82C224.399 116.328 227.171 115.082 229.971 115.082C231.819 115.082 232.743 115.81 232.743 117.266C232.743 118.778 231.763 120.304 229.803 121.844C227.871 123.384 225.141 124.784 221.613 126.044C221.865 126.688 222.257 127.192 222.789 127.556C223.321 127.92 223.867 128.102 224.427 128.102C225.631 128.102 227.269 127.416 229.341 126.044ZM221.403 124.784C223.671 124 225.617 123.02 227.241 121.844C228.865 120.668 229.677 119.59 229.677 118.61C229.677 118.246 229.537 117.924 229.257 117.644C228.977 117.364 228.655 117.224 228.291 117.224C226.975 117.224 225.547 118.05 224.007 119.702C222.495 121.326 221.627 123.02 221.403 124.784ZM251.679 129.488L251.721 130.496C251.441 130.664 250.167 131.168 247.899 132.008C247.003 137.356 245.687 141.22 243.951 143.6C242.215 145.98 240.087 147.17 237.567 147.17C236.391 147.17 235.453 146.792 234.753 146.036C234.053 145.28 233.703 144.3 233.703 143.096C233.703 140.688 234.809 138.434 237.021 136.334C239.233 134.262 242.187 132.624 245.883 131.42C246.303 129.544 247.059 126.898 248.151 123.482C246.275 126.338 244.567 128.27 243.027 129.278C241.515 130.286 240.143 130.79 238.911 130.79C237.679 130.79 236.741 130.454 236.097 129.782C235.481 129.11 235.173 128.214 235.173 127.094C235.173 125.246 235.943 123.37 237.483 121.466C239.023 119.534 240.955 117.966 243.279 116.762C245.631 115.53 247.899 114.914 250.083 114.914L250.419 116.384C247.311 116.72 244.637 117.812 242.397 119.66C240.185 121.508 239.079 123.286 239.079 124.994C239.079 125.722 239.303 126.324 239.751 126.8C240.199 127.276 240.745 127.514 241.389 127.514C242.341 127.514 243.783 126.506 245.715 124.49C247.647 122.474 249.005 120.752 249.789 119.324L251.343 120.206C249.803 124.322 248.739 127.794 248.151 130.622L251.679 129.488ZM245.631 132.68C243.195 133.8 241.179 135.144 239.583 136.712C237.987 138.28 237.189 139.708 237.189 140.996C237.189 141.668 237.385 142.214 237.777 142.634C238.169 143.054 238.659 143.264 239.247 143.264C240.423 143.264 241.585 142.438 242.733 140.786C243.881 139.134 244.847 136.432 245.631 132.68ZM264.204 116.132C264.904 116.132 265.478 116.37 265.926 116.846C266.374 117.322 266.598 117.938 266.598 118.694C266.598 120.206 265.73 121.802 263.994 123.482L262.986 122.684C263.378 121.816 263.574 121.186 263.574 120.794C263.574 120.038 263.154 119.66 262.314 119.66C261.474 119.66 260.676 120.192 259.92 121.256C259.164 122.32 258.268 123.972 257.232 126.212C256.224 128.424 255.454 129.992 254.922 130.916L252.528 129.866C254.068 126.366 254.95 124.308 255.174 123.692C255.93 121.508 256.308 118.736 256.308 115.376L258.66 114.746C258.576 116.566 258.45 117.98 258.282 118.988C258.114 119.968 257.708 121.578 257.064 123.818C259.892 118.694 262.272 116.132 264.204 116.132ZM285.392 126.758L286.358 127.472C285.966 128.312 285.238 129.11 284.174 129.866C283.138 130.622 282.186 131 281.318 131C279.666 131 278.84 130.132 278.84 128.396C278.84 127.584 279.05 126.618 279.47 125.498L277.916 127.094C276.404 128.634 275.088 129.67 273.968 130.202C272.876 130.734 271.798 131 270.734 131C269.67 131 268.858 130.706 268.298 130.118C267.766 129.502 267.5 128.662 267.5 127.598C267.5 125.638 268.256 123.706 269.768 121.802C271.28 119.87 273.212 118.302 275.564 117.098C277.916 115.894 280.268 115.278 282.62 115.25L282.704 116.636L280.94 117.014C278.392 117.574 276.138 118.694 274.178 120.374C272.246 122.054 271.28 123.734 271.28 125.414C271.28 127.066 271.952 127.892 273.296 127.892C274.556 127.892 276.11 127.01 277.958 125.246C279.806 123.482 281.346 121.41 282.578 119.03L284.342 120.08C282.606 123.58 281.738 125.806 281.738 126.758C281.738 127.15 281.864 127.486 282.116 127.766C282.396 128.018 282.662 128.144 282.914 128.144C283.194 128.144 283.376 128.13 283.46 128.102C283.544 128.074 283.628 128.046 283.712 128.018C283.796 127.962 283.894 127.892 284.006 127.808C284.146 127.724 284.258 127.64 284.342 127.556C284.454 127.472 284.622 127.346 284.846 127.178C285.07 127.01 285.252 126.87 285.392 126.758ZM315.496 125.54L316.378 126.38C314.782 129.236 312.948 130.664 310.876 130.664C310.036 130.664 309.378 130.44 308.902 129.992C308.454 129.516 308.23 128.9 308.23 128.144C308.23 127.36 308.692 126.03 309.616 124.154C310.54 122.278 311.03 120.85 311.086 119.87C311.114 119.422 310.974 119.058 310.666 118.778C310.386 118.498 309.994 118.358 309.49 118.358C308.986 118.358 308.468 118.484 307.936 118.736C307.432 118.96 306.928 119.338 306.424 119.87C305.948 120.402 305.5 120.92 305.08 121.424C304.688 121.928 304.24 122.642 303.736 123.566C303.26 124.49 302.854 125.26 302.518 125.876C301.93 127.024 301.09 128.746 299.998 131.042L297.478 130.16C297.478 130.076 297.94 128.494 298.864 125.414C299.788 122.334 300.25 120.5 300.25 119.912C300.25 119.324 300.11 118.904 299.83 118.652C299.55 118.372 299.2 118.232 298.78 118.232C297.52 118.232 295.77 119.8 293.53 122.936C291.318 126.072 289.904 128.746 289.288 130.958L286.894 130.16C287.034 128.676 287.692 126.016 288.868 122.18C290.044 118.316 291.038 115.684 291.85 114.284L293.74 114.956C292.872 116.888 292.27 118.526 291.934 119.87C291.598 121.186 291.304 122.6 291.052 124.112C293.46 120.668 295.476 118.26 297.1 116.888C298.724 115.488 300.194 114.788 301.51 114.788C302.938 114.788 303.652 115.502 303.652 116.93C303.652 117.49 303.4 118.596 302.896 120.248C302.42 121.9 302.042 123.202 301.762 124.154C305.626 117.938 309.084 114.83 312.136 114.83C312.892 114.83 313.494 115.068 313.942 115.544C314.39 115.992 314.614 116.678 314.614 117.602C314.614 118.498 314.082 119.996 313.018 122.096C311.982 124.196 311.464 125.526 311.464 126.086C311.464 126.618 311.576 127.01 311.8 127.262C312.024 127.514 312.304 127.64 312.64 127.64C313.368 127.64 314.32 126.94 315.496 125.54ZM351.286 126.17L352.462 127.052C352.182 127.64 351.58 128.312 350.656 129.068C349.76 129.824 348.71 130.202 347.506 130.202C345.882 130.202 345.07 129.376 345.07 127.724C345.07 126.772 345.266 125.722 345.658 124.574C346.078 123.398 346.484 122.334 346.876 121.382C347.268 120.402 347.506 119.786 347.59 119.534C346.918 120.486 345.826 121.48 344.314 122.516C342.83 123.524 341.472 124.028 340.24 124.028C338.42 124.028 337.51 122.992 337.51 120.92C337.51 119.576 337.874 118.092 338.602 116.468C339.358 114.844 340.142 113.71 340.954 113.066L342.802 113.738C341.486 116.174 340.828 117.98 340.828 119.156C340.828 120.332 341.374 120.92 342.466 120.92C343.726 120.92 345.168 120.22 346.792 118.82C348.416 117.42 349.564 115.67 350.236 113.57L352.42 114.788C349.396 120.136 347.884 123.846 347.884 125.918C347.884 126.87 348.248 127.346 348.976 127.346C349.732 127.346 350.502 126.954 351.286 126.17ZM371.658 126.758L372.624 127.472C372.232 128.312 371.504 129.11 370.44 129.866C369.404 130.622 368.452 131 367.584 131C365.932 131 365.106 130.132 365.106 128.396C365.106 127.584 365.316 126.618 365.736 125.498L364.182 127.094C362.67 128.634 361.354 129.67 360.234 130.202C359.142 130.734 358.064 131 357 131C355.936 131 355.124 130.706 354.564 130.118C354.032 129.502 353.766 128.662 353.766 127.598C353.766 125.638 354.522 123.706 356.034 121.802C357.546 119.87 359.478 118.302 361.83 117.098C364.182 115.894 366.534 115.278 368.886 115.25L368.97 116.636L367.206 117.014C364.658 117.574 362.404 118.694 360.444 120.374C358.512 122.054 357.546 123.734 357.546 125.414C357.546 127.066 358.218 127.892 359.562 127.892C360.822 127.892 362.376 127.01 364.224 125.246C366.072 123.482 367.612 121.41 368.844 119.03L370.608 120.08C368.872 123.58 368.004 125.806 368.004 126.758C368.004 127.15 368.13 127.486 368.382 127.766C368.662 128.018 368.928 128.144 369.18 128.144C369.46 128.144 369.642 128.13 369.726 128.102C369.81 128.074 369.894 128.046 369.978 128.018C370.062 127.962 370.16 127.892 370.272 127.808C370.412 127.724 370.524 127.64 370.608 127.556C370.72 127.472 370.888 127.346 371.112 127.178C371.336 127.01 371.518 126.87 371.658 126.758ZM402.623 125.54L403.505 126.38C401.909 129.236 400.075 130.664 398.003 130.664C397.163 130.664 396.505 130.44 396.029 129.992C395.581 129.516 395.357 128.9 395.357 128.144C395.357 127.36 395.819 126.03 396.743 124.154C397.667 122.278 398.157 120.85 398.213 119.87C398.241 119.422 398.101 119.058 397.793 118.778C397.513 118.498 397.121 118.358 396.617 118.358C396.113 118.358 395.595 118.484 395.063 118.736C394.559 118.96 394.055 119.338 393.551 119.87C393.075 120.402 392.627 120.92 392.207 121.424C391.815 121.928 391.367 122.642 390.863 123.566C390.387 124.49 389.981 125.26 389.645 125.876C389.057 127.024 388.217 128.746 387.125 131.042L384.605 130.16C384.605 130.076 385.067 128.494 385.991 125.414C386.915 122.334 387.377 120.5 387.377 119.912C387.377 119.324 387.237 118.904 386.957 118.652C386.677 118.372 386.327 118.232 385.907 118.232C384.647 118.232 382.897 119.8 380.657 122.936C378.445 126.072 377.031 128.746 376.415 130.958L374.021 130.16C374.161 128.676 374.819 126.016 375.995 122.18C377.171 118.316 378.165 115.684 378.977 114.284L380.867 114.956C379.999 116.888 379.397 118.526 379.061 119.87C378.725 121.186 378.431 122.6 378.179 124.112C380.587 120.668 382.603 118.26 384.227 116.888C385.851 115.488 387.321 114.788 388.637 114.788C390.065 114.788 390.779 115.502 390.779 116.93C390.779 117.49 390.527 118.596 390.023 120.248C389.547 121.9 389.169 123.202 388.889 124.154C392.753 117.938 396.211 114.83 399.263 114.83C400.019 114.83 400.621 115.068 401.069 115.544C401.517 115.992 401.741 116.678 401.741 117.602C401.741 118.498 401.209 119.996 400.145 122.096C399.109 124.196 398.591 125.526 398.591 126.086C398.591 126.618 398.703 127.01 398.927 127.262C399.151 127.514 399.431 127.64 399.767 127.64C400.495 127.64 401.447 126.94 402.623 125.54ZM420.481 126.338L421.531 127.262C419.907 129.922 418.185 131.252 416.365 131.252C415.329 131.252 414.265 130.58 413.173 129.236C412.109 127.892 411.465 126.59 411.241 125.33C411.073 125.638 410.597 126.45 409.813 127.766C409.029 129.082 408.469 130.16 408.133 131L405.613 130.118C406.201 126.674 406.915 123.426 407.755 120.374C408.623 117.322 409.435 115.18 410.191 113.948L411.913 114.494C411.409 115.782 410.569 119.212 409.393 124.784C410.933 121.62 412.487 119.31 414.055 117.854C415.623 116.37 417.345 115.39 419.221 114.914V117.686C417.205 117.77 415.259 119.128 413.383 121.76C413.495 123.58 414.027 125.092 414.979 126.296C415.959 127.5 416.883 128.102 417.751 128.102C418.171 128.102 419.081 127.514 420.481 126.338ZM442.451 126.758L443.417 127.472C443.025 128.312 442.297 129.11 441.233 129.866C440.197 130.622 439.245 131 438.377 131C436.725 131 435.899 130.132 435.899 128.396C435.899 127.584 436.109 126.618 436.529 125.498L434.975 127.094C433.463 128.634 432.147 129.67 431.027 130.202C429.935 130.734 428.857 131 427.793 131C426.729 131 425.917 130.706 425.357 130.118C424.825 129.502 424.559 128.662 424.559 127.598C424.559 125.638 425.315 123.706 426.827 121.802C428.339 119.87 430.271 118.302 432.623 117.098C434.975 115.894 437.327 115.278 439.679 115.25L439.763 116.636L437.999 117.014C435.451 117.574 433.197 118.694 431.237 120.374C429.305 122.054 428.339 123.734 428.339 125.414C428.339 127.066 429.011 127.892 430.355 127.892C431.615 127.892 433.169 127.01 435.017 125.246C436.865 123.482 438.405 121.41 439.637 119.03L441.401 120.08C439.665 123.58 438.797 125.806 438.797 126.758C438.797 127.15 438.923 127.486 439.175 127.766C439.455 128.018 439.721 128.144 439.973 128.144C440.253 128.144 440.435 128.13 440.519 128.102C440.603 128.074 440.687 128.046 440.771 128.018C440.855 127.962 440.953 127.892 441.065 127.808C441.205 127.724 441.317 127.64 441.401 127.556C441.513 127.472 441.681 127.346 441.905 127.178C442.129 127.01 442.311 126.87 442.451 126.758ZM469.025 107.48C469.025 105.968 469.585 104.806 470.705 103.994C471.825 103.182 473.407 102.776 475.451 102.776C477.523 102.748 478.923 102.902 479.651 103.238L479.273 105.002C478.293 104.862 477.229 104.792 476.081 104.792C473.617 104.792 472.385 105.814 472.385 107.858C472.385 108.418 473.127 110.07 474.611 112.814C476.123 115.558 476.991 117.21 477.215 117.77C477.467 118.33 477.677 119.072 477.845 119.996C478.041 120.892 478.139 121.564 478.139 122.012C478.139 124.476 477.369 126.604 475.829 128.396C474.289 130.16 472.427 131.042 470.243 131.042C468.619 131.042 467.345 130.58 466.421 129.656C465.525 128.704 465.077 127.346 465.077 125.582C465.077 123.79 465.651 122.026 466.799 120.29C467.947 118.554 469.403 117.252 471.167 116.384L471.713 118.022C469.557 119.366 468.479 121.27 468.479 123.734C468.479 124.938 468.773 125.918 469.361 126.674C469.949 127.402 470.761 127.766 471.797 127.766C472.833 127.766 473.729 127.304 474.485 126.38C475.269 125.456 475.661 124.294 475.661 122.894C475.661 121.494 475.465 120.374 475.073 119.534C474.709 118.694 474.009 117.392 472.973 115.628C470.341 111.008 469.025 108.292 469.025 107.48ZM503.049 119.702C503.049 122.194 502.615 124.322 501.747 126.086C500.907 127.822 499.703 129.152 498.135 130.076C496.567 130.972 494.705 131.42 492.549 131.42C490.561 131.42 488.783 130.972 487.215 130.076C485.675 129.152 484.457 127.822 483.561 126.086C482.665 124.322 482.217 122.194 482.217 119.702C482.217 115.978 483.155 113.108 485.031 111.092C486.907 109.076 489.455 108.068 492.675 108.068C494.719 108.068 496.511 108.53 498.051 109.454C499.619 110.35 500.837 111.666 501.705 113.402C502.601 115.11 503.049 117.21 503.049 119.702ZM492.633 128.354C494.061 128.354 495.237 128.074 496.161 127.514C497.113 126.954 497.827 126.128 498.303 125.036C498.807 123.916 499.101 122.558 499.185 120.962H486.039C486.123 122.558 486.417 123.916 486.921 125.036C487.425 126.128 488.139 126.954 489.063 127.514C490.015 128.074 491.205 128.354 492.633 128.354ZM492.591 111.176C490.519 111.176 488.965 111.75 487.929 112.898C486.893 114.018 486.277 115.684 486.081 117.896H499.185C499.045 116.412 498.709 115.18 498.177 114.2C497.673 113.192 496.959 112.436 496.035 111.932C495.111 111.428 493.963 111.176 492.591 111.176ZM508.067 127.304L510.167 126.254C510.167 126.758 510.349 127.192 510.713 127.556C511.105 127.92 511.553 128.102 512.057 128.102C514.437 128.102 517.153 124.966 520.205 118.694C520.373 118.33 520.569 117.924 520.793 117.476C521.017 117 521.185 116.65 521.297 116.426C521.409 116.174 521.535 115.894 521.675 115.586C521.843 115.278 521.969 115.054 522.053 114.914C522.165 114.746 522.277 114.592 522.389 114.452C522.641 114.2 522.921 114.074 523.229 114.074C523.565 114.074 523.859 114.228 524.111 114.536C524.363 114.844 524.489 115.208 524.489 115.628C524.489 116.02 523.957 117.756 522.893 120.836C521.857 123.888 521.339 125.736 521.339 126.38C521.339 127.024 521.465 127.5 521.717 127.808C521.997 128.116 522.263 128.27 522.515 128.27C522.795 128.27 523.005 128.256 523.145 128.228C523.285 128.2 523.425 128.144 523.565 128.06C523.705 127.976 523.817 127.906 523.901 127.85C524.013 127.794 524.139 127.696 524.279 127.556L524.573 127.22C524.657 127.164 524.769 127.052 524.909 126.884C525.077 126.688 525.189 126.562 525.245 126.506L526.127 127.22C525.651 128.396 524.895 129.39 523.859 130.202C522.851 131.014 521.927 131.42 521.087 131.42C520.275 131.42 519.631 131.14 519.155 130.58C518.679 129.992 518.441 129.236 518.441 128.312C518.441 127.388 518.595 126.198 518.903 124.742C517.615 126.758 516.201 128.298 514.661 129.362C513.121 130.398 511.875 130.916 510.923 130.916C509.971 130.916 509.257 130.566 508.781 129.866C508.305 129.166 508.067 128.312 508.067 127.304ZM542.052 141.08H538.356V131.084L529.536 108.488H533.4L538.104 120.836C538.524 121.956 538.93 123.146 539.322 124.406C539.714 125.638 539.98 126.604 540.12 127.304H540.33C540.498 126.604 540.764 125.638 541.128 124.406C541.492 123.174 541.898 121.984 542.346 120.836L547.008 108.488H550.872L542.052 131.084V141.08ZM572.914 126.002C572.914 126.562 573.04 126.996 573.292 127.304C573.572 127.612 573.852 127.766 574.132 127.766C574.412 127.766 574.622 127.752 574.762 127.724C574.902 127.696 575.042 127.64 575.182 127.556C575.322 127.444 575.434 127.36 575.518 127.304C575.63 127.248 575.756 127.15 575.896 127.01C576.064 126.842 576.176 126.73 576.232 126.674C576.344 126.506 576.54 126.282 576.82 126.002L577.702 126.716C577.198 127.892 576.428 128.886 575.392 129.698C574.384 130.51 573.474 130.916 572.662 130.916C571.85 130.916 571.206 130.622 570.73 130.034C570.254 129.446 570.016 128.704 570.016 127.808C570.016 126.884 570.17 125.694 570.478 124.238C569.134 126.366 567.776 128.004 566.404 129.152C565.06 130.3 563.842 130.874 562.75 130.874C561.238 130.874 560.482 129.908 560.482 127.976C560.482 127.36 560.678 126.128 561.07 124.28C559.726 126.38 558.354 128.018 556.954 129.194C555.582 130.342 554.35 130.916 553.258 130.916C551.746 130.916 550.99 129.978 550.99 128.102C550.99 126.226 551.634 123.72 552.922 120.584C554.21 117.42 555.148 115.586 555.736 115.082L557.752 115.964C556.8 117.504 555.974 119.282 555.274 121.298C554.602 123.286 554.266 124.56 554.266 125.12C554.266 125.652 554.42 126.128 554.728 126.548C555.036 126.94 555.372 127.136 555.736 127.136C556.772 127.136 558.368 125.624 560.524 122.6C562.708 119.576 564.178 117 564.934 114.872L567.454 115.964C566.894 116.72 566.138 118.246 565.186 120.542C564.234 122.81 563.758 124.266 563.758 124.91C563.758 125.554 563.954 126.058 564.346 126.422C564.738 126.786 565.13 126.968 565.522 126.968C566.53 126.968 568.014 125.694 569.974 123.146C571.962 120.57 573.488 117.84 574.552 114.956L577.03 116.048C576.862 116.412 576.4 117.336 575.644 118.82C573.824 122.264 572.914 124.658 572.914 126.002ZM590.204 141.08H586.508V131.084L577.688 108.488H581.552L586.256 120.836C586.676 121.956 587.082 123.146 587.474 124.406C587.866 125.638 588.132 126.604 588.272 127.304H588.482C588.65 126.604 588.916 125.638 589.28 124.406C589.644 123.174 590.05 121.984 590.498 120.836L595.16 108.488H599.024L590.204 131.084V141.08ZM617.455 125.918L618.337 126.59C617.721 127.822 616.867 128.858 615.775 129.698C614.711 130.538 613.745 130.958 612.877 130.958C612.009 130.958 611.323 130.706 610.819 130.202C610.315 129.698 610.063 129.068 610.063 128.312C610.063 127.556 610.539 126.24 611.491 124.364C612.471 122.46 612.961 121.06 612.961 120.164C612.961 119.772 612.793 119.422 612.457 119.114C612.149 118.778 611.771 118.61 611.323 118.61C609.895 118.61 608.453 119.702 606.997 121.886C605.541 124.042 603.917 127.164 602.125 131.252L599.605 130.37C600.137 127.122 600.893 123.958 601.873 120.878C602.881 117.77 603.805 115.544 604.645 114.2L606.367 114.746C605.583 116.734 604.589 120.164 603.385 125.036C607.249 118.428 610.805 115.124 614.053 115.124C614.753 115.124 615.327 115.362 615.775 115.838C616.251 116.314 616.489 116.874 616.489 117.518C616.489 118.162 616.405 118.75 616.237 119.282C616.069 119.786 615.537 120.99 614.641 122.894C613.773 124.77 613.339 125.946 613.339 126.422C613.339 126.898 613.479 127.276 613.759 127.556C614.039 127.808 614.305 127.934 614.557 127.934C614.809 127.934 615.019 127.892 615.187 127.808C615.355 127.724 615.537 127.598 615.733 127.43C615.957 127.262 616.153 127.108 616.321 126.968C616.489 126.828 616.685 126.646 616.909 126.422C617.161 126.17 617.343 126.002 617.455 125.918ZM139.934 178.338L140.984 179.262C139.36 181.922 137.638 183.252 135.818 183.252C134.782 183.252 133.718 182.58 132.626 181.236C131.562 179.892 130.918 178.59 130.694 177.33C130.526 177.638 130.05 178.45 129.266 179.766C128.482 181.082 127.922 182.16 127.586 183L125.066 182.118C125.654 178.674 126.368 175.426 127.208 172.374C128.076 169.322 128.888 167.18 129.644 165.948L131.366 166.494C130.862 167.782 130.022 171.212 128.846 176.784C130.386 173.62 131.94 171.31 133.508 169.854C135.076 168.37 136.798 167.39 138.674 166.914V169.686C136.658 169.77 134.712 171.128 132.836 173.76C132.948 175.58 133.48 177.092 134.432 178.296C135.412 179.5 136.336 180.102 137.204 180.102C137.624 180.102 138.534 179.514 139.934 178.338ZM154.913 170.526C155.641 171.73 156.005 173.06 156.005 174.516C156.005 176.784 155.221 178.814 153.653 180.606C152.085 182.37 150.237 183.252 148.109 183.252C146.485 183.252 145.211 182.79 144.287 181.866C143.391 180.914 142.943 179.612 142.943 177.96C142.943 175.3 143.979 172.92 146.051 170.82C148.123 168.692 150.447 167.628 153.023 167.628C153.499 167.628 153.835 167.642 154.031 167.67L154.157 169.056C151.917 169.056 150.055 169.7 148.571 170.988C147.087 172.276 146.345 173.928 146.345 175.944C146.345 177.148 146.639 178.128 147.227 178.884C147.815 179.612 148.669 179.976 149.789 179.976C150.937 179.976 151.847 179.472 152.519 178.464C153.191 177.456 153.527 176.28 153.527 174.936C153.527 173.564 153.261 172.318 152.729 171.198L154.913 170.526ZM178.499 170.064C178.835 170.484 179.101 171.086 179.297 171.87C179.493 172.626 179.591 173.256 179.591 173.76C179.591 176.224 178.821 178.352 177.281 180.144C175.741 181.908 173.879 182.79 171.695 182.79C170.071 182.79 168.797 182.328 167.873 181.404C166.977 180.452 166.529 179.15 166.529 177.498C166.529 176.966 166.557 176.56 166.613 176.28C166.109 176.336 165.017 176.49 163.337 176.742C162.189 178.786 161.615 180.844 161.615 182.916L159.095 182.706C159.095 181.138 159.599 179.304 160.607 177.204C159.823 177.26 158.675 177.526 157.163 178.002L156.743 176.364C156.743 176.252 157.345 176.042 158.549 175.734C159.781 175.426 160.761 175.216 161.489 175.104C163.729 169.952 165.255 166.97 166.067 166.158L167.873 166.872C167.593 167.488 167.117 168.524 166.445 169.98C165.773 171.408 165.073 172.906 164.345 174.474L167.159 174.18C167.915 172.192 169.175 170.526 170.939 169.182C172.703 167.838 174.593 167.166 176.609 167.166C177.085 167.166 177.421 167.18 177.617 167.208L177.743 168.594C175.503 168.594 173.641 169.238 172.157 170.526C170.673 171.814 169.931 173.466 169.931 175.482C169.931 176.686 170.225 177.666 170.813 178.422C171.401 179.15 172.213 179.514 173.249 179.514C174.285 179.514 175.181 179.052 175.937 178.128C176.721 177.204 177.113 176.084 177.113 174.768C177.113 174.152 177.001 173.424 176.777 172.584C176.553 171.716 176.399 171.1 176.315 170.736L178.499 170.064ZM197.98 180.354L198.106 181.446C197.994 181.53 196.692 182.034 194.2 182.958C193.864 184.806 193.43 186.626 192.898 188.418C192.394 190.238 191.876 191.61 191.344 192.534C190.84 193.486 190.238 194.424 189.538 195.348C188.138 197.196 186.248 198.12 183.868 198.12C182.692 198.12 181.754 197.756 181.054 197.028C180.354 196.3 180.004 195.306 180.004 194.046C180.004 189.202 184.064 185.31 192.184 182.37L194.452 174.39C192.044 178.002 189.874 180.228 187.942 181.068C186.99 181.516 185.982 181.74 184.918 181.74C183.882 181.74 183.042 181.404 182.398 180.732C181.782 180.06 181.474 179.08 181.474 177.792C181.474 176.504 181.908 174.712 182.776 172.416C183.672 170.092 184.666 168.146 185.758 166.578L187.816 167.46C187.732 167.544 187.34 168.286 186.64 169.686C185.408 172.234 184.792 174.124 184.792 175.356C184.792 176.588 185.03 177.414 185.506 177.834C185.982 178.254 186.682 178.464 187.606 178.464C188.53 178.464 189.566 177.918 190.714 176.826C191.89 175.706 193.696 173.508 196.132 170.232L197.644 171.114C197.42 172.038 196.916 173.718 196.132 176.154C195.376 178.562 194.858 180.41 194.578 181.698L197.98 180.354ZM191.932 183.63C190.168 184.442 188.614 185.366 187.27 186.402C184.75 188.306 183.49 190.154 183.49 191.946C183.49 192.618 183.686 193.164 184.078 193.584C184.47 194.004 184.96 194.214 185.548 194.214C188.348 194.214 190.476 190.686 191.932 183.63ZM222.495 190.77V183H219.135V172.962H206.913V183H203.217V160.488H206.913V169.854H219.135V160.488H222.831V179.892H226.149V190.77H222.495ZM245.353 180.354L245.479 181.446C245.367 181.53 244.065 182.034 241.573 182.958C241.237 184.806 240.803 186.626 240.271 188.418C239.767 190.238 239.249 191.61 238.717 192.534C238.213 193.486 237.611 194.424 236.911 195.348C235.511 197.196 233.621 198.12 231.241 198.12C230.065 198.12 229.127 197.756 228.427 197.028C227.727 196.3 227.377 195.306 227.377 194.046C227.377 189.202 231.437 185.31 239.557 182.37L241.825 174.39C239.417 178.002 237.247 180.228 235.315 181.068C234.363 181.516 233.355 181.74 232.291 181.74C231.255 181.74 230.415 181.404 229.771 180.732C229.155 180.06 228.847 179.08 228.847 177.792C228.847 176.504 229.281 174.712 230.149 172.416C231.045 170.092 232.039 168.146 233.131 166.578L235.189 167.46C235.105 167.544 234.713 168.286 234.013 169.686C232.781 172.234 232.165 174.124 232.165 175.356C232.165 176.588 232.403 177.414 232.879 177.834C233.355 178.254 234.055 178.464 234.979 178.464C235.903 178.464 236.939 177.918 238.087 176.826C239.263 175.706 241.069 173.508 243.505 170.232L245.017 171.114C244.793 172.038 244.289 173.718 243.505 176.154C242.749 178.562 242.231 180.41 241.951 181.698L245.353 180.354ZM239.305 183.63C237.541 184.442 235.987 185.366 234.643 186.402C232.123 188.306 230.863 190.154 230.863 191.946C230.863 192.618 231.059 193.164 231.451 193.584C231.843 194.004 232.333 194.214 232.921 194.214C235.721 194.214 237.849 190.686 239.305 183.63ZM263.275 168.678C263.275 170.722 261.399 172.416 257.647 173.76C258.655 174.376 259.397 174.936 259.873 175.44C260.377 175.916 260.629 176.462 260.629 177.078C260.629 178.646 259.747 180.032 257.983 181.236C256.219 182.412 254.329 183 252.313 183C251.333 183 250.353 182.846 249.373 182.538C248.393 182.23 247.721 181.852 247.357 181.404L248.953 179.934C249.289 180.27 249.737 180.564 250.297 180.816C250.885 181.068 251.375 181.194 251.767 181.194C253.167 181.194 254.441 180.844 255.589 180.144C256.765 179.416 257.353 178.534 257.353 177.498C257.353 176.938 257.143 176.476 256.723 176.112C256.303 175.72 255.841 175.454 255.337 175.314C254.861 175.146 254.413 174.95 253.993 174.726C253.573 174.474 253.363 174.194 253.363 173.886C253.363 173.578 253.685 173.298 254.329 173.046C255.001 172.766 255.743 172.542 256.555 172.374C257.367 172.178 258.095 171.87 258.739 171.45C259.411 171.002 259.747 170.512 259.747 169.98C259.747 169.448 259.565 169.028 259.201 168.72C258.837 168.412 258.375 168.258 257.815 168.258C257.283 168.258 256.443 168.552 255.295 169.14C254.147 169.728 252.985 170.484 251.809 171.408L251.221 170.232C252.229 169.056 253.587 168.02 255.295 167.124C257.031 166.2 258.417 165.738 259.453 165.738C260.517 165.738 261.413 166.032 262.141 166.62C262.897 167.18 263.275 167.866 263.275 168.678ZM282.861 181.488L282.903 182.496C282.623 182.664 281.349 183.168 279.081 184.008C278.185 189.356 276.869 193.22 275.133 195.6C273.397 197.98 271.269 199.17 268.749 199.17C267.573 199.17 266.635 198.792 265.935 198.036C265.235 197.28 264.885 196.3 264.885 195.096C264.885 192.688 265.991 190.434 268.203 188.334C270.415 186.262 273.369 184.624 277.065 183.42C277.485 181.544 278.241 178.898 279.333 175.482C277.457 178.338 275.749 180.27 274.209 181.278C272.697 182.286 271.325 182.79 270.093 182.79C268.861 182.79 267.923 182.454 267.279 181.782C266.663 181.11 266.355 180.214 266.355 179.094C266.355 177.246 267.125 175.37 268.665 173.466C270.205 171.534 272.137 169.966 274.461 168.762C276.813 167.53 279.081 166.914 281.265 166.914L281.601 168.384C278.493 168.72 275.819 169.812 273.579 171.66C271.367 173.508 270.261 175.286 270.261 176.994C270.261 177.722 270.485 178.324 270.933 178.8C271.381 179.276 271.927 179.514 272.571 179.514C273.523 179.514 274.965 178.506 276.897 176.49C278.829 174.474 280.187 172.752 280.971 171.324L282.525 172.206C280.985 176.322 279.921 179.794 279.333 182.622L282.861 181.488ZM276.813 184.68C274.377 185.8 272.361 187.144 270.765 188.712C269.169 190.28 268.371 191.708 268.371 192.996C268.371 193.668 268.567 194.214 268.959 194.634C269.351 195.054 269.841 195.264 270.429 195.264C271.605 195.264 272.767 194.438 273.915 192.786C275.063 191.134 276.029 188.432 276.813 184.68ZM302.464 178.758L303.43 179.472C303.038 180.312 302.31 181.11 301.246 181.866C300.21 182.622 299.258 183 298.39 183C296.738 183 295.912 182.132 295.912 180.396C295.912 179.584 296.122 178.618 296.542 177.498L294.988 179.094C293.476 180.634 292.16 181.67 291.04 182.202C289.948 182.734 288.87 183 287.806 183C286.742 183 285.93 182.706 285.37 182.118C284.838 181.502 284.572 180.662 284.572 179.598C284.572 177.638 285.328 175.706 286.84 173.802C288.352 171.87 290.284 170.302 292.636 169.098C294.988 167.894 297.34 167.278 299.692 167.25L299.776 168.636L298.012 169.014C295.464 169.574 293.21 170.694 291.25 172.374C289.318 174.054 288.352 175.734 288.352 177.414C288.352 179.066 289.024 179.892 290.368 179.892C291.628 179.892 293.182 179.01 295.03 177.246C296.878 175.482 298.418 173.41 299.65 171.03L301.414 172.08C299.678 175.58 298.81 177.806 298.81 178.758C298.81 179.15 298.936 179.486 299.188 179.766C299.468 180.018 299.734 180.144 299.986 180.144C300.266 180.144 300.448 180.13 300.532 180.102C300.616 180.074 300.7 180.046 300.784 180.018C300.868 179.962 300.966 179.892 301.078 179.808C301.218 179.724 301.33 179.64 301.414 179.556C301.526 179.472 301.694 179.346 301.918 179.178C302.142 179.01 302.324 178.87 302.464 178.758ZM311.253 175.272C313.381 172.08 315.229 169.91 316.797 168.762C318.365 167.586 319.737 166.998 320.913 166.998C322.089 166.998 322.999 167.362 323.643 168.09C324.287 168.79 324.609 169.686 324.609 170.778C324.609 173.802 323.517 176.602 321.333 179.178C319.177 181.726 316.741 183 314.025 183C312.821 183 311.869 182.79 311.169 182.37L312.177 180.564C313.661 180.76 314.571 180.858 314.907 180.858C316.419 180.858 317.833 179.976 319.149 178.212C320.465 176.448 321.123 174.642 321.123 172.794C321.123 172.094 320.913 171.52 320.493 171.072C320.101 170.596 319.583 170.358 318.939 170.358C317.399 170.358 315.649 171.716 313.689 174.432C311.757 177.148 309.937 180.508 308.229 184.512C306.549 188.544 305.079 192.828 303.819 197.364L301.299 196.482C301.355 196.314 301.887 194.858 302.895 192.114C303.875 189.398 304.841 186.696 305.793 184.008C308.425 176.616 309.741 172.57 309.741 171.87C309.741 170.078 309.377 168.454 308.649 166.998L310.749 165.948C311.617 167.152 312.051 168.426 312.051 169.77C312.051 171.086 311.785 172.92 311.253 175.272ZM344.713 181.488L344.755 182.496C344.475 182.664 343.201 183.168 340.933 184.008C340.037 189.356 338.721 193.22 336.985 195.6C335.249 197.98 333.121 199.17 330.601 199.17C329.425 199.17 328.487 198.792 327.787 198.036C327.087 197.28 326.737 196.3 326.737 195.096C326.737 192.688 327.843 190.434 330.055 188.334C332.267 186.262 335.221 184.624 338.917 183.42C339.337 181.544 340.093 178.898 341.185 175.482C339.309 178.338 337.601 180.27 336.061 181.278C334.549 182.286 333.177 182.79 331.945 182.79C330.713 182.79 329.775 182.454 329.131 181.782C328.515 181.11 328.207 180.214 328.207 179.094C328.207 177.246 328.977 175.37 330.517 173.466C332.057 171.534 333.989 169.966 336.313 168.762C338.665 167.53 340.933 166.914 343.117 166.914L343.453 168.384C340.345 168.72 337.671 169.812 335.431 171.66C333.219 173.508 332.113 175.286 332.113 176.994C332.113 177.722 332.337 178.324 332.785 178.8C333.233 179.276 333.779 179.514 334.423 179.514C335.375 179.514 336.817 178.506 338.749 176.49C340.681 174.474 342.039 172.752 342.823 171.324L344.377 172.206C342.837 176.322 341.773 179.794 341.185 182.622L344.713 181.488ZM338.665 184.68C336.229 185.8 334.213 187.144 332.617 188.712C331.021 190.28 330.223 191.708 330.223 192.996C330.223 193.668 330.419 194.214 330.811 194.634C331.203 195.054 331.693 195.264 332.281 195.264C333.457 195.264 334.619 194.438 335.767 192.786C336.915 191.134 337.881 188.432 338.665 184.68ZM355.16 173.214C356.7 173.158 357.47 173.788 357.47 175.104C357.47 176.84 356.532 178.562 354.656 180.27C352.808 181.95 350.946 182.79 349.07 182.79C347.306 182.79 346.424 181.6 346.424 179.22C346.424 177.344 346.886 175.02 347.81 172.248C348.762 169.448 349.546 167.474 350.162 166.326L352.052 166.956C351.324 169.084 350.582 171.688 349.826 174.768L350.372 174.516C352.248 173.648 353.844 173.214 355.16 173.214ZM354.488 177.54C354.656 177.148 354.74 176.784 354.74 176.448C354.656 175.692 353.998 175.314 352.766 175.314C352.178 175.314 351.086 175.566 349.49 176.07C349.266 176.91 349.154 177.666 349.154 178.338C349.154 178.982 349.308 179.5 349.616 179.892C349.952 180.284 350.386 180.48 350.918 180.48C351.478 180.48 352.136 180.2 352.892 179.64C353.648 179.052 354.18 178.352 354.488 177.54ZM361.502 177.036L360.242 182.58L357.848 182.202C358.408 178.814 359.108 175.664 359.948 172.752C360.816 169.84 361.642 167.754 362.426 166.494L364.484 166.746C363.476 169.35 362.482 172.78 361.502 177.036ZM396.809 177.036L397.817 177.876C397.145 179.416 396.067 180.648 394.583 181.572C393.099 182.496 391.657 182.958 390.257 182.958C388.885 182.958 387.737 182.524 386.813 181.656C385.917 180.788 385.469 179.598 385.469 178.086C385.469 176.574 386.127 174.936 387.443 173.172C388.759 171.408 390.453 169.952 392.525 168.804C394.625 167.656 396.683 167.082 398.699 167.082C398.979 167.082 399.399 167.11 399.959 167.166L399.833 168.804C396.753 168.944 394.191 169.882 392.147 171.618C390.131 173.354 389.123 175.202 389.123 177.162C389.123 177.974 389.375 178.632 389.879 179.136C390.383 179.64 391.041 179.892 391.853 179.892C393.141 179.892 394.793 178.94 396.809 177.036ZM417.249 180.354L417.375 181.446C417.263 181.53 415.961 182.034 413.469 182.958C413.133 184.806 412.699 186.626 412.167 188.418C411.663 190.238 411.145 191.61 410.613 192.534C410.109 193.486 409.507 194.424 408.807 195.348C407.407 197.196 405.517 198.12 403.137 198.12C401.961 198.12 401.023 197.756 400.323 197.028C399.623 196.3 399.273 195.306 399.273 194.046C399.273 189.202 403.333 185.31 411.453 182.37L413.721 174.39C411.313 178.002 409.143 180.228 407.211 181.068C406.259 181.516 405.251 181.74 404.187 181.74C403.151 181.74 402.311 181.404 401.667 180.732C401.051 180.06 400.743 179.08 400.743 177.792C400.743 176.504 401.177 174.712 402.045 172.416C402.941 170.092 403.935 168.146 405.027 166.578L407.085 167.46C407.001 167.544 406.609 168.286 405.909 169.686C404.677 172.234 404.061 174.124 404.061 175.356C404.061 176.588 404.299 177.414 404.775 177.834C405.251 178.254 405.951 178.464 406.875 178.464C407.799 178.464 408.835 177.918 409.983 176.826C411.159 175.706 412.965 173.508 415.401 170.232L416.913 171.114C416.689 172.038 416.185 173.718 415.401 176.154C414.645 178.562 414.127 180.41 413.847 181.698L417.249 180.354ZM411.201 183.63C409.437 184.442 407.883 185.366 406.539 186.402C404.019 188.306 402.759 190.154 402.759 191.946C402.759 192.618 402.955 193.164 403.347 193.584C403.739 194.004 404.229 194.214 404.817 194.214C407.617 194.214 409.745 190.686 411.201 183.63ZM426.015 175.272C428.143 172.08 429.991 169.91 431.559 168.762C433.127 167.586 434.499 166.998 435.675 166.998C436.851 166.998 437.761 167.362 438.405 168.09C439.049 168.79 439.371 169.686 439.371 170.778C439.371 173.802 438.279 176.602 436.095 179.178C433.939 181.726 431.503 183 428.787 183C427.583 183 426.631 182.79 425.931 182.37L426.939 180.564C428.423 180.76 429.333 180.858 429.669 180.858C431.181 180.858 432.595 179.976 433.911 178.212C435.227 176.448 435.885 174.642 435.885 172.794C435.885 172.094 435.675 171.52 435.255 171.072C434.863 170.596 434.345 170.358 433.701 170.358C432.161 170.358 430.411 171.716 428.451 174.432C426.519 177.148 424.699 180.508 422.991 184.512C421.311 188.544 419.841 192.828 418.581 197.364L416.061 196.482C416.117 196.314 416.649 194.858 417.657 192.114C418.637 189.398 419.603 186.696 420.555 184.008C423.187 176.616 424.503 172.57 424.503 171.87C424.503 170.078 424.139 168.454 423.411 166.998L425.511 165.948C426.379 167.152 426.813 168.426 426.813 169.77C426.813 171.086 426.547 172.92 426.015 175.272ZM459.39 178.758L460.356 179.472C459.964 180.312 459.236 181.11 458.172 181.866C457.136 182.622 456.184 183 455.316 183C453.664 183 452.838 182.132 452.838 180.396C452.838 179.584 453.048 178.618 453.468 177.498L451.914 179.094C450.402 180.634 449.086 181.67 447.966 182.202C446.874 182.734 445.796 183 444.732 183C443.668 183 442.856 182.706 442.296 182.118C441.764 181.502 441.498 180.662 441.498 179.598C441.498 177.638 442.254 175.706 443.766 173.802C445.278 171.87 447.21 170.302 449.562 169.098C451.914 167.894 454.266 167.278 456.618 167.25L456.702 168.636L454.938 169.014C452.39 169.574 450.136 170.694 448.176 172.374C446.244 174.054 445.278 175.734 445.278 177.414C445.278 179.066 445.95 179.892 447.294 179.892C448.554 179.892 450.108 179.01 451.956 177.246C453.804 175.482 455.344 173.41 456.576 171.03L458.34 172.08C456.604 175.58 455.736 177.806 455.736 178.758C455.736 179.15 455.862 179.486 456.114 179.766C456.394 180.018 456.66 180.144 456.912 180.144C457.192 180.144 457.374 180.13 457.458 180.102C457.542 180.074 457.626 180.046 457.71 180.018C457.794 179.962 457.892 179.892 458.004 179.808C458.144 179.724 458.256 179.64 458.34 179.556C458.452 179.472 458.62 179.346 458.844 179.178C459.068 179.01 459.25 178.87 459.39 178.758ZM478.847 166.662L480.485 167.04C480.457 167.236 480.051 168.09 479.267 169.602C478.511 171.086 477.699 173.046 476.831 175.482C475.963 177.89 475.403 180.326 475.151 182.79L472.463 182.58C472.463 181.04 472.953 179.052 473.933 176.616C473.681 176.588 473.163 176.574 472.379 176.574C471.623 176.574 470.223 176.756 468.179 177.12C466.751 180.312 466.037 183.042 466.037 185.31L463.223 184.932C463.223 182.944 463.965 180.494 465.449 177.582C464.021 177.806 462.593 178.142 461.165 178.59L460.745 176.952C460.745 176.868 461.487 176.63 462.971 176.238C464.483 175.846 465.603 175.594 466.331 175.482C468.571 170.33 470.097 167.348 470.909 166.536L472.715 167.25C472.575 167.53 472.253 168.16 471.749 169.14C470.489 171.576 469.635 173.48 469.187 174.852C471.623 174.6 473.079 174.474 473.555 174.474C474.059 174.474 474.479 174.488 474.815 174.516C476.775 170.008 478.119 167.39 478.847 166.662ZM500.406 178.758L501.372 179.472C500.98 180.312 500.252 181.11 499.188 181.866C498.152 182.622 497.2 183 496.332 183C494.68 183 493.854 182.132 493.854 180.396C493.854 179.584 494.064 178.618 494.484 177.498L492.93 179.094C491.418 180.634 490.102 181.67 488.982 182.202C487.89 182.734 486.812 183 485.748 183C484.684 183 483.872 182.706 483.312 182.118C482.78 181.502 482.514 180.662 482.514 179.598C482.514 177.638 483.27 175.706 484.782 173.802C486.294 171.87 488.226 170.302 490.578 169.098C492.93 167.894 495.282 167.278 497.634 167.25L497.718 168.636L495.954 169.014C493.406 169.574 491.152 170.694 489.192 172.374C487.26 174.054 486.294 175.734 486.294 177.414C486.294 179.066 486.966 179.892 488.31 179.892C489.57 179.892 491.124 179.01 492.972 177.246C494.82 175.482 496.36 173.41 497.592 171.03L499.356 172.08C497.62 175.58 496.752 177.806 496.752 178.758C496.752 179.15 496.878 179.486 497.13 179.766C497.41 180.018 497.676 180.144 497.928 180.144C498.208 180.144 498.39 180.13 498.474 180.102C498.558 180.074 498.642 180.046 498.726 180.018C498.81 179.962 498.908 179.892 499.02 179.808C499.16 179.724 499.272 179.64 499.356 179.556C499.468 179.472 499.636 179.346 499.86 179.178C500.084 179.01 500.266 178.87 500.406 178.758ZM506.801 159.48C506.801 157.968 507.361 156.806 508.481 155.994C509.601 155.182 511.183 154.776 513.227 154.776C515.299 154.748 516.699 154.902 517.427 155.238L517.049 157.002C516.069 156.862 515.005 156.792 513.857 156.792C511.393 156.792 510.161 157.814 510.161 159.858C510.161 160.418 510.903 162.07 512.387 164.814C513.899 167.558 514.767 169.21 514.991 169.77C515.243 170.33 515.453 171.072 515.621 171.996C515.817 172.892 515.915 173.564 515.915 174.012C515.915 176.476 515.145 178.604 513.605 180.396C512.065 182.16 510.203 183.042 508.019 183.042C506.395 183.042 505.121 182.58 504.197 181.656C503.301 180.704 502.853 179.346 502.853 177.582C502.853 175.79 503.427 174.026 504.575 172.29C505.723 170.554 507.179 169.252 508.943 168.384L509.489 170.022C507.333 171.366 506.255 173.27 506.255 175.734C506.255 176.938 506.549 177.918 507.137 178.674C507.725 179.402 508.537 179.766 509.573 179.766C510.609 179.766 511.505 179.304 512.261 178.38C513.045 177.456 513.437 176.294 513.437 174.894C513.437 173.494 513.241 172.374 512.849 171.534C512.485 170.694 511.785 169.392 510.749 167.628C508.117 163.008 506.801 160.292 506.801 159.48ZM527.385 173.214C528.925 173.158 529.695 173.788 529.695 175.104C529.695 176.84 528.757 178.562 526.881 180.27C525.033 181.95 523.171 182.79 521.295 182.79C519.531 182.79 518.649 181.6 518.649 179.22C518.649 177.344 519.111 175.02 520.035 172.248C520.987 169.448 521.771 167.474 522.387 166.326L524.277 166.956C523.549 169.084 522.807 171.688 522.051 174.768L522.597 174.516C524.473 173.648 526.069 173.214 527.385 173.214ZM526.713 177.54C526.881 177.148 526.965 176.784 526.965 176.448C526.881 175.692 526.223 175.314 524.991 175.314C524.403 175.314 523.311 175.566 521.715 176.07C521.491 176.91 521.379 177.666 521.379 178.338C521.379 178.982 521.533 179.5 521.841 179.892C522.177 180.284 522.611 180.48 523.143 180.48C523.703 180.48 524.361 180.2 525.117 179.64C525.873 179.052 526.405 178.352 526.713 177.54ZM533.727 177.036L532.467 182.58L530.073 182.202C530.633 178.814 531.333 175.664 532.173 172.752C533.041 169.84 533.867 167.754 534.651 166.494L536.709 166.746C535.701 169.35 534.707 172.78 533.727 177.036ZM552.886 168.678C552.886 170.722 551.01 172.416 547.258 173.76C548.266 174.376 549.008 174.936 549.484 175.44C549.988 175.916 550.24 176.462 550.24 177.078C550.24 178.646 549.358 180.032 547.594 181.236C545.83 182.412 543.94 183 541.924 183C540.944 183 539.964 182.846 538.984 182.538C538.004 182.23 537.332 181.852 536.968 181.404L538.564 179.934C538.9 180.27 539.348 180.564 539.908 180.816C540.496 181.068 540.986 181.194 541.378 181.194C542.778 181.194 544.052 180.844 545.2 180.144C546.376 179.416 546.964 178.534 546.964 177.498C546.964 176.938 546.754 176.476 546.334 176.112C545.914 175.72 545.452 175.454 544.948 175.314C544.472 175.146 544.024 174.95 543.604 174.726C543.184 174.474 542.974 174.194 542.974 173.886C542.974 173.578 543.296 173.298 543.94 173.046C544.612 172.766 545.354 172.542 546.166 172.374C546.978 172.178 547.706 171.87 548.35 171.45C549.022 171.002 549.358 170.512 549.358 169.98C549.358 169.448 549.176 169.028 548.812 168.72C548.448 168.412 547.986 168.258 547.426 168.258C546.894 168.258 546.054 168.552 544.906 169.14C543.758 169.728 542.596 170.484 541.42 171.408L540.832 170.232C541.84 169.056 543.198 168.02 544.906 167.124C546.642 166.2 548.028 165.738 549.064 165.738C550.128 165.738 551.024 166.032 551.752 166.62C552.508 167.18 552.886 167.866 552.886 168.678ZM553.992 182.748C553.656 182.412 553.488 182.006 553.488 181.53C553.488 181.054 553.656 180.648 553.992 180.312C554.328 179.976 554.734 179.808 555.21 179.808C555.686 179.808 556.092 179.976 556.428 180.312C556.764 180.648 556.932 181.054 556.932 181.53C556.932 182.006 556.764 182.412 556.428 182.748C556.092 183.084 555.686 183.252 555.21 183.252C554.734 183.252 554.328 183.084 553.992 182.748Z" fill="#262626"/>
</svg>
