<svg width="271" height="41" viewBox="0 0 271 41" fill="none" xmlns="http://www.w3.org/2000/svg">
<path d="M34.8167 1.4L37.3997 2.671C35.6504 5.51367 33.573 8.042 31.1677 10.256C28.7897 12.47 25.619 14.6703 21.6557 16.857C22.421 20.8203 23.364 23.991 24.4847 26.369C25.6054 28.7743 27.0677 30.1137 28.8717 30.387V32.273C28.653 32.3003 28.366 32.314 28.0107 32.314C26.1794 32.314 24.4027 31.043 22.6807 28.501C20.986 25.959 19.4554 22.2007 18.0887 17.226C16.9134 20.916 15.123 23.8407 12.7177 26C10.3124 28.132 7.81136 29.198 5.21469 29.198C3.87536 29.198 2.76836 28.829 1.89369 28.091C1.04635 27.3803 0.622688 26.3963 0.622688 25.139C0.622688 23.8543 1.19669 22.5287 2.34469 21.162C3.49269 19.7953 5.06436 18.6473 7.05969 17.718L8.00269 19.194C5.54269 20.9433 4.31269 22.5833 4.31269 24.114C4.31269 24.852 4.55869 25.4533 5.05069 25.918C5.54269 26.3553 6.18502 26.574 6.97769 26.574C8.83636 26.574 10.4354 25.795 11.7747 24.237C13.1414 22.6517 14.3577 19.891 15.4237 15.955C16.763 11.0077 18.1297 7.76867 19.5237 6.238C20.1524 5.52733 21.068 4.74833 22.2707 3.901C20.3847 3.95567 18.4577 4.28367 16.4897 4.885C14.5217 5.459 12.7997 6.33367 11.3237 7.509C9.84769 8.657 9.10969 9.94167 9.10969 11.363C9.10969 13.1943 9.94336 14.6567 11.6107 15.75L10.7907 17.021C9.26002 16.283 8.05736 15.3263 7.18269 14.151C6.30802 12.9757 5.87069 11.7593 5.87069 10.502C5.87069 8.78 6.81369 7.15367 8.69969 5.623C10.5857 4.09233 12.8954 2.90333 15.6287 2.056C18.3894 1.20867 21.0954 0.785 23.7467 0.785C25.3867 0.785 26.2067 1.14033 26.2067 1.851C26.2067 2.31567 25.7284 2.90333 24.7717 3.614C23.0224 4.926 21.6694 6.63433 20.7127 8.739C19.7834 10.8437 19.018 13.3037 18.4167 16.119C21.5327 14.971 24.512 13.0713 27.3547 10.42C30.2247 7.74133 32.712 4.73467 34.8167 1.4ZM45.6394 13.823C46.3501 14.9983 46.7054 16.2967 46.7054 17.718C46.7054 19.932 45.9401 21.9137 44.4094 23.663C42.8787 25.385 41.0747 26.246 38.9974 26.246C37.4121 26.246 36.1684 25.795 35.2664 24.893C34.3917 23.9637 33.9544 22.6927 33.9544 21.08C33.9544 18.4833 34.9657 16.16 36.9884 14.11C39.0111 12.0327 41.2797 10.994 43.7944 10.994C44.2591 10.994 44.5871 11.0077 44.7784 11.035L44.9014 12.388C42.7147 12.388 40.8971 13.0167 39.4484 14.274C37.9997 15.5313 37.2754 17.144 37.2754 19.112C37.2754 20.2873 37.5624 21.244 38.1364 21.982C38.7104 22.6927 39.5441 23.048 40.6374 23.048C41.7581 23.048 42.6464 22.556 43.3024 21.572C43.9584 20.588 44.2864 19.44 44.2864 18.128C44.2864 16.7887 44.0267 15.5723 43.5074 14.479L45.6394 13.823ZM64.8514 10.051L66.4504 10.42C66.4231 10.6113 66.0268 11.445 65.2614 12.921C64.5234 14.3697 63.7308 16.283 62.8834 18.661C62.0361 21.0117 61.4894 23.3897 61.2434 25.795L58.6194 25.59C58.6194 24.0867 59.0978 22.146 60.0544 19.768C59.8084 19.7407 59.3028 19.727 58.5374 19.727C57.7994 19.727 56.4328 19.9047 54.4374 20.26C53.0434 23.376 52.3464 26.041 52.3464 28.255L49.5994 27.886C49.5994 25.9453 50.3238 23.5537 51.7724 20.711C50.3784 20.9297 48.9844 21.2577 47.5904 21.695L47.1804 20.096C47.1804 20.014 47.9048 19.7817 49.3534 19.399C50.8294 19.0163 51.9228 18.7703 52.6334 18.661C54.8201 13.6317 56.3098 10.7207 57.1024 9.928L58.8654 10.625C58.7288 10.8983 58.4144 11.5133 57.9224 12.47C56.6924 14.848 55.8588 16.7067 55.4214 18.046C57.7994 17.8 59.2208 17.677 59.6854 17.677C60.1774 17.677 60.5874 17.6907 60.9154 17.718C62.8288 13.3173 64.1408 10.7617 64.8514 10.051ZM79.9929 13.823C80.7036 14.9983 81.0589 16.2967 81.0589 17.718C81.0589 19.932 80.2936 21.9137 78.7629 23.663C77.2323 25.385 75.4283 26.246 73.3509 26.246C71.7656 26.246 70.5219 25.795 69.6199 24.893C68.7453 23.9637 68.3079 22.6927 68.3079 21.08C68.3079 18.4833 69.3193 16.16 71.3419 14.11C73.3646 12.0327 75.6333 10.994 78.1479 10.994C78.6126 10.994 78.9406 11.0077 79.1319 11.035L79.2549 12.388C77.0683 12.388 75.2506 13.0167 73.8019 14.274C72.3533 15.5313 71.6289 17.144 71.6289 19.112C71.6289 20.2873 71.9159 21.244 72.4899 21.982C73.0639 22.6927 73.8976 23.048 74.9909 23.048C76.1116 23.048 76.9999 22.556 77.6559 21.572C78.3119 20.588 78.6399 19.44 78.6399 18.128C78.6399 16.7887 78.3803 15.5723 77.8609 14.479L79.9929 13.823ZM97.4419 21.449L98.4669 22.351C96.8816 24.9477 95.2006 26.246 93.4239 26.246C92.4126 26.246 91.3739 25.59 90.3079 24.278C89.2693 22.966 88.6406 21.695 88.4219 20.465C88.2579 20.7657 87.7933 21.5583 87.0279 22.843C86.2626 24.1277 85.7159 25.18 85.3879 26L82.9279 25.139C83.5019 21.777 84.1989 18.6063 85.0189 15.627C85.8663 12.6477 86.6589 10.5567 87.3969 9.354L89.0779 9.887C88.5859 11.1443 87.7659 14.4927 86.6179 19.932C88.1213 16.8433 89.6383 14.5883 91.1689 13.167C92.6996 11.7183 94.3806 10.7617 96.2119 10.297V13.003C94.2439 13.085 92.3443 14.4107 90.5129 16.98C90.6223 18.7567 91.1416 20.2327 92.0709 21.408C93.0276 22.5833 93.9296 23.171 94.7769 23.171C95.1869 23.171 96.0753 22.597 97.4419 21.449ZM129.057 20.67L129.918 21.49C128.36 24.278 126.57 25.672 124.547 25.672C123.727 25.672 123.085 25.4533 122.62 25.016C122.183 24.5513 121.964 23.95 121.964 23.212C121.964 22.4467 122.415 21.1483 123.317 19.317C124.219 17.4857 124.697 16.0917 124.752 15.135C124.779 14.6977 124.643 14.3423 124.342 14.069C124.069 13.7957 123.686 13.659 123.194 13.659C122.702 13.659 122.196 13.782 121.677 14.028C121.185 14.2467 120.693 14.6157 120.201 15.135C119.736 15.6543 119.299 16.16 118.889 16.652C118.506 17.144 118.069 17.841 117.577 18.743C117.112 19.645 116.716 20.3967 116.388 20.998C115.814 22.1187 114.994 23.7997 113.928 26.041L111.468 25.18C111.468 25.098 111.919 23.5537 112.821 20.547C113.723 17.5403 114.174 15.75 114.174 15.176C114.174 14.602 114.037 14.192 113.764 13.946C113.491 13.6727 113.149 13.536 112.739 13.536C111.509 13.536 109.801 15.0667 107.614 18.128C105.455 21.1893 104.074 23.7997 103.473 25.959L101.136 25.18C101.273 23.7313 101.915 21.1347 103.063 17.39C104.211 13.618 105.181 11.0487 105.974 9.682L107.819 10.338C106.972 12.224 106.384 13.823 106.056 15.135C105.728 16.4197 105.441 17.8 105.195 19.276C107.546 15.914 109.514 13.5633 111.099 12.224C112.684 10.8573 114.119 10.174 115.404 10.174C116.798 10.174 117.495 10.871 117.495 12.265C117.495 12.8117 117.249 13.8913 116.757 15.504C116.292 17.1167 115.923 18.3877 115.65 19.317C119.422 13.249 122.798 10.215 125.777 10.215C126.515 10.215 127.103 10.4473 127.54 10.912C127.977 11.3493 128.196 12.019 128.196 12.921C128.196 13.7957 127.677 15.258 126.638 17.308C125.627 19.358 125.121 20.6563 125.121 21.203C125.121 21.7223 125.23 22.105 125.449 22.351C125.668 22.597 125.941 22.72 126.269 22.72C126.98 22.72 127.909 22.0367 129.057 20.67ZM143.415 13.823C144.125 14.9983 144.481 16.2967 144.481 17.718C144.481 19.932 143.715 21.9137 142.185 23.663C140.654 25.385 138.85 26.246 136.773 26.246C135.187 26.246 133.944 25.795 133.042 24.893C132.167 23.9637 131.73 22.6927 131.73 21.08C131.73 18.4833 132.741 16.16 134.764 14.11C136.786 12.0327 139.055 10.994 141.57 10.994C142.034 10.994 142.362 11.0077 142.554 11.035L142.677 12.388C140.49 12.388 138.672 13.0167 137.224 14.274C135.775 15.5313 135.051 17.144 135.051 19.112C135.051 20.2873 135.338 21.244 135.912 21.982C136.486 22.6927 137.319 23.048 138.413 23.048C139.533 23.048 140.422 22.556 141.078 21.572C141.734 20.588 142.062 19.44 142.062 18.128C142.062 16.7887 141.802 15.5723 141.283 14.479L143.415 13.823ZM152.213 18.456C154.29 15.34 156.094 13.2217 157.625 12.101C159.155 10.953 160.495 10.379 161.643 10.379C162.791 10.379 163.679 10.7343 164.308 11.445C164.936 12.1283 165.251 13.003 165.251 14.069C165.251 17.021 164.185 19.7543 162.053 22.269C159.948 24.7563 157.57 26 154.919 26C153.743 26 152.814 25.795 152.131 25.385L153.115 23.622C154.563 23.8133 155.452 23.909 155.78 23.909C157.256 23.909 158.636 23.048 159.921 21.326C161.205 19.604 161.848 17.841 161.848 16.037C161.848 15.3537 161.643 14.7933 161.233 14.356C160.85 13.8913 160.344 13.659 159.716 13.659C158.212 13.659 156.504 14.9847 154.591 17.636C152.705 20.2873 150.928 23.5673 149.261 27.476C147.621 31.412 146.186 35.594 144.956 40.022L142.496 39.161C142.55 38.997 143.07 37.5757 144.054 34.897C145.01 32.2457 145.953 29.608 146.883 26.984C149.452 19.768 150.737 15.8183 150.737 15.135C150.737 13.3857 150.381 11.8003 149.671 10.379L151.721 9.354C152.568 10.5293 152.992 11.773 152.992 13.085C152.992 14.3697 152.732 16.16 152.213 18.456ZM199.901 21.285L201.049 22.146C200.775 22.72 200.188 23.376 199.286 24.114C198.411 24.852 197.386 25.221 196.211 25.221C194.625 25.221 193.833 24.4147 193.833 22.802C193.833 21.8727 194.024 20.8477 194.407 19.727C194.817 18.579 195.213 17.5403 195.596 16.611C195.978 15.6543 196.211 15.053 196.293 14.807C195.637 15.7363 194.571 16.7067 193.095 17.718C191.646 18.702 190.32 19.194 189.118 19.194C187.341 19.194 186.453 18.1827 186.453 16.16C186.453 14.848 186.808 13.3993 187.519 11.814C188.257 10.2287 189.022 9.12167 189.815 8.493L191.619 9.149C190.334 11.527 189.692 13.29 189.692 14.438C189.692 15.586 190.225 16.16 191.291 16.16C192.521 16.16 193.928 15.4767 195.514 14.11C197.099 12.7433 198.22 11.035 198.876 8.985L201.008 10.174C198.056 15.3947 196.58 19.0163 196.58 21.039C196.58 21.9683 196.935 22.433 197.646 22.433C198.384 22.433 199.135 22.0503 199.901 21.285ZM219.788 21.859L220.731 22.556C220.348 23.376 219.637 24.155 218.599 24.893C217.587 25.631 216.658 26 215.811 26C214.198 26 213.392 25.1527 213.392 23.458C213.392 22.6653 213.597 21.7223 214.007 20.629L212.49 22.187C211.014 23.6903 209.729 24.7017 208.636 25.221C207.57 25.7403 206.517 26 205.479 26C204.44 26 203.647 25.713 203.101 25.139C202.581 24.5377 202.322 23.7177 202.322 22.679C202.322 20.7657 203.06 18.8797 204.536 17.021C206.012 15.135 207.898 13.6043 210.194 12.429C212.49 11.2537 214.786 10.6523 217.082 10.625L217.164 11.978L215.442 12.347C212.954 12.8937 210.754 13.987 208.841 15.627C206.955 17.267 206.012 18.907 206.012 20.547C206.012 22.1597 206.668 22.966 207.98 22.966C209.21 22.966 210.727 22.105 212.531 20.383C214.335 18.661 215.838 16.6383 217.041 14.315L218.763 15.34C217.068 18.7567 216.221 20.9297 216.221 21.859C216.221 22.2417 216.344 22.5697 216.59 22.843C216.863 23.089 217.123 23.212 217.369 23.212C217.642 23.212 217.82 23.1983 217.902 23.171C217.984 23.1437 218.066 23.1163 218.148 23.089C218.23 23.0343 218.325 22.966 218.435 22.884C218.571 22.802 218.681 22.72 218.763 22.638C218.872 22.556 219.036 22.433 219.255 22.269C219.473 22.105 219.651 21.9683 219.788 21.859ZM250.015 20.67L250.876 21.49C249.318 24.278 247.528 25.672 245.505 25.672C244.685 25.672 244.043 25.4533 243.578 25.016C243.141 24.5513 242.922 23.95 242.922 23.212C242.922 22.4467 243.373 21.1483 244.275 19.317C245.177 17.4857 245.655 16.0917 245.71 15.135C245.737 14.6977 245.601 14.3423 245.3 14.069C245.027 13.7957 244.644 13.659 244.152 13.659C243.66 13.659 243.154 13.782 242.635 14.028C242.143 14.2467 241.651 14.6157 241.159 15.135C240.694 15.6543 240.257 16.16 239.847 16.652C239.464 17.144 239.027 17.841 238.535 18.743C238.07 19.645 237.674 20.3967 237.346 20.998C236.772 22.1187 235.952 23.7997 234.886 26.041L232.426 25.18C232.426 25.098 232.877 23.5537 233.779 20.547C234.681 17.5403 235.132 15.75 235.132 15.176C235.132 14.602 234.995 14.192 234.722 13.946C234.449 13.6727 234.107 13.536 233.697 13.536C232.467 13.536 230.759 15.0667 228.572 18.128C226.413 21.1893 225.032 23.7997 224.431 25.959L222.094 25.18C222.231 23.7313 222.873 21.1347 224.021 17.39C225.169 13.618 226.139 11.0487 226.932 9.682L228.777 10.338C227.93 12.224 227.342 13.823 227.014 15.135C226.686 16.4197 226.399 17.8 226.153 19.276C228.504 15.914 230.472 13.5633 232.057 12.224C233.642 10.8573 235.077 10.174 236.362 10.174C237.756 10.174 238.453 10.871 238.453 12.265C238.453 12.8117 238.207 13.8913 237.715 15.504C237.25 17.1167 236.881 18.3877 236.608 19.317C240.38 13.249 243.756 10.215 246.735 10.215C247.473 10.215 248.061 10.4473 248.498 10.912C248.935 11.3493 249.154 12.019 249.154 12.921C249.154 13.7957 248.635 15.258 247.596 17.308C246.585 19.358 246.079 20.6563 246.079 21.203C246.079 21.7223 246.188 22.105 246.407 22.351C246.626 22.597 246.899 22.72 247.227 22.72C247.938 22.72 248.867 22.0367 250.015 20.67ZM261.339 16.447C262.842 16.3923 263.594 17.0073 263.594 18.292C263.594 19.9867 262.678 21.6677 260.847 23.335C259.043 24.975 257.225 25.795 255.394 25.795C253.672 25.795 252.811 24.6333 252.811 22.31C252.811 20.4787 253.262 18.21 254.164 15.504C255.093 12.7707 255.858 10.8437 256.46 9.723L258.305 10.338C257.594 12.4153 256.87 14.9573 256.132 17.964L256.665 17.718C258.496 16.8707 260.054 16.447 261.339 16.447ZM260.683 20.67C260.847 20.2873 260.929 19.932 260.929 19.604C260.847 18.866 260.204 18.497 259.002 18.497C258.428 18.497 257.362 18.743 255.804 19.235C255.585 20.055 255.476 20.793 255.476 21.449C255.476 22.0777 255.626 22.5833 255.927 22.966C256.255 23.3487 256.678 23.54 257.198 23.54C257.744 23.54 258.387 23.2667 259.125 22.72C259.863 22.146 260.382 21.4627 260.683 20.67ZM267.53 20.178L266.3 25.59L263.963 25.221C264.509 21.9137 265.193 18.8387 266.013 15.996C266.86 13.1533 267.666 11.117 268.432 9.887L270.441 10.133C269.457 12.675 268.486 16.0233 267.53 20.178Z" fill="#929783"/>
</svg>
