<svg width="268" height="158" viewBox="0 0 268 158" fill="none" xmlns="http://www.w3.org/2000/svg">
<path d="M9.9376 3.49599L11.4416 3.23999V14.76L9.9376 15V3.91199L8.3536 5.23999L8.1936 5.04799L9.9376 3.59199V3.49599Z" fill="#262626"/>
<path d="M11.7365 42.832C13.9765 43.152 15.6245 44.32 15.6245 46.384C15.6245 48.8 13.3365 50 10.4885 50C7.64053 50 5.36853 48.8 5.36853 46.384C5.36853 44.368 6.93653 43.2 9.09653 42.864C7.83253 42.56 6.85653 41.824 6.85653 40.624C6.85653 39.04 8.55253 38.24 10.3605 38.24C12.1685 38.24 13.8645 39.04 13.8645 40.624C13.8645 41.792 12.9525 42.528 11.7365 42.832ZM8.12053 40.624C8.12053 42.208 9.64053 42.752 10.7285 42.752C12.1685 42.752 12.6165 41.68 12.6165 40.624C12.6165 39.04 11.0965 38.496 10.0085 38.496C8.55253 38.496 8.12053 39.568 8.12053 40.624ZM11.0645 49.76C13.3365 49.76 14.1205 47.984 14.1205 46.384C14.1205 43.952 11.6245 42.992 9.92853 42.992C7.64053 42.992 6.85653 44.768 6.85653 46.384C6.85653 48.8 9.35253 49.76 11.0645 49.76Z" fill="#262626"/>
<path d="M4.82823 73.496L6.33223 73.24V84.76L4.82823 85V73.912L3.24423 75.24L3.08423 75.048L4.82823 73.592V73.496ZM12.2469 77.496C15.0149 77.496 17.7669 78.632 17.7669 81.256C17.7669 83.864 15.1109 85 12.2469 85C9.23886 85 8.00686 83.704 8.00686 83.704L8.32686 83.048C9.36686 84.104 10.7749 84.712 12.2469 84.76C14.7909 84.76 16.0069 82.888 16.0069 81.256C16.0069 79.096 14.5029 77.752 12.2469 77.752C11.2389 77.72 10.2469 77.8 9.25486 77.992H8.99886L9.75086 73.496H14.7589L16.2629 73.24V74.744L14.7589 75V73.752H9.95886L9.28686 77.736C10.2629 77.56 11.2549 77.48 12.2469 77.496Z" fill="#262626"/>
<path d="M7.80534 119.504V118.512L9.30934 118.256V119.76L7.80534 120V119.76H1.05334V119.504C1.05334 119.504 7.80534 117.36 7.80534 111.744C7.80534 109.248 6.42934 108.496 4.54134 108.496C2.36534 108.496 1.54934 110.496 1.54934 110.496L1.21334 109.84C1.21334 109.84 2.04534 108.24 4.79734 108.24C7.32534 108.24 9.30934 109.248 9.30934 111.744C9.30934 116.512 2.04534 119.504 2.04534 119.504H7.80534ZM18.196 119.504V118.512L19.7 118.256V119.76L18.196 120V119.76H11.444V119.504C11.444 119.504 18.196 117.36 18.196 111.744C18.196 109.248 16.82 108.496 14.932 108.496C12.756 108.496 11.94 110.496 11.94 110.496L11.604 109.84C11.604 109.84 12.436 108.24 15.188 108.24C17.716 108.24 19.7 109.248 19.7 111.744C19.7 116.512 12.436 119.504 12.436 119.504H18.196Z" fill="#262626"/>
<path d="M54.0007 14.504V13.512L55.5047 13.256V14.76L54.0007 15V14.76H47.2487V14.504C47.2487 14.504 54.0007 12.36 54.0007 6.74399C54.0007 4.24799 52.6247 3.49599 50.7367 3.49599C48.5607 3.49599 47.7447 5.49599 47.7447 5.49599L47.4087 4.83999C47.4087 4.83999 48.2407 3.23999 50.9927 3.23999C53.5207 3.23999 55.5047 4.24799 55.5047 6.74399C55.5047 11.512 48.2407 14.504 48.2407 14.504H54.0007Z" fill="#262626"/>
<path d="M51.3464 38.24C54.3544 38.24 56.6104 39.744 56.6104 44C56.6104 48.512 53.6024 50 50.8504 50C47.6024 50 46.8504 48.752 46.8504 48.752L47.3464 48C47.3464 48 47.3464 49.76 50.8504 49.76C53.7144 49.76 54.9784 48.624 55.0904 44.608C54.1944 45.072 52.8504 45.76 51.3464 45.76C48.4344 45.76 46.3544 44.496 46.3544 42C46.3544 39.488 48.4344 38.24 51.3464 38.24ZM51.6024 45.504C52.9144 45.536 54.1944 45.024 55.1064 44.064C55.1064 44.048 55.1064 44.032 55.1064 44C55.1064 39.248 52.8504 38.496 50.8504 38.496C48.5144 38.496 47.8424 40.336 47.8424 42C47.8424 44.496 49.8424 45.504 51.6024 45.504Z" fill="#262626"/>
<path d="M44.8048 73.496L46.3088 73.24V84.76L44.8048 85V73.912L43.2208 75.24L43.0608 75.048L44.8048 73.592V73.496ZM53.7199 77.496C56.6319 77.496 58.7279 78.744 58.7279 81.256C58.7279 83.752 56.6479 85 53.7199 85C50.7119 85 48.4719 83.512 48.4719 79.256C48.4719 74.744 51.4639 73.24 54.2159 73.24C57.4799 73.24 58.2319 74.488 58.2319 74.488L57.7199 75.24C57.7199 75.24 57.7199 73.496 54.2159 73.496C51.3519 73.496 50.0879 74.632 49.9759 78.632C50.8879 78.168 52.2159 77.496 53.7199 77.496ZM54.2159 84.76C56.5519 84.76 57.2239 82.92 57.2239 81.256C57.2239 78.744 55.2239 77.752 53.4639 77.752C52.1519 77.72 50.8879 78.232 49.9599 79.176C49.9599 79.208 49.9599 79.224 49.9599 79.256C49.9599 84.008 52.2159 84.76 54.2159 84.76Z" fill="#262626"/>
<path d="M47.9227 119.504V118.512L49.4267 118.256V119.76L47.9227 120V119.76H41.1707V119.504C41.1707 119.504 47.9227 117.36 47.9227 111.744C47.9227 109.248 46.5467 108.496 44.6587 108.496C42.4827 108.496 41.6667 110.496 41.6667 110.496L41.3307 109.84C41.3307 109.84 42.1627 108.24 44.9147 108.24C47.4427 108.24 49.4267 109.248 49.4267 111.744C49.4267 116.512 42.1627 119.504 42.1627 119.504H47.9227ZM55.6875 112.496C58.4395 112.496 60.6955 113.632 60.6955 116.256C60.6955 118.864 58.0395 120 55.1755 120C52.1675 120 50.9355 118.704 50.9355 118.704L51.2555 118.048C52.2955 119.104 53.7035 119.712 55.1755 119.76C57.7195 119.76 58.9355 117.888 58.9355 116.256C58.9355 114.096 57.9275 112.752 55.6875 112.752C54.6795 112.72 53.6715 112.8 52.6795 112.992V112.752L58.6795 108.752H53.9275V109.744L52.4235 110V108.496L53.9275 108.24V108.496H59.1915V108.752H59.1275L53.2875 112.64C54.0875 112.544 54.8875 112.496 55.6875 112.496Z" fill="#262626"/>
<path d="M91.789 7.49599C94.541 7.49599 96.797 8.63199 96.797 11.256C96.797 13.864 94.141 15 91.277 15C88.269 15 87.037 13.704 87.037 13.704L87.357 13.048C88.397 14.104 89.805 14.712 91.277 14.76C93.821 14.76 95.037 12.888 95.037 11.256C95.037 9.09599 94.029 7.75199 91.789 7.75199C90.781 7.71999 89.773 7.79999 88.781 7.99199V7.75199L94.781 3.75199H90.029V4.74399L88.525 4.99999V3.49599L90.029 3.23999V3.49599H95.293V3.75199H95.229L89.389 7.63999C90.189 7.54399 90.989 7.49599 91.789 7.49599Z" fill="#262626"/>
<path d="M85.6798 38.496L87.1838 38.24V49.76L85.6798 50V38.912L84.0958 40.24L83.9358 40.048L85.6798 38.592V38.496ZM94.5949 38.24C97.8429 38.24 99.8429 40 99.8429 44C99.8429 48 97.6029 50 94.5949 50C91.3469 50 89.3469 48 89.3469 44C89.3469 40 91.5869 38.24 94.5949 38.24ZM95.0909 49.76C97.8429 49.76 98.3549 46.752 98.3549 44C98.3549 40 96.3389 38.496 94.0989 38.496C91.5869 38.496 90.8349 41.248 90.8349 44C90.8349 48 92.8349 49.76 95.0909 49.76Z" fill="#262626"/>
<path d="M86.6954 73.496L88.1994 73.24V84.76L86.6954 85V73.912L85.1114 75.24L84.9514 75.048L86.6954 73.592V73.496ZM99.1671 73.496L95.4551 81.256H96.1751V81.496H95.3431L93.6631 85L92.1591 84.76L93.7591 81.496H91.6631V81.256H93.8711L97.5511 73.752H91.4071V74.744L89.9191 75V73.496L91.4071 73.24V73.496H99.1671Z" fill="#262626"/>
<path d="M90.1569 119.504V118.512L91.6609 118.256V119.76L90.1569 120V119.76H83.4049V119.504C83.4049 119.504 90.1569 117.36 90.1569 111.744C90.1569 109.248 88.7809 108.496 86.8929 108.496C84.7169 108.496 83.9009 110.496 83.9009 110.496L83.5649 109.84C83.5649 109.84 84.3969 108.24 87.1489 108.24C89.6769 108.24 91.6609 109.248 91.6609 111.744C91.6609 116.512 84.3969 119.504 84.3969 119.504H90.1569ZM101.398 116.256V116.496H100.902V119.76L99.3983 120V116.496H92.9023V116.256C95.6543 114.752 97.6543 110 98.1503 105.984L99.3983 106.736C98.4543 110.304 96.5983 114.544 93.3983 116.256H99.3983V111.248L100.902 110.992V116.256H101.398Z" fill="#262626"/>
<path d="M137.594 11.2559V11.4959H137.098V14.7599L135.594 14.9999V11.4959H129.098V11.2559C131.85 9.75189 133.85 4.99989 134.346 0.983887L135.594 1.73589C134.65 5.30389 132.794 9.54389 129.594 11.2559H135.594V6.24789L137.098 5.99189V11.2559H137.594Z" fill="#262626"/>
<path d="M130.703 38.496L132.207 38.24V49.76L130.703 50V38.912L129.119 40.24L128.959 40.048L130.703 38.592V38.496ZM136.172 38.496L137.676 38.24V49.76L136.172 50V38.912L134.588 40.24L134.428 40.048L136.172 38.592V38.496Z" fill="#262626"/>
<path d="M126.938 73.496L128.442 73.24V84.76L126.938 85V73.912L125.354 75.24L125.194 75.048L126.938 73.592V73.496ZM136.783 77.832C139.023 78.152 140.671 79.32 140.671 81.384C140.671 83.8 138.383 85 135.535 85C132.687 85 130.415 83.8 130.415 81.384C130.415 79.368 131.983 78.2 134.143 77.864C132.879 77.56 131.903 76.824 131.903 75.624C131.903 74.04 133.599 73.24 135.407 73.24C137.215 73.24 138.911 74.04 138.911 75.624C138.911 76.792 137.999 77.528 136.783 77.832ZM133.167 75.624C133.167 77.208 134.687 77.752 135.775 77.752C137.215 77.752 137.663 76.68 137.663 75.624C137.663 74.04 136.143 73.496 135.055 73.496C133.599 73.496 133.167 74.568 133.167 75.624ZM136.111 84.76C138.383 84.76 139.167 82.984 139.167 81.384C139.167 78.952 136.671 77.992 134.975 77.992C132.687 77.992 131.903 79.768 131.903 81.384C131.903 83.8 134.399 84.76 136.111 84.76Z" fill="#262626"/>
<path d="M129.915 119.504V118.512L131.419 118.256V119.76L129.915 120V119.76H123.163V119.504C123.163 119.504 129.915 117.36 129.915 111.744C129.915 109.248 128.539 108.496 126.651 108.496C124.475 108.496 123.659 110.496 123.659 110.496L123.323 109.84C123.323 109.84 124.155 108.24 126.907 108.24C129.435 108.24 131.419 109.248 131.419 111.744C131.419 116.512 124.155 119.504 124.155 119.504H129.915ZM137.184 112.496C139.952 112.496 142.704 113.632 142.704 116.256C142.704 118.864 140.048 120 137.184 120C134.176 120 132.944 118.704 132.944 118.704L133.264 118.048C134.304 119.104 135.712 119.712 137.184 119.76C139.728 119.76 140.944 117.888 140.944 116.256C140.944 114.096 139.44 112.752 137.184 112.752C136.176 112.72 135.184 112.8 134.192 112.992H133.936L134.688 108.496H139.696L141.2 108.24V109.744L139.696 110V108.752H134.896L134.224 112.736C135.2 112.56 136.192 112.48 137.184 112.496Z" fill="#262626"/>
<path d="M173.302 7.49599C176.07 7.49599 178.822 8.63199 178.822 11.256C178.822 13.864 176.166 15 173.302 15C170.294 15 169.062 13.704 169.062 13.704L169.382 13.048C170.422 14.104 171.83 14.712 173.302 14.76C175.846 14.76 177.062 12.888 177.062 11.256C177.062 9.09599 175.558 7.75199 173.302 7.75199C172.294 7.71999 171.302 7.79999 170.31 7.99199H170.054L170.806 3.49599H175.814L177.318 3.23999V4.74399L175.814 4.99999V3.75199H171.014L170.342 7.73599C171.318 7.55999 172.31 7.47999 173.302 7.49599Z" fill="#262626"/>
<path d="M169.039 38.496L170.543 38.24V49.76L169.039 50V38.912L167.455 40.24L167.295 40.048L169.039 38.592V38.496ZM178.938 49.504V48.512L180.442 48.256V49.76L178.938 50V49.76H172.186V49.504C172.186 49.504 178.938 47.36 178.938 41.744C178.938 39.248 177.562 38.496 175.674 38.496C173.498 38.496 172.682 40.496 172.682 40.496L172.346 39.84C172.346 39.84 173.178 38.24 175.93 38.24C178.458 38.24 180.442 39.248 180.442 41.744C180.442 46.512 173.178 49.504 173.178 49.504H178.938Z" fill="#262626"/>
<path d="M167.852 73.496L169.356 73.24V84.76L167.852 85V73.912L166.268 75.24L166.108 75.048L167.852 73.592V73.496ZM176.401 73.24C179.409 73.24 181.665 74.744 181.665 79C181.665 83.512 178.657 85 175.905 85C172.657 85 171.905 83.752 171.905 83.752L172.401 83C172.401 83 172.401 84.76 175.905 84.76C178.769 84.76 180.033 83.624 180.145 79.608C179.249 80.072 177.905 80.76 176.401 80.76C173.489 80.76 171.409 79.496 171.409 77C171.409 74.488 173.489 73.24 176.401 73.24ZM176.657 80.504C177.969 80.536 179.249 80.024 180.161 79.064C180.161 79.048 180.161 79.032 180.161 79C180.161 74.248 177.905 73.496 175.905 73.496C173.569 73.496 172.897 75.336 172.897 77C172.897 79.496 174.897 80.504 176.657 80.504Z" fill="#262626"/>
<path d="M170.993 119.504V118.512L172.497 118.256V119.76L170.993 120V119.76H164.241V119.504C164.241 119.504 170.993 117.36 170.993 111.744C170.993 109.248 169.617 108.496 167.729 108.496C165.553 108.496 164.737 110.496 164.737 110.496L164.401 109.84C164.401 109.84 165.233 108.24 167.985 108.24C170.513 108.24 172.497 109.248 172.497 111.744C172.497 116.512 165.233 119.504 165.233 119.504H170.993ZM179.556 112.496C182.468 112.496 184.564 113.744 184.564 116.256C184.564 118.752 182.484 120 179.556 120C176.548 120 174.308 118.512 174.308 114.256C174.308 109.744 177.3 108.24 180.052 108.24C183.316 108.24 184.068 109.488 184.068 109.488L183.556 110.24C183.556 110.24 183.556 108.496 180.052 108.496C177.188 108.496 175.924 109.632 175.812 113.632C176.724 113.168 178.052 112.496 179.556 112.496ZM180.052 119.76C182.388 119.76 183.06 117.92 183.06 116.256C183.06 113.744 181.06 112.752 179.3 112.752C177.988 112.72 176.724 113.232 175.796 114.176C175.796 114.208 175.796 114.224 175.796 114.256C175.796 119.008 178.052 119.76 180.052 119.76Z" fill="#262626"/>
<path d="M215.618 7.49599C218.53 7.49599 220.626 8.74399 220.626 11.256C220.626 13.752 218.546 15 215.618 15C212.61 15 210.37 13.512 210.37 9.25599C210.37 4.74399 213.362 3.23999 216.114 3.23999C219.378 3.23999 220.13 4.48799 220.13 4.48799L219.618 5.23999C219.618 5.23999 219.618 3.49599 216.114 3.49599C213.25 3.49599 211.986 4.63199 211.874 8.63199C212.786 8.16799 214.114 7.49599 215.618 7.49599ZM216.114 14.76C218.45 14.76 219.122 12.92 219.122 11.256C219.122 8.74399 217.122 7.75199 215.362 7.75199C214.05 7.71999 212.786 8.23199 211.858 9.17599C211.858 9.20799 211.858 9.22399 211.858 9.25599C211.858 14.008 214.114 14.76 216.114 14.76Z" fill="#FEFAEF"/>
<path d="M209.86 38.496L211.364 38.24V49.76L209.86 50V38.912L208.276 40.24L208.116 40.048L209.86 38.592V38.496ZM217.727 42.496C220.479 42.496 222.735 43.632 222.735 46.256C222.735 48.864 220.079 50 217.215 50C214.207 50 212.975 48.704 212.975 48.704L213.295 48.048C214.335 49.104 215.743 49.712 217.215 49.76C219.759 49.76 220.975 47.888 220.975 46.256C220.975 44.096 219.967 42.752 217.727 42.752C216.719 42.72 215.711 42.8 214.719 42.992V42.752L220.719 38.752H215.967V39.744L214.463 40V38.496L215.967 38.24V38.496H221.231V38.752H221.167L215.327 42.64C216.127 42.544 216.927 42.496 217.727 42.496Z" fill="#262626"/>
<path d="M211.868 84.504V83.512L213.372 83.256V84.76L211.868 85V84.76H205.116V84.504C205.116 84.504 211.868 82.36 211.868 76.744C211.868 74.248 210.492 73.496 208.604 73.496C206.428 73.496 205.612 75.496 205.612 75.496L205.276 74.84C205.276 74.84 206.108 73.24 208.86 73.24C211.388 73.24 213.372 74.248 213.372 76.744C213.372 81.512 206.108 84.504 206.108 84.504H211.868ZM220.431 73.24C223.679 73.24 225.679 75 225.679 79C225.679 83 223.439 85 220.431 85C217.183 85 215.183 83 215.183 79C215.183 75 217.423 73.24 220.431 73.24ZM220.927 84.76C223.679 84.76 224.191 81.752 224.191 79C224.191 75 222.175 73.496 219.935 73.496C217.423 73.496 216.671 76.248 216.671 79C216.671 83 218.671 84.76 220.927 84.76Z" fill="#262626"/>
<path d="M212.891 119.504V118.512L214.395 118.256V119.76L212.891 120V119.76H206.139V119.504C206.139 119.504 212.891 117.36 212.891 111.744C212.891 109.248 211.515 108.496 209.627 108.496C207.451 108.496 206.635 110.496 206.635 110.496L206.299 109.84C206.299 109.84 207.131 108.24 209.883 108.24C212.411 108.24 214.395 109.248 214.395 111.744C214.395 116.512 207.131 119.504 207.131 119.504H212.891ZM224.995 108.496L221.283 116.256H222.003V116.496H221.171L219.491 120L217.987 119.76L219.587 116.496H217.491V116.256H219.699L223.379 108.752H217.235V109.744L215.747 110V108.496L217.235 108.24V108.496H224.995Z" fill="#262626"/>
<path d="M261.159 3.49599L257.447 11.256H258.167V11.496H257.335L255.655 15L254.151 14.76L255.751 11.496H253.655V11.256H255.863L259.543 3.75199H253.399V4.74399L251.911 4.99999V3.49599L253.399 3.23999V3.49599H261.159Z" fill="#262626"/>
<path d="M251.008 38.4959L252.512 38.2399V49.7599L251.008 49.9999V38.9119L249.424 40.2399L249.264 40.0479L251.008 38.5919V38.4959ZM262.523 46.2559V46.4959H262.027V49.7599L260.523 49.9999V46.4959H254.027V46.2559C256.779 44.7519 258.779 39.9999 259.275 35.9839L260.523 36.7359C259.579 40.3039 257.723 44.5439 254.523 46.2559H260.523V41.2479L262.027 40.9919V46.2559H262.523Z" fill="#262626"/>
<path d="M256.102 84.504V83.512L257.606 83.256V84.76L256.102 85V84.76H249.35V84.504C249.35 84.504 256.102 82.36 256.102 76.744C256.102 74.248 254.726 73.496 252.838 73.496C250.662 73.496 249.846 75.496 249.846 75.496L249.51 74.84C249.51 74.84 250.342 73.24 253.094 73.24C255.622 73.24 257.606 74.248 257.606 76.744C257.606 81.512 250.342 84.504 250.342 84.504H256.102ZM260.797 73.496L262.301 73.24V84.76L260.797 85V73.912L259.213 75.24L259.053 75.048L260.797 73.592V73.496Z" fill="#262626"/>
<path d="M253.134 119.504V118.512L254.638 118.256V119.76L253.134 120V119.76H246.382V119.504C246.382 119.504 253.134 117.36 253.134 111.744C253.134 109.248 251.758 108.496 249.87 108.496C247.694 108.496 246.878 110.496 246.878 110.496L246.542 109.84C246.542 109.84 247.374 108.24 250.126 108.24C252.654 108.24 254.638 109.248 254.638 111.744C254.638 116.512 247.374 119.504 247.374 119.504H253.134ZM262.612 112.832C264.852 113.152 266.5 114.32 266.5 116.384C266.5 118.8 264.212 120 261.364 120C258.516 120 256.243 118.8 256.243 116.384C256.243 114.368 257.812 113.2 259.972 112.864C258.708 112.56 257.732 111.824 257.732 110.624C257.732 109.04 259.428 108.24 261.236 108.24C263.044 108.24 264.74 109.04 264.74 110.624C264.74 111.792 263.828 112.528 262.612 112.832ZM258.996 110.624C258.996 112.208 260.516 112.752 261.604 112.752C263.044 112.752 263.492 111.68 263.492 110.624C263.492 109.04 261.972 108.496 260.884 108.496C259.428 108.496 258.996 109.568 258.996 110.624ZM261.94 119.76C264.212 119.76 264.996 117.984 264.996 116.384C264.996 113.952 262.5 112.992 260.804 112.992C258.516 112.992 257.732 114.768 257.732 116.384C257.732 118.8 260.228 119.76 261.94 119.76Z" fill="#262626"/>
<path d="M7.94597 154.504V153.512L9.44997 153.256V154.76L7.94597 155V154.76H1.19397V154.504C1.19397 154.504 7.94597 152.36 7.94597 146.744C7.94597 144.248 6.56997 143.496 4.68197 143.496C2.50597 143.496 1.68997 145.496 1.68997 145.496L1.35397 144.84C1.35397 144.84 2.18597 143.24 4.93797 143.24C7.46597 143.24 9.44997 144.248 9.44997 146.744C9.44997 151.512 2.18597 154.504 2.18597 154.504H7.94597ZM16.3308 143.24C19.3388 143.24 21.5948 144.744 21.5948 149C21.5948 153.512 18.5868 155 15.8348 155C12.5868 155 11.8348 153.752 11.8348 153.752L12.3307 153C12.3307 153 12.3307 154.76 15.8348 154.76C18.6988 154.76 19.9628 153.624 20.0748 149.608C19.1788 150.072 17.8348 150.76 16.3308 150.76C13.4188 150.76 11.3388 149.496 11.3388 147C11.3388 144.488 13.4188 143.24 16.3308 143.24ZM16.5868 150.504C17.8988 150.536 19.1788 150.024 20.0908 149.064C20.0908 149.048 20.0908 149.032 20.0908 149C20.0908 144.248 17.8348 143.496 15.8348 143.496C13.4988 143.496 12.8268 145.336 12.8268 147C12.8268 149.496 14.8268 150.504 16.5868 150.504Z" fill="#262626"/>
<path d="M45.1562 147.496C47.9082 147.496 50.1642 148.632 50.1642 151.256C50.1642 153.864 47.5082 155 44.6442 155C41.6362 155 40.4042 153.704 40.4042 153.704L40.7242 153.048C41.7642 154.104 43.1722 154.712 44.6442 154.76C47.1882 154.76 48.4042 152.888 48.4042 151.256C48.4042 149.096 47.3962 147.752 45.1562 147.752C44.1482 147.72 43.1402 147.8 42.1482 147.992V147.752L48.1482 143.752H43.3962V144.744L41.8922 145V143.496L43.3962 143.24V143.496H48.6602V143.752H48.5962L42.7562 147.64C43.5562 147.544 44.3562 147.496 45.1562 147.496ZM57.1106 143.24C60.3586 143.24 62.3586 145 62.3586 149C62.3586 153 60.1186 155 57.1106 155C53.8626 155 51.8626 153 51.8626 149C51.8626 145 54.1026 143.24 57.1106 143.24ZM57.6066 154.76C60.3586 154.76 60.8706 151.752 60.8706 149C60.8706 145 58.8546 143.496 56.6146 143.496C54.1026 143.496 53.3506 146.248 53.3506 149C53.3506 153 55.3506 154.76 57.6066 154.76Z" fill="#262626"/>
</svg>
