<svg width="268" height="130" viewBox="0 0 268 130" fill="none" xmlns="http://www.w3.org/2000/svg">
<path d="M9.9376 3.15616L11.4416 2.92505V13.325L9.9376 13.5417V3.53172L8.3536 4.7306L8.1936 4.55727L9.9376 3.24283V3.15616Z" fill="#FA4040"/>
<path d="M11.7365 38.6678C13.9765 38.9567 15.6245 40.0111 15.6245 41.8744C15.6245 44.0555 13.3365 45.1389 10.4885 45.1389C7.64053 45.1389 5.36853 44.0555 5.36853 41.8744C5.36853 40.0544 6.93653 39 9.09653 38.6967C7.83253 38.4222 6.85653 37.7578 6.85653 36.6744C6.85653 35.2444 8.55253 34.5222 10.3605 34.5222C12.1685 34.5222 13.8645 35.2444 13.8645 36.6744C13.8645 37.7289 12.9525 38.3933 11.7365 38.6678ZM8.12053 36.6744C8.12053 38.1044 9.64053 38.5955 10.7285 38.5955C12.1685 38.5955 12.6165 37.6278 12.6165 36.6744C12.6165 35.2444 11.0965 34.7533 10.0085 34.7533C8.55253 34.7533 8.12053 35.7211 8.12053 36.6744ZM11.0645 44.9222C13.3365 44.9222 14.1205 43.3189 14.1205 41.8744C14.1205 39.6789 11.6245 38.8122 9.92853 38.8122C7.64053 38.8122 6.85653 40.4155 6.85653 41.8744C6.85653 44.0555 9.35253 44.9222 11.0645 44.9222Z" fill="#262626"/>
<path d="M4.82823 66.3505L6.33223 66.1194V76.5194L4.82823 76.7361V66.7261L3.24423 67.9249L3.08423 67.7516L4.82823 66.4372V66.3505ZM12.2469 69.9616C15.0149 69.9616 17.7669 70.9872 17.7669 73.3561C17.7669 75.7105 15.1109 76.7361 12.2469 76.7361C9.23886 76.7361 8.00686 75.5661 8.00686 75.5661L8.32686 74.9738C9.36686 75.9272 10.7749 76.4761 12.2469 76.5194C14.7909 76.5194 16.0069 74.8294 16.0069 73.3561C16.0069 71.4061 14.5029 70.1927 12.2469 70.1927C11.2389 70.1638 10.2469 70.2361 9.25486 70.4094H8.99886L9.75086 66.3505H14.7589L16.2629 66.1194V67.4772L14.7589 67.7083V66.5816H9.95886L9.28686 70.1783C10.2629 70.0194 11.2549 69.9472 12.2469 69.9616Z" fill="#262626"/>
<path d="M7.80534 107.886V106.99L9.30934 106.759V108.117L7.80534 108.333V108.117H1.05334V107.886C1.05334 107.886 7.80534 105.95 7.80534 100.88C7.80534 98.6267 6.42934 97.9478 4.54134 97.9478C2.36534 97.9478 1.54934 99.7533 1.54934 99.7533L1.21334 99.1611C1.21334 99.1611 2.04534 97.7167 4.79734 97.7167C7.32535 97.7167 9.30934 98.6267 9.30934 100.88C9.30934 105.184 2.04534 107.886 2.04534 107.886H7.80534ZM18.196 107.886V106.99L19.7 106.759V108.117L18.196 108.333V108.117H11.444V107.886C11.444 107.886 18.196 105.95 18.196 100.88C18.196 98.6267 16.82 97.9478 14.932 97.9478C12.756 97.9478 11.94 99.7533 11.94 99.7533L11.604 99.1611C11.604 99.1611 12.436 97.7167 15.188 97.7167C17.716 97.7167 19.7 98.6267 19.7 100.88C19.7 105.184 12.436 107.886 12.436 107.886H18.196Z" fill="#262626"/>
<path d="M54.0007 13.0939V12.1984L55.5047 11.9673V13.325L54.0007 13.5417V13.325H47.2487V13.0939C47.2487 13.0939 54.0007 11.1584 54.0007 6.08838C54.0007 3.83505 52.6247 3.15616 50.7367 3.15616C48.5607 3.15616 47.7447 4.96172 47.7447 4.96172L47.4087 4.36949C47.4087 4.36949 48.2407 2.92505 50.9927 2.92505C53.5207 2.92505 55.5047 3.83505 55.5047 6.08838C55.5047 10.3928 48.2407 13.0939 48.2407 13.0939H54.0007Z" fill="#262626"/>
<path d="M51.3464 34.5222C54.3544 34.5222 56.6104 35.88 56.6104 39.7222C56.6104 43.7955 53.6024 45.1389 50.8504 45.1389C47.6024 45.1389 46.8504 44.0122 46.8504 44.0122L47.3464 43.3333C47.3464 43.3333 47.3464 44.9222 50.8504 44.9222C53.7144 44.9222 54.9784 43.8967 55.0904 40.2711C54.1944 40.69 52.8504 41.3111 51.3464 41.3111C48.4344 41.3111 46.3544 40.17 46.3544 37.9167C46.3544 35.6489 48.4344 34.5222 51.3464 34.5222ZM51.6024 41.08C52.9144 41.1089 54.1944 40.6467 55.1064 39.78C55.1064 39.7655 55.1064 39.7511 55.1064 39.7222C55.1064 35.4322 52.8504 34.7533 50.8504 34.7533C48.5144 34.7533 47.8424 36.4144 47.8424 37.9167C47.8424 40.17 49.8424 41.08 51.6024 41.08Z" fill="#262626"/>
<path d="M44.8048 66.3505L46.3088 66.1194V76.5194L44.8048 76.7361V66.7261L43.2208 67.9249L43.0608 67.7516L44.8048 66.4372V66.3505ZM53.7199 69.9616C56.6319 69.9616 58.7279 71.0883 58.7279 73.3561C58.7279 75.6094 56.6479 76.7361 53.7199 76.7361C50.7119 76.7361 48.4719 75.3927 48.4719 71.5505C48.4719 67.4772 51.4639 66.1194 54.2159 66.1194C57.4799 66.1194 58.2319 67.2461 58.2319 67.2461L57.7199 67.9249C57.7199 67.9249 57.7199 66.3505 54.2159 66.3505C51.3519 66.3505 50.0879 67.3761 49.9759 70.9872C50.8879 70.5683 52.2159 69.9616 53.7199 69.9616ZM54.2159 76.5194C56.5519 76.5194 57.2239 74.8583 57.2239 73.3561C57.2239 71.0883 55.2239 70.1927 53.4639 70.1927C52.1519 70.1638 50.8879 70.6261 49.9599 71.4783C49.9599 71.5072 49.9599 71.5216 49.9599 71.5505C49.9599 75.8405 52.2159 76.5194 54.2159 76.5194Z" fill="#262626"/>
<path d="M47.9227 107.886V106.99L49.4267 106.759V108.117L47.9227 108.333V108.117H41.1707V107.886C41.1707 107.886 47.9227 105.95 47.9227 100.88C47.9227 98.6267 46.5467 97.9478 44.6587 97.9478C42.4827 97.9478 41.6667 99.7533 41.6667 99.7533L41.3307 99.1611C41.3307 99.1611 42.1627 97.7167 44.9147 97.7167C47.4427 97.7167 49.4267 98.6267 49.4267 100.88C49.4267 105.184 42.1627 107.886 42.1627 107.886H47.9227ZM55.6875 101.559C58.4395 101.559 60.6955 102.584 60.6955 104.953C60.6955 107.308 58.0395 108.333 55.1755 108.333C52.1675 108.333 50.9355 107.163 50.9355 107.163L51.2555 106.571C52.2955 107.524 53.7035 108.073 55.1755 108.117C57.7195 108.117 58.9355 106.427 58.9355 104.953C58.9355 103.003 57.9275 101.79 55.6875 101.79C54.6795 101.761 53.6715 101.833 52.6795 102.007V101.79L58.6795 98.1789H53.9275V99.0745L52.4235 99.3056V97.9478L53.9275 97.7167V97.9478H59.1915V98.1789H59.1275L53.2875 101.689C54.0875 101.602 54.8875 101.559 55.6875 101.559Z" fill="#262626"/>
<path d="M91.789 6.76727C94.541 6.76727 96.797 7.79283 96.797 10.1617C96.797 12.5162 94.141 13.5417 91.277 13.5417C88.269 13.5417 87.037 12.3717 87.037 12.3717L87.357 11.7795C88.397 12.7328 89.805 13.2817 91.277 13.325C93.821 13.325 95.037 11.635 95.037 10.1617C95.037 8.21172 94.029 6.99838 91.789 6.99838C90.781 6.96949 89.773 7.04172 88.781 7.21505V6.99838L94.781 3.38727H90.029V4.28283L88.525 4.51394V3.15616L90.029 2.92505V3.15616H95.293V3.38727H95.229L89.389 6.89727C90.189 6.8106 90.989 6.76727 91.789 6.76727Z" fill="#262626"/>
<path d="M85.6798 34.7533L87.1838 34.5222V44.9222L85.6798 45.1389V35.1289L84.0958 36.3278L83.9358 36.1544L85.6798 34.84V34.7533ZM94.5949 34.5222C97.8429 34.5222 99.8429 36.1111 99.8429 39.7222C99.8429 43.3333 97.6029 45.1389 94.5949 45.1389C91.3469 45.1389 89.3469 43.3333 89.3469 39.7222C89.3469 36.1111 91.5869 34.5222 94.5949 34.5222ZM95.0909 44.9222C97.8429 44.9222 98.3549 42.2067 98.3549 39.7222C98.3549 36.1111 96.3389 34.7533 94.0989 34.7533C91.5869 34.7533 90.8349 37.2378 90.8349 39.7222C90.8349 43.3333 92.8349 44.9222 95.0909 44.9222Z" fill="#262626"/>
<path d="M86.6954 66.3505L88.1994 66.1194V76.5194L86.6954 76.7361V66.7261L85.1114 67.9249L84.9514 67.7516L86.6954 66.4372V66.3505ZM99.1671 66.3505L95.4551 73.3561H96.1751V73.5727H95.3431L93.6631 76.7361L92.1591 76.5194L93.7591 73.5727H91.6631V73.3561H93.8711L97.5511 66.5816H91.4071V67.4772L89.9191 67.7083V66.3505L91.4071 66.1194V66.3505H99.1671Z" fill="#262626"/>
<path d="M90.1569 107.885V106.99L91.6609 106.759V108.117L90.1569 108.333V108.117H83.4049V107.885C83.4049 107.885 90.1569 105.95 90.1569 100.88C90.1569 98.6266 88.7809 97.9477 86.8929 97.9477C84.7169 97.9477 83.9009 99.7533 83.9009 99.7533L83.5649 99.161C83.5649 99.161 84.3969 97.7166 87.1489 97.7166C89.6769 97.7166 91.6609 98.6266 91.6609 100.88C91.6609 105.184 84.3969 107.885 84.3969 107.885H90.1569ZM101.398 104.953V105.17H100.902V108.117L99.3983 108.333V105.17H92.9023V104.953C95.6543 103.595 97.6543 99.3055 98.1503 95.6799L99.3983 96.3588C98.4543 99.5799 96.5983 103.408 93.3983 104.953H99.3983V100.432L100.902 100.201V104.953H101.398Z" fill="#262626"/>
<path d="M137.594 10.1615V10.3782H137.098V13.3249L135.594 13.5415V10.3782H129.098V10.1615C131.85 8.80374 133.85 4.51374 134.346 0.888184L135.594 1.56707C134.65 4.78818 132.794 8.61596 129.594 10.1615H135.594V5.64041L137.098 5.4093V10.1615H137.594Z" fill="#262626"/>
<path d="M130.703 34.7533L132.207 34.5222V44.9222L130.703 45.1389V35.1289L129.119 36.3278L128.959 36.1544L130.703 34.84V34.7533ZM136.172 34.7533L137.676 34.5222V44.9222L136.172 45.1389V35.1289L134.588 36.3278L134.428 36.1544L136.172 34.84V34.7533Z" fill="#262626"/>
<path d="M126.938 66.3505L128.442 66.1194V76.5194L126.938 76.7361V66.7261L125.354 67.9249L125.194 67.7516L126.938 66.4372V66.3505ZM136.783 70.2649C139.023 70.5538 140.671 71.6083 140.671 73.4716C140.671 75.6527 138.383 76.7361 135.535 76.7361C132.687 76.7361 130.415 75.6527 130.415 73.4716C130.415 71.6516 131.983 70.5972 134.143 70.2938C132.879 70.0194 131.903 69.3549 131.903 68.2716C131.903 66.8416 133.599 66.1194 135.407 66.1194C137.215 66.1194 138.911 66.8416 138.911 68.2716C138.911 69.3261 137.999 69.9905 136.783 70.2649ZM133.167 68.2716C133.167 69.7016 134.687 70.1927 135.775 70.1927C137.215 70.1927 137.663 69.2249 137.663 68.2716C137.663 66.8416 136.143 66.3505 135.055 66.3505C133.599 66.3505 133.167 67.3183 133.167 68.2716ZM136.111 76.5194C138.383 76.5194 139.167 74.9161 139.167 73.4716C139.167 71.2761 136.671 70.4094 134.975 70.4094C132.687 70.4094 131.903 72.0127 131.903 73.4716C131.903 75.6527 134.399 76.5194 136.111 76.5194Z" fill="#262626"/>
<path d="M129.915 107.886V106.99L131.419 106.759V108.117L129.915 108.333V108.117H123.163V107.886C123.163 107.886 129.915 105.95 129.915 100.88C129.915 98.6267 128.539 97.9478 126.651 97.9478C124.475 97.9478 123.659 99.7533 123.659 99.7533L123.323 99.1611C123.323 99.1611 124.155 97.7167 126.907 97.7167C129.435 97.7167 131.419 98.6267 131.419 100.88C131.419 105.184 124.155 107.886 124.155 107.886H129.915ZM137.184 101.559C139.952 101.559 142.704 102.584 142.704 104.953C142.704 107.308 140.048 108.333 137.184 108.333C134.176 108.333 132.944 107.163 132.944 107.163L133.264 106.571C134.304 107.524 135.712 108.073 137.184 108.117C139.728 108.117 140.944 106.427 140.944 104.953C140.944 103.003 139.44 101.79 137.184 101.79C136.176 101.761 135.184 101.833 134.192 102.007H133.936L134.688 97.9478H139.696L141.2 97.7167V99.0745L139.696 99.3056V98.1789H134.896L134.224 101.776C135.2 101.617 136.192 101.544 137.184 101.559Z" fill="#262626"/>
<path d="M173.302 6.76727C176.07 6.76727 178.822 7.79283 178.822 10.1617C178.822 12.5162 176.166 13.5417 173.302 13.5417C170.294 13.5417 169.062 12.3717 169.062 12.3717L169.382 11.7795C170.422 12.7328 171.83 13.2817 173.302 13.325C175.846 13.325 177.062 11.635 177.062 10.1617C177.062 8.21172 175.558 6.99838 173.302 6.99838C172.294 6.96949 171.302 7.04172 170.31 7.21505H170.054L170.806 3.15616H175.814L177.318 2.92505V4.28283L175.814 4.51394V3.38727H171.014L170.342 6.98394C171.318 6.82505 172.31 6.75283 173.302 6.76727Z" fill="#262626"/>
<path d="M169.039 34.7533L170.543 34.5222V44.9222L169.039 45.1389V35.1289L167.455 36.3278L167.295 36.1544L169.039 34.84V34.7533ZM178.938 44.6911V43.7955L180.442 43.5644V44.9222L178.938 45.1389V44.9222H172.186V44.6911C172.186 44.6911 178.938 42.7555 178.938 37.6855C178.938 35.4322 177.562 34.7533 175.674 34.7533C173.498 34.7533 172.682 36.5589 172.682 36.5589L172.346 35.9667C172.346 35.9667 173.178 34.5222 175.93 34.5222C178.458 34.5222 180.442 35.4322 180.442 37.6855C180.442 41.99 173.178 44.6911 173.178 44.6911H178.938Z" fill="#262626"/>
<path d="M167.852 66.3505L169.356 66.1194V76.5194L167.852 76.7361V66.7261L166.268 67.9249L166.108 67.7516L167.852 66.4372V66.3505ZM176.401 66.1194C179.409 66.1194 181.665 67.4772 181.665 71.3194C181.665 75.3927 178.657 76.7361 175.905 76.7361C172.657 76.7361 171.905 75.6094 171.905 75.6094L172.401 74.9305C172.401 74.9305 172.401 76.5194 175.905 76.5194C178.769 76.5194 180.033 75.4938 180.145 71.8683C179.249 72.2872 177.905 72.9083 176.401 72.9083C173.489 72.9083 171.409 71.7672 171.409 69.5138C171.409 67.2461 173.489 66.1194 176.401 66.1194ZM176.657 72.6772C177.969 72.7061 179.249 72.2438 180.161 71.3772C180.161 71.3627 180.161 71.3483 180.161 71.3194C180.161 67.0294 177.905 66.3505 175.905 66.3505C173.569 66.3505 172.897 68.0116 172.897 69.5138C172.897 71.7672 174.897 72.6772 176.657 72.6772Z" fill="#262626"/>
<path d="M170.993 107.886V106.99L172.497 106.759V108.117L170.993 108.333V108.117H164.241V107.886C164.241 107.886 170.993 105.95 170.993 100.88C170.993 98.6267 169.617 97.9478 167.729 97.9478C165.553 97.9478 164.737 99.7533 164.737 99.7533L164.401 99.1611C164.401 99.1611 165.233 97.7167 167.985 97.7167C170.513 97.7167 172.497 98.6267 172.497 100.88C172.497 105.184 165.233 107.886 165.233 107.886H170.993ZM179.556 101.559C182.468 101.559 184.564 102.686 184.564 104.953C184.564 107.207 182.484 108.333 179.556 108.333C176.548 108.333 174.308 106.99 174.308 103.148C174.308 99.0745 177.3 97.7167 180.052 97.7167C183.316 97.7167 184.068 98.8433 184.068 98.8433L183.556 99.5222C183.556 99.5222 183.556 97.9478 180.052 97.9478C177.188 97.9478 175.924 98.9733 175.812 102.584C176.724 102.166 178.052 101.559 179.556 101.559ZM180.052 108.117C182.388 108.117 183.06 106.456 183.06 104.953C183.06 102.686 181.06 101.79 179.3 101.79C177.988 101.761 176.724 102.223 175.796 103.076C175.796 103.104 175.796 103.119 175.796 103.148C175.796 107.438 178.052 108.117 180.052 108.117Z" fill="#262626"/>
<path d="M215.618 6.76727C218.53 6.76727 220.626 7.89394 220.626 10.1617C220.626 12.415 218.546 13.5417 215.618 13.5417C212.61 13.5417 210.37 12.1984 210.37 8.35616C210.37 4.28283 213.362 2.92505 216.114 2.92505C219.378 2.92505 220.13 4.05172 220.13 4.05172L219.618 4.7306C219.618 4.7306 219.618 3.15616 216.114 3.15616C213.25 3.15616 211.986 4.18172 211.874 7.79283C212.786 7.37394 214.114 6.76727 215.618 6.76727ZM216.114 13.325C218.45 13.325 219.122 11.6639 219.122 10.1617C219.122 7.89394 217.122 6.99838 215.362 6.99838C214.05 6.96949 212.786 7.43172 211.858 8.28394C211.858 8.31283 211.858 8.32727 211.858 8.35616C211.858 12.6462 214.114 13.325 216.114 13.325Z" fill="#262626"/>
<path d="M209.86 34.7533L211.364 34.5222V44.9222L209.86 45.1389V35.1289L208.276 36.3278L208.116 36.1544L209.86 34.84V34.7533ZM217.727 38.3644C220.479 38.3644 222.735 39.39 222.735 41.7589C222.735 44.1133 220.079 45.1389 217.215 45.1389C214.207 45.1389 212.975 43.9689 212.975 43.9689L213.295 43.3767C214.335 44.33 215.743 44.8789 217.215 44.9222C219.759 44.9222 220.975 43.2322 220.975 41.7589C220.975 39.8089 219.967 38.5955 217.727 38.5955C216.719 38.5667 215.711 38.6389 214.719 38.8122V38.5955L220.719 34.9844H215.967V35.88L214.463 36.1111V34.7533L215.967 34.5222V34.7533H221.231V34.9844H221.167L215.327 38.4944C216.127 38.4078 216.927 38.3644 217.727 38.3644Z" fill="#262626"/>
<path d="M211.868 76.2883V75.3927L213.372 75.1616V76.5194L211.868 76.7361V76.5194H205.116V76.2883C205.116 76.2883 211.868 74.3527 211.868 69.2827C211.868 67.0294 210.492 66.3505 208.604 66.3505C206.428 66.3505 205.612 68.1561 205.612 68.1561L205.276 67.5638C205.276 67.5638 206.108 66.1194 208.86 66.1194C211.388 66.1194 213.372 67.0294 213.372 69.2827C213.372 73.5872 206.108 76.2883 206.108 76.2883H211.868ZM220.431 66.1194C223.679 66.1194 225.679 67.7083 225.679 71.3194C225.679 74.9305 223.439 76.7361 220.431 76.7361C217.183 76.7361 215.183 74.9305 215.183 71.3194C215.183 67.7083 217.423 66.1194 220.431 66.1194ZM220.927 76.5194C223.679 76.5194 224.191 73.8038 224.191 71.3194C224.191 67.7083 222.175 66.3505 219.935 66.3505C217.423 66.3505 216.671 68.8349 216.671 71.3194C216.671 74.9305 218.671 76.5194 220.927 76.5194Z" fill="#262626"/>
<path d="M212.891 107.886V106.99L214.395 106.759V108.117L212.891 108.333V108.117H206.139V107.886C206.139 107.886 212.891 105.95 212.891 100.88C212.891 98.6267 211.515 97.9478 209.627 97.9478C207.451 97.9478 206.635 99.7533 206.635 99.7533L206.299 99.1611C206.299 99.1611 207.131 97.7167 209.883 97.7167C212.411 97.7167 214.395 98.6267 214.395 100.88C214.395 105.184 207.131 107.886 207.131 107.886H212.891ZM224.995 97.9478L221.283 104.953H222.003V105.17H221.171L219.491 108.333L217.987 108.117L219.587 105.17H217.491V104.953H219.699L223.379 98.1789H217.235V99.0745L215.747 99.3056V97.9478L217.235 97.7167V97.9478H224.995Z" fill="#262626"/>
<path d="M261.159 3.15616L257.447 10.1617H258.167V10.3784H257.335L255.655 13.5417L254.151 13.325L255.751 10.3784H253.655V10.1617H255.863L259.543 3.38727H253.399V4.28283L251.911 4.51394V3.15616L253.399 2.92505V3.15616H261.159Z" fill="#262626"/>
<path d="M251.008 34.7532L252.512 34.5221V44.9221L251.008 45.1388V35.1288L249.424 36.3277L249.264 36.1544L251.008 34.8399V34.7532ZM262.523 41.7588V41.9755H262.027V44.9221L260.523 45.1388V41.9755H254.027V41.7588C256.779 40.401 258.779 36.111 259.275 32.4855L260.523 33.1644C259.579 36.3855 257.723 40.2133 254.523 41.7588H260.523V37.2377L262.027 37.0066V41.7588H262.523Z" fill="#262626"/>
<path d="M256.102 76.2883V75.3927L257.606 75.1616V76.5194L256.102 76.7361V76.5194H249.35V76.2883C249.35 76.2883 256.102 74.3527 256.102 69.2827C256.102 67.0294 254.726 66.3505 252.838 66.3505C250.662 66.3505 249.846 68.1561 249.846 68.1561L249.51 67.5638C249.51 67.5638 250.342 66.1194 253.094 66.1194C255.622 66.1194 257.606 67.0294 257.606 69.2827C257.606 73.5872 250.342 76.2883 250.342 76.2883H256.102ZM260.797 66.3505L262.301 66.1194V76.5194L260.797 76.7361V66.7261L259.213 67.9249L259.053 67.7516L260.797 66.4372V66.3505Z" fill="#262626"/>
<path d="M253.134 107.886V106.99L254.638 106.759V108.117L253.134 108.333V108.117H246.382V107.886C246.382 107.886 253.134 105.95 253.134 100.88C253.134 98.6267 251.758 97.9478 249.87 97.9478C247.694 97.9478 246.878 99.7533 246.878 99.7533L246.542 99.1611C246.542 99.1611 247.374 97.7167 250.126 97.7167C252.654 97.7167 254.638 98.6267 254.638 100.88C254.638 105.184 247.374 107.886 247.374 107.886H253.134ZM262.612 101.862C264.852 102.151 266.5 103.206 266.5 105.069C266.5 107.25 264.212 108.333 261.364 108.333C258.516 108.333 256.243 107.25 256.243 105.069C256.243 103.249 257.812 102.194 259.972 101.891C258.708 101.617 257.732 100.952 257.732 99.8689C257.732 98.4389 259.428 97.7167 261.236 97.7167C263.044 97.7167 264.74 98.4389 264.74 99.8689C264.74 100.923 263.828 101.588 262.612 101.862ZM258.996 99.8689C258.996 101.299 260.516 101.79 261.604 101.79C263.044 101.79 263.492 100.822 263.492 99.8689C263.492 98.4389 261.972 97.9478 260.884 97.9478C259.428 97.9478 258.996 98.9156 258.996 99.8689ZM261.94 108.117C264.212 108.117 264.996 106.513 264.996 105.069C264.996 102.873 262.5 102.007 260.804 102.007C258.516 102.007 257.732 103.61 257.732 105.069C257.732 107.25 260.228 108.117 261.94 108.117Z" fill="#262626"/>
</svg>
