<svg width="239" height="83" viewBox="0 0 239 83" fill="none" xmlns="http://www.w3.org/2000/svg">
<g clip-path="url(#clip0_80_43)">
<mask id="mask0_80_43" style="mask-type:luminance" maskUnits="userSpaceOnUse" x="0" y="0" width="239" height="83">
<path d="M239 0H0V83H239V0Z" fill="white"/>
</mask>
<g mask="url(#mask0_80_43)">
<path d="M78.2113 50.4526L77.9344 51L77 48L77.9344 45L78.2113 45.5474L77.4413 48L78.2113 50.4526ZM79.2062 50.4526L78.9294 51L77.9863 48L78.9294 45L79.2062 45.5474L78.4362 48L79.2062 50.4526ZM161.005 48L160.062 51L159.794 50.4526L160.564 48L159.794 45.5474L160.062 45L161.005 48ZM162 48L161.057 51L160.78 50.4526L161.55 48L160.78 45.5474L161.057 45L162 48Z" fill="#FEFAEF"/>
<path d="M101.6 15.1002C101.787 15.0202 101.92 15.0735 102 15.2602C102.08 15.4469 102.027 15.5802 101.84 15.6602C101.027 16.0069 99.2208 16.5269 96.4208 17.2202C94.7275 18.7269 92.8875 19.7202 90.9008 20.2002C90.1008 20.3869 89.4741 20.4335 89.0208 20.3402C88.5541 20.2469 88.3808 20.0269 88.5008 19.6802C88.7008 19.1202 89.5208 18.5802 90.9608 18.0602C91.8808 17.7402 93.4408 17.3202 95.6408 16.8002C96.6675 15.8802 97.5275 14.8602 98.2208 13.7402C99.4608 11.6735 99.9473 9.67353 99.6803 7.74023C99.5475 6.84693 99.2541 6.12693 98.8008 5.58023C98.3208 5.00693 97.7075 4.68693 96.9608 4.62023C94.6941 4.42023 92.0541 6.17353 89.0408 9.88023C88.4141 12.6535 87.0075 16.2802 84.8208 20.7602C83.1141 24.2669 81.4341 27.3269 79.7808 29.9402C79.2341 30.8069 78.8608 31.3469 78.6608 31.5602C78.4741 31.7469 78.2941 31.7935 78.1208 31.7002C78.0541 31.6469 78.0075 31.6002 77.9808 31.5602V31.5202L77.9608 31.4802C77.9208 31.3202 77.9675 30.9602 78.1008 30.4002C78.1541 30.2002 78.2075 29.9869 78.2608 29.7602C78.2875 29.6669 78.3141 29.5802 78.3408 29.5002C78.3675 29.4202 78.3875 29.3535 78.4008 29.3002C79.7075 24.7402 81.5408 20.3135 83.9008 16.0202C85.3141 13.5135 86.8541 11.2802 88.5208 9.32023C88.7075 8.48023 88.7875 7.74693 88.7608 7.12023C88.7208 5.96023 88.2208 5.22023 87.2608 4.90023C86.4075 4.62023 85.4008 4.72023 84.2408 5.20023C82.3608 5.97353 80.5941 7.39353 78.9408 9.46023C77.2875 11.5269 76.6008 13.1802 76.8808 14.4202C77.0008 14.9802 77.4008 15.2535 78.0808 15.2402C78.7075 15.2269 79.2541 15.0002 79.7208 14.5602C79.8675 14.4269 80.0141 14.4335 80.1608 14.5802C80.2941 14.7269 80.2875 14.8669 80.1408 15.0002C79.5541 15.5469 78.8341 15.8269 77.9808 15.8402C77.0208 15.8669 76.4075 15.4669 76.1408 14.6402C75.6741 13.2002 76.3675 11.3402 78.2208 9.06023C80.0075 6.87353 81.9275 5.38023 83.9808 4.58023C85.3808 4.03353 86.5941 3.96023 87.6208 4.36023C88.7275 4.80023 89.3075 5.71353 89.3608 7.10023C89.3875 7.51353 89.3675 7.96023 89.3008 8.44023C92.1675 5.28023 94.7408 3.80693 97.0208 4.02023C97.9275 4.11353 98.6741 4.49353 99.2608 5.16023C99.8203 5.78693 100.187 6.60023 100.36 7.60023C100.734 9.76023 100.26 11.9535 98.9408 14.1802C98.4875 14.9402 97.9275 15.6802 97.2608 16.4002C99.2875 15.9202 100.734 15.4869 101.6 15.1002ZM79.2808 29.6202C80.6408 27.4602 82.1275 24.7469 83.7408 21.4802C85.8075 17.3469 87.2475 13.9069 88.0608 11.1602C86.8475 12.7869 85.7141 14.5469 84.6608 16.4402C82.1808 20.8535 80.2941 25.2002 79.0008 29.4802L78.7208 30.4602C78.9208 30.1935 79.1075 29.9135 79.2808 29.6202ZM89.8208 19.7002C91.2875 19.5535 92.8608 18.8802 94.5408 17.6802C91.3808 18.4669 89.5941 19.1402 89.1808 19.7002C89.2741 19.7135 89.3875 19.7202 89.5208 19.7202C89.6275 19.7202 89.7275 19.7135 89.8208 19.7002ZM106.013 18.9402C106.093 19.0735 106.053 19.2202 105.893 19.3802C105.68 19.5802 105.327 19.8469 104.833 20.1802L104.673 20.2802L104.493 20.4002C104.36 20.4935 104.233 20.5735 104.113 20.6402C103.78 20.8269 103.467 20.9735 103.173 21.0802C102.36 21.4002 101.567 21.4802 100.793 21.3202C100.247 21.2002 99.8533 20.9202 99.6133 20.4802C99.4136 20.0935 99.3803 19.7069 99.5136 19.3202C99.3136 19.4802 99.1536 19.6002 99.0336 19.6802C98.9936 19.7069 98.9336 19.7202 98.8536 19.7202C98.7869 19.7069 98.7269 19.6735 98.6736 19.6202C98.6336 19.5669 98.6203 19.5002 98.6336 19.4202C98.6469 19.3402 98.6736 19.2802 98.7136 19.2402C98.7536 19.2002 98.8269 19.1335 98.9336 19.0402L99.0136 18.9602L99.0936 18.9002C99.1603 18.8335 99.2269 18.7735 99.2936 18.7202C99.3203 18.7069 99.4003 18.6535 99.5336 18.5602L99.6133 18.5202L99.7133 18.4402L99.9333 18.3002C100.333 17.6469 100.86 17.1269 101.513 16.7402C102.22 16.3002 102.873 16.1602 103.473 16.3202C103.74 16.3869 103.927 16.5202 104.033 16.7202C104.287 17.1335 103.873 17.5669 102.793 18.0202C102.607 18.1002 102.393 18.1802 102.153 18.2602L101.833 18.3802L101.533 18.4802C101.067 18.6402 100.787 18.7535 100.693 18.8202C100.413 19.3135 100.333 19.7202 100.453 20.0402C100.56 20.3469 100.813 20.5402 101.213 20.6202C102.12 20.8202 103.173 20.5335 104.373 19.7602C104.707 19.5602 105.093 19.2802 105.533 18.9202C105.613 18.8535 105.7 18.8269 105.793 18.8402C105.887 18.8402 105.96 18.8735 106.013 18.9402ZM103.433 17.0202L103.333 16.9802C103.293 16.9802 103.247 16.9735 103.193 16.9602C103.06 16.9602 102.92 16.9735 102.773 17.0002C102.36 17.1069 101.907 17.3802 101.413 17.8202L101.253 17.9802C101.6 17.8602 101.947 17.7269 102.293 17.5802C102.72 17.3935 103.093 17.2069 103.413 17.0202H103.433ZM112.478 18.9402C112.558 19.0735 112.518 19.2202 112.358 19.3802C112.145 19.5802 111.791 19.8469 111.298 20.1802L111.138 20.2802L110.958 20.4002C110.825 20.4935 110.698 20.5735 110.578 20.6402C110.245 20.8269 109.931 20.9735 109.638 21.0802C108.825 21.4002 108.031 21.4802 107.258 21.3202C106.711 21.2002 106.318 20.9202 106.078 20.4802C105.878 20.0935 105.845 19.7069 105.978 19.3202C105.778 19.4802 105.618 19.6002 105.498 19.6802C105.458 19.7069 105.398 19.7202 105.318 19.7202C105.251 19.7069 105.191 19.6735 105.138 19.6202C105.098 19.5669 105.085 19.5002 105.098 19.4202C105.111 19.3402 105.138 19.2802 105.178 19.2402C105.218 19.2002 105.291 19.1335 105.398 19.0402L105.478 18.9602L105.558 18.9002C105.625 18.8335 105.691 18.7735 105.758 18.7202C105.798 18.6935 105.911 18.6069 106.098 18.4602C106.151 18.4202 106.238 18.3469 106.358 18.2402L106.678 18.0002C107.238 17.5735 107.558 17.3269 107.638 17.2602C107.651 17.2469 107.678 17.2269 107.718 17.2002L107.798 17.1402L107.858 17.0802C107.991 16.9735 108.111 16.8869 108.218 16.8202C108.525 16.5935 108.711 16.4935 108.778 16.5202C109.471 16.0535 110.038 16.0335 110.478 16.4602C110.691 16.6735 110.678 16.8802 110.438 17.0802C110.171 17.3069 109.718 17.3535 109.078 17.2202C109.038 17.2469 108.938 17.3002 108.778 17.3802C108.685 17.4202 108.611 17.4602 108.558 17.5002C108.465 17.5535 108.378 17.6002 108.298 17.6402C107.845 17.9335 107.485 18.3002 107.218 18.7402C106.911 19.2469 106.805 19.6735 106.898 20.0202C106.991 20.3269 107.245 20.5269 107.658 20.6202C108.551 20.8335 109.611 20.5469 110.838 19.7602C111.171 19.5602 111.558 19.2802 111.998 18.9202C112.078 18.8535 112.165 18.8269 112.258 18.8402C112.351 18.8402 112.425 18.8735 112.478 18.9402ZM123.603 18.9402C123.696 19.0735 123.663 19.2202 123.503 19.3802L122.723 19.9802C122.496 20.1402 122.236 20.3069 121.943 20.4802C121.583 20.7069 121.243 20.8935 120.923 21.0402C120.056 21.4402 119.463 21.5202 119.143 21.2802C118.929 21.1202 118.903 20.8402 119.063 20.4402C119.116 20.2802 119.216 20.0735 119.363 19.8202L119.543 19.4802L119.763 19.1002C119.989 18.6869 120.156 18.3469 120.263 18.0802C120.303 17.9869 120.336 17.9002 120.363 17.8202C120.389 17.7669 120.403 17.7269 120.403 17.7002C119.763 17.6335 118.936 17.9802 117.923 18.7402C117.536 19.0335 117.136 19.3802 116.723 19.7802C116.389 20.1002 116.083 20.4269 115.803 20.7602C115.669 20.9202 115.523 20.9402 115.363 20.8202C115.189 20.7002 115.176 20.5202 115.323 20.2802L115.363 20.2202L115.443 20.1002C115.496 20.0069 115.556 19.9135 115.623 19.8202C115.783 19.5402 115.929 19.2869 116.063 19.0602C116.463 18.3269 116.643 17.8402 116.603 17.6002C116.389 17.5735 116.076 17.6802 115.663 17.9202C115.343 18.1069 114.983 18.3669 114.583 18.7002C114.276 18.9669 113.943 19.2802 113.583 19.6402C113.436 19.7735 113.289 19.9202 113.143 20.0802C113.036 20.1869 112.923 20.3002 112.803 20.4202L112.503 20.7602C112.423 20.8402 112.323 20.8402 112.203 20.7602C112.069 20.6935 112.029 20.6002 112.083 20.4802C112.083 20.3869 112.349 19.8602 112.883 18.9002L112.803 18.9802L112.703 19.0602C112.636 19.1269 112.596 19.1669 112.583 19.1802C112.289 19.4202 112.076 19.5869 111.943 19.6802C111.809 19.7602 111.683 19.7402 111.563 19.6202C111.523 19.5669 111.509 19.5002 111.523 19.4202C111.536 19.3535 111.563 19.2935 111.603 19.2402C111.643 19.2002 111.769 19.0935 111.983 18.9202C112.089 18.8269 112.189 18.7402 112.283 18.6602C112.403 18.5535 112.523 18.4469 112.643 18.3402C112.843 18.1535 113.069 17.9202 113.323 17.6402L113.463 17.5002L113.583 17.3602C113.676 17.2535 113.756 17.1735 113.823 17.1202C114.103 16.8269 114.316 16.7469 114.463 16.8802C114.569 16.9735 114.589 17.1002 114.523 17.2602C114.469 17.3935 114.216 17.8469 113.763 18.6202C114.843 17.6202 115.736 17.0869 116.443 17.0202C117.203 16.9935 117.383 17.4935 116.983 18.5202C117.849 17.7602 118.683 17.2669 119.483 17.0402C120.123 16.8669 120.589 16.8869 120.883 17.1002C121.229 17.3535 121.209 17.8669 120.823 18.6402C120.703 18.8669 120.516 19.1802 120.263 19.5802L120.123 19.8202L119.983 20.0402C119.889 20.1869 119.816 20.3135 119.763 20.4202L119.683 20.5802C119.656 20.6335 119.643 20.6802 119.643 20.7202C119.656 20.8002 119.776 20.8069 120.003 20.7402C120.283 20.6602 120.629 20.5135 121.043 20.3002C121.203 20.2202 121.369 20.1335 121.543 20.0402C121.663 19.9602 121.789 19.8802 121.923 19.8002C122.376 19.5069 122.776 19.2135 123.123 18.9202C123.203 18.8535 123.296 18.8269 123.403 18.8402C123.496 18.8402 123.563 18.8735 123.603 18.9402ZM130.116 18.9402C130.209 19.0735 130.176 19.2202 130.016 19.3802L129.876 19.5002L129.716 19.6202C129.582 19.7269 129.456 19.8202 129.336 19.9002C128.389 20.6069 127.396 20.8135 126.356 20.5202C125.542 21.1469 124.836 21.3002 124.236 20.9802C123.636 20.6735 123.462 20.0602 123.716 19.1402L123.496 19.3202L123.016 19.6802C122.962 19.7069 122.902 19.7202 122.836 19.7202C122.756 19.7069 122.689 19.6735 122.636 19.6202C122.596 19.5669 122.582 19.5002 122.596 19.4202C122.609 19.3535 122.636 19.2935 122.676 19.2402C122.716 19.2135 122.769 19.1669 122.836 19.1002L122.956 19.0002L123.076 18.9002C123.316 18.7002 123.556 18.4869 123.796 18.2602L124.516 17.5402C124.662 17.4202 124.796 17.4202 124.916 17.5402C125.329 16.7669 125.929 16.2935 126.716 16.1202C127.542 15.9335 128.029 16.2602 128.176 17.1002C128.282 17.7535 128.049 18.4869 127.476 19.3002C127.262 19.6069 127.076 19.8402 126.916 20.0002C127.182 20.0535 127.462 20.0535 127.756 20.0002C128.142 19.9202 128.536 19.7402 128.936 19.4602C129.202 19.2602 129.436 19.0802 129.636 18.9202C129.716 18.8535 129.809 18.8269 129.916 18.8402C130.009 18.8402 130.076 18.8735 130.116 18.9402ZM126.116 19.8402C126.636 19.3602 127.022 18.8069 127.276 18.1802C127.542 17.5402 127.542 17.1269 127.276 16.9402L127.236 16.9202L127.176 16.8802C127.109 16.8669 127.036 16.8535 126.956 16.8402C126.449 16.8135 126.016 17.0469 125.656 17.5402C125.282 18.0469 125.202 18.5735 125.416 19.1202C125.549 19.4402 125.782 19.6802 126.116 19.8402ZM124.776 20.5202C125.042 20.5069 125.322 20.4069 125.616 20.2202C125.376 20.0469 125.182 19.8602 125.036 19.6602C124.756 19.2469 124.636 18.8135 124.676 18.3602C124.289 19.0135 124.136 19.5602 124.216 20.0002C124.296 20.3735 124.482 20.5469 124.776 20.5202ZM137.578 18.9402C137.672 19.0735 137.638 19.2202 137.478 19.3802L137.318 19.5002L137.138 19.6402C136.992 19.7602 136.858 19.8669 136.738 19.9602L136.598 20.0602L136.438 20.1802L136.098 20.4002C135.805 20.5735 135.525 20.7135 135.258 20.8202C134.538 21.1135 133.845 21.1535 133.178 20.9402C132.512 21.3802 131.965 21.5402 131.538 21.4202C131.312 21.3535 131.152 21.2269 131.058 21.0402C130.978 20.8669 130.985 20.6869 131.078 20.5002C131.305 20.0469 131.865 19.9335 132.758 20.1602C132.865 20.1735 132.992 20.2069 133.138 20.2602C133.698 19.8069 134.132 19.2735 134.438 18.6602C134.745 18.0469 134.725 17.7269 134.378 17.7002C133.312 17.6869 132.058 18.5802 130.618 20.3802C129.685 22.6335 128.878 24.4535 128.198 25.8402C127.252 27.7735 126.612 28.7602 126.278 28.8002H126.158C125.905 28.7335 125.985 28.0735 126.398 26.8202C127.452 23.7535 128.765 21.3069 130.338 19.4802L130.498 19.1202L130.638 18.7802L130.658 18.7402V18.7002C130.392 18.9535 130.152 19.1669 129.938 19.3402C129.792 19.4602 129.645 19.5735 129.498 19.6802C129.445 19.7069 129.385 19.7202 129.318 19.7202C129.238 19.7069 129.172 19.6735 129.118 19.6202C129.078 19.5669 129.065 19.5002 129.078 19.4202C129.092 19.3535 129.118 19.2935 129.158 19.2402C129.198 19.2002 129.332 19.0869 129.558 18.9002C129.665 18.8069 129.772 18.7135 129.878 18.6202C130.012 18.5002 130.145 18.3802 130.278 18.2602C130.585 17.9802 130.945 17.5535 131.358 16.9802C131.465 16.8469 131.592 16.8269 131.738 16.9202C131.885 17.0135 131.925 17.1335 131.858 17.2802L131.838 17.3602L131.798 17.4402C131.772 17.5335 131.745 17.6135 131.718 17.6802C131.625 17.9202 131.532 18.1469 131.438 18.3602C132.158 17.7335 132.845 17.3069 133.498 17.0802C134.098 16.8669 134.572 16.8535 134.918 17.0402C135.252 17.2269 135.385 17.5669 135.318 18.0602C135.238 18.5935 134.912 19.2069 134.338 19.9002C134.192 20.0869 134.032 20.2535 133.858 20.4002C134.698 20.3735 135.525 20.0735 136.338 19.5002C136.578 19.3402 136.832 19.1469 137.098 18.9202C137.178 18.8535 137.272 18.8269 137.378 18.8402C137.472 18.8402 137.538 18.8735 137.578 18.9402ZM126.738 27.5002C127.232 26.6602 127.985 25.0669 128.998 22.7202C127.958 24.4402 127.205 26.0335 126.738 27.5002ZM131.898 20.8602C132.072 20.8335 132.238 20.7869 132.398 20.7202C132.265 20.6935 132.158 20.6802 132.078 20.6802H131.958L131.818 20.7002C131.698 20.7135 131.625 20.7469 131.598 20.8002C131.612 20.8135 131.652 20.8269 131.718 20.8402C131.785 20.8535 131.845 20.8602 131.898 20.8602ZM145.118 18.9402C145.211 19.0735 145.178 19.2202 145.018 19.3802C143.991 20.3002 143.011 20.8669 142.078 21.0802C141.118 21.3202 140.718 21.0269 140.878 20.2002C140.238 20.7069 139.631 20.9869 139.058 21.0402C138.431 21.0935 137.998 20.9402 137.758 20.5802C137.544 20.2469 137.531 19.8202 137.718 19.3002C137.518 19.4735 137.351 19.6002 137.218 19.6802C137.164 19.7069 137.104 19.7202 137.038 19.7202C136.971 19.7069 136.911 19.6735 136.858 19.6202C136.804 19.5669 136.784 19.5002 136.798 19.4202C136.811 19.3535 136.844 19.2935 136.898 19.2402C136.938 19.2002 137.011 19.1335 137.118 19.0402L137.198 18.9602L137.278 18.9002C137.344 18.8335 137.411 18.7735 137.478 18.7202C137.504 18.7069 137.538 18.6869 137.578 18.6602C137.618 18.6202 137.664 18.5802 137.718 18.5402C137.864 18.4335 137.998 18.3335 138.118 18.2402C138.478 17.9869 138.711 17.8335 138.818 17.7802C139.538 17.3935 140.171 17.1602 140.718 17.0802C141.238 17.0002 141.751 17.0002 142.258 17.0802C142.444 17.1069 142.531 17.2135 142.518 17.4002C142.491 17.6002 142.384 17.6935 142.198 17.6802C141.278 17.6269 140.371 17.8535 139.478 18.3602C138.878 18.7735 138.511 19.1735 138.378 19.5602C138.258 19.9069 138.351 20.1402 138.658 20.2602C138.978 20.3802 139.398 20.3202 139.918 20.0802C140.531 19.7869 141.144 19.2869 141.758 18.5802C142.064 18.1269 142.371 17.7269 142.678 17.3802C142.811 17.2469 142.951 17.2402 143.098 17.3602C143.231 17.4802 143.244 17.6135 143.138 17.7602L143.118 17.8002L143.098 17.8402C142.951 18.0269 142.738 18.3269 142.458 18.7402C142.124 19.2469 141.871 19.6535 141.698 19.9602C141.444 20.4402 141.538 20.6202 141.978 20.5002C142.151 20.4602 142.358 20.3802 142.598 20.2602C142.784 20.1669 142.971 20.0669 143.158 19.9602C143.424 19.8135 143.704 19.6269 143.998 19.4002C144.118 19.3202 144.238 19.2335 144.358 19.1402C144.451 19.0735 144.544 19.0002 144.638 18.9202C144.718 18.8535 144.804 18.8269 144.898 18.8402C144.991 18.8402 145.064 18.8735 145.118 18.9402ZM149.819 17.8602C150.086 17.4335 150.319 17.1135 150.519 16.9002C150.639 16.7669 150.773 16.7535 150.919 16.8602C151.066 16.9802 151.093 17.1135 150.999 17.2602C150.986 17.2735 150.966 17.3002 150.939 17.3402L150.899 17.4002L150.859 17.4802C150.779 17.6269 150.699 17.7669 150.619 17.9002C150.379 18.3002 150.166 18.6669 149.979 19.0002C149.419 20.0135 149.206 20.5469 149.339 20.6002C149.606 20.6935 150.066 20.5535 150.719 20.1802C151.319 19.8602 151.939 19.4402 152.579 18.9202C152.659 18.8535 152.753 18.8269 152.859 18.8402C152.953 18.8402 153.019 18.8735 153.059 18.9402C153.153 19.0735 153.119 19.2202 152.959 19.3802C152.746 19.5669 152.393 19.8335 151.899 20.1802C151.206 20.6735 150.613 21.0135 150.119 21.2002C149.479 21.4269 149.019 21.3869 148.739 21.0802C148.433 20.7469 148.506 20.1669 148.959 19.3402C147.759 20.1535 146.899 20.4535 146.379 20.2402C146.046 20.1069 145.893 19.8135 145.919 19.3602C145.866 19.4269 145.819 19.5002 145.779 19.5802L145.159 20.7602C145.026 20.8135 144.913 20.7935 144.819 20.7002C144.726 20.5935 144.706 20.4535 144.759 20.2802C144.813 20.1069 145.019 19.7002 145.379 19.0602C145.206 19.2069 145.046 19.3402 144.899 19.4602C144.846 19.5002 144.786 19.5402 144.719 19.5802L144.579 19.6802C144.539 19.7069 144.479 19.7202 144.399 19.7202C144.333 19.7069 144.273 19.6735 144.219 19.6202C144.179 19.5669 144.166 19.5002 144.179 19.4202C144.193 19.3535 144.219 19.2935 144.259 19.2402C144.299 19.2002 144.386 19.1269 144.519 19.0202C144.586 18.9535 144.646 18.9002 144.699 18.8602C144.779 18.7935 144.853 18.7269 144.919 18.6602C144.946 18.6469 144.973 18.6202 144.999 18.5802C145.039 18.5535 145.086 18.5135 145.139 18.4602C145.259 18.3535 145.393 18.2335 145.539 18.1002C145.939 17.7135 146.326 17.3135 146.699 16.9002C146.833 16.7669 146.973 16.7602 147.119 16.8802C147.266 17.0002 147.286 17.1269 147.179 17.2602C147.086 17.4069 146.999 17.5535 146.919 17.7002L146.959 17.6602C146.626 18.5269 146.493 19.1802 146.559 19.6202C146.599 19.7135 146.753 19.7335 147.019 19.6802C147.313 19.6002 147.666 19.4402 148.079 19.2002C148.639 18.8535 149.219 18.4069 149.819 17.8602Z" fill="#FEFAEF"/>
<path d="M98 74.46V69.48H100.952V70.272H98.864V74.46H98ZM100.929 73.98C100.929 73.656 101.205 73.38 101.529 73.38C101.853 73.38 102.129 73.656 102.129 73.98C102.129 74.304 101.853 74.58 101.529 74.58C101.205 74.58 100.929 74.304 100.929 73.98Z" fill="white"/>
</g>
<path d="M83.8745 52.968C83.7572 52.968 83.6252 52.8727 83.4785 52.682C83.3319 52.4913 83.2659 52.308 83.2805 52.132C83.2952 51.8973 83.3612 51.56 83.4785 51.12C83.5959 50.68 83.7279 50.2327 83.8745 49.778C84.0212 49.3233 84.1532 48.964 84.2705 48.7C84.3292 48.4653 84.3805 48.26 84.4245 48.084C84.4832 47.8933 84.5199 47.7687 84.5345 47.71C84.5785 47.6513 84.6445 47.4973 84.7325 47.248C84.8352 46.9987 84.9159 46.7567 84.9745 46.522C85.0039 46.4047 85.0625 46.1847 85.1505 45.862C85.2532 45.5247 85.3705 45.136 85.5025 44.696C85.6492 44.256 85.7885 43.8233 85.9205 43.398C86.0672 42.9727 86.1919 42.5987 86.2945 42.276C86.3972 41.9533 86.4632 41.7407 86.4925 41.638C86.6099 41.462 86.6979 41.2933 86.7565 41.132C86.8152 40.9707 86.8519 40.8607 86.8665 40.802C86.9545 40.7433 87.0059 40.67 87.0205 40.582C87.0352 40.4793 87.0425 40.3987 87.0425 40.34C87.0425 40.2667 87.0645 40.208 87.1085 40.164C87.1672 40.12 87.1965 40.0687 87.1965 40.01C87.2552 39.966 87.2919 39.9 87.3065 39.812C87.3212 39.7093 87.3652 39.6213 87.4385 39.548L87.5485 39.174L88.8465 39.152C88.8172 39.328 88.7732 39.548 88.7145 39.812C88.6559 40.0613 88.5165 40.3987 88.2965 40.824C88.2232 41.1173 88.1352 41.3813 88.0325 41.616C87.9445 41.8507 87.9079 42.0047 87.9225 42.078C87.8932 42.1073 87.8272 42.254 87.7245 42.518C87.6365 42.782 87.5265 43.1047 87.3945 43.486C87.2772 43.8673 87.1525 44.2487 87.0205 44.63C86.9032 45.0113 86.7932 45.3487 86.6905 45.642C86.6025 45.9207 86.5439 46.0967 86.5145 46.17C86.3972 46.4047 86.2652 46.7493 86.1185 47.204C85.9719 47.6587 85.7519 48.2747 85.4585 49.052C85.3412 49.2867 85.1945 49.6387 85.0185 50.108C84.8572 50.5773 84.7252 51.0027 84.6225 51.384C84.4612 51.956 84.3439 52.352 84.2705 52.572C84.2119 52.8067 84.1605 52.9313 84.1165 52.946C84.0725 52.9753 83.9919 52.9827 83.8745 52.968ZM84.0505 39.856C83.6399 39.8707 83.3319 39.8487 83.1265 39.79C82.9359 39.7313 82.8699 39.5847 82.9285 39.35C82.9725 39.174 83.0679 39.042 83.2145 38.954C83.3612 38.866 83.5739 38.8 83.8525 38.756C84.0139 38.7267 84.2192 38.69 84.4685 38.646C84.7325 38.602 84.9819 38.558 85.2165 38.514C85.7005 38.4553 86.0965 38.404 86.4045 38.36C86.7272 38.316 87.0572 38.2793 87.3945 38.25C87.7319 38.2207 88.1572 38.1913 88.6705 38.162C89.0959 38.1327 89.4552 38.1107 89.7485 38.096C90.0565 38.0667 90.2105 38.052 90.2105 38.052C90.2545 38.052 90.4085 38.0667 90.6725 38.096C90.9365 38.1253 91.2225 38.162 91.5305 38.206C91.8385 38.25 92.0659 38.3013 92.2125 38.36C92.5499 38.4333 92.7919 38.536 92.9385 38.668C93.0999 38.8 93.2099 38.9907 93.2685 39.24C93.3125 39.416 93.3125 39.526 93.2685 39.57C93.2245 39.5993 93.1439 39.6433 93.0265 39.702C92.6892 39.8047 92.4399 39.856 92.2785 39.856C92.1172 39.856 91.9339 39.8193 91.7285 39.746C91.6552 39.6727 91.5672 39.6067 91.4645 39.548C91.3765 39.4893 91.2152 39.4453 90.9805 39.416C90.7605 39.372 90.4085 39.3353 89.9245 39.306C89.5139 39.35 89.1545 39.372 88.8465 39.372C88.5385 39.372 88.3845 39.4087 88.3845 39.482L87.0865 39.548L86.0085 39.658C85.8619 39.6727 85.6565 39.6947 85.3925 39.724C85.1285 39.7387 84.8719 39.7607 84.6225 39.79C84.3732 39.8047 84.1825 39.8267 84.0505 39.856ZM89.5981 51.208C89.5395 51.0907 89.4661 51.0027 89.3781 50.944C89.2901 50.8707 89.2461 50.8047 89.2461 50.746C89.2461 50.6873 89.2388 50.6287 89.2241 50.57C89.2241 50.4967 89.1948 50.4307 89.1361 50.372C89.0628 50.284 89.0701 50.086 89.1581 49.778C89.2461 49.4553 89.3928 49.0667 89.5981 48.612C89.8035 48.1427 90.0455 47.6513 90.3241 47.138C90.4415 47.0207 90.5588 46.8667 90.6761 46.676C90.7935 46.4853 90.8815 46.3607 90.9401 46.302C90.9401 46.2433 90.9621 46.192 91.0061 46.148C91.0501 46.0893 91.1015 46.06 91.1601 46.06V45.928C91.1601 45.8547 91.2261 45.73 91.3581 45.554C91.5048 45.378 91.6808 45.1873 91.8861 44.982C92.0915 44.762 92.3041 44.5567 92.5241 44.366C92.7441 44.1607 92.9275 44.014 93.0741 43.926C93.3821 43.7207 93.6975 43.596 94.0201 43.552C94.3575 43.508 94.6435 43.5813 94.8781 43.772C94.9221 43.816 94.9955 43.8893 95.0981 43.992C95.2008 44.0947 95.3181 44.212 95.4501 44.344C95.5968 44.4613 95.7435 44.586 95.8901 44.718L96.7041 45.444L96.3081 46.544C96.1175 47.1307 96.0661 47.644 96.1541 48.084C96.2568 48.524 96.4035 48.9053 96.5941 49.228C96.6675 49.3893 96.8141 49.5433 97.0341 49.69C97.2688 49.8367 97.4888 49.9247 97.6941 49.954C97.8115 49.9687 97.9215 50.0127 98.0241 50.086C98.1268 50.1593 98.1781 50.2767 98.1781 50.438C98.1781 50.5847 98.1488 50.702 98.0901 50.79C98.0315 50.878 97.9288 50.9367 97.7821 50.966C97.2981 51.0247 96.8435 50.9073 96.4181 50.614C96.0075 50.3207 95.6261 49.8367 95.2741 49.162C95.2155 49.074 95.1348 48.9127 95.0321 48.678C94.9441 48.4287 94.8928 48.2673 94.8781 48.194C94.8195 48.2673 94.7095 48.4067 94.5481 48.612C94.3868 48.8027 94.2621 48.942 94.1741 49.03C93.1328 50.086 92.2308 50.7973 91.4681 51.164C90.7201 51.516 90.0968 51.5307 89.5981 51.208ZM90.3901 49.976C90.3901 50.0787 90.5441 50.0787 90.8521 49.976C91.1748 49.8587 91.5195 49.6533 91.8861 49.36C92.3848 48.9347 92.8835 48.4653 93.3821 47.952C93.8955 47.4387 94.3061 46.962 94.6141 46.522L95.0981 45.73C94.9515 45.3927 94.7901 45.1653 94.6141 45.048C94.4528 44.916 94.3135 44.85 94.1961 44.85C94.0055 44.85 93.7195 45.026 93.3381 45.378C92.9715 45.73 92.5755 46.1993 92.1501 46.786C91.7248 47.3727 91.3215 48.018 90.9401 48.722C90.7935 49.0153 90.6615 49.3013 90.5441 49.58C90.4415 49.844 90.3901 49.976 90.3901 49.976ZM99.1577 51.956C99.1137 51.8973 99.0697 51.8533 99.0257 51.824C98.9817 51.78 98.9303 51.736 98.8717 51.692C98.8277 51.6333 98.7543 51.56 98.6517 51.472C98.637 51.296 98.659 51.054 98.7177 50.746C98.791 50.438 98.8717 50.13 98.9597 49.822C99.0477 49.514 99.121 49.2867 99.1797 49.14C99.1797 49.14 99.2163 49.0153 99.2897 48.766C99.3777 48.5167 99.4803 48.216 99.5977 47.864C99.715 47.4973 99.8323 47.138 99.9497 46.786C100.082 46.4193 100.184 46.1187 100.258 45.884C100.346 45.6347 100.39 45.51 100.39 45.51C100.419 45.4513 100.434 45.3927 100.434 45.334C100.434 45.2607 100.434 45.1727 100.434 45.07C100.39 44.806 100.412 44.608 100.5 44.476C100.602 44.344 100.683 44.2047 100.742 44.058C100.903 44.0727 101.013 44.0727 101.072 44.058C101.145 44.0433 101.226 44.058 101.314 44.102C101.416 44.1167 101.614 44.102 101.908 44.058C102.201 44.014 102.494 43.9553 102.788 43.882C103.096 43.8087 103.301 43.75 103.404 43.706C103.609 43.706 103.807 43.6987 103.998 43.684C104.203 43.6693 104.401 43.6767 104.592 43.706C104.841 43.706 105.061 43.794 105.252 43.97C105.442 44.146 105.574 44.2853 105.648 44.388C105.618 44.4467 105.582 44.5053 105.538 44.564C105.508 44.608 105.479 44.652 105.45 44.696C105.42 44.74 105.384 44.784 105.34 44.828C105.252 44.828 105.068 44.828 104.79 44.828C104.511 44.828 104.21 44.8427 103.888 44.872C103.58 44.9013 103.323 44.9527 103.118 45.026C102.927 45.0847 102.722 45.1213 102.502 45.136C102.296 45.136 102.106 45.1727 101.93 45.246C101.856 45.3193 101.783 45.466 101.71 45.686C101.636 45.906 101.57 46.1333 101.512 46.368C101.453 46.6027 101.402 46.7787 101.358 46.896C101.358 46.8813 101.314 46.984 101.226 47.204C101.152 47.424 101.064 47.6733 100.962 47.952C100.874 48.2307 100.8 48.458 100.742 48.634C100.683 48.722 100.61 48.8907 100.522 49.14C100.434 49.3893 100.353 49.6387 100.28 49.888C100.206 50.1373 100.155 50.3207 100.126 50.438C100.067 50.702 99.9937 50.966 99.9057 51.23C99.8177 51.4793 99.7077 51.7287 99.5757 51.978C99.517 51.978 99.451 51.978 99.3777 51.978C99.3043 51.9633 99.231 51.956 99.1577 51.956ZM107.084 51.362C106.966 51.3913 106.812 51.406 106.622 51.406C106.431 51.3913 106.262 51.3693 106.116 51.34C105.984 51.296 105.918 51.252 105.918 51.208C105.918 51.1347 105.881 51.098 105.808 51.098C105.808 51.098 105.771 51.0687 105.698 51.01C105.639 50.9513 105.544 50.8927 105.412 50.834C105.28 50.6287 105.214 50.4087 105.214 50.174C105.214 49.9247 105.28 49.536 105.412 49.008C105.456 48.6413 105.595 48.216 105.83 47.732C106.079 47.2333 106.38 46.7273 106.732 46.214C107.084 45.7007 107.45 45.2387 107.832 44.828C108.228 44.4173 108.587 44.1167 108.91 43.926C109.115 43.7207 109.364 43.6107 109.658 43.596C109.951 43.5813 110.23 43.6473 110.494 43.794C110.64 43.8673 110.787 43.9847 110.934 44.146C111.08 44.3073 111.22 44.4833 111.352 44.674C111.484 44.8647 111.594 45.0553 111.682 45.246C111.726 45.4073 111.748 45.554 111.748 45.686C111.762 45.8033 111.762 45.95 111.748 46.126C111.748 46.302 111.726 46.566 111.682 46.918C111.608 47.182 111.542 47.5047 111.484 47.886C111.44 48.2673 111.418 48.5973 111.418 48.876C111.388 49.1547 111.418 49.3527 111.506 49.47C111.608 49.5873 111.755 49.5947 111.946 49.492C112.122 49.404 112.29 49.3673 112.452 49.382C112.613 49.382 112.738 49.426 112.826 49.514C112.928 49.602 112.98 49.734 112.98 49.91C112.98 50.086 112.892 50.2693 112.716 50.46C112.554 50.636 112.349 50.79 112.1 50.922C111.865 51.0393 111.638 51.098 111.418 51.098C111.256 51.098 111.102 51.0027 110.956 50.812C110.809 50.6067 110.677 50.3647 110.56 50.086C110.457 49.7927 110.362 49.514 110.274 49.25L110.142 48.744L109.196 49.646C109.005 49.8513 108.814 50.042 108.624 50.218C108.448 50.3793 108.338 50.4967 108.294 50.57C108.22 50.702 108.081 50.834 107.876 50.966C107.685 51.098 107.421 51.23 107.084 51.362ZM107.15 50.064C107.399 49.9173 107.685 49.7047 108.008 49.426C108.33 49.1327 108.646 48.8173 108.954 48.48C109.262 48.128 109.518 47.8053 109.724 47.512C109.973 47.1747 110.164 46.8593 110.296 46.566C110.428 46.2727 110.523 45.994 110.582 45.73C110.523 45.5687 110.428 45.4 110.296 45.224C110.164 45.0333 110.046 44.9307 109.944 44.916C109.621 44.916 109.276 45.1213 108.91 45.532C108.558 45.928 108.213 46.3607 107.876 46.83C107.817 46.9033 107.736 47.0207 107.634 47.182C107.531 47.3433 107.428 47.4973 107.326 47.644C107.238 47.776 107.179 47.864 107.15 47.908C107.106 47.9667 107.018 48.1353 106.886 48.414C106.768 48.678 106.651 48.9493 106.534 49.228C106.416 49.492 106.358 49.668 106.358 49.756C106.358 49.844 106.365 49.9393 106.38 50.042C106.409 50.1447 106.482 50.2107 106.6 50.24C106.717 50.2693 106.9 50.2107 107.15 50.064ZM119.302 51.956C119.199 52.0147 119.06 51.9927 118.884 51.89C118.722 51.7873 118.561 51.6333 118.4 51.428C118.297 51.252 118.224 51.0613 118.18 50.856C118.15 50.6507 118.136 50.3647 118.136 49.998C118.15 49.7047 118.136 49.514 118.092 49.426C118.062 49.338 117.982 49.3527 117.85 49.47C117.718 49.5727 117.49 49.7853 117.168 50.108C116.801 50.4747 116.449 50.7607 116.112 50.966C115.789 51.1713 115.525 51.2667 115.32 51.252C115.217 51.252 115.1 51.2007 114.968 51.098C114.85 50.9807 114.74 50.8413 114.638 50.68C114.535 50.504 114.447 50.328 114.374 50.152C114.286 49.8293 114.271 49.4187 114.33 48.92C114.403 48.4067 114.52 47.8713 114.682 47.314C114.843 46.7567 115.026 46.2287 115.232 45.73C115.452 45.2313 115.672 44.828 115.892 44.52C116.126 44.212 116.332 44.058 116.508 44.058C116.625 44.058 116.728 44.1167 116.816 44.234C116.918 44.3513 117.021 44.5347 117.124 44.784C117.182 44.8867 117.204 44.9747 117.19 45.048C117.19 45.1213 117.131 45.2093 117.014 45.312C116.882 45.488 116.728 45.752 116.552 46.104C116.39 46.456 116.229 46.8373 116.068 47.248C115.921 47.6587 115.789 48.0547 115.672 48.436C115.554 48.8173 115.474 49.1327 115.43 49.382C115.386 49.6167 115.393 49.734 115.452 49.734C115.657 49.734 115.899 49.6533 116.178 49.492C116.471 49.316 116.75 49.1033 117.014 48.854C117.322 48.546 117.593 48.2087 117.828 47.842C118.077 47.4753 118.326 47.0867 118.576 46.676C118.766 46.3827 118.964 46.06 119.17 45.708C119.39 45.356 119.529 45.1067 119.588 44.96C119.793 44.5787 119.947 44.322 120.05 44.19C120.152 44.0433 120.277 43.948 120.424 43.904C120.497 43.904 120.563 43.904 120.622 43.904C120.695 43.904 120.732 43.904 120.732 43.904C120.82 43.9187 120.922 43.9847 121.04 44.102C121.157 44.1607 121.223 44.2193 121.238 44.278C121.252 44.322 121.26 44.3807 121.26 44.454C121.201 44.6007 121.106 44.8207 120.974 45.114C120.856 45.3927 120.768 45.598 120.71 45.73C120.431 46.3607 120.152 46.984 119.874 47.6C119.61 48.2013 119.419 48.8173 119.302 49.448C119.272 49.6533 119.265 49.8953 119.28 50.174C119.309 50.438 119.353 50.6287 119.412 50.746C119.456 50.834 119.507 50.9367 119.566 51.054C119.639 51.1567 119.72 51.2447 119.808 51.318C119.94 51.406 119.962 51.5013 119.874 51.604C119.8 51.7067 119.698 51.7947 119.566 51.868C119.434 51.9267 119.346 51.956 119.302 51.956ZM119.016 42.826C118.561 42.8847 118.18 42.7527 117.872 42.43C117.564 42.1073 117.329 41.6307 117.168 41C117.138 40.8827 117.124 40.78 117.124 40.692C117.138 40.5893 117.168 40.5013 117.212 40.428C117.241 40.3693 117.3 40.3253 117.388 40.296C117.476 40.252 117.549 40.2447 117.608 40.274C117.813 40.3473 117.96 40.4427 118.048 40.56C118.15 40.6627 118.216 40.7947 118.246 40.956C118.275 41.0293 118.29 41.1027 118.29 41.176C118.304 41.2493 118.312 41.2787 118.312 41.264C118.385 41.4987 118.48 41.66 118.598 41.748C118.715 41.836 118.891 41.8287 119.126 41.726C119.375 41.6233 119.617 41.506 119.852 41.374C120.101 41.242 120.321 41.0807 120.512 40.89C120.673 40.7287 120.827 40.582 120.974 40.45C121.135 40.318 121.289 40.1787 121.436 40.032L121.458 40.01C121.516 39.966 121.59 39.9513 121.678 39.966C121.766 39.9807 121.817 40.0027 121.832 40.032C121.934 40.1347 121.986 40.2373 121.986 40.34C121.986 40.4427 121.986 40.5527 121.986 40.67L121.964 40.714C121.993 40.802 121.92 40.9707 121.744 41.22C121.582 41.4693 121.384 41.682 121.15 41.858C120.944 42.0193 120.724 42.166 120.49 42.298C120.255 42.43 120.013 42.5547 119.764 42.672C119.661 42.7307 119.551 42.7673 119.434 42.782C119.331 42.782 119.192 42.7967 119.016 42.826ZM130.746 52.022C130.599 52.0367 130.379 52 130.086 51.912C129.807 51.8093 129.616 51.7067 129.514 51.604C129.411 51.4573 129.316 51.2813 129.228 51.076C129.154 50.8707 129.096 50.6873 129.052 50.526C129.022 50.35 129.008 50.2473 129.008 50.218L129.272 48.392C129.345 48.26 129.382 48.1207 129.382 47.974C129.396 47.8273 129.433 47.688 129.492 47.556C129.477 47.4827 129.499 47.336 129.558 47.116C129.631 46.8813 129.712 46.6247 129.8 46.346C129.902 46.0527 129.998 45.7887 130.086 45.554C130.174 45.3047 130.225 45.1433 130.24 45.07C130.298 44.85 130.379 44.63 130.482 44.41C130.584 44.19 130.68 43.97 130.768 43.75C130.885 43.3687 130.973 43.09 131.032 42.914C131.09 42.738 131.142 42.5987 131.186 42.496C131.244 42.3933 131.31 42.276 131.384 42.144C131.457 41.9973 131.56 41.7773 131.692 41.484L132.99 38.536C132.843 38.4627 132.711 38.3233 132.594 38.118C132.476 37.898 132.418 37.7 132.418 37.524C132.403 37.436 132.418 37.3773 132.462 37.348C132.506 37.304 132.579 37.26 132.682 37.216C132.843 37.216 133.012 37.2087 133.188 37.194C133.364 37.1793 133.54 37.1867 133.716 37.216C133.848 37.2307 133.936 37.2233 133.98 37.194C134.024 37.15 134.112 37.1427 134.244 37.172C134.376 37.216 134.508 37.2307 134.64 37.216C134.786 37.2013 134.911 37.1647 135.014 37.106C135.058 37.106 135.19 37.0987 135.41 37.084C135.63 37.0693 135.872 37.0547 136.136 37.04C136.414 37.0253 136.656 37.0107 136.862 36.996C137.082 36.9813 137.214 36.974 137.258 36.974C137.243 36.974 137.338 36.9667 137.544 36.952C137.764 36.9373 138.02 36.9227 138.314 36.908C138.607 36.8787 138.871 36.8567 139.106 36.842C139.34 36.8127 139.472 36.7907 139.502 36.776C139.81 36.7027 140.022 36.732 140.14 36.864C140.257 36.996 140.345 37.1207 140.404 37.238C140.433 37.3113 140.47 37.392 140.514 37.48C140.558 37.5533 140.587 37.6193 140.602 37.678C140.631 37.722 140.624 37.7513 140.58 37.766C140.506 37.8687 140.404 37.942 140.272 37.986C140.154 38.03 140.015 38.0227 139.854 37.964C139.795 37.9493 139.582 37.9493 139.216 37.964C138.849 37.9787 138.402 38.008 137.874 38.052C137.36 38.096 136.832 38.1473 136.29 38.206C135.762 38.25 135.3 38.294 134.904 38.338C134.757 38.426 134.632 38.5433 134.53 38.69C134.427 38.822 134.332 38.9687 134.244 39.13C134.2 39.218 134.097 39.4233 133.936 39.746C133.789 40.0687 133.628 40.4207 133.452 40.802C133.276 41.1833 133.129 41.5133 133.012 41.792C132.894 42.056 132.836 42.1807 132.836 42.166C132.718 42.3273 132.748 42.4227 132.924 42.452C133.114 42.4813 133.276 42.496 133.408 42.496C133.525 42.496 133.642 42.5253 133.76 42.584C133.892 42.628 134.016 42.6427 134.134 42.628C134.207 42.6133 134.346 42.6353 134.552 42.694C134.772 42.738 135.006 42.804 135.256 42.892C135.52 42.9653 135.754 43.046 135.96 43.134C136.18 43.2073 136.334 43.2733 136.422 43.332C136.759 43.5373 137.052 43.7427 137.302 43.948C137.551 44.1533 137.749 44.4027 137.896 44.696C138.042 44.9893 138.167 45.29 138.27 45.598C138.372 45.906 138.409 46.2287 138.38 46.566C138.38 46.6393 138.358 46.7933 138.314 47.028C138.284 47.248 138.24 47.4753 138.182 47.71C138.123 47.9447 138.057 48.1207 137.984 48.238C137.808 48.5313 137.617 48.81 137.412 49.074C137.221 49.3233 137.045 49.5433 136.884 49.734C136.649 50.0273 136.37 50.2767 136.048 50.482C135.74 50.6727 135.417 50.8487 135.08 51.01C134.816 51.142 134.61 51.2447 134.464 51.318C134.332 51.3767 134.207 51.4207 134.09 51.45C133.972 51.4793 133.811 51.516 133.606 51.56C133.62 51.56 133.547 51.582 133.386 51.626C133.224 51.6553 133.063 51.692 132.902 51.736C132.74 51.78 132.66 51.802 132.66 51.802C132.469 51.9047 132.271 51.9707 132.066 52C131.86 52.0147 131.655 52.022 131.45 52.022C131.332 52.022 131.215 52.0147 131.098 52C130.98 52 130.863 52.0073 130.746 52.022ZM130.548 50.856C130.768 50.8413 130.995 50.834 131.23 50.834C131.464 50.834 131.699 50.8047 131.934 50.746C132.667 50.5407 133.349 50.3207 133.98 50.086C134.625 49.8513 135.212 49.4407 135.74 48.854C136.106 48.4287 136.378 48.0327 136.554 47.666C136.744 47.2993 136.891 46.8813 136.994 46.412C137.052 46.1773 137.052 45.9647 136.994 45.774C136.935 45.5687 136.884 45.3267 136.84 45.048C136.708 44.74 136.583 44.5347 136.466 44.432C136.348 44.3147 136.231 44.2413 136.114 44.212C135.996 44.1827 135.879 44.1387 135.762 44.08C135.571 43.9187 135.3 43.8087 134.948 43.75C134.596 43.6913 134.354 43.6547 134.222 43.64C134.31 43.6547 134.288 43.6547 134.156 43.64C134.038 43.6107 133.862 43.5813 133.628 43.552C133.393 43.508 133.158 43.4713 132.924 43.442C132.689 43.4127 132.506 43.398 132.374 43.398C132.271 43.6327 132.161 43.8893 132.044 44.168C131.941 44.4467 131.831 44.7253 131.714 45.004C131.611 45.268 131.516 45.532 131.428 45.796C131.281 46.2213 131.142 46.654 131.01 47.094C130.878 47.5193 130.753 47.952 130.636 48.392C130.577 48.6413 130.518 48.942 130.46 49.294C130.401 49.646 130.372 49.976 130.372 50.284C130.386 50.5773 130.445 50.768 130.548 50.856ZM144.997 51.956C144.85 51.8093 144.704 51.6113 144.557 51.362C144.41 51.098 144.293 50.7973 144.205 50.46C144.176 50.3427 144.161 50.1813 144.161 49.976C144.176 49.7707 144.176 49.624 144.161 49.536C144.117 49.6387 144.044 49.7487 143.941 49.866C143.853 49.9687 143.765 50.0567 143.677 50.13C143.618 50.1887 143.486 50.306 143.281 50.482C143.076 50.6433 142.87 50.7753 142.665 50.878C142.181 51.186 141.778 51.3547 141.455 51.384C141.147 51.4133 140.854 51.252 140.575 50.9C140.34 50.7093 140.172 50.4967 140.069 50.262C139.981 50.0273 139.981 49.7047 140.069 49.294C140.098 48.7807 140.172 48.282 140.289 47.798C140.406 47.2993 140.648 46.6393 141.015 45.818C141.323 45.2167 141.558 44.7767 141.719 44.498C141.88 44.2047 141.983 44.0287 142.027 43.97C142.247 43.8967 142.43 43.904 142.577 43.992C142.724 44.0653 142.812 44.2047 142.841 44.41C142.929 44.5567 142.914 44.806 142.797 45.158C142.694 45.51 142.511 45.9427 142.247 46.456C142.042 46.9547 141.851 47.4533 141.675 47.952C141.514 48.4507 141.418 48.876 141.389 49.228C141.36 49.58 141.448 49.7927 141.653 49.866C141.785 49.9393 142.012 49.9173 142.335 49.8C142.672 49.6827 143.046 49.3893 143.457 48.92C143.882 48.4507 144.293 47.7393 144.689 46.786C144.806 46.4927 144.894 46.236 144.953 46.016C145.012 45.7813 145.048 45.5247 145.063 45.246C145.034 45.07 145.041 44.916 145.085 44.784C145.144 44.6373 145.261 44.5127 145.437 44.41C145.496 44.3367 145.576 44.2707 145.679 44.212C145.782 44.1387 145.848 44.1387 145.877 44.212L146.229 44.19C146.288 44.1753 146.324 44.212 146.339 44.3C146.368 44.3733 146.42 44.4393 146.493 44.498C146.654 44.63 146.698 44.916 146.625 45.356C146.552 45.796 146.346 46.412 146.009 47.204C145.73 47.8053 145.54 48.26 145.437 48.568C145.349 48.876 145.298 49.1767 145.283 49.47C145.283 49.734 145.334 49.9833 145.437 50.218C145.54 50.4527 145.701 50.6653 145.921 50.856C146.082 50.9587 146.17 51.076 146.185 51.208C146.214 51.34 146.222 51.494 146.207 51.67C146.178 51.802 146.09 51.912 145.943 52C145.811 52.0733 145.657 52.11 145.481 52.11C145.305 52.11 145.144 52.0587 144.997 51.956ZM153.14 51.956C153.037 52.0147 152.898 51.9927 152.722 51.89C152.56 51.7873 152.399 51.6333 152.238 51.428C152.135 51.252 152.062 51.0613 152.018 50.856C151.988 50.6507 151.974 50.3647 151.974 49.998C151.988 49.7047 151.974 49.514 151.93 49.426C151.9 49.338 151.82 49.3527 151.688 49.47C151.556 49.5727 151.328 49.7853 151.006 50.108C150.639 50.4747 150.287 50.7607 149.95 50.966C149.627 51.1713 149.363 51.2667 149.158 51.252C149.055 51.252 148.938 51.2007 148.806 51.098C148.688 50.9807 148.578 50.8413 148.476 50.68C148.373 50.504 148.285 50.328 148.212 50.152C148.124 49.8293 148.109 49.4187 148.168 48.92C148.241 48.4067 148.358 47.8713 148.52 47.314C148.681 46.7567 148.864 46.2287 149.07 45.73C149.29 45.2313 149.51 44.828 149.73 44.52C149.964 44.212 150.17 44.058 150.346 44.058C150.463 44.058 150.566 44.1167 150.654 44.234C150.756 44.3513 150.859 44.5347 150.962 44.784C151.02 44.8867 151.042 44.9747 151.028 45.048C151.028 45.1213 150.969 45.2093 150.852 45.312C150.72 45.488 150.566 45.752 150.39 46.104C150.228 46.456 150.067 46.8373 149.906 47.248C149.759 47.6587 149.627 48.0547 149.51 48.436C149.392 48.8173 149.312 49.1327 149.268 49.382C149.224 49.6167 149.231 49.734 149.29 49.734C149.495 49.734 149.737 49.6533 150.016 49.492C150.309 49.316 150.588 49.1033 150.852 48.854C151.16 48.546 151.431 48.2087 151.666 47.842C151.915 47.4753 152.164 47.0867 152.414 46.676C152.604 46.3827 152.802 46.06 153.008 45.708C153.228 45.356 153.367 45.1067 153.426 44.96C153.631 44.5787 153.785 44.322 153.888 44.19C153.99 44.0433 154.115 43.948 154.262 43.904C154.335 43.904 154.401 43.904 154.46 43.904C154.533 43.904 154.57 43.904 154.57 43.904C154.658 43.9187 154.76 43.9847 154.878 44.102C154.995 44.1607 155.061 44.2193 155.076 44.278C155.09 44.322 155.098 44.3807 155.098 44.454C155.039 44.6007 154.944 44.8207 154.812 45.114C154.694 45.3927 154.606 45.598 154.548 45.73C154.269 46.3607 153.99 46.984 153.712 47.6C153.448 48.2013 153.257 48.8173 153.14 49.448C153.11 49.6533 153.103 49.8953 153.118 50.174C153.147 50.438 153.191 50.6287 153.25 50.746C153.294 50.834 153.345 50.9367 153.404 51.054C153.477 51.1567 153.558 51.2447 153.646 51.318C153.778 51.406 153.8 51.5013 153.712 51.604C153.638 51.7067 153.536 51.7947 153.404 51.868C153.272 51.9267 153.184 51.956 153.14 51.956ZM152.854 42.826C152.399 42.8847 152.018 42.7527 151.71 42.43C151.402 42.1073 151.167 41.6307 151.006 41C150.976 40.8827 150.962 40.78 150.962 40.692C150.976 40.5893 151.006 40.5013 151.05 40.428C151.079 40.3693 151.138 40.3253 151.226 40.296C151.314 40.252 151.387 40.2447 151.446 40.274C151.651 40.3473 151.798 40.4427 151.886 40.56C151.988 40.6627 152.054 40.7947 152.084 40.956C152.113 41.0293 152.128 41.1027 152.128 41.176C152.142 41.2493 152.15 41.2787 152.15 41.264C152.223 41.4987 152.318 41.66 152.436 41.748C152.553 41.836 152.729 41.8287 152.964 41.726C153.213 41.6233 153.455 41.506 153.69 41.374C153.939 41.242 154.159 41.0807 154.35 40.89C154.511 40.7287 154.665 40.582 154.812 40.45C154.973 40.318 155.127 40.1787 155.274 40.032L155.296 40.01C155.354 39.966 155.428 39.9513 155.516 39.966C155.604 39.9807 155.655 40.0027 155.67 40.032C155.772 40.1347 155.824 40.2373 155.824 40.34C155.824 40.4427 155.824 40.5527 155.824 40.67L155.802 40.714C155.831 40.802 155.758 40.9707 155.582 41.22C155.42 41.4693 155.222 41.682 154.988 41.858C154.782 42.0193 154.562 42.166 154.328 42.298C154.093 42.43 153.851 42.5547 153.602 42.672C153.499 42.7307 153.389 42.7673 153.272 42.782C153.169 42.782 153.03 42.7967 152.854 42.826Z" fill="white"/>
<path d="M105.389 75.018C105.269 75.03 105.089 75 104.849 74.928C104.621 74.844 104.465 74.76 104.381 74.676C104.297 74.556 104.219 74.412 104.147 74.244C104.087 74.076 104.039 73.926 104.003 73.794C103.979 73.65 103.967 73.566 103.967 73.542L104.183 72.048C104.243 71.94 104.273 71.826 104.273 71.706C104.285 71.586 104.315 71.472 104.363 71.364C104.351 71.304 104.369 71.184 104.417 71.004C104.477 70.812 104.543 70.602 104.615 70.374C104.699 70.134 104.777 69.918 104.849 69.726C104.921 69.522 104.963 69.39 104.975 69.33C105.023 69.15 105.089 68.97 105.173 68.79C105.257 68.61 105.335 68.43 105.407 68.25C105.503 67.938 105.575 67.71 105.623 67.566C105.671 67.422 105.713 67.308 105.749 67.224C105.797 67.14 105.851 67.044 105.911 66.936C105.971 66.816 106.055 66.636 106.163 66.396L107.225 63.984C107.105 63.924 106.997 63.81 106.901 63.642C106.805 63.462 106.757 63.3 106.757 63.156C106.745 63.084 106.757 63.036 106.793 63.012C106.829 62.976 106.889 62.94 106.973 62.904C107.105 62.904 107.243 62.898 107.387 62.886C107.531 62.874 107.675 62.88 107.819 62.904C107.927 62.916 107.999 62.91 108.035 62.886C108.071 62.85 108.143 62.844 108.251 62.868C108.359 62.904 108.467 62.916 108.575 62.904C108.695 62.892 108.797 62.862 108.881 62.814C108.917 62.814 109.025 62.808 109.205 62.796C109.385 62.784 109.583 62.772 109.799 62.76C110.027 62.748 110.225 62.736 110.393 62.724C110.573 62.712 110.681 62.706 110.717 62.706C110.705 62.706 110.783 62.7 110.951 62.688C111.131 62.676 111.341 62.664 111.581 62.652C111.821 62.628 112.037 62.61 112.229 62.598C112.421 62.574 112.529 62.556 112.553 62.544C112.805 62.484 112.979 62.508 113.075 62.616C113.171 62.724 113.243 62.826 113.291 62.922C113.315 62.982 113.345 63.048 113.381 63.12C113.417 63.18 113.441 63.234 113.453 63.282C113.477 63.318 113.471 63.342 113.435 63.354C113.375 63.438 113.291 63.498 113.183 63.534C113.087 63.57 112.973 63.564 112.841 63.516C112.793 63.504 112.619 63.504 112.319 63.516C112.019 63.528 111.653 63.552 111.221 63.588C110.801 63.624 110.369 63.666 109.925 63.714C109.493 63.75 109.115 63.786 108.791 63.822C108.671 63.894 108.569 63.99 108.485 64.11C108.401 64.218 108.323 64.338 108.251 64.47C108.215 64.542 108.131 64.71 107.999 64.974C107.879 65.238 107.747 65.526 107.603 65.838C107.459 66.15 107.339 66.42 107.243 66.648C107.147 66.864 107.099 66.966 107.099 66.954C107.003 67.086 107.027 67.164 107.171 67.188C107.327 67.212 107.459 67.224 107.567 67.224C107.663 67.224 107.759 67.248 107.855 67.296C107.963 67.332 108.065 67.344 108.161 67.332C108.221 67.32 108.335 67.338 108.503 67.386C108.683 67.422 108.875 67.476 109.079 67.548C109.295 67.608 109.487 67.674 109.655 67.746C109.835 67.806 109.961 67.86 110.033 67.908C110.309 68.076 110.549 68.244 110.753 68.412C110.957 68.58 111.119 68.784 111.239 69.024C111.359 69.264 111.461 69.51 111.545 69.762C111.629 70.014 111.659 70.278 111.635 70.554C111.635 70.614 111.617 70.74 111.581 70.932C111.557 71.112 111.521 71.298 111.473 71.49C111.425 71.682 111.371 71.826 111.311 71.922C111.167 72.162 111.011 72.39 110.843 72.606C110.687 72.81 110.543 72.99 110.411 73.146C110.219 73.386 109.991 73.59 109.727 73.758C109.475 73.914 109.211 74.058 108.935 74.19C108.719 74.298 108.551 74.382 108.431 74.442C108.323 74.49 108.221 74.526 108.125 74.55C108.029 74.574 107.897 74.604 107.729 74.64C107.741 74.64 107.681 74.658 107.549 74.694C107.417 74.718 107.285 74.748 107.153 74.784C107.021 74.82 106.955 74.838 106.955 74.838C106.799 74.922 106.637 74.976 106.469 75C106.301 75.012 106.133 75.018 105.965 75.018C105.869 75.018 105.773 75.012 105.677 75C105.581 75 105.485 75.006 105.389 75.018ZM105.227 74.064C105.407 74.052 105.593 74.046 105.785 74.046C105.977 74.046 106.169 74.022 106.361 73.974C106.961 73.806 107.519 73.626 108.035 73.434C108.563 73.242 109.043 72.906 109.475 72.426C109.775 72.078 109.997 71.754 110.141 71.454C110.297 71.154 110.417 70.812 110.501 70.428C110.549 70.236 110.549 70.062 110.501 69.906C110.453 69.738 110.411 69.54 110.375 69.312C110.267 69.06 110.165 68.892 110.069 68.808C109.973 68.712 109.877 68.652 109.781 68.628C109.685 68.604 109.589 68.568 109.493 68.52C109.337 68.388 109.115 68.298 108.827 68.25C108.539 68.202 108.341 68.172 108.233 68.16C108.305 68.172 108.287 68.172 108.179 68.16C108.083 68.136 107.939 68.112 107.747 68.088C107.555 68.052 107.363 68.022 107.171 67.998C106.979 67.974 106.829 67.962 106.721 67.962C106.637 68.154 106.547 68.364 106.451 68.592C106.367 68.82 106.277 69.048 106.181 69.276C106.097 69.492 106.019 69.708 105.947 69.924C105.827 70.272 105.713 70.626 105.605 70.986C105.497 71.334 105.395 71.688 105.299 72.048C105.251 72.252 105.203 72.498 105.155 72.786C105.107 73.074 105.083 73.344 105.083 73.596C105.095 73.836 105.143 73.992 105.227 74.064ZM117.049 74.964C116.929 74.844 116.809 74.682 116.689 74.478C116.569 74.262 116.473 74.016 116.401 73.74C116.377 73.644 116.365 73.512 116.365 73.344C116.377 73.176 116.377 73.056 116.365 72.984C116.329 73.068 116.269 73.158 116.185 73.254C116.113 73.338 116.041 73.41 115.969 73.47C115.921 73.518 115.813 73.614 115.645 73.758C115.477 73.89 115.309 73.998 115.141 74.082C114.745 74.334 114.415 74.472 114.151 74.496C113.899 74.52 113.659 74.388 113.431 74.1C113.239 73.944 113.101 73.77 113.017 73.578C112.945 73.386 112.945 73.122 113.017 72.786C113.041 72.366 113.101 71.958 113.197 71.562C113.293 71.154 113.491 70.614 113.791 69.942C114.043 69.45 114.235 69.09 114.367 68.862C114.499 68.622 114.583 68.478 114.619 68.43C114.799 68.37 114.949 68.376 115.069 68.448C115.189 68.508 115.261 68.622 115.285 68.79C115.357 68.91 115.345 69.114 115.249 69.402C115.165 69.69 115.015 70.044 114.799 70.464C114.631 70.872 114.475 71.28 114.331 71.688C114.199 72.096 114.121 72.444 114.097 72.732C114.073 73.02 114.145 73.194 114.313 73.254C114.421 73.314 114.607 73.296 114.871 73.2C115.147 73.104 115.453 72.864 115.789 72.48C116.137 72.096 116.473 71.514 116.797 70.734C116.893 70.494 116.965 70.284 117.013 70.104C117.061 69.912 117.091 69.702 117.103 69.474C117.079 69.33 117.085 69.204 117.121 69.096C117.169 68.976 117.265 68.874 117.409 68.79C117.457 68.73 117.523 68.676 117.607 68.628C117.691 68.568 117.745 68.568 117.769 68.628L118.057 68.61C118.105 68.598 118.135 68.628 118.147 68.7C118.171 68.76 118.213 68.814 118.273 68.862C118.405 68.97 118.441 69.204 118.381 69.564C118.321 69.924 118.153 70.428 117.877 71.076C117.649 71.568 117.493 71.94 117.409 72.192C117.337 72.444 117.295 72.69 117.283 72.93C117.283 73.146 117.325 73.35 117.409 73.542C117.493 73.734 117.625 73.908 117.805 74.064C117.937 74.148 118.009 74.244 118.021 74.352C118.045 74.46 118.051 74.586 118.039 74.73C118.015 74.838 117.943 74.928 117.823 75C117.715 75.06 117.589 75.09 117.445 75.09C117.301 75.09 117.169 75.048 117.049 74.964ZM120.147 74.496C119.991 74.352 119.847 74.232 119.715 74.136C119.595 74.028 119.493 73.902 119.409 73.758C119.337 73.602 119.283 73.386 119.247 73.11C119.235 72.894 119.247 72.69 119.283 72.498C119.319 72.306 119.373 72.12 119.445 71.94C119.553 71.676 119.667 71.418 119.787 71.166C119.907 70.914 120.027 70.656 120.147 70.392C120.303 70.02 120.471 69.696 120.651 69.42C120.831 69.132 121.005 68.988 121.173 68.988C121.377 69 121.521 69.072 121.605 69.204C121.701 69.324 121.827 69.486 121.983 69.69C121.959 69.81 121.917 69.93 121.857 70.05C121.797 70.158 121.725 70.26 121.641 70.356C121.485 70.512 121.353 70.686 121.245 70.878C121.137 71.07 121.053 71.268 120.993 71.472C120.909 71.652 120.825 71.832 120.741 72.012C120.657 72.18 120.579 72.354 120.507 72.534C120.291 72.93 120.213 73.17 120.273 73.254C120.333 73.338 120.471 73.308 120.687 73.164C120.915 73.02 121.155 72.81 121.407 72.534C121.623 72.306 121.791 72.132 121.911 72.012C122.031 71.892 122.145 71.76 122.253 71.616C122.289 71.58 122.373 71.472 122.505 71.292C122.649 71.1 122.793 70.902 122.937 70.698C123.093 70.482 123.207 70.332 123.279 70.248C123.375 70.128 123.459 70.008 123.531 69.888C123.603 69.756 123.663 69.624 123.711 69.492C123.735 69.372 123.783 69.294 123.855 69.258C123.939 69.21 124.041 69.198 124.161 69.222C124.281 69.294 124.401 69.378 124.521 69.474C124.641 69.558 124.743 69.702 124.827 69.906C124.887 70.026 124.863 70.212 124.755 70.464C124.659 70.716 124.545 70.968 124.413 71.22C124.305 71.436 124.221 71.658 124.161 71.886C124.113 72.114 124.059 72.348 123.999 72.588C123.963 72.756 123.999 72.948 124.107 73.164C124.347 73.068 124.527 72.96 124.647 72.84C124.779 72.708 124.899 72.57 125.007 72.426C125.127 72.282 125.283 72.15 125.475 72.03C125.535 71.886 125.625 71.772 125.745 71.688C125.877 71.592 125.967 71.466 126.015 71.31L126.717 70.482C126.813 70.374 126.897 70.242 126.969 70.086C127.053 69.918 127.137 69.78 127.221 69.672C127.317 69.552 127.419 69.51 127.527 69.546C127.899 69.678 128.145 69.93 128.265 70.302C128.265 70.458 128.199 70.716 128.067 71.076C127.947 71.424 127.857 71.772 127.797 72.12C127.761 72.324 127.737 72.534 127.725 72.75C127.725 72.954 127.755 73.164 127.815 73.38C127.911 73.452 128.031 73.47 128.175 73.434C128.331 73.386 128.469 73.362 128.589 73.362C128.685 73.482 128.727 73.632 128.715 73.812C128.703 73.992 128.685 74.124 128.661 74.208C128.553 74.268 128.445 74.322 128.337 74.37C128.229 74.406 128.109 74.418 127.977 74.406C127.797 74.37 127.671 74.328 127.599 74.28C127.527 74.232 127.461 74.172 127.401 74.1C127.353 74.016 127.269 73.926 127.149 73.83C126.957 73.662 126.825 73.446 126.753 73.182C126.693 72.918 126.651 72.648 126.627 72.372C126.579 72.36 126.501 72.408 126.393 72.516C126.285 72.624 126.159 72.768 126.015 72.948C125.871 73.116 125.709 73.302 125.529 73.506C125.361 73.698 125.175 73.884 124.971 74.064C124.839 74.184 124.695 74.28 124.539 74.352C124.383 74.412 124.191 74.418 123.963 74.37C123.819 74.286 123.693 74.172 123.585 74.028C123.489 73.872 123.369 73.746 123.225 73.65C123.177 73.518 123.129 73.398 123.081 73.29C123.045 73.17 123.015 73.05 122.991 72.93C122.967 72.822 122.949 72.714 122.937 72.606C122.925 72.486 122.949 72.378 123.009 72.282C122.937 72.258 122.859 72.306 122.775 72.426C122.691 72.534 122.595 72.666 122.487 72.822C122.379 72.966 122.247 73.098 122.091 73.218C121.899 73.374 121.737 73.518 121.605 73.65C121.473 73.782 121.341 73.914 121.209 74.046C121.077 74.178 120.915 74.328 120.723 74.496H120.147ZM130.225 74.91C130.129 74.874 130.027 74.802 129.919 74.694C129.811 74.574 129.721 74.436 129.649 74.28C129.577 74.124 129.541 73.98 129.541 73.848C129.601 73.716 129.679 73.488 129.775 73.164C129.871 72.828 129.991 72.444 130.135 72.012C130.231 71.88 130.303 71.724 130.351 71.544C130.411 71.364 130.465 71.202 130.513 71.058C130.609 70.866 130.723 70.62 130.855 70.32C130.987 70.008 131.113 69.696 131.233 69.384C131.365 69.06 131.479 68.79 131.575 68.574C131.707 68.262 131.785 68.07 131.809 67.998C131.833 67.914 131.851 67.848 131.863 67.8C131.863 67.704 131.887 67.626 131.935 67.566C131.983 67.494 132.031 67.458 132.079 67.458C132.127 67.41 132.181 67.386 132.241 67.386C132.313 67.374 132.373 67.368 132.421 67.368C132.553 67.368 132.667 67.458 132.763 67.638C132.859 67.806 132.907 67.962 132.907 68.106C132.907 68.25 132.853 68.454 132.745 68.718C132.649 68.97 132.535 69.234 132.403 69.51C132.283 69.786 132.181 70.026 132.097 70.23C132.013 70.434 131.989 70.554 132.025 70.59C132.025 70.59 132.109 70.554 132.277 70.482C132.445 70.398 132.625 70.284 132.817 70.14C132.949 70.068 133.093 69.978 133.249 69.87C133.405 69.762 133.555 69.66 133.699 69.564C133.843 69.456 133.963 69.39 134.059 69.366C134.203 69.27 134.353 69.18 134.509 69.096C134.665 69 134.767 68.928 134.815 68.88C135.019 68.784 135.169 68.754 135.265 68.79C135.373 68.826 135.481 68.916 135.589 69.06C135.721 69.216 135.745 69.354 135.661 69.474C135.577 69.582 135.379 69.732 135.067 69.924C134.815 70.08 134.509 70.266 134.149 70.482C133.801 70.698 133.489 70.89 133.213 71.058C132.949 71.226 132.799 71.328 132.763 71.364C132.763 71.364 132.811 71.454 132.907 71.634C133.003 71.814 133.099 71.976 133.195 72.12C133.291 72.312 133.393 72.492 133.501 72.66C133.621 72.816 133.681 72.924 133.681 72.984C133.777 73.236 133.897 73.446 134.041 73.614C134.185 73.77 134.347 73.872 134.527 73.92C134.719 73.956 134.911 73.932 135.103 73.848C135.343 73.752 135.517 73.722 135.625 73.758C135.745 73.794 135.829 73.884 135.877 74.028C135.925 74.124 135.937 74.196 135.913 74.244C135.901 74.28 135.823 74.37 135.679 74.514C135.451 74.742 135.217 74.886 134.977 74.946C134.749 75.006 134.539 74.988 134.347 74.892C134.227 74.892 134.089 74.844 133.933 74.748C133.777 74.64 133.585 74.466 133.357 74.226C133.141 73.986 132.871 73.65 132.547 73.218C132.547 73.17 132.523 73.104 132.475 73.02C132.439 72.924 132.397 72.834 132.349 72.75C132.301 72.654 132.241 72.552 132.169 72.444C132.097 72.324 132.061 72.264 132.061 72.264C132.061 72.228 132.049 72.198 132.025 72.174C132.013 72.138 131.989 72.096 131.953 72.048C131.929 72 131.899 71.946 131.863 71.886C131.671 71.826 131.533 71.862 131.449 71.994C131.365 72.126 131.275 72.264 131.179 72.408C131.119 72.564 131.041 72.786 130.945 73.074C130.861 73.35 130.789 73.62 130.729 73.884C130.681 74.148 130.669 74.328 130.693 74.424C130.693 74.616 130.663 74.748 130.603 74.82C130.543 74.88 130.417 74.91 130.225 74.91ZM138.311 75.054C137.783 75.054 137.351 74.856 137.015 74.46C136.679 74.052 136.517 73.548 136.529 72.948C136.553 72.516 136.637 72.054 136.781 71.562C136.937 71.058 137.141 70.578 137.393 70.122C137.645 69.654 137.921 69.246 138.221 68.898C138.521 68.55 138.833 68.304 139.157 68.16C139.277 68.1 139.403 68.052 139.535 68.016C139.679 67.98 139.823 67.962 139.967 67.962C140.099 67.962 140.237 67.986 140.381 68.034C140.525 68.07 140.645 68.112 140.741 68.16C140.945 68.244 141.101 68.346 141.209 68.466C141.317 68.586 141.413 68.772 141.497 69.024C141.533 69.252 141.551 69.414 141.551 69.51C141.551 69.606 141.521 69.75 141.461 69.942C141.317 70.374 141.131 70.746 140.903 71.058C140.675 71.37 140.369 71.634 139.985 71.85C139.889 71.91 139.775 71.958 139.643 71.994C139.523 72.018 139.397 72.03 139.265 72.03C139.025 72.03 138.791 71.988 138.563 71.904C138.347 71.808 138.173 71.67 138.041 71.49L137.915 71.346L137.861 71.49C137.741 71.814 137.645 72.114 137.573 72.39C137.513 72.666 137.483 72.918 137.483 73.146C137.483 73.29 137.495 73.428 137.519 73.56C137.555 73.692 137.603 73.806 137.663 73.902C137.711 73.974 137.789 74.028 137.897 74.064C138.017 74.088 138.143 74.1 138.275 74.1C138.359 74.1 138.443 74.1 138.527 74.1C138.623 74.088 138.713 74.064 138.797 74.028C139.001 73.956 139.163 73.878 139.283 73.794C139.415 73.71 139.547 73.62 139.679 73.524L139.751 73.488H139.733C139.877 73.416 140.003 73.344 140.111 73.272C140.231 73.2 140.291 73.164 140.291 73.164C140.339 73.164 140.387 73.134 140.435 73.074C140.531 73.026 140.651 73.044 140.795 73.128C140.951 73.212 141.029 73.32 141.029 73.452C141.017 73.512 140.963 73.608 140.867 73.74C140.771 73.86 140.663 73.974 140.543 74.082C140.435 74.19 140.345 74.25 140.273 74.262C140.261 74.274 140.219 74.298 140.147 74.334C140.075 74.358 140.027 74.382 140.003 74.406H140.021C139.913 74.55 139.805 74.622 139.697 74.622H139.553C139.505 74.706 139.349 74.802 139.085 74.91C138.821 75.006 138.563 75.054 138.311 75.054ZM139.121 71.094C139.337 71.094 139.523 71.034 139.679 70.914C139.847 70.782 139.991 70.638 140.111 70.482C140.351 70.158 140.489 69.846 140.525 69.546C140.573 69.234 140.537 69.018 140.417 68.898C140.345 68.862 140.279 68.844 140.219 68.844C140.171 68.832 140.069 68.85 139.913 68.898C139.805 68.922 139.655 69.012 139.463 69.168C139.271 69.324 139.079 69.498 138.887 69.69C138.707 69.882 138.569 70.044 138.473 70.176L138.239 70.554C138.335 70.518 138.425 70.5 138.509 70.5C138.605 70.488 138.659 70.494 138.671 70.518C138.671 70.626 138.689 70.728 138.725 70.824C138.773 70.908 138.827 70.974 138.887 71.022C138.959 71.07 139.037 71.094 139.121 71.094ZM142.563 74.604C142.443 74.52 142.353 74.442 142.293 74.37C142.233 74.298 142.209 74.196 142.221 74.064C142.245 73.884 142.281 73.698 142.329 73.506C142.377 73.302 142.437 73.104 142.509 72.912C142.545 72.696 142.587 72.48 142.635 72.264C142.695 72.048 142.791 71.844 142.923 71.652C143.127 71.076 143.313 70.518 143.481 69.978C143.661 69.426 143.901 68.778 144.201 68.034C144.261 67.902 144.315 67.806 144.363 67.746C144.423 67.674 144.477 67.602 144.525 67.53C144.537 67.482 144.573 67.458 144.633 67.458C144.705 67.446 144.783 67.458 144.867 67.494C144.951 67.518 145.017 67.56 145.065 67.62C145.113 67.608 145.179 67.686 145.263 67.854C145.359 68.022 145.395 68.154 145.371 68.25C145.371 68.298 145.359 68.364 145.335 68.448C145.311 68.532 145.275 68.61 145.227 68.682C145.179 68.73 145.131 68.802 145.083 68.898C145.035 68.982 144.963 69.096 144.867 69.24C144.747 69.576 144.645 69.858 144.561 70.086C144.477 70.314 144.375 70.572 144.255 70.86C144.171 70.98 144.105 71.142 144.057 71.346C144.009 71.55 143.961 71.748 143.913 71.94C143.829 72.156 143.751 72.354 143.679 72.534C143.619 72.714 143.589 72.828 143.589 72.876C143.505 73.14 143.439 73.404 143.391 73.668C143.343 73.92 143.265 74.142 143.157 74.334C143.145 74.514 143.091 74.634 142.995 74.694C142.911 74.754 142.767 74.724 142.563 74.604ZM146.865 74.892C146.673 74.868 146.529 74.832 146.433 74.784C146.337 74.724 146.157 74.598 145.893 74.406C145.749 74.262 145.551 74.04 145.299 73.74C145.047 73.44 144.795 73.122 144.543 72.786C144.291 72.438 144.081 72.144 143.913 71.904L144.651 70.914C144.807 71.106 144.933 71.286 145.029 71.454C145.125 71.622 145.203 71.736 145.263 71.796C145.539 72.204 145.755 72.534 145.911 72.786C146.079 73.038 146.229 73.242 146.361 73.398C146.493 73.554 146.631 73.692 146.775 73.812C146.931 73.932 147.123 74.058 147.351 74.19C147.387 74.214 147.423 74.25 147.459 74.298C147.495 74.346 147.507 74.418 147.495 74.514C147.447 74.646 147.393 74.73 147.333 74.766C147.285 74.79 147.129 74.832 146.865 74.892ZM143.859 71.706C143.787 71.502 143.811 71.298 143.931 71.094C144.063 70.878 144.207 70.728 144.363 70.644C144.411 70.56 144.459 70.506 144.507 70.482C144.567 70.446 144.603 70.404 144.615 70.356C144.639 70.308 144.699 70.242 144.795 70.158C144.903 70.074 144.999 69.996 145.083 69.924C145.275 69.804 145.491 69.66 145.731 69.492C145.983 69.312 146.223 69.132 146.451 68.952C146.679 68.772 146.871 68.616 147.027 68.484C147.195 68.352 147.297 68.268 147.333 68.232C147.369 68.184 147.417 68.154 147.477 68.142C147.549 68.118 147.639 68.13 147.747 68.178C147.891 68.214 147.987 68.274 148.035 68.358C148.083 68.43 148.107 68.574 148.107 68.79C148.143 68.922 148.089 69.066 147.945 69.222C147.813 69.366 147.609 69.528 147.333 69.708C147.237 69.768 147.105 69.858 146.937 69.978C146.781 70.098 146.643 70.212 146.523 70.32C146.439 70.368 146.313 70.452 146.145 70.572C145.989 70.68 145.851 70.788 145.731 70.896C145.635 70.956 145.509 71.064 145.353 71.22C145.197 71.364 145.041 71.472 144.885 71.544C144.501 71.904 144.249 72.096 144.129 72.12C144.009 72.144 143.919 72.006 143.859 71.706Z" fill="white"/>
</g>
<defs>
<clipPath id="clip0_80_43">
<rect width="239" height="83" fill="white"/>
</clipPath>
</defs>
</svg>
