<svg width="129" height="60" viewBox="0 0 129 60" fill="none" xmlns="http://www.w3.org/2000/svg">
<g clip-path="url(#clip0_43_50)">
<mask id="mask0_43_50" style="mask-type:luminance" maskUnits="userSpaceOnUse" x="0" y="0" width="129" height="60">
<path d="M129 0H0V60H129V0Z" fill="white"/>
</mask>
<g mask="url(#mask0_43_50)">
<path d="M5.82833 3.99198L8.83633 3.47998V26.52L5.82833 27V4.82398L2.66033 7.47998L2.34033 7.09598L5.82833 4.18398V3.99198ZM37.0914 27C36.2914 27 35.6194 26.328 35.6194 25.528C35.6194 24.696 36.2914 24.024 37.0914 24.024C37.9234 24.024 38.5954 24.696 38.5954 25.528C38.5954 26.328 37.9234 27 37.0914 27ZM37.0914 11.992C36.2914 11.992 35.6194 11.32 35.6194 10.488C35.6194 9.65598 36.2914 8.98398 37.0914 8.98398C37.9234 8.98398 38.5954 9.65598 38.5954 10.488C38.5954 11.32 37.9234 11.992 37.0914 11.992ZM78.7211 3.47998C85.2171 3.47998 89.2171 6.99998 89.2171 15C89.2171 23 84.7371 27 78.7211 27C72.2251 27 68.2251 23 68.2251 15C68.2251 6.99998 72.7051 3.47998 78.7211 3.47998ZM79.7131 26.52C85.2171 26.52 86.2411 20.504 86.2411 15C86.2411 6.99998 82.2091 3.99198 77.7291 3.99198C72.7051 3.99198 71.2011 9.49598 71.2011 15C71.2011 23 75.2011 26.52 79.7131 26.52Z" fill="#262626"/>
<path d="M15.6877 3.87292C15.8857 3.91692 16.2487 3.94992 16.7767 3.97192C17.3047 3.99392 17.9097 4.01593 18.5917 4.03793C19.2737 4.03793 19.9447 4.03793 20.6047 4.03793H27.9307V4.73092C27.4687 5.85292 26.9077 7.00792 26.2477 8.19592C25.6097 9.38392 24.9717 10.6599 24.3337 12.0239C23.7177 13.3659 23.2007 14.8289 22.7827 16.4129C22.3867 17.9749 22.1997 19.7019 22.2217 21.5939C22.2217 21.9459 22.2327 22.2759 22.2547 22.5839C22.2767 22.8919 22.2987 23.1779 22.3207 23.4419C22.3427 23.7059 22.3537 23.9589 22.3537 24.2009C22.3537 24.6849 22.2107 25.0809 21.9247 25.3889C21.6387 25.7189 21.2647 25.8839 20.8027 25.8839C20.2967 25.8839 19.9227 25.6969 19.6807 25.3229C19.4387 24.9489 19.3177 24.5199 19.3177 24.0359C19.3177 22.5399 19.5047 21.0989 19.8787 19.7129C20.2747 18.3269 20.7807 16.9849 21.3967 15.6869C22.0127 14.3669 22.6837 13.0909 23.4097 11.8589C24.1577 10.6049 24.8837 9.39492 25.5877 8.22892C26.3137 7.04092 26.9627 5.87492 27.5347 4.73092L26.6107 6.80992H18.5917C17.6897 6.80992 17.1177 6.93092 16.8757 7.17292C16.6337 7.41492 16.4687 7.85492 16.3807 8.49292H15.8197C15.8197 7.32692 15.8087 6.39193 15.7867 5.68793C15.7647 4.98393 15.7317 4.37892 15.6877 3.87292Z" fill="#262626"/>
<path d="M56.5466 3.54297C57.4706 3.54297 58.2846 3.69697 58.9886 4.00497C59.7146 4.29097 60.2756 4.71997 60.6716 5.29197C61.0896 5.84197 61.2986 6.51297 61.2986 7.30497C61.2986 8.16297 61.0566 8.95497 60.5726 9.68097C60.1106 10.385 59.5056 11.001 58.7576 11.529C58.0096 12.035 57.2176 12.442 56.3816 12.75C57.4156 12.772 58.3946 12.97 59.3186 13.344C60.2426 13.696 61.0016 14.235 61.5956 14.961C62.1896 15.687 62.4866 16.622 62.4866 17.766C62.4866 18.778 62.2446 19.713 61.7606 20.571C61.2986 21.407 60.6496 22.155 59.8136 22.815C58.9996 23.497 58.0646 24.069 57.0086 24.531C55.9526 25.015 54.8416 25.378 53.6756 25.62C52.5316 25.862 51.3986 25.983 50.2766 25.983V25.389C51.3986 25.367 52.4986 25.18 53.5766 24.828C54.6546 24.498 55.6226 24.014 56.4806 23.376C57.3606 22.738 58.0536 21.946 58.5596 21C59.0876 20.054 59.3516 18.976 59.3516 17.766C59.3516 16.468 59.0326 15.401 58.3946 14.565C57.7786 13.707 56.9316 13.234 55.8536 13.146C55.5236 13.278 55.2266 13.399 54.9626 13.509C54.7206 13.597 54.5006 13.641 54.3026 13.641C54.1266 13.641 53.9946 13.608 53.9066 13.542C53.8186 13.454 53.7746 13.344 53.7746 13.212C53.7746 13.014 53.8626 12.86 54.0386 12.75C54.2146 12.64 54.4126 12.585 54.6326 12.585C54.8086 12.585 54.9846 12.607 55.1606 12.651C55.3586 12.673 55.5676 12.695 55.7876 12.717C56.6896 12.035 57.3386 11.287 57.7346 10.473C58.1306 9.63697 58.3286 8.80097 58.3286 7.96497C58.3286 6.93097 58.0646 6.18297 57.5366 5.72097C57.0306 5.23697 56.3376 4.99497 55.4576 4.99497C54.5556 4.99497 53.7196 5.23697 52.9496 5.72097C52.2016 6.20497 51.5746 6.94197 51.0686 7.93197L50.5076 7.66797C50.8376 6.94197 51.2666 6.27097 51.7946 5.65497C52.3226 5.01697 52.9716 4.51097 53.7416 4.13697C54.5336 3.74097 55.4686 3.54297 56.5466 3.54297Z" fill="#262626"/>
</g>
<path d="M7.87481 50.675C7.57481 50.5917 7.30814 50.4 7.07481 50.1C6.84147 49.8167 6.74147 49.55 6.77481 49.3C6.8748 48.9667 6.96647 48.5917 7.0498 48.175C7.13314 47.7583 7.20814 47.4167 7.2748 47.15L5.54981 46.225C5.36647 46.075 5.09147 45.825 4.7248 45.475C4.35814 45.125 4.00814 44.7083 3.6748 44.225C3.34147 43.7417 3.1248 43.2417 3.0248 42.725C2.85814 42.025 2.84147 41.2417 2.9748 40.375C3.10814 39.4917 3.35814 38.6167 3.7248 37.75C4.10814 36.8667 4.58314 36.0917 5.1498 35.425C5.58314 34.9417 6.04147 34.5417 6.5248 34.225C7.00814 33.8917 7.48314 33.55 7.94981 33.2C8.04981 33.1333 8.19981 33.05 8.39981 32.95C8.61647 32.85 8.84147 32.75 9.07481 32.65C9.32481 32.5333 9.53314 32.45 9.6998 32.4C9.88314 32.35 10.0331 32.3167 10.1498 32.3C10.2831 32.2667 10.4331 32.2417 10.5998 32.225C10.7831 32.2083 11.0331 32.2083 11.3498 32.225L12.3248 32.25C12.3248 32.0333 12.3498 31.7917 12.3998 31.525C12.4665 31.2417 12.5331 30.9667 12.5998 30.7C12.6665 30.4167 12.7081 30.1833 12.7248 30C12.7248 29.8 12.8165 29.6167 12.9998 29.45C13.1998 29.2833 13.4248 29.2333 13.6748 29.3C14.0081 29.3667 14.2998 29.525 14.5498 29.775C14.7998 30.0083 14.9248 30.2 14.9248 30.35C14.9248 30.5167 14.9165 30.6583 14.8998 30.775C14.8998 30.875 14.8915 30.9667 14.8748 31.05L14.4498 32.75C14.5165 32.7667 14.5748 32.7917 14.6248 32.825C14.6915 32.8417 14.7498 32.8667 14.7998 32.9L14.8498 32.925C14.9831 32.9917 15.1081 33.05 15.2248 33.1C15.3415 33.1333 15.4498 33.1917 15.5498 33.275C15.7665 33.375 15.9665 33.4833 16.1498 33.6C16.3498 33.7167 16.5331 33.8417 16.6998 33.975C17.2165 34.325 17.6081 34.6417 17.8748 34.925C18.1581 35.1917 18.3665 35.5083 18.4998 35.875C18.6331 36.225 18.7415 36.7083 18.8248 37.325C18.8581 37.725 18.8665 38.0583 18.8498 38.325C18.8498 38.5917 18.8331 38.8417 18.7998 39.075C18.7665 39.2917 18.7081 39.55 18.6248 39.85C18.5581 40.15 18.4581 40.5417 18.3248 41.025C18.0581 41.4917 17.8415 41.9 17.6748 42.25C17.5081 42.6 17.3498 42.9167 17.1998 43.2C17.0498 43.4667 16.8665 43.7333 16.6498 44C16.4331 44.2667 16.1498 44.5667 15.7998 44.9C15.6665 45.0333 15.5081 45.175 15.3248 45.325C15.1581 45.4583 14.9665 45.6167 14.7498 45.8C14.4998 46.0333 14.1081 46.275 13.5748 46.525C13.0581 46.7583 12.5165 46.9583 11.9498 47.125C11.3998 47.2917 10.9498 47.375 10.5998 47.375C10.4498 47.3917 10.2915 47.4083 10.1248 47.425C9.95814 47.425 9.79147 47.4167 9.62481 47.4L9.37481 47.375C9.35814 47.6917 9.31647 48.0583 9.24981 48.475C9.18314 48.9083 9.08314 49.4583 8.9498 50.125C8.78314 50.4417 8.60814 50.625 8.4248 50.675C8.24147 50.7417 8.05814 50.7417 7.87481 50.675ZM7.74981 45.1C7.76647 45.05 7.77481 44.9917 7.77481 44.925C7.77481 44.8583 7.78314 44.7917 7.7998 44.725C7.83314 44.5417 7.86647 44.3583 7.8998 44.175C7.9498 43.975 7.99147 43.7917 8.0248 43.625C8.07481 43.4583 8.11647 43.325 8.1498 43.225C8.23314 43.0083 8.34147 42.7083 8.4748 42.325C8.62481 41.925 8.77481 41.4833 8.92481 41C9.09147 40.5167 9.26647 40.0167 9.44981 39.5C9.63314 38.9833 9.81647 38.4833 9.99981 38C10.1998 37.5 10.3831 37.0417 10.5498 36.625C10.6165 36.425 10.6998 36.2083 10.7998 35.975C10.8998 35.7417 10.9998 35.5083 11.0998 35.275C11.2165 35.025 11.3248 34.7833 11.4248 34.55C11.2581 34.5333 11.0915 34.5333 10.9248 34.55C10.7581 34.55 10.5998 34.5667 10.4498 34.6C10.1498 34.6667 9.81647 34.8 9.44981 35C9.08314 35.2 8.73314 35.425 8.39981 35.675C8.06647 35.9083 7.78314 36.1167 7.5498 36.3C6.98314 36.75 6.56647 37.2333 6.2998 37.75C6.0498 38.2167 5.84147 38.65 5.6748 39.05C5.50814 39.4333 5.3748 39.7833 5.2748 40.1C5.19147 40.4167 5.1498 40.6833 5.1498 40.9C5.0998 41.1167 5.06647 41.2833 5.0498 41.4C5.03314 41.5167 5.02481 41.6417 5.02481 41.775C5.02481 42.1583 5.08314 42.4833 5.19981 42.75C5.31647 43.0167 5.44981 43.2583 5.59981 43.475C5.78314 43.775 5.9998 44.0333 6.2498 44.25C6.51647 44.4667 6.78314 44.6417 7.0498 44.775C7.31647 44.9083 7.5498 45.0167 7.74981 45.1ZM9.9248 45.4C10.0248 45.3667 10.1248 45.3333 10.2248 45.3C10.3415 45.2667 10.4498 45.2333 10.5498 45.2C10.6498 45.1667 10.7498 45.1333 10.8498 45.1C11.0331 45.0167 11.2331 44.95 11.4498 44.9C11.6831 44.85 11.9498 44.7583 12.2498 44.625C12.9831 44.3417 13.6415 43.8917 14.2248 43.275C14.8081 42.6583 15.3831 41.8167 15.9498 40.75C16.0331 40.5667 16.1415 40.2417 16.2748 39.775C16.4248 39.2917 16.5415 38.8417 16.6248 38.425C16.6581 38.275 16.6831 38.1417 16.6998 38.025C16.7165 37.8917 16.7331 37.7917 16.7498 37.725C16.7665 37.575 16.7665 37.4333 16.7498 37.3C16.7498 37.1667 16.7331 37.0417 16.6998 36.925C16.5998 36.475 16.3415 36.1167 15.9248 35.85C15.5581 35.6333 15.2581 35.4583 15.0248 35.325C14.8081 35.1917 14.5998 35.0833 14.3998 35C14.2165 34.9 13.9831 34.8 13.6998 34.7C13.6665 34.85 13.6165 35.0083 13.5498 35.175C13.4998 35.325 13.4165 35.525 13.2998 35.775C13.1998 36.025 13.0665 36.375 12.8998 36.825C12.8331 36.9917 12.7165 37.275 12.5498 37.675C12.3998 38.075 12.2248 38.525 12.0248 39.025C11.8415 39.525 11.6498 40.0333 11.4498 40.55C11.2665 41.05 11.0998 41.5083 10.9498 41.925C10.8165 42.325 10.7248 42.625 10.6748 42.825C10.5915 43.1417 10.4831 43.4583 10.3498 43.775C10.2331 44.075 10.1498 44.3917 10.0998 44.725C10.0831 44.8417 10.0581 44.9583 10.0248 45.075C9.99147 45.175 9.95814 45.2833 9.9248 45.4ZM18.3619 53.2C17.7619 53.3167 17.1869 53.3333 16.6369 53.25C16.0869 53.1833 15.6286 53.0417 15.2619 52.825C14.8786 52.6083 14.6452 52.3667 14.5619 52.1C14.4619 51.7167 14.5119 51.4333 14.7119 51.25C14.9119 51.0667 15.1536 50.9583 15.4369 50.925C15.7036 50.8917 15.8786 50.925 15.9619 51.025C16.0952 51.1083 16.3036 51.2333 16.5869 51.4C16.8869 51.5667 17.2536 51.6083 17.6869 51.525C18.0702 51.4417 18.4119 51.2583 18.7119 50.975C19.0119 50.6917 19.2786 50.3917 19.5119 50.075C19.6452 49.875 19.8702 49.5167 20.1869 49C20.5036 48.4833 20.8286 47.9167 21.1619 47.3C21.5119 46.6667 21.8036 46.0833 22.0369 45.55C22.0869 45.4167 22.1452 45.2583 22.2119 45.075C22.2786 44.8917 22.3619 44.7417 22.4619 44.625C22.5619 44.425 22.6452 44.2417 22.7119 44.075C22.7952 43.8917 22.8452 43.7667 22.8619 43.7C22.8786 43.6167 22.9536 43.45 23.0869 43.2C23.2202 42.95 23.3452 42.7 23.4619 42.45C23.5452 42.2 23.6702 41.8333 23.8369 41.35C24.0036 40.8667 24.1702 40.475 24.3369 40.175C24.5369 39.7917 24.6952 39.4833 24.8119 39.25C24.9452 39 25.0869 38.85 25.2369 38.8C25.3869 38.6833 25.5286 38.625 25.6619 38.625C25.7952 38.625 25.9536 38.675 26.1369 38.775C26.3369 38.975 26.4952 39.175 26.6119 39.375C26.7452 39.5583 26.7952 39.7917 26.7619 40.075C26.7452 40.3417 26.6119 40.7083 26.3619 41.175C26.2286 41.575 26.0786 41.9417 25.9119 42.275C25.7619 42.5917 25.6452 42.8 25.5619 42.9C25.4786 43.1 25.3786 43.325 25.2619 43.575C25.1619 43.8083 25.0702 44.025 24.9869 44.225C24.6869 44.8917 24.4286 45.4333 24.2119 45.85C23.9952 46.2667 23.8036 46.65 23.6369 47C23.4702 47.35 23.2952 47.7583 23.1119 48.225C22.7286 48.8417 22.3536 49.425 21.9869 49.975C21.6369 50.5417 21.2619 51.0667 20.8619 51.55C20.6952 51.7 20.4536 51.8917 20.1369 52.125C19.8369 52.375 19.5202 52.6 19.1869 52.8C18.8702 53.0167 18.5952 53.15 18.3619 53.2ZM21.4869 47.55C21.2369 47.5167 20.9619 47.35 20.6619 47.05C20.3786 46.75 20.1369 46.4333 19.9369 46.1C19.7536 45.7667 19.6786 45.5333 19.7119 45.4C19.7119 45.3167 19.7119 45.25 19.7119 45.2C19.7119 45.15 19.7119 45.125 19.7119 45.125C19.6119 45.125 19.5286 44.9833 19.4619 44.7C19.4119 44.4 19.3702 44.025 19.3369 43.575C19.3202 43.125 19.3119 42.6583 19.3119 42.175C19.3286 41.6917 19.3536 41.25 19.3869 40.85C19.4536 40.5667 19.4869 40.2583 19.4869 39.925C19.4869 39.575 19.4952 39.3 19.5119 39.1C19.4952 38.8333 19.5452 38.6167 19.6619 38.45C19.7952 38.2833 19.8952 38.175 19.9619 38.125C20.5786 37.8583 21.0286 38 21.3119 38.55C21.5952 39.1 21.6952 39.975 21.6119 41.175C21.5786 41.8417 21.5619 42.4833 21.5619 43.1C21.5619 43.7 21.6202 44.2167 21.7369 44.65C21.8536 45.0833 22.0536 45.3917 22.3369 45.575C22.4536 45.6417 22.4952 45.7833 22.4619 46C22.4286 46.2167 22.3536 46.45 22.2369 46.7C22.1202 46.9333 21.9869 47.1417 21.8369 47.325C21.7036 47.4917 21.5869 47.5667 21.4869 47.55ZM26.2574 53.825C26.1908 53.825 26.0908 53.825 25.9574 53.825C25.8408 53.8417 25.7408 53.775 25.6574 53.625C25.5908 53.5417 25.4908 53.375 25.3574 53.125C25.2241 52.8917 25.1991 52.5583 25.2824 52.125C25.3658 51.8417 25.4324 51.5583 25.4824 51.275C25.5324 51.0083 25.5574 50.8083 25.5574 50.675C25.5574 50.6083 25.5741 50.475 25.6074 50.275C25.6574 50.0917 25.6824 49.9583 25.6824 49.875C25.7658 49.7417 25.8324 49.5583 25.8824 49.325C25.9324 49.0917 25.9574 48.8833 25.9574 48.7C25.9574 48.5 26.0574 48.3167 26.2574 48.15C26.2574 48.0167 26.2824 47.85 26.3324 47.65C26.3991 47.45 26.4324 47.3167 26.4324 47.25C26.4824 47.0167 26.5908 46.6083 26.7574 46.025C26.9408 45.425 27.1574 44.75 27.4074 44C27.6741 43.25 27.9324 42.5167 28.1824 41.8C28.4324 41.0833 28.6574 40.475 28.8574 39.975C29.0574 39.5083 29.2241 39.075 29.3574 38.675C29.4908 38.275 29.5574 37.9917 29.5574 37.825C29.5574 37.7583 29.5741 37.7083 29.6074 37.675C29.6408 37.625 29.7158 37.5333 29.8324 37.4C29.9991 37.2333 30.2158 37.175 30.4824 37.225C30.7658 37.2583 30.9991 37.3417 31.1824 37.475C31.3158 37.6917 31.4074 37.8917 31.4574 38.075C31.5241 38.2417 31.5241 38.5083 31.4574 38.875C31.4574 39.125 31.3991 39.3583 31.2824 39.575C31.1658 39.775 31.0574 39.9417 30.9574 40.075C30.8741 40.1917 30.8491 40.2417 30.8824 40.225C31.6158 39.775 32.2741 39.5333 32.8574 39.5C33.4574 39.45 33.9574 39.55 34.3574 39.8C34.7741 40.0333 35.0908 40.3583 35.3074 40.775C35.5241 41.1917 35.6324 41.6417 35.6324 42.125C35.6324 42.325 35.5658 42.5917 35.4324 42.925C35.2991 43.2583 35.1491 43.575 34.9824 43.875C34.8158 44.1583 34.6824 44.35 34.5824 44.45C34.5158 44.45 34.4491 44.5083 34.3824 44.625C34.3158 44.725 34.2491 44.8417 34.1824 44.975C34.0491 45.1417 33.8241 45.3333 33.5074 45.55C33.2074 45.75 32.8991 45.9167 32.5824 46.05C32.2658 46.1667 32.0408 46.2 31.9074 46.15C31.9074 46.15 31.8824 46.1667 31.8324 46.2C31.7991 46.2333 31.7824 46.2917 31.7824 46.375C31.7824 46.4083 31.6658 46.475 31.4324 46.575C31.1991 46.675 30.9241 46.7667 30.6074 46.85C30.2908 46.9333 29.9991 46.975 29.7324 46.975C29.3824 46.975 29.1324 46.9083 28.9824 46.775C28.9491 46.8083 28.9074 46.8583 28.8574 46.925C28.8241 46.9917 28.8074 47.05 28.8074 47.1C28.8074 47.2 28.7658 47.3583 28.6824 47.575C28.6158 47.7917 28.5324 47.9833 28.4324 48.15C28.3324 48.3333 28.2408 48.425 28.1574 48.425C28.1574 48.425 28.1408 48.45 28.1074 48.5C28.0741 48.55 28.0908 48.6167 28.1574 48.7C28.1574 48.7 28.1491 48.7917 28.1324 48.975C28.1324 49.175 28.0908 49.3417 28.0074 49.475C28.0074 49.6083 27.9824 49.8083 27.9324 50.075C27.8824 50.3417 27.8241 50.5417 27.7574 50.675C27.7574 50.875 27.7241 51.0667 27.6574 51.25C27.6074 51.45 27.5491 51.55 27.4824 51.55C27.4158 51.5667 27.3741 51.6667 27.3574 51.85C27.3408 52.05 27.3324 52.1917 27.3324 52.275C27.3158 52.6917 27.1824 53.05 26.9324 53.35C26.6824 53.6667 26.4574 53.825 26.2574 53.825ZM29.4574 45.075C29.5908 45.075 29.8324 45.0167 30.1824 44.9C30.5324 44.7833 30.8991 44.6417 31.2824 44.475C31.6658 44.2917 31.9658 44.1083 32.1824 43.925C32.6158 43.5417 32.9491 43.1667 33.1824 42.8C33.4324 42.4333 33.4158 42.025 33.1324 41.575C32.9991 41.3417 32.7824 41.25 32.4824 41.3C32.1991 41.3333 31.8824 41.4667 31.5324 41.7C31.1824 41.9333 30.8241 42.225 30.4574 42.575C30.2574 42.7917 30.0741 43.0417 29.9074 43.325C29.7408 43.6083 29.5991 43.8833 29.4824 44.15C29.3824 44.4167 29.3241 44.6417 29.3074 44.825C29.2908 44.9917 29.3408 45.075 29.4574 45.075ZM38.6807 47.65C38.3473 47.5333 38.0307 47.35 37.7307 47.1C37.4307 46.8333 37.2473 46.5167 37.1807 46.15C37.1807 46.1167 37.1807 46.0833 37.1807 46.05C37.1807 46 37.164 45.975 37.1307 45.975C37.064 45.8083 37.064 45.55 37.1307 45.2C37.1973 44.8333 37.2973 44.425 37.4307 43.975C37.5807 43.525 37.7473 43.0833 37.9307 42.65C38.1307 42.2 38.3307 41.8083 38.5307 41.475C38.5473 41.4417 38.564 41.4083 38.5807 41.375C38.5973 41.325 38.614 41.2833 38.6307 41.25C38.664 41.1 38.764 40.8083 38.9307 40.375C39.114 39.9417 39.289 39.5333 39.4557 39.15C39.5557 38.9333 39.6473 38.75 39.7307 38.6C39.814 38.4333 39.8723 38.325 39.9057 38.275C40.139 38.025 40.364 37.9333 40.5807 38C40.7973 38.05 40.9973 38.1833 41.1807 38.4C41.3807 38.6167 41.5473 38.8583 41.6807 39.125C41.814 39.3917 41.9057 39.6167 41.9557 39.8C41.7057 40.15 41.4473 40.5667 41.1807 41.05C40.9307 41.5333 40.6807 42.05 40.4307 42.6C40.1973 43.1333 39.9807 43.6667 39.7807 44.2C39.5973 44.7167 39.4473 45.1833 39.3307 45.6C39.414 45.6167 39.564 45.6083 39.7807 45.575C40.014 45.5417 40.264 45.5083 40.5307 45.475C40.7973 45.425 41.0557 45.3833 41.3057 45.35C41.5557 45.3 41.7473 45.275 41.8807 45.275C41.8807 45.1417 41.9057 44.9917 41.9557 44.825C42.0223 44.6583 42.0973 44.4917 42.1807 44.325C42.2473 44.1583 42.314 43.9917 42.3807 43.825C42.464 43.6583 42.5223 43.5083 42.5557 43.375C42.589 43.2583 42.6557 43.0167 42.7557 42.65C42.8723 42.2833 42.9973 41.8917 43.1307 41.475C43.2807 41.0583 43.414 40.6917 43.5307 40.375C43.6473 40.0417 43.7307 39.85 43.7807 39.8C43.8807 39.7167 43.989 39.6417 44.1057 39.575C44.239 39.5083 44.364 39.4667 44.4807 39.45C44.6807 39.5167 44.839 39.6083 44.9557 39.725C45.089 39.825 45.1973 39.9417 45.2807 40.075C45.3807 40.2083 45.4807 40.3583 45.5807 40.525C45.6807 40.725 45.714 40.9167 45.6807 41.1C45.6473 41.2667 45.5973 41.4667 45.5307 41.7C45.4973 41.7333 45.439 41.85 45.3557 42.05C45.2723 42.2333 45.189 42.45 45.1057 42.7C45.0223 42.95 44.9473 43.1833 44.8807 43.4C44.814 43.6167 44.7723 43.7583 44.7557 43.825C44.6723 43.9583 44.5973 44.1 44.5307 44.25C44.464 44.3833 44.4057 44.525 44.3557 44.675C44.339 44.7417 44.3223 44.8 44.3057 44.85C44.289 44.9 44.264 44.9583 44.2307 45.025C44.2807 44.9917 44.389 44.9667 44.5557 44.95C44.7223 44.9167 44.889 44.8917 45.0557 44.875C45.239 44.8583 45.364 44.85 45.4307 44.85C45.5307 44.7667 45.6057 44.6667 45.6557 44.55C45.7223 44.4167 45.7557 44.2833 45.7557 44.15C45.8057 44.0833 45.889 43.9083 46.0057 43.625C46.1223 43.3417 46.2473 43.0333 46.3807 42.7C46.514 42.35 46.6307 42.0333 46.7307 41.75C46.8307 41.4667 46.8807 41.2917 46.8807 41.225C47.0473 41.0083 47.164 40.7667 47.2307 40.5C47.2973 40.2167 47.3723 39.95 47.4557 39.7C47.589 39.65 47.7223 39.6 47.8557 39.55C47.989 39.4833 48.114 39.4083 48.2307 39.325C48.7807 39.5583 49.214 39.9083 49.5307 40.375C49.5473 40.525 49.5557 40.675 49.5557 40.825C49.5557 40.975 49.564 41.125 49.5807 41.275C49.4473 41.5083 49.3223 41.75 49.2057 42C49.1057 42.2333 49.014 42.4833 48.9307 42.75C48.814 43.1667 48.6807 43.5917 48.5307 44.025C48.3973 44.4583 48.239 44.8833 48.0557 45.3C47.889 45.7167 47.7057 46.125 47.5057 46.525C47.4723 46.625 47.4307 46.7167 47.3807 46.8C47.3307 46.8833 47.2807 46.9583 47.2307 47.025C47.1307 47.1417 47.0307 47.225 46.9307 47.275C46.8307 47.325 46.714 47.35 46.5807 47.35C46.464 47.35 46.3307 47.325 46.1807 47.275C46.0307 47.2083 45.8723 47.1167 45.7057 47C45.639 47.0167 45.564 47.0417 45.4807 47.075C45.414 47.1083 45.3473 47.1417 45.2807 47.175C45.114 47.1417 44.9557 47.1417 44.8057 47.175C44.6723 47.2083 44.514 47.225 44.3307 47.225C44.014 47.225 43.614 47.2583 43.1307 47.325C42.6473 47.3917 42.139 47.4667 41.6057 47.55C41.0223 47.6167 40.4557 47.675 39.9057 47.725C39.3723 47.7583 38.964 47.7333 38.6807 47.65ZM54.1559 48.45C53.2392 48.45 52.5309 48.1833 52.0309 47.65C51.5475 47.1167 51.3059 46.3 51.3059 45.2C51.3059 44.6 51.4142 43.9417 51.6309 43.225C51.8642 42.5083 52.1642 41.8083 52.5309 41.125C52.9142 40.4417 53.3309 39.85 53.7809 39.35C54.2309 38.8333 54.6809 38.475 55.1309 38.275C55.2975 38.1917 55.4725 38.1333 55.6559 38.1C55.8559 38.05 56.0475 38.025 56.2309 38.025C56.4309 38.025 56.6475 38.0417 56.8809 38.075C57.1309 38.0917 57.3642 38.1417 57.5809 38.225C57.9642 38.3417 58.2975 38.5667 58.5809 38.9C58.8809 39.2333 59.0309 39.7167 59.0309 40.35C59.0309 40.5167 59.0142 40.7 58.9809 40.9C58.9475 41.0833 58.8892 41.2667 58.8059 41.45C58.5892 42 58.2559 42.525 57.8059 43.025C57.3725 43.525 56.9142 43.875 56.4309 44.075C56.2975 44.1417 56.1642 44.1917 56.0309 44.225C55.9142 44.2417 55.7892 44.25 55.6559 44.25C55.3059 44.25 54.9892 44.2 54.7059 44.1C54.4392 44 54.1892 43.8667 53.9559 43.7L53.7559 43.525L53.6309 43.775C53.5142 44.0917 53.4309 44.3583 53.3809 44.575C53.3475 44.7917 53.3309 44.95 53.3309 45.05C53.3309 45.25 53.3392 45.4583 53.3559 45.675C53.3725 45.875 53.4225 46.0417 53.5059 46.175C53.5725 46.2583 53.6559 46.325 53.7559 46.375C53.8725 46.425 54.0142 46.45 54.1809 46.45C54.2809 46.45 54.3725 46.45 54.4559 46.45C54.5559 46.4333 54.6392 46.4167 54.7059 46.4C55.0059 46.3333 55.2475 46.225 55.4309 46.075C55.6309 45.9083 55.8392 45.7667 56.0559 45.65L56.1559 45.6L56.1309 45.525C56.4142 45.375 56.6059 45.2833 56.7059 45.25C56.8059 45.2 56.8809 45.1583 56.9309 45.125C56.9975 45.0583 57.0725 45.025 57.1559 45.025C57.3892 44.9917 57.6142 45.0583 57.8309 45.225C58.0642 45.375 58.1809 45.5667 58.1809 45.8C58.1809 45.9 58.1059 46.0583 57.9559 46.275C57.8225 46.4917 57.6475 46.7083 57.4309 46.925C57.2309 47.125 57.0225 47.2833 56.8059 47.4C56.7559 47.4167 56.7059 47.4417 56.6559 47.475C56.6059 47.4917 56.5559 47.5167 56.5059 47.55H56.5309C56.3809 47.75 56.2309 47.85 56.0809 47.85H55.8809C55.8142 47.9667 55.5975 48.0917 55.2309 48.225C54.8642 48.375 54.5059 48.45 54.1559 48.45ZM55.4559 42.425C55.6059 42.425 55.7392 42.4 55.8559 42.35C55.9892 42.3 56.1142 42.2417 56.2309 42.175C56.6309 41.8917 56.8892 41.525 57.0059 41.075C57.1225 40.625 57.0809 40.2833 56.8809 40.05C56.8475 40 56.8059 39.9667 56.7559 39.95C56.7059 39.9167 56.6475 39.9 56.5809 39.9C56.3975 39.9 56.1892 39.9583 55.9559 40.075C55.7392 40.1917 55.5225 40.3583 55.3059 40.575C55.0892 40.7917 54.8892 41.05 54.7059 41.35L54.3809 41.875C54.4142 41.8583 54.4392 41.85 54.4559 41.85C54.4892 41.8333 54.5142 41.825 54.5309 41.825C54.6809 41.825 54.7809 41.875 54.8309 41.975C54.8809 42.075 54.9392 42.175 55.0059 42.275C55.0892 42.375 55.2392 42.425 55.4559 42.425ZM61.8652 47.175C61.5486 47.0417 61.2902 46.8417 61.0902 46.575C60.9069 46.2917 60.8152 45.95 60.8152 45.55C60.8152 45.3833 60.8486 45.1 60.9152 44.7C60.9819 44.3 61.0736 43.85 61.1902 43.35C61.3069 42.85 61.4236 42.3833 61.5402 41.95C61.7069 41.65 61.8152 41.35 61.8652 41.05C61.9319 40.75 61.9652 40.5667 61.9652 40.5C61.9986 40.3 62.0569 40.0333 62.1402 39.7C62.2236 39.3667 62.3069 39.0667 62.3902 38.8C62.4902 38.5167 62.5569 38.3583 62.5902 38.325C62.6736 38.2417 62.8152 38.1917 63.0152 38.175C63.2152 38.1583 63.4152 38.1833 63.6152 38.25C63.8152 38.3 63.9486 38.4083 64.0152 38.575C64.1986 38.775 64.2986 39.075 64.3152 39.475C64.3486 39.875 64.2736 40.3417 64.0902 40.875C63.9402 41.2083 63.7902 41.6 63.6402 42.05C63.4902 42.5 63.3569 42.9167 63.2402 43.3C63.1402 43.6667 63.0819 43.9167 63.0652 44.05L62.1652 44.025C62.4486 43.7583 62.7152 43.4833 62.9652 43.2C63.2152 42.9 63.3986 42.6667 63.5152 42.5C63.7986 42.1167 64.0402 41.8 64.2402 41.55C64.4569 41.2833 64.7319 40.9667 65.0652 40.6C65.3986 40.2167 65.7569 39.95 66.1402 39.8C66.5236 39.6333 66.8069 39.55 66.9902 39.55C67.3569 39.6167 67.6819 39.8083 67.9652 40.125C68.2652 40.425 68.4486 40.875 68.5152 41.475C68.5152 41.7083 68.4902 41.9833 68.4402 42.3C68.4069 42.6167 68.3902 42.775 68.3902 42.775C68.3902 42.775 68.5236 42.6083 68.7902 42.275C69.0736 41.9417 69.4486 41.5667 69.9152 41.15C70.2319 40.9167 70.5402 40.7833 70.8402 40.75C71.1402 40.7 71.4069 40.8 71.6402 41.05C72.0736 41.2833 72.3902 41.6917 72.5902 42.275C72.7902 42.8583 72.8569 43.5167 72.7902 44.25C72.7402 44.6833 72.7402 45.0333 72.7902 45.3C72.8569 45.55 72.9236 45.775 72.9902 45.975C73.2069 46.275 73.2402 46.5417 73.0902 46.775C72.9402 46.9917 72.8069 47.1 72.6902 47.1C72.5236 47.1 72.2736 47.0667 71.9402 47C71.6069 46.9333 71.2986 46.8167 71.0152 46.65C70.7486 46.4833 70.6152 46.2583 70.6152 45.975V44.425C70.6152 44.0583 70.5986 43.7917 70.5652 43.625C70.5486 43.4417 70.5069 43.325 70.4402 43.275C70.2569 43.175 70.0319 43.25 69.7652 43.5C69.4986 43.75 69.2069 44.1083 68.8902 44.575C68.5902 45.025 68.2652 45.5333 67.9152 46.1C67.5986 46.6167 67.3402 46.9333 67.1402 47.05C66.9402 47.15 66.7486 47.1417 66.5652 47.025C66.1986 46.9083 65.9652 46.75 65.8652 46.55C65.7819 46.3333 65.7736 46.0917 65.8402 45.825C65.9236 45.5417 66.0236 45.175 66.1402 44.725C66.2736 44.275 66.3986 43.8417 66.5152 43.425C66.6319 42.9917 66.7069 42.675 66.7402 42.475C66.6736 42.3417 66.5569 42.3 66.3902 42.35C66.2402 42.3833 66.0819 42.4583 65.9152 42.575C65.7152 42.7083 65.4986 42.85 65.2652 43C65.0486 43.15 64.7902 43.4667 64.4902 43.95C64.2902 44.2667 64.0652 44.6167 63.8152 45C63.5652 45.3667 63.3319 45.7 63.1152 46C62.9152 46.3 62.7486 46.5083 62.6152 46.625C62.4986 46.925 62.3902 47.1167 62.2902 47.2C62.1902 47.2667 62.0486 47.2583 61.8652 47.175Z" fill="#820201"/>
</g>
<defs>
<clipPath id="clip0_43_50">
<rect width="129" height="60" fill="white"/>
</clipPath>
</defs>
</svg>
