<svg width="129" height="60" viewBox="0 0 129 60" fill="none" xmlns="http://www.w3.org/2000/svg">
<g clip-path="url(#clip0_36_44)">
<path d="M5.82838 3.992L8.83638 3.48V26.52L5.82838 27V4.824L2.66038 7.48L2.34038 7.096L5.82838 4.184V3.992ZM37.0914 27C36.2914 27 35.6194 26.328 35.6194 25.528C35.6194 24.696 36.2914 24.024 37.0914 24.024C37.9234 24.024 38.5954 24.696 38.5954 25.528C38.5954 26.328 37.9234 27 37.0914 27ZM37.0914 11.992C36.2914 11.992 35.6194 11.32 35.6194 10.488C35.6194 9.656 36.2914 8.984 37.0914 8.984C37.9234 8.984 38.5954 9.656 38.5954 10.488C38.5954 11.32 37.9234 11.992 37.0914 11.992ZM78.7211 3.48C85.2171 3.48 89.2171 7 89.2171 15C89.2171 23 84.7371 27 78.7211 27C72.2251 27 68.2251 23 68.2251 15C68.2251 7 72.7051 3.48 78.7211 3.48ZM79.7131 26.52C85.2171 26.52 86.2411 20.504 86.2411 15C86.2411 7 82.2091 3.992 77.7291 3.992C72.7051 3.992 71.2011 9.496 71.2011 15C71.2011 23 75.2011 26.52 79.7131 26.52Z" fill="#262626"/>
<path d="M15.6879 3.873C15.8859 3.917 16.2489 3.95 16.7769 3.972C17.3049 3.994 17.9099 4.016 18.5919 4.038C19.2739 4.038 19.9449 4.038 20.6049 4.038H27.9309V4.731C27.4689 5.853 26.9079 7.008 26.2479 8.196C25.6099 9.384 24.9719 10.66 24.3339 12.024C23.7179 13.366 23.2009 14.829 22.7829 16.413C22.3869 17.975 22.1999 19.702 22.2219 21.594C22.2219 21.946 22.2329 22.276 22.2549 22.584C22.2769 22.892 22.2989 23.178 22.3209 23.442C22.3429 23.706 22.3539 23.959 22.3539 24.201C22.3539 24.685 22.2109 25.081 21.9249 25.389C21.6389 25.719 21.2649 25.884 20.8029 25.884C20.2969 25.884 19.9229 25.697 19.6809 25.323C19.4389 24.949 19.3179 24.52 19.3179 24.036C19.3179 22.54 19.5049 21.099 19.8789 19.713C20.2749 18.327 20.7809 16.985 21.3969 15.687C22.0129 14.367 22.6839 13.091 23.4099 11.859C24.1579 10.605 24.8839 9.395 25.5879 8.229C26.3139 7.041 26.9629 5.875 27.5349 4.731L26.6109 6.81H18.5919C17.6899 6.81 17.1179 6.931 16.8759 7.173C16.6339 7.415 16.4689 7.855 16.3809 8.493H15.8199C15.8199 7.327 15.8089 6.392 15.7869 5.688C15.7649 4.984 15.7319 4.379 15.6879 3.873Z" fill="#262626"/>
<path d="M12.6897 36.382C14.9904 36.382 17.0011 36.701 18.7217 37.339C20.4617 37.977 21.8054 38.905 22.7527 40.123C23.7194 41.3217 24.2027 42.8007 24.2027 44.56C24.2027 46.2613 23.7097 47.75 22.7237 49.026C21.7571 50.302 20.4037 51.2977 18.6637 52.013C16.9237 52.7283 14.9227 53.086 12.6607 53.086C10.3601 53.086 8.33975 52.7573 6.59975 52.1C4.87908 51.4427 3.53541 50.4857 2.56875 49.229C1.62141 47.953 1.14775 46.416 1.14775 44.618C1.14775 42.9747 1.64075 41.5343 2.62675 40.297C3.61275 39.0597 4.96608 38.1027 6.68675 37.426C8.42675 36.73 10.4277 36.382 12.6897 36.382ZM12.5737 36.904C10.8531 36.904 9.35475 37.2327 8.07875 37.89C6.80275 38.528 5.80708 39.4173 5.09175 40.558C4.39575 41.6987 4.04775 43.0133 4.04775 44.502C4.04775 46.1453 4.42475 47.576 5.17875 48.794C5.95208 49.9927 6.99608 50.9207 8.31075 51.578C9.64475 52.2353 11.1334 52.564 12.7767 52.564C14.4974 52.564 15.9957 52.2257 17.2717 51.549C18.5477 50.8723 19.5337 49.9443 20.2297 48.765C20.9451 47.5663 21.3027 46.2033 21.3027 44.676C21.3027 43.0713 20.9161 41.689 20.1427 40.529C19.3887 39.369 18.3544 38.4797 17.0397 37.861C15.7251 37.223 14.2364 36.904 12.5737 36.904ZM16.4017 32.322V32.902C15.7444 32.9213 15.2417 32.9987 14.8937 33.134C14.5651 33.25 14.3427 33.482 14.2267 33.83C14.1107 34.1587 14.0527 34.6807 14.0527 35.396V54.072C14.0527 54.7873 14.1107 55.319 14.2267 55.667C14.3427 56.015 14.5651 56.2373 14.8937 56.334C15.2417 56.45 15.7444 56.5273 16.4017 56.566V57.146C15.9571 57.1073 15.3964 57.0783 14.7197 57.059C14.0624 57.059 13.3954 57.059 12.7187 57.059C11.9647 57.059 11.2591 57.059 10.6017 57.059C9.94441 57.0783 9.41275 57.1073 9.00675 57.146V56.566C9.66408 56.5273 10.1571 56.45 10.4857 56.334C10.8337 56.218 11.0657 55.986 11.1817 55.638C11.2977 55.29 11.3557 54.768 11.3557 54.072V35.396C11.3557 34.6807 11.2977 34.149 11.1817 33.801C11.0657 33.453 10.8337 33.221 10.4857 33.105C10.1571 32.989 9.66408 32.9213 9.00675 32.902V32.322C9.41275 32.3413 9.94441 32.3607 10.6017 32.38C11.2591 32.3993 11.9647 32.409 12.7187 32.409C13.3954 32.409 14.0624 32.3993 14.7197 32.38C15.3964 32.3607 15.9571 32.3413 16.4017 32.322ZM39.3011 40.065V40.645C38.9338 40.6837 38.5954 40.848 38.2861 41.138C37.9768 41.428 37.6868 41.9403 37.4161 42.675L32.6601 55.145H32.1671L26.8311 42.298C26.4638 41.544 26.0964 41.0897 25.7291 40.935C25.3811 40.761 25.0911 40.674 24.8591 40.674V40.065C25.2844 40.123 25.7291 40.1713 26.1931 40.21C26.6571 40.2293 27.1598 40.239 27.7011 40.239C28.3004 40.239 28.9288 40.2197 29.5861 40.181C30.2628 40.1423 30.8911 40.1037 31.4711 40.065V40.674C30.9878 40.674 30.5528 40.7127 30.1661 40.79C29.7988 40.848 29.5668 41.051 29.4701 41.399C29.3734 41.7277 29.4894 42.298 29.8181 43.11L33.3851 51.955L33.2111 52.013L36.5171 43.371C36.7684 42.733 36.8651 42.2303 36.8071 41.863C36.7684 41.4763 36.5751 41.1863 36.2271 40.993C35.8791 40.7997 35.3571 40.6837 34.6611 40.645V40.065C35.0091 40.0843 35.3088 40.1037 35.5601 40.123C35.8114 40.123 36.0531 40.1327 36.2851 40.152C36.5364 40.152 36.8071 40.152 37.0971 40.152C37.5418 40.152 37.9381 40.1423 38.2861 40.123C38.6534 40.1037 38.9918 40.0843 39.3011 40.065ZM32.6601 55.145L31.6741 57.668C31.4808 58.1513 31.2778 58.5573 31.0651 58.886C30.8718 59.2147 30.6591 59.4853 30.4271 59.698C30.1178 59.988 29.7504 60.1813 29.3251 60.278C28.8998 60.394 28.5131 60.452 28.1651 60.452C27.7978 60.452 27.4594 60.3843 27.1501 60.249C26.8601 60.1137 26.6281 59.9107 26.4541 59.64C26.2801 59.3887 26.1931 59.0793 26.1931 58.712C26.1931 58.248 26.3284 57.871 26.5991 57.581C26.8698 57.3103 27.2468 57.175 27.7301 57.175C28.1361 57.175 28.4841 57.291 28.7741 57.523C29.0641 57.755 29.2091 58.0933 29.2091 58.538C29.2091 58.8667 29.1318 59.1373 28.9771 59.35C28.8224 59.5627 28.6388 59.727 28.4261 59.843C28.4648 59.8623 28.4938 59.872 28.5131 59.872C28.5518 59.872 28.5808 59.872 28.6001 59.872C29.1221 59.872 29.5861 59.6883 29.9921 59.321C30.3981 58.973 30.7558 58.4027 31.0651 57.61L32.1091 54.913L32.6601 55.145ZM45.0404 39.746V57.552C45.0404 58.3833 45.282 58.9343 45.7654 59.205C46.268 59.495 46.9544 59.64 47.8244 59.64V60.249C47.399 60.2297 46.8094 60.2007 46.0554 60.162C45.3014 60.1427 44.499 60.133 43.6484 60.133C43.049 60.133 42.4497 60.1427 41.8504 60.162C41.2704 60.2007 40.8257 60.2297 40.5164 60.249V59.64C41.2124 59.64 41.7054 59.5143 41.9954 59.263C42.2854 59.0117 42.4304 58.538 42.4304 57.842V43.226C42.4304 42.356 42.2757 41.718 41.9664 41.312C41.657 40.8867 41.077 40.674 40.2264 40.674V40.065C40.845 40.123 41.4444 40.152 42.0244 40.152C42.585 40.152 43.1167 40.123 43.6194 40.065C44.1414 39.9877 44.615 39.8813 45.0404 39.746ZM49.6804 39.659C50.705 39.659 51.6234 39.9393 52.4354 40.5C53.2474 41.0413 53.8854 41.8437 54.3494 42.907C54.8327 43.9703 55.0744 45.285 55.0744 46.851C55.0744 47.895 54.9487 48.9293 54.6974 49.954C54.446 50.9593 54.0497 51.8777 53.5084 52.709C52.9864 53.521 52.3 54.1783 51.4494 54.681C50.618 55.1643 49.6127 55.406 48.4334 55.406C47.5247 55.406 46.732 55.1933 46.0554 54.768C45.398 54.3427 44.9534 53.8303 44.7214 53.231L45.0114 52.825C45.282 53.3663 45.6687 53.8207 46.1714 54.188C46.6934 54.5553 47.341 54.739 48.1144 54.739C49.197 54.739 50.038 54.4007 50.6374 53.724C51.2367 53.0473 51.6524 52.1483 51.8844 51.027C52.1357 49.8863 52.2614 48.6297 52.2614 47.257C52.2614 45.7103 52.1357 44.444 51.8844 43.458C51.633 42.472 51.256 41.7373 50.7534 41.254C50.2507 40.7707 49.632 40.529 48.8974 40.529C47.95 40.529 47.0897 40.9253 46.3164 41.718C45.543 42.4913 45.05 43.6707 44.8374 45.256L44.4894 44.85C44.702 43.2067 45.282 41.9307 46.2294 41.022C47.196 40.1133 48.3464 39.659 49.6804 39.659ZM80.074 40.094V40.703C79.2813 40.703 78.711 40.848 78.363 41.138C78.0343 41.428 77.87 41.979 77.87 42.791V52.303C77.87 53.115 78.0343 53.666 78.363 53.956C78.711 54.246 79.2813 54.391 80.074 54.391V55C79.8613 54.9807 79.5616 54.971 79.175 54.971C78.7883 54.9517 78.363 54.9323 77.899 54.913C77.4543 54.8937 77.0193 54.884 76.594 54.884C75.8786 54.884 75.1923 54.9033 74.535 54.942C73.8776 54.9807 73.23 55 72.592 55C71.954 55 71.2966 54.9807 70.62 54.942C69.9433 54.9033 69.286 54.884 68.648 54.884C68.01 54.884 67.3623 54.9033 66.705 54.942C66.067 54.9807 65.4386 55 64.82 55C64.414 55 63.9886 54.9903 63.544 54.971C63.1186 54.9517 62.674 54.9323 62.21 54.913C61.746 54.8937 61.2626 54.884 60.76 54.884C60.3346 54.884 59.89 54.8937 59.426 54.913C58.9813 54.9323 58.5656 54.9517 58.179 54.971C57.8116 54.971 57.512 54.9807 57.28 55V54.391C58.0726 54.391 58.6333 54.246 58.962 53.956C59.31 53.666 59.484 53.115 59.484 52.303V42.791C59.484 41.979 59.31 41.428 58.962 41.138C58.6333 40.848 58.0726 40.703 57.28 40.703V40.094C57.6086 40.1133 58.1113 40.1423 58.788 40.181C59.484 40.2003 60.1316 40.21 60.731 40.21C61.3496 40.21 61.9296 40.2003 62.471 40.181C63.0316 40.1423 63.4473 40.1133 63.718 40.094V40.703C63.1186 40.703 62.6933 40.848 62.442 41.138C62.21 41.428 62.094 41.979 62.094 42.791V52.303C62.094 53.115 62.2486 53.666 62.558 53.956C62.8673 54.246 63.4086 54.391 64.182 54.391H65.458C66.154 54.391 66.647 54.246 66.937 53.956C67.227 53.666 67.372 53.115 67.372 52.303V42.791C67.372 41.979 67.2463 41.428 66.995 41.138C66.763 40.848 66.3473 40.703 65.748 40.703V40.094C66.0186 40.1133 66.4343 40.1423 66.995 40.181C67.575 40.2003 68.1356 40.21 68.677 40.21C69.2376 40.21 69.7983 40.2003 70.359 40.181C70.9196 40.1423 71.3353 40.1133 71.606 40.094V40.703C71.0066 40.703 70.5813 40.848 70.33 41.138C70.098 41.428 69.982 41.979 69.982 42.791V52.303C69.982 53.115 70.127 53.666 70.417 53.956C70.707 54.246 71.2 54.391 71.896 54.391H73.346C74.042 54.391 74.535 54.246 74.825 53.956C75.115 53.666 75.26 53.115 75.26 52.303V42.791C75.26 41.979 75.1343 41.428 74.883 41.138C74.651 40.848 74.2353 40.703 73.636 40.703V40.094C73.9066 40.1133 74.3223 40.1423 74.883 40.181C75.4436 40.2003 76.0236 40.21 76.623 40.21C77.2416 40.21 77.8893 40.2003 78.566 40.181C79.2426 40.1423 79.7453 40.1133 80.074 40.094ZM88.7957 39.659C90.497 39.659 91.8214 40.181 92.7687 41.225C93.7354 42.2497 94.2187 43.8543 94.2187 46.039H83.9817L83.9527 45.488H91.4347C91.4734 44.5407 91.396 43.6707 91.2027 42.878C91.0094 42.066 90.7 41.4183 90.2747 40.935C89.8687 40.4517 89.337 40.21 88.6797 40.21C87.7904 40.21 86.9977 40.6547 86.3017 41.544C85.625 42.4333 85.219 43.8447 85.0837 45.778L85.1707 45.894C85.132 46.184 85.103 46.503 85.0837 46.851C85.0644 47.199 85.0547 47.547 85.0547 47.895C85.0547 49.2097 85.2674 50.3407 85.6927 51.288C86.118 52.2353 86.669 52.9603 87.3457 53.463C88.0417 53.9463 88.757 54.188 89.4917 54.188C90.0717 54.188 90.6227 54.101 91.1447 53.927C91.6667 53.7337 92.15 53.4243 92.5947 52.999C93.0394 52.5737 93.426 52.0033 93.7547 51.288L94.3347 51.52C94.122 52.158 93.774 52.7767 93.2907 53.376C92.8074 53.9753 92.1984 54.4683 91.4637 54.855C90.729 55.2223 89.8784 55.406 88.9117 55.406C87.5197 55.406 86.321 55.087 85.3157 54.449C84.3297 53.811 83.566 52.9313 83.0247 51.81C82.5027 50.6693 82.2417 49.3643 82.2417 47.895C82.2417 46.1937 82.5124 44.734 83.0537 43.516C83.595 42.2787 84.3587 41.3313 85.3447 40.674C86.3307 39.9973 87.481 39.659 88.7957 39.659ZM110.716 40.094C110.638 40.7707 110.58 41.4183 110.542 42.037C110.522 42.6557 110.513 43.1293 110.513 43.458C110.513 43.806 110.522 44.1443 110.542 44.473C110.561 44.7823 110.58 45.0433 110.6 45.256H109.933C109.836 43.922 109.633 42.9263 109.324 42.269C109.014 41.6117 108.589 41.1863 108.048 40.993C107.506 40.7803 106.839 40.674 106.047 40.674H104.916V52.013C104.916 52.9603 105.186 53.5983 105.728 53.927C106.288 54.2363 107.042 54.391 107.99 54.391V55C107.545 54.9807 106.926 54.9613 106.134 54.942C105.36 54.9033 104.519 54.884 103.611 54.884C102.721 54.884 101.88 54.9033 101.088 54.942C100.295 54.9613 99.6763 54.9807 99.2316 55V54.391C100.198 54.391 100.952 54.2363 101.494 53.927C102.035 53.5983 102.306 52.9603 102.306 52.013V40.674H100.885C100.092 40.674 99.4443 40.7803 98.9416 40.993C98.4583 41.2057 98.0813 41.6407 97.8106 42.298C97.5593 42.9553 97.3853 43.951 97.2886 45.285H96.6216C96.6603 45.0723 96.6796 44.8113 96.6796 44.502C96.699 44.1733 96.7086 43.835 96.7086 43.487C96.7086 43.1583 96.6893 42.6847 96.6506 42.066C96.6313 41.4473 96.583 40.7997 96.5056 40.123H99.2896C99.947 40.123 100.643 40.1327 101.378 40.152C102.132 40.1713 102.866 40.181 103.582 40.181C104.316 40.181 105.061 40.1713 105.815 40.152C106.569 40.1133 107.274 40.094 107.932 40.094H110.716Z" fill="#820201"/>
<path d="M56.5467 3.543C57.4707 3.543 58.2847 3.697 58.9887 4.005C59.7147 4.291 60.2757 4.72 60.6717 5.292C61.0897 5.842 61.2987 6.513 61.2987 7.305C61.2987 8.163 61.0567 8.955 60.5727 9.681C60.1107 10.385 59.5057 11.001 58.7577 11.529C58.0097 12.035 57.2177 12.442 56.3817 12.75C57.4157 12.772 58.3947 12.97 59.3187 13.344C60.2427 13.696 61.0017 14.235 61.5957 14.961C62.1897 15.687 62.4867 16.622 62.4867 17.766C62.4867 18.778 62.2447 19.713 61.7607 20.571C61.2987 21.407 60.6497 22.155 59.8137 22.815C58.9997 23.497 58.0647 24.069 57.0087 24.531C55.9527 25.015 54.8417 25.378 53.6757 25.62C52.5317 25.862 51.3987 25.983 50.2767 25.983V25.389C51.3987 25.367 52.4987 25.18 53.5767 24.828C54.6547 24.498 55.6227 24.014 56.4807 23.376C57.3607 22.738 58.0537 21.946 58.5597 21C59.0877 20.054 59.3517 18.976 59.3517 17.766C59.3517 16.468 59.0327 15.401 58.3947 14.565C57.7787 13.707 56.9317 13.234 55.8537 13.146C55.5237 13.278 55.2267 13.399 54.9627 13.509C54.7207 13.597 54.5007 13.641 54.3027 13.641C54.1267 13.641 53.9947 13.608 53.9067 13.542C53.8187 13.454 53.7747 13.344 53.7747 13.212C53.7747 13.014 53.8627 12.86 54.0387 12.75C54.2147 12.64 54.4127 12.585 54.6327 12.585C54.8087 12.585 54.9847 12.607 55.1607 12.651C55.3587 12.673 55.5677 12.695 55.7877 12.717C56.6897 12.035 57.3387 11.287 57.7347 10.473C58.1307 9.637 58.3287 8.801 58.3287 7.965C58.3287 6.931 58.0647 6.183 57.5367 5.721C57.0307 5.237 56.3377 4.995 55.4577 4.995C54.5557 4.995 53.7197 5.237 52.9497 5.721C52.2017 6.205 51.5747 6.942 51.0687 7.932L50.5077 7.668C50.8377 6.942 51.2667 6.271 51.7947 5.655C52.3227 5.017 52.9717 4.511 53.7417 4.137C54.5337 3.741 55.4687 3.543 56.5467 3.543Z" fill="#262626"/>
</g>
<defs>
<clipPath id="clip0_36_44">
<rect width="129" height="60" fill="white"/>
</clipPath>
</defs>
</svg>
