<svg width="348" height="40" viewBox="0 0 348 40" fill="none" xmlns="http://www.w3.org/2000/svg">
<path d="M34.9192 0.610082L37.5022 1.88108C35.7529 4.72375 33.6756 7.25208 31.2702 9.46608C28.8922 11.6801 25.7216 13.8804 21.7582 16.0671C22.5236 20.0304 23.4666 23.2011 24.5872 25.5791C25.7079 27.9844 27.1702 29.3237 28.9742 29.5971V31.4831C28.7556 31.5104 28.4686 31.5241 28.1132 31.5241C26.2819 31.5241 24.5052 30.2531 22.7832 27.7111C21.0886 25.1691 19.5579 21.4107 18.1912 16.4361C17.0159 20.1261 15.2256 23.0507 12.8202 25.2101C10.4149 27.3421 7.91389 28.4081 5.31723 28.4081C3.97789 28.4081 2.87089 28.0391 1.99623 27.3011C1.14889 26.5904 0.725227 25.6064 0.725227 24.3491C0.725227 23.0644 1.29923 21.7387 2.44723 20.3721C3.59523 19.0054 5.16689 17.8574 7.16223 16.9281L8.10523 18.4041C5.64523 20.1534 4.41523 21.7934 4.41523 23.3241C4.41523 24.0621 4.66123 24.6634 5.15323 25.1281C5.64523 25.5654 6.28756 25.7841 7.08023 25.7841C8.93889 25.7841 10.5379 25.0051 11.8772 23.4471C13.2439 21.8617 14.4602 19.1011 15.5262 15.1651C16.8656 10.2177 18.2322 6.97875 19.6262 5.44808C20.2549 4.73742 21.1706 3.95842 22.3732 3.11108C20.4872 3.16575 18.5602 3.49375 16.5922 4.09508C14.6242 4.66908 12.9022 5.54375 11.4262 6.71908C9.95023 7.86708 9.21223 9.15175 9.21223 10.5731C9.21223 12.4044 10.0459 13.8667 11.7132 14.9601L10.8932 16.2311C9.36256 15.4931 8.15989 14.5364 7.28523 13.3611C6.41056 12.1857 5.97323 10.9694 5.97323 9.71208C5.97323 7.99008 6.91623 6.36375 8.80223 4.83308C10.6882 3.30242 12.9979 2.11341 15.7312 1.26608C18.4919 0.418749 21.1979 -0.00491738 23.8492 -0.00491738C25.4892 -0.00491738 26.3092 0.350415 26.3092 1.06108C26.3092 1.52575 25.8309 2.11342 24.8742 2.82408C23.1249 4.13608 21.7719 5.84442 20.8152 7.94908C19.8859 10.0537 19.1206 12.5137 18.5192 15.3291C21.6352 14.1811 24.6146 12.2814 27.4572 9.63008C30.3272 6.95142 32.8146 3.94475 34.9192 0.610082ZM45.7419 13.0331C46.4526 14.2084 46.8079 15.5067 46.8079 16.9281C46.8079 19.1421 46.0426 21.1237 44.5119 22.8731C42.9813 24.5951 41.1773 25.4561 39.0999 25.4561C37.5146 25.4561 36.2709 25.0051 35.3689 24.1031C34.4943 23.1737 34.0569 21.9027 34.0569 20.2901C34.0569 17.6934 35.0683 15.3701 37.0909 13.3201C39.1136 11.2427 41.3823 10.2041 43.8969 10.2041C44.3616 10.2041 44.6896 10.2177 44.8809 10.2451L45.0039 11.5981C42.8173 11.5981 40.9996 12.2267 39.5509 13.4841C38.1023 14.7414 37.3779 16.3541 37.3779 18.3221C37.3779 19.4974 37.6649 20.4541 38.2389 21.1921C38.8129 21.9027 39.6466 22.2581 40.7399 22.2581C41.8606 22.2581 42.7489 21.7661 43.4049 20.7821C44.0609 19.7981 44.3889 18.6501 44.3889 17.3381C44.3889 15.9987 44.1293 14.7824 43.6099 13.6891L45.7419 13.0331ZM64.954 9.26108L66.553 9.63008C66.5256 9.82142 66.1293 10.6551 65.364 12.1311C64.626 13.5797 63.8333 15.4931 62.986 17.8711C62.1386 20.2217 61.592 22.5997 61.346 25.0051L58.722 24.8001C58.722 23.2967 59.2003 21.3561 60.157 18.9781C59.911 18.9507 59.4053 18.9371 58.64 18.9371C57.902 18.9371 56.5353 19.1147 54.54 19.4701C53.146 22.5861 52.449 25.2511 52.449 27.4651L49.702 27.0961C49.702 25.1554 50.4263 22.7637 51.875 19.9211C50.481 20.1397 49.087 20.4677 47.693 20.9051L47.283 19.3061C47.283 19.2241 48.0073 18.9917 49.456 18.6091C50.932 18.2264 52.0253 17.9804 52.736 17.8711C54.9226 12.8417 56.4123 9.93075 57.205 9.13808L58.968 9.83508C58.8313 10.1084 58.517 10.7234 58.025 11.6801C56.795 14.0581 55.9613 15.9167 55.524 17.2561C57.902 17.0101 59.3233 16.8871 59.788 16.8871C60.28 16.8871 60.69 16.9007 61.018 16.9281C62.9313 12.5274 64.2433 9.97175 64.954 9.26108ZM80.0955 13.0331C80.8061 14.2084 81.1615 15.5067 81.1615 16.9281C81.1615 19.1421 80.3961 21.1237 78.8655 22.8731C77.3348 24.5951 75.5308 25.4561 73.4535 25.4561C71.8681 25.4561 70.6245 25.0051 69.7225 24.1031C68.8478 23.1737 68.4105 21.9027 68.4105 20.2901C68.4105 17.6934 69.4218 15.3701 71.4445 13.3201C73.4671 11.2427 75.7358 10.2041 78.2505 10.2041C78.7151 10.2041 79.0431 10.2177 79.2345 10.2451L79.3575 11.5981C77.1708 11.5981 75.3531 12.2267 73.9045 13.4841C72.4558 14.7414 71.7315 16.3541 71.7315 18.3221C71.7315 19.4974 72.0185 20.4541 72.5925 21.1921C73.1665 21.9027 74.0001 22.2581 75.0935 22.2581C76.2141 22.2581 77.1025 21.7661 77.7585 20.7821C78.4145 19.7981 78.7425 18.6501 78.7425 17.3381C78.7425 15.9987 78.4828 14.7824 77.9635 13.6891L80.0955 13.0331ZM97.5445 20.6591L98.5695 21.5611C96.9842 24.1577 95.3032 25.4561 93.5265 25.4561C92.5152 25.4561 91.4765 24.8001 90.4105 23.4881C89.3718 22.1761 88.7432 20.9051 88.5245 19.6751C88.3605 19.9757 87.8958 20.7684 87.1305 22.0531C86.3652 23.3377 85.8185 24.3901 85.4905 25.2101L83.0305 24.3491C83.6045 20.9871 84.3015 17.8164 85.1215 14.8371C85.9688 11.8577 86.7615 9.76675 87.4995 8.56408L89.1805 9.09708C88.6885 10.3544 87.8685 13.7027 86.7205 19.1421C88.2238 16.0534 89.7408 13.7984 91.2715 12.3771C92.8022 10.9284 94.4832 9.97175 96.3145 9.50708V12.2131C94.3465 12.2951 92.4468 13.6207 90.6155 16.1901C90.7248 17.9667 91.2442 19.4427 92.1735 20.6181C93.1302 21.7934 94.0322 22.3811 94.8795 22.3811C95.2895 22.3811 96.1778 21.8071 97.5445 20.6591ZM129.16 19.8801L130.021 20.7001C128.463 23.4881 126.672 24.8821 124.65 24.8821C123.83 24.8821 123.187 24.6634 122.723 24.2261C122.285 23.7614 122.067 23.1601 122.067 22.4221C122.067 21.6567 122.518 20.3584 123.42 18.5271C124.322 16.6957 124.8 15.3017 124.855 14.3451C124.882 13.9077 124.745 13.5524 124.445 13.2791C124.171 13.0057 123.789 12.8691 123.297 12.8691C122.805 12.8691 122.299 12.9921 121.78 13.2381C121.288 13.4567 120.796 13.8257 120.304 14.3451C119.839 14.8644 119.402 15.3701 118.992 15.8621C118.609 16.3541 118.172 17.0511 117.68 17.9531C117.215 18.8551 116.819 19.6067 116.491 20.2081C115.917 21.3287 115.097 23.0097 114.031 25.2511L111.571 24.3901C111.571 24.3081 112.022 22.7637 112.924 19.7571C113.826 16.7504 114.277 14.9601 114.277 14.3861C114.277 13.8121 114.14 13.4021 113.867 13.1561C113.593 12.8827 113.252 12.7461 112.842 12.7461C111.612 12.7461 109.903 14.2767 107.717 17.3381C105.557 20.3994 104.177 23.0097 103.576 25.1691L101.239 24.3901C101.375 22.9414 102.018 20.3447 103.166 16.6001C104.314 12.8281 105.284 10.2587 106.077 8.89208L107.922 9.54808C107.074 11.4341 106.487 13.0331 106.159 14.3451C105.831 15.6297 105.544 17.0101 105.298 18.4861C107.648 15.1241 109.616 12.7734 111.202 11.4341C112.787 10.0674 114.222 9.38408 115.507 9.38408C116.901 9.38408 117.598 10.0811 117.598 11.4751C117.598 12.0217 117.352 13.1014 116.86 14.7141C116.395 16.3267 116.026 17.5977 115.753 18.5271C119.525 12.4591 122.9 9.42508 125.88 9.42508C126.618 9.42508 127.205 9.65742 127.643 10.1221C128.08 10.5594 128.299 11.2291 128.299 12.1311C128.299 13.0057 127.779 14.4681 126.741 16.5181C125.729 18.5681 125.224 19.8664 125.224 20.4131C125.224 20.9324 125.333 21.3151 125.552 21.5611C125.77 21.8071 126.044 21.9301 126.372 21.9301C127.082 21.9301 128.012 21.2467 129.16 19.8801ZM148.683 22.6271L148.806 23.6931C148.697 23.7751 147.426 24.2671 144.993 25.1691C144.665 26.9731 144.242 28.7497 143.722 30.4991C143.23 32.2757 142.725 33.6151 142.205 34.5171C141.713 35.4464 141.126 36.3621 140.442 37.2641C139.076 39.0681 137.231 39.9701 134.907 39.9701C133.759 39.9701 132.844 39.6148 132.16 38.9041C131.477 38.1934 131.135 37.2231 131.135 35.9931C131.135 31.2644 135.099 27.4651 143.025 24.5951L145.239 16.8051C142.889 20.3311 140.77 22.5041 138.884 23.3241C137.955 23.7614 136.971 23.9801 135.932 23.9801C134.921 23.9801 134.101 23.6521 133.472 22.9961C132.871 22.3401 132.57 21.3834 132.57 20.1261C132.57 18.8687 132.994 17.1194 133.841 14.8781C134.716 12.6094 135.686 10.7097 136.752 9.17908L138.761 10.0401C138.679 10.1221 138.297 10.8464 137.613 12.2131C136.411 14.7004 135.809 16.5454 135.809 17.7481C135.809 18.9507 136.042 19.7571 136.506 20.1671C136.971 20.5771 137.654 20.7821 138.556 20.7821C139.458 20.7821 140.47 20.2491 141.59 19.1831C142.738 18.0897 144.501 15.9441 146.879 12.7461L148.355 13.6071C148.137 14.5091 147.645 16.1491 146.879 18.5271C146.141 20.8777 145.636 22.6817 145.362 23.9391L148.683 22.6271ZM142.779 25.8251C141.057 26.6177 139.54 27.5197 138.228 28.5311C135.768 30.3897 134.538 32.1937 134.538 33.9431C134.538 34.5991 134.73 35.1321 135.112 35.5421C135.495 35.9521 135.973 36.1571 136.547 36.1571C139.281 36.1571 141.358 32.7131 142.779 25.8251ZM167.654 9.26108L169.253 9.63008C169.226 9.82142 168.829 10.6551 168.064 12.1311C167.326 13.5797 166.533 15.4931 165.686 17.8711C164.839 20.2217 164.292 22.5997 164.046 25.0051L161.422 24.8001C161.422 23.2967 161.9 21.3561 162.857 18.9781C162.611 18.9507 162.105 18.9371 161.34 18.9371C160.602 18.9371 159.235 19.1147 157.24 19.4701C155.846 22.5861 155.149 25.2511 155.149 27.4651L152.402 27.0961C152.402 25.1554 153.126 22.7637 154.575 19.9211C153.181 20.1397 151.787 20.4677 150.393 20.9051L149.983 19.3061C149.983 19.2241 150.707 18.9917 152.156 18.6091C153.632 18.2264 154.725 17.9804 155.436 17.8711C157.623 12.8417 159.112 9.93075 159.905 9.13808L161.668 9.83508C161.531 10.1084 161.217 10.7234 160.725 11.6801C159.495 14.0581 158.661 15.9167 158.224 17.2561C160.602 17.0101 162.023 16.8871 162.488 16.8871C162.98 16.8871 163.39 16.9007 163.718 16.9281C165.631 12.5274 166.943 9.97175 167.654 9.26108ZM208.399 21.0691L209.342 21.7661C208.959 22.5861 208.249 23.3651 207.21 24.1031C206.199 24.8411 205.269 25.2101 204.422 25.2101C202.809 25.2101 202.003 24.3627 202.003 22.6681C202.003 21.8754 202.208 20.9324 202.618 19.8391L201.101 21.3971C199.625 22.9004 198.34 23.9117 197.247 24.4311C196.181 24.9504 195.129 25.2101 194.09 25.2101C193.051 25.2101 192.259 24.9231 191.712 24.3491C191.193 23.7477 190.933 22.9277 190.933 21.8891C190.933 19.9757 191.671 18.0897 193.147 16.2311C194.623 14.3451 196.509 12.8144 198.805 11.6391C201.101 10.4637 203.397 9.86242 205.693 9.83508L205.775 11.1881L204.053 11.5571C201.566 12.1037 199.365 13.1971 197.452 14.8371C195.566 16.4771 194.623 18.1171 194.623 19.7571C194.623 21.3697 195.279 22.1761 196.591 22.1761C197.821 22.1761 199.338 21.3151 201.142 19.5931C202.946 17.8711 204.449 15.8484 205.652 13.5251L207.374 14.5501C205.679 17.9667 204.832 20.1397 204.832 21.0691C204.832 21.4517 204.955 21.7797 205.201 22.0531C205.474 22.2991 205.734 22.4221 205.98 22.4221C206.253 22.4221 206.431 22.4084 206.513 22.3811C206.595 22.3537 206.677 22.3264 206.759 22.2991C206.841 22.2444 206.937 22.1761 207.046 22.0941C207.183 22.0121 207.292 21.9301 207.374 21.8481C207.483 21.7661 207.647 21.6431 207.866 21.4791C208.085 21.3151 208.262 21.1784 208.399 21.0691ZM227.392 9.26108L228.991 9.63008C228.964 9.82142 228.568 10.6551 227.802 12.1311C227.064 13.5797 226.272 15.4931 225.424 17.8711C224.577 20.2217 224.03 22.5997 223.784 25.0051L221.16 24.8001C221.16 23.2967 221.639 21.3561 222.595 18.9781C222.349 18.9507 221.844 18.9371 221.078 18.9371C220.34 18.9371 218.974 19.1147 216.978 19.4701C215.584 22.5861 214.887 25.2511 214.887 27.4651L212.14 27.0961C212.14 25.1554 212.865 22.7637 214.313 19.9211C212.919 20.1397 211.525 20.4677 210.131 20.9051L209.721 19.3061C209.721 19.2241 210.446 18.9917 211.894 18.6091C213.37 18.2264 214.464 17.9804 215.174 17.8711C217.361 12.8417 218.851 9.93075 219.643 9.13808L221.406 9.83508C221.27 10.1084 220.955 10.7234 220.463 11.6801C219.233 14.0581 218.4 15.9167 217.962 17.2561C220.34 17.0101 221.762 16.8871 222.226 16.8871C222.718 16.8871 223.128 16.9007 223.456 16.9281C225.37 12.5274 226.682 9.97175 227.392 9.26108ZM245.609 20.6591L246.634 21.5611C245.049 24.1577 243.368 25.4561 241.591 25.4561C240.58 25.4561 239.541 24.8001 238.475 23.4881C237.436 22.1761 236.808 20.9051 236.589 19.6751C236.425 19.9757 235.96 20.7684 235.195 22.0531C234.43 23.3377 233.883 24.3901 233.555 25.2101L231.095 24.3491C231.669 20.9871 232.366 17.8164 233.186 14.8371C234.033 11.8577 234.826 9.76675 235.564 8.56408L237.245 9.09708C236.753 10.3544 235.933 13.7027 234.785 19.1421C236.288 16.0534 237.805 13.7984 239.336 12.3771C240.867 10.9284 242.548 9.97175 244.379 9.50708V12.2131C242.411 12.2951 240.511 13.6207 238.68 16.1901C238.789 17.9667 239.309 19.4427 240.238 20.6181C241.195 21.7934 242.097 22.3811 242.944 22.3811C243.354 22.3811 244.242 21.8071 245.609 20.6591ZM260.146 20.3721L261.089 21.1101C260.242 22.2854 259.08 23.2694 257.604 24.0621C256.128 24.8274 254.693 25.2101 253.299 25.2101C251.905 25.2101 250.785 24.8001 249.937 23.9801C249.09 23.1601 248.666 22.0804 248.666 20.7411C248.666 18.2264 249.992 15.7527 252.643 13.3201C255.322 10.8874 258.028 9.67108 260.761 9.67108C262.565 9.67108 263.467 10.3817 263.467 11.8031C263.467 13.2791 262.511 14.7687 260.597 16.2721C258.711 17.7754 256.046 19.1421 252.602 20.3721C252.848 21.0007 253.231 21.4927 253.75 21.8481C254.27 22.2034 254.803 22.3811 255.349 22.3811C256.525 22.3811 258.124 21.7114 260.146 20.3721ZM252.397 19.1421C254.611 18.3767 256.511 17.4201 258.096 16.2721C259.682 15.1241 260.474 14.0717 260.474 13.1151C260.474 12.7597 260.338 12.4454 260.064 12.1721C259.791 11.8987 259.477 11.7621 259.121 11.7621C257.837 11.7621 256.443 12.5684 254.939 14.1811C253.463 15.7664 252.616 17.4201 252.397 19.1421ZM291.078 19.8801L291.939 20.7001C290.381 23.4881 288.59 24.8821 286.568 24.8821C285.748 24.8821 285.105 24.6634 284.641 24.2261C284.203 23.7614 283.985 23.1601 283.985 22.4221C283.985 21.6567 284.436 20.3584 285.338 18.5271C286.24 16.6957 286.718 15.3017 286.773 14.3451C286.8 13.9077 286.663 13.5524 286.363 13.2791C286.089 13.0057 285.707 12.8691 285.215 12.8691C284.723 12.8691 284.217 12.9921 283.698 13.2381C283.206 13.4567 282.714 13.8257 282.222 14.3451C281.757 14.8644 281.32 15.3701 280.91 15.8621C280.527 16.3541 280.09 17.0511 279.598 17.9531C279.133 18.8551 278.737 19.6067 278.409 20.2081C277.835 21.3287 277.015 23.0097 275.949 25.2511L273.489 24.3901C273.489 24.3081 273.94 22.7637 274.842 19.7571C275.744 16.7504 276.195 14.9601 276.195 14.3861C276.195 13.8121 276.058 13.4021 275.785 13.1561C275.511 12.8827 275.17 12.7461 274.76 12.7461C273.53 12.7461 271.821 14.2767 269.635 17.3381C267.475 20.3994 266.095 23.0097 265.494 25.1691L263.157 24.3901C263.293 22.9414 263.936 20.3447 265.084 16.6001C266.232 12.8281 267.202 10.2587 267.995 8.89208L269.84 9.54808C268.992 11.4341 268.405 13.0331 268.077 14.3451C267.749 15.6297 267.462 17.0101 267.216 18.4861C269.566 15.1241 271.534 12.7734 273.12 11.4341C274.705 10.0674 276.14 9.38408 277.425 9.38408C278.819 9.38408 279.516 10.0811 279.516 11.4751C279.516 12.0217 279.27 13.1014 278.778 14.7141C278.313 16.3267 277.944 17.5977 277.671 18.5271C281.443 12.4591 284.818 9.42508 287.798 9.42508C288.536 9.42508 289.123 9.65742 289.561 10.1221C289.998 10.5594 290.217 11.2291 290.217 12.1311C290.217 13.0057 289.697 14.4681 288.659 16.5181C287.647 18.5681 287.142 19.8664 287.142 20.4131C287.142 20.9324 287.251 21.3151 287.47 21.5611C287.688 21.8071 287.962 21.9301 288.29 21.9301C289 21.9301 289.93 21.2467 291.078 19.8801ZM311.339 21.0691L312.282 21.7661C311.9 22.5861 311.189 23.3651 310.15 24.1031C309.139 24.8411 308.21 25.2101 307.362 25.2101C305.75 25.2101 304.943 24.3627 304.943 22.6681C304.943 21.8754 305.148 20.9324 305.558 19.8391L304.041 21.3971C302.565 22.9004 301.281 23.9117 300.187 24.4311C299.121 24.9504 298.069 25.2101 297.03 25.2101C295.992 25.2101 295.199 24.9231 294.652 24.3491C294.133 23.7477 293.873 22.9277 293.873 21.8891C293.873 19.9757 294.611 18.0897 296.087 16.2311C297.563 14.3451 299.449 12.8144 301.745 11.6391C304.041 10.4637 306.337 9.86242 308.633 9.83508L308.715 11.1881L306.993 11.5571C304.506 12.1037 302.306 13.1971 300.392 14.8371C298.506 16.4771 297.563 18.1171 297.563 19.7571C297.563 21.3697 298.219 22.1761 299.531 22.1761C300.761 22.1761 302.278 21.3151 304.082 19.5931C305.886 17.8711 307.39 15.8484 308.592 13.5251L310.314 14.5501C308.62 17.9667 307.772 20.1397 307.772 21.0691C307.772 21.4517 307.895 21.7797 308.141 22.0531C308.415 22.2991 308.674 22.4221 308.92 22.4221C309.194 22.4221 309.371 22.4084 309.453 22.3811C309.535 22.3537 309.617 22.3264 309.699 22.2991C309.781 22.2444 309.877 22.1761 309.986 22.0941C310.123 22.0121 310.232 21.9301 310.314 21.8481C310.424 21.7661 310.588 21.6431 310.806 21.4791C311.025 21.3151 311.203 21.1784 311.339 21.0691ZM324.921 19.3881L325.905 20.2081C325.249 21.7114 324.197 22.9141 322.748 23.8161C321.299 24.7181 319.892 25.1691 318.525 25.1691C317.186 25.1691 316.065 24.7454 315.163 23.8981C314.288 23.0507 313.851 21.8891 313.851 20.4131C313.851 18.9371 314.493 17.3381 315.778 15.6161C317.063 13.8941 318.716 12.4727 320.739 11.3521C322.789 10.2314 324.798 9.67108 326.766 9.67108C327.039 9.67108 327.449 9.69842 327.996 9.75308L327.873 11.3521C324.866 11.4887 322.365 12.4044 320.37 14.0991C318.402 15.7937 317.418 17.5977 317.418 19.5111C317.418 20.3037 317.664 20.9461 318.156 21.4381C318.648 21.9301 319.29 22.1761 320.083 22.1761C321.34 22.1761 322.953 21.2467 324.921 19.3881ZM338.236 15.6571C339.74 15.6024 340.491 16.2174 340.491 17.5021C340.491 19.1967 339.576 20.8777 337.744 22.5451C335.94 24.1851 334.123 25.0051 332.291 25.0051C330.569 25.0051 329.708 23.8434 329.708 21.5201C329.708 19.6887 330.159 17.4201 331.061 14.7141C331.991 11.9807 332.756 10.0537 333.357 8.93308L335.202 9.54808C334.492 11.6254 333.767 14.1674 333.029 17.1741L333.562 16.9281C335.394 16.0807 336.952 15.6571 338.236 15.6571ZM337.58 19.8801C337.744 19.4974 337.826 19.1421 337.826 18.8141C337.744 18.0761 337.102 17.7071 335.899 17.7071C335.325 17.7071 334.259 17.9531 332.701 18.4451C332.483 19.2651 332.373 20.0031 332.373 20.6591C332.373 21.2877 332.524 21.7934 332.824 22.1761C333.152 22.5587 333.576 22.7501 334.095 22.7501C334.642 22.7501 335.284 22.4767 336.022 21.9301C336.76 21.3561 337.28 20.6727 337.58 19.8801ZM344.427 19.3881L343.197 24.8001L340.86 24.4311C341.407 21.1237 342.09 18.0487 342.91 15.2061C343.758 12.3634 344.564 10.3271 345.329 9.09708L347.338 9.34308C346.354 11.8851 345.384 15.2334 344.427 19.3881Z" fill="#FEFAEF"/>
</svg>
