<svg width="193" height="30" viewBox="0 0 193 30" fill="none" xmlns="http://www.w3.org/2000/svg">
<path d="M0.861013 29.192C0.369013 28.9187 0.0956797 28.618 0.041013 28.29C0.0136797 27.962 0.205013 27.388 0.615013 26.568C1.02501 25.748 1.66735 24.477 2.54201 22.755C3.19801 21.525 3.69001 20.5683 4.01801 19.885C4.37335 19.1743 4.60568 18.6687 4.71501 18.368C4.85168 18.0673 4.92001 17.876 4.92001 17.794C4.86535 17.548 4.89268 17.3567 5.00201 17.22C5.11135 17.056 5.28901 16.9193 5.53501 16.81C5.67168 16.6733 5.89035 16.4273 6.19101 16.072C6.51901 15.7167 6.81968 15.293 7.09301 14.801C7.33901 14.227 7.62601 13.6393 7.95401 13.038C8.28201 12.4367 8.71935 11.685 9.26601 10.783C9.81268 9.85366 10.5233 8.65099 11.398 7.17499C11.9447 6.21832 12.546 5.24799 13.202 4.26399C13.858 3.25265 14.555 2.25499 15.293 1.27099C15.5937 0.888321 15.867 0.587654 16.113 0.368989C16.359 0.122988 16.605 0.0136549 16.851 0.0409879C17.179 0.0409879 17.548 0.150321 17.958 0.368989C18.3953 0.587654 18.7917 0.874654 19.147 1.22999C19.5023 1.58532 19.762 1.96799 19.926 2.37799C20.0627 2.59665 20.1173 3.06132 20.09 3.77199C20.0627 4.48265 20.008 5.34365 19.926 6.35499C19.844 7.36632 19.7483 8.44599 19.639 9.59399C19.557 10.7147 19.434 12.0403 19.27 13.571C19.106 15.1017 18.942 16.7007 18.778 18.368C18.6413 20.0353 18.532 21.648 18.45 23.206C18.368 24.7367 18.368 26.076 18.45 27.224C18.4773 27.47 18.4773 27.7023 18.45 27.921C18.4227 28.1397 18.409 28.3173 18.409 28.454C18.245 28.618 17.9717 28.6863 17.589 28.659C17.2337 28.659 16.8783 28.577 16.523 28.413C16.195 28.249 16.0037 28.044 15.949 27.798C15.867 27.716 15.8123 27.6067 15.785 27.47C15.785 27.306 15.7987 26.978 15.826 26.486C15.8533 25.994 15.8807 25.215 15.908 24.149L16.113 17.507L15.58 17.548C15.334 17.548 14.8693 17.5753 14.186 17.63C13.5027 17.6847 12.7647 17.7667 11.972 17.876C11.1793 17.958 10.4413 18.0537 9.75801 18.163C9.10201 18.245 8.65101 18.327 8.40501 18.409C8.15901 18.409 7.85835 18.573 7.50301 18.901C7.17501 19.229 6.86068 19.6527 6.56001 20.172C6.45068 20.5547 6.24568 20.9647 5.94501 21.402C5.67168 21.812 5.53501 22.0853 5.53501 22.222C5.34368 22.3587 5.17968 22.5227 5.04301 22.714C4.93368 22.9053 4.87901 23.001 4.87901 23.001C4.87901 23.165 4.74235 23.575 4.46901 24.231C4.22301 24.8597 3.90868 25.5703 3.52601 26.363C3.14335 27.1283 2.76068 27.798 2.37801 28.372L1.51701 29.684L0.861013 29.192ZM9.34801 15.99C9.34801 15.99 9.48468 15.9627 9.75801 15.908C10.0587 15.8533 10.4003 15.7987 10.783 15.744C11.193 15.662 11.562 15.621 11.89 15.621C13.038 15.3477 13.8717 15.17 14.391 15.088C14.9103 14.9787 15.2657 14.924 15.457 14.924C15.6757 14.924 15.867 14.965 16.031 15.047C16.1403 15.1837 16.236 15.2657 16.318 15.293C16.4273 15.3203 16.482 15.334 16.482 15.334C16.5093 15.2793 16.5503 14.965 16.605 14.391C16.6597 13.817 16.728 13.1063 16.81 12.259C16.9193 11.4117 17.015 10.537 17.097 9.63499C17.2063 8.70566 17.2883 7.85832 17.343 7.09299C17.3977 6.30032 17.4387 5.69899 17.466 5.28899C17.4933 4.76966 17.5207 4.30499 17.548 3.89499C17.5753 3.45765 17.589 3.23899 17.589 3.23899C17.425 3.23899 17.0697 3.53966 16.523 4.14099C16.0037 4.74232 15.416 5.53499 14.76 6.51899C14.104 7.50299 13.489 8.55532 12.915 9.67599C12.6417 10.1953 12.382 10.66 12.136 11.07C11.89 11.48 11.6987 11.685 11.562 11.685C11.5073 11.7397 11.3433 11.9857 11.07 12.423C10.824 12.833 10.5507 13.3113 10.25 13.858C9.94935 14.3773 9.70335 14.8557 9.51201 15.293C9.32068 15.703 9.26601 15.9353 9.34801 15.99ZM34.9301 13.284C35.3128 13.0653 35.7091 12.997 36.1191 13.079C36.5291 13.1337 36.8434 13.3113 37.0621 13.612C37.3081 13.8853 37.3491 14.2407 37.1851 14.678C37.2398 14.514 37.1714 14.6233 36.9801 15.006C36.8161 15.3613 36.5974 15.826 36.3241 16.4C36.0781 16.974 35.8458 17.5207 35.6271 18.04C35.4358 18.532 35.3128 18.819 35.2581 18.901V19.024C35.6954 19.024 35.9551 19.1607 36.0371 19.434C36.1464 19.68 36.1874 19.967 36.1601 20.295C35.8321 20.3497 35.5998 20.4453 35.4631 20.582C35.3264 20.6913 35.1488 20.7597 34.9301 20.787C34.8481 20.787 34.7524 20.828 34.6431 20.91C34.5338 20.992 34.4654 21.0877 34.4381 21.197C34.4108 21.279 34.3288 21.607 34.1921 22.181C34.0828 22.7277 33.9461 23.329 33.7821 23.985C33.6454 24.6137 33.5224 25.092 33.4131 25.42C33.3584 25.6387 33.2491 25.8163 33.0851 25.953C32.9211 26.0623 32.8118 26.1307 32.7571 26.158C32.2104 25.9393 31.8414 25.8027 31.6501 25.748C31.4861 25.666 31.3221 25.5567 31.1581 25.42C31.1308 25.256 31.1308 25.0647 31.1581 24.846C31.1854 24.6 31.2538 24.313 31.3631 23.985C31.4998 23.575 31.6091 23.1923 31.6911 22.837C31.8004 22.4543 31.9098 21.9213 32.0191 21.238C31.9098 21.1833 31.6774 21.1833 31.3221 21.238C30.9941 21.2653 30.6388 21.3063 30.2561 21.361C29.8734 21.4157 29.5454 21.4703 29.2721 21.525C29.0261 21.5797 28.9168 21.5933 28.9441 21.566C28.8074 21.6207 28.5478 21.6617 28.1651 21.689C27.8098 21.689 27.4408 21.6753 27.0581 21.648C26.7028 21.5933 26.4431 21.5387 26.2791 21.484L26.0331 21.607C26.0058 21.8803 25.8828 22.2903 25.6641 22.837C25.4454 23.3563 25.3361 23.8483 25.3361 24.313C25.3088 24.6683 25.2541 25.0237 25.1721 25.379C25.0901 25.7343 25.0354 26.1033 25.0081 26.486C24.9808 27.0873 24.8168 27.4563 24.5161 27.593C24.2428 27.7297 23.8191 27.634 23.2451 27.306C23.1084 27.224 22.9718 27.1283 22.8351 27.019C22.7258 26.9097 22.6028 26.7867 22.4661 26.65L23.1221 23.493C23.2314 23.1103 23.3271 22.755 23.4091 22.427C23.4911 22.0717 23.5868 21.73 23.6961 21.402C23.9148 20.8007 24.1198 20.1857 24.3111 19.557C24.5298 18.9283 24.7758 18.3407 25.0491 17.794C25.0491 17.794 25.0901 17.6573 25.1721 17.384C25.2814 17.0833 25.4044 16.7553 25.5411 16.4C25.6778 16.0173 25.7871 15.7167 25.8691 15.498C25.9511 15.2793 25.9648 15.2383 25.9101 15.375C25.9921 15.211 26.1151 14.8967 26.2791 14.432C26.4431 13.94 26.5934 13.4753 26.7301 13.038C26.8941 12.5733 26.9761 12.3273 26.9761 12.3C27.0308 12.136 27.1128 12.0267 27.2221 11.972C27.3314 11.89 27.4681 11.849 27.6321 11.849C28.0968 11.8217 28.4794 11.931 28.7801 12.177C29.0808 12.3957 29.2448 12.669 29.2721 12.997C29.2448 13.161 29.2311 13.3113 29.2311 13.448C29.2311 13.5847 29.2038 13.694 29.1491 13.776L27.0171 18.983V19.311C27.2904 19.475 27.6868 19.5023 28.2061 19.393C28.7528 19.2563 29.1628 19.188 29.4361 19.188C29.5728 19.1607 29.8871 19.1333 30.3791 19.106C30.8984 19.0787 31.3904 19.065 31.8551 19.065C32.3471 19.065 32.6068 19.0787 32.6341 19.106C32.9348 18.286 33.2081 17.5207 33.4541 16.81C33.7001 16.072 34.0418 15.3203 34.4791 14.555C34.5064 14.5003 34.5611 14.3227 34.6431 14.022C34.7524 13.7213 34.8481 13.4753 34.9301 13.284ZM40.1006 27.634C39.8819 27.552 39.6496 27.388 39.4036 27.142C39.1576 26.8687 38.9526 26.5543 38.7886 26.199C38.6246 25.8437 38.5426 25.5157 38.5426 25.215C38.6792 24.9143 38.8569 24.395 39.0756 23.657C39.2942 22.8917 39.5676 22.017 39.8956 21.033C40.1142 20.7323 40.2782 20.377 40.3876 19.967C40.5242 19.557 40.6472 19.188 40.7566 18.86C40.9752 18.4227 41.2349 17.8623 41.5356 17.179C41.8362 16.4683 42.1232 15.7577 42.3966 15.047C42.6972 14.309 42.9569 13.694 43.1756 13.202C43.4762 12.4913 43.6539 12.054 43.7086 11.89C43.7632 11.6987 43.8042 11.5483 43.8316 11.439C43.8316 11.2203 43.8862 11.0427 43.9956 10.906C44.1049 10.742 44.2142 10.66 44.3236 10.66C44.4329 10.5507 44.5559 10.496 44.6926 10.496C44.8566 10.4687 44.9932 10.455 45.1026 10.455C45.4032 10.455 45.6629 10.66 45.8816 11.07C46.1002 11.4527 46.2096 11.808 46.2096 12.136C46.2096 12.464 46.0866 12.9287 45.8406 13.53C45.6219 14.104 45.3622 14.7053 45.0616 15.334C44.7882 15.9627 44.5559 16.5093 44.3646 16.974C44.1732 17.4387 44.1186 17.712 44.2006 17.794C44.2006 17.794 44.3919 17.712 44.7746 17.548C45.1572 17.3567 45.5672 17.097 46.0046 16.769C46.3052 16.605 46.6332 16.4 46.9886 16.154C47.3439 15.908 47.6856 15.6757 48.0136 15.457C48.3416 15.211 48.6149 15.0607 48.8336 15.006C49.1616 14.7873 49.5032 14.5823 49.8586 14.391C50.2139 14.1723 50.4462 14.0083 50.5556 13.899C51.0202 13.6803 51.3619 13.612 51.5806 13.694C51.8266 13.776 52.0726 13.981 52.3186 14.309C52.6192 14.6643 52.6739 14.9787 52.4826 15.252C52.2912 15.498 51.8402 15.8397 51.1296 16.277C50.5556 16.6323 49.8586 17.056 49.0386 17.548C48.2459 18.04 47.5352 18.4773 46.9066 18.86C46.3052 19.2427 45.9636 19.475 45.8816 19.557C45.8816 19.557 45.9909 19.762 46.2096 20.172C46.4282 20.582 46.6469 20.951 46.8656 21.279C47.0842 21.7163 47.3166 22.1263 47.5626 22.509C47.8359 22.8643 47.9726 23.1103 47.9726 23.247C48.1912 23.821 48.4646 24.2993 48.7926 24.682C49.1206 25.0373 49.4896 25.2697 49.8996 25.379C50.3369 25.461 50.7742 25.4063 51.2116 25.215C51.7582 24.9963 52.1546 24.928 52.4006 25.01C52.6739 25.092 52.8652 25.297 52.9746 25.625C53.0839 25.8437 53.1112 26.0077 53.0566 26.117C53.0292 26.199 52.8516 26.404 52.5236 26.732C52.0042 27.2513 51.4712 27.5793 50.9246 27.716C50.4052 27.8527 49.9269 27.8117 49.4896 27.593C49.2162 27.593 48.9019 27.4837 48.5466 27.265C48.1912 27.019 47.7539 26.6227 47.2346 26.076C46.7426 25.5293 46.1276 24.764 45.3896 23.78C45.3896 23.6707 45.3349 23.5203 45.2256 23.329C45.1436 23.1103 45.0479 22.9053 44.9386 22.714C44.8292 22.4953 44.6926 22.263 44.5286 22.017C44.3646 21.7437 44.2826 21.607 44.2826 21.607C44.2826 21.525 44.2552 21.4567 44.2006 21.402C44.1732 21.32 44.1186 21.2243 44.0366 21.115C43.9819 21.0057 43.9136 20.8827 43.8316 20.746C43.3942 20.6093 43.0799 20.6913 42.8886 20.992C42.6972 21.2927 42.4922 21.607 42.2736 21.935C42.1369 22.2903 41.9592 22.796 41.7406 23.452C41.5492 24.0807 41.3852 24.6957 41.2486 25.297C41.1392 25.8983 41.1119 26.3083 41.1666 26.527C41.1666 26.9643 41.0982 27.265 40.9616 27.429C40.8249 27.5657 40.5379 27.634 40.1006 27.634ZM61.7992 26.404C61.2252 26.896 60.5555 27.183 59.7902 27.265C59.0522 27.347 58.3279 27.2377 57.6172 26.937C56.9065 26.609 56.3189 26.117 55.8542 25.461C55.3895 24.8597 55.0889 24.1763 54.9522 23.411C54.8155 22.6183 54.8019 21.5933 54.9112 20.336C54.9932 19.27 55.3349 18.204 55.9362 17.138C56.5375 16.0447 57.2619 15.0743 58.1092 14.227C58.9839 13.3797 59.8449 12.792 60.6922 12.464C61.1022 12.1907 61.4439 12.0677 61.7172 12.095C62.0179 12.095 62.4689 12.1223 63.0702 12.177C63.6989 12.259 64.1635 12.382 64.4642 12.546C64.7922 12.71 65.0519 12.9287 65.2432 13.202C65.6532 13.612 65.9265 14.022 66.0632 14.432C66.1999 14.8147 66.2682 15.1973 66.2682 15.58C66.1589 16.1813 65.7489 16.9193 65.0382 17.794C64.3549 18.6413 63.4529 19.3383 62.3322 19.885C61.7309 20.0763 61.0749 20.1583 60.3642 20.131C59.6535 20.1037 59.0659 19.926 58.6012 19.598C58.0819 19.3793 57.7402 19.4203 57.5762 19.721C57.4122 19.9943 57.2619 20.6777 57.1252 21.771C57.0159 22.8097 57.0979 23.575 57.3712 24.067C57.6445 24.5317 58.0135 24.805 58.4782 24.887C59.0249 24.9963 59.4485 25.0783 59.7492 25.133C60.0772 25.1603 60.4735 25.0373 60.9382 24.764C61.3755 24.4907 61.6489 24.3403 61.7582 24.313C61.8675 24.2583 61.9495 24.2037 62.0042 24.149C62.0862 24.067 62.2639 23.8893 62.5372 23.616C62.7285 23.4247 62.8789 23.288 62.9882 23.206C63.0975 23.0967 63.2205 23.042 63.3572 23.042C63.4939 23.042 63.6169 23.1103 63.7262 23.247C63.8355 23.3563 63.9449 23.4383 64.0542 23.493C64.3275 23.493 64.3822 23.657 64.2182 23.985C64.0815 24.313 63.7945 24.7093 63.3572 25.174C62.9199 25.6113 62.4005 26.0213 61.7992 26.404ZM61.7582 17.712C62.0589 17.5753 62.3732 17.384 62.7012 17.138C63.0292 16.8647 63.3025 16.5777 63.5212 16.277C63.7672 15.949 63.8902 15.6757 63.8902 15.457C63.8902 15.0743 63.7125 14.76 63.3572 14.514C63.0019 14.2407 62.4689 14.1997 61.7582 14.391C61.4575 14.473 61.1159 14.678 60.7332 15.006C60.3505 15.3067 59.9815 15.6483 59.6262 16.031C59.2982 16.4137 59.0249 16.7553 58.8062 17.056C58.6149 17.3567 58.5465 17.5343 58.6012 17.589C58.6832 17.7257 58.9155 17.835 59.2982 17.917C59.6809 17.9717 60.1045 17.9853 60.5692 17.958C61.0612 17.9307 61.4575 17.8487 61.7582 17.712ZM69.8432 25.83C69.5425 25.6387 69.2692 25.3927 69.0232 25.092C68.7772 24.764 68.6542 24.354 68.6542 23.862C68.6542 23.5887 68.7089 23.124 68.8182 22.468C68.9275 21.812 69.0779 21.074 69.2692 20.254C69.4605 19.434 69.6519 18.6687 69.8432 17.958C70.1165 17.466 70.3489 16.974 70.5402 16.482C70.7315 15.99 70.8272 15.6893 70.8272 15.58C70.8819 15.252 70.9502 14.8693 71.0322 14.432C71.1415 13.9947 71.2509 13.5983 71.3602 13.243C71.4695 12.8877 71.5515 12.6827 71.6062 12.628C71.7429 12.4913 71.9069 12.4093 72.0982 12.382C72.2895 12.3273 72.4809 12.3547 72.6722 12.464C72.8909 12.546 73.0549 12.7237 73.1642 12.997C73.4649 13.325 73.6152 13.7213 73.6152 14.186C73.6152 14.6233 73.4649 15.2793 73.1642 16.154C72.9182 16.7007 72.6722 17.343 72.4262 18.081C72.1802 18.819 71.9615 19.5023 71.7702 20.131C71.6062 20.7323 71.5105 21.1423 71.4832 21.361L70.6632 21.607C71.1279 21.1697 71.5652 20.7187 71.9752 20.254C72.3852 19.762 72.6859 19.3793 72.8772 19.106C73.3419 18.4773 73.7382 17.958 74.0662 17.548C74.4215 17.1107 74.8725 16.5913 75.4192 15.99C75.9659 15.3613 76.4989 14.9787 77.0182 14.842C77.5649 14.678 77.9885 14.596 78.2892 14.596C78.8905 14.7053 79.3689 15.0197 79.7242 15.539C80.1069 16.031 80.3529 16.769 80.4622 17.753C80.4622 18.1357 80.4212 18.5867 80.3392 19.106C80.2845 19.6253 80.2572 19.885 80.2572 19.885C80.2572 19.885 80.4759 19.598 80.9132 19.024C81.3779 18.45 81.9929 17.8213 82.7582 17.138C83.2775 16.7553 83.7832 16.5367 84.2752 16.482C84.7672 16.4 85.2045 16.564 85.5872 16.974C86.2979 17.3567 86.7625 17.9443 86.9812 18.737C87.1999 19.5023 87.2545 20.4863 87.1452 21.689C87.0632 22.3997 87.0495 22.9327 87.1042 23.288C87.1589 23.616 87.2409 23.944 87.3502 24.272C87.5689 24.3813 87.6099 24.6137 87.4732 24.969C87.3365 25.297 87.1725 25.461 86.9812 25.461C86.7079 25.461 86.3935 25.4063 86.0382 25.297C85.7102 25.1877 85.4095 25.01 85.1362 24.764C84.8902 24.4907 84.7672 24.1217 84.7672 23.657V21.115C84.7672 20.5137 84.7399 20.0217 84.6852 19.639C84.6579 19.2563 84.5895 19.024 84.4802 18.942C84.1795 18.778 83.7422 18.9557 83.1682 19.475C82.5942 19.9943 81.9792 20.6913 81.3232 21.566C80.6672 22.4407 80.0522 23.3427 79.4782 24.272C78.9589 25.1193 78.6309 25.6113 78.4942 25.748C78.3849 25.8573 78.1799 25.8163 77.8792 25.625C77.2779 25.4337 76.8952 25.174 76.7312 24.846C76.5945 24.4907 76.5809 24.0943 76.6902 23.657C76.8269 23.1923 76.9909 22.5637 77.1822 21.771C77.4009 20.9783 77.6059 20.213 77.7972 19.475C77.9885 18.7097 78.1115 18.163 78.1662 17.835C78.0569 17.6163 77.8655 17.548 77.5922 17.63C77.3462 17.6847 77.0865 17.8077 76.8132 17.999C76.4852 18.2177 76.0889 18.6277 75.6242 19.229C75.1595 19.8303 74.6812 20.5273 74.1892 21.32C73.8612 21.8393 73.5195 22.3587 73.1642 22.878C72.8089 23.37 72.4809 23.8073 72.1802 24.19C71.8795 24.5727 71.6199 24.8597 71.4012 25.051C71.0185 25.6523 70.7589 25.9803 70.6222 26.035C70.4855 26.0897 70.2259 26.0213 69.8432 25.83ZM94.3436 26.65C94.1249 26.7047 93.8379 26.732 93.4826 26.732C93.1272 26.7047 92.8129 26.6637 92.5396 26.609C92.2936 26.527 92.1706 26.445 92.1706 26.363C92.1706 26.2263 92.1022 26.158 91.9656 26.158C91.9656 26.158 91.8972 26.1033 91.7606 25.994C91.6512 25.8847 91.4736 25.7753 91.2276 25.666C90.9816 25.2833 90.8586 24.8733 90.8586 24.436C90.8586 23.9713 90.9816 23.247 91.2276 22.263C91.3096 21.5797 91.5692 20.787 92.0066 19.885C92.4712 18.9557 93.0316 18.0127 93.6876 17.056C94.3436 16.0993 95.0269 15.2383 95.7376 14.473C96.4756 13.7077 97.1452 13.1473 97.7466 12.792C98.1292 12.4093 98.5939 12.2043 99.1406 12.177C99.6872 12.1497 100.207 12.2727 100.699 12.546C100.972 12.6827 101.245 12.9013 101.519 13.202C101.792 13.5027 102.052 13.8307 102.298 14.186C102.544 14.5413 102.749 14.8967 102.913 15.252C102.995 15.5527 103.036 15.826 103.036 16.072C103.063 16.2907 103.063 16.564 103.036 16.892C103.036 17.22 102.995 17.712 102.913 18.368C102.776 18.86 102.653 19.4613 102.544 20.172C102.462 20.8827 102.421 21.4977 102.421 22.017C102.366 22.5363 102.421 22.9053 102.585 23.124C102.776 23.3427 103.049 23.3563 103.405 23.165C103.733 23.001 104.047 22.9327 104.348 22.96C104.648 22.96 104.881 23.042 105.045 23.206C105.236 23.37 105.332 23.616 105.332 23.944C105.332 24.272 105.168 24.6137 104.84 24.969C104.539 25.297 104.156 25.584 103.692 25.83C103.254 26.0487 102.831 26.158 102.421 26.158C102.12 26.158 101.833 25.9803 101.56 25.625C101.286 25.2423 101.04 24.7913 100.822 24.272C100.63 23.7253 100.453 23.206 100.289 22.714L100.043 21.771L98.2796 23.452C97.9242 23.8347 97.5689 24.19 97.2136 24.518C96.8856 24.8187 96.6806 25.0373 96.5986 25.174C96.4619 25.42 96.2022 25.666 95.8196 25.912C95.4642 26.158 94.9722 26.404 94.3436 26.65ZM94.4666 24.231C94.9312 23.9577 95.4642 23.5613 96.0656 23.042C96.6669 22.4953 97.2546 21.9077 97.8286 21.279C98.4026 20.623 98.8809 20.0217 99.2636 19.475C99.7282 18.8463 100.084 18.2587 100.33 17.712C100.576 17.1653 100.753 16.646 100.863 16.154C100.753 15.8533 100.576 15.539 100.33 15.211C100.084 14.8557 99.8649 14.6643 99.6736 14.637C99.0722 14.637 98.4299 15.0197 97.7466 15.785C97.0906 16.523 96.4482 17.3293 95.8196 18.204C95.7102 18.3407 95.5599 18.5593 95.3686 18.86C95.1772 19.1607 94.9859 19.4477 94.7946 19.721C94.6306 19.967 94.5212 20.131 94.4666 20.213C94.3846 20.3223 94.2206 20.6367 93.9746 21.156C93.7559 21.648 93.5372 22.1537 93.3186 22.673C93.0999 23.165 92.9906 23.493 92.9906 23.657C92.9906 23.821 93.0042 23.9987 93.0316 24.19C93.0862 24.3813 93.2229 24.5043 93.4416 24.559C93.6602 24.6137 94.0019 24.5043 94.4666 24.231ZM117.449 27.757C117.367 27.6477 117.285 27.5657 117.203 27.511C117.121 27.429 117.026 27.347 116.916 27.265C116.834 27.1557 116.698 27.019 116.506 26.855C116.479 26.527 116.52 26.076 116.629 25.502C116.766 24.928 116.916 24.354 117.08 23.78C117.244 23.206 117.381 22.7823 117.49 22.509C117.49 22.509 117.559 22.2767 117.695 21.812C117.859 21.3473 118.051 20.787 118.269 20.131C118.488 19.4477 118.707 18.778 118.925 18.122C119.171 17.4387 119.363 16.8783 119.499 16.441C119.663 15.9763 119.745 15.744 119.745 15.744C119.8 15.6347 119.827 15.5253 119.827 15.416C119.827 15.2793 119.827 15.1153 119.827 14.924C119.745 14.432 119.786 14.063 119.95 13.817C120.142 13.571 120.292 13.3113 120.401 13.038C120.702 13.0653 120.907 13.0653 121.016 13.038C121.153 13.0107 121.303 13.038 121.467 13.12C121.659 13.1473 122.028 13.12 122.574 13.038C123.121 12.956 123.668 12.8467 124.214 12.71C124.788 12.5733 125.171 12.464 125.362 12.382C125.745 12.382 126.114 12.3683 126.469 12.341C126.852 12.3137 127.221 12.3273 127.576 12.382C128.041 12.382 128.451 12.546 128.806 12.874C129.162 13.202 129.408 13.4617 129.544 13.653C129.49 13.7623 129.421 13.8717 129.339 13.981C129.285 14.063 129.23 14.145 129.175 14.227C129.121 14.309 129.052 14.391 128.97 14.473C128.806 14.473 128.465 14.473 127.945 14.473C127.426 14.473 126.866 14.5003 126.264 14.555C125.69 14.6097 125.212 14.7053 124.829 14.842C124.474 14.9513 124.091 15.0197 123.681 15.047C123.299 15.047 122.943 15.1153 122.615 15.252C122.479 15.3887 122.342 15.662 122.205 16.072C122.069 16.482 121.946 16.9057 121.836 17.343C121.727 17.7803 121.631 18.1083 121.549 18.327C121.549 18.2997 121.467 18.491 121.303 18.901C121.167 19.311 121.003 19.7757 120.811 20.295C120.647 20.8143 120.511 21.238 120.401 21.566C120.292 21.73 120.155 22.0443 119.991 22.509C119.827 22.9737 119.677 23.4383 119.54 23.903C119.404 24.3677 119.308 24.7093 119.253 24.928C119.144 25.42 119.007 25.912 118.843 26.404C118.679 26.8687 118.474 27.3333 118.228 27.798C118.119 27.798 117.996 27.798 117.859 27.798C117.723 27.7707 117.586 27.757 117.449 27.757ZM132.877 27.593C132.521 27.6203 132.234 27.593 132.016 27.511C131.797 27.4017 131.524 27.2513 131.196 27.06C130.594 26.5953 130.143 26.1307 129.843 25.666C129.569 25.174 129.446 24.6957 129.474 24.231C129.528 23.985 129.528 23.7663 129.474 23.575C129.446 23.3837 129.433 23.288 129.433 23.288C129.269 23.1513 129.214 23.0693 129.269 23.042C129.323 22.9873 129.364 22.9053 129.392 22.796C129.61 22.7413 129.638 22.591 129.474 22.345C129.392 22.1263 129.433 21.6343 129.597 20.869C129.788 20.0763 130.034 19.3383 130.335 18.655C130.471 18.3543 130.663 17.958 130.909 17.466C131.182 16.974 131.483 16.482 131.811 15.99C132.139 15.4707 132.439 15.0607 132.713 14.76C133.314 14.0767 133.847 13.571 134.312 13.243C134.804 12.8877 135.35 12.6007 135.952 12.382C136.498 12.1633 136.895 12.0403 137.141 12.013C137.387 11.9857 137.728 12.1497 138.166 12.505C138.822 12.6963 139.314 12.9697 139.642 13.325C139.997 13.653 140.27 14.1723 140.462 14.883C140.68 15.6757 140.749 16.6187 140.667 17.712C140.612 18.778 140.147 20.1583 139.273 21.853C138.753 22.919 138.234 23.7253 137.715 24.272C137.223 24.8187 136.621 25.3927 135.911 25.994C135.391 26.4313 134.913 26.773 134.476 27.019C134.038 27.265 133.505 27.4563 132.877 27.593ZM136.157 22.714C136.703 21.894 137.127 21.1423 137.428 20.459C137.756 19.7483 138.015 18.86 138.207 17.794C138.261 17.4933 138.275 17.1243 138.248 16.687C138.22 16.2223 138.152 15.7987 138.043 15.416C137.961 15.0333 137.838 14.8283 137.674 14.801C137.318 14.6643 136.922 14.6643 136.485 14.801C136.047 14.9103 135.569 15.2383 135.05 15.785C134.585 16.3317 134.161 16.9467 133.779 17.63C133.423 18.3133 133.095 19.065 132.795 19.885C132.494 20.705 132.207 21.5797 131.934 22.509C131.66 23.5477 131.674 24.3403 131.975 24.887C132.303 25.4337 132.836 25.5703 133.574 25.297C134.312 24.9963 135.173 24.1353 136.157 22.714ZM147.495 26.896C146.893 26.896 146.442 26.8687 146.142 26.814C145.841 26.7593 145.609 26.6773 145.445 26.568C145.281 26.4587 145.089 26.3083 144.871 26.117C144.761 25.8983 144.625 25.666 144.461 25.42C144.297 25.174 144.16 24.9963 144.051 24.887C143.941 24.477 143.887 23.944 143.887 23.288C143.914 22.632 143.996 21.9213 144.133 21.156C144.297 20.3907 144.515 19.68 144.789 19.024C144.898 18.8053 144.994 18.5867 145.076 18.368C145.158 18.1493 145.199 18.04 145.199 18.04C145.199 17.9033 145.363 17.5753 145.691 17.056C146.046 16.5367 146.429 15.99 146.839 15.416C147.276 14.842 147.631 14.432 147.905 14.186C148.096 13.9673 148.383 13.735 148.766 13.489C149.176 13.243 149.531 13.0653 149.832 12.956C150.132 12.8467 150.433 12.751 150.734 12.669C151.062 12.587 151.431 12.546 151.841 12.546C152.223 12.546 152.579 12.628 152.907 12.792C153.235 12.956 153.549 13.243 153.85 13.653C154.342 14.145 154.615 14.637 154.67 15.129C154.752 15.5937 154.738 16.072 154.629 16.564C154.492 17.1107 154.314 17.5343 154.096 17.835C153.877 18.1083 153.631 18.2313 153.358 18.204C153.084 18.1767 152.77 17.9717 152.415 17.589C152.305 17.3703 152.251 17.1927 152.251 17.056C152.251 16.892 152.305 16.6597 152.415 16.359C152.524 15.9763 152.524 15.58 152.415 15.17C152.305 14.76 152.128 14.555 151.882 14.555C151.526 14.555 151.13 14.719 150.693 15.047C150.283 15.3477 149.859 15.7303 149.422 16.195C149.23 16.4137 148.957 16.7553 148.602 17.22C148.274 17.6573 147.946 18.1493 147.618 18.696C147.29 19.2153 147.016 19.721 146.798 20.213C146.497 21.115 146.251 21.8393 146.06 22.386C145.896 22.9327 145.814 23.206 145.814 23.206C145.814 23.3153 145.841 23.4247 145.896 23.534C145.978 23.616 146.019 23.7117 146.019 23.821C146.019 24.149 146.21 24.4087 146.593 24.6C146.893 24.7913 147.249 24.9007 147.659 24.928C148.069 24.928 148.574 24.7913 149.176 24.518C149.613 24.2993 150.023 24.0123 150.406 23.657C150.816 23.3017 151.239 22.9873 151.677 22.714C151.977 22.5227 152.21 22.3587 152.374 22.222C152.565 22.0853 152.661 22.0717 152.661 22.181C152.661 22.2903 152.702 22.345 152.784 22.345C152.866 22.345 152.961 22.2903 153.071 22.181C153.235 21.9623 153.412 21.8257 153.604 21.771C153.795 21.689 153.959 21.6617 154.096 21.689C154.26 21.689 154.342 21.73 154.342 21.812C154.287 22.058 154.342 22.263 154.506 22.427C154.506 22.5363 154.465 22.6867 154.383 22.878C154.328 23.042 154.246 23.1787 154.137 23.288C154 23.4793 153.795 23.698 153.522 23.944C153.276 24.19 153.043 24.4087 152.825 24.6C152.606 24.764 152.497 24.846 152.497 24.846C152.387 24.8187 152.278 24.846 152.169 24.928C152.087 25.01 151.991 25.1057 151.882 25.215C151.663 25.4063 151.458 25.5567 151.267 25.666C151.075 25.748 150.925 25.789 150.816 25.789C150.624 25.8983 150.474 25.9667 150.365 25.994C150.283 26.0213 150.242 26.0897 150.242 26.199C149.968 26.4723 149.627 26.6637 149.217 26.773C148.834 26.855 148.26 26.896 147.495 26.896ZM159.491 25.83C159.19 25.6387 158.917 25.3927 158.671 25.092C158.425 24.764 158.302 24.354 158.302 23.862C158.302 23.5887 158.356 23.124 158.466 22.468C158.575 21.812 158.725 21.074 158.917 20.254C159.108 19.434 159.299 18.6687 159.491 17.958C159.764 17.466 159.996 16.974 160.188 16.482C160.379 15.99 160.475 15.6893 160.475 15.58C160.529 15.252 160.598 14.8693 160.68 14.432C160.789 13.9947 160.898 13.5983 161.008 13.243C161.117 12.8877 161.199 12.6827 161.254 12.628C161.39 12.4913 161.554 12.4093 161.746 12.382C161.937 12.3273 162.128 12.3547 162.32 12.464C162.538 12.546 162.702 12.7237 162.812 12.997C163.112 13.325 163.263 13.7213 163.263 14.186C163.263 14.6233 163.112 15.2793 162.812 16.154C162.566 16.7007 162.32 17.343 162.074 18.081C161.828 18.819 161.609 19.5023 161.418 20.131C161.254 20.7323 161.158 21.1423 161.131 21.361L160.311 21.607C160.775 21.1697 161.213 20.7187 161.623 20.254C162.033 19.762 162.333 19.3793 162.525 19.106C162.989 18.4773 163.386 17.958 163.714 17.548C164.069 17.1107 164.52 16.5913 165.067 15.99C165.613 15.3613 166.146 14.9787 166.666 14.842C167.212 14.678 167.636 14.596 167.937 14.596C168.538 14.7053 169.016 15.0197 169.372 15.539C169.754 16.031 170 16.769 170.11 17.753C170.11 18.1357 170.069 18.5867 169.987 19.106C169.932 19.6253 169.905 19.885 169.905 19.885C169.905 19.885 170.123 19.598 170.561 19.024C171.025 18.45 171.64 17.8213 172.406 17.138C172.925 16.7553 173.431 16.5367 173.923 16.482C174.415 16.4 174.852 16.564 175.235 16.974C175.945 17.3567 176.41 17.9443 176.629 18.737C176.847 19.5023 176.902 20.4863 176.793 21.689C176.711 22.3997 176.697 22.9327 176.752 23.288C176.806 23.616 176.888 23.944 176.998 24.272C177.216 24.3813 177.257 24.6137 177.121 24.969C176.984 25.297 176.82 25.461 176.629 25.461C176.355 25.461 176.041 25.4063 175.686 25.297C175.358 25.1877 175.057 25.01 174.784 24.764C174.538 24.4907 174.415 24.1217 174.415 23.657V21.115C174.415 20.5137 174.387 20.0217 174.333 19.639C174.305 19.2563 174.237 19.024 174.128 18.942C173.827 18.778 173.39 18.9557 172.816 19.475C172.242 19.9943 171.627 20.6913 170.971 21.566C170.315 22.4407 169.7 23.3427 169.126 24.272C168.606 25.1193 168.278 25.6113 168.142 25.748C168.032 25.8573 167.827 25.8163 167.527 25.625C166.925 25.4337 166.543 25.174 166.379 24.846C166.242 24.4907 166.228 24.0943 166.338 23.657C166.474 23.1923 166.638 22.5637 166.83 21.771C167.048 20.9783 167.253 20.213 167.445 19.475C167.636 18.7097 167.759 18.163 167.814 17.835C167.704 17.6163 167.513 17.548 167.24 17.63C166.994 17.6847 166.734 17.8077 166.461 17.999C166.133 18.2177 165.736 18.6277 165.272 19.229C164.807 19.8303 164.329 20.5273 163.837 21.32C163.509 21.8393 163.167 22.3587 162.812 22.878C162.456 23.37 162.128 23.8073 161.828 24.19C161.527 24.5727 161.267 24.8597 161.049 25.051C160.666 25.6523 160.406 25.9803 160.27 26.035C160.133 26.0897 159.873 26.0213 159.491 25.83ZM181.162 27.634C180.834 27.634 180.547 27.593 180.301 27.511C180.082 27.4017 179.905 27.265 179.768 27.101C179.659 26.9097 179.549 26.7183 179.44 26.527C179.331 26.3083 179.235 26.076 179.153 25.83C179.208 25.6113 179.331 25.3927 179.522 25.174C179.713 24.9553 179.973 24.9417 180.301 25.133C180.356 25.133 180.41 25.1603 180.465 25.215C180.52 25.2697 180.588 25.3243 180.67 25.379C181.681 24.9143 182.501 24.313 183.13 23.575C183.786 22.8097 184.415 21.9623 185.016 21.033C184.551 20.8963 184.087 20.6777 183.622 20.377C183.185 20.0763 182.87 19.762 182.679 19.434C182.406 18.9967 182.228 18.4773 182.146 17.876C182.064 17.2747 181.996 16.9467 181.941 16.892C182.187 16.3453 182.337 15.8807 182.392 15.498C182.474 15.1153 182.583 14.7463 182.72 14.391C182.857 14.0083 183.116 13.571 183.499 13.079C183.8 12.6963 184.169 12.341 184.606 12.013C185.043 11.6577 185.467 11.3707 185.877 11.152C186.287 10.9333 186.588 10.824 186.779 10.824C187.08 10.9333 187.367 10.9197 187.64 10.783C187.913 10.6463 188.187 10.6327 188.46 10.742C188.569 10.7693 188.665 10.783 188.747 10.783C188.856 10.7557 188.938 10.7557 188.993 10.783C189.676 10.9197 190.278 11.111 190.797 11.357C191.316 11.603 191.658 12.054 191.822 12.71C191.685 13.284 191.535 13.858 191.371 14.432C191.234 14.9787 191.016 15.5253 190.715 16.072C190.442 16.5913 190.168 17.138 189.895 17.712C189.649 18.2587 189.335 18.778 188.952 19.27L189.034 19.516C189.335 19.5707 189.704 19.639 190.141 19.721C190.606 19.7757 190.852 19.803 190.879 19.803C191.18 19.885 191.439 20.0217 191.658 20.213C191.904 20.377 192.164 20.5683 192.437 20.787C192.464 20.8963 192.464 21.0057 192.437 21.115C192.41 21.2243 192.355 21.3473 192.273 21.484C191.972 22.0853 191.658 22.7003 191.33 23.329C191.002 23.9303 190.688 24.5453 190.387 25.174C190.278 25.4473 190.182 25.789 190.1 26.199C190.018 26.609 189.909 26.937 189.772 27.183C189.526 27.429 189.362 27.5793 189.28 27.634C189.225 27.6613 189.171 27.6477 189.116 27.593C189.061 27.5383 188.911 27.511 188.665 27.511C188.282 27.429 188.023 27.224 187.886 26.896C187.831 26.7047 187.749 26.527 187.64 26.363C187.558 26.199 187.544 26.0077 187.599 25.789C187.654 25.625 187.708 25.4747 187.763 25.338C187.818 25.174 187.886 25.0237 187.968 24.887C188.187 24.4497 188.378 24.0123 188.542 23.575C188.706 23.1377 188.884 22.714 189.075 22.304C189.184 22.1947 189.239 22.0443 189.239 21.853H188.952C188.788 21.8257 188.597 21.7983 188.378 21.771C188.187 21.7163 187.968 21.6753 187.722 21.648C187.585 21.7573 187.421 21.8803 187.23 22.017C187.039 22.1263 186.888 22.3313 186.779 22.632C186.478 22.96 186.191 23.329 185.918 23.739C185.672 24.1217 185.371 24.4907 185.016 24.846C184.661 25.2013 184.305 25.5567 183.95 25.912C183.622 26.2673 183.253 26.6227 182.843 26.978C182.242 27.4153 181.681 27.634 181.162 27.634ZM186.082 19.106C186.219 19.0787 186.41 18.9147 186.656 18.614C186.929 18.286 187.203 17.9307 187.476 17.548C187.777 17.138 188.036 16.769 188.255 16.441C188.474 16.0857 188.597 15.867 188.624 15.785C188.624 15.8397 188.679 15.7167 188.788 15.416C188.897 15.1153 189.02 14.76 189.157 14.35C189.321 13.94 189.471 13.5573 189.608 13.202C189.745 12.8467 189.813 12.6553 189.813 12.628C189.458 12.382 189.171 12.259 188.952 12.259C188.733 12.259 188.474 12.3137 188.173 12.423C187.162 12.6963 186.328 13.161 185.672 13.817C185.016 14.4457 184.538 15.2657 184.237 16.277C184.018 17.2063 184.073 17.9853 184.401 18.614C184.756 19.2153 185.317 19.3793 186.082 19.106Z" fill="#FEFAEF"/>
</svg>
