<svg width="115" height="115" viewBox="0 0 115 115" fill="none" xmlns="http://www.w3.org/2000/svg">
<g clip-path="url(#clip0_42_2)">
<path d="M57.5 115C89.2564 115 115 89.2564 115 57.5C115 25.7436 89.2564 0 57.5 0C25.7436 0 0 25.7436 0 57.5C0 89.2564 25.7436 115 57.5 115Z" fill="#820201"/>
<path d="M57.5 109.75C86.3569 109.75 109.75 86.3569 109.75 57.5C109.75 28.6431 86.3569 5.25 57.5 5.25C28.6431 5.25 5.25 28.6431 5.25 57.5C5.25 86.3569 28.6431 109.75 57.5 109.75Z" stroke="white" stroke-width="0.5"/>
<path d="M18.7335 62.275C18.5408 62.1957 18.4275 62.0993 18.3935 61.986C18.3595 61.8727 18.3765 61.714 18.4445 61.51C18.5125 61.306 18.5918 61.034 18.6825 60.694C18.7165 60.592 18.7561 60.4277 18.8015 60.201C18.8468 59.963 18.8978 59.708 18.9545 59.436C19.0225 59.164 19.0848 58.9147 19.1415 58.688C19.1981 58.4613 19.2491 58.3083 19.2945 58.229L20.1615 55.9L21.4705 52.092C21.5271 51.752 21.6235 51.4403 21.7595 51.157C21.8955 50.8737 21.9521 50.6413 21.9295 50.46C21.9295 50.3693 21.9918 50.2957 22.1165 50.239C22.2411 50.1823 22.3828 50.1597 22.5415 50.171C22.7001 50.1823 22.8191 50.2447 22.8985 50.358C22.9778 50.4373 23.0345 50.528 23.0685 50.63C23.1025 50.732 23.0911 50.8793 23.0345 51.072L22.4225 52.432L22.1335 53.35C22.0201 53.6673 21.9181 53.9903 21.8275 54.319C21.7368 54.6363 21.6291 54.9537 21.5045 55.271C21.3571 55.5883 21.2098 55.9623 21.0625 56.393C20.9151 56.8237 20.7225 57.3677 20.4845 58.025C20.3938 58.2403 20.2975 58.552 20.1955 58.96C20.0935 59.368 19.9971 59.776 19.9065 60.184C19.8158 60.5807 19.7308 60.8923 19.6515 61.119C19.6628 61.2663 19.6345 61.3967 19.5665 61.51C19.5098 61.6347 19.4815 61.7763 19.4815 61.935C19.4928 62.003 19.4588 62.0767 19.3795 62.156C19.3001 62.2353 19.2038 62.2863 19.0905 62.309C18.9771 62.343 18.8581 62.3317 18.7335 62.275ZM16.9485 57.532C16.4271 57.5547 15.9795 57.4357 15.6055 57.175C15.2428 56.9143 15.0331 56.5913 14.9765 56.206C14.9538 55.968 14.9651 55.6903 15.0105 55.373C15.0671 55.0443 15.1295 54.727 15.1975 54.421C15.2768 54.1037 15.3391 53.86 15.3845 53.69C15.3958 53.6333 15.4355 53.503 15.5035 53.299C15.5715 53.0837 15.6451 52.8457 15.7245 52.585C15.8151 52.313 15.8945 52.075 15.9625 51.871C16.0418 51.667 16.0871 51.548 16.0985 51.514C16.4498 50.8113 16.6878 50.2673 16.8125 49.882C16.9371 49.4967 17.0391 49.168 17.1185 48.896C17.1298 48.8053 17.1921 48.76 17.3055 48.76C17.4641 48.76 17.6228 48.811 17.7815 48.913C17.9401 49.015 18.0591 49.1397 18.1385 49.287C18.2291 49.423 18.2348 49.5477 18.1555 49.661C18.0648 49.831 17.9628 50.0407 17.8495 50.29C17.7361 50.528 17.6228 50.766 17.5095 51.004C17.4075 51.242 17.3111 51.446 17.2205 51.616L16.6425 53.044C16.5631 53.2593 16.4838 53.5313 16.4045 53.86C16.3365 54.1887 16.2515 54.455 16.1495 54.659C16.1381 54.7497 16.0985 54.8743 16.0305 55.033C15.9738 55.1917 15.9228 55.356 15.8775 55.526C15.8435 55.6847 15.8548 55.8263 15.9115 55.951C16.0135 56.2003 16.1381 56.3477 16.2855 56.393C16.4441 56.4383 16.6311 56.461 16.8465 56.461C17.1638 56.461 17.5208 56.3647 17.9175 56.172C18.3141 55.968 18.7108 55.7187 19.1075 55.424C19.5155 55.118 19.8895 54.812 20.2295 54.506C20.5695 54.2 20.8358 53.9393 21.0285 53.724L21.3345 54.421C21.2665 54.5343 21.1078 54.7157 20.8585 54.965C20.6205 55.203 20.3258 55.4693 19.9745 55.764C19.6231 56.0473 19.2548 56.325 18.8695 56.597C18.4955 56.869 18.1385 57.0957 17.7985 57.277C17.4585 57.447 17.1751 57.532 16.9485 57.532ZM22.7355 60.388C22.6902 60.2973 22.6335 60.2293 22.5655 60.184C22.4975 60.1273 22.4635 60.0763 22.4635 60.031C22.4635 59.9857 22.4578 59.9403 22.4465 59.895C22.4465 59.8383 22.4238 59.7873 22.3785 59.742C22.3218 59.674 22.3275 59.521 22.3955 59.283C22.4635 59.0337 22.5768 58.7333 22.7355 58.382C22.8942 58.0193 23.0812 57.6397 23.2965 57.243C23.3872 57.1523 23.4778 57.0333 23.5685 56.886C23.6592 56.7387 23.7272 56.6423 23.7725 56.597C23.7725 56.5517 23.7895 56.512 23.8235 56.478C23.8575 56.4327 23.8972 56.41 23.9425 56.41V56.308C23.9425 56.2513 23.9935 56.155 24.0955 56.019C24.2088 55.883 24.3448 55.7357 24.5035 55.577C24.6622 55.407 24.8265 55.2483 24.9965 55.101C25.1665 54.9423 25.3082 54.829 25.4215 54.761C25.6595 54.6023 25.9032 54.506 26.1525 54.472C26.4132 54.438 26.6342 54.4947 26.8155 54.642C26.8495 54.676 26.9062 54.7327 26.9855 54.812C27.0648 54.8913 27.1555 54.982 27.2575 55.084C27.3708 55.1747 27.4842 55.271 27.5975 55.373L28.2265 55.934L27.9205 56.784C27.7732 57.2373 27.7335 57.634 27.8015 57.974C27.8808 58.314 27.9942 58.6087 28.1415 58.858C28.1982 58.9827 28.3115 59.1017 28.4815 59.215C28.6628 59.3283 28.8328 59.3963 28.9915 59.419C29.0822 59.4303 29.1672 59.4643 29.2465 59.521C29.3258 59.5777 29.3655 59.6683 29.3655 59.793C29.3655 59.9063 29.3428 59.997 29.2975 60.065C29.2522 60.133 29.1728 60.1783 29.0595 60.201C28.6855 60.2463 28.3342 60.1557 28.0055 59.929C27.6882 59.7023 27.3935 59.3283 27.1215 58.807C27.0762 58.739 27.0138 58.6143 26.9345 58.433C26.8665 58.2403 26.8268 58.1157 26.8155 58.059C26.7702 58.1157 26.6852 58.2233 26.5605 58.382C26.4358 58.5293 26.3395 58.637 26.2715 58.705C25.4668 59.521 24.7698 60.0707 24.1805 60.354C23.6025 60.626 23.1208 60.6373 22.7355 60.388ZM23.3475 59.436C23.3475 59.5153 23.4665 59.5153 23.7045 59.436C23.9538 59.3453 24.2202 59.1867 24.5035 58.96C24.8888 58.6313 25.2742 58.2687 25.6595 57.872C26.0562 57.4753 26.3735 57.107 26.6115 56.767L26.9855 56.155C26.8722 55.8943 26.7475 55.7187 26.6115 55.628C26.4868 55.526 26.3792 55.475 26.2885 55.475C26.1412 55.475 25.9202 55.611 25.6255 55.883C25.3422 56.155 25.0362 56.5177 24.7075 56.971C24.3788 57.4243 24.0672 57.923 23.7725 58.467C23.6592 58.6937 23.5572 58.9147 23.4665 59.13C23.3872 59.334 23.3475 59.436 23.3475 59.436ZM34.0664 60.694C33.8851 60.6373 33.7264 60.5523 33.5904 60.439C33.4544 60.3143 33.3241 60.1783 33.1994 60.031C33.1427 59.963 33.0464 59.827 32.9104 59.623C32.7744 59.419 32.6271 59.1923 32.4684 58.943C32.3211 58.6937 32.1794 58.4613 32.0434 58.246C31.9074 58.0193 31.8054 57.8493 31.7374 57.736C31.6807 57.906 31.6184 58.0477 31.5504 58.161C31.4937 58.263 31.4654 58.4273 31.4654 58.654C31.3521 58.8127 31.2671 58.994 31.2104 59.198C31.1651 59.3907 31.1141 59.5833 31.0574 59.776C31.0234 59.9007 30.9667 60.014 30.8874 60.116C30.8194 60.218 30.7287 60.3087 30.6154 60.388C30.4794 60.3767 30.3604 60.3313 30.2584 60.252C30.1677 60.1727 30.0884 60.0933 30.0204 60.014C29.9524 59.878 29.9241 59.7477 29.9354 59.623C29.9467 59.4983 29.9751 59.3793 30.0204 59.266C30.0431 59.164 30.1054 58.9657 30.2074 58.671C30.3207 58.3763 30.4397 58.059 30.5644 57.719C30.6891 57.3677 30.8024 57.056 30.9044 56.784C31.0064 56.5007 31.0631 56.325 31.0744 56.257C31.1424 56.0303 31.2614 55.7867 31.4314 55.526C31.6127 55.254 31.7374 54.9593 31.8054 54.642C31.8281 54.5627 31.8847 54.489 31.9754 54.421C32.0661 54.3417 32.1681 54.302 32.2814 54.302C32.4061 54.2907 32.5081 54.353 32.5874 54.489C32.6101 54.5003 32.6441 54.5173 32.6894 54.54C32.7347 54.5513 32.7687 54.574 32.7914 54.608C32.8821 54.71 32.9331 54.8177 32.9444 54.931C32.9671 55.0443 32.9444 55.1633 32.8764 55.288C32.7291 55.5487 32.6044 55.764 32.5024 55.934C32.4117 56.0927 32.3211 56.2683 32.2304 56.461C32.1397 56.6537 32.0377 56.92 31.9244 57.26C32.1171 57.2147 32.2587 57.1807 32.3494 57.158C32.4401 57.124 32.5251 57.073 32.6044 57.005C32.6951 56.9257 32.8141 56.8067 32.9614 56.648C33.0181 56.5913 33.1314 56.4837 33.3014 56.325C33.4827 56.155 33.6697 55.9737 33.8624 55.781C34.0664 55.5883 34.2421 55.4183 34.3894 55.271C34.5481 55.1237 34.6331 55.0387 34.6444 55.016C34.7124 54.914 34.7804 54.8233 34.8484 54.744C34.9277 54.6533 35.0297 54.5853 35.1544 54.54C35.3244 54.5627 35.4434 54.5967 35.5114 54.642C35.5794 54.676 35.7097 54.7723 35.9024 54.931C35.9591 54.9763 35.9817 55.084 35.9704 55.254C35.9591 55.4127 35.8967 55.5373 35.7834 55.628C35.5794 55.7867 35.3244 55.9907 35.0184 56.24C34.7124 56.4893 34.3837 56.75 34.0324 57.022C33.6924 57.294 33.3524 57.549 33.0124 57.787C33.1711 58.0477 33.3127 58.297 33.4374 58.535C33.5621 58.7617 33.6641 58.9543 33.7434 59.113C33.7661 59.3963 33.8681 59.589 34.0494 59.691C34.2421 59.7817 34.4744 59.827 34.7464 59.827C34.8371 59.8723 34.8937 59.929 34.9164 59.997C34.9504 60.0537 34.9674 60.1217 34.9674 60.201C34.9787 60.269 34.9901 60.337 35.0014 60.405C34.8427 60.507 34.7294 60.5977 34.6614 60.677C34.6047 60.745 34.5367 60.7847 34.4574 60.796C34.3894 60.796 34.2591 60.762 34.0664 60.694ZM39.3048 60.779C38.9195 60.881 38.6475 60.932 38.4888 60.932C38.3301 60.932 38.1601 60.8527 37.9788 60.694C37.9221 60.6373 37.8881 60.5807 37.8768 60.524C37.8655 60.456 37.8371 60.4163 37.7918 60.405C37.7805 60.3257 37.7861 60.2633 37.8088 60.218C37.8428 60.1613 37.9165 60.1103 38.0298 60.065C38.1998 60.167 38.4151 60.1953 38.6758 60.15C38.9365 60.1047 39.1915 60.0083 39.4408 59.861C39.7015 59.7023 39.9055 59.5153 40.0528 59.3C40.2795 59.028 40.4551 58.773 40.5798 58.535C40.7045 58.2857 40.7725 58.0647 40.7838 57.872C40.7838 57.7587 40.7668 57.6793 40.7328 57.634C40.7101 57.5773 40.6535 57.4923 40.5628 57.379C40.3588 57.447 40.1718 57.5263 40.0018 57.617C39.8431 57.7077 39.7128 57.804 39.6108 57.906C39.2708 58.1893 39.0045 58.4217 38.8118 58.603C38.6305 58.7843 38.4718 58.9657 38.3358 59.147C38.2111 59.3283 38.0525 59.572 37.8598 59.878C37.7691 59.9913 37.6841 60.0763 37.6048 60.133C37.5368 60.1897 37.4631 60.218 37.3838 60.218C37.4178 60.4447 37.3385 60.5807 37.1458 60.626C36.8965 60.5693 36.7151 60.4957 36.6018 60.405C36.4885 60.303 36.4545 60.1103 36.4998 59.827C36.5451 59.6683 36.5905 59.4813 36.6358 59.266C36.6811 59.0393 36.7321 58.8523 36.7888 58.705C37.0608 57.9797 37.2988 57.3337 37.5028 56.767C37.7181 56.2003 37.9051 55.798 38.0638 55.56L38.4378 54.591C38.6305 54.6023 38.7778 54.642 38.8798 54.71C38.9818 54.7667 39.1008 54.9083 39.2368 55.135C39.2368 55.1917 39.1801 55.356 39.0668 55.628C38.9648 55.8887 38.8401 56.189 38.6928 56.529C38.5568 56.869 38.4265 57.1863 38.3018 57.481C38.1885 57.7643 38.1091 57.9627 38.0638 58.076C38.0185 58.2007 38.0525 58.178 38.1658 58.008C38.2905 57.838 38.5058 57.6227 38.8118 57.362C38.9591 57.2147 39.1405 57.0787 39.3558 56.954C39.5711 56.818 39.7525 56.716 39.8998 56.648C40.0585 56.58 40.1888 56.5403 40.2908 56.529C40.3928 56.5177 40.4665 56.5063 40.5118 56.495C40.7951 56.495 41.0218 56.5687 41.1918 56.716C41.3618 56.852 41.4808 57.0107 41.5488 57.192C41.6281 57.3733 41.6678 57.5207 41.6678 57.634C41.7018 57.8153 41.7245 57.991 41.7358 58.161C41.7585 58.3197 41.7471 58.4897 41.7018 58.671C41.6678 58.7617 41.6055 58.8863 41.5148 59.045C41.4241 59.2037 41.3165 59.368 41.1918 59.538C41.0785 59.6967 40.9425 59.827 40.7838 59.929C40.6818 60.031 40.5458 60.1387 40.3758 60.252C40.2058 60.3653 40.0245 60.473 39.8318 60.575C39.6505 60.6657 39.4748 60.7337 39.3048 60.779ZM42.8408 61.051C42.6368 61.0283 42.4668 60.966 42.3308 60.864C42.2061 60.7507 42.1155 60.5863 42.0588 60.371C42.0588 60.1783 42.0815 60.0027 42.1268 59.844C42.1835 59.674 42.2288 59.5097 42.2628 59.351C42.3195 59.0903 42.3988 58.8297 42.5008 58.569C42.6028 58.3083 42.6935 58.0477 42.7728 57.787C42.8408 57.6283 42.8975 57.4753 42.9428 57.328C42.9881 57.1807 43.0335 57.0333 43.0788 56.886C43.1355 56.7047 43.1921 56.529 43.2488 56.359C43.3055 56.189 43.3621 56.019 43.4188 55.849C43.4641 55.7017 43.4981 55.5487 43.5208 55.39C43.5548 55.2313 43.5831 55.0727 43.6058 54.914C43.7305 54.778 43.8665 54.7213 44.0138 54.744C44.1725 54.7667 44.3651 54.897 44.5918 55.135C44.6485 55.271 44.6768 55.3957 44.6768 55.509C44.6768 55.611 44.6485 55.7187 44.5918 55.832C44.5465 55.934 44.4841 56.087 44.4048 56.291C44.3368 56.495 44.2631 56.699 44.1838 56.903C44.1158 57.0957 44.0648 57.243 44.0308 57.345C44.0081 57.4697 43.9458 57.6737 43.8438 57.957C43.7531 58.2403 43.6568 58.535 43.5548 58.841C43.4528 59.1357 43.3791 59.3737 43.3338 59.555C43.2658 59.725 43.2148 59.8893 43.1808 60.048C43.1468 60.2067 43.1128 60.405 43.0788 60.643C43.1015 60.745 43.0845 60.83 43.0278 60.898C42.9825 60.9547 42.9201 61.0057 42.8408 61.051ZM44.6312 64.808C44.5859 64.808 44.5292 64.808 44.4612 64.808C44.3932 64.8193 44.3309 64.774 44.2742 64.672C44.2289 64.6153 44.2006 64.5303 44.1892 64.417C44.1892 64.3037 44.2176 64.0997 44.2742 63.805C44.3309 63.6123 44.3762 63.4197 44.4102 63.227C44.4442 63.0457 44.4612 62.9097 44.4612 62.819C44.4612 62.7737 44.4726 62.683 44.4952 62.547C44.5292 62.4223 44.5462 62.3317 44.5462 62.275C44.6029 62.1843 44.6482 62.0597 44.6822 61.901C44.7162 61.7423 44.7332 61.6007 44.7332 61.476C44.7332 61.34 44.8012 61.2153 44.9372 61.102C44.9372 61.0113 44.9542 60.898 44.9882 60.762C45.0336 60.626 45.0562 60.5353 45.0562 60.49C45.0902 60.3313 45.1639 60.0537 45.2772 59.657C45.4019 59.249 45.5492 58.79 45.7192 58.28C45.9006 57.77 46.0762 57.2713 46.2462 56.784C46.4162 56.2967 46.5692 55.883 46.7052 55.543C46.8412 55.2257 46.9319 54.9537 46.9772 54.727C47.0339 54.489 47.0622 54.3133 47.0622 54.2C47.0622 54.1547 47.0736 54.1207 47.0962 54.098C47.1189 54.064 47.1699 54.0017 47.2492 53.911C47.3626 53.7977 47.4589 53.7637 47.5382 53.809C47.6289 53.8543 47.7366 53.9223 47.8612 54.013C47.9519 54.1603 48.0142 54.285 48.0482 54.387C48.0936 54.489 48.0936 54.6647 48.0482 54.914C48.0482 55.084 48.0199 55.2313 47.9632 55.356C47.9066 55.4807 47.8556 55.577 47.8102 55.645C47.7649 55.7017 47.7536 55.7243 47.7762 55.713C48.2409 55.4977 48.6489 55.3843 49.0002 55.373C49.3629 55.3503 49.6632 55.4127 49.9012 55.56C50.1506 55.696 50.3376 55.8887 50.4622 56.138C50.5869 56.3873 50.6492 56.6763 50.6492 57.005C50.6492 57.141 50.6209 57.3053 50.5642 57.498C50.5076 57.6793 50.4339 57.8493 50.3432 58.008C50.2639 58.1553 50.1902 58.263 50.1222 58.331C50.0769 58.331 50.0316 58.3707 49.9862 58.45C49.9409 58.518 49.8956 58.5973 49.8502 58.688C49.7596 58.8013 49.6122 58.9317 49.4082 59.079C49.2156 59.215 49.0229 59.3283 48.8302 59.419C48.6376 59.4983 48.4959 59.521 48.4052 59.487C48.4052 59.487 48.3882 59.4927 48.3542 59.504C48.3316 59.504 48.3202 59.5323 48.3202 59.589C48.3202 59.6117 48.2296 59.6627 48.0482 59.742C47.8669 59.81 47.6572 59.878 47.4192 59.946C47.1812 60.0027 46.9716 60.031 46.7902 60.031C46.5522 60.031 46.3822 59.9857 46.2802 59.895C46.2576 59.9177 46.2292 59.9517 46.1952 59.997C46.1726 60.0423 46.1612 60.082 46.1612 60.116C46.1612 60.184 46.1329 60.3143 46.0762 60.507C46.0309 60.6883 45.9742 60.864 45.9062 61.034C45.8382 61.204 45.7759 61.289 45.7192 61.289C45.7192 61.289 45.7079 61.306 45.6852 61.34C45.6626 61.374 45.6739 61.4193 45.7192 61.476C45.7192 61.476 45.7136 61.5383 45.7022 61.663C45.7022 61.799 45.6739 61.9123 45.6172 62.003C45.6172 62.0937 45.6002 62.2297 45.5662 62.411C45.5322 62.5923 45.4926 62.7283 45.4472 62.819C45.4472 62.955 45.4246 63.0853 45.3792 63.21C45.3452 63.346 45.3056 63.414 45.2602 63.414C45.2149 63.4253 45.1866 63.4933 45.1752 63.618C45.1639 63.754 45.1582 63.8503 45.1582 63.907C45.1469 64.1903 45.0902 64.4113 44.9882 64.57C44.8862 64.7287 44.7672 64.808 44.6312 64.808ZM46.6882 59.13C46.7789 59.13 46.9659 59.0903 47.2492 59.011C47.5326 58.9317 47.8216 58.8353 48.1162 58.722C48.4222 58.5973 48.6489 58.4727 48.7962 58.348C49.0909 58.0873 49.3176 57.7927 49.4762 57.464C49.6462 57.124 49.6349 56.801 49.4422 56.495C49.3516 56.3363 49.1872 56.274 48.9492 56.308C48.7112 56.3307 48.4506 56.4213 48.1672 56.58C47.8839 56.7387 47.6176 56.937 47.3682 57.175C47.2322 57.3223 47.1076 57.5037 46.9942 57.719C46.8809 57.9343 46.7846 58.1497 46.7052 58.365C46.6372 58.5803 46.5976 58.7617 46.5862 58.909C46.5749 59.0563 46.6089 59.13 46.6882 59.13ZM50.8474 64.383C50.5754 64.4623 50.2751 64.4737 49.9464 64.417C49.6291 64.3717 49.3514 64.2753 49.1134 64.128C48.8641 63.9807 48.7224 63.8163 48.6884 63.635C48.6771 63.567 48.6997 63.4933 48.7564 63.414C48.8017 63.3347 48.8641 63.278 48.9434 63.244C49.0114 63.2213 49.0737 63.244 49.1304 63.312C49.2211 63.3687 49.3854 63.4367 49.6234 63.516C49.8614 63.6067 50.1277 63.6237 50.4224 63.567C50.6831 63.5103 50.9381 63.3573 51.1874 63.108C51.4481 62.8587 51.6577 62.6263 51.8164 62.411C51.9071 62.275 52.0601 62.0313 52.2754 61.68C52.4907 61.3287 52.7117 60.9433 52.9384 60.524C53.1764 60.0933 53.3747 59.6967 53.5334 59.334C53.5674 59.2433 53.6071 59.1357 53.6524 59.011C53.6977 58.8863 53.7544 58.7843 53.8224 58.705C53.8904 58.569 53.9471 58.4443 53.9924 58.331C54.0491 58.2063 54.0831 58.1213 54.0944 58.076C54.1057 58.0193 54.1567 57.906 54.2474 57.736C54.3381 57.566 54.4231 57.396 54.5024 57.226C54.5591 57.056 54.6441 56.8067 54.7574 56.478C54.8707 56.1493 54.9841 55.883 55.0974 55.679C55.2334 55.4183 55.3411 55.2087 55.4204 55.05C55.5111 54.88 55.6074 54.778 55.7094 54.744C55.8114 54.6647 55.8794 54.625 55.9134 54.625C55.9587 54.625 56.0437 54.659 56.1684 54.727C56.3044 54.863 56.3894 54.999 56.4234 55.135C56.4574 55.2597 56.4404 55.4183 56.3724 55.611C56.3157 55.7923 56.2024 56.0417 56.0324 56.359C55.9417 56.631 55.8397 56.8803 55.7264 57.107C55.6244 57.3223 55.5451 57.464 55.4884 57.532C55.4317 57.668 55.3637 57.821 55.2844 57.991C55.2164 58.1497 55.1541 58.297 55.0974 58.433C54.8934 58.8863 54.7177 59.2547 54.5704 59.538C54.4231 59.8213 54.2927 60.082 54.1794 60.32C54.0661 60.558 53.9471 60.8357 53.8224 61.153C53.5617 61.5723 53.3067 61.969 53.0574 62.343C52.8194 62.7283 52.5644 63.0853 52.2924 63.414C52.1791 63.516 52.0374 63.635 51.8674 63.771C51.6974 63.907 51.5217 64.0317 51.3404 64.145C51.1704 64.2583 51.0061 64.3377 50.8474 64.383ZM53.1424 60.303C52.9724 60.2803 52.8024 60.1783 52.6324 59.997C52.4737 59.8157 52.3491 59.623 52.2584 59.419C52.1677 59.215 52.1337 59.0677 52.1564 58.977C52.1564 58.9203 52.1564 58.875 52.1564 58.841C52.1564 58.807 52.1564 58.79 52.1564 58.79C52.0884 58.79 52.0261 58.705 51.9694 58.535C51.9241 58.365 51.8901 58.144 51.8674 57.872C51.8447 57.6 51.8277 57.311 51.8164 57.005C51.8164 56.699 51.8277 56.41 51.8504 56.138C51.8957 55.9453 51.9184 55.7357 51.9184 55.509C51.9184 55.271 51.9241 55.084 51.9354 54.948C51.9241 54.7667 51.9411 54.6477 51.9864 54.591C52.0317 54.523 52.0771 54.472 52.1224 54.438C52.4397 54.302 52.6494 54.387 52.7514 54.693C52.8647 54.9877 52.8931 55.543 52.8364 56.359C52.8137 56.8123 52.8137 57.2657 52.8364 57.719C52.8591 58.1723 52.9214 58.569 53.0234 58.909C53.1367 59.249 53.2897 59.4813 53.4824 59.606C53.5617 59.6513 53.6014 59.7137 53.6014 59.793C53.6014 59.8723 53.5787 59.9573 53.5334 60.048C53.4881 60.1273 53.4257 60.1953 53.3464 60.252C53.2784 60.2973 53.2104 60.3143 53.1424 60.303ZM56.7263 65.097C56.477 65.1423 56.307 65.148 56.2163 65.114C56.1257 65.08 56.001 65.0233 55.8423 64.944C55.7177 64.8533 55.6213 64.7853 55.5533 64.74C55.4853 64.6947 55.4513 64.6493 55.4513 64.604C55.4513 64.57 55.4627 64.5303 55.4853 64.485C55.508 64.451 55.5477 64.417 55.6043 64.383C55.6723 64.3603 55.763 64.349 55.8763 64.349C55.9557 64.3943 56.086 64.417 56.2673 64.417C56.46 64.417 56.579 64.3943 56.6243 64.349C56.6243 64.349 56.6753 64.315 56.7773 64.247C56.8907 64.1903 57.038 64.145 57.2193 64.111C57.5707 63.941 57.8823 63.7257 58.1543 63.465C58.4263 63.2043 58.687 62.8643 58.9363 62.445C59.0383 62.2863 59.146 62.0993 59.2593 61.884C59.3727 61.68 59.452 61.476 59.4973 61.272C59.588 61.0453 59.69 60.7393 59.8033 60.354C59.928 59.9687 60.0357 59.589 60.1263 59.215C60.217 58.8297 60.268 58.5407 60.2793 58.348C60.3473 57.7133 60.455 57.1297 60.6023 56.597C60.761 56.053 60.897 55.4467 61.0103 54.778C61.0783 54.6193 61.1293 54.5287 61.1633 54.506C61.1973 54.472 61.271 54.455 61.3843 54.455C61.509 54.455 61.5997 54.4663 61.6563 54.489C61.7243 54.5003 61.798 54.5683 61.8773 54.693C61.9907 54.9083 62.0303 55.1633 61.9963 55.458C61.9737 55.7413 61.8887 55.9907 61.7413 56.206C61.628 56.3647 61.526 56.614 61.4353 56.954C61.356 57.2827 61.2767 57.6963 61.1973 58.195C61.1407 58.4443 61.0783 58.739 61.0103 59.079C60.9537 59.4077 60.8913 59.776 60.8233 60.184C60.778 60.2973 60.7157 60.473 60.6363 60.711C60.557 60.9377 60.506 61.119 60.4833 61.255C60.472 61.3003 60.438 61.391 60.3813 61.527C60.3247 61.663 60.268 61.7933 60.2113 61.918C60.1547 62.054 60.115 62.1447 60.0923 62.19C59.6503 63.108 59.146 63.8107 58.5793 64.298C58.0127 64.7853 57.395 65.0517 56.7263 65.097ZM58.0183 60.167C57.8937 60.167 57.7633 60.099 57.6273 59.963C57.5027 59.827 57.4177 59.7193 57.3723 59.64C57.327 59.5267 57.2703 59.419 57.2023 59.317C57.1343 59.215 57.0833 59.0903 57.0493 58.943C57.0267 58.7957 57.038 58.6143 57.0833 58.399C57.1287 58.2517 57.191 58.042 57.2703 57.77C57.361 57.4867 57.4573 57.1807 57.5593 56.852C57.6727 56.5233 57.786 56.2003 57.8993 55.883C58.024 55.5543 58.1373 55.2653 58.2393 55.016C58.3413 54.7553 58.432 54.5683 58.5113 54.455C58.5793 54.3643 58.653 54.3077 58.7323 54.285C58.823 54.2623 58.9137 54.2737 59.0043 54.319C59.095 54.353 59.1743 54.4267 59.2423 54.54C59.367 54.6987 59.418 54.8347 59.3953 54.948C59.3727 55.0613 59.2707 55.2823 59.0893 55.611C59.044 55.7357 58.9873 55.8717 58.9193 56.019C58.8513 56.155 58.8173 56.2457 58.8173 56.291C58.806 56.3137 58.7833 56.393 58.7493 56.529C58.7267 56.6537 58.6983 56.7727 58.6643 56.886C58.6303 56.9993 58.5963 57.056 58.5623 57.056C58.517 57.1013 58.466 57.2317 58.4093 57.447C58.3527 57.651 58.3017 57.8833 58.2563 58.144C58.211 58.3933 58.1827 58.6143 58.1713 58.807C58.16 58.9883 58.177 59.079 58.2223 59.079C58.5737 59.079 58.9363 58.943 59.3103 58.671C59.6957 58.399 60.081 58.0023 60.4663 57.481L60.7553 58.688C60.5967 58.7673 60.4493 58.8523 60.3133 58.943C60.1773 59.0223 60.0527 59.1187 59.9393 59.232C59.9053 59.2773 59.826 59.3397 59.7013 59.419C59.5767 59.4983 59.452 59.572 59.3273 59.64C59.214 59.6967 59.1403 59.725 59.1063 59.725C59.1063 59.725 59.0893 59.7307 59.0553 59.742C59.0327 59.742 59.0213 59.7647 59.0213 59.81C59.0213 59.8327 58.9477 59.878 58.8003 59.946C58.653 60.0027 58.5 60.0537 58.3413 60.099C58.1827 60.1443 58.075 60.167 58.0183 60.167ZM66.9403 60.813C66.8723 60.7903 66.8043 60.7733 66.7363 60.762C66.6683 60.7393 66.6003 60.7167 66.5323 60.694C66.4756 60.6713 66.4076 60.6543 66.3283 60.643C66.215 60.4843 66.1696 60.2917 66.1923 60.065C66.215 59.827 66.266 59.5833 66.3453 59.334C66.436 59.0847 66.521 58.841 66.6003 58.603C66.691 58.365 66.742 58.161 66.7533 57.991C66.742 57.9457 66.725 57.9343 66.7023 57.957C66.6796 57.9683 66.6683 57.9853 66.6683 58.008C66.589 58.0987 66.4756 58.161 66.3283 58.195C66.181 58.229 66.045 58.2573 65.9203 58.28C65.705 58.314 65.4896 58.3537 65.2743 58.399C65.059 58.4443 64.8493 58.4953 64.6453 58.552C64.6113 58.5293 64.5716 58.501 64.5263 58.467C64.4923 58.433 64.4583 58.4047 64.4243 58.382C64.345 58.382 64.277 58.4557 64.2203 58.603C64.1636 58.7503 64.1126 58.9317 64.0673 59.147C64.022 59.351 63.9766 59.5493 63.9313 59.742C63.8973 59.9233 63.8633 60.0537 63.8293 60.133C63.648 60.1557 63.5176 60.1613 63.4383 60.15C63.3703 60.1387 63.24 60.1047 63.0473 60.048C62.9566 59.9233 62.9056 59.8043 62.8943 59.691C62.8943 59.5777 62.9113 59.453 62.9453 59.317C63.002 59.0563 63.0473 58.8467 63.0813 58.688C63.1266 58.5293 63.2003 58.3253 63.3023 58.076C63.359 57.9513 63.41 57.8323 63.4553 57.719C63.512 57.5943 63.5403 57.4583 63.5403 57.311C63.631 57.1977 63.6933 57.073 63.7273 56.937C63.7613 56.801 63.801 56.665 63.8463 56.529C64.0276 56.0643 64.1693 55.7073 64.2713 55.458C64.3846 55.1973 64.464 54.9933 64.5093 54.846C64.5546 54.6987 64.583 54.5627 64.5943 54.438C64.6056 54.2793 64.702 54.2 64.8833 54.2C64.9966 54.2 65.1156 54.2453 65.2403 54.336C65.365 54.4153 65.4613 54.5173 65.5293 54.642C65.5973 54.7667 65.603 54.897 65.5463 55.033C65.5123 55.1237 65.4556 55.271 65.3763 55.475C65.3083 55.6677 65.229 55.883 65.1383 56.121C65.059 56.3477 64.9796 56.563 64.9003 56.767C64.8323 56.9597 64.7756 57.1013 64.7303 57.192C64.719 57.2373 64.6963 57.277 64.6623 57.311C64.6283 57.3337 64.6113 57.3733 64.6113 57.43C64.6906 57.4867 64.821 57.5093 65.0023 57.498C65.195 57.4753 65.331 57.4413 65.4103 57.396C65.5803 57.396 65.7446 57.396 65.9033 57.396C66.0733 57.396 66.2433 57.396 66.4133 57.396C66.5833 57.498 66.7136 57.651 66.8043 57.855C66.8836 57.6397 66.9913 57.3563 67.1273 57.005C67.2633 56.6423 67.3936 56.2853 67.5183 55.934C67.643 55.5827 67.7166 55.3163 67.7393 55.135C67.762 55.033 67.8073 54.9423 67.8753 54.863C67.9433 54.7837 68.017 54.7213 68.0963 54.676C68.255 54.7553 68.408 54.8233 68.5553 54.88C68.714 54.9253 68.816 55.0557 68.8613 55.271C68.85 55.373 68.8273 55.475 68.7933 55.577C68.7593 55.6677 68.7253 55.7583 68.6913 55.849C68.578 56.1777 68.4363 56.5403 68.2663 56.937C68.0963 57.3223 67.9376 57.719 67.7903 58.127C67.6543 58.5237 67.558 58.8977 67.5013 59.249C67.5013 59.283 67.473 59.3963 67.4163 59.589C67.371 59.7817 67.32 59.9687 67.2633 60.15C67.218 60.3313 67.1896 60.4277 67.1783 60.439C67.1783 60.5183 67.1556 60.592 67.1103 60.66C67.065 60.7167 67.0083 60.7677 66.9403 60.813ZM70.8055 64.91C70.7942 64.9327 70.7432 64.91 70.6525 64.842C70.5732 64.774 70.4939 64.689 70.4145 64.587C70.3352 64.4963 70.3012 64.417 70.3125 64.349C70.2672 64.1903 70.2729 63.992 70.3295 63.754C70.3975 63.5273 70.5392 63.1873 70.7545 62.734C70.8679 62.5527 70.9699 62.3373 71.0605 62.088C71.1625 61.8387 71.2759 61.5893 71.4005 61.34C71.4572 61.238 71.5819 61.017 71.7745 60.677C71.9672 60.337 72.1712 59.9517 72.3865 59.521C72.6132 59.0903 72.8002 58.6823 72.9475 58.297C72.6529 58.603 72.3809 58.9147 72.1315 59.232C71.8822 59.538 71.6499 59.7873 71.4345 59.98C71.2305 60.1727 71.0379 60.2633 70.8565 60.252C70.7092 60.218 70.5505 60.167 70.3805 60.099C70.2219 60.0197 70.1142 59.8837 70.0575 59.691C70.0122 59.4417 69.9952 59.1243 70.0065 58.739C70.0292 58.3537 70.1029 57.77 70.2275 56.988C70.3182 56.6027 70.3692 56.308 70.3805 56.104C70.4032 55.8887 70.3975 55.73 70.3635 55.628C70.3295 55.526 70.2672 55.4353 70.1765 55.356C70.0292 55.22 69.9499 55.101 69.9385 54.999C69.9385 54.8857 70.0179 54.7893 70.1765 54.71C70.4145 54.6533 70.5845 54.6363 70.6865 54.659C70.7885 54.6703 70.9132 54.761 71.0605 54.931C71.1512 55.0783 71.2305 55.22 71.2985 55.356C71.3779 55.4807 71.4175 55.7017 71.4175 56.019C71.4175 56.155 71.3949 56.3363 71.3495 56.563C71.3155 56.7897 71.2815 57.005 71.2475 57.209C71.2249 57.4017 71.2079 57.5377 71.1965 57.617C71.0832 58.0363 71.0095 58.399 70.9755 58.705C70.9529 59.011 70.9699 59.164 71.0265 59.164C71.2532 58.9827 71.4685 58.7787 71.6725 58.552C71.8879 58.314 72.1089 58.0477 72.3355 57.753C72.5735 57.447 72.8342 57.1013 73.1175 56.716C73.2195 56.5233 73.3215 56.3363 73.4235 56.155C73.5255 55.9737 73.6105 55.7867 73.6785 55.594C73.7465 55.4467 73.8145 55.3277 73.8825 55.237C73.9505 55.1463 74.0072 55.0953 74.0525 55.084C74.1092 55.0613 74.1772 55.067 74.2565 55.101C74.3472 55.135 74.4265 55.1747 74.4945 55.22C74.5739 55.254 74.6135 55.2823 74.6135 55.305C74.6249 55.3163 74.6532 55.3277 74.6985 55.339C74.7439 55.3503 74.7892 55.3617 74.8345 55.373C74.8912 55.373 74.9195 55.39 74.9195 55.424C74.9195 55.4467 74.8912 55.5203 74.8345 55.645C74.7892 55.7697 74.7325 55.9113 74.6645 56.07C74.6079 56.2173 74.5569 56.3533 74.5115 56.478C74.4662 56.5913 74.4492 56.6593 74.4605 56.682C74.4832 56.7047 74.4662 56.7897 74.4095 56.937C74.3529 57.073 74.2849 57.226 74.2055 57.396C74.1375 57.566 74.0752 57.719 74.0185 57.855C73.9052 58.229 73.7749 58.603 73.6275 58.977C73.4802 59.3397 73.3045 59.7023 73.1005 60.065C73.0325 60.201 72.9305 60.4107 72.7945 60.694C72.6699 60.9773 72.5452 61.255 72.4205 61.527C72.3072 61.8103 72.2165 62.0257 72.1485 62.173C72.1032 62.2637 72.0352 62.4053 71.9445 62.598C71.8652 62.802 71.7745 63.023 71.6725 63.261C71.5819 63.499 71.4912 63.72 71.4005 63.924C71.3099 64.1393 71.2419 64.3037 71.1965 64.417C71.1739 64.6323 71.1229 64.791 71.0435 64.893C70.9982 64.893 70.9472 64.893 70.8905 64.893C70.8339 64.9043 70.8055 64.91 70.8055 64.91ZM79.6457 60.388C79.6003 60.2973 79.5437 60.2293 79.4757 60.184C79.4077 60.1273 79.3737 60.0763 79.3737 60.031C79.3737 59.9857 79.368 59.9403 79.3567 59.895C79.3567 59.8383 79.334 59.7873 79.2887 59.742C79.232 59.674 79.2377 59.521 79.3057 59.283C79.3737 59.0337 79.487 58.7333 79.6457 58.382C79.8043 58.0193 79.9913 57.6397 80.2067 57.243C80.2973 57.1523 80.388 57.0333 80.4787 56.886C80.5693 56.7387 80.6373 56.6423 80.6827 56.597C80.6827 56.5517 80.6997 56.512 80.7337 56.478C80.7677 56.4327 80.8073 56.41 80.8527 56.41V56.308C80.8527 56.2513 80.9037 56.155 81.0057 56.019C81.119 55.883 81.255 55.7357 81.4137 55.577C81.5723 55.407 81.7367 55.2483 81.9067 55.101C82.0767 54.9423 82.2183 54.829 82.3317 54.761C82.5697 54.6023 82.8133 54.506 83.0627 54.472C83.3233 54.438 83.5443 54.4947 83.7257 54.642C83.7597 54.676 83.8163 54.7327 83.8957 54.812C83.975 54.8913 84.0657 54.982 84.1677 55.084C84.281 55.1747 84.3943 55.271 84.5077 55.373L85.1367 55.934L84.8307 56.784C84.6833 57.2373 84.6437 57.634 84.7117 57.974C84.791 58.314 84.9043 58.6087 85.0517 58.858C85.1083 58.9827 85.2217 59.1017 85.3917 59.215C85.573 59.3283 85.743 59.3963 85.9017 59.419C85.9923 59.4303 86.0773 59.4643 86.1567 59.521C86.236 59.5777 86.2757 59.6683 86.2757 59.793C86.2757 59.9063 86.253 59.997 86.2077 60.065C86.1623 60.133 86.083 60.1783 85.9697 60.201C85.5957 60.2463 85.2443 60.1557 84.9157 59.929C84.5983 59.7023 84.3037 59.3283 84.0317 58.807C83.9863 58.739 83.924 58.6143 83.8447 58.433C83.7767 58.2403 83.737 58.1157 83.7257 58.059C83.6803 58.1157 83.5953 58.2233 83.4707 58.382C83.346 58.5293 83.2497 58.637 83.1817 58.705C82.377 59.521 81.68 60.0707 81.0907 60.354C80.5127 60.626 80.031 60.6373 79.6457 60.388ZM80.2577 59.436C80.2577 59.5153 80.3767 59.5153 80.6147 59.436C80.864 59.3453 81.1303 59.1867 81.4137 58.96C81.799 58.6313 82.1843 58.2687 82.5697 57.872C82.9663 57.4753 83.2837 57.107 83.5217 56.767L83.8957 56.155C83.7823 55.8943 83.6577 55.7187 83.5217 55.628C83.397 55.526 83.2893 55.475 83.1987 55.475C83.0513 55.475 82.8303 55.611 82.5357 55.883C82.2523 56.155 81.9463 56.5177 81.6177 56.971C81.289 57.4243 80.9773 57.923 80.6827 58.467C80.5693 58.6937 80.4673 58.9147 80.3767 59.13C80.2973 59.334 80.2577 59.436 80.2577 59.436ZM89.6075 60.592C89.5622 60.5693 89.5169 60.558 89.4715 60.558C89.4262 60.5467 89.3752 60.5353 89.3185 60.524C88.9899 60.4107 88.8085 60.184 88.7745 59.844C88.7405 59.4927 88.8029 59.0903 88.9615 58.637C89.1315 58.1837 89.3412 57.7417 89.5905 57.311H89.5055C89.2222 57.6283 88.9445 57.889 88.6725 58.093C88.4119 58.2857 88.1115 58.4387 87.7715 58.552C87.3182 58.3253 87.0179 58.0533 86.8705 57.736C86.7232 57.4073 86.7459 56.9993 86.9385 56.512C87.0745 56.172 87.2219 55.8433 87.3805 55.526C87.5392 55.1973 87.7149 54.88 87.9075 54.574C87.9869 54.5627 88.0662 54.557 88.1455 54.557C88.2249 54.5457 88.3042 54.5343 88.3835 54.523C88.5082 54.6023 88.5989 54.7043 88.6555 54.829C88.7235 54.9423 88.7802 55.0613 88.8255 55.186C88.7462 55.424 88.6442 55.6393 88.5195 55.832C88.3949 56.0247 88.2872 56.2343 88.1965 56.461C88.1285 56.6537 88.0775 56.7727 88.0435 56.818C88.0209 56.852 87.9982 56.8973 87.9755 56.954C87.9642 56.9993 87.9302 57.1353 87.8735 57.362C88.0435 57.4073 88.2362 57.3677 88.4515 57.243C88.6669 57.1183 88.8822 56.9597 89.0975 56.767C89.3129 56.5743 89.4999 56.41 89.6585 56.274C89.7945 56.1493 89.9532 55.985 90.1345 55.781C90.3272 55.5657 90.5142 55.3617 90.6955 55.169C90.8882 54.965 91.0582 54.8177 91.2055 54.727C91.3642 54.7723 91.4662 54.8007 91.5115 54.812C91.5569 54.8233 91.6022 54.8517 91.6475 54.897C91.6702 54.9197 91.6985 54.9537 91.7325 54.999C91.7665 55.0443 91.8119 55.1067 91.8685 55.186C91.8685 55.5487 91.7779 55.8603 91.5965 56.121C91.4152 56.3817 91.2225 56.6537 91.0185 56.937C90.8712 57.1523 90.7069 57.4413 90.5255 57.804C90.3442 58.1667 90.2082 58.4727 90.1175 58.722C90.0949 58.8127 90.0665 58.9033 90.0325 58.994C90.0099 59.0847 89.9815 59.1753 89.9475 59.266C89.9022 59.3793 89.8909 59.4587 89.9135 59.504C89.9362 59.5493 89.9419 59.623 89.9305 59.725C89.9079 59.793 89.9079 59.9007 89.9305 60.048C89.9532 60.1953 89.9702 60.3087 89.9815 60.388C89.9249 60.422 89.8625 60.456 89.7945 60.49C89.7265 60.5127 89.6642 60.5467 89.6075 60.592ZM91.8386 65.097C91.5893 65.1423 91.4193 65.148 91.3286 65.114C91.238 65.08 91.1133 65.0233 90.9546 64.944C90.83 64.8533 90.7336 64.7853 90.6656 64.74C90.5976 64.6947 90.5636 64.6493 90.5636 64.604C90.5636 64.57 90.575 64.5303 90.5976 64.485C90.6203 64.451 90.66 64.417 90.7166 64.383C90.7846 64.3603 90.8753 64.349 90.9886 64.349C91.068 64.3943 91.1983 64.417 91.3796 64.417C91.5723 64.417 91.6913 64.3943 91.7366 64.349C91.7366 64.349 91.7876 64.315 91.8896 64.247C92.003 64.1903 92.1503 64.145 92.3316 64.111C92.683 63.941 92.9946 63.7257 93.2666 63.465C93.5386 63.2043 93.7993 62.8643 94.0486 62.445C94.1506 62.2863 94.2583 62.0993 94.3716 61.884C94.485 61.68 94.5643 61.476 94.6096 61.272C94.7003 61.0453 94.8023 60.7393 94.9156 60.354C95.0403 59.9687 95.148 59.589 95.2386 59.215C95.3293 58.8297 95.3803 58.5407 95.3916 58.348C95.4596 57.7133 95.5673 57.1297 95.7146 56.597C95.8733 56.053 96.0093 55.4467 96.1226 54.778C96.1906 54.6193 96.2416 54.5287 96.2756 54.506C96.3096 54.472 96.3833 54.455 96.4966 54.455C96.6213 54.455 96.712 54.4663 96.7686 54.489C96.8366 54.5003 96.9103 54.5683 96.9896 54.693C97.103 54.9083 97.1426 55.1633 97.1086 55.458C97.086 55.7413 97.001 55.9907 96.8536 56.206C96.7403 56.3647 96.6383 56.614 96.5476 56.954C96.4683 57.2827 96.389 57.6963 96.3096 58.195C96.253 58.4443 96.1906 58.739 96.1226 59.079C96.066 59.4077 96.0036 59.776 95.9356 60.184C95.8903 60.2973 95.828 60.473 95.7486 60.711C95.6693 60.9377 95.6183 61.119 95.5956 61.255C95.5843 61.3003 95.5503 61.391 95.4936 61.527C95.437 61.663 95.3803 61.7933 95.3236 61.918C95.267 62.054 95.2273 62.1447 95.2046 62.19C94.7626 63.108 94.2583 63.8107 93.6916 64.298C93.125 64.7853 92.5073 65.0517 91.8386 65.097ZM93.1306 60.167C93.006 60.167 92.8756 60.099 92.7396 59.963C92.615 59.827 92.53 59.7193 92.4846 59.64C92.4393 59.5267 92.3826 59.419 92.3146 59.317C92.2466 59.215 92.1956 59.0903 92.1616 58.943C92.139 58.7957 92.1503 58.6143 92.1956 58.399C92.241 58.2517 92.3033 58.042 92.3826 57.77C92.4733 57.4867 92.5696 57.1807 92.6716 56.852C92.785 56.5233 92.8983 56.2003 93.0116 55.883C93.1363 55.5543 93.2496 55.2653 93.3516 55.016C93.4536 54.7553 93.5443 54.5683 93.6236 54.455C93.6916 54.3643 93.7653 54.3077 93.8446 54.285C93.9353 54.2623 94.026 54.2737 94.1166 54.319C94.2073 54.353 94.2866 54.4267 94.3546 54.54C94.4793 54.6987 94.5303 54.8347 94.5076 54.948C94.485 55.0613 94.383 55.2823 94.2016 55.611C94.1563 55.7357 94.0996 55.8717 94.0316 56.019C93.9636 56.155 93.9296 56.2457 93.9296 56.291C93.9183 56.3137 93.8956 56.393 93.8616 56.529C93.839 56.6537 93.8106 56.7727 93.7766 56.886C93.7426 56.9993 93.7086 57.056 93.6746 57.056C93.6293 57.1013 93.5783 57.2317 93.5216 57.447C93.465 57.651 93.414 57.8833 93.3686 58.144C93.3233 58.3933 93.295 58.6143 93.2836 58.807C93.2723 58.9883 93.2893 59.079 93.3346 59.079C93.686 59.079 94.0486 58.943 94.4226 58.671C94.808 58.399 95.1933 58.0023 95.5786 57.481L95.8676 58.688C95.709 58.7673 95.5616 58.8523 95.4256 58.943C95.2896 59.0223 95.165 59.1187 95.0516 59.232C95.0176 59.2773 94.9383 59.3397 94.8136 59.419C94.689 59.4983 94.5643 59.572 94.4396 59.64C94.3263 59.6967 94.2526 59.725 94.2186 59.725C94.2186 59.725 94.2016 59.7307 94.1676 59.742C94.145 59.742 94.1336 59.7647 94.1336 59.81C94.1336 59.8327 94.06 59.878 93.9126 59.946C93.7653 60.0027 93.6123 60.0537 93.4536 60.099C93.295 60.1443 93.1873 60.167 93.1306 60.167ZM99.0946 64.91C99.0833 64.9327 99.0323 64.91 98.9416 64.842C98.8623 64.774 98.7829 64.689 98.7036 64.587C98.6243 64.4963 98.5903 64.417 98.6016 64.349C98.5563 64.1903 98.5619 63.992 98.6186 63.754C98.6866 63.5273 98.8283 63.1873 99.0436 62.734C99.1569 62.5527 99.2589 62.3373 99.3496 62.088C99.4516 61.8387 99.5649 61.5893 99.6896 61.34C99.7463 61.238 99.8709 61.017 100.064 60.677C100.256 60.337 100.46 59.9517 100.676 59.521C100.902 59.0903 101.089 58.6823 101.237 58.297C100.942 58.603 100.67 58.9147 100.421 59.232C100.171 59.538 99.9389 59.7873 99.7236 59.98C99.5196 60.1727 99.3269 60.2633 99.1456 60.252C98.9983 60.218 98.8396 60.167 98.6696 60.099C98.5109 60.0197 98.4033 59.8837 98.3466 59.691C98.3013 59.4417 98.2843 59.1243 98.2956 58.739C98.3183 58.3537 98.3919 57.77 98.5166 56.988C98.6073 56.6027 98.6583 56.308 98.6696 56.104C98.6923 55.8887 98.6866 55.73 98.6526 55.628C98.6186 55.526 98.5563 55.4353 98.4656 55.356C98.3183 55.22 98.2389 55.101 98.2276 54.999C98.2276 54.8857 98.3069 54.7893 98.4656 54.71C98.7036 54.6533 98.8736 54.6363 98.9756 54.659C99.0776 54.6703 99.2023 54.761 99.3496 54.931C99.4403 55.0783 99.5196 55.22 99.5876 55.356C99.6669 55.4807 99.7066 55.7017 99.7066 56.019C99.7066 56.155 99.6839 56.3363 99.6386 56.563C99.6046 56.7897 99.5706 57.005 99.5366 57.209C99.5139 57.4017 99.4969 57.5377 99.4856 57.617C99.3723 58.0363 99.2986 58.399 99.2646 58.705C99.2419 59.011 99.2589 59.164 99.3156 59.164C99.5423 58.9827 99.7576 58.7787 99.9616 58.552C100.177 58.314 100.398 58.0477 100.625 57.753C100.863 57.447 101.123 57.1013 101.407 56.716C101.509 56.5233 101.611 56.3363 101.713 56.155C101.815 55.9737 101.9 55.7867 101.968 55.594C102.036 55.4467 102.104 55.3277 102.172 55.237C102.24 55.1463 102.296 55.0953 102.342 55.084C102.398 55.0613 102.466 55.067 102.546 55.101C102.636 55.135 102.716 55.1747 102.784 55.22C102.863 55.254 102.903 55.2823 102.903 55.305C102.914 55.3163 102.942 55.3277 102.988 55.339C103.033 55.3503 103.078 55.3617 103.124 55.373C103.18 55.373 103.209 55.39 103.209 55.424C103.209 55.4467 103.18 55.5203 103.124 55.645C103.078 55.7697 103.022 55.9113 102.954 56.07C102.897 56.2173 102.846 56.3533 102.801 56.478C102.755 56.5913 102.738 56.6593 102.75 56.682C102.772 56.7047 102.755 56.7897 102.699 56.937C102.642 57.073 102.574 57.226 102.495 57.396C102.427 57.566 102.364 57.719 102.308 57.855C102.194 58.229 102.064 58.603 101.917 58.977C101.769 59.3397 101.594 59.7023 101.39 60.065C101.322 60.201 101.22 60.4107 101.084 60.694C100.959 60.9773 100.834 61.255 100.71 61.527C100.596 61.8103 100.506 62.0257 100.438 62.173C100.392 62.2637 100.324 62.4053 100.234 62.598C100.154 62.802 100.064 63.023 99.9616 63.261C99.8709 63.499 99.7803 63.72 99.6896 63.924C99.5989 64.1393 99.5309 64.3037 99.4856 64.417C99.4629 64.6323 99.4119 64.791 99.3326 64.893C99.2873 64.893 99.2363 64.893 99.1796 64.893C99.1229 64.9043 99.0946 64.91 99.0946 64.91Z" fill="white"/>
</g>
<defs>
<clipPath id="clip0_42_2">
<rect width="115" height="115" fill="white"/>
</clipPath>
</defs>
</svg>
