<svg width="418" height="51" viewBox="0 0 418 51" fill="none" xmlns="http://www.w3.org/2000/svg">
<path d="M6.01401 40.024C5.47401 39.808 4.91601 39.574 4.34001 39.322C3.80001 39.07 3.27801 38.692 2.77401 38.188C2.30601 37.72 1.89201 37.054 1.53201 36.19C1.17201 35.146 0.920008 34.12 0.776008 33.112C0.668008 32.104 0.632008 30.934 0.668008 29.602C0.668008 27.73 0.794008 26.11 1.04601 24.742C1.33401 23.338 1.76601 21.916 2.34201 20.476C2.41401 20.368 2.54001 20.062 2.72001 19.558C2.93601 19.018 3.17001 18.442 3.42201 17.83C3.71001 17.218 3.92601 16.75 4.07001 16.426C4.35801 15.814 4.79001 15.004 5.36601 13.996C5.97801 12.952 6.62601 11.944 7.31001 10.972C8.35401 9.424 9.21801 8.2 9.90201 7.3C10.586 6.4 11.234 5.644 11.846 5.032C12.458 4.42 13.142 3.844 13.898 3.304C14.69 2.728 15.698 2.026 16.922 1.198C17.714 0.621998 18.578 0.315999 19.514 0.28C20.486 0.243998 21.386 0.459997 22.214 0.927998C23.042 1.36 23.654 2.008 24.05 2.872C24.446 3.628 24.644 4.546 24.644 5.626C24.644 6.67 24.482 7.786 24.158 8.974C23.834 10.126 23.384 11.224 22.808 12.268C22.232 13.312 21.566 14.176 20.81 14.86C20.342 15.292 19.91 15.454 19.514 15.346C19.154 15.238 18.722 14.95 18.218 14.482C17.894 13.87 17.714 13.51 17.678 13.402C17.678 13.294 17.75 13.222 17.894 13.186C18.11 12.934 18.398 12.502 18.758 11.89C19.118 11.278 19.478 10.63 19.838 9.946C20.198 9.226 20.45 8.65 20.594 8.218C20.882 6.706 21.08 5.644 21.188 5.032C21.296 4.384 21.188 3.898 20.864 3.574C20.72 3.43 20.504 3.376 20.216 3.412C19.964 3.448 19.532 3.628 18.92 3.952C18.092 4.312 17.012 5.122 15.68 6.382C14.348 7.606 13.124 8.974 12.008 10.486C10.568 12.394 9.36201 14.086 8.39001 15.562C7.41801 17.038 6.68001 18.55 6.17601 20.098C6.10401 20.242 5.97801 20.512 5.79801 20.908C5.65401 21.304 5.58201 21.502 5.58201 21.502C5.61801 21.646 5.56401 22.006 5.42001 22.582C5.27601 23.122 5.11401 23.59 4.93401 23.986C4.53801 25.642 4.30401 27.37 4.23201 29.17C4.16001 30.934 4.25001 32.5 4.50201 33.868C4.79001 35.236 5.20401 36.19 5.74401 36.73C6.21201 37.054 6.84201 37.162 7.63401 37.054C8.46201 36.946 9.39801 36.694 10.442 36.298C11.486 35.902 12.548 35.47 13.628 35.002C14.492 34.642 15.284 34.246 16.004 33.814C16.724 33.382 17.264 33.004 17.624 32.68C17.912 32.464 18.272 32.248 18.704 32.032C19.172 31.78 19.568 31.654 19.892 31.654C20.396 31.474 20.684 31.402 20.756 31.438C20.828 31.474 20.864 31.636 20.864 31.924C20.864 32.428 20.576 32.986 20 33.598C19.46 34.21 18.758 34.768 17.894 35.272C17.606 35.56 17.228 35.866 16.76 36.19C16.292 36.514 15.806 36.766 15.302 36.946C14.546 37.522 13.61 38.08 12.494 38.62C11.378 39.16 10.244 39.574 9.09201 39.862C7.97601 40.15 6.95001 40.204 6.01401 40.024ZM26.2868 35.056C26.1428 34.768 25.9628 34.552 25.7468 34.408C25.5308 34.228 25.4228 34.066 25.4228 33.922C25.4228 33.778 25.4048 33.634 25.3688 33.49C25.3688 33.31 25.2968 33.148 25.1528 33.004C24.9728 32.788 24.9908 32.302 25.2068 31.546C25.4228 30.754 25.7828 29.8 26.2868 28.684C26.7908 27.532 27.3848 26.326 28.0688 25.066C28.3568 24.778 28.6448 24.4 28.9328 23.932C29.2208 23.464 29.4368 23.158 29.5808 23.014C29.5808 22.87 29.6348 22.744 29.7428 22.636C29.8508 22.492 29.9768 22.42 30.1208 22.42V22.096C30.1208 21.916 30.2828 21.61 30.6068 21.178C30.9668 20.746 31.3988 20.278 31.9028 19.774C32.4068 19.234 32.9288 18.73 33.4688 18.262C34.0088 17.758 34.4588 17.398 34.8188 17.182C35.5748 16.678 36.3488 16.372 37.1408 16.264C37.9688 16.156 38.6708 16.336 39.2468 16.804C39.3548 16.912 39.5348 17.092 39.7868 17.344C40.0388 17.596 40.3268 17.884 40.6508 18.208C41.0108 18.496 41.3708 18.802 41.7308 19.126L43.7288 20.908L42.7568 23.608C42.2888 25.048 42.1628 26.308 42.3788 27.388C42.6308 28.468 42.9908 29.404 43.4588 30.196C43.6388 30.592 43.9988 30.97 44.5388 31.33C45.1148 31.69 45.6548 31.906 46.1588 31.978C46.4468 32.014 46.7168 32.122 46.9688 32.302C47.2208 32.482 47.3468 32.77 47.3468 33.166C47.3468 33.526 47.2748 33.814 47.1308 34.03C46.9868 34.246 46.7348 34.39 46.3748 34.462C45.1868 34.606 44.0708 34.318 43.0268 33.598C42.0188 32.878 41.0828 31.69 40.2188 30.034C40.0748 29.818 39.8768 29.422 39.6248 28.846C39.4088 28.234 39.2828 27.838 39.2468 27.658C39.1028 27.838 38.8328 28.18 38.4368 28.684C38.0408 29.152 37.7348 29.494 37.5188 29.71C34.9628 32.302 32.7488 34.048 30.8768 34.948C29.0408 35.812 27.5108 35.848 26.2868 35.056ZM28.2308 32.032C28.2308 32.284 28.6088 32.284 29.3648 32.032C30.1568 31.744 31.0028 31.24 31.9028 30.52C33.1268 29.476 34.3508 28.324 35.5748 27.064C36.8348 25.804 37.8428 24.634 38.5988 23.554L39.7868 21.61C39.4268 20.782 39.0308 20.224 38.5988 19.936C38.2028 19.612 37.8608 19.45 37.5728 19.45C37.1048 19.45 36.4028 19.882 35.4668 20.746C34.5668 21.61 33.5948 22.762 32.5508 24.202C31.5068 25.642 30.5168 27.226 29.5808 28.954C29.2208 29.674 28.8968 30.376 28.6088 31.06C28.3568 31.708 28.2308 32.032 28.2308 32.032ZM48.7938 36.784C48.6498 36.712 48.4518 36.568 48.1998 36.352C47.9838 36.136 47.7858 35.92 47.6058 35.704C47.4978 35.596 47.4078 35.506 47.3358 35.434C47.2638 35.326 47.1918 35.254 47.1198 35.218C47.1198 34.966 47.1738 34.786 47.2818 34.678C47.4258 34.57 47.5698 34.444 47.7138 34.3C47.8578 34.084 48.0918 33.976 48.4158 33.976C48.7398 33.976 48.9918 33.886 49.1718 33.706C49.8198 33.238 50.4858 32.752 51.1698 32.248C51.8538 31.744 52.4298 31.15 52.8978 30.466C53.4018 29.746 53.9058 28.972 54.4098 28.144C54.9138 27.316 55.3998 26.506 55.8678 25.714C56.0118 25.462 56.2458 25.012 56.5698 24.364C56.8938 23.716 57.1998 23.086 57.4878 22.474C57.8118 21.826 57.9918 21.376 58.0278 21.124C57.7038 21.016 57.3978 20.926 57.1098 20.854C56.8578 20.746 56.6058 20.656 56.3538 20.584C56.0298 20.08 55.8498 19.792 55.8138 19.72C55.7778 19.612 55.7598 19.27 55.7598 18.694C55.7598 18.262 55.9938 17.992 56.4618 17.884C57.5058 17.632 58.4238 17.47 59.2158 17.398C60.0438 17.326 60.8538 17.182 61.6458 16.966C62.1498 16.822 62.7618 16.768 63.4818 16.804C64.2018 16.84 64.9218 17.002 65.6418 17.29C65.9658 17.434 66.2358 17.614 66.4518 17.83C66.6678 18.046 66.8658 18.298 67.0458 18.586C67.5138 19.234 67.7478 19.792 67.7478 20.26C67.7838 20.728 67.7658 21.178 67.6938 21.61C67.6218 22.042 67.6758 22.528 67.8558 23.068C67.6038 24.04 67.3518 24.904 67.0998 25.66C66.8478 26.38 66.6138 27.064 66.3978 27.712C66.1818 28.324 65.9838 28.9 65.8038 29.44C65.6238 29.98 65.4798 30.52 65.3718 31.06C65.2278 31.636 65.0478 32.212 64.8318 32.788C64.6158 33.364 64.4538 33.958 64.3458 34.57C64.2738 35.038 64.0578 35.38 63.6978 35.596C63.3738 35.812 63.0138 36.01 62.6178 36.19C62.4738 36.226 62.2218 36.19 61.8618 36.082C61.5378 35.938 61.2318 35.74 60.9438 35.488C60.8358 35.092 60.7998 34.732 60.8358 34.408C60.8718 34.084 60.9438 33.76 61.0518 33.436C61.1598 33.148 61.3578 32.5 61.6458 31.492C61.9338 30.484 62.2578 29.35 62.6178 28.09C62.9778 26.83 63.3198 25.66 63.6438 24.58C63.9678 23.5 64.1838 22.744 64.2918 22.312C64.4718 21.736 64.5258 21.304 64.4538 21.016C64.4178 20.728 64.3638 20.458 64.2918 20.206C63.5358 19.918 63.0138 19.828 62.7258 19.936C62.4738 20.008 62.1498 20.08 61.7538 20.152C61.5738 20.296 61.4298 20.458 61.3218 20.638C61.2138 20.818 61.1418 20.998 61.1058 21.178C60.7098 22.222 60.3678 23.05 60.0798 23.662C59.8278 24.274 59.5758 24.832 59.3238 25.336C59.0718 25.804 58.7838 26.326 58.4598 26.902C58.1718 27.478 57.7938 28.27 57.3258 29.278C57.0378 29.926 56.6778 30.52 56.2458 31.06C55.8498 31.6 55.4898 32.176 55.1658 32.788L54.5718 33.544C54.6078 33.544 54.4638 33.688 54.1398 33.976C53.8158 34.264 53.4918 34.552 53.1678 34.84C52.8798 35.128 52.7358 35.272 52.7358 35.272L51.0618 36.568C50.8818 36.712 50.5758 36.784 50.1438 36.784C49.7118 36.784 49.2618 36.784 48.7938 36.784ZM71.7177 35.002C71.6097 34.858 71.5017 34.678 71.3937 34.462C71.3217 34.246 71.2857 34.066 71.2857 33.922C71.2857 33.85 71.2677 33.76 71.2317 33.652C71.2317 33.544 71.1597 33.49 71.0157 33.49C70.9077 33.382 70.9797 32.968 71.2317 32.248C71.5197 31.492 71.8797 30.628 72.3117 29.656C72.7797 28.684 73.2477 27.748 73.7157 26.848C74.2197 25.912 74.6337 25.174 74.9577 24.634C75.1377 24.526 75.2457 24.382 75.2817 24.202C75.3537 23.986 75.3537 23.878 75.2817 23.878C75.2817 23.878 75.3717 23.716 75.5517 23.392C75.7677 23.032 75.9297 22.798 76.0377 22.69C76.3257 22.186 76.5417 21.682 76.6857 21.178C76.8297 20.638 76.8657 20.188 76.7937 19.828C76.6497 19.648 76.4877 19.594 76.3077 19.666C76.1277 19.738 76.0377 19.774 76.0377 19.774C75.8937 19.81 75.6777 19.882 75.3897 19.99C75.1377 20.062 74.9037 20.17 74.6877 20.314C73.8597 20.89 73.3017 21.16 73.0137 21.124C72.7257 21.052 72.4017 20.584 72.0417 19.72C71.8977 19.324 71.8437 19.036 71.8797 18.856C71.9157 18.676 72.0597 18.478 72.3117 18.262C72.5997 18.01 72.8697 17.848 73.1217 17.776C73.3737 17.668 73.5717 17.56 73.7157 17.452C74.1117 17.2 74.4357 17.02 74.6877 16.912C74.9757 16.804 75.1917 16.732 75.3357 16.696C76.2717 16.408 77.0637 16.354 77.7117 16.534C78.3597 16.714 78.8457 17.182 79.1697 17.938C79.6737 18.55 79.9257 19.252 79.9257 20.044C79.9257 20.8 79.6737 21.682 79.1697 22.69L78.6297 23.5C78.4497 23.86 78.4137 24.04 78.5217 24.04C78.6657 24.04 78.8277 23.914 79.0077 23.662C79.1157 23.518 79.3317 23.302 79.6557 23.014C79.9797 22.726 80.1957 22.582 80.3037 22.582C80.3037 22.582 80.3397 22.564 80.4117 22.528C80.5197 22.492 80.5737 22.348 80.5737 22.096C80.6817 21.988 80.7897 21.88 80.8977 21.772C81.0417 21.664 81.1137 21.61 81.1137 21.61C81.2577 21.61 81.5277 21.448 81.9237 21.124C82.3557 20.764 82.8597 20.35 83.4357 19.882C83.8317 19.594 84.1917 19.45 84.5157 19.45C85.3437 19.198 86.0097 19.468 86.5137 20.26C87.0537 21.052 87.3237 22.078 87.3237 23.338L86.1897 26.254L88.1337 23.878C88.3497 23.59 88.5657 23.338 88.7817 23.122C89.0337 22.906 89.2497 22.726 89.4297 22.582C89.5017 22.33 89.6097 22.186 89.7537 22.15C89.8977 22.114 89.9697 22.096 89.9697 22.096C89.9697 22.096 90.0057 22.096 90.0777 22.096C90.1497 22.06 90.1857 21.988 90.1857 21.88C90.3657 21.736 90.5637 21.61 90.7797 21.502C90.9957 21.358 91.1397 21.214 91.2117 21.07C91.8237 20.818 92.3817 20.782 92.8857 20.962C93.3897 21.106 93.8217 21.556 94.1817 22.312C94.4337 22.744 94.5777 23.122 94.6137 23.446C94.6497 23.77 94.6677 24.256 94.6677 24.904C94.5957 25.444 94.5237 25.876 94.4517 26.2C94.4157 26.488 94.3797 26.794 94.3437 27.118C94.3077 27.442 94.2537 27.892 94.1817 28.468C94.0377 28.756 93.9477 29.062 93.9117 29.386C93.9117 29.71 93.9117 30.016 93.9117 30.304C93.9117 30.772 93.9297 31.096 93.9657 31.276C94.0017 31.42 94.1457 31.492 94.3977 31.492C94.9017 31.384 95.5857 31.132 96.4497 30.736C97.3497 30.304 98.0157 29.89 98.4477 29.494C98.9877 28.99 99.4557 28.738 99.8517 28.738C100.284 28.702 100.554 28.9 100.662 29.332C100.734 29.476 100.608 29.8 100.284 30.304C99.9957 30.808 99.6537 31.294 99.2577 31.762C98.8977 32.23 98.6277 32.464 98.4477 32.464C98.3397 32.464 98.2137 32.572 98.0697 32.788C97.9257 32.968 97.7637 33.112 97.5837 33.22C97.3317 33.472 97.0797 33.706 96.8277 33.922C96.6117 34.138 96.3597 34.246 96.0717 34.246C95.9277 34.246 95.7477 34.3 95.5317 34.408C95.3517 34.48 95.1357 34.516 94.8837 34.516C94.5237 34.624 93.9657 34.57 93.2097 34.354C92.4897 34.138 92.0217 33.634 91.8057 32.842C91.6617 32.446 91.5357 31.816 91.4277 30.952C91.3197 30.052 91.3377 29.152 91.4817 28.252C91.6257 27.604 91.7157 27.01 91.7517 26.47C91.7877 25.93 91.8597 25.552 91.9677 25.336C91.9677 25.228 91.9677 24.976 91.9677 24.58C91.9677 24.148 91.9137 23.932 91.8057 23.932C91.6617 23.932 91.3197 24.202 90.7797 24.742C90.2757 25.246 89.6637 25.894 88.9437 26.686C88.2597 27.478 87.5757 28.306 86.8917 29.17C86.2077 30.034 85.6497 30.808 85.2177 31.492C84.8937 31.888 84.6057 32.374 84.3537 32.95C84.1017 33.526 83.9217 33.85 83.8137 33.922C83.5617 34.21 83.2557 34.246 82.8957 34.03C82.5717 33.814 82.2657 33.472 81.9777 33.004C81.8697 32.788 81.7977 32.608 81.7617 32.464C81.7257 32.284 81.7257 32.05 81.7617 31.762C81.8337 31.438 81.9597 30.97 82.1397 30.358C82.3557 29.746 82.6437 28.882 83.0037 27.766C83.3997 26.542 83.7417 25.444 84.0297 24.472C84.3537 23.464 84.5157 22.96 84.5157 22.96C84.5157 22.816 84.2457 22.96 83.7057 23.392C83.1657 23.788 82.5357 24.292 81.8157 24.904C81.4917 25.3 80.9517 25.894 80.1957 26.686C79.4397 27.478 78.6117 28.378 77.7117 29.386C76.8117 30.394 75.9477 31.456 75.1197 32.572C74.0757 34.048 73.3377 34.948 72.9057 35.272C72.5097 35.596 72.1137 35.506 71.7177 35.002ZM107.86 35.434C107.572 35.506 107.194 35.542 106.726 35.542C106.258 35.506 105.844 35.452 105.484 35.38C105.16 35.272 104.998 35.164 104.998 35.056C104.998 34.876 104.908 34.786 104.728 34.786C104.728 34.786 104.638 34.714 104.458 34.57C104.314 34.426 104.08 34.282 103.756 34.138C103.432 33.634 103.27 33.094 103.27 32.518C103.27 31.906 103.432 30.952 103.756 29.656C103.864 28.756 104.206 27.712 104.782 26.524C105.394 25.3 106.132 24.058 106.996 22.798C107.86 21.538 108.76 20.404 109.696 19.396C110.668 18.388 111.55 17.65 112.342 17.182C112.846 16.678 113.458 16.408 114.178 16.372C114.898 16.336 115.582 16.498 116.23 16.858C116.59 17.038 116.95 17.326 117.31 17.722C117.67 18.118 118.012 18.55 118.336 19.018C118.66 19.486 118.93 19.954 119.146 20.422C119.254 20.818 119.308 21.178 119.308 21.502C119.344 21.79 119.344 22.15 119.308 22.582C119.308 23.014 119.254 23.662 119.146 24.526C118.966 25.174 118.804 25.966 118.66 26.902C118.552 27.838 118.498 28.648 118.498 29.332C118.426 30.016 118.498 30.502 118.714 30.79C118.966 31.078 119.326 31.096 119.794 30.844C120.226 30.628 120.64 30.538 121.036 30.574C121.432 30.574 121.738 30.682 121.954 30.898C122.206 31.114 122.332 31.438 122.332 31.87C122.332 32.302 122.116 32.752 121.684 33.22C121.288 33.652 120.784 34.03 120.172 34.354C119.596 34.642 119.038 34.786 118.498 34.786C118.102 34.786 117.724 34.552 117.364 34.084C117.004 33.58 116.68 32.986 116.392 32.302C116.14 31.582 115.906 30.898 115.69 30.25L115.366 29.008L113.044 31.222C112.576 31.726 112.108 32.194 111.64 32.626C111.208 33.022 110.938 33.31 110.83 33.49C110.65 33.814 110.308 34.138 109.804 34.462C109.336 34.786 108.688 35.11 107.86 35.434ZM108.022 32.248C108.634 31.888 109.336 31.366 110.128 30.682C110.92 29.962 111.694 29.188 112.45 28.36C113.206 27.496 113.836 26.704 114.34 25.984C114.952 25.156 115.42 24.382 115.744 23.662C116.068 22.942 116.302 22.258 116.446 21.61C116.302 21.214 116.068 20.8 115.744 20.368C115.42 19.9 115.132 19.648 114.88 19.612C114.088 19.612 113.242 20.116 112.342 21.124C111.478 22.096 110.632 23.158 109.804 24.31C109.66 24.49 109.462 24.778 109.21 25.174C108.958 25.57 108.706 25.948 108.454 26.308C108.238 26.632 108.094 26.848 108.022 26.956C107.914 27.1 107.698 27.514 107.374 28.198C107.086 28.846 106.798 29.512 106.51 30.196C106.222 30.844 106.078 31.276 106.078 31.492C106.078 31.708 106.096 31.942 106.132 32.194C106.204 32.446 106.384 32.608 106.672 32.68C106.96 32.752 107.41 32.608 108.022 32.248ZM127.752 35.758C127.5 35.686 127.158 35.614 126.726 35.542C126.294 35.47 125.898 35.344 125.538 35.164C125.214 34.948 125.052 34.678 125.052 34.354C125.052 34.066 125.07 33.814 125.106 33.598C125.178 33.346 125.322 33.13 125.538 32.95C125.574 32.878 125.592 32.824 125.592 32.788C125.592 32.752 125.61 32.716 125.646 32.68C125.646 32.5 125.61 32.338 125.538 32.194C125.466 32.05 125.466 31.87 125.538 31.654C125.682 31.258 125.79 30.934 125.862 30.682C125.97 30.394 126.024 30.034 126.024 29.602C126.024 29.53 126.024 29.458 126.024 29.386C126.024 29.278 126.042 29.188 126.078 29.116C126.366 28.324 126.6 27.514 126.78 26.686C126.96 25.858 127.23 25.066 127.59 24.31C128.022 23.374 128.58 22.15 129.264 20.638C129.948 19.09 130.524 17.668 130.992 16.372C131.136 15.976 131.298 15.724 131.478 15.616C131.694 15.472 131.928 15.418 132.18 15.454C132.612 15.49 133.044 15.742 133.476 16.21C133.908 16.642 134.232 17.02 134.448 17.344C134.088 18.028 133.656 18.838 133.152 19.774C132.684 20.674 132.234 21.556 131.802 22.42C131.406 23.248 131.118 23.932 130.938 24.472C131.442 24.508 132.036 24.508 132.72 24.472C133.44 24.4 134.142 24.4 134.826 24.472C135.618 24.544 136.32 24.544 136.932 24.472C137.544 24.4 138.228 24.31 138.984 24.202C139.164 23.662 139.344 23.05 139.524 22.366C139.74 21.682 139.956 20.98 140.172 20.26C140.424 19.54 140.73 18.874 141.09 18.262C141.45 17.65 141.9 17.182 142.44 16.858C142.728 16.786 142.944 16.786 143.088 16.858C143.232 16.894 143.43 17.002 143.682 17.182C144.15 17.542 144.492 17.83 144.708 18.046C144.96 18.226 145.05 18.442 144.978 18.694C144.906 18.946 144.672 19.36 144.276 19.936C144.024 20.332 143.844 20.8 143.736 21.34C143.628 21.844 143.43 22.276 143.142 22.636C143.07 22.708 142.926 23.032 142.71 23.608C142.494 24.184 142.242 24.886 141.954 25.714C141.666 26.542 141.378 27.37 141.09 28.198C140.802 29.026 140.55 29.746 140.334 30.358C140.154 30.97 140.064 31.33 140.064 31.438C140.028 31.906 139.956 32.392 139.848 32.896C139.74 33.364 139.686 33.85 139.686 34.354C139.686 34.642 139.596 34.858 139.416 35.002C139.272 35.11 139.074 35.164 138.822 35.164C138.462 35.164 138.066 35.074 137.634 34.894C137.202 34.714 136.878 34.552 136.662 34.408C136.518 34.3 136.392 34.12 136.284 33.868C136.212 33.616 136.158 33.4 136.122 33.22C136.338 32.32 136.59 31.474 136.878 30.682C137.202 29.854 137.49 29.008 137.742 28.144C137.814 28 137.85 27.856 137.85 27.712C137.85 27.568 137.814 27.424 137.742 27.28C136.554 27.1 135.348 27.064 134.124 27.172C132.9 27.28 131.694 27.37 130.506 27.442C130.326 27.622 130.11 28.054 129.858 28.738C129.642 29.386 129.444 30.07 129.264 30.79C129.084 31.474 128.94 31.996 128.832 32.356C128.868 32.608 128.832 32.968 128.724 33.436C128.616 33.904 128.472 34.372 128.292 34.84C128.112 35.272 127.932 35.578 127.752 35.758ZM150.651 35.218C150.219 35.29 149.751 35.218 149.247 35.002C148.743 34.786 148.293 34.48 147.897 34.084C147.537 33.688 147.303 33.274 147.195 32.842C147.051 32.086 147.141 31.15 147.465 30.034C147.825 28.882 148.329 27.676 148.977 26.416C149.661 25.12 150.417 23.878 151.245 22.69C152.109 21.502 152.991 20.476 153.891 19.612C154.827 18.712 155.691 18.1 156.483 17.776C156.879 17.524 157.185 17.362 157.401 17.29C157.653 17.182 157.905 17.164 158.157 17.236C158.445 17.308 158.859 17.488 159.399 17.776C159.903 17.92 160.281 18.082 160.533 18.262C160.785 18.442 161.109 18.802 161.505 19.342C161.793 19.882 162.009 20.422 162.153 20.962C162.297 21.502 162.423 22.114 162.531 22.798C162.819 23.698 162.927 24.292 162.855 24.58C162.783 24.832 162.675 25.03 162.531 25.174C162.243 25.534 162.171 25.714 162.315 25.714C162.315 25.714 162.297 25.786 162.261 25.93C162.261 26.038 162.189 26.218 162.045 26.47C161.793 27.262 161.595 28.09 161.451 28.954C161.343 29.782 161.361 30.466 161.505 31.006C161.793 31.798 162.315 32.266 163.071 32.41C163.827 32.554 164.601 32.23 165.393 31.438C165.789 31.15 166.167 30.898 166.527 30.682C166.887 30.43 167.067 30.448 167.067 30.736C167.067 30.736 167.121 30.79 167.229 30.898C167.337 30.97 167.463 31.006 167.607 31.006C167.787 31.006 167.895 31.078 167.931 31.222C168.003 31.366 168.003 31.564 167.931 31.816C167.895 32.032 167.787 32.284 167.607 32.572C167.067 33.112 166.797 33.472 166.797 33.652C166.797 33.652 166.725 33.724 166.581 33.868C166.473 33.976 166.275 34.156 165.987 34.408C165.339 34.804 164.511 35.002 163.503 35.002C162.531 35.002 161.775 34.804 161.235 34.408C160.695 34.012 160.191 33.472 159.723 32.788C159.291 32.104 159.003 31.51 158.859 31.006L158.589 30.466L157.023 31.492C156.627 31.888 156.195 32.266 155.727 32.626C155.295 32.986 155.007 33.238 154.863 33.382C154.755 33.526 154.629 33.652 154.485 33.76C154.377 33.868 154.251 33.922 154.107 33.922C153.963 33.922 153.837 33.922 153.729 33.922C153.621 33.922 153.567 33.922 153.567 33.922C153.567 34.066 153.387 34.246 153.027 34.462C152.703 34.678 152.307 34.858 151.839 35.002C151.407 35.146 151.011 35.218 150.651 35.218ZM150.111 32.302C150.327 32.302 150.705 32.14 151.245 31.816C151.821 31.456 152.451 31.042 153.135 30.574C153.855 30.106 154.485 29.638 155.025 29.17C155.601 28.702 155.997 28.342 156.213 28.09C156.357 27.946 156.591 27.712 156.915 27.388C157.239 27.028 157.527 26.722 157.779 26.47C158.607 25.534 159.183 24.508 159.507 23.392C159.831 22.24 159.795 21.34 159.399 20.692C159.255 20.296 159.075 20.08 158.859 20.044C158.643 20.008 158.193 20.134 157.509 20.422C157.077 20.674 156.537 21.16 155.889 21.88C155.277 22.564 154.611 23.374 153.891 24.31C153.207 25.21 152.559 26.146 151.947 27.118C151.335 28.09 150.831 28.99 150.435 29.818C150.039 30.646 149.841 31.294 149.841 31.762C149.841 31.906 149.877 32.032 149.949 32.14C150.057 32.248 150.111 32.302 150.111 32.302ZM171.18 34.354C170.784 34.102 170.424 33.778 170.1 33.382C169.776 32.95 169.614 32.41 169.614 31.762C169.614 31.402 169.686 30.79 169.83 29.926C169.974 29.062 170.172 28.09 170.424 27.01C170.676 25.93 170.928 24.922 171.18 23.986C171.54 23.338 171.846 22.69 172.098 22.042C172.35 21.394 172.476 20.998 172.476 20.854C172.548 20.422 172.638 19.918 172.746 19.342C172.89 18.766 173.034 18.244 173.178 17.776C173.322 17.308 173.43 17.038 173.502 16.966C173.682 16.786 173.898 16.678 174.15 16.642C174.402 16.57 174.654 16.606 174.906 16.75C175.194 16.858 175.41 17.092 175.554 17.452C175.95 17.884 176.148 18.406 176.148 19.018C176.148 19.594 175.95 20.458 175.554 21.61C175.23 22.33 174.906 23.176 174.582 24.148C174.258 25.12 173.97 26.02 173.718 26.848C173.502 27.64 173.376 28.18 173.34 28.468L172.26 28.792C172.872 28.216 173.448 27.622 173.988 27.01C174.528 26.362 174.924 25.858 175.176 25.498C175.788 24.67 176.31 23.986 176.742 23.446C177.21 22.87 177.804 22.186 178.524 21.394C179.244 20.566 179.946 20.062 180.63 19.882C181.35 19.666 181.908 19.558 182.304 19.558C183.096 19.702 183.726 20.116 184.194 20.8C184.698 21.448 185.022 22.42 185.166 23.716C185.166 24.22 185.112 24.814 185.004 25.498C184.932 26.182 184.896 26.524 184.896 26.524C184.896 26.524 185.184 26.146 185.76 25.39C186.372 24.634 187.182 23.806 188.19 22.906C188.874 22.402 189.54 22.114 190.188 22.042C190.836 21.934 191.412 22.15 191.916 22.69C192.852 23.194 193.464 23.968 193.752 25.012C194.04 26.02 194.112 27.316 193.968 28.9C193.86 29.836 193.842 30.538 193.914 31.006C193.986 31.438 194.094 31.87 194.238 32.302C194.526 32.446 194.58 32.752 194.4 33.22C194.22 33.652 194.004 33.868 193.752 33.868C193.392 33.868 192.978 33.796 192.51 33.652C192.078 33.508 191.682 33.274 191.322 32.95C190.998 32.59 190.836 32.104 190.836 31.492V28.144C190.836 27.352 190.8 26.704 190.728 26.2C190.692 25.696 190.602 25.39 190.458 25.282C190.062 25.066 189.486 25.3 188.73 25.984C187.974 26.668 187.164 27.586 186.3 28.738C185.436 29.89 184.626 31.078 183.87 32.302C183.186 33.418 182.754 34.066 182.574 34.246C182.43 34.39 182.16 34.336 181.764 34.084C180.972 33.832 180.468 33.49 180.252 33.058C180.072 32.59 180.054 32.068 180.198 31.492C180.378 30.88 180.594 30.052 180.846 29.008C181.134 27.964 181.404 26.956 181.656 25.984C181.908 24.976 182.07 24.256 182.142 23.824C181.998 23.536 181.746 23.446 181.386 23.554C181.062 23.626 180.72 23.788 180.36 24.04C179.928 24.328 179.406 24.868 178.794 25.66C178.182 26.452 177.552 27.37 176.904 28.414C176.472 29.098 176.022 29.782 175.554 30.466C175.086 31.114 174.654 31.69 174.258 32.194C173.862 32.698 173.52 33.076 173.232 33.328C172.728 34.12 172.386 34.552 172.206 34.624C172.026 34.696 171.684 34.606 171.18 34.354ZM217.942 27.982C217.726 27.982 217.456 27.982 217.132 27.982C216.844 27.946 216.538 27.874 216.214 27.766C215.674 27.766 215.314 27.73 215.134 27.658C214.954 27.55 214.792 27.37 214.648 27.118C214.324 26.578 214.306 26.218 214.594 26.038C214.882 25.822 215.638 25.642 216.862 25.498C217.69 25.354 218.464 25.264 219.184 25.228C219.904 25.156 220.588 25.102 221.236 25.066C221.92 25.03 222.532 25.012 223.072 25.012C223.9 25.012 224.494 25.03 224.854 25.066C225.214 25.066 225.556 25.264 225.88 25.66C226.348 26.2 226.51 26.704 226.366 27.172C226.258 27.604 225.808 27.784 225.016 27.712C224.764 27.748 224.278 27.784 223.558 27.82C222.838 27.856 221.866 27.874 220.642 27.874C220.318 27.874 219.958 27.892 219.562 27.928C219.166 27.964 218.626 27.982 217.942 27.982ZM213.73 36.19C213.262 36.19 212.884 36.1 212.596 35.92C212.344 35.74 212.02 35.488 211.624 35.164C210.94 34.444 210.454 33.76 210.166 33.112C209.878 32.428 209.788 31.78 209.896 31.168C210.004 30.88 210.04 30.61 210.004 30.358C210.004 30.07 210.004 29.926 210.004 29.926C209.824 29.746 209.77 29.638 209.842 29.602C209.914 29.53 209.986 29.422 210.058 29.278C210.274 29.278 210.346 29.08 210.274 28.684C210.202 28.396 210.346 27.766 210.706 26.794C211.066 25.822 211.516 24.904 212.056 24.04C212.272 23.68 212.596 23.212 213.028 22.636C213.46 22.024 213.928 21.43 214.432 20.854C214.972 20.242 215.458 19.756 215.89 19.396C216.79 18.64 217.582 18.082 218.266 17.722C218.95 17.362 219.688 17.092 220.48 16.912C221.272 16.732 221.812 16.642 222.1 16.642C222.424 16.642 222.856 16.93 223.396 17.506C224.224 17.866 224.818 18.298 225.178 18.802C225.574 19.306 225.826 20.044 225.934 21.016C226.042 22.096 225.952 23.338 225.664 24.742C225.412 26.11 224.566 27.82 223.126 29.872C222.226 31.168 221.398 32.14 220.642 32.788C219.886 33.4 218.986 34.012 217.942 34.624C217.186 35.128 216.502 35.506 215.89 35.758C215.278 35.974 214.558 36.118 213.73 36.19ZM218.914 30.466C219.778 29.494 220.462 28.576 220.966 27.712C221.506 26.848 222.01 25.75 222.478 24.418C222.622 24.022 222.712 23.536 222.748 22.96C222.784 22.348 222.766 21.79 222.694 21.286C222.658 20.746 222.532 20.44 222.316 20.368C221.884 20.116 221.362 20.044 220.75 20.152C220.138 20.224 219.472 20.566 218.752 21.178C217.636 22.114 216.664 23.284 215.836 24.688C215.008 26.056 214.198 27.622 213.406 29.386C212.866 30.682 212.74 31.726 213.028 32.518C213.352 33.274 214.018 33.544 215.026 33.328C216.07 33.076 217.366 32.122 218.914 30.466ZM230.77 34.354C230.374 34.102 230.014 33.778 229.69 33.382C229.366 32.95 229.204 32.41 229.204 31.762C229.204 31.402 229.276 30.79 229.42 29.926C229.564 29.062 229.762 28.09 230.014 27.01C230.266 25.93 230.518 24.922 230.77 23.986C231.13 23.338 231.436 22.69 231.688 22.042C231.94 21.394 232.066 20.998 232.066 20.854C232.138 20.422 232.228 19.918 232.336 19.342C232.48 18.766 232.624 18.244 232.768 17.776C232.912 17.308 233.02 17.038 233.092 16.966C233.272 16.786 233.488 16.678 233.74 16.642C233.992 16.57 234.244 16.606 234.496 16.75C234.784 16.858 235 17.092 235.144 17.452C235.54 17.884 235.738 18.406 235.738 19.018C235.738 19.594 235.54 20.458 235.144 21.61C234.82 22.33 234.496 23.176 234.172 24.148C233.848 25.12 233.56 26.02 233.308 26.848C233.092 27.64 232.966 28.18 232.93 28.468L231.85 28.792C232.462 28.216 233.038 27.622 233.578 27.01C234.118 26.362 234.514 25.858 234.766 25.498C235.378 24.67 235.9 23.986 236.332 23.446C236.8 22.87 237.394 22.186 238.114 21.394C238.834 20.566 239.536 20.062 240.22 19.882C240.94 19.666 241.498 19.558 241.894 19.558C242.686 19.702 243.316 20.116 243.784 20.8C244.288 21.448 244.612 22.42 244.756 23.716C244.756 24.22 244.702 24.814 244.594 25.498C244.522 26.182 244.486 26.524 244.486 26.524C244.486 26.524 244.774 26.146 245.35 25.39C245.962 24.634 246.772 23.806 247.78 22.906C248.464 22.402 249.13 22.114 249.778 22.042C250.426 21.934 251.002 22.15 251.506 22.69C252.442 23.194 253.054 23.968 253.342 25.012C253.63 26.02 253.702 27.316 253.558 28.9C253.45 29.836 253.432 30.538 253.504 31.006C253.576 31.438 253.684 31.87 253.828 32.302C254.116 32.446 254.17 32.752 253.99 33.22C253.81 33.652 253.594 33.868 253.342 33.868C252.982 33.868 252.568 33.796 252.1 33.652C251.668 33.508 251.272 33.274 250.912 32.95C250.588 32.59 250.426 32.104 250.426 31.492V28.144C250.426 27.352 250.39 26.704 250.318 26.2C250.282 25.696 250.192 25.39 250.048 25.282C249.652 25.066 249.076 25.3 248.32 25.984C247.564 26.668 246.754 27.586 245.89 28.738C245.026 29.89 244.216 31.078 243.46 32.302C242.776 33.418 242.344 34.066 242.164 34.246C242.02 34.39 241.75 34.336 241.354 34.084C240.562 33.832 240.058 33.49 239.842 33.058C239.662 32.59 239.644 32.068 239.788 31.492C239.968 30.88 240.184 30.052 240.436 29.008C240.724 27.964 240.994 26.956 241.246 25.984C241.498 24.976 241.66 24.256 241.732 23.824C241.588 23.536 241.336 23.446 240.976 23.554C240.652 23.626 240.31 23.788 239.95 24.04C239.518 24.328 238.996 24.868 238.384 25.66C237.772 26.452 237.142 27.37 236.494 28.414C236.062 29.098 235.612 29.782 235.144 30.466C234.676 31.114 234.244 31.69 233.848 32.194C233.452 32.698 233.11 33.076 232.822 33.328C232.318 34.12 231.976 34.552 231.796 34.624C231.616 34.696 231.274 34.606 230.77 34.354ZM259.378 50.662C258.982 50.518 258.586 50.194 258.19 49.69C257.794 49.222 257.596 48.826 257.596 48.502C257.596 48.286 257.686 47.71 257.866 46.774C258.046 45.838 258.28 44.722 258.568 43.426C258.856 42.13 259.18 40.798 259.54 39.43C259.936 38.098 260.35 36.91 260.782 35.866C260.854 35.722 261.016 35.344 261.268 34.732C261.52 34.084 261.79 33.292 262.078 32.356L262.618 32.41L265.156 32.788L265.75 32.896C264.994 34.66 264.4 36.154 263.968 37.378C263.536 38.638 263.158 39.898 262.834 41.158C262.042 43.534 261.412 45.352 260.944 46.612C260.512 47.908 260.188 48.826 259.972 49.366C259.792 49.906 259.648 50.266 259.54 50.446C259.504 50.482 259.468 50.518 259.432 50.554C259.432 50.59 259.414 50.626 259.378 50.662ZM264.238 35.272C263.878 35.524 263.626 35.65 263.482 35.65C263.338 35.614 263.068 35.398 262.672 35.002C261.988 34.354 261.502 33.13 261.214 31.33C260.962 29.494 260.836 26.92 260.836 23.608C260.98 22.132 261.052 20.872 261.052 19.828C261.088 18.784 261.106 18.19 261.106 18.046C261.214 17.902 261.43 17.83 261.754 17.83C262.114 17.83 262.42 17.902 262.672 18.046C263.032 18.226 263.266 18.496 263.374 18.856C263.518 19.216 263.608 19.864 263.644 20.8C263.68 21.7 263.698 23.086 263.698 24.958C263.59 26.398 263.536 27.658 263.536 28.738C263.536 29.782 263.59 30.376 263.698 30.52C263.842 30.772 264.004 30.844 264.184 30.736C264.4 30.592 264.778 30.25 265.318 29.71C265.606 29.314 265.966 28.792 266.398 28.144C266.83 27.46 267.172 26.92 267.424 26.524C267.82 26.02 268.18 25.534 268.504 25.066C268.864 24.598 269.116 24.292 269.26 24.148C269.404 23.86 269.584 23.59 269.8 23.338C270.016 23.086 270.196 22.834 270.34 22.582C270.736 21.898 271.15 21.34 271.582 20.908C272.014 20.44 272.302 20.206 272.446 20.206C272.59 20.314 272.716 20.35 272.824 20.314C272.968 20.242 273.112 20.206 273.256 20.206C273.508 19.954 273.85 19.954 274.282 20.206C274.426 20.314 274.552 20.44 274.66 20.584C274.768 20.692 274.822 20.818 274.822 20.962C274.822 21.142 274.678 21.52 274.39 22.096C274.138 22.672 273.832 23.23 273.472 23.77C273.148 24.274 272.896 24.58 272.716 24.688C272.716 24.688 272.662 24.742 272.554 24.85C272.446 24.958 272.32 25.084 272.176 25.228C272.104 25.48 271.87 25.93 271.474 26.578C271.078 27.19 270.592 27.892 270.016 28.684C269.44 29.476 268.846 30.268 268.234 31.06C267.622 31.852 267.082 32.554 266.614 33.166C266.254 33.67 265.84 34.12 265.372 34.516C264.904 34.876 264.526 35.128 264.238 35.272ZM279.417 50.662C279.021 50.518 278.625 50.194 278.229 49.69C277.833 49.222 277.635 48.826 277.635 48.502C277.635 48.286 277.725 47.71 277.905 46.774C278.085 45.838 278.319 44.722 278.607 43.426C278.895 42.13 279.219 40.798 279.579 39.43C279.975 38.098 280.389 36.91 280.821 35.866C280.893 35.722 281.055 35.344 281.307 34.732C281.559 34.084 281.829 33.292 282.117 32.356L282.657 32.41L285.195 32.788L285.789 32.896C285.033 34.66 284.439 36.154 284.007 37.378C283.575 38.638 283.197 39.898 282.873 41.158C282.081 43.534 281.451 45.352 280.983 46.612C280.551 47.908 280.227 48.826 280.011 49.366C279.831 49.906 279.687 50.266 279.579 50.446C279.543 50.482 279.507 50.518 279.471 50.554C279.471 50.59 279.453 50.626 279.417 50.662ZM284.277 35.272C283.917 35.524 283.665 35.65 283.521 35.65C283.377 35.614 283.107 35.398 282.711 35.002C282.027 34.354 281.541 33.13 281.253 31.33C281.001 29.494 280.875 26.92 280.875 23.608C281.019 22.132 281.091 20.872 281.091 19.828C281.127 18.784 281.145 18.19 281.145 18.046C281.253 17.902 281.469 17.83 281.793 17.83C282.153 17.83 282.459 17.902 282.711 18.046C283.071 18.226 283.305 18.496 283.413 18.856C283.557 19.216 283.647 19.864 283.683 20.8C283.719 21.7 283.737 23.086 283.737 24.958C283.629 26.398 283.575 27.658 283.575 28.738C283.575 29.782 283.629 30.376 283.737 30.52C283.881 30.772 284.043 30.844 284.223 30.736C284.439 30.592 284.817 30.25 285.357 29.71C285.645 29.314 286.005 28.792 286.437 28.144C286.869 27.46 287.211 26.92 287.463 26.524C287.859 26.02 288.219 25.534 288.543 25.066C288.903 24.598 289.155 24.292 289.299 24.148C289.443 23.86 289.623 23.59 289.839 23.338C290.055 23.086 290.235 22.834 290.379 22.582C290.775 21.898 291.189 21.34 291.621 20.908C292.053 20.44 292.341 20.206 292.485 20.206C292.629 20.314 292.755 20.35 292.863 20.314C293.007 20.242 293.151 20.206 293.295 20.206C293.547 19.954 293.889 19.954 294.321 20.206C294.465 20.314 294.591 20.44 294.699 20.584C294.807 20.692 294.861 20.818 294.861 20.962C294.861 21.142 294.717 21.52 294.429 22.096C294.177 22.672 293.871 23.23 293.511 23.77C293.187 24.274 292.935 24.58 292.755 24.688C292.755 24.688 292.701 24.742 292.593 24.85C292.485 24.958 292.359 25.084 292.215 25.228C292.143 25.48 291.909 25.93 291.513 26.578C291.117 27.19 290.631 27.892 290.055 28.684C289.479 29.476 288.885 30.268 288.273 31.06C287.661 31.852 287.121 32.554 286.653 33.166C286.293 33.67 285.879 34.12 285.411 34.516C284.943 34.876 284.565 35.128 284.277 35.272ZM305.72 36.19C305.396 36.046 305.072 35.884 304.748 35.704C304.46 35.524 304.226 35.254 304.046 34.894C303.758 34.462 303.596 33.94 303.56 33.328C303.56 32.716 303.578 31.978 303.614 31.114C303.614 30.97 303.686 30.664 303.83 30.196C303.974 29.728 304.136 29.224 304.316 28.684C304.532 28.108 304.712 27.622 304.856 27.226C305 26.794 305.072 26.56 305.072 26.524C304.712 26.596 304.406 26.722 304.154 26.902C303.902 27.082 303.65 27.262 303.398 27.442C303.038 27.802 302.552 28.162 301.94 28.522C301.328 28.882 300.77 29.152 300.266 29.332C299.906 29.476 299.402 29.422 298.754 29.17C298.142 28.882 297.692 28.486 297.404 27.982C297.296 27.73 297.206 27.496 297.134 27.28C297.098 27.028 297.062 26.776 297.026 26.524C296.882 25.336 297.08 24.184 297.62 23.068C298.052 22.132 298.502 21.214 298.97 20.314C299.438 19.378 299.888 18.46 300.32 17.56C300.5 17.272 300.68 17.002 300.86 16.75C301.04 16.462 301.166 16.174 301.238 15.886C301.274 15.778 301.382 15.616 301.562 15.4C301.742 15.184 301.94 15.076 302.156 15.076C302.552 15.112 302.912 15.202 303.236 15.346C303.596 15.454 303.902 15.706 304.154 16.102C304.37 16.354 304.478 16.642 304.478 16.966C304.478 17.254 304.334 17.578 304.046 17.938C303.362 18.874 302.732 19.864 302.156 20.908C301.616 21.952 301.094 22.996 300.59 24.04C300.446 24.328 300.32 24.67 300.212 25.066C300.104 25.462 300.086 25.84 300.158 26.2C300.698 26.2 301.436 25.876 302.372 25.228C303.308 24.544 304.298 23.77 305.342 22.906C306.386 22.042 307.304 21.286 308.096 20.638C308.924 19.954 309.644 19.126 310.256 18.154C310.436 17.866 310.652 17.65 310.904 17.506C311.156 17.326 311.498 17.218 311.93 17.182C312.038 17.218 312.182 17.29 312.362 17.398C312.542 17.506 312.74 17.596 312.956 17.668C313.136 18.1 313.298 18.442 313.442 18.694C313.622 18.946 313.694 19.198 313.658 19.45C313.622 19.702 313.37 20.08 312.902 20.584C312.722 20.62 312.416 20.926 311.984 21.502C311.552 22.042 311.12 22.654 310.688 23.338C310.256 23.986 309.932 24.526 309.716 24.958C309.608 25.138 309.464 25.336 309.284 25.552C309.14 25.732 308.996 25.948 308.852 26.2L306.8 31.168C306.764 31.492 306.71 31.852 306.638 32.248C306.566 32.608 306.602 32.896 306.746 33.112C307.034 33.112 307.286 33.076 307.502 33.004C307.718 32.932 307.898 33.022 308.042 33.274C308.222 33.85 308.312 34.264 308.312 34.516C308.348 34.732 308.096 35.146 307.556 35.758C307.052 36.298 306.44 36.442 305.72 36.19ZM317.281 50.662C316.885 50.518 316.489 50.194 316.093 49.69C315.697 49.222 315.499 48.826 315.499 48.502C315.499 48.286 315.589 47.71 315.769 46.774C315.949 45.838 316.183 44.722 316.471 43.426C316.759 42.13 317.083 40.798 317.443 39.43C317.839 38.098 318.253 36.91 318.685 35.866C318.757 35.722 318.919 35.344 319.171 34.732C319.423 34.084 319.693 33.292 319.981 32.356L320.521 32.41L323.059 32.788L323.653 32.896C322.897 34.66 322.303 36.154 321.871 37.378C321.439 38.638 321.061 39.898 320.737 41.158C319.945 43.534 319.315 45.352 318.847 46.612C318.415 47.908 318.091 48.826 317.875 49.366C317.695 49.906 317.551 50.266 317.443 50.446C317.407 50.482 317.371 50.518 317.335 50.554C317.335 50.59 317.317 50.626 317.281 50.662ZM322.141 35.272C321.781 35.524 321.529 35.65 321.385 35.65C321.241 35.614 320.971 35.398 320.575 35.002C319.891 34.354 319.405 33.13 319.117 31.33C318.865 29.494 318.739 26.92 318.739 23.608C318.883 22.132 318.955 20.872 318.955 19.828C318.991 18.784 319.009 18.19 319.009 18.046C319.117 17.902 319.333 17.83 319.657 17.83C320.017 17.83 320.323 17.902 320.575 18.046C320.935 18.226 321.169 18.496 321.277 18.856C321.421 19.216 321.511 19.864 321.547 20.8C321.583 21.7 321.601 23.086 321.601 24.958C321.493 26.398 321.439 27.658 321.439 28.738C321.439 29.782 321.493 30.376 321.601 30.52C321.745 30.772 321.907 30.844 322.087 30.736C322.303 30.592 322.681 30.25 323.221 29.71C323.509 29.314 323.869 28.792 324.301 28.144C324.733 27.46 325.075 26.92 325.327 26.524C325.723 26.02 326.083 25.534 326.407 25.066C326.767 24.598 327.019 24.292 327.163 24.148C327.307 23.86 327.487 23.59 327.703 23.338C327.919 23.086 328.099 22.834 328.243 22.582C328.639 21.898 329.053 21.34 329.485 20.908C329.917 20.44 330.205 20.206 330.349 20.206C330.493 20.314 330.619 20.35 330.727 20.314C330.871 20.242 331.015 20.206 331.159 20.206C331.411 19.954 331.753 19.954 332.185 20.206C332.329 20.314 332.455 20.44 332.563 20.584C332.671 20.692 332.725 20.818 332.725 20.962C332.725 21.142 332.581 21.52 332.293 22.096C332.041 22.672 331.735 23.23 331.375 23.77C331.051 24.274 330.799 24.58 330.619 24.688C330.619 24.688 330.565 24.742 330.457 24.85C330.349 24.958 330.223 25.084 330.079 25.228C330.007 25.48 329.773 25.93 329.377 26.578C328.981 27.19 328.495 27.892 327.919 28.684C327.343 29.476 326.749 30.268 326.137 31.06C325.525 31.852 324.985 32.554 324.517 33.166C324.157 33.67 323.743 34.12 323.275 34.516C322.807 34.876 322.429 35.128 322.141 35.272ZM375.13 20.638C375.13 20.638 374.932 20.818 374.536 21.178C374.14 21.502 373.654 21.916 373.078 22.42C372.502 22.888 371.926 23.374 371.35 23.878C370.81 24.346 370.342 24.76 369.946 25.12C369.586 25.444 369.406 25.606 369.406 25.606L365.41 28.846C365.41 29.314 365.482 29.692 365.626 29.98C365.77 30.232 366.022 30.664 366.382 31.276C366.778 31.924 367.264 32.572 367.84 33.22C368.452 33.868 369.01 34.426 369.514 34.894C370.054 35.362 370.396 35.686 370.54 35.866C370.756 36.19 370.72 36.424 370.432 36.568C370.144 36.712 369.784 36.82 369.352 36.892C368.92 36.928 368.596 36.982 368.38 37.054C367.768 36.946 367.138 36.568 366.49 35.92C365.842 35.272 365.248 34.552 364.708 33.76C364.204 32.968 363.862 32.338 363.682 31.87C363.178 31.222 362.8 30.682 362.548 30.25C362.296 29.818 362.026 29.152 361.738 28.252C361.522 28.504 361.342 28.738 361.198 28.954C361.054 29.17 360.874 29.53 360.658 30.034C360.514 30.466 360.334 30.97 360.118 31.546C359.902 32.086 359.704 32.572 359.524 33.004C359.38 33.4 359.344 33.598 359.416 33.598C359.488 34.138 359.47 34.516 359.362 34.732C359.254 34.948 359.038 35.218 358.714 35.542L357.256 35.596C356.572 35.128 356.158 34.678 356.014 34.246C355.87 33.778 355.798 33.328 355.798 32.896C356.158 32.176 356.518 31.438 356.878 30.682C357.274 29.89 357.562 29.062 357.742 28.198C357.526 28.198 357.31 28.234 357.094 28.306C356.878 28.342 356.572 28.396 356.176 28.468C355.636 29.008 355.132 29.476 354.664 29.872C354.232 30.232 353.728 30.664 353.152 31.168C352.612 31.672 351.874 32.392 350.938 33.328C350.362 33.868 349.786 34.426 349.21 35.002C348.634 35.578 348.112 36.208 347.644 36.892C347.284 37.36 346.528 37.414 345.376 37.054L344.188 35.218C344.188 34.93 344.26 34.678 344.404 34.462C344.548 34.246 344.746 34.066 344.998 33.922C345.142 33.814 345.484 33.526 346.024 33.058C346.564 32.554 347.158 31.996 347.806 31.384C348.49 30.772 349.048 30.268 349.48 29.872C349.588 29.764 349.84 29.548 350.236 29.224C350.668 28.864 351.082 28.522 351.478 28.198C351.91 27.874 352.144 27.712 352.18 27.712C352.468 27.424 352.954 27.01 353.638 26.47C354.322 25.93 354.844 25.48 355.204 25.12C354.844 24.544 354.466 23.914 354.07 23.23C353.71 22.51 353.278 21.844 352.774 21.232C352.414 20.656 352.054 20.062 351.694 19.45C351.37 18.838 351.01 18.208 350.614 17.56C350.794 17.056 351.136 16.786 351.64 16.75C352.144 16.714 352.648 16.822 353.152 17.074C354.016 17.866 354.682 18.892 355.15 20.152C355.69 21.016 356.14 21.718 356.5 22.258C356.86 22.762 357.202 23.248 357.526 23.716C357.85 24.184 358.228 24.778 358.66 25.498C358.912 24.31 359.182 23.104 359.47 21.88C359.758 20.656 359.974 19.666 360.118 18.91C360.19 18.622 360.244 18.334 360.28 18.046C360.352 17.758 360.352 17.452 360.28 17.128C360.244 16.948 360.244 16.786 360.28 16.642C360.352 16.462 360.406 16.318 360.442 16.21C360.514 15.958 360.658 15.796 360.874 15.724C361.09 15.652 361.324 15.706 361.576 15.886C362.116 16.246 362.62 16.696 363.088 17.236C363.592 17.776 363.754 18.37 363.574 19.018C363.574 19.054 363.484 19.45 363.304 20.206C363.124 20.926 362.926 21.772 362.71 22.744C362.494 23.68 362.296 24.508 362.116 25.228C361.936 25.948 361.846 26.326 361.846 26.362L362.386 26.47C363.106 26.002 363.844 25.516 364.6 25.012C365.356 24.472 365.932 24.04 366.328 23.716C366.832 23.356 367.462 22.834 368.218 22.15C368.974 21.466 369.712 20.764 370.432 20.044C371.152 19.324 371.71 18.766 372.106 18.37C372.43 18.082 372.646 17.902 372.754 17.83C372.898 17.722 373.168 17.632 373.564 17.56C373.96 17.812 374.338 18.154 374.698 18.586C375.094 18.982 375.328 19.378 375.4 19.774C375.436 20.134 375.346 20.422 375.13 20.638ZM375.23 35.056C375.086 34.768 374.906 34.552 374.69 34.408C374.474 34.228 374.366 34.066 374.366 33.922C374.366 33.778 374.348 33.634 374.312 33.49C374.312 33.31 374.24 33.148 374.096 33.004C373.916 32.788 373.934 32.302 374.15 31.546C374.366 30.754 374.726 29.8 375.23 28.684C375.734 27.532 376.328 26.326 377.012 25.066C377.3 24.778 377.588 24.4 377.876 23.932C378.164 23.464 378.38 23.158 378.524 23.014C378.524 22.87 378.578 22.744 378.686 22.636C378.794 22.492 378.92 22.42 379.064 22.42V22.096C379.064 21.916 379.226 21.61 379.55 21.178C379.91 20.746 380.342 20.278 380.846 19.774C381.35 19.234 381.872 18.73 382.412 18.262C382.952 17.758 383.402 17.398 383.762 17.182C384.518 16.678 385.292 16.372 386.084 16.264C386.912 16.156 387.614 16.336 388.19 16.804C388.298 16.912 388.478 17.092 388.73 17.344C388.982 17.596 389.27 17.884 389.594 18.208C389.954 18.496 390.314 18.802 390.674 19.126L392.672 20.908L391.7 23.608C391.232 25.048 391.106 26.308 391.322 27.388C391.574 28.468 391.934 29.404 392.402 30.196C392.582 30.592 392.942 30.97 393.482 31.33C394.058 31.69 394.598 31.906 395.102 31.978C395.39 32.014 395.66 32.122 395.912 32.302C396.164 32.482 396.29 32.77 396.29 33.166C396.29 33.526 396.218 33.814 396.074 34.03C395.93 34.246 395.678 34.39 395.318 34.462C394.13 34.606 393.014 34.318 391.97 33.598C390.962 32.878 390.026 31.69 389.162 30.034C389.018 29.818 388.82 29.422 388.568 28.846C388.352 28.234 388.226 27.838 388.19 27.658C388.046 27.838 387.776 28.18 387.38 28.684C386.984 29.152 386.678 29.494 386.462 29.71C383.906 32.302 381.692 34.048 379.82 34.948C377.984 35.812 376.454 35.848 375.23 35.056ZM377.174 32.032C377.174 32.284 377.552 32.284 378.308 32.032C379.1 31.744 379.946 31.24 380.846 30.52C382.07 29.476 383.294 28.324 384.518 27.064C385.778 25.804 386.786 24.634 387.542 23.554L388.73 21.61C388.37 20.782 387.974 20.224 387.542 19.936C387.146 19.612 386.804 19.45 386.516 19.45C386.048 19.45 385.346 19.882 384.41 20.746C383.51 21.61 382.538 22.762 381.494 24.202C380.45 25.642 379.46 27.226 378.524 28.954C378.164 29.674 377.84 30.376 377.552 31.06C377.3 31.708 377.174 32.032 377.174 32.032ZM411.33 36.892C411.078 37.036 410.736 36.982 410.304 36.73C409.908 36.478 409.512 36.1 409.116 35.596C408.864 35.164 408.684 34.696 408.576 34.192C408.504 33.688 408.468 32.986 408.468 32.086C408.504 31.366 408.468 30.898 408.36 30.682C408.288 30.466 408.09 30.502 407.766 30.79C407.442 31.042 406.884 31.564 406.092 32.356C405.192 33.256 404.328 33.958 403.5 34.462C402.708 34.966 402.06 35.2 401.556 35.164C401.304 35.164 401.016 35.038 400.692 34.786C400.404 34.498 400.134 34.156 399.882 33.76C399.63 33.328 399.414 32.896 399.234 32.464C399.018 31.672 398.982 30.664 399.126 29.44C399.306 28.18 399.594 26.866 399.99 25.498C400.386 24.13 400.836 22.834 401.34 21.61C401.88 20.386 402.42 19.396 402.96 18.64C403.536 17.884 404.04 17.506 404.472 17.506C404.76 17.506 405.012 17.65 405.228 17.938C405.48 18.226 405.732 18.676 405.984 19.288C406.128 19.54 406.182 19.756 406.146 19.936C406.146 20.116 406.002 20.332 405.714 20.584C405.39 21.016 405.012 21.664 404.58 22.528C404.184 23.392 403.788 24.328 403.392 25.336C403.032 26.344 402.708 27.316 402.42 28.252C402.132 29.188 401.934 29.962 401.826 30.574C401.718 31.15 401.736 31.438 401.88 31.438C402.384 31.438 402.978 31.24 403.662 30.844C404.382 30.412 405.066 29.89 405.714 29.278C406.47 28.522 407.136 27.694 407.712 26.794C408.324 25.894 408.936 24.94 409.548 23.932C410.016 23.212 410.502 22.42 411.006 21.556C411.546 20.692 411.888 20.08 412.032 19.72C412.536 18.784 412.914 18.154 413.166 17.83C413.418 17.47 413.724 17.236 414.084 17.128C414.264 17.128 414.426 17.128 414.57 17.128C414.75 17.128 414.84 17.128 414.84 17.128C415.056 17.164 415.308 17.326 415.596 17.614C415.884 17.758 416.046 17.902 416.082 18.046C416.118 18.154 416.136 18.298 416.136 18.478C415.992 18.838 415.758 19.378 415.434 20.098C415.146 20.782 414.93 21.286 414.786 21.61C414.102 23.158 413.418 24.688 412.734 26.2C412.086 27.676 411.618 29.188 411.33 30.736C411.258 31.24 411.24 31.834 411.276 32.518C411.348 33.166 411.456 33.634 411.6 33.922C411.708 34.138 411.834 34.39 411.978 34.678C412.158 34.93 412.356 35.146 412.572 35.326C412.896 35.542 412.95 35.776 412.734 36.028C412.554 36.28 412.302 36.496 411.978 36.676C411.654 36.82 411.438 36.892 411.33 36.892ZM410.628 14.482C409.512 14.626 408.576 14.302 407.82 13.51C407.064 12.718 406.488 11.548 406.092 10C406.02 9.712 405.984 9.46 405.984 9.244C406.02 8.992 406.092 8.776 406.2 8.596C406.272 8.452 406.416 8.344 406.632 8.272C406.848 8.164 407.028 8.146 407.172 8.218C407.676 8.398 408.036 8.632 408.252 8.92C408.504 9.172 408.666 9.496 408.738 9.892C408.81 10.072 408.846 10.252 408.846 10.432C408.882 10.612 408.9 10.684 408.9 10.648C409.08 11.224 409.314 11.62 409.602 11.836C409.89 12.052 410.322 12.034 410.898 11.782C411.51 11.53 412.104 11.242 412.68 10.918C413.292 10.594 413.832 10.198 414.3 9.73C414.696 9.334 415.074 8.974 415.434 8.65C415.83 8.326 416.208 7.984 416.568 7.624L416.622 7.57C416.766 7.462 416.946 7.426 417.162 7.462C417.378 7.498 417.504 7.552 417.54 7.624C417.792 7.876 417.918 8.128 417.918 8.38C417.918 8.632 417.918 8.902 417.918 9.19L417.864 9.298C417.936 9.514 417.756 9.928 417.324 10.54C416.928 11.152 416.442 11.674 415.866 12.106C415.362 12.502 414.822 12.862 414.246 13.186C413.67 13.51 413.076 13.816 412.464 14.104C412.212 14.248 411.942 14.338 411.654 14.374C411.402 14.374 411.06 14.41 410.628 14.482Z" fill="#FEFEFE"/>
</svg>
