<svg width="620" height="76" viewBox="0 0 620 76" fill="none" xmlns="http://www.w3.org/2000/svg">
<path d="M8.70594 59.48C7.90594 59.16 7.07927 58.8133 6.22594 58.44C5.42594 58.0667 4.65261 57.5067 3.90594 56.76C3.2126 56.0667 2.59927 55.08 2.06594 53.8C1.5326 52.2533 1.15927 50.7333 0.945938 49.24C0.785938 47.7467 0.732605 46.0133 0.785938 44.04C0.785938 41.2667 0.972605 38.8667 1.34594 36.84C1.7726 34.76 2.41261 32.6533 3.26594 30.52C3.3726 30.36 3.55927 29.9067 3.82594 29.16C4.14594 28.36 4.4926 27.5067 4.86594 26.6C5.2926 25.6933 5.6126 25 5.82594 24.52C6.2526 23.6133 6.8926 22.4133 7.74594 20.92C8.6526 19.3733 9.6126 17.88 10.6259 16.44C12.1726 14.1467 13.4526 12.3333 14.4659 11C15.4793 9.66666 16.4393 8.54666 17.3459 7.64C18.2526 6.73333 19.2659 5.88 20.3859 5.08C21.5593 4.22666 23.0526 3.18666 24.8659 1.96C26.0393 1.10666 27.3193 0.653332 28.7059 0.599999C30.1459 0.546664 31.4793 0.866663 32.7059 1.56C33.9326 2.2 34.8393 3.16 35.4259 4.44C36.0126 5.56 36.3059 6.92 36.3059 8.52C36.3059 10.0667 36.0659 11.72 35.5859 13.48C35.1059 15.1867 34.4393 16.8133 33.5859 18.36C32.7326 19.9067 31.7459 21.1867 30.6259 22.2C29.9326 22.84 29.2926 23.08 28.7059 22.92C28.1726 22.76 27.5326 22.3333 26.7859 21.64C26.3059 20.7333 26.0393 20.2 25.9859 20.04C25.9859 19.88 26.0926 19.7733 26.3059 19.72C26.6259 19.3467 27.0526 18.7067 27.5859 17.8C28.1193 16.8933 28.6526 15.9333 29.1859 14.92C29.7193 13.8533 30.0926 13 30.3059 12.36C30.7326 10.12 31.0259 8.54666 31.1859 7.64C31.3459 6.68 31.1859 5.96 30.7059 5.48C30.4926 5.26666 30.1726 5.18666 29.7459 5.24C29.3726 5.29333 28.7326 5.56 27.8259 6.04C26.5993 6.57333 24.9993 7.77333 23.0259 9.64C21.0526 11.4533 19.2393 13.48 17.5859 15.72C15.4526 18.5467 13.6659 21.0533 12.2259 23.24C10.7859 25.4267 9.6926 27.6667 8.94594 29.96C8.83927 30.1733 8.6526 30.5733 8.38594 31.16C8.17261 31.7467 8.06594 32.04 8.06594 32.04C8.11927 32.2533 8.03927 32.7867 7.82594 33.64C7.61261 34.44 7.37261 35.1333 7.10594 35.72C6.51927 38.1733 6.17261 40.7333 6.06594 43.4C5.95927 46.0133 6.0926 48.3333 6.46594 50.36C6.8926 52.3867 7.50594 53.8 8.30594 54.6C8.99927 55.08 9.93261 55.24 11.1059 55.08C12.3326 54.92 13.7193 54.5467 15.2659 53.96C16.8126 53.3733 18.3859 52.7333 19.9859 52.04C21.2659 51.5067 22.4393 50.92 23.5059 50.28C24.5726 49.64 25.3726 49.08 25.9059 48.6C26.3326 48.28 26.8659 47.96 27.5059 47.64C28.1993 47.2667 28.7859 47.08 29.2659 47.08C30.0126 46.8133 30.4393 46.7067 30.5459 46.76C30.6526 46.8133 30.7059 47.0533 30.7059 47.48C30.7059 48.2267 30.2793 49.0533 29.4259 49.96C28.6259 50.8667 27.5859 51.6933 26.3059 52.44C25.8793 52.8667 25.3193 53.32 24.6259 53.8C23.9326 54.28 23.2126 54.6533 22.4659 54.92C21.3459 55.7733 19.9593 56.6 18.3059 57.4C16.6526 58.2 14.9726 58.8133 13.2659 59.24C11.6126 59.6667 10.0926 59.7467 8.70594 59.48ZM38.7397 52.12C38.5264 51.6933 38.2597 51.3733 37.9397 51.16C37.6197 50.8933 37.4597 50.6533 37.4597 50.44C37.4597 50.2267 37.433 50.0133 37.3797 49.8C37.3797 49.5333 37.273 49.2933 37.0597 49.08C36.793 48.76 36.8197 48.04 37.1397 46.92C37.4597 45.7467 37.993 44.3333 38.7397 42.68C39.4864 40.9733 40.3664 39.1867 41.3797 37.32C41.8064 36.8933 42.233 36.3333 42.6597 35.64C43.0864 34.9467 43.4064 34.4933 43.6197 34.28C43.6197 34.0667 43.6997 33.88 43.8597 33.72C44.0197 33.5067 44.2064 33.4 44.4197 33.4V32.92C44.4197 32.6533 44.6597 32.2 45.1397 31.56C45.673 30.92 46.313 30.2267 47.0597 29.48C47.8064 28.68 48.5797 27.9333 49.3797 27.24C50.1797 26.4933 50.8464 25.96 51.3797 25.64C52.4997 24.8933 53.6464 24.44 54.8197 24.28C56.0464 24.12 57.0864 24.3867 57.9397 25.08C58.0997 25.24 58.3664 25.5067 58.7397 25.88C59.113 26.2533 59.5397 26.68 60.0197 27.16C60.553 27.5867 61.0864 28.04 61.6197 28.52L64.5797 31.16L63.1397 35.16C62.4464 37.2933 62.2597 39.16 62.5797 40.76C62.953 42.36 63.4864 43.7467 64.1797 44.92C64.4464 45.5067 64.9797 46.0667 65.7797 46.6C66.633 47.1333 67.433 47.4533 68.1797 47.56C68.6064 47.6133 69.0064 47.7733 69.3797 48.04C69.753 48.3067 69.9397 48.7333 69.9397 49.32C69.9397 49.8533 69.833 50.28 69.6197 50.6C69.4064 50.92 69.033 51.1333 68.4997 51.24C66.7397 51.4533 65.0864 51.0267 63.5397 49.96C62.0464 48.8933 60.6597 47.1333 59.3797 44.68C59.1664 44.36 58.873 43.7733 58.4997 42.92C58.1797 42.0133 57.993 41.4267 57.9397 41.16C57.7264 41.4267 57.3264 41.9333 56.7397 42.68C56.153 43.3733 55.6997 43.88 55.3797 44.2C51.593 48.04 48.313 50.6267 45.5397 51.96C42.8197 53.24 40.553 53.2933 38.7397 52.12ZM41.6197 47.64C41.6197 48.0133 42.1797 48.0133 43.2997 47.64C44.473 47.2133 45.7264 46.4667 47.0597 45.4C48.873 43.8533 50.6864 42.1467 52.4997 40.28C54.3664 38.4133 55.8597 36.68 56.9797 35.08L58.7397 32.2C58.2064 30.9733 57.6197 30.1467 56.9797 29.72C56.393 29.24 55.8864 29 55.4597 29C54.7664 29 53.7264 29.64 52.3397 30.92C51.0064 32.2 49.5664 33.9067 48.0197 36.04C46.473 38.1733 45.0064 40.52 43.6197 43.08C43.0864 44.1467 42.6064 45.1867 42.1797 46.2C41.8064 47.16 41.6197 47.64 41.6197 47.64ZM72.0834 54.68C71.8701 54.5733 71.5768 54.36 71.2034 54.04C70.8834 53.72 70.5901 53.4 70.3234 53.08C70.1634 52.92 70.0301 52.7867 69.9234 52.68C69.8168 52.52 69.7101 52.4133 69.6034 52.36C69.6034 51.9867 69.6834 51.72 69.8434 51.56C70.0568 51.4 70.2701 51.2133 70.4834 51C70.6968 50.68 71.0434 50.52 71.5234 50.52C72.0034 50.52 72.3768 50.3867 72.6434 50.12C73.6034 49.4267 74.5901 48.7067 75.6034 47.96C76.6168 47.2133 77.4701 46.3333 78.1634 45.32C78.9101 44.2533 79.6568 43.1067 80.4034 41.88C81.1501 40.6533 81.8701 39.4533 82.5634 38.28C82.7768 37.9067 83.1234 37.24 83.6034 36.28C84.0834 35.32 84.5368 34.3867 84.9634 33.48C85.4434 32.52 85.7101 31.8533 85.7634 31.48C85.2834 31.32 84.8301 31.1867 84.4034 31.08C84.0301 30.92 83.6568 30.7867 83.2834 30.68C82.8034 29.9333 82.5368 29.5067 82.4834 29.4C82.4301 29.24 82.4034 28.7333 82.4034 27.88C82.4034 27.24 82.7501 26.84 83.4434 26.68C84.9901 26.3067 86.3501 26.0667 87.5234 25.96C88.7501 25.8533 89.9501 25.64 91.1234 25.32C91.8701 25.1067 92.7768 25.0267 93.8434 25.08C94.9101 25.1333 95.9768 25.3733 97.0434 25.8C97.5234 26.0133 97.9234 26.28 98.2434 26.6C98.5634 26.92 98.8568 27.2933 99.1234 27.72C99.8168 28.68 100.163 29.5067 100.163 30.2C100.217 30.8933 100.19 31.56 100.083 32.2C99.9768 32.84 100.057 33.56 100.323 34.36C99.9501 35.8 99.5768 37.08 99.2034 38.2C98.8301 39.2667 98.4834 40.28 98.1634 41.24C97.8434 42.1467 97.5501 43 97.2834 43.8C97.0168 44.6 96.8034 45.4 96.6434 46.2C96.4301 47.0533 96.1634 47.9067 95.8434 48.76C95.5234 49.6133 95.2834 50.4933 95.1234 51.4C95.0168 52.0933 94.6968 52.6 94.1634 52.92C93.6834 53.24 93.1501 53.5333 92.5634 53.8C92.3501 53.8533 91.9768 53.8 91.4434 53.64C90.9634 53.4267 90.5101 53.1333 90.0834 52.76C89.9234 52.1733 89.8701 51.64 89.9234 51.16C89.9768 50.68 90.0834 50.2 90.2434 49.72C90.4034 49.2933 90.6968 48.3333 91.1234 46.84C91.5501 45.3467 92.0301 43.6667 92.5634 41.8C93.0968 39.9333 93.6034 38.2 94.0834 36.6C94.5634 35 94.8834 33.88 95.0434 33.24C95.3101 32.3867 95.3901 31.7467 95.2834 31.32C95.2301 30.8933 95.1501 30.4933 95.0434 30.12C93.9234 29.6933 93.1501 29.56 92.7234 29.72C92.3501 29.8267 91.8701 29.9333 91.2834 30.04C91.0168 30.2533 90.8034 30.4933 90.6434 30.76C90.4834 31.0267 90.3768 31.2933 90.3234 31.56C89.7368 33.1067 89.2301 34.3333 88.8034 35.24C88.4301 36.1467 88.0568 36.9733 87.6834 37.72C87.3101 38.4133 86.8834 39.1867 86.4034 40.04C85.9768 40.8933 85.4168 42.0667 84.7234 43.56C84.2968 44.52 83.7634 45.4 83.1234 46.2C82.5368 47 82.0034 47.8533 81.5234 48.76L80.6434 49.88C80.6968 49.88 80.4834 50.0933 80.0034 50.52C79.5234 50.9467 79.0434 51.3733 78.5634 51.8C78.1368 52.2267 77.9234 52.44 77.9234 52.44L75.4434 54.36C75.1768 54.5733 74.7234 54.68 74.0834 54.68C73.4434 54.68 72.7768 54.68 72.0834 54.68ZM106.045 52.04C105.885 51.8267 105.725 51.56 105.565 51.24C105.458 50.92 105.405 50.6533 105.405 50.44C105.405 50.3333 105.378 50.2 105.325 50.04C105.325 49.88 105.218 49.8 105.005 49.8C104.845 49.64 104.951 49.0267 105.325 47.96C105.751 46.84 106.285 45.56 106.925 44.12C107.618 42.68 108.311 41.2933 109.005 39.96C109.751 38.5733 110.365 37.48 110.845 36.68C111.111 36.52 111.271 36.3067 111.325 36.04C111.431 35.72 111.431 35.56 111.325 35.56C111.325 35.56 111.458 35.32 111.725 34.84C112.045 34.3067 112.285 33.96 112.445 33.8C112.871 33.0533 113.191 32.3067 113.405 31.56C113.618 30.76 113.671 30.0933 113.565 29.56C113.351 29.2933 113.111 29.2133 112.845 29.32C112.578 29.4267 112.445 29.48 112.445 29.48C112.231 29.5333 111.911 29.64 111.485 29.8C111.111 29.9067 110.765 30.0667 110.445 30.28C109.218 31.1333 108.391 31.5333 107.965 31.48C107.538 31.3733 107.058 30.68 106.525 29.4C106.311 28.8133 106.231 28.3867 106.285 28.12C106.338 27.8533 106.551 27.56 106.925 27.24C107.351 26.8667 107.751 26.6267 108.125 26.52C108.498 26.36 108.791 26.2 109.005 26.04C109.591 25.6667 110.071 25.4 110.445 25.24C110.871 25.08 111.191 24.9733 111.405 24.92C112.791 24.4933 113.965 24.4133 114.925 24.68C115.885 24.9467 116.605 25.64 117.085 26.76C117.831 27.6667 118.205 28.7067 118.205 29.88C118.205 31 117.831 32.3067 117.085 33.8L116.285 35C116.018 35.5333 115.965 35.8 116.125 35.8C116.338 35.8 116.578 35.6133 116.845 35.24C117.005 35.0267 117.325 34.7067 117.805 34.28C118.285 33.8533 118.605 33.64 118.765 33.64C118.765 33.64 118.818 33.6133 118.925 33.56C119.085 33.5067 119.165 33.2933 119.165 32.92C119.325 32.76 119.485 32.6 119.645 32.44C119.858 32.28 119.965 32.2 119.965 32.2C120.178 32.2 120.578 31.96 121.165 31.48C121.805 30.9467 122.551 30.3333 123.405 29.64C123.991 29.2133 124.525 29 125.005 29C126.231 28.6267 127.218 29.0267 127.965 30.2C128.765 31.3733 129.165 32.8933 129.165 34.76L127.485 39.08L130.365 35.56C130.685 35.1333 131.005 34.76 131.325 34.44C131.698 34.12 132.018 33.8533 132.285 33.64C132.391 33.2667 132.551 33.0533 132.765 33C132.978 32.9467 133.085 32.92 133.085 32.92C133.085 32.92 133.138 32.92 133.245 32.92C133.351 32.8667 133.405 32.76 133.405 32.6C133.671 32.3867 133.965 32.2 134.285 32.04C134.605 31.8267 134.818 31.6133 134.925 31.4C135.831 31.0267 136.658 30.9733 137.405 31.24C138.151 31.4533 138.791 32.12 139.325 33.24C139.698 33.88 139.911 34.44 139.965 34.92C140.018 35.4 140.045 36.12 140.045 37.08C139.938 37.88 139.831 38.52 139.725 39C139.671 39.4267 139.618 39.88 139.565 40.36C139.511 40.84 139.431 41.5067 139.325 42.36C139.111 42.7867 138.978 43.24 138.925 43.72C138.925 44.2 138.925 44.6533 138.925 45.08C138.925 45.7733 138.951 46.2533 139.005 46.52C139.058 46.7333 139.271 46.84 139.645 46.84C140.391 46.68 141.405 46.3067 142.685 45.72C144.018 45.08 145.005 44.4667 145.645 43.88C146.445 43.1333 147.138 42.76 147.725 42.76C148.365 42.7067 148.765 43 148.925 43.64C149.031 43.8533 148.845 44.3333 148.365 45.08C147.938 45.8267 147.431 46.5467 146.845 47.24C146.311 47.9333 145.911 48.28 145.645 48.28C145.485 48.28 145.298 48.44 145.085 48.76C144.871 49.0267 144.631 49.24 144.365 49.4C143.991 49.7733 143.618 50.12 143.245 50.44C142.925 50.76 142.551 50.92 142.125 50.92C141.911 50.92 141.645 51 141.325 51.16C141.058 51.2667 140.738 51.32 140.365 51.32C139.831 51.48 139.005 51.4 137.885 51.08C136.818 50.76 136.125 50.0133 135.805 48.84C135.591 48.2533 135.405 47.32 135.245 46.04C135.085 44.7067 135.111 43.3733 135.325 42.04C135.538 41.08 135.671 40.2 135.725 39.4C135.778 38.6 135.885 38.04 136.045 37.72C136.045 37.56 136.045 37.1867 136.045 36.6C136.045 35.96 135.965 35.64 135.805 35.64C135.591 35.64 135.085 36.04 134.285 36.84C133.538 37.5867 132.631 38.5467 131.565 39.72C130.551 40.8933 129.538 42.12 128.525 43.4C127.511 44.68 126.685 45.8267 126.045 46.84C125.565 47.4267 125.138 48.1467 124.765 49C124.391 49.8533 124.125 50.3333 123.965 50.44C123.591 50.8667 123.138 50.92 122.605 50.6C122.125 50.28 121.671 49.7733 121.245 49.08C121.085 48.76 120.978 48.4933 120.925 48.28C120.871 48.0133 120.871 47.6667 120.925 47.24C121.031 46.76 121.218 46.0667 121.485 45.16C121.805 44.2533 122.231 42.9733 122.765 41.32C123.351 39.5067 123.858 37.88 124.285 36.44C124.765 34.9467 125.005 34.2 125.005 34.2C125.005 33.9867 124.605 34.2 123.805 34.84C123.005 35.4267 122.071 36.1733 121.005 37.08C120.525 37.6667 119.725 38.5467 118.605 39.72C117.485 40.8933 116.258 42.2267 114.925 43.72C113.591 45.2133 112.311 46.7867 111.085 48.44C109.538 50.6267 108.445 51.96 107.805 52.44C107.218 52.92 106.631 52.7867 106.045 52.04ZM159.589 52.68C159.162 52.7867 158.602 52.84 157.909 52.84C157.216 52.7867 156.602 52.7067 156.069 52.6C155.589 52.44 155.349 52.28 155.349 52.12C155.349 51.8533 155.216 51.72 154.949 51.72C154.949 51.72 154.816 51.6133 154.549 51.4C154.336 51.1867 153.989 50.9733 153.509 50.76C153.029 50.0133 152.789 49.2133 152.789 48.36C152.789 47.4533 153.029 46.04 153.509 44.12C153.669 42.7867 154.176 41.24 155.029 39.48C155.936 37.6667 157.029 35.8267 158.309 33.96C159.589 32.0933 160.922 30.4133 162.309 28.92C163.749 27.4267 165.056 26.3333 166.229 25.64C166.976 24.8933 167.882 24.4933 168.949 24.44C170.016 24.3867 171.029 24.6267 171.989 25.16C172.522 25.4267 173.056 25.8533 173.589 26.44C174.122 27.0267 174.629 27.6667 175.109 28.36C175.589 29.0533 175.989 29.7467 176.309 30.44C176.469 31.0267 176.549 31.56 176.549 32.04C176.602 32.4667 176.602 33 176.549 33.64C176.549 34.28 176.469 35.24 176.309 36.52C176.042 37.48 175.802 38.6533 175.589 40.04C175.429 41.4267 175.349 42.6267 175.349 43.64C175.242 44.6533 175.349 45.3733 175.669 45.8C176.042 46.2267 176.576 46.2533 177.269 45.88C177.909 45.56 178.522 45.4267 179.109 45.48C179.696 45.48 180.149 45.64 180.469 45.96C180.842 46.28 181.029 46.76 181.029 47.4C181.029 48.04 180.709 48.7067 180.069 49.4C179.482 50.04 178.736 50.6 177.829 51.08C176.976 51.5067 176.149 51.72 175.349 51.72C174.762 51.72 174.202 51.3733 173.669 50.68C173.136 49.9333 172.656 49.0533 172.229 48.04C171.856 46.9733 171.509 45.96 171.189 45L170.709 43.16L167.269 46.44C166.576 47.1867 165.882 47.88 165.189 48.52C164.549 49.1067 164.149 49.5333 163.989 49.8C163.722 50.28 163.216 50.76 162.469 51.24C161.776 51.72 160.816 52.2 159.589 52.68ZM159.829 47.96C160.736 47.4267 161.776 46.6533 162.949 45.64C164.122 44.5733 165.269 43.4267 166.389 42.2C167.509 40.92 168.442 39.7467 169.189 38.68C170.096 37.4533 170.789 36.3067 171.269 35.24C171.749 34.1733 172.096 33.16 172.309 32.2C172.096 31.6133 171.749 31 171.269 30.36C170.789 29.6667 170.362 29.2933 169.989 29.24C168.816 29.24 167.562 29.9867 166.229 31.48C164.949 32.92 163.696 34.4933 162.469 36.2C162.256 36.4667 161.962 36.8933 161.589 37.48C161.216 38.0667 160.842 38.6267 160.469 39.16C160.149 39.64 159.936 39.96 159.829 40.12C159.669 40.3333 159.349 40.9467 158.869 41.96C158.442 42.92 158.016 43.9067 157.589 44.92C157.162 45.88 156.949 46.52 156.949 46.84C156.949 47.16 156.976 47.5067 157.029 47.88C157.136 48.2533 157.402 48.4933 157.829 48.6C158.256 48.7067 158.922 48.4933 159.829 47.96ZM189.058 53.16C188.685 53.0533 188.178 52.9467 187.538 52.84C186.898 52.7333 186.312 52.5467 185.778 52.28C185.298 51.96 185.058 51.56 185.058 51.08C185.058 50.6533 185.085 50.28 185.138 49.96C185.245 49.5867 185.458 49.2667 185.778 49C185.832 48.8933 185.858 48.8133 185.858 48.76C185.858 48.7067 185.885 48.6533 185.938 48.6C185.938 48.3333 185.885 48.0933 185.778 47.88C185.672 47.6667 185.672 47.4 185.778 47.08C185.992 46.4933 186.152 46.0133 186.258 45.64C186.418 45.2133 186.498 44.68 186.498 44.04C186.498 43.9333 186.498 43.8267 186.498 43.72C186.498 43.56 186.525 43.4267 186.578 43.32C187.005 42.1467 187.352 40.9467 187.618 39.72C187.885 38.4933 188.285 37.32 188.818 36.2C189.458 34.8133 190.285 33 191.298 30.76C192.312 28.4667 193.165 26.36 193.858 24.44C194.072 23.8533 194.312 23.48 194.578 23.32C194.898 23.1067 195.245 23.0267 195.618 23.08C196.258 23.1333 196.898 23.5067 197.538 24.2C198.178 24.84 198.658 25.4 198.978 25.88C198.445 26.8933 197.805 28.0933 197.058 29.48C196.365 30.8133 195.698 32.12 195.058 33.4C194.472 34.6267 194.045 35.64 193.778 36.44C194.525 36.4933 195.405 36.4933 196.418 36.44C197.485 36.3333 198.525 36.3333 199.538 36.44C200.712 36.5467 201.752 36.5467 202.658 36.44C203.565 36.3333 204.578 36.2 205.698 36.04C205.965 35.24 206.232 34.3333 206.498 33.32C206.818 32.3067 207.138 31.2667 207.458 30.2C207.832 29.1333 208.285 28.1467 208.818 27.24C209.352 26.3333 210.018 25.64 210.818 25.16C211.245 25.0533 211.565 25.0533 211.778 25.16C211.992 25.2133 212.285 25.3733 212.658 25.64C213.352 26.1733 213.858 26.6 214.178 26.92C214.552 27.1867 214.685 27.5067 214.578 27.88C214.472 28.2533 214.125 28.8667 213.538 29.72C213.165 30.3067 212.898 31 212.738 31.8C212.578 32.5467 212.285 33.1867 211.858 33.72C211.752 33.8267 211.538 34.3067 211.218 35.16C210.898 36.0133 210.525 37.0533 210.098 38.28C209.672 39.5067 209.245 40.7333 208.818 41.96C208.392 43.1867 208.018 44.2533 207.698 45.16C207.432 46.0667 207.298 46.6 207.298 46.76C207.245 47.4533 207.138 48.1733 206.978 48.92C206.818 49.6133 206.738 50.3333 206.738 51.08C206.738 51.5067 206.605 51.8267 206.338 52.04C206.125 52.2 205.832 52.28 205.458 52.28C204.925 52.28 204.338 52.1467 203.698 51.88C203.058 51.6133 202.578 51.3733 202.258 51.16C202.045 51 201.858 50.7333 201.698 50.36C201.592 49.9867 201.512 49.6667 201.458 49.4C201.778 48.0667 202.152 46.8133 202.578 45.64C203.058 44.4133 203.485 43.16 203.858 41.88C203.965 41.6667 204.018 41.4533 204.018 41.24C204.018 41.0267 203.965 40.8133 203.858 40.6C202.098 40.3333 200.312 40.28 198.498 40.44C196.685 40.6 194.898 40.7333 193.138 40.84C192.872 41.1067 192.552 41.7467 192.178 42.76C191.858 43.72 191.565 44.7333 191.298 45.8C191.032 46.8133 190.818 47.5867 190.658 48.12C190.712 48.4933 190.658 49.0267 190.498 49.72C190.338 50.4133 190.125 51.1067 189.858 51.8C189.592 52.44 189.325 52.8933 189.058 53.16ZM222.983 52.36C222.343 52.4667 221.65 52.36 220.903 52.04C220.157 51.72 219.49 51.2667 218.903 50.68C218.37 50.0933 218.023 49.48 217.863 48.84C217.65 47.72 217.783 46.3333 218.263 44.68C218.797 42.9733 219.543 41.1867 220.503 39.32C221.517 37.4 222.637 35.56 223.863 33.8C225.143 32.04 226.45 30.52 227.783 29.24C229.17 27.9067 230.45 27 231.623 26.52C232.21 26.1467 232.663 25.9067 232.983 25.8C233.357 25.64 233.73 25.6133 234.103 25.72C234.53 25.8267 235.143 26.0933 235.943 26.52C236.69 26.7333 237.25 26.9733 237.623 27.24C237.997 27.5067 238.477 28.04 239.063 28.84C239.49 29.64 239.81 30.44 240.023 31.24C240.237 32.04 240.423 32.9467 240.583 33.96C241.01 35.2933 241.17 36.1733 241.063 36.6C240.957 36.9733 240.797 37.2667 240.583 37.48C240.157 38.0133 240.05 38.28 240.263 38.28C240.263 38.28 240.237 38.3867 240.183 38.6C240.183 38.76 240.077 39.0267 239.863 39.4C239.49 40.5733 239.197 41.8 238.983 43.08C238.823 44.3067 238.85 45.32 239.063 46.12C239.49 47.2933 240.263 47.9867 241.383 48.2C242.503 48.4133 243.65 47.9333 244.823 46.76C245.41 46.3333 245.97 45.96 246.503 45.64C247.037 45.2667 247.303 45.2933 247.303 45.72C247.303 45.72 247.383 45.8 247.543 45.96C247.703 46.0667 247.89 46.12 248.103 46.12C248.37 46.12 248.53 46.2267 248.583 46.44C248.69 46.6533 248.69 46.9467 248.583 47.32C248.53 47.64 248.37 48.0133 248.103 48.44C247.303 49.24 246.903 49.7733 246.903 50.04C246.903 50.04 246.797 50.1467 246.583 50.36C246.423 50.52 246.13 50.7867 245.703 51.16C244.743 51.7467 243.517 52.04 242.023 52.04C240.583 52.04 239.463 51.7467 238.663 51.16C237.863 50.5733 237.117 49.7733 236.423 48.76C235.783 47.7467 235.357 46.8667 235.143 46.12L234.743 45.32L232.423 46.84C231.837 47.4267 231.197 47.9867 230.503 48.52C229.863 49.0533 229.437 49.4267 229.223 49.64C229.063 49.8533 228.877 50.04 228.663 50.2C228.503 50.36 228.317 50.44 228.103 50.44C227.89 50.44 227.703 50.44 227.543 50.44C227.383 50.44 227.303 50.44 227.303 50.44C227.303 50.6533 227.037 50.92 226.503 51.24C226.023 51.56 225.437 51.8267 224.743 52.04C224.103 52.2533 223.517 52.36 222.983 52.36ZM222.183 48.04C222.503 48.04 223.063 47.8 223.863 47.32C224.717 46.7867 225.65 46.1733 226.663 45.48C227.73 44.7867 228.663 44.0933 229.463 43.4C230.317 42.7067 230.903 42.1733 231.223 41.8C231.437 41.5867 231.783 41.24 232.263 40.76C232.743 40.2267 233.17 39.7733 233.543 39.4C234.77 38.0133 235.623 36.4933 236.103 34.84C236.583 33.1333 236.53 31.8 235.943 30.84C235.73 30.2533 235.463 29.9333 235.143 29.88C234.823 29.8267 234.157 30.0133 233.143 30.44C232.503 30.8133 231.703 31.5333 230.743 32.6C229.837 33.6133 228.85 34.8133 227.783 36.2C226.77 37.5333 225.81 38.92 224.903 40.36C223.997 41.8 223.25 43.1333 222.663 44.36C222.077 45.5867 221.783 46.5467 221.783 47.24C221.783 47.4533 221.837 47.64 221.943 47.8C222.103 47.96 222.183 48.04 222.183 48.04ZM253.396 51.08C252.809 50.7067 252.276 50.2267 251.796 49.64C251.316 49 251.076 48.2 251.076 47.24C251.076 46.7067 251.183 45.8 251.396 44.52C251.609 43.24 251.903 41.8 252.276 40.2C252.649 38.6 253.023 37.1067 253.396 35.72C253.929 34.76 254.383 33.8 254.756 32.84C255.129 31.88 255.316 31.2933 255.316 31.08C255.423 30.44 255.556 29.6933 255.716 28.84C255.929 27.9867 256.143 27.2133 256.356 26.52C256.569 25.8267 256.729 25.4267 256.836 25.32C257.103 25.0533 257.423 24.8933 257.796 24.84C258.169 24.7333 258.543 24.7867 258.916 25C259.343 25.16 259.663 25.5067 259.876 26.04C260.463 26.68 260.756 27.4533 260.756 28.36C260.756 29.2133 260.463 30.4933 259.876 32.2C259.396 33.2667 258.916 34.52 258.436 35.96C257.956 37.4 257.529 38.7333 257.156 39.96C256.836 41.1333 256.649 41.9333 256.596 42.36L254.996 42.84C255.903 41.9867 256.756 41.1067 257.556 40.2C258.356 39.24 258.943 38.4933 259.316 37.96C260.223 36.7333 260.996 35.72 261.636 34.92C262.329 34.0667 263.209 33.0533 264.276 31.88C265.343 30.6533 266.383 29.9067 267.396 29.64C268.463 29.32 269.289 29.16 269.876 29.16C271.049 29.3733 271.983 29.9867 272.676 31C273.423 31.96 273.903 33.4 274.116 35.32C274.116 36.0667 274.036 36.9467 273.876 37.96C273.769 38.9733 273.716 39.48 273.716 39.48C273.716 39.48 274.143 38.92 274.996 37.8C275.903 36.68 277.103 35.4533 278.596 34.12C279.609 33.3733 280.596 32.9467 281.556 32.84C282.516 32.68 283.369 33 284.116 33.8C285.503 34.5467 286.409 35.6933 286.836 37.24C287.263 38.7333 287.369 40.6533 287.156 43C286.996 44.3867 286.969 45.4267 287.076 46.12C287.183 46.76 287.343 47.4 287.556 48.04C287.983 48.2533 288.063 48.7067 287.796 49.4C287.529 50.04 287.209 50.36 286.836 50.36C286.303 50.36 285.689 50.2533 284.996 50.04C284.356 49.8267 283.769 49.48 283.236 49C282.756 48.4667 282.516 47.7467 282.516 46.84V41.88C282.516 40.7067 282.463 39.7467 282.356 39C282.303 38.2533 282.169 37.8 281.956 37.64C281.369 37.32 280.516 37.6667 279.396 38.68C278.276 39.6933 277.076 41.0533 275.796 42.76C274.516 44.4667 273.316 46.2267 272.196 48.04C271.183 49.6933 270.543 50.6533 270.276 50.92C270.063 51.1333 269.663 51.0533 269.076 50.68C267.903 50.3067 267.156 49.8 266.836 49.16C266.569 48.4667 266.543 47.6933 266.756 46.84C267.023 45.9333 267.343 44.7067 267.716 43.16C268.143 41.6133 268.543 40.12 268.916 38.68C269.289 37.1867 269.529 36.12 269.636 35.48C269.423 35.0533 269.049 34.92 268.516 35.08C268.036 35.1867 267.529 35.4267 266.996 35.8C266.356 36.2267 265.583 37.0267 264.676 38.2C263.769 39.3733 262.836 40.7333 261.876 42.28C261.236 43.2933 260.569 44.3067 259.876 45.32C259.183 46.28 258.543 47.1333 257.956 47.88C257.369 48.6267 256.863 49.1867 256.436 49.56C255.689 50.7333 255.183 51.3733 254.916 51.48C254.649 51.5867 254.143 51.4533 253.396 51.08ZM322.674 41.64C322.354 41.64 321.954 41.64 321.474 41.64C321.047 41.5867 320.594 41.48 320.114 41.32C319.314 41.32 318.781 41.2667 318.514 41.16C318.247 41 318.007 40.7333 317.794 40.36C317.314 39.56 317.287 39.0267 317.714 38.76C318.141 38.44 319.261 38.1733 321.074 37.96C322.301 37.7467 323.447 37.6133 324.514 37.56C325.581 37.4533 326.594 37.3733 327.554 37.32C328.567 37.2667 329.474 37.24 330.274 37.24C331.501 37.24 332.381 37.2667 332.914 37.32C333.447 37.32 333.954 37.6133 334.434 38.2C335.127 39 335.367 39.7467 335.154 40.44C334.994 41.08 334.327 41.3467 333.154 41.24C332.781 41.2933 332.061 41.3467 330.994 41.4C329.927 41.4533 328.487 41.48 326.674 41.48C326.194 41.48 325.661 41.5067 325.074 41.56C324.487 41.6133 323.687 41.64 322.674 41.64ZM316.434 53.8C315.741 53.8 315.181 53.6667 314.754 53.4C314.381 53.1333 313.901 52.76 313.314 52.28C312.301 51.2133 311.581 50.2 311.154 49.24C310.727 48.2267 310.594 47.2667 310.754 46.36C310.914 45.9333 310.967 45.5333 310.914 45.16C310.914 44.7333 310.914 44.52 310.914 44.52C310.647 44.2533 310.567 44.0933 310.674 44.04C310.781 43.9333 310.887 43.7733 310.994 43.56C311.314 43.56 311.421 43.2667 311.314 42.68C311.207 42.2533 311.421 41.32 311.954 39.88C312.487 38.44 313.154 37.08 313.954 35.8C314.274 35.2667 314.754 34.5733 315.394 33.72C316.034 32.8133 316.727 31.9333 317.474 31.08C318.274 30.1733 318.994 29.4533 319.634 28.92C320.967 27.8 322.141 26.9733 323.154 26.44C324.167 25.9067 325.261 25.5067 326.434 25.24C327.607 24.9733 328.407 24.84 328.834 24.84C329.314 24.84 329.954 25.2667 330.754 26.12C331.981 26.6533 332.861 27.2933 333.394 28.04C333.981 28.7867 334.354 29.88 334.514 31.32C334.674 32.92 334.541 34.76 334.114 36.84C333.741 38.8667 332.487 41.4 330.354 44.44C329.021 46.36 327.794 47.8 326.674 48.76C325.554 49.6667 324.221 50.5733 322.674 51.48C321.554 52.2267 320.541 52.7867 319.634 53.16C318.727 53.48 317.661 53.6933 316.434 53.8ZM324.114 45.32C325.394 43.88 326.407 42.52 327.154 41.24C327.954 39.96 328.701 38.3333 329.394 36.36C329.607 35.7733 329.741 35.0533 329.794 34.2C329.847 33.2933 329.821 32.4667 329.714 31.72C329.661 30.92 329.474 30.4667 329.154 30.36C328.514 29.9867 327.741 29.88 326.834 30.04C325.927 30.1467 324.941 30.6533 323.874 31.56C322.221 32.9467 320.781 34.68 319.554 36.76C318.327 38.7867 317.127 41.1067 315.954 43.72C315.154 45.64 314.967 47.1867 315.394 48.36C315.874 49.48 316.861 49.88 318.354 49.56C319.901 49.1867 321.821 47.7733 324.114 45.32ZM341.677 51.08C341.091 50.7067 340.557 50.2267 340.077 49.64C339.597 49 339.357 48.2 339.357 47.24C339.357 46.7067 339.464 45.8 339.677 44.52C339.891 43.24 340.184 41.8 340.557 40.2C340.931 38.6 341.304 37.1067 341.677 35.72C342.211 34.76 342.664 33.8 343.037 32.84C343.411 31.88 343.597 31.2933 343.597 31.08C343.704 30.44 343.837 29.6933 343.997 28.84C344.211 27.9867 344.424 27.2133 344.637 26.52C344.851 25.8267 345.011 25.4267 345.117 25.32C345.384 25.0533 345.704 24.8933 346.077 24.84C346.451 24.7333 346.824 24.7867 347.197 25C347.624 25.16 347.944 25.5067 348.157 26.04C348.744 26.68 349.037 27.4533 349.037 28.36C349.037 29.2133 348.744 30.4933 348.157 32.2C347.677 33.2667 347.197 34.52 346.717 35.96C346.237 37.4 345.811 38.7333 345.437 39.96C345.117 41.1333 344.931 41.9333 344.877 42.36L343.277 42.84C344.184 41.9867 345.037 41.1067 345.837 40.2C346.637 39.24 347.224 38.4933 347.597 37.96C348.504 36.7333 349.277 35.72 349.917 34.92C350.611 34.0667 351.491 33.0533 352.557 31.88C353.624 30.6533 354.664 29.9067 355.677 29.64C356.744 29.32 357.571 29.16 358.157 29.16C359.331 29.3733 360.264 29.9867 360.957 31C361.704 31.96 362.184 33.4 362.397 35.32C362.397 36.0667 362.317 36.9467 362.157 37.96C362.051 38.9733 361.997 39.48 361.997 39.48C361.997 39.48 362.424 38.92 363.277 37.8C364.184 36.68 365.384 35.4533 366.877 34.12C367.891 33.3733 368.877 32.9467 369.837 32.84C370.797 32.68 371.651 33 372.397 33.8C373.784 34.5467 374.691 35.6933 375.117 37.24C375.544 38.7333 375.651 40.6533 375.437 43C375.277 44.3867 375.251 45.4267 375.357 46.12C375.464 46.76 375.624 47.4 375.837 48.04C376.264 48.2533 376.344 48.7067 376.077 49.4C375.811 50.04 375.491 50.36 375.117 50.36C374.584 50.36 373.971 50.2533 373.277 50.04C372.637 49.8267 372.051 49.48 371.517 49C371.037 48.4667 370.797 47.7467 370.797 46.84V41.88C370.797 40.7067 370.744 39.7467 370.637 39C370.584 38.2533 370.451 37.8 370.237 37.64C369.651 37.32 368.797 37.6667 367.677 38.68C366.557 39.6933 365.357 41.0533 364.077 42.76C362.797 44.4667 361.597 46.2267 360.477 48.04C359.464 49.6933 358.824 50.6533 358.557 50.92C358.344 51.1333 357.944 51.0533 357.357 50.68C356.184 50.3067 355.437 49.8 355.117 49.16C354.851 48.4667 354.824 47.6933 355.037 46.84C355.304 45.9333 355.624 44.7067 355.997 43.16C356.424 41.6133 356.824 40.12 357.197 38.68C357.571 37.1867 357.811 36.12 357.917 35.48C357.704 35.0533 357.331 34.92 356.797 35.08C356.317 35.1867 355.811 35.4267 355.277 35.8C354.637 36.2267 353.864 37.0267 352.957 38.2C352.051 39.3733 351.117 40.7333 350.157 42.28C349.517 43.2933 348.851 44.3067 348.157 45.32C347.464 46.28 346.824 47.1333 346.237 47.88C345.651 48.6267 345.144 49.1867 344.717 49.56C343.971 50.7333 343.464 51.3733 343.197 51.48C342.931 51.5867 342.424 51.4533 341.677 51.08ZM384.06 75.24C383.474 75.0267 382.887 74.5467 382.3 73.8C381.714 73.1067 381.42 72.52 381.42 72.04C381.42 71.72 381.554 70.8667 381.82 69.48C382.087 68.0933 382.434 66.44 382.86 64.52C383.287 62.6 383.767 60.6267 384.3 58.6C384.887 56.6267 385.5 54.8667 386.14 53.32C386.247 53.1067 386.487 52.5467 386.86 51.64C387.234 50.68 387.634 49.5067 388.06 48.12L388.86 48.2L392.62 48.76L393.5 48.92C392.38 51.5333 391.5 53.7467 390.86 55.56C390.22 57.4267 389.66 59.2933 389.18 61.16C388.007 64.68 387.074 67.3733 386.38 69.24C385.74 71.16 385.26 72.52 384.94 73.32C384.674 74.12 384.46 74.6533 384.3 74.92C384.247 74.9733 384.194 75.0267 384.14 75.08C384.14 75.1333 384.114 75.1867 384.06 75.24ZM391.26 52.44C390.727 52.8133 390.354 53 390.14 53C389.927 52.9467 389.527 52.6267 388.94 52.04C387.927 51.08 387.207 49.2667 386.78 46.6C386.407 43.88 386.22 40.0667 386.22 35.16C386.434 32.9733 386.54 31.1067 386.54 29.56C386.594 28.0133 386.62 27.1333 386.62 26.92C386.78 26.7067 387.1 26.6 387.58 26.6C388.114 26.6 388.567 26.7067 388.94 26.92C389.474 27.1867 389.82 27.5867 389.98 28.12C390.194 28.6533 390.327 29.6133 390.38 31C390.434 32.3333 390.46 34.3867 390.46 37.16C390.3 39.2933 390.22 41.16 390.22 42.76C390.22 44.3067 390.3 45.1867 390.46 45.4C390.674 45.7733 390.914 45.88 391.18 45.72C391.5 45.5067 392.06 45 392.86 44.2C393.287 43.6133 393.82 42.84 394.46 41.88C395.1 40.8667 395.607 40.0667 395.98 39.48C396.567 38.7333 397.1 38.0133 397.58 37.32C398.114 36.6267 398.487 36.1733 398.7 35.96C398.914 35.5333 399.18 35.1333 399.5 34.76C399.82 34.3867 400.087 34.0133 400.3 33.64C400.887 32.6267 401.5 31.8 402.14 31.16C402.78 30.4667 403.207 30.12 403.42 30.12C403.634 30.28 403.82 30.3333 403.98 30.28C404.194 30.1733 404.407 30.12 404.62 30.12C404.994 29.7467 405.5 29.7467 406.14 30.12C406.354 30.28 406.54 30.4667 406.7 30.68C406.86 30.84 406.94 31.0267 406.94 31.24C406.94 31.5067 406.727 32.0667 406.3 32.92C405.927 33.7733 405.474 34.6 404.94 35.4C404.46 36.1467 404.087 36.6 403.82 36.76C403.82 36.76 403.74 36.84 403.58 37C403.42 37.16 403.234 37.3467 403.02 37.56C402.914 37.9333 402.567 38.6 401.98 39.56C401.394 40.4667 400.674 41.5067 399.82 42.68C398.967 43.8533 398.087 45.0267 397.18 46.2C396.274 47.3733 395.474 48.4133 394.78 49.32C394.247 50.0667 393.634 50.7333 392.94 51.32C392.247 51.8533 391.687 52.2267 391.26 52.44ZM413.748 75.24C413.161 75.0267 412.574 74.5467 411.988 73.8C411.401 73.1067 411.108 72.52 411.108 72.04C411.108 71.72 411.241 70.8667 411.508 69.48C411.774 68.0933 412.121 66.44 412.548 64.52C412.974 62.6 413.454 60.6267 413.988 58.6C414.574 56.6267 415.188 54.8667 415.828 53.32C415.934 53.1067 416.174 52.5467 416.548 51.64C416.921 50.68 417.321 49.5067 417.748 48.12L418.548 48.2L422.308 48.76L423.188 48.92C422.068 51.5333 421.188 53.7467 420.548 55.56C419.908 57.4267 419.348 59.2933 418.868 61.16C417.694 64.68 416.761 67.3733 416.068 69.24C415.428 71.16 414.948 72.52 414.628 73.32C414.361 74.12 414.148 74.6533 413.988 74.92C413.934 74.9733 413.881 75.0267 413.828 75.08C413.828 75.1333 413.801 75.1867 413.748 75.24ZM420.948 52.44C420.414 52.8133 420.041 53 419.828 53C419.614 52.9467 419.214 52.6267 418.628 52.04C417.614 51.08 416.894 49.2667 416.468 46.6C416.094 43.88 415.908 40.0667 415.908 35.16C416.121 32.9733 416.228 31.1067 416.228 29.56C416.281 28.0133 416.308 27.1333 416.308 26.92C416.468 26.7067 416.788 26.6 417.268 26.6C417.801 26.6 418.254 26.7067 418.628 26.92C419.161 27.1867 419.508 27.5867 419.668 28.12C419.881 28.6533 420.014 29.6133 420.068 31C420.121 32.3333 420.148 34.3867 420.148 37.16C419.988 39.2933 419.908 41.16 419.908 42.76C419.908 44.3067 419.988 45.1867 420.148 45.4C420.361 45.7733 420.601 45.88 420.868 45.72C421.188 45.5067 421.748 45 422.548 44.2C422.974 43.6133 423.508 42.84 424.148 41.88C424.788 40.8667 425.294 40.0667 425.668 39.48C426.254 38.7333 426.788 38.0133 427.268 37.32C427.801 36.6267 428.174 36.1733 428.388 35.96C428.601 35.5333 428.868 35.1333 429.188 34.76C429.508 34.3867 429.774 34.0133 429.988 33.64C430.574 32.6267 431.188 31.8 431.828 31.16C432.468 30.4667 432.894 30.12 433.108 30.12C433.321 30.28 433.508 30.3333 433.668 30.28C433.881 30.1733 434.094 30.12 434.308 30.12C434.681 29.7467 435.188 29.7467 435.828 30.12C436.041 30.28 436.228 30.4667 436.388 30.68C436.548 30.84 436.628 31.0267 436.628 31.24C436.628 31.5067 436.414 32.0667 435.988 32.92C435.614 33.7733 435.161 34.6 434.628 35.4C434.148 36.1467 433.774 36.6 433.508 36.76C433.508 36.76 433.428 36.84 433.268 37C433.108 37.16 432.921 37.3467 432.708 37.56C432.601 37.9333 432.254 38.6 431.668 39.56C431.081 40.4667 430.361 41.5067 429.508 42.68C428.654 43.8533 427.774 45.0267 426.868 46.2C425.961 47.3733 425.161 48.4133 424.468 49.32C423.934 50.0667 423.321 50.7333 422.628 51.32C421.934 51.8533 421.374 52.2267 420.948 52.44ZM452.715 53.8C452.235 53.5867 451.755 53.3467 451.275 53.08C450.849 52.8133 450.502 52.4133 450.235 51.88C449.809 51.24 449.569 50.4667 449.515 49.56C449.515 48.6533 449.542 47.56 449.595 46.28C449.595 46.0667 449.702 45.6133 449.915 44.92C450.129 44.2267 450.369 43.48 450.635 42.68C450.955 41.8267 451.222 41.1067 451.435 40.52C451.649 39.88 451.755 39.5333 451.755 39.48C451.222 39.5867 450.769 39.7733 450.395 40.04C450.022 40.3067 449.649 40.5733 449.275 40.84C448.742 41.3733 448.022 41.9067 447.115 42.44C446.209 42.9733 445.382 43.3733 444.635 43.64C444.102 43.8533 443.355 43.7733 442.395 43.4C441.489 42.9733 440.822 42.3867 440.395 41.64C440.235 41.2667 440.102 40.92 439.995 40.6C439.942 40.2267 439.889 39.8533 439.835 39.48C439.622 37.72 439.915 36.0133 440.715 34.36C441.355 32.9733 442.022 31.6133 442.715 30.28C443.409 28.8933 444.075 27.5333 444.715 26.2C444.982 25.7733 445.249 25.3733 445.515 25C445.782 24.5733 445.969 24.1467 446.075 23.72C446.129 23.56 446.289 23.32 446.555 23C446.822 22.68 447.115 22.52 447.435 22.52C448.022 22.5733 448.555 22.7067 449.035 22.92C449.569 23.08 450.022 23.4533 450.395 24.04C450.715 24.4133 450.875 24.84 450.875 25.32C450.875 25.7467 450.662 26.2267 450.235 26.76C449.222 28.1467 448.289 29.6133 447.435 31.16C446.635 32.7067 445.862 34.2533 445.115 35.8C444.902 36.2267 444.715 36.7333 444.555 37.32C444.395 37.9067 444.369 38.4667 444.475 39C445.275 39 446.369 38.52 447.755 37.56C449.142 36.5467 450.609 35.4 452.155 34.12C453.702 32.84 455.062 31.72 456.235 30.76C457.462 29.7467 458.529 28.52 459.435 27.08C459.702 26.6533 460.022 26.3333 460.395 26.12C460.769 25.8533 461.275 25.6933 461.915 25.64C462.075 25.6933 462.289 25.8 462.555 25.96C462.822 26.12 463.115 26.2533 463.435 26.36C463.702 27 463.942 27.5067 464.155 27.88C464.422 28.2533 464.529 28.6267 464.475 29C464.422 29.3733 464.049 29.9333 463.355 30.68C463.089 30.7333 462.635 31.1867 461.995 32.04C461.355 32.84 460.715 33.7467 460.075 34.76C459.435 35.72 458.955 36.52 458.635 37.16C458.475 37.4267 458.262 37.72 457.995 38.04C457.782 38.3067 457.569 38.6267 457.355 39L454.315 46.36C454.262 46.84 454.182 47.3733 454.075 47.96C453.969 48.4933 454.022 48.92 454.235 49.24C454.662 49.24 455.035 49.1867 455.355 49.08C455.675 48.9733 455.942 49.1067 456.155 49.48C456.422 50.3333 456.555 50.9467 456.555 51.32C456.609 51.64 456.235 52.2533 455.435 53.16C454.689 53.96 453.782 54.1733 452.715 53.8ZM469.842 75.24C469.255 75.0267 468.668 74.5467 468.082 73.8C467.495 73.1067 467.202 72.52 467.202 72.04C467.202 71.72 467.335 70.8667 467.602 69.48C467.868 68.0933 468.215 66.44 468.642 64.52C469.068 62.6 469.548 60.6267 470.082 58.6C470.668 56.6267 471.282 54.8667 471.922 53.32C472.028 53.1067 472.268 52.5467 472.642 51.64C473.015 50.68 473.415 49.5067 473.842 48.12L474.642 48.2L478.402 48.76L479.282 48.92C478.162 51.5333 477.282 53.7467 476.642 55.56C476.002 57.4267 475.442 59.2933 474.962 61.16C473.788 64.68 472.855 67.3733 472.162 69.24C471.522 71.16 471.042 72.52 470.722 73.32C470.455 74.12 470.242 74.6533 470.082 74.92C470.028 74.9733 469.975 75.0267 469.922 75.08C469.922 75.1333 469.895 75.1867 469.842 75.24ZM477.042 52.44C476.508 52.8133 476.135 53 475.922 53C475.708 52.9467 475.308 52.6267 474.722 52.04C473.708 51.08 472.988 49.2667 472.562 46.6C472.188 43.88 472.002 40.0667 472.002 35.16C472.215 32.9733 472.322 31.1067 472.322 29.56C472.375 28.0133 472.402 27.1333 472.402 26.92C472.562 26.7067 472.882 26.6 473.362 26.6C473.895 26.6 474.348 26.7067 474.722 26.92C475.255 27.1867 475.602 27.5867 475.762 28.12C475.975 28.6533 476.108 29.6133 476.162 31C476.215 32.3333 476.242 34.3867 476.242 37.16C476.082 39.2933 476.002 41.16 476.002 42.76C476.002 44.3067 476.082 45.1867 476.242 45.4C476.455 45.7733 476.695 45.88 476.962 45.72C477.282 45.5067 477.842 45 478.642 44.2C479.068 43.6133 479.602 42.84 480.242 41.88C480.882 40.8667 481.388 40.0667 481.762 39.48C482.348 38.7333 482.882 38.0133 483.362 37.32C483.895 36.6267 484.268 36.1733 484.482 35.96C484.695 35.5333 484.962 35.1333 485.282 34.76C485.602 34.3867 485.868 34.0133 486.082 33.64C486.668 32.6267 487.282 31.8 487.922 31.16C488.562 30.4667 488.988 30.12 489.202 30.12C489.415 30.28 489.602 30.3333 489.762 30.28C489.975 30.1733 490.188 30.12 490.402 30.12C490.775 29.7467 491.282 29.7467 491.922 30.12C492.135 30.28 492.322 30.4667 492.482 30.68C492.642 30.84 492.722 31.0267 492.722 31.24C492.722 31.5067 492.508 32.0667 492.082 32.92C491.708 33.7733 491.255 34.6 490.722 35.4C490.242 36.1467 489.868 36.6 489.602 36.76C489.602 36.76 489.522 36.84 489.362 37C489.202 37.16 489.015 37.3467 488.802 37.56C488.695 37.9333 488.348 38.6 487.762 39.56C487.175 40.4667 486.455 41.5067 485.602 42.68C484.748 43.8533 483.868 45.0267 482.962 46.2C482.055 47.3733 481.255 48.4133 480.562 49.32C480.028 50.0667 479.415 50.7333 478.722 51.32C478.028 51.8533 477.468 52.2267 477.042 52.44ZM555.544 30.76C555.544 30.76 555.251 31.0267 554.664 31.56C554.077 32.04 553.357 32.6533 552.504 33.4C551.651 34.0933 550.797 34.8133 549.944 35.56C549.144 36.2533 548.451 36.8667 547.864 37.4C547.331 37.88 547.064 38.12 547.064 38.12L541.144 42.92C541.144 43.6133 541.251 44.1733 541.464 44.6C541.677 44.9733 542.051 45.6133 542.584 46.52C543.171 47.48 543.891 48.44 544.744 49.4C545.651 50.36 546.477 51.1867 547.224 51.88C548.024 52.5733 548.531 53.0533 548.744 53.32C549.064 53.8 549.011 54.1467 548.584 54.36C548.157 54.5733 547.624 54.7333 546.984 54.84C546.344 54.8933 545.864 54.9733 545.544 55.08C544.637 54.92 543.704 54.36 542.744 53.4C541.784 52.44 540.904 51.3733 540.104 50.2C539.357 49.0267 538.851 48.0933 538.584 47.4C537.837 46.44 537.277 45.64 536.904 45C536.531 44.36 536.131 43.3733 535.704 42.04C535.384 42.4133 535.117 42.76 534.904 43.08C534.691 43.4 534.424 43.9333 534.104 44.68C533.891 45.32 533.624 46.0667 533.304 46.92C532.984 47.72 532.691 48.44 532.424 49.08C532.211 49.6667 532.157 49.96 532.264 49.96C532.371 50.76 532.344 51.32 532.184 51.64C532.024 51.96 531.704 52.36 531.224 52.84L529.064 52.92C528.051 52.2267 527.437 51.56 527.224 50.92C527.011 50.2267 526.904 49.56 526.904 48.92C527.437 47.8533 527.971 46.76 528.504 45.64C529.091 44.4667 529.517 43.24 529.784 41.96C529.464 41.96 529.144 42.0133 528.824 42.12C528.504 42.1733 528.051 42.2533 527.464 42.36C526.664 43.16 525.917 43.8533 525.224 44.44C524.584 44.9733 523.837 45.6133 522.984 46.36C522.184 47.1067 521.091 48.1733 519.704 49.56C518.851 50.36 517.997 51.1867 517.144 52.04C516.291 52.8933 515.517 53.8267 514.824 54.84C514.291 55.5333 513.171 55.6133 511.464 55.08L509.704 52.36C509.704 51.9333 509.811 51.56 510.024 51.24C510.237 50.92 510.531 50.6533 510.904 50.44C511.117 50.28 511.624 49.8533 512.424 49.16C513.224 48.4133 514.104 47.5867 515.064 46.68C516.077 45.7733 516.904 45.0267 517.544 44.44C517.704 44.28 518.077 43.96 518.664 43.48C519.304 42.9467 519.917 42.44 520.504 41.96C521.144 41.48 521.491 41.24 521.544 41.24C521.971 40.8133 522.691 40.2 523.704 39.4C524.717 38.6 525.491 37.9333 526.024 37.4C525.491 36.5467 524.931 35.6133 524.344 34.6C523.811 33.5333 523.171 32.5467 522.424 31.64C521.891 30.7867 521.357 29.9067 520.824 29C520.344 28.0933 519.811 27.16 519.224 26.2C519.491 25.4533 519.997 25.0533 520.744 25C521.491 24.9467 522.237 25.1067 522.984 25.48C524.264 26.6533 525.251 28.1733 525.944 30.04C526.744 31.32 527.411 32.36 527.944 33.16C528.477 33.9067 528.984 34.6267 529.464 35.32C529.944 36.0133 530.504 36.8933 531.144 37.96C531.517 36.2 531.917 34.4133 532.344 32.6C532.771 30.7867 533.091 29.32 533.304 28.2C533.411 27.7733 533.491 27.3467 533.544 26.92C533.651 26.4933 533.651 26.04 533.544 25.56C533.491 25.2933 533.491 25.0533 533.544 24.84C533.651 24.5733 533.731 24.36 533.784 24.2C533.891 23.8267 534.104 23.5867 534.424 23.48C534.744 23.3733 535.091 23.4533 535.464 23.72C536.264 24.2533 537.011 24.92 537.704 25.72C538.451 26.52 538.691 27.4 538.424 28.36C538.424 28.4133 538.291 29 538.024 30.12C537.757 31.1867 537.464 32.44 537.144 33.88C536.824 35.2667 536.531 36.4933 536.264 37.56C535.997 38.6267 535.864 39.1867 535.864 39.24L536.664 39.4C537.731 38.7067 538.824 37.9867 539.944 37.24C541.064 36.44 541.917 35.8 542.504 35.32C543.251 34.7867 544.184 34.0133 545.304 33C546.424 31.9867 547.517 30.9467 548.584 29.88C549.651 28.8133 550.477 27.9867 551.064 27.4C551.544 26.9733 551.864 26.7067 552.024 26.6C552.237 26.44 552.637 26.3067 553.224 26.2C553.811 26.5733 554.371 27.08 554.904 27.72C555.491 28.3067 555.837 28.8933 555.944 29.48C555.997 30.0133 555.864 30.44 555.544 30.76ZM555.693 52.12C555.479 51.6933 555.213 51.3733 554.893 51.16C554.573 50.8933 554.413 50.6533 554.413 50.44C554.413 50.2267 554.386 50.0133 554.333 49.8C554.333 49.5333 554.226 49.2933 554.013 49.08C553.746 48.76 553.773 48.04 554.093 46.92C554.413 45.7467 554.946 44.3333 555.693 42.68C556.439 40.9733 557.319 39.1867 558.333 37.32C558.759 36.8933 559.186 36.3333 559.613 35.64C560.039 34.9467 560.359 34.4933 560.573 34.28C560.573 34.0667 560.653 33.88 560.813 33.72C560.973 33.5067 561.159 33.4 561.373 33.4V32.92C561.373 32.6533 561.613 32.2 562.093 31.56C562.626 30.92 563.266 30.2267 564.013 29.48C564.759 28.68 565.533 27.9333 566.333 27.24C567.133 26.4933 567.799 25.96 568.333 25.64C569.453 24.8933 570.599 24.44 571.773 24.28C572.999 24.12 574.039 24.3867 574.893 25.08C575.053 25.24 575.319 25.5067 575.693 25.88C576.066 26.2533 576.493 26.68 576.973 27.16C577.506 27.5867 578.039 28.04 578.573 28.52L581.533 31.16L580.093 35.16C579.399 37.2933 579.213 39.16 579.533 40.76C579.906 42.36 580.439 43.7467 581.133 44.92C581.399 45.5067 581.933 46.0667 582.733 46.6C583.586 47.1333 584.386 47.4533 585.133 47.56C585.559 47.6133 585.959 47.7733 586.333 48.04C586.706 48.3067 586.893 48.7333 586.893 49.32C586.893 49.8533 586.786 50.28 586.573 50.6C586.359 50.92 585.986 51.1333 585.453 51.24C583.693 51.4533 582.039 51.0267 580.493 49.96C578.999 48.8933 577.613 47.1333 576.333 44.68C576.119 44.36 575.826 43.7733 575.453 42.92C575.133 42.0133 574.946 41.4267 574.893 41.16C574.679 41.4267 574.279 41.9333 573.693 42.68C573.106 43.3733 572.653 43.88 572.333 44.2C568.546 48.04 565.266 50.6267 562.493 51.96C559.773 53.24 557.506 53.2933 555.693 52.12ZM558.573 47.64C558.573 48.0133 559.133 48.0133 560.253 47.64C561.426 47.2133 562.679 46.4667 564.013 45.4C565.826 43.8533 567.639 42.1467 569.453 40.28C571.319 38.4133 572.813 36.68 573.933 35.08L575.693 32.2C575.159 30.9733 574.573 30.1467 573.933 29.72C573.346 29.24 572.839 29 572.413 29C571.719 29 570.679 29.64 569.293 30.92C567.959 32.2 566.519 33.9067 564.973 36.04C563.426 38.1733 561.959 40.52 560.573 43.08C560.039 44.1467 559.559 45.1867 559.133 46.2C558.759 47.16 558.573 47.64 558.573 47.64ZM609.175 54.84C608.801 55.0533 608.295 54.9733 607.655 54.6C607.068 54.2267 606.481 53.6667 605.895 52.92C605.521 52.28 605.255 51.5867 605.095 50.84C604.988 50.0933 604.935 49.0533 604.935 47.72C604.988 46.6533 604.935 45.96 604.775 45.64C604.668 45.32 604.375 45.3733 603.895 45.8C603.415 46.1733 602.588 46.9467 601.415 48.12C600.081 49.4533 598.801 50.4933 597.575 51.24C596.401 51.9867 595.441 52.3333 594.695 52.28C594.321 52.28 593.895 52.0933 593.415 51.72C592.988 51.2933 592.588 50.7867 592.215 50.2C591.841 49.56 591.521 48.92 591.255 48.28C590.935 47.1067 590.881 45.6133 591.095 43.8C591.361 41.9333 591.788 39.9867 592.375 37.96C592.961 35.9333 593.628 34.0133 594.375 32.2C595.175 30.3867 595.975 28.92 596.775 27.8C597.628 26.68 598.375 26.12 599.015 26.12C599.441 26.12 599.815 26.3333 600.135 26.76C600.508 27.1867 600.881 27.8533 601.255 28.76C601.468 29.1333 601.548 29.4533 601.495 29.72C601.495 29.9867 601.281 30.3067 600.855 30.68C600.375 31.32 599.815 32.28 599.175 33.56C598.588 34.84 598.001 36.2267 597.415 37.72C596.881 39.2133 596.401 40.6533 595.975 42.04C595.548 43.4267 595.255 44.5733 595.095 45.48C594.935 46.3333 594.961 46.76 595.175 46.76C595.921 46.76 596.801 46.4667 597.815 45.88C598.881 45.24 599.895 44.4667 600.855 43.56C601.975 42.44 602.961 41.2133 603.815 39.88C604.721 38.5467 605.628 37.1333 606.535 35.64C607.228 34.5733 607.948 33.4 608.695 32.12C609.495 30.84 610.001 29.9333 610.215 29.4C610.961 28.0133 611.521 27.08 611.895 26.6C612.268 26.0667 612.721 25.72 613.255 25.56C613.521 25.56 613.761 25.56 613.975 25.56C614.241 25.56 614.375 25.56 614.375 25.56C614.695 25.6133 615.068 25.8533 615.495 26.28C615.921 26.4933 616.161 26.7067 616.215 26.92C616.268 27.08 616.295 27.2933 616.295 27.56C616.081 28.0933 615.735 28.8933 615.255 29.96C614.828 30.9733 614.508 31.72 614.295 32.2C613.281 34.4933 612.268 36.76 611.255 39C610.295 41.1867 609.601 43.4267 609.175 45.72C609.068 46.4667 609.041 47.3467 609.095 48.36C609.201 49.32 609.361 50.0133 609.575 50.44C609.735 50.76 609.921 51.1333 610.135 51.56C610.401 51.9333 610.695 52.2533 611.015 52.52C611.495 52.84 611.575 53.1867 611.255 53.56C610.988 53.9333 610.615 54.2533 610.135 54.52C609.655 54.7333 609.335 54.84 609.175 54.84ZM608.135 21.64C606.481 21.8533 605.095 21.3733 603.975 20.2C602.855 19.0267 602.001 17.2933 601.415 15C601.308 14.5733 601.255 14.2 601.255 13.88C601.308 13.5067 601.415 13.1867 601.575 12.92C601.681 12.7067 601.895 12.5467 602.215 12.44C602.535 12.28 602.801 12.2533 603.015 12.36C603.761 12.6267 604.295 12.9733 604.615 13.4C604.988 13.7733 605.228 14.2533 605.335 14.84C605.441 15.1067 605.495 15.3733 605.495 15.64C605.548 15.9067 605.575 16.0133 605.575 15.96C605.841 16.8133 606.188 17.4 606.615 17.72C607.041 18.04 607.681 18.0133 608.535 17.64C609.441 17.2667 610.321 16.84 611.175 16.36C612.081 15.88 612.881 15.2933 613.575 14.6C614.161 14.0133 614.721 13.48 615.255 13C615.841 12.52 616.401 12.0133 616.935 11.48L617.015 11.4C617.228 11.24 617.495 11.1867 617.815 11.24C618.135 11.2933 618.321 11.3733 618.375 11.48C618.748 11.8533 618.935 12.2267 618.935 12.6C618.935 12.9733 618.935 13.3733 618.935 13.8L618.855 13.96C618.961 14.28 618.695 14.8933 618.055 15.8C617.468 16.7067 616.748 17.48 615.895 18.12C615.148 18.7067 614.348 19.24 613.495 19.72C612.641 20.2 611.761 20.6533 610.855 21.08C610.481 21.2933 610.081 21.4267 609.655 21.48C609.281 21.48 608.775 21.5333 608.135 21.64Z" fill="#FEFEFE"/>
</svg>
