<svg width="185" height="60" viewBox="0 0 185 60" fill="none" xmlns="http://www.w3.org/2000/svg">
<path d="M8.35861 3.99198L12.6724 3.47998V26.52L8.35861 27V4.82398L3.81536 7.47998L3.35645 7.09598L8.35861 4.18398V3.99198ZM53.1932 27C52.0459 27 51.0822 26.328 51.0822 25.528C51.0822 24.696 52.0459 24.024 53.1932 24.024C54.3864 24.024 55.3501 24.696 55.3501 25.528C55.3501 26.328 54.3864 27 53.1932 27ZM53.1932 11.992C52.0459 11.992 51.0822 11.32 51.0822 10.488C51.0822 9.65598 52.0459 8.98398 53.1932 8.98398C54.3864 8.98398 55.3501 9.65598 55.3501 10.488C55.3501 11.32 54.3864 11.992 53.1932 11.992ZM76.2353 3.47998C85.5513 3.47998 91.2877 6.99998 91.2877 15C91.2877 23 84.8629 27 76.2353 27C66.9193 27 61.1829 23 61.1829 15C61.1829 6.99998 67.6077 3.47998 76.2353 3.47998ZM77.6579 26.52C85.5513 26.52 87.0198 20.504 87.0198 15C87.0198 6.99998 81.2375 3.99198 74.8126 3.99198C67.6077 3.99198 65.4508 9.49598 65.4508 15C65.4508 23 71.1872 26.52 77.6579 26.52ZM112.895 3.47998C122.211 3.47998 127.947 6.99998 127.947 15C127.947 23 121.522 27 112.895 27C103.579 27 97.8423 23 97.8423 15C97.8423 6.99998 104.267 3.47998 112.895 3.47998ZM114.317 26.52C122.211 26.52 123.679 20.504 123.679 15C123.679 6.99998 117.897 3.99198 111.472 3.99198C104.267 3.99198 102.11 9.49598 102.11 15C102.11 23 107.847 26.52 114.317 26.52Z" fill="#262626"/>
<path d="M22.4983 3.87305C22.7822 3.91705 23.3028 3.95005 24.06 3.97205C24.8172 3.99405 25.6849 4.01605 26.6629 4.03805C27.641 4.03805 28.6033 4.03805 29.5498 4.03805H40.0561V4.73105C39.3935 5.85305 38.589 7.00805 37.6425 8.19605C36.7275 9.38405 35.8126 10.6601 34.8976 12.0241C34.0142 13.3661 33.2727 14.8291 32.6733 16.4131C32.1054 17.9751 31.8372 19.7021 31.8688 21.5941C31.8688 21.9461 31.8845 22.2761 31.9161 22.5841C31.9476 22.8921 31.9792 23.1781 32.0107 23.4421C32.0423 23.7061 32.0581 23.9591 32.0581 24.2011C32.0581 24.6851 31.853 25.0811 31.4428 25.3891C31.0327 25.7191 30.4963 25.8841 29.8338 25.8841C29.1081 25.8841 28.5717 25.6971 28.2247 25.3231C27.8776 24.9491 27.7041 24.5201 27.7041 24.0361C27.7041 22.5401 27.9723 21.0991 28.5086 19.7131C29.0765 18.3271 29.8022 16.9851 30.6856 15.6871C31.569 14.3671 32.5313 13.0911 33.5725 11.8591C34.6452 10.6051 35.6864 9.39505 36.696 8.22905C37.7371 7.04105 38.6679 5.87505 39.4882 4.73105L38.1631 6.81005H26.6629C25.3694 6.81005 24.5491 6.93105 24.202 7.17305C23.855 7.41505 23.6183 7.85505 23.4921 8.49305H22.6876C22.6876 7.32705 22.6718 6.39205 22.6403 5.68805C22.6087 4.98405 22.5614 4.37905 22.4983 3.87305Z" fill="#262626"/>
<path d="M2.33642 47.851C2.13708 47.7283 2.02975 47.6057 2.01442 47.483C1.99908 47.3757 2.03742 47.161 2.12942 46.839C2.11408 46.6397 2.12175 46.4557 2.15242 46.287C2.19842 46.1183 2.22908 46.0033 2.24442 45.942C2.32108 45.942 2.36708 45.896 2.38242 45.804C2.39775 45.712 2.40542 45.6353 2.40542 45.574C2.40542 45.4513 2.45142 45.2443 2.54342 44.953C2.65075 44.6617 2.74275 44.3627 2.81942 44.056C2.94208 43.7493 3.05708 43.4657 3.16442 43.205C3.28708 42.929 3.34842 42.7603 3.34842 42.699C3.34842 42.5763 3.37908 42.4537 3.44042 42.331C3.50175 42.193 3.57075 42.0627 3.64742 41.94C3.72408 41.756 3.77775 41.5567 3.80842 41.342C3.85442 41.112 3.87742 40.9357 3.87742 40.813C3.96942 40.6137 4.06908 40.399 4.17642 40.169C4.28375 39.939 4.36808 39.7013 4.42942 39.456C4.52142 39.1953 4.65175 38.8197 4.82042 38.329C5.00442 37.823 5.19608 37.3093 5.39542 36.788C5.53342 36.4967 5.67142 36.19 5.80942 35.868C5.94742 35.546 6.07008 35.27 6.17742 35.04C6.28475 34.81 6.36142 34.695 6.40742 34.695C6.40742 34.695 6.40742 34.672 6.40742 34.626C6.40742 34.5647 6.40742 34.5033 6.40742 34.442C6.40742 34.3653 6.46875 34.2197 6.59142 34.005C6.71408 33.775 6.82908 33.5373 6.93642 33.292C7.08975 33.062 7.19709 32.8473 7.25842 32.648C7.31975 32.4333 7.35042 32.326 7.35042 32.326C7.35042 32.326 7.37342 32.28 7.41942 32.188C7.48075 32.096 7.54208 32.0193 7.60342 31.958C7.80275 31.82 7.98675 31.7663 8.15542 31.797C8.33942 31.8277 8.49275 31.9733 8.61542 32.234C8.73808 32.4793 8.79175 32.6863 8.77642 32.855C8.76109 33.0083 8.69209 33.177 8.56942 33.361C8.44675 33.637 8.28575 33.9897 8.08642 34.419C7.88708 34.833 7.67242 35.2853 7.44242 35.776C7.22775 36.2513 7.02075 36.7113 6.82142 37.156C6.63742 37.5853 6.48409 37.961 6.36142 38.283C6.25408 38.5897 6.20042 38.7813 6.20042 38.858L5.25742 41.181C5.25742 41.2117 5.22675 41.2883 5.16542 41.411C5.11942 41.5337 5.05042 41.7177 4.95842 41.963C4.88175 42.2083 4.78208 42.5303 4.65942 42.929C4.53675 43.3277 4.39108 43.8107 4.22242 44.378C3.91575 45.3593 3.67808 46.126 3.50942 46.678C3.34075 47.2147 3.20275 47.5827 3.09542 47.782C3.00342 47.9967 2.90375 48.104 2.79642 48.104C2.73508 48.104 2.66608 48.0733 2.58942 48.012C2.52808 47.966 2.44375 47.9123 2.33642 47.851ZM10.4554 48.035C10.3174 48.0503 10.1258 47.9813 9.88042 47.828C9.65042 47.69 9.39742 47.5137 9.12142 47.299C8.86075 47.0843 8.60775 46.862 8.36242 46.632C8.13242 46.402 7.94842 46.2027 7.81042 46.034C7.56509 45.6813 7.25842 45.2213 6.89042 44.654C6.52242 44.0713 6.24642 43.4503 6.06242 42.791C5.95509 42.3003 5.84775 41.917 5.74042 41.641C5.63309 41.3497 5.56409 41.112 5.53342 40.928L5.55642 39.318L6.72942 39.686C6.80609 40.514 6.92109 41.204 7.07442 41.756C7.24309 42.2927 7.44242 42.768 7.67242 43.182C7.85642 43.5807 8.06342 43.9793 8.29342 44.378C8.52342 44.7613 8.76875 45.0833 9.02942 45.344C9.38209 45.7273 9.69642 46.011 9.97242 46.195C10.2484 46.379 10.4554 46.471 10.5934 46.471C10.6701 46.4863 10.7774 46.54 10.9154 46.632C11.0688 46.724 11.2068 46.8237 11.3294 46.931C11.4674 47.023 11.5441 47.115 11.5594 47.207C11.5748 47.253 11.5824 47.322 11.5824 47.414C11.5824 47.5213 11.5671 47.6133 11.5364 47.69C11.5211 47.782 11.4981 47.851 11.4674 47.897C11.4214 48.0043 11.3371 48.0963 11.2144 48.173C11.1071 48.265 10.8541 48.219 10.4554 48.035ZM5.30342 39.502L6.98242 38.283C7.02842 38.237 7.18942 38.0837 7.46542 37.823C7.75675 37.5623 8.23209 37.1867 8.89142 36.696L11.7204 34.396C12.1038 34.1967 12.4948 33.9437 12.8934 33.637C13.3074 33.3303 13.6218 33.108 13.8364 32.97C14.0971 32.786 14.3271 32.625 14.5264 32.487C14.7258 32.349 14.8561 32.2877 14.9174 32.303C15.0401 32.2417 15.1628 32.2647 15.2854 32.372C15.4234 32.464 15.5308 32.5943 15.6074 32.763C15.6994 32.9163 15.7378 33.0543 15.7224 33.177C15.7531 33.3303 15.7224 33.4607 15.6304 33.568C15.5384 33.6753 15.3161 33.8287 14.9634 34.028C14.6721 34.166 14.4114 34.304 14.1814 34.442C13.9668 34.58 13.8364 34.695 13.7904 34.787C13.7904 34.787 13.6448 34.902 13.3534 35.132C13.0774 35.3467 12.7171 35.6073 12.2724 35.914C11.6591 36.3127 11.1301 36.6883 10.6854 37.041C10.2561 37.3937 9.98009 37.662 9.85742 37.846C9.79609 37.846 9.73475 37.869 9.67342 37.915C9.62742 37.961 9.57375 37.9763 9.51242 37.961C9.51242 37.961 9.45109 37.9993 9.32842 38.076C9.22108 38.1527 9.13675 38.2293 9.07542 38.306C9.04475 38.3827 8.97575 38.49 8.86842 38.628C8.77642 38.766 8.65375 38.8273 8.50042 38.812C8.39309 38.8733 8.20142 39.0037 7.92542 39.203C7.64942 39.387 7.35809 39.594 7.05142 39.824C6.76008 40.054 6.50708 40.261 6.29242 40.445C6.07775 40.629 5.96275 40.7363 5.94742 40.767L5.30342 39.502ZM14.325 46.655C14.1257 46.655 13.9647 46.6167 13.842 46.54C13.7347 46.4633 13.5967 46.356 13.428 46.218C13.1367 45.9113 12.9297 45.62 12.807 45.344C12.6843 45.0527 12.646 44.7767 12.692 44.516C12.738 44.3933 12.7533 44.2783 12.738 44.171C12.738 44.0483 12.738 43.987 12.738 43.987C12.6613 43.9103 12.6383 43.8643 12.669 43.849C12.6997 43.8183 12.7303 43.7723 12.761 43.711C12.853 43.711 12.8837 43.6267 12.853 43.458C12.8223 43.3353 12.8837 43.067 13.037 42.653C13.1903 42.239 13.382 41.848 13.612 41.48C13.704 41.3267 13.842 41.1273 14.026 40.882C14.21 40.6213 14.4093 40.3683 14.624 40.123C14.854 39.8623 15.061 39.6553 15.245 39.502C15.6283 39.18 15.9657 38.9423 16.257 38.789C16.5483 38.6357 16.8627 38.5207 17.2 38.444C17.5373 38.3673 17.7673 38.329 17.89 38.329C18.028 38.329 18.212 38.4517 18.442 38.697C18.7947 38.8503 19.0477 39.0343 19.201 39.249C19.3697 39.4637 19.477 39.778 19.523 40.192C19.569 40.652 19.5307 41.181 19.408 41.779C19.3007 42.3617 18.9403 43.09 18.327 43.964C17.9437 44.516 17.591 44.93 17.269 45.206C16.947 45.4667 16.5637 45.7273 16.119 45.988C15.797 46.2027 15.5057 46.3637 15.245 46.471C14.9843 46.563 14.6777 46.6243 14.325 46.655ZM16.533 44.217C16.901 43.803 17.1923 43.412 17.407 43.044C17.637 42.676 17.8517 42.2083 18.051 41.641C18.1123 41.4723 18.1507 41.2653 18.166 41.02C18.1813 40.7593 18.1737 40.5217 18.143 40.307C18.1277 40.077 18.074 39.9467 17.982 39.916C17.798 39.8087 17.5757 39.778 17.315 39.824C17.0543 39.8547 16.7707 40.0003 16.464 40.261C15.9887 40.6597 15.5747 41.158 15.222 41.756C14.8693 42.3387 14.5243 43.0057 14.187 43.757C13.957 44.309 13.9033 44.7537 14.026 45.091C14.164 45.413 14.4477 45.528 14.877 45.436C15.3217 45.3287 15.8737 44.9223 16.533 44.217ZM27.7004 38.835C27.9151 38.7123 28.1374 38.674 28.3674 38.72C28.5974 38.7507 28.7737 38.8503 28.8964 39.019C29.0344 39.1723 29.0574 39.3717 28.9654 39.617C28.9961 39.525 28.9577 39.5863 28.8504 39.801C28.7584 40.0003 28.6357 40.261 28.4824 40.583C28.3444 40.905 28.2141 41.2117 28.0914 41.503C27.9841 41.779 27.9151 41.94 27.8844 41.986V42.055C28.1297 42.055 28.2754 42.1317 28.3214 42.285C28.3827 42.423 28.4057 42.584 28.3904 42.768C28.2064 42.7987 28.0761 42.8523 27.9994 42.929C27.9227 42.9903 27.8231 43.0287 27.7004 43.044C27.6544 43.044 27.6007 43.067 27.5394 43.113C27.4781 43.159 27.4397 43.2127 27.4244 43.274C27.4091 43.32 27.3631 43.504 27.2864 43.826C27.2251 44.1327 27.1484 44.47 27.0564 44.838C26.9797 45.1907 26.9107 45.459 26.8494 45.643C26.8187 45.7657 26.7574 45.8653 26.6654 45.942C26.5734 46.0033 26.5121 46.0417 26.4814 46.057C26.1747 45.9343 25.9677 45.8577 25.8604 45.827C25.7684 45.781 25.6764 45.7197 25.5844 45.643C25.5691 45.551 25.5691 45.4437 25.5844 45.321C25.5997 45.183 25.6381 45.022 25.6994 44.838C25.7761 44.608 25.8374 44.3933 25.8834 44.194C25.9447 43.9793 26.0061 43.6803 26.0674 43.297C26.0061 43.2663 25.8757 43.2663 25.6764 43.297C25.4924 43.3123 25.2931 43.3353 25.0784 43.366C24.8637 43.3967 24.6797 43.4273 24.5264 43.458C24.3884 43.4887 24.3271 43.4963 24.3424 43.481C24.2657 43.5117 24.1201 43.5347 23.9054 43.55C23.7061 43.55 23.4991 43.5423 23.2844 43.527C23.0851 43.4963 22.9394 43.4657 22.8474 43.435L22.7094 43.504C22.6941 43.6573 22.6251 43.8873 22.5024 44.194C22.3797 44.4853 22.3184 44.7613 22.3184 45.022C22.3031 45.2213 22.2724 45.4207 22.2264 45.62C22.1804 45.8193 22.1497 46.0263 22.1344 46.241C22.1191 46.5783 22.0271 46.7853 21.8584 46.862C21.7051 46.9387 21.4674 46.885 21.1454 46.701C21.0687 46.655 20.9921 46.6013 20.9154 46.54C20.8541 46.4787 20.7851 46.4097 20.7084 46.333L21.0764 44.562C21.1377 44.3473 21.1914 44.148 21.2374 43.964C21.2834 43.7647 21.3371 43.573 21.3984 43.389C21.5211 43.0517 21.6361 42.7067 21.7434 42.354C21.8661 42.0013 22.0041 41.6717 22.1574 41.365C22.1574 41.365 22.1804 41.2883 22.2264 41.135C22.2877 40.9663 22.3567 40.7823 22.4334 40.583C22.5101 40.3683 22.5714 40.1997 22.6174 40.077C22.6634 39.9543 22.6711 39.9313 22.6404 40.008C22.6864 39.916 22.7554 39.7397 22.8474 39.479C22.9394 39.203 23.0237 38.9423 23.1004 38.697C23.1924 38.4363 23.2384 38.2983 23.2384 38.283C23.2691 38.191 23.3151 38.1297 23.3764 38.099C23.4377 38.053 23.5144 38.03 23.6064 38.03C23.8671 38.0147 24.0817 38.076 24.2504 38.214C24.4191 38.3367 24.5111 38.49 24.5264 38.674C24.5111 38.766 24.5034 38.8503 24.5034 38.927C24.5034 39.0037 24.4881 39.065 24.4574 39.111L23.2614 42.032V42.216C23.4147 42.308 23.6371 42.3233 23.9284 42.262C24.2351 42.1853 24.4651 42.147 24.6184 42.147C24.6951 42.1317 24.8714 42.1163 25.1474 42.101C25.4387 42.0857 25.7147 42.078 25.9754 42.078C26.2514 42.078 26.3971 42.0857 26.4124 42.101C26.5811 41.641 26.7344 41.2117 26.8724 40.813C27.0104 40.399 27.2021 39.9773 27.4474 39.548C27.4627 39.5173 27.4934 39.4177 27.5394 39.249C27.6007 39.0803 27.6544 38.9423 27.7004 38.835ZM32.7399 46.126C32.4179 46.1873 32.2109 46.2103 32.1189 46.195C32.0422 46.1643 31.9196 46.0723 31.7509 45.919C31.5056 45.7963 31.2986 45.643 31.1299 45.459C30.9766 45.275 30.8616 45.0833 30.7849 44.884C30.7236 44.6693 30.7006 44.493 30.7159 44.355C30.7619 43.8183 30.8922 43.2433 31.1069 42.63C31.3216 42.0167 31.5822 41.4263 31.8889 40.859C32.1956 40.2917 32.5252 39.8087 32.8779 39.41C33.2459 38.996 33.5986 38.7277 33.9359 38.605C34.2426 38.4823 34.5339 38.4363 34.8099 38.467C35.0859 38.4977 35.2852 38.6433 35.4079 38.904C35.6379 39.3487 35.5842 39.6323 35.2469 39.755C35.2009 39.755 35.1472 39.778 35.0859 39.824C35.0246 39.8547 34.9939 39.9007 34.9939 39.962C35.0552 39.9927 35.2239 40.0003 35.4999 39.985C35.7759 39.9543 36.0519 39.9083 36.3279 39.847C36.6192 39.7703 36.8109 39.6937 36.9029 39.617C36.9949 39.571 37.0639 39.548 37.1099 39.548C37.1559 39.548 37.2709 39.5633 37.4549 39.594C37.7156 39.6707 37.8459 39.7627 37.8459 39.87C37.8459 39.9313 37.8689 39.9927 37.9149 40.054C37.9609 40.1 38.0146 40.123 38.0759 40.123C38.1832 40.1383 38.1679 40.2073 38.0299 40.33C37.9072 40.4527 37.6926 40.6213 37.3859 40.836C37.0946 41.02 36.9106 41.1427 36.8339 41.204C36.7726 41.25 36.7649 41.3573 36.8109 41.526C36.9336 41.8173 36.9412 42.1547 36.8339 42.538C36.7266 42.9213 36.5349 43.3123 36.2589 43.711C35.9829 44.1097 35.6456 44.4853 35.2469 44.838C34.8636 45.1753 34.4496 45.4667 34.0049 45.712C33.5756 45.942 33.1539 46.08 32.7399 46.126ZM32.3489 45.114C32.4102 45.114 32.5176 45.0833 32.6709 45.022C32.8242 44.9453 32.9469 44.884 33.0389 44.838C33.1002 44.7767 33.1769 44.7077 33.2689 44.631C33.3762 44.539 33.4606 44.4853 33.5219 44.47C33.5832 44.47 33.6599 44.447 33.7519 44.401C33.8439 44.3397 33.9742 44.2247 34.1429 44.056C34.3116 43.872 34.5339 43.6037 34.8099 43.251C35.1166 42.9137 35.3542 42.607 35.5229 42.331C35.6916 42.0397 35.7376 41.7713 35.6609 41.526C35.6456 41.4647 35.5996 41.4263 35.5229 41.411C35.4616 41.3957 35.3772 41.3573 35.2699 41.296C35.1166 41.296 34.9709 41.2577 34.8329 41.181C34.7102 41.089 34.5646 40.974 34.3959 40.836L34.0279 40.376L33.6369 40.767C33.3916 41.0123 33.1309 41.3803 32.8549 41.871C32.5942 42.3463 32.3719 42.837 32.1879 43.343C32.0039 43.8337 31.8966 44.2247 31.8659 44.516C31.8506 44.746 31.8889 44.8993 31.9809 44.976C32.0729 45.0527 32.1956 45.0987 32.3489 45.114ZM38.7093 46.885C38.5866 46.839 38.4563 46.747 38.3183 46.609C38.1803 46.4557 38.0653 46.2793 37.9733 46.08C37.8813 45.8807 37.8353 45.6967 37.8353 45.528C37.912 45.3593 38.0116 45.068 38.1343 44.654C38.257 44.2247 38.4103 43.734 38.5943 43.182C38.717 43.0133 38.809 42.814 38.8703 42.584C38.947 42.354 39.016 42.147 39.0773 41.963C39.2 41.7177 39.3456 41.4033 39.5143 41.02C39.683 40.6213 39.844 40.2227 39.9973 39.824C40.166 39.41 40.3116 39.065 40.4343 38.789C40.603 38.3903 40.7026 38.145 40.7333 38.053C40.764 37.9457 40.787 37.8613 40.8023 37.8C40.8023 37.6773 40.833 37.5777 40.8943 37.501C40.9556 37.409 41.017 37.363 41.0783 37.363C41.1396 37.3017 41.2086 37.271 41.2853 37.271C41.3773 37.2557 41.454 37.248 41.5153 37.248C41.684 37.248 41.8296 37.363 41.9523 37.593C42.075 37.8077 42.1363 38.007 42.1363 38.191C42.1363 38.375 42.0673 38.6357 41.9293 38.973C41.8066 39.295 41.661 39.6323 41.4923 39.985C41.339 40.3377 41.2086 40.6443 41.1013 40.905C40.994 41.1657 40.9633 41.319 41.0093 41.365C41.0093 41.365 41.1166 41.319 41.3313 41.227C41.546 41.1197 41.776 40.974 42.0213 40.79C42.19 40.698 42.374 40.583 42.5733 40.445C42.7726 40.307 42.9643 40.1767 43.1483 40.054C43.3323 39.916 43.4856 39.8317 43.6083 39.801C43.7923 39.6783 43.984 39.5633 44.1833 39.456C44.3826 39.3333 44.513 39.2413 44.5743 39.18C44.835 39.0573 45.0266 39.019 45.1493 39.065C45.2873 39.111 45.4253 39.226 45.5633 39.41C45.732 39.6093 45.7626 39.7857 45.6553 39.939C45.548 40.077 45.295 40.2687 44.8963 40.514C44.5743 40.7133 44.1833 40.951 43.7233 41.227C43.2786 41.503 42.88 41.7483 42.5273 41.963C42.19 42.1777 41.9983 42.308 41.9523 42.354C41.9523 42.354 42.0136 42.469 42.1363 42.699C42.259 42.929 42.3816 43.136 42.5043 43.32C42.627 43.5653 42.7573 43.7953 42.8953 44.01C43.0486 44.2093 43.1253 44.3473 43.1253 44.424C43.248 44.746 43.4013 45.0143 43.5853 45.229C43.7693 45.4283 43.9763 45.5587 44.2063 45.62C44.4516 45.666 44.697 45.6353 44.9423 45.528C45.249 45.4053 45.4713 45.367 45.6093 45.413C45.7626 45.459 45.87 45.574 45.9313 45.758C45.9926 45.8807 46.008 45.9727 45.9773 46.034C45.962 46.08 45.8623 46.195 45.6783 46.379C45.387 46.6703 45.088 46.8543 44.7813 46.931C44.49 47.0077 44.2216 46.9847 43.9763 46.862C43.823 46.862 43.6466 46.8007 43.4473 46.678C43.248 46.54 43.0026 46.3177 42.7113 46.011C42.4353 45.7043 42.0903 45.275 41.6763 44.723C41.6763 44.6617 41.6456 44.5773 41.5843 44.47C41.5383 44.3473 41.4846 44.2323 41.4233 44.125C41.362 44.0023 41.2853 43.872 41.1933 43.734C41.1013 43.5807 41.0553 43.504 41.0553 43.504C41.0553 43.458 41.04 43.4197 41.0093 43.389C40.994 43.343 40.9633 43.2893 40.9173 43.228C40.8866 43.1667 40.8483 43.0977 40.8023 43.021C40.557 42.9443 40.3806 42.9903 40.2733 43.159C40.166 43.3277 40.051 43.504 39.9283 43.688C39.8516 43.8873 39.752 44.171 39.6293 44.539C39.522 44.8917 39.43 45.2367 39.3533 45.574C39.292 45.9113 39.2766 46.1413 39.3073 46.264C39.3073 46.5093 39.269 46.678 39.1923 46.77C39.1156 46.8467 38.9546 46.885 38.7093 46.885ZM47.9147 45.873C47.746 45.7657 47.5927 45.6277 47.4547 45.459C47.3167 45.275 47.2477 45.045 47.2477 44.769C47.2477 44.6157 47.2784 44.355 47.3397 43.987C47.401 43.619 47.4854 43.205 47.5927 42.745C47.7 42.285 47.8074 41.8557 47.9147 41.457C48.068 41.181 48.1984 40.905 48.3057 40.629C48.413 40.353 48.4667 40.1843 48.4667 40.123C48.4974 39.939 48.5357 39.7243 48.5817 39.479C48.643 39.2337 48.7044 39.0113 48.7657 38.812C48.827 38.6127 48.873 38.4977 48.9037 38.467C48.9804 38.3903 49.0724 38.3443 49.1797 38.329C49.287 38.2983 49.3944 38.3137 49.5017 38.375C49.6244 38.421 49.7164 38.5207 49.7777 38.674C49.9464 38.858 50.0307 39.0803 50.0307 39.341C50.0307 39.5863 49.9464 39.9543 49.7777 40.445C49.6397 40.7517 49.5017 41.112 49.3637 41.526C49.2257 41.94 49.103 42.3233 48.9957 42.676C48.9037 43.0133 48.85 43.2433 48.8347 43.366L48.3747 43.504C48.6354 43.2587 48.8807 43.0057 49.1107 42.745C49.3407 42.469 49.5094 42.2543 49.6167 42.101C49.8774 41.7483 50.0997 41.457 50.2837 41.227C50.483 40.9817 50.736 40.6903 51.0427 40.353C51.3494 40.0003 51.6484 39.7857 51.9397 39.709C52.2464 39.617 52.484 39.571 52.6527 39.571C52.99 39.6323 53.2584 39.8087 53.4577 40.1C53.6724 40.376 53.8104 40.79 53.8717 41.342C53.8717 41.5567 53.8487 41.8097 53.8027 42.101C53.772 42.3923 53.7567 42.538 53.7567 42.538C53.7567 42.538 53.8794 42.377 54.1247 42.055C54.3854 41.733 54.7304 41.3803 55.1597 40.997C55.451 40.7823 55.7347 40.6597 56.0107 40.629C56.2867 40.583 56.532 40.675 56.7467 40.905C57.1454 41.1197 57.406 41.4493 57.5287 41.894C57.6514 42.3233 57.682 42.8753 57.6207 43.55C57.5747 43.9487 57.567 44.2477 57.5977 44.447C57.6284 44.631 57.6744 44.815 57.7357 44.999C57.8584 45.0603 57.8814 45.1907 57.8047 45.39C57.728 45.574 57.636 45.666 57.5287 45.666C57.3754 45.666 57.199 45.6353 56.9997 45.574C56.8157 45.5127 56.647 45.413 56.4937 45.275C56.3557 45.1217 56.2867 44.9147 56.2867 44.654V43.228C56.2867 42.8907 56.2714 42.6147 56.2407 42.4C56.2254 42.1853 56.187 42.055 56.1257 42.009C55.957 41.917 55.7117 42.0167 55.3897 42.308C55.0677 42.5993 54.7227 42.9903 54.3547 43.481C53.9867 43.9717 53.6417 44.4777 53.3197 44.999C53.0284 45.4743 52.8444 45.7503 52.7677 45.827C52.7064 45.8883 52.5914 45.8653 52.4227 45.758C52.0854 45.6507 51.8707 45.505 51.7787 45.321C51.702 45.1217 51.6944 44.8993 51.7557 44.654C51.8324 44.3933 51.9244 44.0407 52.0317 43.596C52.1544 43.1513 52.2694 42.722 52.3767 42.308C52.484 41.8787 52.553 41.572 52.5837 41.388C52.5224 41.2653 52.415 41.227 52.2617 41.273C52.1237 41.3037 51.978 41.3727 51.8247 41.48C51.6407 41.6027 51.4184 41.8327 51.1577 42.17C50.897 42.5073 50.6287 42.8983 50.3527 43.343C50.1687 43.6343 49.977 43.9257 49.7777 44.217C49.5784 44.493 49.3944 44.7383 49.2257 44.953C49.057 45.1677 48.9114 45.3287 48.7887 45.436C48.574 45.7733 48.4284 45.9573 48.3517 45.988C48.275 46.0187 48.1294 45.9803 47.9147 45.873ZM62.0268 46.862C61.8275 46.8773 61.6665 46.862 61.5438 46.816C61.4211 46.7547 61.2678 46.6703 61.0838 46.563C60.7465 46.3023 60.4935 46.0417 60.3248 45.781C60.1715 45.505 60.1025 45.2367 60.1178 44.976C60.1485 44.838 60.1485 44.7153 60.1178 44.608C60.1025 44.5007 60.0948 44.447 60.0948 44.447C60.0028 44.3703 59.9721 44.3243 60.0028 44.309C60.0335 44.2783 60.0565 44.2323 60.0718 44.171C60.1945 44.1403 60.2098 44.056 60.1178 43.918C60.0718 43.7953 60.0948 43.5193 60.1868 43.09C60.2941 42.6453 60.4321 42.2313 60.6008 41.848C60.6775 41.6793 60.7848 41.457 60.9228 41.181C61.0761 40.905 61.2448 40.629 61.4288 40.353C61.6128 40.0617 61.7815 39.8317 61.9348 39.663C62.2721 39.2797 62.5711 38.996 62.8318 38.812C63.1078 38.6127 63.4145 38.4517 63.7518 38.329C64.0585 38.2063 64.2808 38.1373 64.4188 38.122C64.5568 38.1067 64.7485 38.1987 64.9938 38.398C65.3618 38.5053 65.6378 38.6587 65.8218 38.858C66.0211 39.042 66.1745 39.3333 66.2818 39.732C66.4045 40.1767 66.4428 40.7057 66.3968 41.319C66.3661 41.917 66.1055 42.6913 65.6148 43.642C65.3235 44.24 65.0321 44.6923 64.7408 44.999C64.4648 45.3057 64.1275 45.6277 63.7288 45.965C63.4375 46.2103 63.1691 46.402 62.9238 46.54C62.6785 46.678 62.3795 46.7853 62.0268 46.862ZM63.8668 44.125C64.1735 43.665 64.4111 43.2433 64.5798 42.86C64.7638 42.4613 64.9095 41.963 65.0168 41.365C65.0475 41.1963 65.0551 40.9893 65.0398 40.744C65.0245 40.4833 64.9861 40.2457 64.9248 40.031C64.8788 39.8163 64.8098 39.7013 64.7178 39.686C64.5185 39.6093 64.2961 39.6093 64.0508 39.686C63.8055 39.7473 63.5371 39.9313 63.2458 40.238C62.9851 40.5447 62.7475 40.8897 62.5328 41.273C62.3335 41.6563 62.1495 42.078 61.9808 42.538C61.8121 42.998 61.6511 43.4887 61.4978 44.01C61.3445 44.5927 61.3521 45.0373 61.5208 45.344C61.7048 45.6507 62.0038 45.7273 62.4178 45.574C62.8318 45.4053 63.3148 44.9223 63.8668 44.125ZM66.9152 52.152C66.8539 52.152 66.7772 52.152 66.6852 52.152C66.5932 52.1673 66.5089 52.106 66.4322 51.968C66.3709 51.8913 66.3325 51.7763 66.3172 51.623C66.3172 51.4697 66.3555 51.1937 66.4322 50.795C66.5089 50.5343 66.5702 50.2737 66.6162 50.013C66.6622 49.7677 66.6852 49.5837 66.6852 49.461C66.6852 49.3997 66.7005 49.277 66.7312 49.093C66.7772 48.9243 66.8002 48.8017 66.8002 48.725C66.8769 48.6023 66.9382 48.4337 66.9842 48.219C67.0302 48.0043 67.0532 47.8127 67.0532 47.644C67.0532 47.46 67.1452 47.2913 67.3292 47.138C67.3292 47.0153 67.3522 46.862 67.3982 46.678C67.4595 46.494 67.4902 46.3713 67.4902 46.31C67.5362 46.0953 67.6359 45.7197 67.7892 45.183C67.9579 44.631 68.1572 44.01 68.3872 43.32C68.6325 42.63 68.8702 41.9553 69.1002 41.296C69.3302 40.6367 69.5372 40.077 69.7212 39.617C69.9052 39.1877 70.0279 38.8197 70.0892 38.513C70.1659 38.191 70.2042 37.9533 70.2042 37.8C70.2042 37.7387 70.2195 37.6927 70.2502 37.662C70.2809 37.616 70.3499 37.5317 70.4572 37.409C70.6105 37.2557 70.7409 37.2097 70.8482 37.271C70.9709 37.3323 71.1165 37.4243 71.2852 37.547C71.4079 37.7463 71.4922 37.915 71.5382 38.053C71.5995 38.191 71.5995 38.4287 71.5382 38.766C71.5382 38.996 71.4999 39.1953 71.4232 39.364C71.3465 39.5327 71.2775 39.663 71.2162 39.755C71.1549 39.8317 71.1395 39.8623 71.1702 39.847C71.7989 39.5557 72.3509 39.4023 72.8262 39.387C73.3169 39.3563 73.7232 39.4407 74.0452 39.64C74.3825 39.824 74.6355 40.0847 74.8042 40.422C74.9729 40.7593 75.0572 41.1503 75.0572 41.595C75.0572 41.779 75.0189 42.0013 74.9422 42.262C74.8655 42.5073 74.7659 42.7373 74.6432 42.952C74.5359 43.1513 74.4362 43.297 74.3442 43.389C74.2829 43.389 74.2215 43.4427 74.1602 43.55C74.0989 43.642 74.0375 43.7493 73.9762 43.872C73.8535 44.0253 73.6542 44.2017 73.3782 44.401C73.1175 44.585 72.8569 44.7383 72.5962 44.861C72.3355 44.9683 72.1439 44.999 72.0212 44.953C72.0212 44.953 71.9982 44.9607 71.9522 44.976C71.9215 44.976 71.9062 45.0143 71.9062 45.091C71.9062 45.1217 71.7835 45.1907 71.5382 45.298C71.2929 45.39 71.0092 45.482 70.6872 45.574C70.3652 45.6507 70.0815 45.689 69.8362 45.689C69.5142 45.689 69.2842 45.6277 69.1462 45.505C69.1155 45.5357 69.0772 45.5817 69.0312 45.643C69.0005 45.7043 68.9852 45.758 68.9852 45.804C68.9852 45.896 68.9469 46.0723 68.8702 46.333C68.8089 46.5783 68.7322 46.816 68.6402 47.046C68.5482 47.276 68.4639 47.391 68.3872 47.391C68.3872 47.391 68.3719 47.414 68.3412 47.46C68.3105 47.506 68.3259 47.5673 68.3872 47.644C68.3872 47.644 68.3795 47.7283 68.3642 47.897C68.3642 48.081 68.3259 48.2343 68.2492 48.357C68.2492 48.4797 68.2262 48.6637 68.1802 48.909C68.1342 49.1543 68.0805 49.3383 68.0192 49.461C68.0192 49.645 67.9885 49.8213 67.9272 49.99C67.8812 50.174 67.8275 50.266 67.7662 50.266C67.7049 50.2813 67.6665 50.3733 67.6512 50.542C67.6359 50.726 67.6282 50.8563 67.6282 50.933C67.6129 51.3163 67.5362 51.6153 67.3982 51.83C67.2602 52.0447 67.0992 52.152 66.9152 52.152ZM69.6982 44.47C69.8209 44.47 70.0739 44.4163 70.4572 44.309C70.8405 44.2017 71.2315 44.0713 71.6302 43.918C72.0442 43.7493 72.3509 43.5807 72.5502 43.412C72.9489 43.0593 73.2555 42.6607 73.4702 42.216C73.7002 41.756 73.6849 41.319 73.4242 40.905C73.3015 40.6903 73.0792 40.606 72.7572 40.652C72.4352 40.6827 72.0825 40.8053 71.6992 41.02C71.3159 41.2347 70.9555 41.503 70.6182 41.825C70.4342 42.0243 70.2655 42.2697 70.1122 42.561C69.9589 42.8523 69.8285 43.1437 69.7212 43.435C69.6292 43.7263 69.5755 43.9717 69.5602 44.171C69.5449 44.3703 69.5909 44.47 69.6982 44.47ZM76.5506 45.252C76.5353 45.1753 76.5199 45.022 76.5046 44.792C76.4893 44.5467 76.4433 44.3933 76.3666 44.332C76.4126 43.9793 76.4509 43.6573 76.4816 43.366C76.5123 43.0747 76.5736 42.791 76.6656 42.515C76.7116 42.3617 76.7883 42.1623 76.8956 41.917C77.0183 41.6717 77.1486 41.434 77.2866 41.204C77.4246 40.9587 77.5473 40.79 77.6546 40.698C77.7619 40.606 77.8539 40.4987 77.9306 40.376C78.0226 40.2533 78.1223 40.1613 78.2296 40.1C78.3216 40.0233 78.3753 39.939 78.3906 39.847C78.4213 39.755 78.4826 39.686 78.5746 39.64C78.8046 39.4867 78.9886 39.3487 79.1266 39.226C79.2646 39.1033 79.4103 38.996 79.5636 38.904C79.7323 38.812 79.9546 38.7277 80.2306 38.651C80.5373 38.559 80.7596 38.4977 80.8976 38.467C81.0509 38.421 81.1966 38.4057 81.3346 38.421C81.4726 38.4363 81.6796 38.4823 81.9556 38.559C81.9556 38.467 81.9479 38.3597 81.9326 38.237C81.9173 38.099 81.9096 37.9533 81.9096 37.8C81.9403 37.5853 81.9326 37.3783 81.8866 37.179C81.8559 36.9643 81.8253 36.811 81.7946 36.719C81.7026 36.6117 81.6489 36.443 81.6336 36.213C81.6183 35.9677 81.5493 35.776 81.4266 35.638C81.4726 35.3467 81.3653 35.0707 81.1046 34.81C80.8593 34.534 80.5603 34.3193 80.2076 34.166C79.8549 33.9973 79.5253 33.936 79.2186 33.982C79.0499 33.9973 78.8736 34.0203 78.6896 34.051C78.5056 34.0817 78.3369 34.1583 78.1836 34.281C77.9843 34.2963 77.8233 34.304 77.7006 34.304C77.5779 34.304 77.4629 34.2657 77.3556 34.189C77.1869 33.9437 77.0719 33.7673 77.0106 33.66C76.9646 33.5527 76.9723 33.4683 77.0336 33.407C77.0949 33.3303 77.2023 33.2613 77.3556 33.2C77.5243 33.1233 77.7313 33.0007 77.9766 32.832C78.1453 32.8933 78.2679 32.8857 78.3446 32.809C78.4213 32.7323 78.5439 32.7247 78.7126 32.786C78.8353 32.7093 79.0346 32.6863 79.3106 32.717C79.5866 32.7477 79.7553 32.7783 79.8166 32.809C79.8626 32.8397 79.9086 32.8627 79.9546 32.878C80.0006 32.878 80.0466 32.8857 80.0926 32.901C80.6293 33.0083 81.0969 33.223 81.4956 33.545C81.9096 33.867 82.2393 34.281 82.4846 34.787C82.5766 34.9863 82.6686 35.1857 82.7606 35.385C82.8526 35.5843 82.9446 35.776 83.0366 35.96C83.0673 36.052 83.0979 36.2437 83.1286 36.535C83.1746 36.811 83.2129 37.0793 83.2436 37.34C83.2896 37.5853 83.3126 37.731 83.3126 37.777C83.3433 37.9303 83.3586 38.076 83.3586 38.214C83.3586 38.352 83.3433 38.4977 83.3126 38.651C83.1286 39.8623 82.8526 40.974 82.4846 41.986C82.1166 42.998 81.6183 44.0253 80.9896 45.068C80.8669 45.2673 80.6983 45.4667 80.4836 45.666C80.2689 45.8653 80.0619 46.0493 79.8626 46.218C79.6173 46.4327 79.3489 46.586 79.0576 46.678C78.7663 46.7547 78.4443 46.8007 78.0916 46.816C77.6623 46.4787 77.3479 46.2333 77.1486 46.08C76.9493 45.9267 76.8189 45.7963 76.7576 45.689C76.6963 45.5817 76.6273 45.436 76.5506 45.252ZM78.3216 45.689C78.4136 45.6123 78.5133 45.5663 78.6206 45.551C78.7433 45.5203 78.8353 45.436 78.8966 45.298C79.0959 45.1447 79.3183 44.8993 79.5636 44.562C79.8243 44.2247 80.0696 43.8643 80.2996 43.481C80.5296 43.0823 80.7059 42.7373 80.8286 42.446C80.8899 42.2773 80.9436 42.1163 80.9896 41.963C81.0509 41.7943 81.1276 41.641 81.2196 41.503C81.3729 41.2117 81.4956 40.8667 81.5876 40.468C81.6796 40.054 81.6719 39.7397 81.5646 39.525C80.7826 39.7857 80.1386 40.1383 79.6326 40.583C79.1266 41.0123 78.6666 41.6257 78.2526 42.423C78.2066 42.745 78.1146 43.0517 77.9766 43.343C77.8539 43.619 77.7773 43.918 77.7466 44.24C77.6699 44.3933 77.6316 44.562 77.6316 44.746C77.6469 44.9147 77.6853 45.114 77.7466 45.344C77.9459 45.4973 78.0533 45.5817 78.0686 45.597C78.0993 45.597 78.1836 45.6277 78.3216 45.689ZM83.3439 51.577C82.9759 51.6843 82.5695 51.6997 82.1249 51.623C81.6955 51.5617 81.3199 51.4313 80.9979 51.232C80.6605 51.0327 80.4689 50.8103 80.4229 50.565C80.4075 50.473 80.4382 50.3733 80.5149 50.266C80.5762 50.1587 80.6605 50.082 80.7679 50.036C80.8599 50.0053 80.9442 50.036 81.0209 50.128C81.1435 50.2047 81.3659 50.2967 81.6879 50.404C82.0099 50.5267 82.3702 50.5497 82.7689 50.473C83.1215 50.3963 83.4665 50.1893 83.8039 49.852C84.1565 49.5147 84.4402 49.2003 84.6549 48.909C84.7775 48.725 84.9845 48.3953 85.2759 47.92C85.5672 47.4447 85.8662 46.9233 86.1729 46.356C86.4949 45.7733 86.7632 45.2367 86.9779 44.746C87.0239 44.6233 87.0775 44.4777 87.1389 44.309C87.2002 44.1403 87.2769 44.0023 87.3689 43.895C87.4609 43.711 87.5375 43.5423 87.5989 43.389C87.6755 43.2203 87.7215 43.1053 87.7369 43.044C87.7522 42.9673 87.8212 42.814 87.9439 42.584C88.0665 42.354 88.1815 42.124 88.2889 41.894C88.3655 41.664 88.4805 41.3267 88.6339 40.882C88.7872 40.4373 88.9405 40.077 89.0939 39.801C89.2779 39.4483 89.4235 39.1647 89.5309 38.95C89.6535 38.72 89.7839 38.582 89.9219 38.536C90.0599 38.4287 90.1519 38.375 90.1979 38.375C90.2592 38.375 90.3742 38.421 90.5429 38.513C90.7269 38.697 90.8419 38.881 90.8879 39.065C90.9339 39.2337 90.9109 39.4483 90.8189 39.709C90.7422 39.9543 90.5889 40.2917 90.3589 40.721C90.2362 41.089 90.0982 41.4263 89.9449 41.733C89.8069 42.0243 89.6995 42.216 89.6229 42.308C89.5462 42.492 89.4542 42.699 89.3469 42.929C89.2549 43.1437 89.1705 43.343 89.0939 43.527C88.8179 44.1403 88.5802 44.6387 88.3809 45.022C88.1815 45.4053 88.0052 45.758 87.8519 46.08C87.6985 46.402 87.5375 46.7777 87.3689 47.207C87.0162 47.7743 86.6712 48.311 86.3339 48.817C86.0119 49.3383 85.6669 49.8213 85.2989 50.266C85.1455 50.404 84.9539 50.565 84.7239 50.749C84.4939 50.933 84.2562 51.1017 84.0109 51.255C83.7809 51.4083 83.5585 51.5157 83.3439 51.577ZM86.4489 46.057C86.2189 46.0263 85.9889 45.8883 85.7589 45.643C85.5442 45.3977 85.3755 45.137 85.2529 44.861C85.1302 44.585 85.0842 44.3857 85.1149 44.263C85.1149 44.1863 85.1149 44.125 85.1149 44.079C85.1149 44.033 85.1149 44.01 85.1149 44.01C85.0229 44.01 84.9385 43.895 84.8619 43.665C84.8005 43.435 84.7545 43.136 84.7239 42.768C84.6932 42.4 84.6702 42.009 84.6549 41.595C84.6549 41.181 84.6702 40.79 84.7009 40.422C84.7622 40.1613 84.7929 39.8777 84.7929 39.571C84.7929 39.249 84.8005 38.996 84.8159 38.812C84.8005 38.5667 84.8235 38.4057 84.8849 38.329C84.9462 38.237 85.0075 38.168 85.0689 38.122C85.4982 37.938 85.7819 38.053 85.9199 38.467C86.0732 38.8657 86.1115 39.617 86.0349 40.721C86.0042 41.3343 86.0042 41.9477 86.0349 42.561C86.0655 43.1743 86.1499 43.711 86.2879 44.171C86.4412 44.631 86.6482 44.9453 86.9089 45.114C87.0162 45.1753 87.0699 45.2597 87.0699 45.367C87.0699 45.4743 87.0392 45.5893 86.9779 45.712C86.9165 45.8193 86.8322 45.9113 86.7249 45.988C86.6329 46.0493 86.5409 46.0723 86.4489 46.057ZM98.317 45.873C98.1484 45.7657 97.995 45.6277 97.857 45.459C97.719 45.275 97.65 45.045 97.65 44.769C97.65 44.6157 97.6807 44.355 97.742 43.987C97.8034 43.619 97.8877 43.205 97.995 42.745C98.1024 42.285 98.2097 41.8557 98.317 41.457C98.4704 41.181 98.6007 40.905 98.708 40.629C98.8154 40.353 98.869 40.1843 98.869 40.123C98.8997 39.939 98.938 39.7243 98.984 39.479C99.0454 39.2337 99.1067 39.0113 99.168 38.812C99.2294 38.6127 99.2754 38.4977 99.306 38.467C99.3827 38.3903 99.4747 38.3443 99.582 38.329C99.6894 38.2983 99.7967 38.3137 99.904 38.375C100.027 38.421 100.119 38.5207 100.18 38.674C100.349 38.858 100.433 39.0803 100.433 39.341C100.433 39.5863 100.349 39.9543 100.18 40.445C100.042 40.7517 99.904 41.112 99.766 41.526C99.628 41.94 99.5054 42.3233 99.398 42.676C99.306 43.0133 99.2524 43.2433 99.237 43.366L98.777 43.504C99.0377 43.2587 99.283 43.0057 99.513 42.745C99.743 42.469 99.9117 42.2543 100.019 42.101C100.28 41.7483 100.502 41.457 100.686 41.227C100.885 40.9817 101.138 40.6903 101.445 40.353C101.752 40.0003 102.051 39.7857 102.342 39.709C102.649 39.617 102.886 39.571 103.055 39.571C103.392 39.6323 103.661 39.8087 103.86 40.1C104.075 40.376 104.213 40.79 104.274 41.342C104.274 41.5567 104.251 41.8097 104.205 42.101C104.174 42.3923 104.159 42.538 104.159 42.538C104.159 42.538 104.282 42.377 104.527 42.055C104.788 41.733 105.133 41.3803 105.562 40.997C105.853 40.7823 106.137 40.6597 106.413 40.629C106.689 40.583 106.934 40.675 107.149 40.905C107.548 41.1197 107.808 41.4493 107.931 41.894C108.054 42.3233 108.084 42.8753 108.023 43.55C107.977 43.9487 107.969 44.2477 108 44.447C108.031 44.631 108.077 44.815 108.138 44.999C108.261 45.0603 108.284 45.1907 108.207 45.39C108.13 45.574 108.038 45.666 107.931 45.666C107.778 45.666 107.601 45.6353 107.402 45.574C107.218 45.5127 107.049 45.413 106.896 45.275C106.758 45.1217 106.689 44.9147 106.689 44.654V43.228C106.689 42.8907 106.674 42.6147 106.643 42.4C106.628 42.1853 106.589 42.055 106.528 42.009C106.359 41.917 106.114 42.0167 105.792 42.308C105.47 42.5993 105.125 42.9903 104.757 43.481C104.389 43.9717 104.044 44.4777 103.722 44.999C103.431 45.4743 103.247 45.7503 103.17 45.827C103.109 45.8883 102.994 45.8653 102.825 45.758C102.488 45.6507 102.273 45.505 102.181 45.321C102.104 45.1217 102.097 44.8993 102.158 44.654C102.235 44.3933 102.327 44.0407 102.434 43.596C102.557 43.1513 102.672 42.722 102.779 42.308C102.886 41.8787 102.955 41.572 102.986 41.388C102.925 41.2653 102.817 41.227 102.664 41.273C102.526 41.3037 102.38 41.3727 102.227 41.48C102.043 41.6027 101.821 41.8327 101.56 42.17C101.299 42.5073 101.031 42.8983 100.755 43.343C100.571 43.6343 100.379 43.9257 100.18 44.217C99.9807 44.493 99.7967 44.7383 99.628 44.953C99.4594 45.1677 99.3137 45.3287 99.191 45.436C98.9764 45.7733 98.8307 45.9573 98.754 45.988C98.6774 46.0187 98.5317 45.9803 98.317 45.873ZM112.521 46.126C112.199 46.1873 111.992 46.2103 111.9 46.195C111.823 46.1643 111.701 46.0723 111.532 45.919C111.287 45.7963 111.08 45.643 110.911 45.459C110.758 45.275 110.643 45.0833 110.566 44.884C110.505 44.6693 110.482 44.493 110.497 44.355C110.543 43.8183 110.673 43.2433 110.888 42.63C111.103 42.0167 111.363 41.4263 111.67 40.859C111.977 40.2917 112.306 39.8087 112.659 39.41C113.027 38.996 113.38 38.7277 113.717 38.605C114.024 38.4823 114.315 38.4363 114.591 38.467C114.867 38.4977 115.066 38.6433 115.189 38.904C115.419 39.3487 115.365 39.6323 115.028 39.755C114.982 39.755 114.928 39.778 114.867 39.824C114.806 39.8547 114.775 39.9007 114.775 39.962C114.836 39.9927 115.005 40.0003 115.281 39.985C115.557 39.9543 115.833 39.9083 116.109 39.847C116.4 39.7703 116.592 39.6937 116.684 39.617C116.776 39.571 116.845 39.548 116.891 39.548C116.937 39.548 117.052 39.5633 117.236 39.594C117.497 39.6707 117.627 39.7627 117.627 39.87C117.627 39.9313 117.65 39.9927 117.696 40.054C117.742 40.1 117.796 40.123 117.857 40.123C117.964 40.1383 117.949 40.2073 117.811 40.33C117.688 40.4527 117.474 40.6213 117.167 40.836C116.876 41.02 116.692 41.1427 116.615 41.204C116.554 41.25 116.546 41.3573 116.592 41.526C116.715 41.8173 116.722 42.1547 116.615 42.538C116.508 42.9213 116.316 43.3123 116.04 43.711C115.764 44.1097 115.427 44.4853 115.028 44.838C114.645 45.1753 114.231 45.4667 113.786 45.712C113.357 45.942 112.935 46.08 112.521 46.126ZM112.13 45.114C112.191 45.114 112.299 45.0833 112.452 45.022C112.605 44.9453 112.728 44.884 112.82 44.838C112.881 44.7767 112.958 44.7077 113.05 44.631C113.157 44.539 113.242 44.4853 113.303 44.47C113.364 44.47 113.441 44.447 113.533 44.401C113.625 44.3397 113.755 44.2247 113.924 44.056C114.093 43.872 114.315 43.6037 114.591 43.251C114.898 42.9137 115.135 42.607 115.304 42.331C115.473 42.0397 115.519 41.7713 115.442 41.526C115.427 41.4647 115.381 41.4263 115.304 41.411C115.243 41.3957 115.158 41.3573 115.051 41.296C114.898 41.296 114.752 41.2577 114.614 41.181C114.491 41.089 114.346 40.974 114.177 40.836L113.809 40.376L113.418 40.767C113.173 41.0123 112.912 41.3803 112.636 41.871C112.375 42.3463 112.153 42.837 111.969 43.343C111.785 43.8337 111.678 44.2247 111.647 44.516C111.632 44.746 111.67 44.8993 111.762 44.976C111.854 45.0527 111.977 45.0987 112.13 45.114ZM120.722 46.747C120.277 46.8237 119.871 46.8007 119.503 46.678C119.135 46.54 118.836 46.3177 118.606 46.011C118.391 45.689 118.284 45.2827 118.284 44.792C118.238 44.332 118.291 43.803 118.445 43.205C118.598 42.5917 118.82 41.9783 119.112 41.365C119.418 40.7517 119.748 40.2227 120.101 39.778C120.407 39.41 120.714 39.0727 121.021 38.766C121.327 38.4593 121.603 38.2523 121.849 38.145C122.063 38.053 122.263 37.9993 122.447 37.984C122.646 37.9533 122.807 37.938 122.93 37.938C123.175 37.9993 123.436 38.1143 123.712 38.283C124.003 38.4363 124.149 38.605 124.149 38.789C124.149 38.789 124.164 38.812 124.195 38.858C124.241 38.8887 124.264 38.904 124.264 38.904C124.356 38.904 124.432 39.0037 124.494 39.203C124.57 39.4023 124.616 39.6323 124.632 39.893C124.647 40.1383 124.609 40.3453 124.517 40.514C124.455 40.8053 124.348 41.0583 124.195 41.273C124.041 41.4877 123.903 41.595 123.781 41.595C123.719 41.595 123.658 41.6027 123.597 41.618C123.551 41.618 123.528 41.6563 123.528 41.733C123.528 41.8097 123.482 41.8403 123.39 41.825C123.313 41.8097 123.229 41.7637 123.137 41.687C123.045 41.595 122.976 41.4877 122.93 41.365C122.93 41.2883 122.96 41.158 123.022 40.974C123.083 40.79 123.144 40.5523 123.206 40.261C123.298 39.8317 123.29 39.5557 123.183 39.433C123.075 39.295 122.868 39.2873 122.562 39.41C122.178 39.6247 121.81 39.9237 121.458 40.307C121.12 40.6903 120.806 41.1887 120.515 41.802C120.223 42.4 119.963 43.1513 119.733 44.056C119.641 44.4087 119.602 44.7153 119.618 44.976C119.648 45.2367 119.687 45.3747 119.733 45.39C119.947 45.4513 120.239 45.4667 120.607 45.436C120.975 45.39 121.243 45.321 121.412 45.229C121.657 45.1063 121.933 44.9453 122.24 44.746C122.546 44.5313 122.815 44.3397 123.045 44.171C123.121 44.125 123.213 44.0483 123.321 43.941C123.428 43.8337 123.543 43.7493 123.666 43.688C123.788 43.504 123.896 43.3967 123.988 43.366C124.08 43.3353 124.218 43.32 124.402 43.32C124.524 43.3507 124.639 43.3967 124.747 43.458C124.854 43.5193 124.923 43.5807 124.954 43.642C125 43.7033 124.977 43.757 124.885 43.803C124.823 43.803 124.785 43.826 124.77 43.872C124.77 43.9027 124.77 43.918 124.77 43.918C124.8 43.9793 124.731 44.1097 124.563 44.309C124.409 44.493 124.21 44.7 123.965 44.93C123.719 45.16 123.482 45.3593 123.252 45.528C123.037 45.6813 122.884 45.758 122.792 45.758C122.638 45.758 122.562 45.804 122.562 45.896C122.562 45.9267 122.447 46.0033 122.217 46.126C122.002 46.2487 121.749 46.3713 121.458 46.494C121.182 46.6167 120.936 46.701 120.722 46.747ZM128 52.29C127.985 52.3207 127.916 52.29 127.793 52.198C127.686 52.106 127.579 51.991 127.471 51.853C127.364 51.7303 127.318 51.623 127.333 51.531C127.272 51.3163 127.28 51.048 127.356 50.726C127.448 50.4193 127.64 49.9593 127.931 49.346C128.085 49.1007 128.223 48.8093 128.345 48.472C128.483 48.1347 128.637 47.7973 128.805 47.46C128.882 47.322 129.051 47.023 129.311 46.563C129.572 46.103 129.848 45.5817 130.139 44.999C130.446 44.4163 130.699 43.8643 130.898 43.343C130.5 43.757 130.132 44.1787 129.794 44.608C129.457 45.022 129.143 45.3593 128.851 45.62C128.575 45.8807 128.315 46.0033 128.069 45.988C127.87 45.942 127.655 45.873 127.425 45.781C127.211 45.6737 127.065 45.4897 126.988 45.229C126.927 44.8917 126.904 44.4623 126.919 43.941C126.95 43.4197 127.05 42.63 127.218 41.572C127.341 41.0507 127.41 40.652 127.425 40.376C127.456 40.0847 127.448 39.87 127.402 39.732C127.356 39.594 127.272 39.4713 127.149 39.364C126.95 39.18 126.843 39.019 126.827 38.881C126.827 38.7277 126.935 38.5973 127.149 38.49C127.471 38.4133 127.701 38.3903 127.839 38.421C127.977 38.4363 128.146 38.559 128.345 38.789C128.468 38.9883 128.575 39.18 128.667 39.364C128.775 39.5327 128.828 39.8317 128.828 40.261C128.828 40.445 128.798 40.6903 128.736 40.997C128.69 41.3037 128.644 41.595 128.598 41.871C128.568 42.1317 128.545 42.3157 128.529 42.423C128.376 42.9903 128.276 43.481 128.23 43.895C128.2 44.309 128.223 44.516 128.299 44.516C128.606 44.2707 128.897 43.9947 129.173 43.688C129.465 43.366 129.764 43.0057 130.07 42.607C130.392 42.193 130.745 41.7253 131.128 41.204C131.266 40.9433 131.404 40.6903 131.542 40.445C131.68 40.1997 131.795 39.9467 131.887 39.686C131.979 39.4867 132.071 39.3257 132.163 39.203C132.255 39.0803 132.332 39.0113 132.393 38.996C132.47 38.9653 132.562 38.973 132.669 39.019C132.792 39.065 132.899 39.1187 132.991 39.18C133.099 39.226 133.152 39.2643 133.152 39.295C133.168 39.3103 133.206 39.3257 133.267 39.341C133.329 39.3563 133.39 39.3717 133.451 39.387C133.528 39.387 133.566 39.41 133.566 39.456C133.566 39.4867 133.528 39.5863 133.451 39.755C133.39 39.9237 133.313 40.1153 133.221 40.33C133.145 40.5293 133.076 40.7133 133.014 40.882C132.953 41.0353 132.93 41.1273 132.945 41.158C132.976 41.1887 132.953 41.3037 132.876 41.503C132.8 41.687 132.708 41.894 132.6 42.124C132.508 42.354 132.424 42.561 132.347 42.745C132.194 43.251 132.018 43.757 131.818 44.263C131.619 44.7537 131.381 45.2443 131.105 45.735C131.013 45.919 130.875 46.2027 130.691 46.586C130.523 46.9693 130.354 47.345 130.185 47.713C130.032 48.0963 129.909 48.3877 129.817 48.587C129.756 48.7097 129.664 48.9013 129.541 49.162C129.434 49.438 129.311 49.737 129.173 50.059C129.051 50.381 128.928 50.68 128.805 50.956C128.683 51.2473 128.591 51.4697 128.529 51.623C128.499 51.9143 128.43 52.129 128.322 52.267C128.261 52.267 128.192 52.267 128.115 52.267C128.039 52.2823 128 52.29 128 52.29ZM140.117 46.149C139.918 46.103 139.742 46.0187 139.588 45.896C139.435 45.758 139.328 45.5893 139.266 45.39C139.205 45.1907 139.205 44.9913 139.266 44.792C139.343 44.5313 139.412 44.2783 139.473 44.033C139.55 43.7723 139.604 43.5193 139.634 43.274C139.65 43.136 139.703 42.9367 139.795 42.676C139.903 42.4 140.01 42.101 140.117 41.779C140.225 41.457 140.278 41.158 140.278 40.882C140.278 40.698 140.255 40.537 140.209 40.399C140.163 40.2457 140.071 40.1307 139.933 40.054C139.642 39.87 139.343 39.755 139.036 39.709C138.745 39.663 138.438 39.6093 138.116 39.548C138.086 39.5327 137.978 39.5327 137.794 39.548C137.626 39.5633 137.48 39.5633 137.357 39.548C137.311 39.7167 137.265 39.8853 137.219 40.054C137.173 40.2227 137.135 40.3913 137.104 40.56C137.043 40.744 136.974 40.9587 136.897 41.204C136.821 41.4493 136.752 41.687 136.69 41.917C136.598 42.3003 136.529 42.584 136.483 42.768C136.437 42.952 136.384 43.136 136.322 43.32C136.276 43.504 136.192 43.7877 136.069 44.171C136.023 44.3243 135.985 44.47 135.954 44.608C135.924 44.746 135.87 44.884 135.793 45.022C135.763 45.0833 135.747 45.137 135.747 45.183C135.747 45.2137 135.747 45.2673 135.747 45.344C135.747 45.4513 135.717 45.551 135.655 45.643C135.609 45.7197 135.548 45.7887 135.471 45.85C135.41 45.896 135.333 45.9343 135.241 45.965C135.149 45.9957 135.065 46.034 134.988 46.08C134.835 45.9573 134.728 45.8423 134.666 45.735C134.605 45.6277 134.513 45.4973 134.39 45.344C134.482 44.9607 134.567 44.5927 134.643 44.24C134.735 43.8873 134.812 43.5883 134.873 43.343C134.95 43.0823 135.011 42.9213 135.057 42.86C135.134 42.768 135.18 42.5917 135.195 42.331C135.226 42.0703 135.295 41.8173 135.402 41.572C135.387 41.4033 135.41 41.25 135.471 41.112C135.533 40.9587 135.594 40.8053 135.655 40.652C135.763 40.376 135.824 40.0923 135.839 39.801C135.87 39.4943 135.916 39.1953 135.977 38.904C136.146 38.7813 136.276 38.7123 136.368 38.697C136.46 38.6663 136.606 38.6433 136.805 38.628C136.821 38.582 136.836 38.536 136.851 38.49C136.867 38.4287 136.882 38.375 136.897 38.329C137.143 38.1603 137.465 38.076 137.863 38.076C138.262 38.076 138.592 38.1297 138.852 38.237C138.898 38.2523 138.937 38.26 138.967 38.26C138.998 38.26 139.044 38.2677 139.105 38.283C139.259 38.2983 139.443 38.352 139.657 38.444C139.872 38.5207 140.079 38.6203 140.278 38.743C140.478 38.8657 140.631 38.9807 140.738 39.088C141.06 39.3793 141.275 39.709 141.382 40.077C141.505 40.445 141.566 40.8207 141.566 41.204C141.551 41.7407 141.459 42.2697 141.29 42.791C141.122 43.297 140.991 43.711 140.899 44.033C140.853 44.2323 140.823 44.401 140.807 44.539C140.807 44.677 140.838 44.8073 140.899 44.93C140.961 45.0527 141.045 45.1907 141.152 45.344C141.137 45.4207 141.076 45.5357 140.968 45.689C140.876 45.827 140.769 45.896 140.646 45.896C140.539 45.896 140.447 45.9343 140.37 46.011C140.309 46.0723 140.225 46.1183 140.117 46.149ZM149.506 46.172C149.445 46.0493 149.368 45.9573 149.276 45.896C149.184 45.8193 149.138 45.7503 149.138 45.689C149.138 45.6277 149.131 45.5663 149.115 45.505C149.115 45.4283 149.085 45.3593 149.023 45.298C148.947 45.206 148.954 44.999 149.046 44.677C149.138 44.3397 149.292 43.9333 149.506 43.458C149.721 42.9673 149.974 42.4537 150.265 41.917C150.388 41.7943 150.511 41.6333 150.633 41.434C150.756 41.2347 150.848 41.1043 150.909 41.043C150.909 40.9817 150.932 40.928 150.978 40.882C151.024 40.8207 151.078 40.79 151.139 40.79V40.652C151.139 40.5753 151.208 40.445 151.346 40.261C151.5 40.077 151.684 39.8777 151.898 39.663C152.113 39.433 152.335 39.2183 152.565 39.019C152.795 38.8043 152.987 38.651 153.14 38.559C153.462 38.3443 153.792 38.214 154.129 38.168C154.482 38.122 154.781 38.1987 155.026 38.398C155.072 38.444 155.149 38.5207 155.256 38.628C155.364 38.7353 155.486 38.858 155.624 38.996C155.778 39.1187 155.931 39.249 156.084 39.387L156.935 40.146L156.521 41.296C156.322 41.9093 156.268 42.446 156.36 42.906C156.468 43.366 156.621 43.7647 156.82 44.102C156.897 44.2707 157.05 44.4317 157.28 44.585C157.526 44.7383 157.756 44.8303 157.97 44.861C158.093 44.8763 158.208 44.9223 158.315 44.999C158.423 45.0757 158.476 45.1983 158.476 45.367C158.476 45.5203 158.446 45.643 158.384 45.735C158.323 45.827 158.216 45.8883 158.062 45.919C157.556 45.9803 157.081 45.8577 156.636 45.551C156.207 45.2443 155.808 44.7383 155.44 44.033C155.379 43.941 155.295 43.7723 155.187 43.527C155.095 43.2663 155.042 43.0977 155.026 43.021C154.965 43.0977 154.85 43.2433 154.681 43.458C154.513 43.6573 154.382 43.803 154.29 43.895C153.202 44.999 152.259 45.7427 151.461 46.126C150.679 46.494 150.028 46.5093 149.506 46.172ZM150.334 44.884C150.334 44.9913 150.495 44.9913 150.817 44.884C151.155 44.7613 151.515 44.5467 151.898 44.24C152.42 43.7953 152.941 43.3047 153.462 42.768C153.999 42.2313 154.428 41.733 154.75 41.273L155.256 40.445C155.103 40.0923 154.934 39.8547 154.75 39.732C154.582 39.594 154.436 39.525 154.313 39.525C154.114 39.525 153.815 39.709 153.416 40.077C153.033 40.445 152.619 40.9357 152.174 41.549C151.73 42.1623 151.308 42.837 150.909 43.573C150.756 43.8797 150.618 44.1787 150.495 44.47C150.388 44.746 150.334 44.884 150.334 44.884ZM159.921 46.287C159.798 46.379 159.622 46.402 159.392 46.356C159.162 46.31 158.978 46.264 158.84 46.218C158.809 46.1567 158.778 46.0877 158.748 46.011C158.717 45.9343 158.694 45.8653 158.679 45.804C158.663 45.7273 158.648 45.6507 158.633 45.574C158.633 45.4973 158.617 45.4283 158.587 45.367C158.633 45.321 158.671 45.275 158.702 45.229C158.748 45.183 158.794 45.1447 158.84 45.114C158.916 45.114 159.001 45.114 159.093 45.114C159.185 45.114 159.269 45.114 159.346 45.114C159.422 45.0833 159.484 45.0373 159.53 44.976C159.591 44.8993 159.668 44.861 159.76 44.861C160.097 44.6463 160.427 44.309 160.749 43.849C161.086 43.389 161.408 42.8753 161.715 42.308C162.037 41.7407 162.32 41.1887 162.566 40.652C162.826 40.1 163.041 39.64 163.21 39.272C163.21 39.2413 163.21 39.2183 163.21 39.203C163.21 39.1877 163.202 39.1723 163.187 39.157C163.079 39.1877 162.964 39.2183 162.842 39.249C162.719 39.2643 162.596 39.295 162.474 39.341C162.458 39.3563 162.435 39.3717 162.405 39.387C162.374 39.4023 162.351 39.4177 162.336 39.433C162.167 39.571 161.945 39.6093 161.669 39.548C161.408 39.4867 161.224 39.3563 161.117 39.157C161.086 39.0957 161.055 39.042 161.025 38.996C160.994 38.95 160.956 38.8963 160.91 38.835C160.971 38.697 161.063 38.5667 161.186 38.444C161.324 38.306 161.469 38.2217 161.623 38.191C162.037 38.099 162.443 38.03 162.842 37.984C163.256 37.9227 163.67 37.9073 164.084 37.938C164.498 37.9687 164.904 38.0607 165.303 38.214C165.379 38.2293 165.448 38.2447 165.51 38.26C165.571 38.2753 165.632 38.306 165.694 38.352C165.786 38.4133 165.878 38.4823 165.97 38.559C166.062 38.6357 166.146 38.7123 166.223 38.789C166.33 38.881 166.414 38.9807 166.476 39.088C166.537 39.1953 166.575 39.318 166.591 39.456C166.621 39.6093 166.637 39.7703 166.637 39.939C166.652 40.1077 166.644 40.2763 166.614 40.445C166.537 40.8283 166.414 41.2883 166.246 41.825C166.092 42.3463 165.954 42.7987 165.832 43.182C165.648 43.78 165.487 44.3167 165.349 44.792C165.211 45.252 165.08 45.7043 164.958 46.149C164.758 46.2103 164.567 46.2027 164.383 46.126C164.199 46.0493 164.038 45.9343 163.9 45.781C163.838 45.5663 163.808 45.367 163.808 45.183C163.808 44.9837 163.861 44.7843 163.969 44.585C164.076 44.3703 164.153 44.0943 164.199 43.757C164.245 43.4197 164.344 43.1513 164.498 42.952C164.528 42.8907 164.544 42.837 164.544 42.791C164.544 42.699 164.574 42.5227 164.636 42.262C164.712 42.0013 164.797 41.71 164.889 41.388C164.981 41.0507 165.065 40.7363 165.142 40.445C165.234 40.1537 165.295 39.9313 165.326 39.778C165.356 39.686 165.356 39.6017 165.326 39.525C165.31 39.4483 165.303 39.364 165.303 39.272C165.18 39.2107 165.004 39.1647 164.774 39.134C164.559 39.1033 164.413 39.18 164.337 39.364C164.321 39.3947 164.306 39.433 164.291 39.479C164.291 39.5097 164.283 39.5403 164.268 39.571C164.145 39.9543 163.976 40.3223 163.762 40.675C163.562 41.0277 163.378 41.5107 163.21 42.124C163.164 42.2927 163.095 42.4537 163.003 42.607C162.926 42.745 162.857 42.8983 162.796 43.067C162.796 43.0823 162.788 43.0977 162.773 43.113C162.773 43.1283 162.765 43.1437 162.75 43.159C162.75 43.1743 162.742 43.1897 162.727 43.205C162.619 43.343 162.52 43.4887 162.428 43.642C162.351 43.78 162.267 43.9257 162.175 44.079C161.914 44.5083 161.569 44.907 161.14 45.275C160.726 45.643 160.319 45.9803 159.921 46.287ZM167.126 52.543C166.789 52.6043 166.559 52.612 166.436 52.566C166.313 52.52 166.145 52.4433 165.93 52.336C165.761 52.2133 165.631 52.1213 165.539 52.06C165.447 51.9987 165.401 51.9373 165.401 51.876C165.401 51.83 165.416 51.7763 165.447 51.715C165.478 51.669 165.531 51.623 165.608 51.577C165.7 51.5463 165.823 51.531 165.976 51.531C166.083 51.5923 166.26 51.623 166.505 51.623C166.766 51.623 166.927 51.5923 166.988 51.531C166.988 51.531 167.057 51.485 167.195 51.393C167.348 51.3163 167.548 51.255 167.793 51.209C168.268 50.979 168.69 50.6877 169.058 50.335C169.426 49.9823 169.779 49.5223 170.116 48.955C170.254 48.7403 170.4 48.4873 170.553 48.196C170.706 47.92 170.814 47.644 170.875 47.368C170.998 47.0613 171.136 46.6473 171.289 46.126C171.458 45.6047 171.603 45.091 171.726 44.585C171.849 44.0637 171.918 43.6727 171.933 43.412C172.025 42.5533 172.171 41.7637 172.37 41.043C172.585 40.307 172.769 39.4867 172.922 38.582C173.014 38.3673 173.083 38.2447 173.129 38.214C173.175 38.168 173.275 38.145 173.428 38.145C173.597 38.145 173.719 38.1603 173.796 38.191C173.888 38.2063 173.988 38.2983 174.095 38.467C174.248 38.7583 174.302 39.1033 174.256 39.502C174.225 39.8853 174.11 40.2227 173.911 40.514C173.758 40.7287 173.62 41.066 173.497 41.526C173.39 41.9707 173.282 42.5303 173.175 43.205C173.098 43.5423 173.014 43.941 172.922 44.401C172.845 44.8457 172.761 45.344 172.669 45.896C172.608 46.0493 172.523 46.287 172.416 46.609C172.309 46.9157 172.24 47.161 172.209 47.345C172.194 47.4063 172.148 47.529 172.071 47.713C171.994 47.897 171.918 48.0733 171.841 48.242C171.764 48.426 171.711 48.5487 171.68 48.61C171.082 49.852 170.4 50.8027 169.633 51.462C168.866 52.1213 168.031 52.4817 167.126 52.543ZM168.874 45.873C168.705 45.873 168.529 45.781 168.345 45.597C168.176 45.413 168.061 45.2673 168 45.16C167.939 45.0067 167.862 44.861 167.77 44.723C167.678 44.585 167.609 44.4163 167.563 44.217C167.532 44.0177 167.548 43.7723 167.609 43.481C167.67 43.2817 167.755 42.998 167.862 42.63C167.985 42.2467 168.115 41.8327 168.253 41.388C168.406 40.9433 168.56 40.5063 168.713 40.077C168.882 39.6323 169.035 39.2413 169.173 38.904C169.311 38.5513 169.434 38.2983 169.541 38.145C169.633 38.0223 169.733 37.9457 169.84 37.915C169.963 37.8843 170.085 37.8997 170.208 37.961C170.331 38.007 170.438 38.1067 170.53 38.26C170.699 38.4747 170.768 38.6587 170.737 38.812C170.706 38.9653 170.568 39.2643 170.323 39.709C170.262 39.8777 170.185 40.0617 170.093 40.261C170.001 40.445 169.955 40.5677 169.955 40.629C169.94 40.6597 169.909 40.767 169.863 40.951C169.832 41.1197 169.794 41.2807 169.748 41.434C169.702 41.5873 169.656 41.664 169.61 41.664C169.549 41.7253 169.48 41.9017 169.403 42.193C169.326 42.469 169.257 42.7833 169.196 43.136C169.135 43.4733 169.096 43.7723 169.081 44.033C169.066 44.2783 169.089 44.401 169.15 44.401C169.625 44.401 170.116 44.217 170.622 43.849C171.143 43.481 171.665 42.9443 172.186 42.239L172.577 43.872C172.362 43.9793 172.163 44.0943 171.979 44.217C171.795 44.3243 171.626 44.4547 171.473 44.608C171.427 44.6693 171.32 44.7537 171.151 44.861C170.982 44.9683 170.814 45.068 170.645 45.16C170.492 45.2367 170.392 45.275 170.346 45.275C170.346 45.275 170.323 45.2827 170.277 45.298C170.246 45.298 170.231 45.3287 170.231 45.39C170.231 45.4207 170.131 45.482 169.932 45.574C169.733 45.6507 169.526 45.7197 169.311 45.781C169.096 45.8423 168.951 45.873 168.874 45.873ZM176.943 52.29C176.927 52.3207 176.858 52.29 176.736 52.198C176.628 52.106 176.521 51.991 176.414 51.853C176.306 51.7303 176.26 51.623 176.276 51.531C176.214 51.3163 176.222 51.048 176.299 50.726C176.391 50.4193 176.582 49.9593 176.874 49.346C177.027 49.1007 177.165 48.8093 177.288 48.472C177.426 48.1347 177.579 47.7973 177.748 47.46C177.824 47.322 177.993 47.023 178.254 46.563C178.514 46.103 178.79 45.5817 179.082 44.999C179.388 44.4163 179.641 43.8643 179.841 43.343C179.442 43.757 179.074 44.1787 178.737 44.608C178.399 45.022 178.085 45.3593 177.794 45.62C177.518 45.8807 177.257 46.0033 177.012 45.988C176.812 45.942 176.598 45.873 176.368 45.781C176.153 45.6737 176.007 45.4897 175.931 45.229C175.869 44.8917 175.846 44.4623 175.862 43.941C175.892 43.4197 175.992 42.63 176.161 41.572C176.283 41.0507 176.352 40.652 176.368 40.376C176.398 40.0847 176.391 39.87 176.345 39.732C176.299 39.594 176.214 39.4713 176.092 39.364C175.892 39.18 175.785 39.019 175.77 38.881C175.77 38.7277 175.877 38.5973 176.092 38.49C176.414 38.4133 176.644 38.3903 176.782 38.421C176.92 38.4363 177.088 38.559 177.288 38.789C177.41 38.9883 177.518 39.18 177.61 39.364C177.717 39.5327 177.771 39.8317 177.771 40.261C177.771 40.445 177.74 40.6903 177.679 40.997C177.633 41.3037 177.587 41.595 177.541 41.871C177.51 42.1317 177.487 42.3157 177.472 42.423C177.318 42.9903 177.219 43.481 177.173 43.895C177.142 44.309 177.165 44.516 177.242 44.516C177.548 44.2707 177.84 43.9947 178.116 43.688C178.407 43.366 178.706 43.0057 179.013 42.607C179.335 42.193 179.687 41.7253 180.071 41.204C180.209 40.9433 180.347 40.6903 180.485 40.445C180.623 40.1997 180.738 39.9467 180.83 39.686C180.922 39.4867 181.014 39.3257 181.106 39.203C181.198 39.0803 181.274 39.0113 181.336 38.996C181.412 38.9653 181.504 38.973 181.612 39.019C181.734 39.065 181.842 39.1187 181.934 39.18C182.041 39.226 182.095 39.2643 182.095 39.295C182.11 39.3103 182.148 39.3257 182.21 39.341C182.271 39.3563 182.332 39.3717 182.394 39.387C182.47 39.387 182.509 39.41 182.509 39.456C182.509 39.4867 182.47 39.5863 182.394 39.755C182.332 39.9237 182.256 40.1153 182.164 40.33C182.087 40.5293 182.018 40.7133 181.957 40.882C181.895 41.0353 181.872 41.1273 181.888 41.158C181.918 41.1887 181.895 41.3037 181.819 41.503C181.742 41.687 181.65 41.894 181.543 42.124C181.451 42.354 181.366 42.561 181.29 42.745C181.136 43.251 180.96 43.757 180.761 44.263C180.561 44.7537 180.324 45.2443 180.048 45.735C179.956 45.919 179.818 46.2027 179.634 46.586C179.465 46.9693 179.296 47.345 179.128 47.713C178.974 48.0963 178.852 48.3877 178.76 48.587C178.698 48.7097 178.606 48.9013 178.484 49.162C178.376 49.438 178.254 49.737 178.116 50.059C177.993 50.381 177.87 50.68 177.748 50.956C177.625 51.2473 177.533 51.4697 177.472 51.623C177.441 51.9143 177.372 52.129 177.265 52.267C177.203 52.267 177.134 52.267 177.058 52.267C176.981 52.2823 176.943 52.29 176.943 52.29Z" fill="#929783"/>
</svg>
