<svg width="129" height="60" viewBox="0 0 129 60" fill="none" xmlns="http://www.w3.org/2000/svg">
<g clip-path="url(#clip0_43_50)">
<mask id="mask0_43_50" style="mask-type:luminance" maskUnits="userSpaceOnUse" x="0" y="0" width="129" height="60">
<path d="M129 0H0V60H129V0Z" fill="white"/>
</mask>
<g mask="url(#mask0_43_50)">
<path d="M5.82838 3.99198L8.83638 3.47998V26.52L5.82838 27V4.82398L2.66038 7.47998L2.34038 7.09598L5.82838 4.18398V3.99198ZM37.0914 27C36.2914 27 35.6194 26.328 35.6194 25.528C35.6194 24.696 36.2914 24.024 37.0914 24.024C37.9234 24.024 38.5954 24.696 38.5954 25.528C38.5954 26.328 37.9234 27 37.0914 27ZM37.0914 11.992C36.2914 11.992 35.6194 11.32 35.6194 10.488C35.6194 9.65598 36.2914 8.98398 37.0914 8.98398C37.9234 8.98398 38.5954 9.65598 38.5954 10.488C38.5954 11.32 37.9234 11.992 37.0914 11.992ZM78.7211 3.47998C85.2171 3.47998 89.2171 6.99998 89.2171 15C89.2171 23 84.7371 27 78.7211 27C72.2251 27 68.2251 23 68.2251 15C68.2251 6.99998 72.7051 3.47998 78.7211 3.47998ZM79.7131 26.52C85.2171 26.52 86.2411 20.504 86.2411 15C86.2411 6.99998 82.2091 3.99198 77.7291 3.99198C72.7051 3.99198 71.2011 9.49598 71.2011 15C71.2011 23 75.2011 26.52 79.7131 26.52Z" fill="#262626"/>
<path d="M56.5467 3.54297C57.4707 3.54297 58.2847 3.69697 58.9887 4.00497C59.7147 4.29097 60.2757 4.71997 60.6717 5.29197C61.0897 5.84197 61.2987 6.51297 61.2987 7.30497C61.2987 8.16297 61.0567 8.95497 60.5727 9.68097C60.1107 10.385 59.5057 11.001 58.7577 11.529C58.0097 12.035 57.2177 12.442 56.3817 12.75C57.4157 12.772 58.3947 12.97 59.3187 13.344C60.2427 13.696 61.0017 14.235 61.5957 14.961C62.1897 15.687 62.4867 16.622 62.4867 17.766C62.4867 18.778 62.2447 19.713 61.7607 20.571C61.2987 21.407 60.6497 22.155 59.8137 22.815C58.9997 23.497 58.0647 24.069 57.0087 24.531C55.9527 25.015 54.8417 25.378 53.6757 25.62C52.5317 25.862 51.3987 25.983 50.2767 25.983V25.389C51.3987 25.367 52.4987 25.18 53.5767 24.828C54.6547 24.498 55.6227 24.014 56.4807 23.376C57.3607 22.738 58.0537 21.946 58.5597 21C59.0877 20.054 59.3517 18.976 59.3517 17.766C59.3517 16.468 59.0327 15.401 58.3947 14.565C57.7787 13.707 56.9317 13.234 55.8537 13.146C55.5237 13.278 55.2267 13.399 54.9627 13.509C54.7207 13.597 54.5007 13.641 54.3027 13.641C54.1267 13.641 53.9947 13.608 53.9067 13.542C53.8187 13.454 53.7747 13.344 53.7747 13.212C53.7747 13.014 53.8627 12.86 54.0387 12.75C54.2147 12.64 54.4127 12.585 54.6327 12.585C54.8087 12.585 54.9847 12.607 55.1607 12.651C55.3587 12.673 55.5677 12.695 55.7877 12.717C56.6897 12.035 57.3387 11.287 57.7347 10.473C58.1307 9.63697 58.3287 8.80097 58.3287 7.96497C58.3287 6.93097 58.0647 6.18297 57.5367 5.72097C57.0307 5.23697 56.3377 4.99497 55.4577 4.99497C54.5557 4.99497 53.7197 5.23697 52.9497 5.72097C52.2017 6.20497 51.5747 6.94197 51.0687 7.93197L50.5077 7.66797C50.8377 6.94197 51.2667 6.27097 51.7947 5.65497C52.3227 5.01697 52.9717 4.51097 53.7417 4.13697C54.5337 3.74097 55.4687 3.54297 56.5467 3.54297Z" fill="#262626"/>
</g>
<path d="M4.84258 51.275C4.84258 51.275 4.75925 51.2417 4.59258 51.175C4.42591 51.125 4.24258 51.075 4.04258 51.025C3.85924 50.975 3.71758 50.95 3.61758 50.95C3.35091 50.8833 3.15924 50.7333 3.04258 50.5C2.92591 50.2833 2.90091 50.0417 2.96758 49.775C3.03424 49.7083 3.08424 49.5667 3.11758 49.35C3.15091 49.1333 3.16758 48.9583 3.16758 48.825C3.23424 48.6917 3.27591 48.6 3.29258 48.55C3.30924 48.4833 3.35091 48.3167 3.41758 48.05C3.46758 47.7667 3.55091 47.375 3.66758 46.875C3.80091 46.3583 3.94258 45.8083 4.09258 45.225C4.25924 44.6417 4.41758 44.0833 4.56758 43.55C4.71758 43.0167 4.85091 42.5667 4.96758 42.2C5.10091 41.8333 5.19258 41.625 5.24258 41.575C5.24258 41.575 5.24258 41.55 5.24258 41.5C5.24258 41.4333 5.24258 41.3667 5.24258 41.3C5.24258 41.3 5.25091 41.225 5.26758 41.075C5.30091 40.9083 5.38424 40.725 5.51758 40.525C5.58425 40.3417 5.64258 40.1417 5.69258 39.925C5.74258 39.7083 5.76758 39.5667 5.76758 39.5C5.83424 39.4167 5.92591 39.2167 6.04258 38.9C6.17591 38.5667 6.30091 38.2417 6.41758 37.925C6.51758 37.6583 6.62591 37.375 6.74258 37.075C6.87591 36.775 6.98425 36.5167 7.06758 36.3C7.16758 36.0833 7.21758 35.975 7.21758 35.975C7.21758 35.9083 7.21758 35.875 7.21758 35.875C7.21758 35.8583 7.21758 35.85 7.21758 35.85C7.28424 35.7833 7.44258 35.45 7.69258 34.85C7.95925 34.2333 8.31758 33.4417 8.76758 32.475C8.83424 32.3417 8.93425 32.1333 9.06758 31.85C9.20091 31.55 9.26758 31.3667 9.26758 31.3C9.51758 31.05 9.75925 30.9667 9.99258 31.05C10.2426 31.1167 10.4592 31.2583 10.6426 31.475C10.8426 31.6917 10.9842 31.8917 11.0676 32.075L11.3176 32.475L10.3926 34.275C10.1259 34.7417 9.89258 35.1667 9.69258 35.55C9.50925 35.9333 9.41758 36.1583 9.41758 36.225C9.41758 36.225 9.37591 36.325 9.29258 36.525C9.22591 36.725 9.14258 36.9833 9.04258 37.3C8.94258 37.6 8.84258 37.9 8.74258 38.2C8.55925 38.7167 8.38425 39.15 8.21758 39.5C8.05091 39.8333 7.96758 40.0333 7.96758 40.1C7.96758 40.0667 8.13425 40.0417 8.46758 40.025C8.81758 40.0083 9.25091 40 9.76758 40C10.2842 40 10.8092 40 11.3426 40C11.8926 39.9833 12.3842 39.975 12.8176 39.975C13.2509 39.9583 13.5509 39.9333 13.7176 39.9L15.0176 39.775L15.7176 37.55C15.8509 37.0833 16.0259 36.5167 16.2426 35.85C16.4592 35.1833 16.6509 34.6167 16.8176 34.15C17.0842 33.3833 17.3676 32.85 17.6676 32.55C17.9676 32.2333 18.2176 32.075 18.4176 32.075C18.4676 32.075 18.5592 32.125 18.6926 32.225C18.8426 32.3083 18.9926 32.4083 19.1426 32.525C19.2926 32.6417 19.3842 32.75 19.4176 32.85C19.6176 33.0333 19.7092 33.2417 19.6926 33.475C19.6926 33.7083 19.5592 34.0167 19.2926 34.4C19.0259 34.85 18.8009 35.3417 18.6176 35.875C18.4509 36.3917 18.3009 36.8167 18.1676 37.15C18.1676 37.35 18.1426 37.5167 18.0926 37.65C18.0426 37.7667 17.9842 37.8583 17.9176 37.925C17.8842 37.9583 17.8176 38.0833 17.7176 38.3C17.6176 38.5167 17.5259 38.7333 17.4426 38.95C17.3592 39.1667 17.3176 39.3 17.3176 39.35C17.3176 39.4667 17.2926 39.6083 17.2426 39.775C17.1926 39.9417 17.1342 40.0583 17.0676 40.125C17.0342 40.225 16.9592 40.475 16.8426 40.875C16.7259 41.275 16.5926 41.75 16.4426 42.3C16.2926 42.8333 16.1342 43.3583 15.9676 43.875C15.8009 44.375 15.6509 44.7917 15.5176 45.125C15.5176 45.2417 15.4759 45.3917 15.3926 45.575C15.3092 45.7417 15.2676 45.8917 15.2676 46.025C15.2009 46.225 15.1176 46.475 15.0176 46.775C14.9176 47.075 14.8676 47.2667 14.8676 47.35C14.7842 47.7333 14.6926 48.175 14.5926 48.675C14.5092 49.175 14.4342 49.6167 14.3676 50C14.3176 50.3833 14.2926 50.6 14.2926 50.65C13.8592 50.7 13.5342 50.6417 13.3176 50.475C13.1009 50.3083 12.9009 50.1917 12.7176 50.125C12.4009 49.9417 12.2092 49.7083 12.1426 49.425C12.0926 49.1583 12.1592 48.8333 12.3426 48.45C12.4259 48.3167 12.5259 47.9917 12.6426 47.475C12.7759 46.9417 12.9092 46.4167 13.0426 45.9C13.1426 45.65 13.2509 45.3333 13.3676 44.95C13.4842 44.5667 13.5926 44.1917 13.6926 43.825C13.8092 43.4417 13.9092 43.1167 13.9926 42.85C14.0759 42.5833 14.1342 42.4333 14.1676 42.4C14.1676 42.3333 14.1676 42.275 14.1676 42.225C14.1676 42.175 14.1676 42.15 14.1676 42.15C14.1342 42.1167 13.9676 42.0917 13.6676 42.075C13.3676 42.0417 12.9842 42.0333 12.5176 42.05C12.0676 42.05 11.5759 42.0667 11.0426 42.1C10.5092 42.1167 10.0009 42.1583 9.51758 42.225C9.33425 42.225 9.06758 42.225 8.71758 42.225C8.38425 42.225 8.15091 42.225 8.01758 42.225C7.83425 42.225 7.67591 42.225 7.54258 42.225C7.42591 42.225 7.36758 42.225 7.36758 42.225C7.33424 42.275 7.26758 42.4417 7.16758 42.725C7.08425 43.0083 6.97591 43.35 6.84258 43.75C6.72591 44.15 6.60091 44.5583 6.46758 44.975C6.35091 45.3917 6.24258 45.775 6.14258 46.125C6.05924 46.4583 6.00091 46.7 5.96758 46.85C5.90091 47.15 5.80924 47.525 5.69258 47.975C5.59258 48.425 5.47591 48.8833 5.34258 49.35C5.22591 49.8333 5.11758 50.25 5.01758 50.6C4.93424 50.95 4.87591 51.175 4.84258 51.275ZM18.4486 48.475C18.382 48.3417 18.232 48.2083 17.9986 48.075C17.782 47.9417 17.6736 47.8417 17.6736 47.775C17.6736 47.7083 17.632 47.6083 17.5486 47.475C17.482 47.325 17.4153 47.2167 17.3486 47.15C17.2653 47.05 17.2903 46.8083 17.4236 46.425C17.557 46.025 17.757 45.5417 18.0236 44.975C18.2903 44.4083 18.582 43.8333 18.8986 43.25C19.032 43.1167 19.1653 42.9417 19.2986 42.725C19.432 42.5083 19.532 42.3667 19.5986 42.3C19.5986 42.2333 19.6236 42.175 19.6736 42.125C19.7236 42.0583 19.782 42.025 19.8486 42.025L20.0486 41.625C20.082 41.5583 20.182 41.425 20.3486 41.225C20.532 41.025 20.7486 40.8083 20.9986 40.575C21.2486 40.325 21.4986 40.0917 21.7486 39.875C22.0153 39.6583 22.232 39.5 22.3986 39.4C22.7486 39.1667 23.107 39.0583 23.4736 39.075C23.857 39.0917 24.182 39.2083 24.4486 39.425C24.4986 39.475 24.607 39.575 24.7736 39.725C24.957 39.875 25.157 40.0417 25.3736 40.225C25.607 40.4083 25.807 40.575 25.9736 40.725L26.8986 41.55L26.4736 42.8C26.257 43.4667 26.1986 44.05 26.2986 44.55C26.3986 45.05 26.557 45.4833 26.7736 45.85C26.857 46.0333 26.9653 46.175 27.0986 46.275C27.2486 46.375 27.4403 46.4417 27.6736 46.475C27.807 46.4917 27.932 46.5417 28.0486 46.625C28.1653 46.7083 28.2236 46.8417 28.2236 47.025C28.2236 47.425 28.1486 47.7167 27.9986 47.9C27.8653 48.0667 27.7153 48.1667 27.5486 48.2C26.9986 48.2667 26.4736 48.2083 25.9736 48.025C25.4736 47.8417 25.0236 47.3667 24.6236 46.6C24.557 46.5 24.4653 46.3167 24.3486 46.05C24.2486 45.7667 24.1903 45.5833 24.1736 45.5C24.107 45.5833 24.0153 45.6917 23.8986 45.825C23.7986 45.9417 23.6986 46.05 23.5986 46.15C22.4153 47.35 21.3986 48.1333 20.5486 48.5C19.7153 48.85 19.0153 48.8417 18.4486 48.475ZM19.8236 46.4C19.9403 46.4167 20.1236 46.3583 20.3736 46.225C20.6236 46.075 20.957 45.8333 21.3736 45.5C21.9403 45.0167 22.407 44.6167 22.7736 44.3C23.1403 43.9833 23.4986 43.575 23.8486 43.075L24.3986 42.175C24.232 41.7917 24.082 41.5417 23.9486 41.425C23.8153 41.3083 23.682 41.25 23.5486 41.25C23.332 41.25 23.0736 41.3917 22.7736 41.675C22.4736 41.9417 22.132 42.3417 21.7486 42.875C21.382 43.3917 20.9653 44.0417 20.4986 44.825C20.282 45.1917 20.1153 45.55 19.9986 45.9C19.882 46.2333 19.8236 46.4 19.8236 46.4ZM33.2059 49C32.9725 48.9 32.7725 48.7917 32.6059 48.675C32.4559 48.5417 32.3392 48.3917 32.2559 48.225C32.0892 47.9917 31.9975 47.7083 31.9809 47.375C31.9809 47.025 31.9892 46.65 32.0059 46.25C32.0059 46.2 32.0142 46.1417 32.0309 46.075C32.0642 45.9917 32.0975 45.8917 32.1309 45.775C32.1642 45.6583 32.1975 45.5417 32.2309 45.425C32.2809 45.2917 32.3309 45.15 32.3809 45C32.3142 45.0667 32.2392 45.1333 32.1559 45.2C32.0725 45.25 31.9809 45.3083 31.8809 45.375C31.7309 45.4583 31.5725 45.5417 31.4059 45.625C31.2392 45.7083 31.0725 45.775 30.9059 45.825C30.6559 45.9417 30.3475 45.9167 29.9809 45.75C29.6309 45.5833 29.3642 45.3417 29.1809 45.025C29.1142 44.8917 29.0642 44.7667 29.0309 44.65C28.9975 44.5167 28.9725 44.3667 28.9559 44.2C28.8725 43.5667 28.9725 42.9583 29.2559 42.375C29.4725 41.9417 29.6892 41.5167 29.9059 41.1C30.1225 40.6667 30.3225 40.2417 30.5059 39.825C30.5892 39.6917 30.6725 39.5583 30.7559 39.425C30.8392 39.2917 30.8892 39.1917 30.9059 39.125C30.9559 38.9417 31.0559 38.7833 31.2059 38.65C31.3725 38.5167 31.5309 38.45 31.6809 38.45C31.9642 38.4667 32.2059 38.5333 32.4059 38.65C32.6059 38.75 32.7725 38.9 32.9059 39.1C33.0392 39.2667 33.1059 39.475 33.1059 39.725C33.1059 39.9583 33.0142 40.1917 32.8309 40.425C32.5642 40.7917 32.3059 41.1917 32.0559 41.625C31.8225 42.0583 31.5642 42.575 31.2809 43.175C31.2309 43.2583 31.2142 43.3583 31.2309 43.475C31.2642 43.5917 31.2975 43.7083 31.3309 43.825C31.8142 43.7417 32.2225 43.5833 32.5559 43.35C32.9059 43.1167 33.2225 42.85 33.5059 42.55C33.8059 42.25 34.1142 41.975 34.4309 41.725C34.8142 41.425 35.1225 41.075 35.3559 40.675C35.4725 40.475 35.6309 40.2583 35.8309 40.025C36.0309 39.775 36.2475 39.6417 36.4809 39.625C36.6142 39.625 36.7475 39.6417 36.8809 39.675C37.0142 39.6917 37.1642 39.7667 37.3309 39.9C37.3475 39.95 37.3975 40.05 37.4809 40.2C37.5809 40.35 37.6309 40.5417 37.6309 40.775C37.6309 41.0083 37.4809 41.2833 37.1809 41.6C37.0809 41.65 36.9392 41.7833 36.7559 42C36.5892 42.2167 36.4142 42.4667 36.2309 42.75C36.0475 43.0333 35.8892 43.2917 35.7559 43.525C35.6892 43.6583 35.6142 43.775 35.5309 43.875C35.4642 43.9583 35.4059 44.0417 35.3559 44.125L34.1559 46.45C34.1559 46.4667 34.1475 46.5083 34.1309 46.575C34.1309 46.625 34.1309 46.6833 34.1309 46.75C34.2142 46.75 34.3142 46.7667 34.4309 46.8C34.5475 46.8333 34.6392 46.925 34.7059 47.075C34.8392 47.5083 34.8892 47.8167 34.8559 48C34.8392 48.1667 34.6975 48.4 34.4309 48.7C34.0809 49.0667 33.6725 49.1667 33.2059 49ZM40.3973 48.65C40.2639 48.6833 40.0889 48.7 39.8723 48.7C39.6556 48.6833 39.4639 48.6583 39.2973 48.625C39.1473 48.575 39.0723 48.525 39.0723 48.475C39.0723 48.3917 39.0306 48.35 38.9473 48.35C38.9473 48.35 38.8556 48.2833 38.6723 48.15C38.4889 48 38.3223 47.8917 38.1723 47.825C38.0223 47.5917 37.9223 47.325 37.8723 47.025C37.8389 46.7083 37.9389 46.1583 38.1723 45.375C38.1889 44.8417 38.3389 44.2833 38.6223 43.7C38.9056 43.1 39.2639 42.5167 39.6973 41.95C40.1306 41.3833 40.5806 40.8833 41.0473 40.45C41.5139 40 41.9306 39.6667 42.2973 39.45C42.5306 39.2167 42.8389 39.0917 43.2223 39.075C43.6223 39.0583 43.9723 39.1333 44.2723 39.3C44.4389 39.3833 44.6223 39.55 44.8223 39.8C45.0223 40.05 45.2139 40.3167 45.3973 40.6C45.5806 40.8667 45.7223 41.1083 45.8223 41.325C45.8723 41.5083 45.9139 41.675 45.9473 41.825C45.9973 41.9583 46.0306 42.125 46.0473 42.325C46.0639 42.525 46.0473 42.825 45.9973 43.225C45.9139 43.525 45.8389 43.8333 45.7723 44.15C45.7223 44.45 45.6973 44.7583 45.6973 45.075C45.6639 45.3917 45.6973 45.6167 45.7973 45.75C45.9139 45.8833 46.0806 45.8917 46.2973 45.775C46.4973 45.675 46.7056 45.6667 46.9223 45.75C47.1389 45.8167 47.2889 45.95 47.3723 46.15C47.4723 46.3333 47.4473 46.575 47.2973 46.875C47.1973 47.0917 47.0389 47.3 46.8223 47.5C46.6056 47.7 46.3639 47.8667 46.0973 48C45.8306 48.1167 45.5723 48.175 45.3223 48.175C45.1389 48.175 44.9556 48.1083 44.7723 47.975C44.5889 47.825 44.4223 47.625 44.2723 47.375C44.1223 47.125 43.9973 46.85 43.8973 46.55L43.7473 45.975L42.8473 46.8C42.6306 47.0333 42.4139 47.25 42.1973 47.45C41.9973 47.6333 41.8723 47.7667 41.8223 47.85C41.7389 48 41.5723 48.1333 41.3223 48.25C41.0889 48.3667 40.7806 48.5 40.3973 48.65ZM41.0723 46.25C41.3556 46.0833 41.5973 45.8833 41.7973 45.65C42.0139 45.4167 42.2223 45.1583 42.4223 44.875C42.6223 44.575 42.8389 44.2583 43.0723 43.925C43.3556 43.5417 43.5556 43.2333 43.6723 43C43.8056 42.7667 43.9056 42.5167 43.9723 42.25C43.9056 42.0667 43.8139 41.875 43.6973 41.675C43.5806 41.4583 43.4639 41.3417 43.3473 41.325C43.1139 41.325 42.8306 41.4667 42.4973 41.75C42.1806 42.0333 41.8306 42.4417 41.4473 42.975C41.3806 43.0583 41.2973 43.1917 41.1973 43.375C41.0973 43.5583 40.9973 43.7333 40.8973 43.9C40.8139 44.05 40.7556 44.15 40.7223 44.2C40.6723 44.2667 40.5973 44.425 40.4973 44.675C40.4139 44.9083 40.3389 45.15 40.2723 45.4C40.2056 45.6333 40.1723 45.8 40.1723 45.9C40.1723 46 40.1806 46.1083 40.1973 46.225C40.2306 46.3417 40.3139 46.4167 40.4473 46.45C40.5806 46.4833 40.7889 46.4167 41.0723 46.25ZM48.783 48.975C48.6163 48.9083 48.458 48.8583 48.308 48.825C48.158 48.7917 47.9997 48.75 47.833 48.7C47.683 48.55 47.5497 48.3917 47.433 48.225C47.333 48.0417 47.2663 47.85 47.233 47.65C47.1663 47.4333 47.1663 47.2667 47.233 47.15C47.3163 47.0167 47.3747 46.85 47.408 46.65C47.5247 46.65 47.633 46.65 47.733 46.65C47.8497 46.65 47.9663 46.65 48.083 46.65C48.3163 46.4667 48.5497 46.2333 48.783 45.95C49.033 45.6667 49.2663 45.3667 49.483 45.05C49.6663 44.7667 49.833 44.4833 49.983 44.2C50.1497 43.9167 50.2663 43.65 50.333 43.4C50.383 43.2333 50.4163 43.075 50.433 42.925C50.4663 42.775 50.5163 42.625 50.583 42.475C50.633 42.3583 50.6747 42.2417 50.708 42.125C50.758 42.0083 50.808 41.8917 50.858 41.775C50.658 41.7417 50.4913 41.6917 50.358 41.625C50.2413 41.5583 50.1247 41.475 50.008 41.375C49.908 41.2583 49.783 41.1333 49.633 41C49.6163 40.7167 49.633 40.4667 49.683 40.25C49.7497 40.0333 49.8997 39.8667 50.133 39.75C50.1997 39.7167 50.2663 39.6917 50.333 39.675C50.4163 39.6417 50.4997 39.6167 50.583 39.6C50.833 39.4833 51.1497 39.4333 51.533 39.45C51.9163 39.45 52.283 39.4833 52.633 39.55C52.733 39.5667 52.833 39.5833 52.933 39.6C53.033 39.6167 53.1247 39.6417 53.208 39.675C53.358 39.7083 53.4997 39.7667 53.633 39.85C53.783 39.9333 53.933 40 54.083 40.05C54.2163 40.0833 54.3497 40.1333 54.483 40.2C54.6163 40.2667 54.7413 40.3417 54.858 40.425C55.1913 40.6417 55.458 40.925 55.658 41.275C55.8747 41.625 55.983 41.9917 55.983 42.375C55.983 42.925 55.908 43.4417 55.758 43.925C55.6747 44.2417 55.5747 44.5583 55.458 44.875C55.358 45.1917 55.2663 45.5083 55.183 45.825C55.133 45.9917 55.083 46.1583 55.033 46.325C54.983 46.475 54.9413 46.6333 54.908 46.8C54.8413 47.0667 54.7913 47.3417 54.758 47.625C54.7247 47.8917 54.6997 48.175 54.683 48.475C54.5663 48.5083 54.4413 48.55 54.308 48.6C54.1913 48.6333 54.0663 48.6667 53.933 48.7C53.7163 48.6333 53.4747 48.5417 53.208 48.425C52.958 48.3083 52.7747 48.1417 52.658 47.925C52.6413 47.875 52.6247 47.825 52.608 47.775C52.5913 47.725 52.5747 47.675 52.558 47.625C52.5413 47.575 52.533 47.525 52.533 47.475C52.533 47.425 52.533 47.375 52.533 47.325C52.5163 46.975 52.558 46.6083 52.658 46.225C52.7747 45.825 52.8913 45.4417 53.008 45.075C53.0913 44.8083 53.1747 44.5583 53.258 44.325C53.358 44.075 53.433 43.8417 53.483 43.625C53.5163 43.475 53.5663 43.3 53.633 43.1C53.6997 42.8833 53.7413 42.675 53.758 42.475C53.7747 42.3083 53.758 42.15 53.708 42C53.608 41.9167 53.4997 41.8583 53.383 41.825C53.2663 41.7917 53.1413 41.7583 53.008 41.725C53.008 41.725 52.9663 41.825 52.883 42.025C52.8663 42.0417 52.8497 42.0667 52.833 42.1C52.833 42.1333 52.833 42.1667 52.833 42.2C52.783 42.3 52.733 42.4167 52.683 42.55C52.633 42.6667 52.5913 42.7833 52.558 42.9C52.5413 42.95 52.5247 43 52.508 43.05C52.4913 43.1 52.4747 43.1417 52.458 43.175C52.408 43.2917 52.3663 43.4 52.333 43.5C52.3163 43.5833 52.308 43.6333 52.308 43.65C52.2913 43.8833 52.2413 44.1083 52.158 44.325C52.0913 44.525 52.0163 44.7167 51.933 44.9C51.8497 45.0667 51.758 45.2417 51.658 45.425C51.558 45.5917 51.4663 45.7667 51.383 45.95C51.3663 46.0167 51.3413 46.075 51.308 46.125C51.2747 46.175 51.2413 46.2333 51.208 46.3C51.0913 46.5 50.9663 46.7 50.833 46.9C50.6997 47.1 50.558 47.2917 50.408 47.475C50.1913 47.775 49.9497 48.05 49.683 48.3C49.4163 48.55 49.1163 48.775 48.783 48.975ZM60.3471 49.225C60.1304 49.2417 59.9554 49.2167 59.8221 49.15C59.6887 49.1 59.5221 49.0167 59.3221 48.9C58.9554 48.6167 58.6471 48.2667 58.3971 47.85C58.1637 47.4333 58.0554 47.0833 58.0721 46.8C58.1054 46.65 58.1054 46.5167 58.0721 46.4C58.0554 46.2833 58.0471 46.225 58.0471 46.225C57.9471 46.1417 57.9137 46.0917 57.9471 46.075C57.9804 46.0417 58.0054 45.9917 58.0221 45.925C58.1554 45.8917 58.1721 45.8 58.0721 45.65C58.0221 45.5167 58.0471 45.2167 58.1471 44.75C58.2637 44.2667 58.4137 43.8167 58.5971 43.4C58.6804 43.2167 58.7971 42.975 58.9471 42.675C59.1137 42.375 59.2971 42.075 59.4971 41.775C59.6971 41.4583 59.8804 41.2083 60.0471 41.025C60.4137 40.6083 60.7387 40.2667 61.0221 40C61.3221 39.7333 61.6554 39.5333 62.0221 39.4C62.3554 39.2667 62.6887 39.2083 63.0221 39.225C63.3721 39.2417 63.6804 39.3583 63.9471 39.575C64.3471 39.6917 64.7054 39.875 65.0221 40.125C65.3387 40.3583 65.5554 40.6917 65.6721 41.125C65.8054 41.6083 65.8471 42.1833 65.7971 42.85C65.7637 43.5 65.4804 44.3417 64.9471 45.375C64.6304 46.025 64.3137 46.55 63.9971 46.95C63.6971 47.35 63.3304 47.7333 62.8971 48.1C62.5804 48.3667 62.1721 48.6 61.6721 48.8C61.1721 49 60.7304 49.1417 60.3471 49.225ZM62.5221 45.45C62.7387 45.15 62.9054 44.8583 63.0221 44.575C63.1554 44.2917 63.2804 43.9 63.3971 43.4C63.4471 43.2167 63.4721 42.9917 63.4721 42.725C63.4887 42.4583 63.4804 42.2167 63.4471 42C63.4304 41.7667 63.3721 41.6417 63.2721 41.625C63.0554 41.5417 62.8304 41.5417 62.5971 41.625C62.3804 41.6917 62.1221 41.8917 61.8221 42.225C61.5554 42.525 61.3387 42.8083 61.1721 43.075C61.0221 43.325 60.8804 43.6333 60.7471 44C60.6304 44.35 60.4971 44.8083 60.3471 45.375C60.2137 45.925 60.2054 46.3667 60.3221 46.7C60.4554 47.0333 60.7054 47.125 61.0721 46.975C61.4387 46.825 61.9221 46.3167 62.5221 45.45Z" fill="#820201"/>
<path d="M22.599 27.384C21.063 27.384 19.751 27.1173 18.663 26.584C17.5963 26.0507 16.775 25.336 16.199 24.44C15.6443 23.5227 15.367 22.5307 15.367 21.464C15.367 20.44 15.6017 19.544 16.071 18.776C16.5617 18.008 17.191 17.336 17.959 16.76C18.727 16.1627 19.5377 15.6507 20.391 15.224V15.16C19.239 14.456 18.2683 13.6667 17.479 12.792C16.6897 11.896 16.295 10.7547 16.295 9.368C16.295 8.216 16.583 7.18133 17.159 6.264C17.7563 5.32533 18.5777 4.57867 19.623 4.024C20.6897 3.46933 21.9377 3.192 23.367 3.192C24.7537 3.192 25.927 3.45867 26.887 3.992C27.847 4.52533 28.5723 5.208 29.063 6.04C29.5537 6.85067 29.799 7.71467 29.799 8.632C29.799 9.57067 29.575 10.4027 29.127 11.128C28.679 11.8533 28.1243 12.4827 27.463 13.016C26.8017 13.5493 26.151 13.9973 25.511 14.36V14.424C26.3857 14.9147 27.207 15.4373 27.975 15.992C28.7643 16.5467 29.4043 17.208 29.895 17.976C30.3857 18.744 30.631 19.672 30.631 20.76C30.631 21.9547 30.3003 23.064 29.639 24.088C28.999 25.0907 28.0817 25.8907 26.887 26.488C25.6923 27.0853 24.263 27.384 22.599 27.384ZM21.479 15.8C20.711 16.376 20.071 17.112 19.559 18.008C19.047 18.8827 18.791 19.9493 18.791 21.208C18.791 22.104 18.9403 22.936 19.239 23.704C19.559 24.4507 20.0283 25.0587 20.647 25.528C21.287 25.9973 22.087 26.232 23.047 26.232C23.9857 26.232 24.7643 26.0187 25.383 25.592C26.023 25.1653 26.503 24.6107 26.823 23.928C27.143 23.2453 27.303 22.5307 27.303 21.784C27.303 20.8453 27.0257 20.0453 26.471 19.384C25.9377 18.7013 25.223 18.0827 24.327 17.528C23.4523 16.9733 22.503 16.3973 21.479 15.8ZM24.327 13.816C24.8817 13.432 25.383 12.8453 25.831 12.056C26.3003 11.2453 26.535 10.2107 26.535 8.952C26.535 8.14133 26.4177 7.384 26.183 6.68C25.9483 5.976 25.575 5.41067 25.063 4.984C24.5723 4.55733 23.9217 4.344 23.111 4.344C21.959 4.344 21.0737 4.76 20.455 5.592C19.8363 6.424 19.527 7.39467 19.527 8.504C19.527 9.336 19.7403 10.0613 20.167 10.68C20.5937 11.2773 21.1697 11.832 21.895 12.344C22.6203 12.8347 23.431 13.3253 24.327 13.816Z" fill="#262626"/>
</g>
<defs>
<clipPath id="clip0_43_50">
<rect width="129" height="60" fill="white"/>
</clipPath>
</defs>
</svg>
