<svg width="185" height="60" viewBox="0 0 185 60" fill="none" xmlns="http://www.w3.org/2000/svg">
<g clip-path="url(#clip0_42_13)">
<mask id="mask0_42_13" style="mask-type:luminance" maskUnits="userSpaceOnUse" x="0" y="0" width="185" height="60">
<path d="M185 0H0V60H185V0Z" fill="white"/>
</mask>
<g mask="url(#mask0_42_13)">
<path d="M8.35862 3.99198L12.6724 3.47998V26.52L8.35862 27V4.82398L3.81536 7.47998L3.35645 7.09598L8.35862 4.18398V3.99198ZM53.1932 27C52.0459 27 51.0822 26.328 51.0822 25.528C51.0822 24.696 52.0459 24.024 53.1932 24.024C54.3864 24.024 55.3501 24.696 55.3501 25.528C55.3501 26.328 54.3864 27 53.1932 27ZM53.1932 11.992C52.0459 11.992 51.0822 11.32 51.0822 10.488C51.0822 9.65598 52.0459 8.98398 53.1932 8.98398C54.3864 8.98398 55.3501 9.65598 55.3501 10.488C55.3501 11.32 54.3864 11.992 53.1932 11.992ZM76.2353 3.47998C85.5513 3.47998 91.2877 6.99998 91.2877 15C91.2877 23 84.8629 27 76.2353 27C66.9193 27 61.1829 23 61.1829 15C61.1829 6.99998 67.6077 3.47998 76.2353 3.47998ZM77.6579 26.52C85.5513 26.52 87.0198 20.504 87.0198 15C87.0198 6.99998 81.2375 3.99198 74.8126 3.99198C67.6077 3.99198 65.4508 9.49598 65.4508 15C65.4508 23 71.1872 26.52 77.6579 26.52ZM112.895 3.47998C122.211 3.47998 127.947 6.99998 127.947 15C127.947 23 121.522 27 112.895 27C103.579 27 97.8423 23 97.8423 15C97.8423 6.99998 104.267 3.47998 112.895 3.47998ZM114.317 26.52C122.211 26.52 123.679 20.504 123.679 15C123.679 6.99998 117.897 3.99198 111.472 3.99198C104.267 3.99198 102.11 9.49598 102.11 15C102.11 23 107.847 26.52 114.317 26.52Z" fill="#262626"/>
<path d="M22.4983 3.87299C22.7822 3.91699 23.3028 3.94999 24.06 3.97199C24.8172 3.99399 25.6849 4.01599 26.6629 4.03799C27.641 4.03799 28.6033 4.03799 29.5498 4.03799H40.0561V4.73099C39.3935 5.85299 38.589 7.00799 37.6425 8.19599C36.7275 9.38399 35.8126 10.66 34.8976 12.024C34.0142 13.366 33.2727 14.829 32.6733 16.413C32.1054 17.975 31.8372 19.702 31.8688 21.594C31.8688 21.946 31.8845 22.276 31.9161 22.584C31.9476 22.892 31.9792 23.178 32.0107 23.442C32.0423 23.706 32.0581 23.959 32.0581 24.201C32.0581 24.685 31.853 25.081 31.4428 25.389C31.0327 25.719 30.4963 25.884 29.8338 25.884C29.1081 25.884 28.5717 25.697 28.2247 25.323C27.8776 24.949 27.7041 24.52 27.7041 24.036C27.7041 22.54 27.9723 21.099 28.5086 19.713C29.0765 18.327 29.8022 16.985 30.6856 15.687C31.569 14.367 32.5313 13.091 33.5725 11.859C34.6452 10.605 35.6864 9.39499 36.696 8.22899C37.7371 7.04099 38.6679 5.87499 39.4882 4.73099L38.1631 6.80999H26.6629C25.3694 6.80999 24.5491 6.93099 24.202 7.17299C23.855 7.41499 23.6183 7.85499 23.4921 8.49299H22.6876C22.6876 7.32699 22.6718 6.39199 22.6403 5.68799C22.6087 4.98399 22.5614 4.37899 22.4983 3.87299Z" fill="#262626"/>
</g>
<path d="M8.5332 33.0469V43H6.82422V33.0469H8.5332ZM14.5215 33.0469L10.4746 38.7207H8.04785L7.81543 37.2305H9.52441L12.4229 33.0469H14.5215ZM12.7715 43L9.55176 38.4609L10.6592 37.1416L14.8291 43H12.7715ZM15.1436 39.3838V39.2266C15.1436 38.6934 15.221 38.1989 15.376 37.7432C15.5309 37.2829 15.7542 36.8841 16.0459 36.5469C16.3421 36.2051 16.7021 35.9408 17.126 35.7539C17.5544 35.5625 18.0374 35.4668 18.5752 35.4668C19.1175 35.4668 19.6006 35.5625 20.0244 35.7539C20.4528 35.9408 20.8151 36.2051 21.1113 36.5469C21.4076 36.8841 21.6331 37.2829 21.7881 37.7432C21.943 38.1989 22.0205 38.6934 22.0205 39.2266V39.3838C22.0205 39.917 21.943 40.4115 21.7881 40.8672C21.6331 41.3229 21.4076 41.7217 21.1113 42.0635C20.8151 42.4007 20.4551 42.665 20.0312 42.8564C19.6074 43.0433 19.1266 43.1367 18.5889 43.1367C18.0465 43.1367 17.5612 43.0433 17.1328 42.8564C16.709 42.665 16.349 42.4007 16.0527 42.0635C15.7565 41.7217 15.5309 41.3229 15.376 40.8672C15.221 40.4115 15.1436 39.917 15.1436 39.3838ZM16.791 39.2266V39.3838C16.791 39.7165 16.8252 40.0309 16.8936 40.3271C16.9619 40.6234 17.069 40.8831 17.2148 41.1064C17.3607 41.3298 17.5475 41.5052 17.7754 41.6328C18.0033 41.7604 18.2744 41.8242 18.5889 41.8242C18.8942 41.8242 19.1585 41.7604 19.3818 41.6328C19.6097 41.5052 19.7965 41.3298 19.9424 41.1064C20.0882 40.8831 20.1953 40.6234 20.2637 40.3271C20.3366 40.0309 20.373 39.7165 20.373 39.3838V39.2266C20.373 38.8984 20.3366 38.5885 20.2637 38.2969C20.1953 38.0007 20.0859 37.7386 19.9355 37.5107C19.7897 37.2829 19.6029 37.1051 19.375 36.9775C19.1517 36.8454 18.8851 36.7793 18.5752 36.7793C18.2653 36.7793 17.9964 36.8454 17.7686 36.9775C17.5452 37.1051 17.3607 37.2829 17.2148 37.5107C17.069 37.7386 16.9619 38.0007 16.8936 38.2969C16.8252 38.5885 16.791 38.8984 16.791 39.2266ZM28.4531 38.6934V39.9922H24.625V38.6934H28.4531ZM25.1035 35.6035V43H23.4561V35.6035H25.1035ZM29.6426 35.6035V43H27.9951V35.6035H29.6426ZM31.085 39.3838V39.2266C31.085 38.6934 31.1624 38.1989 31.3174 37.7432C31.4723 37.2829 31.6956 36.8841 31.9873 36.5469C32.2835 36.2051 32.6436 35.9408 33.0674 35.7539C33.4958 35.5625 33.9788 35.4668 34.5166 35.4668C35.0589 35.4668 35.542 35.5625 35.9658 35.7539C36.3942 35.9408 36.7565 36.2051 37.0527 36.5469C37.349 36.8841 37.5745 37.2829 37.7295 37.7432C37.8844 38.1989 37.9619 38.6934 37.9619 39.2266V39.3838C37.9619 39.917 37.8844 40.4115 37.7295 40.8672C37.5745 41.3229 37.349 41.7217 37.0527 42.0635C36.7565 42.4007 36.3965 42.665 35.9727 42.8564C35.5488 43.0433 35.068 43.1367 34.5303 43.1367C33.988 43.1367 33.5026 43.0433 33.0742 42.8564C32.6504 42.665 32.2904 42.4007 31.9941 42.0635C31.6979 41.7217 31.4723 41.3229 31.3174 40.8672C31.1624 40.4115 31.085 39.917 31.085 39.3838ZM32.7324 39.2266V39.3838C32.7324 39.7165 32.7666 40.0309 32.835 40.3271C32.9033 40.6234 33.0104 40.8831 33.1562 41.1064C33.3021 41.3298 33.4889 41.5052 33.7168 41.6328C33.9447 41.7604 34.2158 41.8242 34.5303 41.8242C34.8356 41.8242 35.0999 41.7604 35.3232 41.6328C35.5511 41.5052 35.738 41.3298 35.8838 41.1064C36.0296 40.8831 36.1367 40.6234 36.2051 40.3271C36.278 40.0309 36.3145 39.7165 36.3145 39.3838V39.2266C36.3145 38.8984 36.278 38.5885 36.2051 38.2969C36.1367 38.0007 36.0273 37.7386 35.877 37.5107C35.7311 37.2829 35.5443 37.1051 35.3164 36.9775C35.0931 36.8454 34.8265 36.7793 34.5166 36.7793C34.2067 36.7793 33.9378 36.8454 33.71 36.9775C33.4867 37.1051 33.3021 37.2829 33.1562 37.5107C33.0104 37.7386 32.9033 38.0007 32.835 38.2969C32.7666 38.5885 32.7324 38.8984 32.7324 39.2266ZM41.1201 35.6035V43H39.4727V35.6035H41.1201ZM45.9463 35.6035L42.6172 40.0537H40.7373L40.5186 38.5635H41.8926L43.8887 35.6035H45.9463ZM44.0186 43L41.79 39.7734L43.0889 38.8369L46.1855 43H44.0186ZM50.5127 35.6035V43H48.8584V35.6035H50.5127ZM52.9395 35.6035V36.9023H46.4727V35.6035H52.9395ZM53.4658 39.3838V39.2266C53.4658 38.6934 53.5433 38.1989 53.6982 37.7432C53.8532 37.2829 54.0765 36.8841 54.3682 36.5469C54.6644 36.2051 55.0244 35.9408 55.4482 35.7539C55.8766 35.5625 56.3597 35.4668 56.8975 35.4668C57.4398 35.4668 57.9229 35.5625 58.3467 35.7539C58.7751 35.9408 59.1374 36.2051 59.4336 36.5469C59.7298 36.8841 59.9554 37.2829 60.1104 37.7432C60.2653 38.1989 60.3428 38.6934 60.3428 39.2266V39.3838C60.3428 39.917 60.2653 40.4115 60.1104 40.8672C59.9554 41.3229 59.7298 41.7217 59.4336 42.0635C59.1374 42.4007 58.7773 42.665 58.3535 42.8564C57.9297 43.0433 57.4489 43.1367 56.9111 43.1367C56.3688 43.1367 55.8835 43.0433 55.4551 42.8564C55.0312 42.665 54.6712 42.4007 54.375 42.0635C54.0788 41.7217 53.8532 41.3229 53.6982 40.8672C53.5433 40.4115 53.4658 39.917 53.4658 39.3838ZM55.1133 39.2266V39.3838C55.1133 39.7165 55.1475 40.0309 55.2158 40.3271C55.2842 40.6234 55.3913 40.8831 55.5371 41.1064C55.6829 41.3298 55.8698 41.5052 56.0977 41.6328C56.3255 41.7604 56.5967 41.8242 56.9111 41.8242C57.2165 41.8242 57.4808 41.7604 57.7041 41.6328C57.932 41.5052 58.1188 41.3298 58.2646 41.1064C58.4105 40.8831 58.5176 40.6234 58.5859 40.3271C58.6589 40.0309 58.6953 39.7165 58.6953 39.3838V39.2266C58.6953 38.8984 58.6589 38.5885 58.5859 38.2969C58.5176 38.0007 58.4082 37.7386 58.2578 37.5107C58.112 37.2829 57.9251 37.1051 57.6973 36.9775C57.474 36.8454 57.2074 36.7793 56.8975 36.7793C56.5876 36.7793 56.3187 36.8454 56.0908 36.9775C55.8675 37.1051 55.6829 37.2829 55.5371 37.5107C55.3913 37.7386 55.2842 38.0007 55.2158 38.2969C55.1475 38.5885 55.1133 38.8984 55.1133 39.2266ZM63.3779 37.0254V45.8438H61.7305V35.6035H63.248L63.3779 37.0254ZM68.1973 39.2334V39.377C68.1973 39.9147 68.1335 40.4137 68.0059 40.874C67.8828 41.3298 67.6982 41.7285 67.4521 42.0703C67.2106 42.4076 66.9121 42.6696 66.5566 42.8564C66.2012 43.0433 65.791 43.1367 65.3262 43.1367C64.8659 43.1367 64.4626 43.0524 64.1162 42.8838C63.7744 42.7106 63.485 42.4668 63.248 42.1523C63.0111 41.8379 62.8197 41.4688 62.6738 41.0449C62.5326 40.6165 62.4323 40.1471 62.373 39.6367V39.083C62.4323 38.5407 62.5326 38.0485 62.6738 37.6064C62.8197 37.1644 63.0111 36.7839 63.248 36.4648C63.485 36.1458 63.7744 35.8997 64.1162 35.7266C64.458 35.5534 64.8568 35.4668 65.3125 35.4668C65.7773 35.4668 66.1898 35.5579 66.5498 35.7402C66.9098 35.918 67.2129 36.1732 67.459 36.5059C67.7051 36.834 67.8896 37.2305 68.0127 37.6953C68.1357 38.1556 68.1973 38.6683 68.1973 39.2334ZM66.5498 39.377V39.2334C66.5498 38.8916 66.5179 38.5749 66.4541 38.2832C66.3903 37.987 66.29 37.7272 66.1533 37.5039C66.0166 37.2806 65.8411 37.1074 65.627 36.9844C65.4173 36.8568 65.1644 36.793 64.8682 36.793C64.5765 36.793 64.3258 36.8431 64.1162 36.9434C63.9066 37.0391 63.7311 37.1735 63.5898 37.3467C63.4486 37.5199 63.3392 37.7227 63.2617 37.9551C63.1842 38.1829 63.1296 38.4313 63.0977 38.7002V40.0264C63.1523 40.3545 63.2458 40.6553 63.3779 40.9287C63.5101 41.2021 63.6969 41.4209 63.9385 41.585C64.1846 41.7445 64.499 41.8242 64.8818 41.8242C65.1781 41.8242 65.431 41.7604 65.6406 41.6328C65.8503 41.5052 66.0212 41.3298 66.1533 41.1064C66.29 40.8786 66.3903 40.6165 66.4541 40.3203C66.5179 40.0241 66.5498 39.7096 66.5498 39.377ZM70.8154 35.6035H72.4629L72.3809 38.208C72.3581 38.9645 72.2715 39.6139 72.1211 40.1562C71.9707 40.6986 71.7747 41.1566 71.5332 41.5303C71.2917 41.8994 71.0182 42.2025 70.7129 42.4395C70.4121 42.6764 70.0954 42.8633 69.7627 43H69.2773V41.7012L69.5098 41.6875C69.7057 41.4779 69.8743 41.2682 70.0156 41.0586C70.1615 40.8444 70.2845 40.6097 70.3848 40.3545C70.485 40.0947 70.5625 39.7917 70.6172 39.4453C70.6764 39.099 70.7152 38.6865 70.7334 38.208L70.8154 35.6035ZM71.2529 35.6035H75.9424V43H74.3018V36.998H71.2529V35.6035ZM68.9014 41.6875H76.9541V45.2012H75.3066V43H70.5693V45.2012H68.8945L68.9014 41.6875ZM80.2764 42.1934L82.2861 35.6035H84.0498L81.083 44.1279C81.0146 44.3102 80.9258 44.5085 80.8164 44.7227C80.707 44.9368 80.5635 45.1396 80.3857 45.3311C80.2126 45.527 79.9961 45.6842 79.7363 45.8027C79.4766 45.9258 79.1621 45.9873 78.793 45.9873C78.6471 45.9873 78.5059 45.9736 78.3691 45.9463C78.237 45.9235 78.1117 45.8984 77.9932 45.8711L77.9863 44.6133C78.0319 44.6178 78.0866 44.6224 78.1504 44.627C78.2188 44.6315 78.2734 44.6338 78.3145 44.6338C78.5879 44.6338 78.8158 44.5996 78.998 44.5312C79.1803 44.4674 79.3285 44.3626 79.4424 44.2168C79.5609 44.071 79.6611 43.875 79.7432 43.6289L80.2764 42.1934ZM79.1416 35.6035L80.8984 41.1406L81.1924 42.877L80.0508 43.1709L77.3643 35.6035H79.1416ZM91.9111 35.6035V43H90.2568V35.6035H91.9111ZM94.3379 35.6035V36.9023H87.8711V35.6035H94.3379ZM94.8643 39.3838V39.2266C94.8643 38.6934 94.9417 38.1989 95.0967 37.7432C95.2516 37.2829 95.4749 36.8841 95.7666 36.5469C96.0628 36.2051 96.4229 35.9408 96.8467 35.7539C97.2751 35.5625 97.7581 35.4668 98.2959 35.4668C98.8382 35.4668 99.3213 35.5625 99.7451 35.7539C100.174 35.9408 100.536 36.2051 100.832 36.5469C101.128 36.8841 101.354 37.2829 101.509 37.7432C101.664 38.1989 101.741 38.6934 101.741 39.2266V39.3838C101.741 39.917 101.664 40.4115 101.509 40.8672C101.354 41.3229 101.128 41.7217 100.832 42.0635C100.536 42.4007 100.176 42.665 99.752 42.8564C99.3281 43.0433 98.8473 43.1367 98.3096 43.1367C97.7673 43.1367 97.2819 43.0433 96.8535 42.8564C96.4297 42.665 96.0697 42.4007 95.7734 42.0635C95.4772 41.7217 95.2516 41.3229 95.0967 40.8672C94.9417 40.4115 94.8643 39.917 94.8643 39.3838ZM96.5117 39.2266V39.3838C96.5117 39.7165 96.5459 40.0309 96.6143 40.3271C96.6826 40.6234 96.7897 40.8831 96.9355 41.1064C97.0814 41.3298 97.2682 41.5052 97.4961 41.6328C97.724 41.7604 97.9951 41.8242 98.3096 41.8242C98.6149 41.8242 98.8792 41.7604 99.1025 41.6328C99.3304 41.5052 99.5173 41.3298 99.6631 41.1064C99.8089 40.8831 99.916 40.6234 99.9844 40.3271C100.057 40.0309 100.094 39.7165 100.094 39.3838V39.2266C100.094 38.8984 100.057 38.5885 99.9844 38.2969C99.916 38.0007 99.8066 37.7386 99.6562 37.5107C99.5104 37.2829 99.3236 37.1051 99.0957 36.9775C98.8724 36.8454 98.6058 36.7793 98.2959 36.7793C97.986 36.7793 97.7171 36.8454 97.4893 36.9775C97.266 37.1051 97.0814 37.2829 96.9355 37.5107C96.7897 37.7386 96.6826 38.0007 96.6143 38.2969C96.5459 38.5885 96.5117 38.8984 96.5117 39.2266ZM106.144 41.8242C106.412 41.8242 106.654 41.7718 106.868 41.667C107.087 41.5576 107.262 41.4072 107.395 41.2158C107.531 41.0244 107.606 40.8034 107.62 40.5527H109.172C109.163 41.0312 109.021 41.4665 108.748 41.8584C108.475 42.2503 108.112 42.5625 107.661 42.7949C107.21 43.0228 106.711 43.1367 106.164 43.1367C105.599 43.1367 105.107 43.041 104.688 42.8496C104.268 42.6536 103.92 42.3848 103.642 42.043C103.364 41.7012 103.154 41.307 103.013 40.8604C102.876 40.4137 102.808 39.9352 102.808 39.4248V39.1855C102.808 38.6751 102.876 38.1966 103.013 37.75C103.154 37.2988 103.364 36.9023 103.642 36.5605C103.92 36.2188 104.268 35.9521 104.688 35.7607C105.107 35.5648 105.597 35.4668 106.157 35.4668C106.75 35.4668 107.269 35.5853 107.716 35.8223C108.162 36.0547 108.513 36.3805 108.769 36.7998C109.028 37.2145 109.163 37.6976 109.172 38.249H107.62C107.606 37.9756 107.538 37.7295 107.415 37.5107C107.297 37.2874 107.128 37.1097 106.909 36.9775C106.695 36.8454 106.438 36.7793 106.137 36.7793C105.804 36.7793 105.528 36.8477 105.31 36.9844C105.091 37.1165 104.92 37.2988 104.797 37.5312C104.674 37.7591 104.585 38.0166 104.53 38.3037C104.48 38.5863 104.455 38.8802 104.455 39.1855V39.4248C104.455 39.7301 104.48 40.0264 104.53 40.3135C104.58 40.6006 104.667 40.8581 104.79 41.0859C104.918 41.3092 105.091 41.4893 105.31 41.626C105.528 41.7581 105.806 41.8242 106.144 41.8242ZM112.583 42.1934L114.593 35.6035H116.356L113.39 44.1279C113.321 44.3102 113.232 44.5085 113.123 44.7227C113.014 44.9368 112.87 45.1396 112.692 45.3311C112.519 45.527 112.303 45.6842 112.043 45.8027C111.783 45.9258 111.469 45.9873 111.1 45.9873C110.954 45.9873 110.812 45.9736 110.676 45.9463C110.544 45.9235 110.418 45.8984 110.3 45.8711L110.293 44.6133C110.339 44.6178 110.393 44.6224 110.457 44.627C110.525 44.6315 110.58 44.6338 110.621 44.6338C110.895 44.6338 111.122 44.5996 111.305 44.5312C111.487 44.4674 111.635 44.3626 111.749 44.2168C111.868 44.071 111.968 43.875 112.05 43.6289L112.583 42.1934ZM111.448 35.6035L113.205 41.1406L113.499 42.877L112.357 43.1709L109.671 35.6035H111.448ZM122.263 35.6035V36.916H118.612V35.6035H122.263ZM119.002 35.6035V43H117.354V35.6035H119.002ZM123.555 35.6035V43H121.9V35.6035H123.555ZM132.954 41.5166V37.9893C132.954 37.7249 132.906 37.4971 132.811 37.3057C132.715 37.1143 132.569 36.9661 132.373 36.8613C132.182 36.7565 131.94 36.7041 131.648 36.7041C131.38 36.7041 131.147 36.7497 130.951 36.8408C130.755 36.932 130.603 37.055 130.493 37.21C130.384 37.3649 130.329 37.5404 130.329 37.7363H128.688C128.688 37.4447 128.759 37.1621 128.9 36.8887C129.042 36.6152 129.247 36.3714 129.516 36.1572C129.785 35.943 130.106 35.7744 130.479 35.6514C130.853 35.5283 131.272 35.4668 131.737 35.4668C132.293 35.4668 132.785 35.5602 133.214 35.7471C133.647 35.9339 133.986 36.2165 134.232 36.5947C134.483 36.9684 134.608 37.4378 134.608 38.0029V41.291C134.608 41.6283 134.631 41.9313 134.677 42.2002C134.727 42.4645 134.798 42.6947 134.889 42.8906V43H133.2C133.123 42.8223 133.061 42.5967 133.016 42.3232C132.975 42.0452 132.954 41.7764 132.954 41.5166ZM133.193 38.502L133.207 39.5205H132.024C131.719 39.5205 131.45 39.5501 131.218 39.6094C130.985 39.6641 130.792 39.7461 130.637 39.8555C130.482 39.9648 130.366 40.097 130.288 40.252C130.211 40.4069 130.172 40.5824 130.172 40.7783C130.172 40.9743 130.217 41.1543 130.309 41.3184C130.4 41.4779 130.532 41.6032 130.705 41.6943C130.883 41.7855 131.097 41.8311 131.348 41.8311C131.685 41.8311 131.979 41.7627 132.229 41.626C132.485 41.4847 132.685 41.3138 132.831 41.1133C132.977 40.9082 133.054 40.7145 133.063 40.5322L133.597 41.2637C133.542 41.4505 133.449 41.651 133.316 41.8652C133.184 42.0794 133.011 42.2845 132.797 42.4805C132.587 42.6719 132.334 42.8291 132.038 42.9521C131.746 43.0752 131.409 43.1367 131.026 43.1367C130.543 43.1367 130.113 43.041 129.734 42.8496C129.356 42.6536 129.06 42.3916 128.846 42.0635C128.632 41.7308 128.524 41.3548 128.524 40.9355C128.524 40.5436 128.597 40.1973 128.743 39.8965C128.894 39.5911 129.112 39.3359 129.399 39.1309C129.691 38.9258 130.047 38.7708 130.466 38.666C130.885 38.5566 131.364 38.502 131.901 38.502H133.193ZM141.301 35.6035V36.916H137.691V35.6035H141.301ZM142.593 35.6035V43H140.945V35.6035H142.593ZM137.288 35.6035H138.915L138.717 39.2607C138.689 39.8031 138.635 40.2816 138.553 40.6963C138.475 41.1064 138.37 41.4596 138.238 41.7559C138.106 42.0475 137.944 42.2845 137.753 42.4668C137.562 42.6491 137.338 42.7835 137.083 42.8701C136.828 42.9567 136.541 43 136.222 43H135.709L135.702 41.6465L135.962 41.626C136.131 41.6123 136.276 41.569 136.399 41.4961C136.522 41.4186 136.627 41.3092 136.714 41.168C136.805 41.0267 136.878 40.8444 136.933 40.6211C136.992 40.3978 137.037 40.1335 137.069 39.8281C137.106 39.5228 137.133 39.1673 137.151 38.7617L137.288 35.6035ZM146.489 42.1934L148.499 35.6035H150.263L147.296 44.1279C147.228 44.3102 147.139 44.5085 147.029 44.7227C146.92 44.9368 146.776 45.1396 146.599 45.3311C146.425 45.527 146.209 45.6842 145.949 45.8027C145.689 45.9258 145.375 45.9873 145.006 45.9873C144.86 45.9873 144.719 45.9736 144.582 45.9463C144.45 45.9235 144.325 45.8984 144.206 45.8711L144.199 44.6133C144.245 44.6178 144.299 44.6224 144.363 44.627C144.432 44.6315 144.486 44.6338 144.527 44.6338C144.801 44.6338 145.029 44.5996 145.211 44.5312C145.393 44.4674 145.541 44.3626 145.655 44.2168C145.774 44.071 145.874 43.875 145.956 43.6289L146.489 42.1934ZM145.354 35.6035L147.111 41.1406L147.405 42.877L146.264 43.1709L143.577 35.6035H145.354ZM153.353 42.1934L155.362 35.6035H157.126L154.159 44.1279C154.091 44.3102 154.002 44.5085 153.893 44.7227C153.783 44.9368 153.64 45.1396 153.462 45.3311C153.289 45.527 153.072 45.6842 152.812 45.8027C152.553 45.9258 152.238 45.9873 151.869 45.9873C151.723 45.9873 151.582 45.9736 151.445 45.9463C151.313 45.9235 151.188 45.8984 151.069 45.8711L151.062 44.6133C151.108 44.6178 151.163 44.6224 151.227 44.627C151.295 44.6315 151.35 44.6338 151.391 44.6338C151.664 44.6338 151.892 44.5996 152.074 44.5312C152.257 44.4674 152.405 44.3626 152.519 44.2168C152.637 44.071 152.737 43.875 152.819 43.6289L153.353 42.1934ZM152.218 35.6035L153.975 41.1406L154.269 42.877L153.127 43.1709L150.44 35.6035H152.218Z" fill="#820201"/>
</g>
<defs>
<clipPath id="clip0_42_13">
<rect width="185" height="60" fill="white"/>
</clipPath>
</defs>
</svg>
