<svg width="185" height="60" viewBox="0 0 185 60" fill="none" xmlns="http://www.w3.org/2000/svg">
<g clip-path="url(#clip0_43_32)">
<path d="M8.35861 3.99198L12.6724 3.47998V26.52L8.35861 27V4.82398L3.81536 7.47998L3.35645 7.09598L8.35861 4.18398V3.99198ZM53.1932 27C52.0459 27 51.0822 26.328 51.0822 25.528C51.0822 24.696 52.0459 24.024 53.1932 24.024C54.3864 24.024 55.3501 24.696 55.3501 25.528C55.3501 26.328 54.3864 27 53.1932 27ZM53.1932 11.992C52.0459 11.992 51.0822 11.32 51.0822 10.488C51.0822 9.65598 52.0459 8.98398 53.1932 8.98398C54.3864 8.98398 55.3501 9.65598 55.3501 10.488C55.3501 11.32 54.3864 11.992 53.1932 11.992ZM76.2353 3.47998C85.5513 3.47998 91.2877 6.99998 91.2877 15C91.2877 23 84.8629 27 76.2353 27C66.9193 27 61.1829 23 61.1829 15C61.1829 6.99998 67.6077 3.47998 76.2353 3.47998ZM77.6579 26.52C85.5513 26.52 87.0198 20.504 87.0198 15C87.0198 6.99998 81.2375 3.99198 74.8126 3.99198C67.6077 3.99198 65.4508 9.49598 65.4508 15C65.4508 23 71.1872 26.52 77.6579 26.52ZM112.895 3.47998C122.211 3.47998 127.947 6.99998 127.947 15C127.947 23 121.522 27 112.895 27C103.579 27 97.8423 23 97.8423 15C97.8423 6.99998 104.267 3.47998 112.895 3.47998ZM114.317 26.52C122.211 26.52 123.679 20.504 123.679 15C123.679 6.99998 117.897 3.99198 111.472 3.99198C104.267 3.99198 102.11 9.49598 102.11 15C102.11 23 107.847 26.52 114.317 26.52Z" fill="#262626"/>
<path d="M28.2354 27.384C27.2754 27.384 26.3154 27.2133 25.3554 26.872C24.4167 26.5093 23.5634 25.9547 22.7954 25.208C22.0274 24.4613 21.4087 23.5013 20.9394 22.328C20.4914 21.1333 20.2674 19.704 20.2674 18.04C20.2674 16.2907 20.5447 14.5413 21.0994 12.792C21.6754 11.0427 22.5394 9.44267 23.6914 7.992C24.8434 6.54133 26.2834 5.37867 28.0114 4.504C29.7607 3.62933 31.8087 3.192 34.1554 3.192C34.2407 3.192 34.39 3.192 34.6034 3.192C34.8167 3.192 35.03 3.21333 35.2434 3.256C35.2434 3.68266 35.2007 4.07733 35.1154 4.44C35.0087 4.41867 34.8594 4.408 34.6674 4.408C34.4967 4.38667 34.262 4.376 33.9634 4.376C32.1927 4.376 30.6354 4.78133 29.2914 5.592C27.9687 6.38133 26.8807 7.48 26.0274 8.888C25.174 10.2747 24.566 11.864 24.2034 13.656C24.9074 13.208 25.6754 12.8667 26.5074 12.632C27.3394 12.3973 28.182 12.28 29.0354 12.28C30.2087 12.28 31.318 12.536 32.3634 13.048C33.4087 13.5387 34.262 14.3173 34.9234 15.384C35.5847 16.4293 35.9154 17.784 35.9154 19.448C35.9154 21.2187 35.542 22.6907 34.7954 23.864C34.0487 25.0373 33.0887 25.9227 31.9154 26.52C30.742 27.096 29.5154 27.384 28.2354 27.384ZM23.9474 15.16C23.862 15.9493 23.8194 16.7707 23.8194 17.624C23.8194 19.672 24.0434 21.3253 24.4914 22.584C24.9394 23.8427 25.5154 24.76 26.2194 25.336C26.9234 25.8907 27.6594 26.168 28.4274 26.168C29.046 26.168 29.654 25.976 30.2514 25.592C30.8487 25.208 31.3394 24.5893 31.7234 23.736C32.1074 22.8827 32.2994 21.7627 32.2994 20.376C32.2994 18.8613 32.0754 17.6347 31.6274 16.696C31.1794 15.7573 30.582 15.0747 29.8354 14.648C29.11 14.2 28.3314 13.976 27.4994 13.976C26.9447 13.976 26.358 14.072 25.7394 14.264C25.1207 14.456 24.5234 14.7547 23.9474 15.16Z" fill="#262626"/>
<path d="M6.86279 51.425C6.64613 51.4417 6.34613 51.3833 5.96279 51.25C5.59613 51.1167 5.33779 50.975 5.18779 50.825C5.07113 50.6583 4.95446 50.45 4.83779 50.2C4.73779 49.9333 4.65446 49.6833 4.58779 49.45C4.52113 49.2 4.49613 49.025 4.51279 48.925L4.81279 46.85C4.86279 46.6667 4.90446 46.4833 4.93779 46.3C4.98779 46.1167 5.03779 45.9417 5.08779 45.775C5.07113 45.7417 5.10446 45.5917 5.18779 45.325C5.27113 45.0417 5.36279 44.7333 5.46279 44.4C5.57946 44.05 5.68779 43.7417 5.78779 43.475C5.88779 43.1917 5.93779 43.0417 5.93779 43.025C6.00446 42.7417 6.09613 42.475 6.21279 42.225C6.32946 41.9583 6.43779 41.7083 6.53779 41.475C6.67113 41.1083 6.79613 40.7667 6.91279 40.45C7.04613 40.1333 7.16279 39.8583 7.26279 39.625C7.36279 39.3917 7.43779 39.2083 7.48779 39.075C7.55446 38.9417 7.58779 38.8833 7.58779 38.9L8.98779 35.7C8.85446 35.5667 8.72113 35.4083 8.58779 35.225C8.45446 35.0417 8.38779 34.8167 8.38779 34.55C8.37113 34.3667 8.41279 34.2167 8.51279 34.1C8.62946 33.9833 8.75446 33.8917 8.88779 33.825C9.12113 33.8083 9.33779 33.7917 9.53779 33.775C9.75446 33.7583 9.99613 33.7667 10.2628 33.8C10.3628 33.7833 10.4628 33.775 10.5628 33.775C10.6795 33.775 10.7878 33.7667 10.8878 33.75C10.9711 33.7667 11.0628 33.7833 11.1628 33.8C11.2628 33.8 11.3878 33.775 11.5378 33.725C11.7045 33.6917 11.9211 33.6667 12.1878 33.65C12.4711 33.6333 12.7545 33.6167 13.0378 33.6C13.3211 33.5667 13.5711 33.55 13.7878 33.55C14.0211 33.5333 14.1711 33.525 14.2378 33.525C14.4378 33.5083 14.6378 33.4917 14.8378 33.475C15.0378 33.4583 15.2378 33.4417 15.4378 33.425C15.6545 33.4083 15.8628 33.3917 16.0628 33.375C16.2628 33.3583 16.4628 33.3417 16.6628 33.325C17.1795 33.2083 17.5211 33.2583 17.6878 33.475C17.8711 33.675 18.0128 33.8583 18.1128 34.025C18.1461 34.1083 18.2045 34.2417 18.2878 34.425C18.3878 34.5917 18.4378 34.7583 18.4378 34.925C18.4545 35.075 18.3378 35.175 18.0878 35.225C18.0545 35.3417 17.9378 35.4333 17.7378 35.5C17.5545 35.55 17.3295 35.525 17.0628 35.425C17.0295 35.4083 16.7961 35.4167 16.3628 35.45C15.9461 35.4667 15.4295 35.5 14.8128 35.55C14.1961 35.6 13.5795 35.6583 12.9628 35.725C12.3628 35.775 11.8545 35.825 11.4378 35.875C11.3878 35.9917 11.3295 36.1083 11.2628 36.225C11.2128 36.3417 11.1628 36.4583 11.1128 36.575C10.9961 36.825 10.8795 37.075 10.7628 37.325C10.6628 37.5583 10.5545 37.8 10.4378 38.05C10.3211 38.3 10.2045 38.55 10.0878 38.8C9.98779 39.0333 9.88779 39.2667 9.78779 39.5C9.73779 39.5833 9.68779 39.675 9.63779 39.775C9.58779 39.875 9.53779 39.9667 9.48779 40.05C9.63779 40.0333 9.77946 40.0167 9.91279 40C10.0628 39.9833 10.2128 39.9667 10.3628 39.95C10.5961 39.9167 10.8628 39.9333 11.1628 40C11.4628 40.05 11.7628 40.125 12.0628 40.225C12.3628 40.3083 12.6378 40.4083 12.8878 40.525C13.1378 40.625 13.3295 40.7167 13.4628 40.8C13.8461 41.0333 14.1878 41.2833 14.4878 41.55C14.8045 41.8 15.0711 42.125 15.2878 42.525C15.4378 42.8583 15.5795 43.225 15.7128 43.625C15.8461 44.0083 15.8961 44.425 15.8628 44.875C15.8628 44.9417 15.8378 45.1167 15.7878 45.4C15.7545 45.6667 15.6961 45.95 15.6128 46.25C15.5461 46.5333 15.4628 46.7583 15.3628 46.925C15.1961 47.225 14.9961 47.525 14.7628 47.825C14.5461 48.125 14.3128 48.4167 14.0628 48.7C13.7628 49.0667 13.4211 49.375 13.0378 49.625C12.6545 49.8583 12.2795 50.0583 11.9128 50.225C11.5795 50.3917 11.3211 50.5167 11.1378 50.6C10.9545 50.6833 10.7878 50.75 10.6378 50.8C10.5045 50.8333 10.3128 50.875 10.0628 50.925C9.96279 50.9417 9.86279 50.9667 9.76279 51C9.67946 51.0167 9.58779 51.0333 9.48779 51.05C9.38779 51.0667 9.28779 51.0917 9.18779 51.125C8.92113 51.275 8.65446 51.3583 8.38779 51.375C8.12113 51.4083 7.87113 51.425 7.63779 51.425C7.50446 51.425 7.37113 51.4167 7.23779 51.4C7.12113 51.4 6.99613 51.4083 6.86279 51.425ZM6.58779 49.3C6.85446 49.2833 7.11279 49.2833 7.36279 49.3C7.61279 49.3 7.85446 49.2667 8.08779 49.2C8.92113 48.9667 9.67946 48.725 10.3628 48.475C11.0628 48.225 11.6878 47.7917 12.2378 47.175C12.6378 46.7083 12.9378 46.2833 13.1378 45.9C13.3378 45.5167 13.4878 45.0667 13.5878 44.55C13.6378 44.3667 13.6378 44.175 13.5878 43.975C13.5378 43.775 13.4795 43.5083 13.4128 43.175C13.3128 42.9417 13.2211 42.7917 13.1378 42.725C13.0545 42.6417 12.9545 42.5833 12.8378 42.55C12.7211 42.5167 12.5711 42.45 12.3878 42.35C12.2211 42.2167 11.9795 42.1167 11.6628 42.05C11.3461 41.9833 11.0461 41.9333 10.7628 41.9C10.6128 41.8667 10.4545 41.8417 10.2878 41.825C10.1378 41.8083 9.98779 41.7917 9.83779 41.775C9.68779 41.7417 9.52946 41.7167 9.36279 41.7C9.21279 41.6667 9.06279 41.6417 8.91279 41.625C8.89613 41.6917 8.82113 41.8667 8.68779 42.15C8.57113 42.4333 8.43779 42.7583 8.28779 43.125C8.15446 43.475 8.03779 43.7917 7.93779 44.075C7.77113 44.5583 7.61279 45.05 7.46279 45.55C7.31279 46.0333 7.17946 46.5167 7.06279 47C7.01279 47.25 6.95446 47.525 6.88779 47.825C6.83779 48.1083 6.77946 48.3833 6.71279 48.65C6.66279 48.9 6.62113 49.1167 6.58779 49.3ZM17.7958 50.475C17.7291 50.3417 17.5791 50.2083 17.3458 50.075C17.1291 49.9417 17.0208 49.8417 17.0208 49.775C17.0208 49.7083 16.9791 49.6083 16.8958 49.475C16.8291 49.325 16.7625 49.2167 16.6958 49.15C16.6125 49.05 16.6375 48.8083 16.7708 48.425C16.9041 48.025 17.1041 47.5417 17.3708 46.975C17.6375 46.4083 17.9291 45.8333 18.2458 45.25C18.3791 45.1167 18.5125 44.9417 18.6458 44.725C18.7791 44.5083 18.8791 44.3667 18.9458 44.3C18.9458 44.2333 18.9708 44.175 19.0208 44.125C19.0708 44.0583 19.1291 44.025 19.1958 44.025L19.3958 43.625C19.4291 43.5583 19.5291 43.425 19.6958 43.225C19.8791 43.025 20.0958 42.8083 20.3458 42.575C20.5958 42.325 20.8458 42.0917 21.0958 41.875C21.3625 41.6583 21.5791 41.5 21.7458 41.4C22.0958 41.1667 22.4541 41.0583 22.8208 41.075C23.2041 41.0917 23.5291 41.2083 23.7958 41.425C23.8458 41.475 23.9541 41.575 24.1208 41.725C24.3041 41.875 24.5041 42.0417 24.7208 42.225C24.9541 42.4083 25.1541 42.575 25.3208 42.725L26.2458 43.55L25.8208 44.8C25.6041 45.4667 25.5458 46.05 25.6458 46.55C25.7458 47.05 25.9041 47.4833 26.1208 47.85C26.2041 48.0333 26.3125 48.175 26.4458 48.275C26.5958 48.375 26.7875 48.4417 27.0208 48.475C27.1541 48.4917 27.2791 48.5417 27.3958 48.625C27.5125 48.7083 27.5708 48.8417 27.5708 49.025C27.5708 49.425 27.4958 49.7167 27.3458 49.9C27.2125 50.0667 27.0625 50.1667 26.8958 50.2C26.3458 50.2667 25.8208 50.2083 25.3208 50.025C24.8208 49.8417 24.3708 49.3667 23.9708 48.6C23.9041 48.5 23.8125 48.3167 23.6958 48.05C23.5958 47.7667 23.5375 47.5833 23.5208 47.5C23.4541 47.5833 23.3625 47.6917 23.2458 47.825C23.1458 47.9417 23.0458 48.05 22.9458 48.15C21.7625 49.35 20.7458 50.1333 19.8958 50.5C19.0625 50.85 18.3625 50.8417 17.7958 50.475ZM19.1708 48.4C19.2875 48.4167 19.4708 48.3583 19.7208 48.225C19.9708 48.075 20.3041 47.8333 20.7208 47.5C21.2875 47.0167 21.7541 46.6167 22.1208 46.3C22.4875 45.9833 22.8458 45.575 23.1958 45.075L23.7458 44.175C23.5791 43.7917 23.4291 43.5417 23.2958 43.425C23.1625 43.3083 23.0291 43.25 22.8958 43.25C22.6791 43.25 22.4208 43.3917 22.1208 43.675C21.8208 43.9417 21.4791 44.3417 21.0958 44.875C20.7291 45.3917 20.3125 46.0417 19.8458 46.825C19.6291 47.1917 19.4625 47.55 19.3458 47.9C19.2291 48.2333 19.1708 48.4 19.1708 48.4ZM29.553 50.625C29.453 50.6083 29.2697 50.5167 29.003 50.35C28.753 50.1833 28.5114 49.9417 28.278 49.625C28.0614 49.2917 27.9364 48.8833 27.903 48.4C27.8864 48.1167 27.903 47.8333 27.953 47.55C28.003 47.2667 28.0864 46.9667 28.203 46.65C28.3697 46.2667 28.528 45.9 28.678 45.55C28.8447 45.2 29.0114 44.85 29.178 44.5C29.478 43.7667 29.7614 43.225 30.028 42.875C30.3114 42.525 30.578 42.35 30.828 42.35C31.1947 42.3833 31.5197 42.55 31.803 42.85C32.0864 43.15 32.2197 43.4417 32.203 43.725C32.1697 43.8583 32.103 44.0167 32.003 44.2C31.9197 44.3833 31.8114 44.5667 31.678 44.75C31.4447 44.9667 31.2614 45.2 31.128 45.45C31.0114 45.6833 30.903 45.9583 30.803 46.275C30.5864 46.6917 30.4364 46.975 30.353 47.125C30.2864 47.275 30.2114 47.4667 30.128 47.7C30.228 47.7333 30.3197 47.75 30.403 47.75C30.503 47.7333 30.603 47.7 30.703 47.65C30.803 47.5833 30.8947 47.4917 30.978 47.375C31.278 47.0417 31.5114 46.7917 31.678 46.625C31.8447 46.4583 31.9947 46.2917 32.128 46.125C32.178 46.075 32.303 45.9167 32.503 45.65C32.703 45.3667 32.903 45.0833 33.103 44.8C33.3197 44.5 33.4697 44.3 33.553 44.2C33.6864 44.0167 33.7947 43.85 33.878 43.7C33.978 43.55 34.0614 43.4 34.128 43.25C34.1614 43.0333 34.2614 42.875 34.428 42.775C34.5947 42.675 34.7864 42.6417 35.003 42.675C35.3197 42.8417 35.553 43 35.703 43.15C35.8697 43.3 36.0114 43.525 36.128 43.825C36.2114 43.9917 36.2114 44.2333 36.128 44.55C36.0447 44.85 35.853 45.2917 35.553 45.875C35.4197 46.1417 35.2947 46.4333 35.178 46.75C35.0614 47.05 35.003 47.3417 35.003 47.625C35.003 47.825 35.0364 47.9917 35.103 48.125C35.153 48.075 35.2697 47.9667 35.453 47.8C35.6364 47.6167 35.8447 47.4167 36.078 47.2C36.3114 46.9667 36.5114 46.7667 36.678 46.6C36.6947 46.5667 36.7864 46.45 36.953 46.25C37.1364 46.0333 37.2614 45.8833 37.328 45.8L38.353 44.525C38.4697 44.3917 38.5864 44.2 38.703 43.95C38.8364 43.7 38.9864 43.4833 39.153 43.3C39.3197 43.1167 39.5197 43.0667 39.753 43.15C40.303 43.3333 40.6864 43.7417 40.903 44.375C40.9197 44.775 40.8364 45.1833 40.653 45.6C40.4864 46 40.3614 46.4833 40.278 47.05C40.2447 47.3 40.2197 47.5917 40.203 47.925C40.1864 48.2417 40.178 48.4167 40.178 48.45C40.2947 48.6 40.4364 48.6333 40.603 48.55C40.7697 48.4667 40.928 48.4167 41.078 48.4C41.428 48.5167 41.628 48.775 41.678 49.175C41.728 49.5583 41.6114 49.9 41.328 50.2C41.128 50.3167 40.9364 50.4 40.753 50.45C40.5864 50.4833 40.428 50.4917 40.278 50.475C40.0114 50.425 39.7864 50.3417 39.603 50.225C39.4364 50.0917 39.303 49.9667 39.203 49.85C39.103 49.7167 39.028 49.6333 38.978 49.6C38.778 49.4167 38.6114 49.2 38.478 48.95C38.3447 48.7 38.253 48.3667 38.203 47.95C38.103 48.0667 37.9447 48.2333 37.728 48.45C37.5114 48.6667 37.2947 48.8917 37.078 49.125C36.8614 49.3417 36.6697 49.5333 36.503 49.7C36.3364 49.85 36.253 49.925 36.253 49.925C36.003 50.1583 35.753 50.3167 35.503 50.4C35.253 50.4833 34.9697 50.4917 34.653 50.425C34.403 50.2917 34.153 50.1 33.903 49.85C33.653 49.5833 33.4947 49.3667 33.428 49.2C33.3614 49.0167 33.303 48.8667 33.253 48.75C33.203 48.6167 33.1614 48.5 33.128 48.4C33.1114 48.3167 33.0947 48.2417 33.078 48.175C33.0614 48.1083 33.0447 48.05 33.028 48C32.9614 48.0833 32.8614 48.1917 32.728 48.325C32.6114 48.4417 32.4864 48.5667 32.353 48.7C32.2197 48.8167 32.0864 48.925 31.953 49.025C31.453 49.4917 31.0864 49.8417 30.853 50.075C30.6197 50.2917 30.4447 50.4417 30.328 50.525C30.228 50.5917 30.0947 50.625 29.928 50.625H29.553ZM44.3776 50.075C44.3276 50.0083 44.2193 49.925 44.0526 49.825C43.886 49.725 43.8026 49.6417 43.8026 49.575C43.8026 49.5417 43.7943 49.5 43.7776 49.45C43.7776 49.4 43.7443 49.375 43.6776 49.375C43.6276 49.325 43.6526 49.1417 43.7526 48.825C43.8693 48.5083 44.0193 48.1333 44.2026 47.7C44.4026 47.2667 44.611 46.85 44.8276 46.45C45.0443 46.0333 45.2276 45.7 45.3776 45.45C45.461 45.4 45.511 45.3333 45.5276 45.25C45.561 45.15 45.561 45.1 45.5276 45.1C45.5276 45.1 45.5693 45.025 45.6526 44.875C45.7526 44.7083 45.8276 44.6 45.8776 44.55C46.011 44.3167 46.111 44.0833 46.1776 43.85C46.2443 43.6 46.261 43.3917 46.2276 43.225C46.161 43.1417 46.086 43.1167 46.0026 43.15C45.9193 43.1833 45.8776 43.2 45.8776 43.2C45.811 43.2167 45.711 43.25 45.5776 43.3C45.461 43.3333 45.3526 43.3833 45.2526 43.45C44.8693 43.7167 44.586 43.85 44.4026 43.85C44.236 43.85 44.0693 43.65 43.9026 43.25C43.836 43.0667 43.811 42.8917 43.8276 42.725C43.8443 42.5583 43.911 42.425 44.0276 42.325C44.161 42.2083 44.3276 42.0917 44.5276 41.975C44.7276 41.8417 44.861 41.75 44.9276 41.7C45.111 41.5833 45.3693 41.4583 45.7026 41.325C46.036 41.1917 46.236 41.1167 46.3026 41.1C46.736 40.9667 47.1026 40.9667 47.4026 41.1C47.7026 41.2167 47.9276 41.45 48.0776 41.8C48.311 42.0833 48.4276 42.3833 48.4276 42.7C48.4276 43.0167 48.311 43.4083 48.0776 43.875L47.8276 44.25C47.7443 44.4167 47.7276 44.5 47.7776 44.5C47.8443 44.5 47.9193 44.4417 48.0026 44.325C48.0526 44.2583 48.1526 44.1583 48.3026 44.025C48.4526 43.8917 48.5526 43.825 48.6026 43.825C48.6026 43.825 48.6193 43.8167 48.6526 43.8C48.7026 43.7833 48.7276 43.7167 48.7276 43.6C48.7776 43.55 48.8276 43.5 48.8776 43.45C48.9443 43.4 48.9776 43.375 48.9776 43.375C49.0443 43.375 49.1276 43.3417 49.2276 43.275C49.3443 43.1917 49.536 43.0417 49.8026 42.825C49.986 42.6917 50.1526 42.625 50.3026 42.625C50.686 42.5083 50.9943 42.6333 51.2276 43C51.4776 43.3667 51.6026 43.8417 51.6026 44.425L51.0776 45.775L51.9776 44.675C52.0776 44.5417 52.1776 44.425 52.2776 44.325C52.3943 44.225 52.4943 44.1417 52.5776 44.075C52.611 43.9583 52.661 43.8917 52.7276 43.875C52.7943 43.8583 52.8276 43.85 52.8276 43.85C52.8276 43.85 52.8443 43.85 52.8776 43.85C52.911 43.8333 52.9276 43.8 52.9276 43.75C53.011 43.6833 53.1026 43.625 53.2026 43.575C53.3026 43.5083 53.3693 43.4417 53.4026 43.375C53.686 43.2583 54.0276 43.2417 54.4276 43.325C54.8276 43.3917 55.111 43.6 55.2776 43.95C55.3943 44.15 55.5026 44.325 55.6026 44.475C55.7026 44.625 55.7526 44.85 55.7526 45.15C55.7193 45.4 55.686 45.575 55.6526 45.675C55.636 45.775 55.6193 45.8833 55.6026 46C55.586 46.1 55.561 46.2833 55.5276 46.55C55.461 46.6833 55.4193 46.825 55.4026 46.975C55.4026 47.125 55.4026 47.2667 55.4026 47.4C55.4026 47.6167 55.411 47.7667 55.4276 47.85C55.4443 47.9167 55.511 47.95 55.6276 47.95C55.861 47.9 56.0526 47.825 56.2026 47.725C56.3693 47.6083 56.5526 47.4583 56.7526 47.275C57.0026 47.0417 57.2193 47.0083 57.4026 47.175C57.6026 47.325 57.7276 47.5 57.7776 47.7C57.811 47.7667 57.7776 47.9167 57.6776 48.15C57.5776 48.3833 57.461 48.6083 57.3276 48.825C57.1943 49.0417 57.086 49.15 57.0026 49.15C56.9526 49.15 56.8526 49.2167 56.7026 49.35C56.5526 49.4833 56.436 49.575 56.3526 49.625C56.236 49.7417 56.1193 49.85 56.0026 49.95C55.9026 50.05 55.786 50.1 55.6526 50.1C55.586 50.1 55.5026 50.125 55.4026 50.175C55.3193 50.2083 55.2193 50.225 55.1026 50.225C54.936 50.275 54.6776 50.25 54.3276 50.15C53.9943 50.05 53.7776 49.8167 53.6776 49.45C53.611 49.2667 53.511 49.0333 53.3776 48.75C53.261 48.4667 53.236 48.1167 53.3026 47.7C53.3693 47.4 53.411 47.125 53.4276 46.875C53.4443 46.625 53.4776 46.45 53.5276 46.35C53.5276 46.3 53.5276 46.1833 53.5276 46C53.5276 45.8 53.5026 45.7 53.4526 45.7C53.386 45.7 53.261 45.7833 53.0776 45.95C52.8943 46.1167 52.6776 46.3417 52.4276 46.625C52.1776 46.8917 51.9193 47.1833 51.6526 47.5C51.4026 47.8167 51.1776 48.1333 50.9776 48.45C50.8276 48.6333 50.6943 48.8583 50.5776 49.125C50.461 49.3917 50.3776 49.5417 50.3276 49.575C50.211 49.7083 50.011 49.725 49.7276 49.625C49.461 49.525 49.261 49.3667 49.1276 49.15C49.0776 49.05 49.0193 48.9917 48.9526 48.975C48.886 48.9417 48.8276 48.8917 48.7776 48.825C48.7443 48.7417 48.7443 48.5833 48.7776 48.35C48.8276 48.1167 48.936 47.7417 49.1026 47.225C49.286 46.6583 49.4443 46.15 49.5776 45.7C49.7276 45.2333 49.8026 45 49.8026 45C49.8026 44.9333 49.6776 45 49.4276 45.2C49.1776 45.3833 48.886 45.6167 48.5526 45.9C48.4026 46.0833 48.2026 46.3167 47.9526 46.6C47.7193 46.8833 47.4443 47.2167 47.1276 47.6C46.8276 47.9833 46.486 48.4333 46.1026 48.95C45.6193 49.6333 45.2526 50.05 45.0026 50.2C44.7693 50.35 44.561 50.3083 44.3776 50.075ZM62.388 50.8C62.038 50.8667 61.7713 50.85 61.588 50.75C61.4213 50.6333 61.2463 50.4917 61.063 50.325C60.7963 50.1917 60.5547 50.0083 60.338 49.775C60.1213 49.525 59.9547 49.2667 59.838 49C59.7213 48.7333 59.6713 48.525 59.688 48.375C59.738 47.7917 59.8713 47.1583 60.088 46.475C60.3213 45.7917 60.613 45.125 60.963 44.475C61.3297 43.825 61.738 43.25 62.188 42.75C62.6547 42.2333 63.1547 41.8583 63.688 41.625C64.0213 41.4917 64.3797 41.4417 64.763 41.475C65.1463 41.5083 65.4047 41.6667 65.538 41.95C65.788 42.4333 65.7297 42.7417 65.363 42.875C65.313 42.875 65.2547 42.9 65.188 42.95C65.1213 42.9833 65.088 43.0333 65.088 43.1C65.1547 43.1333 65.338 43.1417 65.638 43.125C65.938 43.0917 66.238 43.0417 66.538 42.975C66.8547 42.8917 67.063 42.8083 67.163 42.725C67.263 42.675 67.338 42.65 67.388 42.65C67.438 42.65 67.563 42.6667 67.763 42.7C68.0463 42.7833 68.188 42.8833 68.188 43C68.188 43.0667 68.213 43.175 68.263 43.325C68.313 43.4583 68.3713 43.525 68.438 43.525C68.5547 43.5417 68.5797 43.6583 68.513 43.875C68.463 44.0917 68.2713 44.3167 67.938 44.55C67.6213 44.75 67.4213 44.8833 67.338 44.95C67.2713 45 67.263 45.1167 67.313 45.3C67.4463 45.6167 67.438 46 67.288 46.45C67.138 46.9 66.888 47.3667 66.538 47.85C66.188 48.3333 65.7713 48.7917 65.288 49.225C64.8213 49.6417 64.3297 50 63.813 50.3C63.313 50.5833 62.838 50.75 62.388 50.8ZM62.463 48.7C62.5297 48.7 62.6463 48.6667 62.813 48.6C62.9797 48.5167 63.113 48.45 63.213 48.4C63.2797 48.3333 63.363 48.2583 63.463 48.175C63.5797 48.075 63.6713 48.0167 63.738 48C63.8047 48 63.8463 47.975 63.863 47.925C63.8797 47.8583 63.938 47.7333 64.038 47.55C64.138 47.35 64.338 47.0583 64.638 46.675C64.9713 46.3083 65.188 46.0167 65.288 45.8C65.388 45.5667 65.3963 45.3167 65.313 45.05C65.2963 44.9833 65.2463 44.9417 65.163 44.925C65.0963 44.9083 65.0047 44.8667 64.888 44.8C64.7213 44.8 64.6047 44.8417 64.538 44.925C64.488 44.9917 64.3713 44.95 64.188 44.8L63.788 44.3L63.363 44.725C63.0963 44.9917 62.8547 45.325 62.638 45.725C62.438 46.125 62.2797 46.5333 62.163 46.95C62.0463 47.3667 61.9713 47.7333 61.938 48.05C61.9213 48.3 61.963 48.4667 62.063 48.55C62.163 48.6333 62.2963 48.6833 62.463 48.7ZM71.8769 51.225C71.6602 51.2417 71.4852 51.2167 71.3519 51.15C71.2185 51.1 71.0519 51.0167 70.8519 50.9C70.4852 50.6167 70.1769 50.2667 69.9269 49.85C69.6935 49.4333 69.5852 49.0833 69.6019 48.8C69.6352 48.65 69.6352 48.5167 69.6019 48.4C69.5852 48.2833 69.5769 48.225 69.5769 48.225C69.4769 48.1417 69.4435 48.0917 69.4769 48.075C69.5102 48.0417 69.5352 47.9917 69.5519 47.925C69.6852 47.8917 69.7019 47.8 69.6019 47.65C69.5519 47.5167 69.5769 47.2167 69.6769 46.75C69.7935 46.2667 69.9435 45.8167 70.1269 45.4C70.2102 45.2167 70.3269 44.975 70.4769 44.675C70.6435 44.375 70.8269 44.075 71.0269 43.775C71.2269 43.4583 71.4102 43.2083 71.5769 43.025C71.9435 42.6083 72.2685 42.2667 72.5519 42C72.8519 41.7333 73.1852 41.5333 73.5519 41.4C73.8852 41.2667 74.2185 41.2083 74.5519 41.225C74.9019 41.2417 75.2102 41.3583 75.4769 41.575C75.8769 41.6917 76.2352 41.875 76.5519 42.125C76.8685 42.3583 77.0852 42.6917 77.2019 43.125C77.3352 43.6083 77.3769 44.1833 77.3269 44.85C77.2935 45.5 77.0102 46.3417 76.4769 47.375C76.1602 48.025 75.8435 48.55 75.5269 48.95C75.2269 49.35 74.8602 49.7333 74.4269 50.1C74.1102 50.3667 73.7019 50.6 73.2019 50.8C72.7019 51 72.2602 51.1417 71.8769 51.225ZM74.0519 47.45C74.2685 47.15 74.4352 46.8583 74.5519 46.575C74.6852 46.2917 74.8102 45.9 74.9269 45.4C74.9769 45.2167 75.0019 44.9917 75.0019 44.725C75.0185 44.4583 75.0102 44.2167 74.9769 44C74.9602 43.7667 74.9019 43.6417 74.8019 43.625C74.5852 43.5417 74.3602 43.5417 74.1269 43.625C73.9102 43.6917 73.6519 43.8917 73.3519 44.225C73.0852 44.525 72.8685 44.8083 72.7019 45.075C72.5519 45.325 72.4102 45.6333 72.2769 46C72.1602 46.35 72.0269 46.8083 71.8769 47.375C71.7435 47.925 71.7352 48.3667 71.8519 48.7C71.9852 49.0333 72.2352 49.125 72.6019 48.975C72.9685 48.825 73.4519 48.3167 74.0519 47.45Z" fill="#820201"/>
</g>
<defs>
<clipPath id="clip0_43_32">
<rect width="185" height="60" fill="white"/>
</clipPath>
</defs>
</svg>
