<svg width="447" height="65" viewBox="0 0 447 65" fill="none" xmlns="http://www.w3.org/2000/svg">
<path d="M16.1309 12.0879L20.6699 2.09375H23.541L17.3477 14.5762L17.3066 22H14.9551L14.9141 14.5762L8.7207 2.09375H11.6055L16.1309 12.0879ZM36.707 7.20703H39.2363V22H36.707V11.0898L29.4746 22H26.959V7.20703H29.4746V18.1309L36.707 7.20703ZM37.0215 1.17773C37.0215 1.71549 36.9258 2.21224 36.7344 2.66797C36.543 3.11458 36.2695 3.4974 35.9141 3.81641C35.5586 4.13542 35.1302 4.38607 34.6289 4.56836C34.1276 4.74154 33.5671 4.82812 32.9473 4.82812C32.3184 4.82812 31.7533 4.74154 31.252 4.56836C30.7507 4.38607 30.3223 4.13542 29.9668 3.81641C29.6113 3.4974 29.3333 3.11458 29.1328 2.66797C28.9414 2.21224 28.8457 1.71549 28.8457 1.17773H30.8965C30.8965 1.45117 30.9375 1.71549 31.0195 1.9707C31.1016 2.2168 31.2246 2.43099 31.3887 2.61328C31.5527 2.79557 31.7624 2.94141 32.0176 3.05078C32.2728 3.16016 32.5827 3.21484 32.9473 3.21484C33.3027 3.21484 33.6035 3.16016 33.8496 3.05078C34.1048 2.94141 34.3145 2.79557 34.4785 2.61328C34.6426 2.43099 34.7656 2.2168 34.8477 1.9707C34.9297 1.71549 34.9707 1.45117 34.9707 1.17773H37.0215ZM56.0391 7.20703V22H53.4961V9.29883H48.0547L48.041 13.5371C48.041 14.0384 48.0273 14.526 48 15C47.9818 15.4648 47.9499 15.9069 47.9043 16.3262C47.8314 17.0189 47.7174 17.6569 47.5625 18.2402C47.4076 18.8236 47.2116 19.3385 46.9746 19.7852C46.5918 20.5052 46.0768 21.0566 45.4297 21.4395C44.7826 21.8132 43.9759 22 43.0098 22H42.2715L42.3125 19.7441L42.873 19.7305C43.3926 19.7305 43.821 19.6029 44.1582 19.3477C44.5046 19.0833 44.778 18.6914 44.9785 18.1719C45.0788 17.8893 45.1654 17.5658 45.2383 17.2012C45.3112 16.8275 45.3704 16.4173 45.416 15.9707C45.4434 15.6152 45.4616 15.237 45.4707 14.8359C45.4889 14.4258 45.498 13.9928 45.498 13.5371L45.5254 7.20703H56.0391ZM59.6074 14.4668C59.6074 13.4004 59.7624 12.4115 60.0723 11.5C60.3822 10.5794 60.8288 9.7819 61.4121 9.10742C61.9863 8.43294 62.6882 7.9043 63.5176 7.52148C64.347 7.12956 65.2812 6.93359 66.3203 6.93359C67.3685 6.93359 68.3073 7.12956 69.1367 7.52148C69.9753 7.9043 70.6862 8.43294 71.2695 9.10742C71.8438 9.7819 72.2858 10.5794 72.5957 11.5C72.9056 12.4115 73.0605 13.4004 73.0605 14.4668V14.7676C73.0605 15.834 72.9056 16.8229 72.5957 17.7344C72.2858 18.6458 71.8438 19.4388 71.2695 20.1133C70.6862 20.7878 69.9798 21.3164 69.1504 21.6992C68.321 22.082 67.3867 22.2734 66.3477 22.2734C65.2995 22.2734 64.3561 22.082 63.5176 21.6992C62.6882 21.3164 61.9863 20.7878 61.4121 20.1133C60.8288 19.4388 60.3822 18.6458 60.0723 17.7344C59.7624 16.8229 59.6074 15.834 59.6074 14.7676V14.4668ZM66.3203 9.01172C65.7005 9.01172 65.1491 9.13021 64.666 9.36719C64.1829 9.60417 63.7682 9.92773 63.4219 10.3379C63.0755 10.748 62.7975 11.2311 62.5879 11.7871C62.3783 12.334 62.2415 12.9173 62.1777 13.5371H70.4766C70.4036 12.9173 70.2624 12.334 70.0527 11.7871C69.8522 11.2311 69.5788 10.748 69.2324 10.3379C68.8861 9.92773 68.4668 9.60417 67.9746 9.36719C67.4915 9.13021 66.9401 9.01172 66.3203 9.01172ZM66.3477 20.2227C66.9766 20.2227 67.5326 20.1042 68.0156 19.8672C68.5078 19.6211 68.9271 19.2884 69.2734 18.8691C69.6198 18.4499 69.8932 17.9622 70.0938 17.4062C70.2943 16.8411 70.4264 16.2396 70.4902 15.6016H62.1777C62.2415 16.2396 62.3737 16.8411 62.5742 17.4062C62.7747 17.9622 63.0527 18.4499 63.4082 18.8691C63.7546 19.2884 64.1693 19.6211 64.6523 19.8672C65.1445 20.1042 65.7096 20.2227 66.3477 20.2227ZM89.6855 22H87.1562V15.6836H79.9375V22H77.4082V7.20703H79.9375V13.6191H87.1562V7.20703H89.6855V22ZM105.422 7.20703H108.02L101.758 21.3574V27.6875H99.2148V21.2617L92.9395 7.20703H95.5371L100.186 17.9258L100.514 19.2656H100.527L100.869 17.9258L105.422 7.20703ZM122.238 7.20703H124.836L118.574 21.3574V27.6875H116.031V21.2617L109.756 7.20703H112.354L117.002 17.9258L117.33 19.2656H117.344L117.686 17.9258L122.238 7.20703ZM158.1 9.25781H152.193V22H149.65V9.25781H143.84V7.20703H158.1V9.25781ZM160.902 14.4668C160.902 13.4004 161.057 12.4115 161.367 11.5C161.677 10.5794 162.124 9.7819 162.707 9.10742C163.281 8.43294 163.983 7.9043 164.812 7.52148C165.642 7.12956 166.576 6.93359 167.615 6.93359C168.663 6.93359 169.602 7.12956 170.432 7.52148C171.27 7.9043 171.981 8.43294 172.564 9.10742C173.139 9.7819 173.581 10.5794 173.891 11.5C174.201 12.4115 174.355 13.4004 174.355 14.4668V14.7676C174.355 15.834 174.201 16.8229 173.891 17.7344C173.581 18.6458 173.139 19.4388 172.564 20.1133C171.981 20.7878 171.275 21.3164 170.445 21.6992C169.616 22.082 168.682 22.2734 167.643 22.2734C166.594 22.2734 165.651 22.082 164.812 21.6992C163.983 21.3164 163.281 20.7878 162.707 20.1133C162.124 19.4388 161.677 18.6458 161.367 17.7344C161.057 16.8229 160.902 15.834 160.902 14.7676V14.4668ZM163.432 14.7676C163.432 15.4967 163.518 16.194 163.691 16.8594C163.865 17.5156 164.129 18.0944 164.484 18.5957C164.831 19.097 165.268 19.4935 165.797 19.7852C166.326 20.0768 166.941 20.2227 167.643 20.2227C168.335 20.2227 168.941 20.0768 169.461 19.7852C169.99 19.4935 170.432 19.097 170.787 18.5957C171.133 18.0944 171.393 17.5156 171.566 16.8594C171.74 16.194 171.826 15.4967 171.826 14.7676V14.4668C171.826 13.7467 171.735 13.0586 171.553 12.4023C171.38 11.737 171.12 11.1536 170.773 10.6523C170.418 10.151 169.976 9.75456 169.447 9.46289C168.928 9.16211 168.317 9.01172 167.615 9.01172C166.913 9.01172 166.303 9.16211 165.783 9.46289C165.264 9.75456 164.831 10.151 164.484 10.6523C164.129 11.1536 163.865 11.737 163.691 12.4023C163.518 13.0586 163.432 13.7467 163.432 14.4668V14.7676ZM180.125 13.4824H181.902C181.966 12.5527 182.112 11.6914 182.34 10.8984C182.568 10.0964 182.887 9.39909 183.297 8.80664C183.707 8.22331 184.204 7.76758 184.787 7.43945C185.37 7.10221 186.049 6.93359 186.824 6.93359C187.672 6.93359 188.41 7.12956 189.039 7.52148C189.668 7.91341 190.188 8.45117 190.598 9.13477C191.008 9.81836 191.313 10.6204 191.514 11.541C191.714 12.4525 191.814 13.4277 191.814 14.4668V14.7676C191.814 15.8066 191.714 16.7865 191.514 17.707C191.313 18.6185 191.012 19.4115 190.611 20.0859C190.201 20.7604 189.682 21.2936 189.053 21.6855C188.433 22.0775 187.699 22.2734 186.852 22.2734C186.059 22.2734 185.361 22.1048 184.76 21.7676C184.167 21.4212 183.666 20.9473 183.256 20.3457C182.846 19.7441 182.527 19.0332 182.299 18.2129C182.08 17.3926 181.943 16.5085 181.889 15.5605H180.125V22H177.596V7.20703H180.125V13.4824ZM184.418 14.7676C184.418 15.4785 184.454 16.1667 184.527 16.832C184.6 17.4883 184.732 18.0671 184.924 18.5684C185.106 19.0697 185.352 19.4707 185.662 19.7715C185.972 20.0723 186.368 20.2227 186.852 20.2227C187.326 20.2227 187.717 20.0723 188.027 19.7715C188.346 19.4707 188.597 19.0697 188.779 18.5684C188.962 18.0671 189.089 17.4883 189.162 16.832C189.244 16.1667 189.285 15.4785 189.285 14.7676V14.4668C189.285 13.7559 189.244 13.0723 189.162 12.416C189.089 11.7598 188.962 11.1764 188.779 10.666C188.588 10.1647 188.333 9.76367 188.014 9.46289C187.704 9.16211 187.307 9.01172 186.824 9.01172C186.35 9.01172 185.958 9.16211 185.648 9.46289C185.339 9.76367 185.092 10.1647 184.91 10.666C184.728 11.1764 184.6 11.7598 184.527 12.416C184.454 13.0723 184.418 13.7559 184.418 14.4668V14.7676ZM201.699 8.05469C202.665 8.05469 203.527 8.22786 204.283 8.57422C205.04 8.91146 205.682 9.3763 206.211 9.96875C206.74 10.5703 207.141 11.2812 207.414 12.1016C207.697 12.9128 207.838 13.7969 207.838 14.7539V15.0684C207.838 16.0983 207.688 17.0508 207.387 17.9258C207.095 18.8008 206.667 19.5618 206.102 20.209C205.536 20.8561 204.844 21.362 204.023 21.7266C203.212 22.0911 202.287 22.2734 201.248 22.2734C200.209 22.2734 199.279 22.0911 198.459 21.7266C197.639 21.362 196.946 20.8561 196.381 20.209C195.816 19.5618 195.383 18.8008 195.082 17.9258C194.781 17.0508 194.631 16.0983 194.631 15.0684V13.7148C194.631 12.8581 194.672 12.056 194.754 11.3086C194.845 10.5521 194.973 9.85482 195.137 9.2168C195.292 8.62435 195.479 8.07292 195.697 7.5625C195.916 7.05208 196.167 6.58268 196.449 6.1543C197.023 5.2793 197.721 4.58203 198.541 4.0625C199.37 3.53385 200.291 3.17383 201.303 2.98242C201.786 2.89128 202.232 2.79557 202.643 2.69531C203.062 2.58594 203.426 2.44922 203.736 2.28516C204.037 2.13021 204.274 1.93424 204.447 1.69727C204.62 1.45117 204.707 1.14128 204.707 0.767578H206.785C206.785 1.61523 206.653 2.29883 206.389 2.81836C206.133 3.33789 205.773 3.7526 205.309 4.0625C204.898 4.33594 204.443 4.54102 203.941 4.67773C203.449 4.81445 202.752 4.97852 201.85 5.16992C201.212 5.30664 200.615 5.49805 200.059 5.74414C199.503 5.98112 199.006 6.30469 198.568 6.71484C198.131 7.125 197.762 7.63086 197.461 8.23242C197.16 8.82487 196.941 9.54036 196.805 10.3789C197.096 10.0417 197.42 9.73177 197.775 9.44922C198.131 9.15755 198.514 8.9069 198.924 8.69727C199.334 8.49674 199.771 8.3418 200.236 8.23242C200.701 8.11393 201.189 8.05469 201.699 8.05469ZM201.221 10.1328C200.528 10.1328 199.926 10.2604 199.416 10.5156C198.906 10.7617 198.486 11.0944 198.158 11.5137C197.821 11.9421 197.57 12.4342 197.406 12.9902C197.242 13.5462 197.16 14.1341 197.16 14.7539V15.0684C197.16 15.7611 197.242 16.4219 197.406 17.0508C197.57 17.6706 197.821 18.2129 198.158 18.6777C198.486 19.1517 198.906 19.5299 199.416 19.8125C199.936 20.0859 200.546 20.2227 201.248 20.2227C201.941 20.2227 202.538 20.0859 203.039 19.8125C203.549 19.5299 203.973 19.1517 204.311 18.6777C204.648 18.2129 204.898 17.6706 205.062 17.0508C205.227 16.4219 205.309 15.7611 205.309 15.0684V14.7539C205.309 14.1341 205.227 13.5462 205.062 12.9902C204.898 12.4342 204.648 11.9421 204.311 11.5137C203.973 11.0944 203.545 10.7617 203.025 10.5156C202.515 10.2604 201.913 10.1328 201.221 10.1328ZM213.252 27.9746C213.015 27.9746 212.737 27.9473 212.418 27.8926C212.099 27.8379 211.857 27.7923 211.693 27.7559L212.104 25.6914C212.331 25.7096 212.555 25.7233 212.773 25.7324C213.001 25.7507 213.179 25.7598 213.307 25.7598C213.653 25.7598 213.967 25.6641 214.25 25.4727C214.542 25.2812 214.801 25.0534 215.029 24.7891C215.248 24.5247 215.435 24.2513 215.59 23.9688C215.754 23.6862 215.882 23.4538 215.973 23.2715L216.984 21.3027L210.613 7.20703H213.443L217.504 16.75L218.16 18.541L218.857 16.8047L222.672 7.20703H225.502L217.996 24.2832C217.823 24.666 217.6 25.0716 217.326 25.5C217.062 25.9284 216.738 26.3249 216.355 26.6895C215.973 27.054 215.526 27.3594 215.016 27.6055C214.505 27.8516 213.917 27.9746 213.252 27.9746ZM228.346 17.625H230.875C230.875 17.9805 230.98 18.3177 231.189 18.6367C231.399 18.9466 231.691 19.2201 232.064 19.457C232.438 19.7031 232.88 19.8991 233.391 20.0449C233.901 20.1816 234.452 20.25 235.045 20.25C235.628 20.25 236.161 20.1908 236.645 20.0723C237.128 19.9447 237.542 19.7715 237.889 19.5527C238.226 19.334 238.486 19.0788 238.668 18.7871C238.859 18.4954 238.955 18.181 238.955 17.8438C238.955 17.4245 238.868 17.069 238.695 16.7773C238.522 16.4766 238.271 16.2305 237.943 16.0391C237.779 15.9479 237.597 15.8704 237.396 15.8066C237.196 15.7428 236.982 15.6882 236.754 15.6426C236.526 15.597 236.28 15.5651 236.016 15.5469C235.751 15.5286 235.478 15.5195 235.195 15.5195H231.9V13.3867H235.195C235.487 13.3867 235.76 13.3776 236.016 13.3594C236.271 13.332 236.503 13.2956 236.713 13.25C236.977 13.1953 237.214 13.1224 237.424 13.0312C237.643 12.9401 237.834 12.8353 237.998 12.7168C238.226 12.5436 238.399 12.334 238.518 12.0879C238.636 11.8418 238.695 11.5638 238.695 11.2539C238.695 10.944 238.613 10.6523 238.449 10.3789C238.294 10.1055 238.066 9.86393 237.766 9.6543C237.456 9.45378 237.073 9.29427 236.617 9.17578C236.161 9.05729 235.637 8.99805 235.045 8.99805C234.516 8.99805 234.015 9.05729 233.541 9.17578C233.067 9.29427 232.652 9.45378 232.297 9.6543C231.932 9.86393 231.641 10.1146 231.422 10.4062C231.212 10.6888 231.107 10.9987 231.107 11.3359H228.578C228.587 10.6523 228.765 10.0417 229.111 9.50391C229.467 8.95703 229.941 8.49219 230.533 8.10938C231.117 7.73568 231.796 7.44857 232.57 7.24805C233.354 7.04753 234.179 6.94727 235.045 6.94727C235.956 6.94727 236.79 7.03841 237.547 7.2207C238.303 7.40299 238.955 7.67188 239.502 8.02734C240.049 8.39193 240.473 8.8431 240.773 9.38086C241.074 9.90951 241.225 10.5293 241.225 11.2402C241.225 11.6777 241.124 12.0879 240.924 12.4707C240.723 12.8535 240.441 13.1999 240.076 13.5098C239.876 13.6829 239.643 13.847 239.379 14.002C239.115 14.1478 238.832 14.2799 238.531 14.3984C238.96 14.526 239.342 14.6855 239.68 14.877C240.026 15.0592 240.327 15.2734 240.582 15.5195C240.883 15.8203 241.111 16.1667 241.266 16.5586C241.43 16.9414 241.512 17.3698 241.512 17.8438C241.512 18.5547 241.343 19.1836 241.006 19.7305C240.678 20.2773 240.222 20.7376 239.639 21.1113C239.055 21.4941 238.372 21.7812 237.588 21.9727C236.804 22.1641 235.956 22.2598 235.045 22.2598C234.152 22.2598 233.277 22.1549 232.42 21.9453C231.563 21.7357 230.816 21.4076 230.178 20.9609C229.64 20.5964 229.198 20.1361 228.852 19.5801C228.514 19.015 228.346 18.3633 228.346 17.625ZM245.449 19.9355C245.841 19.8809 246.169 19.6758 246.434 19.3203C246.707 18.9557 246.93 18.4635 247.104 17.8438C247.277 17.224 247.413 16.4857 247.514 15.6289C247.623 14.7721 247.71 13.8151 247.773 12.7578L247.992 7.20703H257.521V19.9355H259.422L259.176 26.3477H256.893V22H246.57V26.3477H244.301L244.055 19.9355H245.449ZM250.303 12.7578C250.257 13.5234 250.198 14.2526 250.125 14.9453C250.061 15.638 249.979 16.2852 249.879 16.8867C249.779 17.4974 249.651 18.0579 249.496 18.5684C249.35 19.0788 249.168 19.5345 248.949 19.9355H254.992V9.54492H250.426L250.303 12.7578ZM263.701 27.9746C263.464 27.9746 263.186 27.9473 262.867 27.8926C262.548 27.8379 262.307 27.7923 262.143 27.7559L262.553 25.6914C262.781 25.7096 263.004 25.7233 263.223 25.7324C263.451 25.7507 263.628 25.7598 263.756 25.7598C264.102 25.7598 264.417 25.6641 264.699 25.4727C264.991 25.2812 265.251 25.0534 265.479 24.7891C265.697 24.5247 265.884 24.2513 266.039 23.9688C266.203 23.6862 266.331 23.4538 266.422 23.2715L267.434 21.3027L261.062 7.20703H263.893L267.953 16.75L268.609 18.541L269.307 16.8047L273.121 7.20703H275.951L268.445 24.2832C268.272 24.666 268.049 25.0716 267.775 25.5C267.511 25.9284 267.188 26.3249 266.805 26.6895C266.422 27.054 265.975 27.3594 265.465 27.6055C264.954 27.8516 264.367 27.9746 263.701 27.9746ZM291.482 22H288.953V15.6836H281.734V22H279.205V7.20703H281.734V13.6191H288.953V7.20703H291.482V22ZM317.76 15.6973H315.354V22H312.824V7.20703H315.354V13.4688H317.541L323.051 7.20703H326.127L319.783 14.3301L326.619 22H323.406L317.76 15.6973ZM336.312 22.2734C335.273 22.2734 334.316 22.0957 333.441 21.7402C332.576 21.3848 331.833 20.888 331.213 20.25C330.593 19.612 330.11 18.8555 329.764 17.9805C329.417 17.1055 329.244 16.153 329.244 15.123V14.5488C329.244 13.3548 329.436 12.2884 329.818 11.3496C330.201 10.4017 330.712 9.59961 331.35 8.94336C331.979 8.29622 332.694 7.79948 333.496 7.45312C334.307 7.10677 335.137 6.93359 335.984 6.93359C337.051 6.93359 337.98 7.12044 338.773 7.49414C339.576 7.85872 340.241 8.36458 340.77 9.01172C341.298 9.66797 341.69 10.4382 341.945 11.3223C342.21 12.2064 342.342 13.1634 342.342 14.1934V15.3281H331.773V15.4238C331.837 16.1439 331.979 16.7773 332.197 17.3242C332.425 17.8711 332.735 18.3542 333.127 18.7734C333.528 19.2201 334.011 19.571 334.576 19.8262C335.141 20.0814 335.766 20.209 336.449 20.209C337.352 20.209 338.154 20.0267 338.855 19.6621C339.557 19.2975 340.141 18.8145 340.605 18.2129L342.15 19.416C341.658 20.1634 340.92 20.8288 339.936 21.4121C338.96 21.9863 337.753 22.2734 336.312 22.2734ZM335.984 9.01172C335.474 9.01172 334.991 9.10742 334.535 9.29883C334.079 9.48112 333.669 9.75 333.305 10.1055C332.94 10.4701 332.63 10.9167 332.375 11.4453C332.129 11.9648 331.956 12.5664 331.855 13.25H339.812V13.127C339.812 12.6712 339.726 12.1836 339.553 11.6641C339.38 11.1354 339.138 10.6797 338.828 10.2969C338.518 9.91406 338.126 9.60417 337.652 9.36719C337.188 9.13021 336.632 9.01172 335.984 9.01172ZM358.748 22H356.219V16.5996C355.599 16.7546 354.956 16.873 354.291 16.9551C353.635 17.0371 352.919 17.0781 352.145 17.0781C351.233 17.0781 350.408 16.9642 349.67 16.7363C348.932 16.5085 348.303 16.1621 347.783 15.6973C347.255 15.2415 346.849 14.6673 346.566 13.9746C346.284 13.2728 346.143 12.4525 346.143 11.5137V7.20703H348.672V11.5137C348.672 12.0788 348.74 12.571 348.877 12.9902C349.014 13.4095 349.205 13.7604 349.451 14.043C349.743 14.3711 350.117 14.6126 350.572 14.7676C351.028 14.9225 351.552 15 352.145 15C352.564 15 352.974 14.9863 353.375 14.959C353.776 14.9316 354.168 14.8906 354.551 14.8359C354.833 14.7995 355.111 14.7539 355.385 14.6992C355.667 14.6445 355.945 14.5853 356.219 14.5215V7.20703H358.748V22ZM369.945 22.2734C368.906 22.2734 367.949 22.0957 367.074 21.7402C366.208 21.3848 365.465 20.888 364.846 20.25C364.226 19.612 363.743 18.8555 363.396 17.9805C363.05 17.1055 362.877 16.153 362.877 15.123V14.5488C362.877 13.3548 363.068 12.2884 363.451 11.3496C363.834 10.4017 364.344 9.59961 364.982 8.94336C365.611 8.29622 366.327 7.79948 367.129 7.45312C367.94 7.10677 368.77 6.93359 369.617 6.93359C370.684 6.93359 371.613 7.12044 372.406 7.49414C373.208 7.85872 373.874 8.36458 374.402 9.01172C374.931 9.66797 375.323 10.4382 375.578 11.3223C375.842 12.2064 375.975 13.1634 375.975 14.1934V15.3281H365.406V15.4238C365.47 16.1439 365.611 16.7773 365.83 17.3242C366.058 17.8711 366.368 18.3542 366.76 18.7734C367.161 19.2201 367.644 19.571 368.209 19.8262C368.774 20.0814 369.398 20.209 370.082 20.209C370.984 20.209 371.786 20.0267 372.488 19.6621C373.19 19.2975 373.773 18.8145 374.238 18.2129L375.783 19.416C375.291 20.1634 374.553 20.8288 373.568 21.4121C372.593 21.9863 371.385 22.2734 369.945 22.2734ZM369.617 9.01172C369.107 9.01172 368.624 9.10742 368.168 9.29883C367.712 9.48112 367.302 9.75 366.938 10.1055C366.573 10.4701 366.263 10.9167 366.008 11.4453C365.762 11.9648 365.589 12.5664 365.488 13.25H373.445V13.127C373.445 12.6712 373.359 12.1836 373.186 11.6641C373.012 11.1354 372.771 10.6797 372.461 10.2969C372.151 9.91406 371.759 9.60417 371.285 9.36719C370.82 9.13021 370.264 9.01172 369.617 9.01172ZM386.529 20.2227C386.985 20.2227 387.427 20.1497 387.855 20.0039C388.293 19.8581 388.68 19.653 389.018 19.3887C389.355 19.1335 389.624 18.8327 389.824 18.4863C390.034 18.1309 390.143 17.748 390.152 17.3379H392.545C392.536 17.9941 392.363 18.623 392.025 19.2246C391.697 19.8171 391.255 20.3366 390.699 20.7832C390.143 21.2389 389.505 21.6035 388.785 21.877C388.065 22.1413 387.313 22.2734 386.529 22.2734C385.408 22.2734 384.428 22.0729 383.59 21.6719C382.751 21.2708 382.054 20.7285 381.498 20.0449C380.933 19.3704 380.509 18.5911 380.227 17.707C379.944 16.8138 379.803 15.875 379.803 14.8906V14.3164C379.803 13.3411 379.944 12.4069 380.227 11.5137C380.509 10.6204 380.933 9.83203 381.498 9.14844C382.054 8.47396 382.751 7.9362 383.59 7.53516C384.428 7.13411 385.408 6.93359 386.529 6.93359C387.404 6.93359 388.206 7.07487 388.936 7.35742C389.674 7.63086 390.312 8.00456 390.85 8.47852C391.378 8.96159 391.793 9.53125 392.094 10.1875C392.395 10.8438 392.545 11.5456 392.545 12.293H390.152C390.143 11.8464 390.043 11.4271 389.852 11.0352C389.669 10.6341 389.419 10.2832 389.1 9.98242C388.781 9.68164 388.398 9.44466 387.951 9.27148C387.514 9.09831 387.04 9.01172 386.529 9.01172C385.745 9.01172 385.085 9.17122 384.547 9.49023C384.018 9.80013 383.59 10.2057 383.262 10.707C382.934 11.2174 382.697 11.7871 382.551 12.416C382.414 13.0449 382.346 13.6784 382.346 14.3164V14.8906C382.346 15.5378 382.414 16.1803 382.551 16.8184C382.697 17.4473 382.934 18.0124 383.262 18.5137C383.581 19.0241 384.005 19.4388 384.533 19.7578C385.071 20.0677 385.736 20.2227 386.529 20.2227ZM406.668 7.20703H409.197V22H406.668V11.0898L399.436 22H396.92V7.20703H399.436V18.1309L406.668 7.20703ZM426.014 22H423.484V15.6836H416.266V22H413.736V7.20703H416.266V13.6191H423.484V7.20703H426.014V22ZM14.75 53.0117C14.6315 53.9323 14.3945 54.7799 14.0391 55.5547C13.6836 56.3203 13.2233 56.9766 12.6582 57.5234C12.084 58.0794 11.4049 58.5124 10.6211 58.8223C9.84635 59.123 8.98047 59.2734 8.02344 59.2734C7.20312 59.2734 6.45573 59.1595 5.78125 58.9316C5.11589 58.6947 4.52344 58.3711 4.00391 57.9609C3.47526 57.5508 3.01953 57.0677 2.63672 56.5117C2.26302 55.9557 1.95312 55.3496 1.70703 54.6934C1.45182 54.0371 1.26042 53.349 1.13281 52.6289C1.01432 51.9089 0.950521 51.1797 0.941406 50.4414V47.666C0.950521 46.9277 1.01432 46.1986 1.13281 45.4785C1.26042 44.7585 1.45182 44.0703 1.70703 43.4141C1.95312 42.7578 2.26302 42.1517 2.63672 41.5957C3.01953 41.0306 3.47526 40.543 4.00391 40.1328C4.52344 39.7227 5.11589 39.4036 5.78125 39.1758C6.44661 38.9388 7.19401 38.8203 8.02344 38.8203C9.01693 38.8203 9.9056 38.9753 10.6895 39.2852C11.4733 39.5859 12.1478 40.0143 12.7129 40.5703C13.278 41.1354 13.7292 41.8099 14.0664 42.5938C14.4128 43.3776 14.6406 44.2435 14.75 45.1914H12.2207C12.1387 44.5898 11.9974 44.0293 11.7969 43.5098C11.5964 42.9902 11.3275 42.5345 10.9902 42.1426C10.653 41.7507 10.2383 41.4453 9.74609 41.2266C9.26302 40.9987 8.6888 40.8848 8.02344 40.8848C7.42188 40.8848 6.88867 40.985 6.42383 41.1855C5.9681 41.377 5.57617 41.6413 5.24805 41.9785C4.91081 42.3158 4.62826 42.7077 4.40039 43.1543C4.18164 43.6009 4.00391 44.0749 3.86719 44.5762C3.73047 45.0775 3.63021 45.5924 3.56641 46.1211C3.51172 46.6406 3.48438 47.1465 3.48438 47.6387V50.4414C3.48438 50.9336 3.51172 51.444 3.56641 51.9727C3.63021 52.4922 3.73047 53.0026 3.86719 53.5039C4.00391 54.0143 4.18164 54.4928 4.40039 54.9395C4.61914 55.3861 4.89714 55.778 5.23438 56.1152C5.57161 56.4616 5.9681 56.735 6.42383 56.9355C6.87956 57.127 7.41276 57.2227 8.02344 57.2227C8.6888 57.2227 9.26302 57.1178 9.74609 56.9082C10.2383 56.6986 10.653 56.4023 10.9902 56.0195C11.3275 55.6458 11.5964 55.2038 11.7969 54.6934C11.9974 54.1738 12.1387 53.6133 12.2207 53.0117H14.75ZM28.2988 44.207H30.8281V59H28.2988V48.0898L21.0664 59H18.5508V44.207H21.0664V55.1309L28.2988 44.207ZM34.957 54.625H37.4863C37.4863 54.9805 37.5911 55.3177 37.8008 55.6367C38.0104 55.9466 38.3021 56.2201 38.6758 56.457C39.0495 56.7031 39.4915 56.8991 40.002 57.0449C40.5124 57.1816 41.0638 57.25 41.6562 57.25C42.2396 57.25 42.7728 57.1908 43.2559 57.0723C43.7389 56.9447 44.1536 56.7715 44.5 56.5527C44.8372 56.334 45.097 56.0788 45.2793 55.7871C45.4707 55.4954 45.5664 55.181 45.5664 54.8438C45.5664 54.4245 45.4798 54.069 45.3066 53.7773C45.1335 53.4766 44.8828 53.2305 44.5547 53.0391C44.3906 52.9479 44.2083 52.8704 44.0078 52.8066C43.8073 52.7428 43.5931 52.6882 43.3652 52.6426C43.1374 52.597 42.8913 52.5651 42.627 52.5469C42.3626 52.5286 42.0892 52.5195 41.8066 52.5195H38.5117V50.3867H41.8066C42.0983 50.3867 42.3717 50.3776 42.627 50.3594C42.8822 50.332 43.1146 50.2956 43.3242 50.25C43.5885 50.1953 43.8255 50.1224 44.0352 50.0312C44.2539 49.9401 44.4453 49.8353 44.6094 49.7168C44.8372 49.5436 45.0104 49.334 45.1289 49.0879C45.2474 48.8418 45.3066 48.5638 45.3066 48.2539C45.3066 47.944 45.2246 47.6523 45.0605 47.3789C44.9056 47.1055 44.6777 46.8639 44.377 46.6543C44.0671 46.4538 43.6842 46.2943 43.2285 46.1758C42.7728 46.0573 42.2487 45.998 41.6562 45.998C41.1276 45.998 40.6263 46.0573 40.1523 46.1758C39.6784 46.2943 39.2637 46.4538 38.9082 46.6543C38.5436 46.8639 38.252 47.1146 38.0332 47.4062C37.8236 47.6888 37.7188 47.9987 37.7188 48.3359H35.1895C35.1986 47.6523 35.3763 47.0417 35.7227 46.5039C36.0781 45.957 36.5521 45.4922 37.1445 45.1094C37.7279 44.7357 38.4069 44.4486 39.1816 44.248C39.9655 44.0475 40.7904 43.9473 41.6562 43.9473C42.5677 43.9473 43.4017 44.0384 44.1582 44.2207C44.9147 44.403 45.5664 44.6719 46.1133 45.0273C46.6602 45.3919 47.084 45.8431 47.3848 46.3809C47.6855 46.9095 47.8359 47.5293 47.8359 48.2402C47.8359 48.6777 47.7357 49.0879 47.5352 49.4707C47.3346 49.8535 47.0521 50.1999 46.6875 50.5098C46.487 50.6829 46.2546 50.847 45.9902 51.002C45.7259 51.1478 45.4434 51.2799 45.1426 51.3984C45.571 51.526 45.9538 51.6855 46.291 51.877C46.6374 52.0592 46.9382 52.2734 47.1934 52.5195C47.4941 52.8203 47.722 53.1667 47.877 53.5586C48.041 53.9414 48.123 54.3698 48.123 54.8438C48.123 55.5547 47.9544 56.1836 47.6172 56.7305C47.2891 57.2773 46.8333 57.7376 46.25 58.1113C45.6667 58.4941 44.9831 58.7812 44.1992 58.9727C43.4154 59.1641 42.5677 59.2598 41.6562 59.2598C40.763 59.2598 39.888 59.1549 39.0312 58.9453C38.1745 58.7357 37.4271 58.4076 36.7891 57.9609C36.2513 57.5964 35.8092 57.1361 35.4629 56.5801C35.1257 56.015 34.957 55.3633 34.957 54.625ZM75.002 55.6504L78.1465 44.207H81.3047V59H78.7754V49.8809L75.877 59H74.127L71.1465 49.5527V59H68.6172V44.207H71.8848L75.002 55.6504ZM92.4746 59.2734C91.4355 59.2734 90.4785 59.0957 89.6035 58.7402C88.7376 58.3848 87.9948 57.888 87.375 57.25C86.7552 56.612 86.2721 55.8555 85.9258 54.9805C85.5794 54.1055 85.4062 53.153 85.4062 52.123V51.5488C85.4062 50.3548 85.5977 49.2884 85.9805 48.3496C86.3633 47.4017 86.8737 46.5996 87.5117 45.9434C88.1406 45.2962 88.8561 44.7995 89.6582 44.4531C90.4694 44.1068 91.2988 43.9336 92.1465 43.9336C93.2129 43.9336 94.1426 44.1204 94.9355 44.4941C95.7376 44.8587 96.403 45.3646 96.9316 46.0117C97.4603 46.668 97.8522 47.4382 98.1074 48.3223C98.3717 49.2064 98.5039 50.1634 98.5039 51.1934V52.3281H87.9355V52.4238C87.9993 53.1439 88.1406 53.7773 88.3594 54.3242C88.5872 54.8711 88.8971 55.3542 89.2891 55.7734C89.6901 56.2201 90.1732 56.571 90.7383 56.8262C91.3034 57.0814 91.9277 57.209 92.6113 57.209C93.5137 57.209 94.3158 57.0267 95.0176 56.6621C95.7194 56.2975 96.3027 55.8145 96.7676 55.2129L98.3125 56.416C97.8203 57.1634 97.082 57.8288 96.0977 58.4121C95.1224 58.9863 93.9147 59.2734 92.4746 59.2734ZM92.1465 46.0117C91.6361 46.0117 91.153 46.1074 90.6973 46.2988C90.2415 46.4811 89.8314 46.75 89.4668 47.1055C89.1022 47.4701 88.7923 47.9167 88.5371 48.4453C88.291 48.9648 88.1178 49.5664 88.0176 50.25H95.9746V50.127C95.9746 49.6712 95.888 49.1836 95.7148 48.6641C95.5417 48.1354 95.3001 47.6797 94.9902 47.2969C94.6803 46.9141 94.2884 46.6042 93.8145 46.3672C93.3496 46.1302 92.7936 46.0117 92.1465 46.0117ZM114.91 59H112.381V52.6836H105.162V59H102.633V44.207H105.162V50.6191H112.381V44.207H114.91V59ZM126.107 59.2734C125.068 59.2734 124.111 59.0957 123.236 58.7402C122.37 58.3848 121.628 57.888 121.008 57.25C120.388 56.612 119.905 55.8555 119.559 54.9805C119.212 54.1055 119.039 53.153 119.039 52.123V51.5488C119.039 50.3548 119.23 49.2884 119.613 48.3496C119.996 47.4017 120.507 46.5996 121.145 45.9434C121.773 45.2962 122.489 44.7995 123.291 44.4531C124.102 44.1068 124.932 43.9336 125.779 43.9336C126.846 43.9336 127.775 44.1204 128.568 44.4941C129.37 44.8587 130.036 45.3646 130.564 46.0117C131.093 46.668 131.485 47.4382 131.74 48.3223C132.005 49.2064 132.137 50.1634 132.137 51.1934V52.3281H121.568V52.4238C121.632 53.1439 121.773 53.7773 121.992 54.3242C122.22 54.8711 122.53 55.3542 122.922 55.7734C123.323 56.2201 123.806 56.571 124.371 56.8262C124.936 57.0814 125.561 57.209 126.244 57.209C127.146 57.209 127.949 57.0267 128.65 56.6621C129.352 56.2975 129.936 55.8145 130.4 55.2129L131.945 56.416C131.453 57.1634 130.715 57.8288 129.73 58.4121C128.755 58.9863 127.548 59.2734 126.107 59.2734ZM125.779 46.0117C125.269 46.0117 124.786 46.1074 124.33 46.2988C123.874 46.4811 123.464 46.75 123.1 47.1055C122.735 47.4701 122.425 47.9167 122.17 48.4453C121.924 48.9648 121.751 49.5664 121.65 50.25H129.607V50.127C129.607 49.6712 129.521 49.1836 129.348 48.6641C129.174 48.1354 128.933 47.6797 128.623 47.2969C128.313 46.9141 127.921 46.6042 127.447 46.3672C126.982 46.1302 126.426 46.0117 125.779 46.0117ZM148.543 59H146.014V52.6836H138.795V59H136.266V44.207H138.795V50.6191H146.014V44.207H148.543V59ZM176.475 45.0547C177.441 45.0547 178.302 45.2279 179.059 45.5742C179.815 45.9115 180.458 46.3763 180.986 46.9688C181.515 47.5703 181.916 48.2812 182.189 49.1016C182.472 49.9128 182.613 50.7969 182.613 51.7539V52.0684C182.613 53.0983 182.463 54.0508 182.162 54.9258C181.87 55.8008 181.442 56.5618 180.877 57.209C180.312 57.8561 179.619 58.362 178.799 58.7266C177.988 59.0911 177.062 59.2734 176.023 59.2734C174.984 59.2734 174.055 59.0911 173.234 58.7266C172.414 58.362 171.721 57.8561 171.156 57.209C170.591 56.5618 170.158 55.8008 169.857 54.9258C169.557 54.0508 169.406 53.0983 169.406 52.0684V50.7148C169.406 49.8581 169.447 49.056 169.529 48.3086C169.62 47.5521 169.748 46.8548 169.912 46.2168C170.067 45.6243 170.254 45.0729 170.473 44.5625C170.691 44.0521 170.942 43.5827 171.225 43.1543C171.799 42.2793 172.496 41.582 173.316 41.0625C174.146 40.5339 175.066 40.1738 176.078 39.9824C176.561 39.8913 177.008 39.7956 177.418 39.6953C177.837 39.5859 178.202 39.4492 178.512 39.2852C178.812 39.1302 179.049 38.9342 179.223 38.6973C179.396 38.4512 179.482 38.1413 179.482 37.7676H181.561C181.561 38.6152 181.428 39.2988 181.164 39.8184C180.909 40.3379 180.549 40.7526 180.084 41.0625C179.674 41.3359 179.218 41.541 178.717 41.6777C178.225 41.8145 177.527 41.9785 176.625 42.1699C175.987 42.3066 175.39 42.498 174.834 42.7441C174.278 42.9811 173.781 43.3047 173.344 43.7148C172.906 44.125 172.537 44.6309 172.236 45.2324C171.936 45.8249 171.717 46.5404 171.58 47.3789C171.872 47.0417 172.195 46.7318 172.551 46.4492C172.906 46.1576 173.289 45.9069 173.699 45.6973C174.109 45.4967 174.547 45.3418 175.012 45.2324C175.477 45.1139 175.964 45.0547 176.475 45.0547ZM175.996 47.1328C175.303 47.1328 174.702 47.2604 174.191 47.5156C173.681 47.7617 173.262 48.0944 172.934 48.5137C172.596 48.9421 172.346 49.4342 172.182 49.9902C172.018 50.5462 171.936 51.1341 171.936 51.7539V52.0684C171.936 52.7611 172.018 53.4219 172.182 54.0508C172.346 54.6706 172.596 55.2129 172.934 55.6777C173.262 56.1517 173.681 56.5299 174.191 56.8125C174.711 57.0859 175.322 57.2227 176.023 57.2227C176.716 57.2227 177.313 57.0859 177.814 56.8125C178.325 56.5299 178.749 56.1517 179.086 55.6777C179.423 55.2129 179.674 54.6706 179.838 54.0508C180.002 53.4219 180.084 52.7611 180.084 52.0684V51.7539C180.084 51.1341 180.002 50.5462 179.838 49.9902C179.674 49.4342 179.423 48.9421 179.086 48.5137C178.749 48.0944 178.32 47.7617 177.801 47.5156C177.29 47.2604 176.689 47.1328 175.996 47.1328ZM185.73 51.4668C185.73 50.4004 185.885 49.4115 186.195 48.5C186.505 47.5794 186.952 46.7819 187.535 46.1074C188.109 45.4329 188.811 44.9043 189.641 44.5215C190.47 44.1296 191.404 43.9336 192.443 43.9336C193.492 43.9336 194.43 44.1296 195.26 44.5215C196.098 44.9043 196.809 45.4329 197.393 46.1074C197.967 46.7819 198.409 47.5794 198.719 48.5C199.029 49.4115 199.184 50.4004 199.184 51.4668V51.7676C199.184 52.834 199.029 53.8229 198.719 54.7344C198.409 55.6458 197.967 56.4388 197.393 57.1133C196.809 57.7878 196.103 58.3164 195.273 58.6992C194.444 59.082 193.51 59.2734 192.471 59.2734C191.423 59.2734 190.479 59.082 189.641 58.6992C188.811 58.3164 188.109 57.7878 187.535 57.1133C186.952 56.4388 186.505 55.6458 186.195 54.7344C185.885 53.8229 185.73 52.834 185.73 51.7676V51.4668ZM192.443 46.0117C191.824 46.0117 191.272 46.1302 190.789 46.3672C190.306 46.6042 189.891 46.9277 189.545 47.3379C189.199 47.748 188.921 48.2311 188.711 48.7871C188.501 49.334 188.365 49.9173 188.301 50.5371H196.6C196.527 49.9173 196.385 49.334 196.176 48.7871C195.975 48.2311 195.702 47.748 195.355 47.3379C195.009 46.9277 194.59 46.6042 194.098 46.3672C193.615 46.1302 193.063 46.0117 192.443 46.0117ZM192.471 57.2227C193.1 57.2227 193.656 57.1042 194.139 56.8672C194.631 56.6211 195.05 56.2884 195.396 55.8691C195.743 55.4499 196.016 54.9622 196.217 54.4062C196.417 53.8411 196.549 53.2396 196.613 52.6016H188.301C188.365 53.2396 188.497 53.8411 188.697 54.4062C188.898 54.9622 189.176 55.4499 189.531 55.8691C189.878 56.2884 190.292 56.6211 190.775 56.8672C191.268 57.1042 191.833 57.2227 192.471 57.2227ZM215.795 44.207V59H213.252V46.2988H207.811L207.797 50.5371C207.797 51.0384 207.783 51.526 207.756 52C207.738 52.4648 207.706 52.9069 207.66 53.3262C207.587 54.0189 207.473 54.6569 207.318 55.2402C207.163 55.8236 206.967 56.3385 206.73 56.7852C206.348 57.5052 205.833 58.0566 205.186 58.4395C204.538 58.8132 203.732 59 202.766 59H202.027L202.068 56.7441L202.629 56.7305C203.148 56.7305 203.577 56.6029 203.914 56.3477C204.26 56.0833 204.534 55.6914 204.734 55.1719C204.835 54.8893 204.921 54.5658 204.994 54.2012C205.067 53.8275 205.126 53.4173 205.172 52.9707C205.199 52.6152 205.217 52.237 205.227 51.8359C205.245 51.4258 205.254 50.9928 205.254 50.5371L205.281 44.207H215.795ZM231.545 44.207H234.143L227.881 58.3574V64.6875H225.338V58.2617L219.062 44.207H221.66L226.309 54.9258L226.637 56.2656H226.65L226.992 54.9258L231.545 44.207ZM239.201 44.207V56.9355H242.045V44.207H244.574V56.9355H247.418V44.207H249.947V59H236.672V44.207H239.201ZM258.902 52.6973H256.496V59H253.967V44.207H256.496V50.4688H258.684L264.193 44.207H267.27L260.926 51.3301L267.762 59H264.549L258.902 52.6973ZM281.994 44.207H284.592L278.33 58.3574V64.6875H275.787V58.2617L269.512 44.207H272.109L276.758 54.9258L277.086 56.2656H277.1L277.441 54.9258L281.994 44.207ZM294.189 45.0547C295.156 45.0547 296.017 45.2279 296.773 45.5742C297.53 45.9115 298.173 46.3763 298.701 46.9688C299.23 47.5703 299.631 48.2812 299.904 49.1016C300.187 49.9128 300.328 50.7969 300.328 51.7539V52.0684C300.328 53.0983 300.178 54.0508 299.877 54.9258C299.585 55.8008 299.157 56.5618 298.592 57.209C298.027 57.8561 297.334 58.362 296.514 58.7266C295.702 59.0911 294.777 59.2734 293.738 59.2734C292.699 59.2734 291.77 59.0911 290.949 58.7266C290.129 58.362 289.436 57.8561 288.871 57.209C288.306 56.5618 287.873 55.8008 287.572 54.9258C287.271 54.0508 287.121 53.0983 287.121 52.0684V50.7148C287.121 49.8581 287.162 49.056 287.244 48.3086C287.335 47.5521 287.463 46.8548 287.627 46.2168C287.782 45.6243 287.969 45.0729 288.188 44.5625C288.406 44.0521 288.657 43.5827 288.939 43.1543C289.514 42.2793 290.211 41.582 291.031 41.0625C291.861 40.5339 292.781 40.1738 293.793 39.9824C294.276 39.8913 294.723 39.7956 295.133 39.6953C295.552 39.5859 295.917 39.4492 296.227 39.2852C296.527 39.1302 296.764 38.9342 296.938 38.6973C297.111 38.4512 297.197 38.1413 297.197 37.7676H299.275C299.275 38.6152 299.143 39.2988 298.879 39.8184C298.624 40.3379 298.264 40.7526 297.799 41.0625C297.389 41.3359 296.933 41.541 296.432 41.6777C295.939 41.8145 295.242 41.9785 294.34 42.1699C293.702 42.3066 293.105 42.498 292.549 42.7441C291.993 42.9811 291.496 43.3047 291.059 43.7148C290.621 44.125 290.252 44.6309 289.951 45.2324C289.65 45.8249 289.432 46.5404 289.295 47.3789C289.587 47.0417 289.91 46.7318 290.266 46.4492C290.621 46.1576 291.004 45.9069 291.414 45.6973C291.824 45.4967 292.262 45.3418 292.727 45.2324C293.191 45.1139 293.679 45.0547 294.189 45.0547ZM293.711 47.1328C293.018 47.1328 292.417 47.2604 291.906 47.5156C291.396 47.7617 290.977 48.0944 290.648 48.5137C290.311 48.9421 290.061 49.4342 289.896 49.9902C289.732 50.5462 289.65 51.1341 289.65 51.7539V52.0684C289.65 52.7611 289.732 53.4219 289.896 54.0508C290.061 54.6706 290.311 55.2129 290.648 55.6777C290.977 56.1517 291.396 56.5299 291.906 56.8125C292.426 57.0859 293.036 57.2227 293.738 57.2227C294.431 57.2227 295.028 57.0859 295.529 56.8125C296.04 56.5299 296.464 56.1517 296.801 55.6777C297.138 55.2129 297.389 54.6706 297.553 54.0508C297.717 53.4219 297.799 52.7611 297.799 52.0684V51.7539C297.799 51.1341 297.717 50.5462 297.553 49.9902C297.389 49.4342 297.138 48.9421 296.801 48.5137C296.464 48.0944 296.035 47.7617 295.516 47.5156C295.005 47.2604 294.404 47.1328 293.711 47.1328ZM315.627 44.207H318.225L311.963 58.3574V64.6875H309.42V58.2617L303.145 44.207H305.742L310.391 54.9258L310.719 56.2656H310.732L311.074 54.9258L315.627 44.207ZM320.836 54.625H323.365C323.365 54.9805 323.47 55.3177 323.68 55.6367C323.889 55.9466 324.181 56.2201 324.555 56.457C324.928 56.7031 325.37 56.8991 325.881 57.0449C326.391 57.1816 326.943 57.25 327.535 57.25C328.118 57.25 328.652 57.1908 329.135 57.0723C329.618 56.9447 330.033 56.7715 330.379 56.5527C330.716 56.334 330.976 56.0788 331.158 55.7871C331.35 55.4954 331.445 55.181 331.445 54.8438C331.445 54.4245 331.359 54.069 331.186 53.7773C331.012 53.4766 330.762 53.2305 330.434 53.0391C330.27 52.9479 330.087 52.8704 329.887 52.8066C329.686 52.7428 329.472 52.6882 329.244 52.6426C329.016 52.597 328.77 52.5651 328.506 52.5469C328.242 52.5286 327.968 52.5195 327.686 52.5195H324.391V50.3867H327.686C327.977 50.3867 328.251 50.3776 328.506 50.3594C328.761 50.332 328.993 50.2956 329.203 50.25C329.467 50.1953 329.704 50.1224 329.914 50.0312C330.133 49.9401 330.324 49.8353 330.488 49.7168C330.716 49.5436 330.889 49.334 331.008 49.0879C331.126 48.8418 331.186 48.5638 331.186 48.2539C331.186 47.944 331.104 47.6523 330.939 47.3789C330.785 47.1055 330.557 46.8639 330.256 46.6543C329.946 46.4538 329.563 46.2943 329.107 46.1758C328.652 46.0573 328.128 45.998 327.535 45.998C327.007 45.998 326.505 46.0573 326.031 46.1758C325.557 46.2943 325.143 46.4538 324.787 46.6543C324.423 46.8639 324.131 47.1146 323.912 47.4062C323.702 47.6888 323.598 47.9987 323.598 48.3359H321.068C321.077 47.6523 321.255 47.0417 321.602 46.5039C321.957 45.957 322.431 45.4922 323.023 45.1094C323.607 44.7357 324.286 44.4486 325.061 44.248C325.844 44.0475 326.669 43.9473 327.535 43.9473C328.447 43.9473 329.281 44.0384 330.037 44.2207C330.794 44.403 331.445 44.6719 331.992 45.0273C332.539 45.3919 332.963 45.8431 333.264 46.3809C333.564 46.9095 333.715 47.5293 333.715 48.2402C333.715 48.6777 333.615 49.0879 333.414 49.4707C333.214 49.8535 332.931 50.1999 332.566 50.5098C332.366 50.6829 332.133 50.847 331.869 51.002C331.605 51.1478 331.322 51.2799 331.021 51.3984C331.45 51.526 331.833 51.6855 332.17 51.877C332.516 52.0592 332.817 52.2734 333.072 52.5195C333.373 52.8203 333.601 53.1667 333.756 53.5586C333.92 53.9414 334.002 54.3698 334.002 54.8438C334.002 55.5547 333.833 56.1836 333.496 56.7305C333.168 57.2773 332.712 57.7376 332.129 58.1113C331.546 58.4941 330.862 58.7812 330.078 58.9727C329.294 59.1641 328.447 59.2598 327.535 59.2598C326.642 59.2598 325.767 59.1549 324.91 58.9453C324.053 58.7357 323.306 58.4076 322.668 57.9609C322.13 57.5964 321.688 57.1361 321.342 56.5801C321.005 56.015 320.836 55.3633 320.836 54.625ZM359.801 52.6973H357.395V59H354.865V44.207H357.395V50.4688H359.582L365.092 44.207H368.168L361.824 51.3301L368.66 59H365.447L359.801 52.6973ZM378.354 59.2734C377.314 59.2734 376.357 59.0957 375.482 58.7402C374.617 58.3848 373.874 57.888 373.254 57.25C372.634 56.612 372.151 55.8555 371.805 54.9805C371.458 54.1055 371.285 53.153 371.285 52.123V51.5488C371.285 50.3548 371.477 49.2884 371.859 48.3496C372.242 47.4017 372.753 46.5996 373.391 45.9434C374.02 45.2962 374.735 44.7995 375.537 44.4531C376.348 44.1068 377.178 43.9336 378.025 43.9336C379.092 43.9336 380.021 44.1204 380.814 44.4941C381.617 44.8587 382.282 45.3646 382.811 46.0117C383.339 46.668 383.731 47.4382 383.986 48.3223C384.251 49.2064 384.383 50.1634 384.383 51.1934V52.3281H373.814V52.4238C373.878 53.1439 374.02 53.7773 374.238 54.3242C374.466 54.8711 374.776 55.3542 375.168 55.7734C375.569 56.2201 376.052 56.571 376.617 56.8262C377.182 57.0814 377.807 57.209 378.49 57.209C379.393 57.209 380.195 57.0267 380.896 56.6621C381.598 56.2975 382.182 55.8145 382.646 55.2129L384.191 56.416C383.699 57.1634 382.961 57.8288 381.977 58.4121C381.001 58.9863 379.794 59.2734 378.354 59.2734ZM378.025 46.0117C377.515 46.0117 377.032 46.1074 376.576 46.2988C376.12 46.4811 375.71 46.75 375.346 47.1055C374.981 47.4701 374.671 47.9167 374.416 48.4453C374.17 48.9648 373.997 49.5664 373.896 50.25H381.854V50.127C381.854 49.6712 381.767 49.1836 381.594 48.6641C381.421 48.1354 381.179 47.6797 380.869 47.2969C380.559 46.9141 380.167 46.6042 379.693 46.3672C379.229 46.1302 378.673 46.0117 378.025 46.0117ZM400.775 44.207V59H398.232V46.2988H392.791L392.777 50.5371C392.777 51.0384 392.764 51.526 392.736 52C392.718 52.4648 392.686 52.9069 392.641 53.3262C392.568 54.0189 392.454 54.6569 392.299 55.2402C392.144 55.8236 391.948 56.3385 391.711 56.7852C391.328 57.5052 390.813 58.0566 390.166 58.4395C389.519 58.8132 388.712 59 387.746 59H387.008L387.049 56.7441L387.609 56.7305C388.129 56.7305 388.557 56.6029 388.895 56.3477C389.241 56.0833 389.514 55.6914 389.715 55.1719C389.815 54.8893 389.902 54.5658 389.975 54.2012C390.048 53.8275 390.107 53.4173 390.152 52.9707C390.18 52.6152 390.198 52.237 390.207 51.8359C390.225 51.4258 390.234 50.9928 390.234 50.5371L390.262 44.207H400.775ZM411.986 59.2734C410.947 59.2734 409.99 59.0957 409.115 58.7402C408.249 58.3848 407.507 57.888 406.887 57.25C406.267 56.612 405.784 55.8555 405.438 54.9805C405.091 54.1055 404.918 53.153 404.918 52.123V51.5488C404.918 50.3548 405.109 49.2884 405.492 48.3496C405.875 47.4017 406.385 46.5996 407.023 45.9434C407.652 45.2962 408.368 44.7995 409.17 44.4531C409.981 44.1068 410.811 43.9336 411.658 43.9336C412.725 43.9336 413.654 44.1204 414.447 44.4941C415.249 44.8587 415.915 45.3646 416.443 46.0117C416.972 46.668 417.364 47.4382 417.619 48.3223C417.883 49.2064 418.016 50.1634 418.016 51.1934V52.3281H407.447V52.4238C407.511 53.1439 407.652 53.7773 407.871 54.3242C408.099 54.8711 408.409 55.3542 408.801 55.7734C409.202 56.2201 409.685 56.571 410.25 56.8262C410.815 57.0814 411.439 57.209 412.123 57.209C413.025 57.209 413.827 57.0267 414.529 56.6621C415.231 56.2975 415.814 55.8145 416.279 55.2129L417.824 56.416C417.332 57.1634 416.594 57.8288 415.609 58.4121C414.634 58.9863 413.426 59.2734 411.986 59.2734ZM411.658 46.0117C411.148 46.0117 410.665 46.1074 410.209 46.2988C409.753 46.4811 409.343 46.75 408.979 47.1055C408.614 47.4701 408.304 47.9167 408.049 48.4453C407.803 48.9648 407.63 49.5664 407.529 50.25H415.486V50.127C415.486 49.6712 415.4 49.1836 415.227 48.6641C415.053 48.1354 414.812 47.6797 414.502 47.2969C414.192 46.9141 413.8 46.6042 413.326 46.3672C412.861 46.1302 412.305 46.0117 411.658 46.0117ZM435.57 46.2578H429.664V59H427.121V46.2578H421.311V44.207H435.57V46.2578ZM446.139 52.5605H443.596V39.0938H446.139V52.5605ZM443.35 57.6738C443.35 57.2363 443.477 56.8717 443.732 56.5801C443.997 56.2884 444.389 56.1426 444.908 56.1426C445.428 56.1426 445.82 56.2884 446.084 56.5801C446.357 56.8717 446.494 57.2363 446.494 57.6738C446.494 58.0931 446.357 58.444 446.084 58.7266C445.82 59.0091 445.428 59.1504 444.908 59.1504C444.389 59.1504 443.997 59.0091 443.732 58.7266C443.477 58.444 443.35 58.0931 443.35 57.6738Z" fill="#020202"/>
</svg>
