<svg width="855" height="96" viewBox="0 0 855 96" fill="none" xmlns="http://www.w3.org/2000/svg">
<path d="M69.0821 0.455999C70.1181 0.455999 70.9161 0.749999 71.4761 1.338C72.0641 1.898 72.3581 2.668 72.3581 3.648C72.3581 5.832 71.0561 7.862 68.4521 9.738C65.8481 11.586 62.8801 12.51 59.5481 12.51C58.0921 12.51 56.5521 12.3 54.9281 11.88C53.8641 13.616 53.3321 15.506 53.3321 17.55C53.3321 19.566 53.8921 21.204 55.0121 22.464C56.1321 23.696 57.7701 24.312 59.9261 24.312C63.7901 24.312 66.3241 22.058 67.5281 17.55H69.5021C69.1941 20.154 67.9621 22.45 65.8061 24.438C63.6781 26.426 60.8641 27.42 57.3641 27.42C55.5161 27.42 53.7941 26.748 52.1981 25.404C50.6021 24.032 49.8041 22.058 49.8041 19.482C49.8041 16.906 50.7841 14.092 52.7441 11.04C51.3161 10.2 50.1821 9.164 49.3421 7.932L50.4761 6.672C50.6721 6.868 50.9381 7.162 51.2741 7.554C51.9181 8.31 52.7861 8.968 53.8781 9.528C55.5301 7.232 57.9241 5.146 61.0601 3.27C64.2241 1.394 66.8981 0.455999 69.0821 0.455999ZM59.4221 10.83C61.8581 10.83 64.0001 10.256 65.8481 9.108C67.6961 7.96 68.6201 6.616 68.6201 5.076C68.6201 4.544 68.4241 4.124 68.0321 3.816C67.6681 3.48 67.1921 3.312 66.6041 3.312C64.8961 3.312 62.9921 3.998 60.8921 5.37C58.7921 6.714 57.1261 8.338 55.8941 10.242C56.9021 10.634 58.0781 10.83 59.4221 10.83ZM88.5278 24.354L88.6538 25.446C88.5418 25.53 87.2398 26.034 84.7478 26.958C84.4118 28.806 83.9778 30.626 83.4458 32.418C82.9418 34.238 82.4238 35.61 81.8918 36.534C81.3878 37.486 80.7858 38.424 80.0858 39.348C78.6858 41.196 76.7958 42.12 74.4158 42.12C73.2398 42.12 72.3018 41.756 71.6018 41.028C70.9018 40.3 70.5518 39.306 70.5518 38.046C70.5518 33.202 74.6118 29.31 82.7318 26.37L84.9998 18.39C82.5918 22.002 80.4218 24.228 78.4898 25.068C77.5378 25.516 76.5298 25.74 75.4658 25.74C74.4298 25.74 73.5898 25.404 72.9458 24.732C72.3298 24.06 72.0218 23.08 72.0218 21.792C72.0218 20.504 72.4558 18.712 73.3238 16.416C74.2198 14.092 75.2138 12.146 76.3058 10.578L78.3638 11.46C78.2798 11.544 77.8878 12.286 77.1878 13.686C75.9558 16.234 75.3398 18.124 75.3398 19.356C75.3398 20.588 75.5778 21.414 76.0538 21.834C76.5298 22.254 77.2298 22.464 78.1538 22.464C79.0778 22.464 80.1138 21.918 81.2618 20.826C82.4378 19.706 84.2438 17.508 86.6798 14.232L88.1918 15.114C87.9678 16.038 87.4638 17.718 86.6798 20.154C85.9238 22.562 85.4058 24.41 85.1258 25.698L88.5278 24.354ZM82.4798 27.63C80.7158 28.442 79.1618 29.366 77.8178 30.402C75.2978 32.306 74.0378 34.154 74.0378 35.946C74.0378 36.618 74.2338 37.164 74.6258 37.584C75.0178 38.004 75.5078 38.214 76.0958 38.214C78.8958 38.214 81.0238 34.686 82.4798 27.63ZM97.2933 19.272C99.4213 16.08 101.269 13.91 102.837 12.762C104.405 11.586 105.777 10.998 106.953 10.998C108.129 10.998 109.039 11.362 109.683 12.09C110.327 12.79 110.649 13.686 110.649 14.778C110.649 17.802 109.557 20.602 107.373 23.178C105.217 25.726 102.781 27 100.065 27C98.8613 27 97.9093 26.79 97.2093 26.37L98.2173 24.564C99.7013 24.76 100.611 24.858 100.947 24.858C102.459 24.858 103.873 23.976 105.189 22.212C106.505 20.448 107.163 18.642 107.163 16.794C107.163 16.094 106.953 15.52 106.533 15.072C106.141 14.596 105.623 14.358 104.979 14.358C103.439 14.358 101.689 15.716 99.7293 18.432C97.7973 21.148 95.9773 24.508 94.2693 28.512C92.5893 32.544 91.1193 36.828 89.8593 41.364L87.3393 40.482C87.3953 40.314 87.9273 38.858 88.9353 36.114C89.9153 33.398 90.8813 30.696 91.8333 28.008C94.4653 20.616 95.7813 16.57 95.7813 15.87C95.7813 14.078 95.4173 12.454 94.6893 10.998L96.7893 9.948C97.6573 11.152 98.0913 12.426 98.0913 13.77C98.0913 15.086 97.8253 16.92 97.2933 19.272ZM130.669 22.758L131.635 23.472C131.243 24.312 130.515 25.11 129.451 25.866C128.415 26.622 127.463 27 126.595 27C124.943 27 124.117 26.132 124.117 24.396C124.117 23.584 124.327 22.618 124.747 21.498L123.193 23.094C121.681 24.634 120.365 25.67 119.245 26.202C118.153 26.734 117.075 27 116.011 27C114.947 27 114.135 26.706 113.575 26.118C113.043 25.502 112.777 24.662 112.777 23.598C112.777 21.638 113.533 19.706 115.045 17.802C116.557 15.87 118.489 14.302 120.841 13.098C123.193 11.894 125.545 11.278 127.897 11.25L127.981 12.636L126.217 13.014C123.669 13.574 121.415 14.694 119.455 16.374C117.523 18.054 116.557 19.734 116.557 21.414C116.557 23.066 117.229 23.892 118.573 23.892C119.833 23.892 121.387 23.01 123.235 21.246C125.083 19.482 126.623 17.41 127.855 15.03L129.619 16.08C127.883 19.58 127.015 21.806 127.015 22.758C127.015 23.15 127.141 23.486 127.393 23.766C127.673 24.018 127.939 24.144 128.191 24.144C128.471 24.144 128.653 24.13 128.737 24.102C128.821 24.074 128.905 24.046 128.989 24.018C129.073 23.962 129.171 23.892 129.283 23.808C129.423 23.724 129.535 23.64 129.619 23.556C129.731 23.472 129.899 23.346 130.123 23.178C130.347 23.01 130.529 22.87 130.669 22.758ZM150.125 10.662L151.763 11.04C151.735 11.236 151.329 12.09 150.545 13.602C149.789 15.086 148.977 17.046 148.109 19.482C147.241 21.89 146.681 24.326 146.429 26.79L143.741 26.58C143.741 25.04 144.231 23.052 145.211 20.616C144.959 20.588 144.441 20.574 143.657 20.574C142.901 20.574 141.501 20.756 139.457 21.12C138.029 24.312 137.315 27.042 137.315 29.31L134.501 28.932C134.501 26.944 135.243 24.494 136.727 21.582C135.299 21.806 133.871 22.142 132.443 22.59L132.023 20.952C132.023 20.868 132.765 20.63 134.249 20.238C135.761 19.846 136.881 19.594 137.609 19.482C139.849 14.33 141.375 11.348 142.187 10.536L143.993 11.25C143.853 11.53 143.531 12.16 143.027 13.14C141.767 15.576 140.913 17.48 140.465 18.852C142.901 18.6 144.357 18.474 144.833 18.474C145.337 18.474 145.757 18.488 146.093 18.516C148.053 14.008 149.397 11.39 150.125 10.662ZM162.528 17.214C164.068 17.158 164.838 17.788 164.838 19.104C164.838 20.84 163.9 22.562 162.024 24.27C160.176 25.95 158.314 26.79 156.438 26.79C154.674 26.79 153.792 25.6 153.792 23.22C153.792 21.344 154.254 19.02 155.178 16.248C156.13 13.448 156.914 11.474 157.53 10.326L159.42 10.956C158.692 13.084 157.95 15.688 157.194 18.768L157.74 18.516C159.616 17.648 161.212 17.214 162.528 17.214ZM161.856 21.54C162.024 21.148 162.108 20.784 162.108 20.448C162.024 19.692 161.366 19.314 160.134 19.314C159.546 19.314 158.454 19.566 156.858 20.07C156.634 20.91 156.522 21.666 156.522 22.338C156.522 22.982 156.676 23.5 156.984 23.892C157.32 24.284 157.754 24.48 158.286 24.48C158.846 24.48 159.504 24.2 160.26 23.64C161.016 23.052 161.548 22.352 161.856 21.54ZM168.87 21.036L167.61 26.58L165.216 26.202C165.776 22.814 166.476 19.664 167.316 16.752C168.184 13.84 169.01 11.754 169.794 10.494L171.852 10.746C170.844 13.35 169.85 16.78 168.87 21.036ZM185.929 22.17L187.105 23.052C186.825 23.64 186.223 24.312 185.299 25.068C184.403 25.824 183.353 26.202 182.149 26.202C180.525 26.202 179.713 25.376 179.713 23.724C179.713 22.772 179.909 21.722 180.301 20.574C180.721 19.398 181.127 18.334 181.519 17.382C181.911 16.402 182.149 15.786 182.233 15.534C181.561 16.486 180.469 17.48 178.957 18.516C177.473 19.524 176.115 20.028 174.883 20.028C173.063 20.028 172.153 18.992 172.153 16.92C172.153 15.576 172.517 14.092 173.245 12.468C174.001 10.844 174.785 9.71 175.597 9.066L177.445 9.738C176.129 12.174 175.471 13.98 175.471 15.156C175.471 16.332 176.017 16.92 177.109 16.92C178.369 16.92 179.811 16.22 181.435 14.82C183.059 13.42 184.207 11.67 184.879 9.57L187.063 10.788C184.039 16.136 182.527 19.846 182.527 21.918C182.527 22.87 182.891 23.346 183.619 23.346C184.375 23.346 185.145 22.954 185.929 22.17ZM187.359 25.614C187.359 25.11 187.541 24.69 187.905 24.354C188.297 23.99 188.759 23.808 189.291 23.808C189.851 23.808 190.285 23.976 190.593 24.312C190.901 24.62 191.055 25.04 191.055 25.572C191.055 26.804 189.991 28.19 187.863 29.73L186.939 28.386C188.059 27.49 188.633 27.014 188.661 26.958C187.793 26.678 187.359 26.23 187.359 25.614ZM217.526 11.544C218.702 10.172 220.256 8.968 222.188 7.932C224.12 6.868 225.73 6.336 227.018 6.336C228.334 6.336 229.37 6.686 230.126 7.386C230.882 8.086 231.26 9.08 231.26 10.368C231.26 11.656 230.742 12.832 229.706 13.896C228.67 14.932 226.598 16.248 223.49 17.844C220.382 19.412 217.498 21.344 214.838 23.64C218.674 23.052 222.244 22.758 225.548 22.758C226.304 22.758 226.906 22.786 227.354 22.842V25.488C226.738 25.6 226.318 25.656 226.094 25.656C225.898 25.628 225.562 25.628 225.086 25.656C224.61 25.684 223.686 25.74 222.314 25.824C220.942 25.88 219.528 25.978 218.072 26.118C216.644 26.258 215.664 26.37 215.132 26.454C214.628 26.51 214.32 26.538 214.208 26.538C213.76 26.538 213.368 26.258 213.032 25.698C212.696 25.11 212.528 24.55 212.528 24.018C212.752 23.15 213.858 21.89 215.846 20.238C217.862 18.586 220.438 16.948 223.574 15.324C224.498 14.848 225.352 14.232 226.136 13.476C226.92 12.72 227.312 12.006 227.312 11.334C227.312 10.046 226.626 9.402 225.254 9.402C223.434 9.402 221.096 10.578 218.24 12.93L217.526 11.544ZM244.368 6.336C245.936 6.336 247.182 6.784 248.106 7.68C249.058 8.576 249.534 9.878 249.534 11.586C249.534 13.266 248.82 15.324 247.392 17.76C245.964 20.196 244.102 22.324 241.806 24.144C239.538 25.936 237.368 26.832 235.296 26.832C231.908 26.832 230.214 24.942 230.214 21.162C230.214 18.95 230.914 16.696 232.314 14.4C233.742 12.076 235.562 10.158 237.774 8.646C240.014 7.106 242.212 6.336 244.368 6.336ZM241.512 22.296C242.912 20.952 244.032 19.342 244.872 17.466C245.74 15.59 246.174 13.952 246.174 12.552C246.174 11.124 245.852 10.046 245.208 9.318C244.564 8.562 243.682 8.184 242.562 8.184C240.602 8.184 238.642 9.458 236.682 12.006C234.75 14.526 233.784 17.06 233.784 19.608C233.784 20.98 234.106 22.114 234.75 23.01C235.394 23.878 236.332 24.312 237.564 24.312C238.824 24.312 240.14 23.64 241.512 22.296ZM253.866 11.544C255.042 10.172 256.596 8.968 258.528 7.932C260.46 6.868 262.07 6.336 263.358 6.336C264.674 6.336 265.71 6.686 266.466 7.386C267.222 8.086 267.6 9.08 267.6 10.368C267.6 11.656 267.082 12.832 266.046 13.896C265.01 14.932 262.938 16.248 259.83 17.844C256.722 19.412 253.838 21.344 251.178 23.64C255.014 23.052 258.584 22.758 261.888 22.758C262.644 22.758 263.246 22.786 263.694 22.842V25.488C263.078 25.6 262.658 25.656 262.434 25.656C262.238 25.628 261.902 25.628 261.426 25.656C260.95 25.684 260.026 25.74 258.654 25.824C257.282 25.88 255.868 25.978 254.412 26.118C252.984 26.258 252.004 26.37 251.472 26.454C250.968 26.51 250.66 26.538 250.548 26.538C250.1 26.538 249.708 26.258 249.372 25.698C249.036 25.11 248.868 24.55 248.868 24.018C249.092 23.15 250.198 21.89 252.186 20.238C254.202 18.586 256.778 16.948 259.914 15.324C260.838 14.848 261.692 14.232 262.476 13.476C263.26 12.72 263.652 12.006 263.652 11.334C263.652 10.046 262.966 9.402 261.594 9.402C259.774 9.402 257.436 10.578 254.58 12.93L253.866 11.544ZM285.118 9.276C284.754 9.248 283.9 9.234 282.556 9.234C281.24 9.234 280.12 9.29 279.196 9.402C278.3 9.514 277.166 9.752 275.794 10.116C274.17 12.496 273.176 14.176 272.812 15.156C273.568 15.072 274.24 15.03 274.828 15.03C276.732 15.03 278.356 15.492 279.7 16.416C281.044 17.34 281.716 18.488 281.716 19.86C281.716 21.792 280.708 23.444 278.692 24.816C276.676 26.188 274.366 26.874 271.762 26.874C269.186 26.874 267.38 26.202 266.344 24.858L268.108 23.262C268.444 23.654 269.018 24.004 269.83 24.312C270.642 24.62 271.384 24.774 272.056 24.774C273.624 24.774 274.996 24.326 276.172 23.43C277.348 22.534 277.936 21.442 277.936 20.154C277.936 19.258 277.418 18.516 276.382 17.928C275.346 17.34 274.002 17.046 272.35 17.046C270.698 17.046 269.872 16.542 269.872 15.534C269.872 15.086 270.264 14.176 271.048 12.804C271.86 11.432 272.308 10.648 272.392 10.452C272.504 10.256 272.658 10.004 272.854 9.696C273.078 9.388 273.232 9.192 273.316 9.108C273.4 8.996 273.54 8.828 273.736 8.604C273.932 8.38 274.1 8.212 274.24 8.1C274.66 7.876 275.15 7.68 275.71 7.512C277.922 6.98 280.456 6.714 283.312 6.714H285.286L285.118 9.276ZM291.703 14.694V16.668L283.009 17.886L282.505 15.618C284.913 15.142 287.979 14.834 291.703 14.694ZM292.59 26.664C294.102 23.836 296.888 20.854 300.948 17.718C299.688 16.766 298.428 15.618 297.168 14.274C295.936 12.902 295.25 11.712 295.11 10.704L297.63 10.41C297.798 11.278 299.38 13.126 302.376 15.954C302.488 14.274 302.544 12.314 302.544 10.074L305.274 10.326L304.854 15.324C308.298 12.888 310.566 11.474 311.658 11.082L313.506 12.72C312.526 13.028 310.944 13.896 308.76 15.324C306.576 16.752 305.302 17.648 304.938 18.012C305.694 19.02 306.814 20.182 308.298 21.498C309.782 22.786 311.084 23.836 312.204 24.648L313.884 25.824L312.666 27.336C311.854 26.86 310.496 25.95 308.592 24.606C306.716 23.234 305.288 22.03 304.308 20.994C303.916 24.102 303.524 26.342 303.132 27.714L300.57 28.05C301.242 26.706 301.774 23.962 302.166 19.818C301.55 20.014 300.556 20.784 299.184 22.128C297.812 23.444 296.594 24.732 295.53 25.992L293.892 27.84L292.59 26.664ZM325.073 17.214C326.613 17.158 327.383 17.788 327.383 19.104C327.383 20.84 326.445 22.562 324.569 24.27C322.721 25.95 320.859 26.79 318.983 26.79C317.219 26.79 316.337 25.6 316.337 23.22C316.337 21.344 316.799 19.02 317.723 16.248C318.675 13.448 319.459 11.474 320.075 10.326L321.965 10.956C321.237 13.084 320.495 15.688 319.739 18.768L320.285 18.516C322.161 17.648 323.757 17.214 325.073 17.214ZM324.401 21.54C324.569 21.148 324.653 20.784 324.653 20.448C324.569 19.692 323.911 19.314 322.679 19.314C322.091 19.314 320.999 19.566 319.403 20.07C319.179 20.91 319.067 21.666 319.067 22.338C319.067 22.982 319.221 23.5 319.529 23.892C319.865 24.284 320.299 24.48 320.831 24.48C321.391 24.48 322.049 24.2 322.805 23.64C323.561 23.052 324.093 22.352 324.401 21.54ZM331.415 21.036L330.155 26.58L327.761 26.202C328.321 22.814 329.021 19.664 329.861 16.752C330.729 13.84 331.555 11.754 332.339 10.494L334.397 10.746C333.389 13.35 332.395 16.78 331.415 21.036ZM337.05 23.304L339.15 22.254C339.15 22.758 339.332 23.192 339.696 23.556C340.088 23.92 340.536 24.102 341.04 24.102C343.42 24.102 346.136 20.966 349.188 14.694C349.356 14.33 349.552 13.924 349.776 13.476C350 13 350.168 12.65 350.28 12.426C350.392 12.174 350.518 11.894 350.658 11.586C350.826 11.278 350.952 11.054 351.036 10.914C351.148 10.746 351.26 10.592 351.372 10.452C351.624 10.2 351.904 10.074 352.212 10.074C352.548 10.074 352.842 10.228 353.094 10.536C353.346 10.844 353.472 11.208 353.472 11.628C353.472 12.02 352.94 13.756 351.876 16.836C350.84 19.888 350.322 21.736 350.322 22.38C350.322 23.024 350.448 23.5 350.7 23.808C350.98 24.116 351.246 24.27 351.498 24.27C351.778 24.27 351.988 24.256 352.128 24.228C352.268 24.2 352.408 24.144 352.548 24.06C352.688 23.976 352.8 23.906 352.884 23.85C352.996 23.794 353.122 23.696 353.262 23.556L353.556 23.22C353.64 23.164 353.752 23.052 353.892 22.884C354.06 22.688 354.172 22.562 354.228 22.506L355.11 23.22C354.634 24.396 353.878 25.39 352.842 26.202C351.834 27.014 350.91 27.42 350.07 27.42C349.258 27.42 348.614 27.14 348.138 26.58C347.662 25.992 347.424 25.236 347.424 24.312C347.424 23.388 347.578 22.198 347.886 20.742C346.598 22.758 345.184 24.298 343.644 25.362C342.104 26.398 340.858 26.916 339.906 26.916C338.954 26.916 338.24 26.566 337.764 25.866C337.288 25.166 337.05 24.312 337.05 23.304ZM377.462 25.488L377.504 26.496C377.224 26.664 375.95 27.168 373.682 28.008C372.786 33.356 371.47 37.22 369.734 39.6C367.998 41.98 365.87 43.17 363.35 43.17C362.174 43.17 361.236 42.792 360.536 42.036C359.836 41.28 359.486 40.3 359.486 39.096C359.486 36.688 360.592 34.434 362.804 32.334C365.016 30.262 367.97 28.624 371.666 27.42C372.086 25.544 372.842 22.898 373.934 19.482C372.058 22.338 370.35 24.27 368.81 25.278C367.298 26.286 365.926 26.79 364.694 26.79C363.462 26.79 362.524 26.454 361.88 25.782C361.264 25.11 360.956 24.214 360.956 23.094C360.956 21.246 361.726 19.37 363.266 17.466C364.806 15.534 366.738 13.966 369.062 12.762C371.414 11.53 373.682 10.914 375.866 10.914L376.202 12.384C373.094 12.72 370.42 13.812 368.18 15.66C365.968 17.508 364.862 19.286 364.862 20.994C364.862 21.722 365.086 22.324 365.534 22.8C365.982 23.276 366.528 23.514 367.172 23.514C368.124 23.514 369.566 22.506 371.498 20.49C373.43 18.474 374.788 16.752 375.572 15.324L377.126 16.206C375.586 20.322 374.522 23.794 373.934 26.622L377.462 25.488ZM371.414 28.68C368.978 29.8 366.962 31.144 365.366 32.712C363.77 34.28 362.972 35.708 362.972 36.996C362.972 37.668 363.168 38.214 363.56 38.634C363.952 39.054 364.442 39.264 365.03 39.264C366.206 39.264 367.368 38.438 368.516 36.786C369.664 35.134 370.63 32.432 371.414 28.68ZM387.909 17.214C389.449 17.158 390.219 17.788 390.219 19.104C390.219 20.84 389.281 22.562 387.405 24.27C385.557 25.95 383.695 26.79 381.819 26.79C380.055 26.79 379.173 25.6 379.173 23.22C379.173 21.344 379.635 19.02 380.559 16.248C381.511 13.448 382.295 11.474 382.911 10.326L384.801 10.956C384.073 13.084 383.331 15.688 382.575 18.768L383.121 18.516C384.997 17.648 386.593 17.214 387.909 17.214ZM387.237 21.54C387.405 21.148 387.489 20.784 387.489 20.448C387.405 19.692 386.747 19.314 385.515 19.314C384.927 19.314 383.835 19.566 382.239 20.07C382.015 20.91 381.903 21.666 381.903 22.338C381.903 22.982 382.057 23.5 382.365 23.892C382.701 24.284 383.135 24.48 383.667 24.48C384.227 24.48 384.885 24.2 385.641 23.64C386.397 23.052 386.929 22.352 387.237 21.54ZM394.251 21.036L392.991 26.58L390.597 26.202C391.157 22.814 391.857 19.664 392.697 16.752C393.565 13.84 394.391 11.754 395.175 10.494L397.233 10.746C396.225 13.35 395.231 16.78 394.251 21.036ZM414.922 10.662L416.56 11.04C416.532 11.236 416.126 12.09 415.342 13.602C414.586 15.086 413.774 17.046 412.906 19.482C412.038 21.89 411.478 24.326 411.226 26.79L408.538 26.58C408.538 25.04 409.028 23.052 410.008 20.616C409.756 20.588 409.238 20.574 408.454 20.574C407.698 20.574 406.298 20.756 404.254 21.12C402.826 24.312 402.112 27.042 402.112 29.31L399.298 28.932C399.298 26.944 400.04 24.494 401.524 21.582C400.096 21.806 398.668 22.142 397.24 22.59L396.82 20.952C396.82 20.868 397.562 20.63 399.046 20.238C400.558 19.846 401.678 19.594 402.406 19.482C404.646 14.33 406.172 11.348 406.984 10.536L408.79 11.25C408.65 11.53 408.328 12.16 407.824 13.14C406.564 15.576 405.71 17.48 405.262 18.852C407.698 18.6 409.154 18.474 409.63 18.474C410.134 18.474 410.554 18.488 410.89 18.516C412.85 14.008 414.194 11.39 414.922 10.662ZM447.505 7.134C447.421 7.61 446.847 8.828 445.783 10.788C442.423 16.836 440.645 21.988 440.449 26.244L437.761 26.664C437.593 26.216 437.509 25.474 437.509 24.438C437.509 21.946 439.133 17.396 442.381 10.788C441.317 11.208 440.449 11.418 439.777 11.418C439.105 11.418 438.475 11.306 437.887 11.082L438.811 8.94C439.147 9.024 439.483 9.066 439.819 9.066C440.715 9.066 441.625 8.786 442.549 8.226C443.473 7.666 444.187 7.036 444.691 6.336C445.195 5.636 445.629 5.286 445.993 5.286C446.357 5.286 446.707 5.412 447.043 5.664C447.407 5.916 447.589 6.196 447.589 6.504C447.589 6.812 447.561 7.022 447.505 7.134ZM465.135 9.276C464.771 9.248 463.917 9.234 462.573 9.234C461.257 9.234 460.137 9.29 459.213 9.402C458.317 9.514 457.183 9.752 455.811 10.116C454.187 12.496 453.193 14.176 452.829 15.156C453.585 15.072 454.257 15.03 454.845 15.03C456.749 15.03 458.373 15.492 459.717 16.416C461.061 17.34 461.733 18.488 461.733 19.86C461.733 21.792 460.725 23.444 458.709 24.816C456.693 26.188 454.383 26.874 451.779 26.874C449.203 26.874 447.397 26.202 446.361 24.858L448.125 23.262C448.461 23.654 449.035 24.004 449.847 24.312C450.659 24.62 451.401 24.774 452.073 24.774C453.641 24.774 455.013 24.326 456.189 23.43C457.365 22.534 457.953 21.442 457.953 20.154C457.953 19.258 457.435 18.516 456.399 17.928C455.363 17.34 454.019 17.046 452.367 17.046C450.715 17.046 449.889 16.542 449.889 15.534C449.889 15.086 450.281 14.176 451.065 12.804C451.877 11.432 452.325 10.648 452.409 10.452C452.521 10.256 452.675 10.004 452.871 9.696C453.095 9.388 453.249 9.192 453.333 9.108C453.417 8.996 453.557 8.828 453.753 8.604C453.949 8.38 454.117 8.212 454.257 8.1C454.677 7.876 455.167 7.68 455.727 7.512C457.939 6.98 460.473 6.714 463.329 6.714H465.303L465.135 9.276ZM471.72 14.694V16.668L463.026 17.886L462.522 15.618C464.93 15.142 467.996 14.834 471.72 14.694ZM489.912 22.086L490.794 22.8C490.318 23.976 489.562 24.97 488.526 25.782C487.518 26.594 486.594 27 485.754 27C484.942 27 484.298 26.72 483.822 26.16C483.346 25.572 483.108 24.816 483.108 23.892C483.108 22.968 483.262 21.778 483.57 20.322C482.254 22.394 480.84 24.018 479.328 25.194C477.816 26.37 476.542 26.958 475.506 26.958C473.938 26.958 473.154 26.02 473.154 24.144C473.154 22.268 473.798 19.748 475.086 16.584C476.402 13.392 477.34 11.572 477.9 11.124L479.916 12.006C478.768 13.854 477.9 15.674 477.312 17.466C476.724 19.258 476.43 20.462 476.43 21.078C476.43 21.666 476.612 22.142 476.976 22.506C477.368 22.87 477.816 23.052 478.32 23.052C479.44 23.052 480.826 22.03 482.478 19.986C484.158 17.914 485.866 14.834 487.602 10.746L489.744 11.712C489.688 11.936 489.044 13.56 487.812 16.584C486.608 19.608 486.006 21.428 486.006 22.044C486.006 22.632 486.132 23.08 486.384 23.388C486.664 23.696 486.93 23.85 487.182 23.85C487.462 23.85 487.672 23.836 487.812 23.808C487.952 23.78 488.092 23.724 488.232 23.64C488.372 23.556 488.484 23.486 488.568 23.43C488.68 23.374 488.806 23.276 488.946 23.136L489.24 22.8C489.324 22.744 489.436 22.632 489.576 22.464C489.744 22.268 489.856 22.142 489.912 22.086ZM514.272 14.064C514.608 14.484 514.874 15.086 515.07 15.87C515.266 16.626 515.364 17.256 515.364 17.76C515.364 20.224 514.594 22.352 513.054 24.144C511.514 25.908 509.652 26.79 507.468 26.79C505.844 26.79 504.57 26.328 503.646 25.404C502.75 24.452 502.302 23.15 502.302 21.498C502.302 20.966 502.33 20.56 502.386 20.28C501.882 20.336 500.79 20.49 499.11 20.742C497.962 22.786 497.388 24.844 497.388 26.916L494.868 26.706C494.868 25.138 495.372 23.304 496.38 21.204C495.596 21.26 494.448 21.526 492.936 22.002L492.516 20.364C492.516 20.252 493.118 20.042 494.322 19.734C495.554 19.426 496.534 19.216 497.262 19.104C499.502 13.952 501.028 10.97 501.84 10.158L503.646 10.872C503.366 11.488 502.89 12.524 502.218 13.98C501.546 15.408 500.846 16.906 500.118 18.474L502.932 18.18C503.688 16.192 504.948 14.526 506.712 13.182C508.476 11.838 510.366 11.166 512.382 11.166C512.858 11.166 513.194 11.18 513.39 11.208L513.516 12.594C511.276 12.594 509.414 13.238 507.93 14.526C506.446 15.814 505.704 17.466 505.704 19.482C505.704 20.686 505.998 21.666 506.586 22.422C507.174 23.15 507.986 23.514 509.022 23.514C510.058 23.514 510.954 23.052 511.71 22.128C512.494 21.204 512.886 20.084 512.886 18.768C512.886 18.152 512.774 17.424 512.55 16.584C512.326 15.716 512.172 15.1 512.088 14.736L514.272 14.064ZM518.38 23.304L520.48 22.254C520.48 22.758 520.662 23.192 521.026 23.556C521.418 23.92 521.866 24.102 522.37 24.102C524.75 24.102 527.466 20.966 530.518 14.694C530.686 14.33 530.882 13.924 531.106 13.476C531.33 13 531.498 12.65 531.61 12.426C531.722 12.174 531.848 11.894 531.988 11.586C532.156 11.278 532.282 11.054 532.366 10.914C532.478 10.746 532.59 10.592 532.702 10.452C532.954 10.2 533.234 10.074 533.542 10.074C533.878 10.074 534.172 10.228 534.424 10.536C534.676 10.844 534.802 11.208 534.802 11.628C534.802 12.02 534.27 13.756 533.206 16.836C532.17 19.888 531.652 21.736 531.652 22.38C531.652 23.024 531.778 23.5 532.03 23.808C532.31 24.116 532.576 24.27 532.828 24.27C533.108 24.27 533.318 24.256 533.458 24.228C533.598 24.2 533.738 24.144 533.878 24.06C534.018 23.976 534.13 23.906 534.214 23.85C534.326 23.794 534.452 23.696 534.592 23.556L534.886 23.22C534.97 23.164 535.082 23.052 535.222 22.884C535.39 22.688 535.502 22.562 535.558 22.506L536.44 23.22C535.964 24.396 535.208 25.39 534.172 26.202C533.164 27.014 532.24 27.42 531.4 27.42C530.588 27.42 529.944 27.14 529.468 26.58C528.992 25.992 528.754 25.236 528.754 24.312C528.754 23.388 528.908 22.198 529.216 20.742C527.928 22.758 526.514 24.298 524.974 25.362C523.434 26.398 522.188 26.916 521.236 26.916C520.284 26.916 519.57 26.566 519.094 25.866C518.618 25.166 518.38 24.312 518.38 23.304ZM548.922 17.424C550.462 17.368 551.232 17.998 551.232 19.314C551.232 21.05 550.294 22.772 548.418 24.48C546.57 26.16 544.708 27 542.832 27C541.068 27 540.186 25.81 540.186 23.43C540.186 21.554 540.648 19.23 541.572 16.458C542.524 13.658 543.308 11.684 543.924 10.536L545.814 11.166C545.086 13.294 544.344 15.898 543.588 18.978C545.828 17.942 547.606 17.424 548.922 17.424ZM548.25 21.75C548.418 21.386 548.502 21.022 548.502 20.658C548.418 19.902 547.76 19.524 546.528 19.524C545.94 19.524 544.848 19.776 543.252 20.28C543.028 21.12 542.916 21.876 542.916 22.548C542.916 23.192 543.07 23.71 543.378 24.102C543.714 24.494 544.148 24.69 544.68 24.69C545.24 24.69 545.898 24.41 546.654 23.85C547.41 23.262 547.942 22.562 548.25 21.75ZM590.331 22.758L591.297 23.472C590.905 24.312 590.177 25.11 589.113 25.866C588.077 26.622 587.125 27 586.257 27C584.605 27 583.779 26.132 583.779 24.396C583.779 23.584 583.989 22.618 584.409 21.498L582.855 23.094C581.343 24.634 580.027 25.67 578.907 26.202C577.815 26.734 576.737 27 575.673 27C574.609 27 573.797 26.706 573.237 26.118C572.705 25.502 572.439 24.662 572.439 23.598C572.439 21.638 573.195 19.706 574.707 17.802C576.219 15.87 578.151 14.302 580.503 13.098C582.855 11.894 585.207 11.278 587.559 11.25L587.643 12.636L585.879 13.014C583.331 13.574 581.077 14.694 579.117 16.374C577.185 18.054 576.219 19.734 576.219 21.414C576.219 23.066 576.891 23.892 578.235 23.892C579.495 23.892 581.049 23.01 582.897 21.246C584.745 19.482 586.285 17.41 587.517 15.03L589.281 16.08C587.545 19.58 586.677 21.806 586.677 22.758C586.677 23.15 586.803 23.486 587.055 23.766C587.335 24.018 587.601 24.144 587.853 24.144C588.133 24.144 588.315 24.13 588.399 24.102C588.483 24.074 588.567 24.046 588.651 24.018C588.735 23.962 588.833 23.892 588.945 23.808C589.085 23.724 589.197 23.64 589.281 23.556C589.393 23.472 589.561 23.346 589.785 23.178C590.009 23.01 590.191 22.87 590.331 22.758ZM609.955 22.086L610.837 22.8C610.361 23.976 609.605 24.97 608.569 25.782C607.561 26.594 606.637 27 605.797 27C604.985 27 604.341 26.72 603.865 26.16C603.389 25.572 603.151 24.816 603.151 23.892C603.151 22.968 603.305 21.778 603.613 20.322C602.297 22.394 600.883 24.018 599.371 25.194C597.859 26.37 596.585 26.958 595.549 26.958C593.981 26.958 593.197 26.02 593.197 24.144C593.197 22.268 593.841 19.748 595.129 16.584C596.445 13.392 597.383 11.572 597.943 11.124L599.959 12.006C598.811 13.854 597.943 15.674 597.355 17.466C596.767 19.258 596.473 20.462 596.473 21.078C596.473 21.666 596.655 22.142 597.019 22.506C597.411 22.87 597.859 23.052 598.363 23.052C599.483 23.052 600.869 22.03 602.521 19.986C604.201 17.914 605.909 14.834 607.645 10.746L609.787 11.712C609.731 11.936 609.087 13.56 607.855 16.584C606.651 19.608 606.049 21.428 606.049 22.044C606.049 22.632 606.175 23.08 606.427 23.388C606.707 23.696 606.973 23.85 607.225 23.85C607.505 23.85 607.715 23.836 607.855 23.808C607.995 23.78 608.135 23.724 608.275 23.64C608.415 23.556 608.527 23.486 608.611 23.43C608.723 23.374 608.849 23.276 608.989 23.136L609.325 22.8C609.381 22.744 609.479 22.632 609.619 22.464C609.787 22.268 609.899 22.142 609.955 22.086ZM607.519 6.084L608.779 6.756C608.219 7.624 607.491 8.394 606.595 9.066C605.727 9.738 604.859 10.074 603.991 10.074C603.123 10.074 602.213 9.752 601.261 9.108C600.309 8.436 599.539 7.764 598.951 7.092L600.295 5.958C601.751 7.386 602.941 8.1 603.865 8.1C605.293 8.1 606.511 7.428 607.519 6.084ZM622.723 17.214C624.263 17.158 625.033 17.788 625.033 19.104C625.033 20.84 624.095 22.562 622.219 24.27C620.371 25.95 618.509 26.79 616.633 26.79C614.869 26.79 613.987 25.6 613.987 23.22C613.987 21.344 614.449 19.02 615.373 16.248C616.325 13.448 617.109 11.474 617.725 10.326L619.615 10.956C618.887 13.084 618.145 15.688 617.389 18.768L617.935 18.516C619.811 17.648 621.407 17.214 622.723 17.214ZM622.051 21.54C622.219 21.148 622.303 20.784 622.303 20.448C622.219 19.692 621.561 19.314 620.329 19.314C619.741 19.314 618.649 19.566 617.053 20.07C616.829 20.91 616.717 21.666 616.717 22.338C616.717 22.982 616.871 23.5 617.179 23.892C617.515 24.284 617.949 24.48 618.481 24.48C619.041 24.48 619.699 24.2 620.455 23.64C621.211 23.052 621.743 22.352 622.051 21.54ZM629.065 21.036L627.805 26.58L625.411 26.202C625.971 22.814 626.671 19.664 627.511 16.752C628.379 13.84 629.205 11.754 629.989 10.494L632.047 10.746C631.039 13.35 630.045 16.78 629.065 21.036ZM649.737 10.662L651.375 11.04C651.347 11.236 650.941 12.09 650.157 13.602C649.401 15.086 648.589 17.046 647.721 19.482C646.853 21.89 646.293 24.326 646.041 26.79L643.353 26.58C643.353 25.04 643.843 23.052 644.823 20.616C644.571 20.588 644.053 20.574 643.269 20.574C642.513 20.574 641.113 20.756 639.069 21.12C637.641 24.312 636.927 27.042 636.927 29.31L634.113 28.932C634.113 26.944 634.855 24.494 636.339 21.582C634.911 21.806 633.483 22.142 632.055 22.59L631.635 20.952C631.635 20.868 632.377 20.63 633.861 20.238C635.373 19.846 636.493 19.594 637.221 19.482C639.461 14.33 640.987 11.348 641.799 10.536L643.605 11.25C643.465 11.53 643.143 12.16 642.639 13.14C641.379 15.576 640.525 17.48 640.077 18.852C642.513 18.6 643.969 18.474 644.445 18.474C644.949 18.474 645.369 18.488 645.705 18.516C647.665 14.008 649.009 11.39 649.737 10.662ZM671.296 22.758L672.262 23.472C671.87 24.312 671.142 25.11 670.078 25.866C669.042 26.622 668.09 27 667.222 27C665.57 27 664.744 26.132 664.744 24.396C664.744 23.584 664.954 22.618 665.374 21.498L663.82 23.094C662.308 24.634 660.992 25.67 659.872 26.202C658.78 26.734 657.702 27 656.638 27C655.574 27 654.762 26.706 654.202 26.118C653.67 25.502 653.404 24.662 653.404 23.598C653.404 21.638 654.16 19.706 655.672 17.802C657.184 15.87 659.116 14.302 661.468 13.098C663.82 11.894 666.172 11.278 668.524 11.25L668.608 12.636L666.844 13.014C664.296 13.574 662.042 14.694 660.082 16.374C658.15 18.054 657.184 19.734 657.184 21.414C657.184 23.066 657.856 23.892 659.2 23.892C660.46 23.892 662.014 23.01 663.862 21.246C665.71 19.482 667.25 17.41 668.482 15.03L670.246 16.08C668.51 19.58 667.642 21.806 667.642 22.758C667.642 23.15 667.768 23.486 668.02 23.766C668.3 24.018 668.566 24.144 668.818 24.144C669.098 24.144 669.28 24.13 669.364 24.102C669.448 24.074 669.532 24.046 669.616 24.018C669.7 23.962 669.798 23.892 669.91 23.808C670.05 23.724 670.162 23.64 670.246 23.556C670.358 23.472 670.526 23.346 670.75 23.178C670.974 23.01 671.156 22.87 671.296 22.758ZM707.32 22.17L708.496 23.052C708.216 23.64 707.614 24.312 706.69 25.068C705.794 25.824 704.744 26.202 703.54 26.202C701.916 26.202 701.104 25.376 701.104 23.724C701.104 22.772 701.3 21.722 701.692 20.574C702.112 19.398 702.518 18.334 702.91 17.382C703.302 16.402 703.54 15.786 703.624 15.534C702.952 16.486 701.86 17.48 700.348 18.516C698.864 19.524 697.506 20.028 696.274 20.028C694.454 20.028 693.544 18.992 693.544 16.92C693.544 15.576 693.908 14.092 694.636 12.468C695.392 10.844 696.176 9.71 696.988 9.066L698.836 9.738C697.52 12.174 696.862 13.98 696.862 15.156C696.862 16.332 697.408 16.92 698.5 16.92C699.76 16.92 701.202 16.22 702.826 14.82C704.45 13.42 705.598 11.67 706.27 9.57L708.454 10.788C705.43 16.136 703.918 19.846 703.918 21.918C703.918 22.87 704.282 23.346 705.01 23.346C705.766 23.346 706.536 22.954 707.32 22.17ZM721.434 22.044L722.4 22.8C721.532 24.004 720.342 25.012 718.83 25.824C717.318 26.608 715.848 27 714.42 27C712.992 27 711.844 26.58 710.976 25.74C710.108 24.9 709.674 23.794 709.674 22.422C709.674 19.846 711.032 17.312 713.748 14.82C716.492 12.328 719.264 11.082 722.064 11.082C723.912 11.082 724.836 11.81 724.836 13.266C724.836 14.778 723.856 16.304 721.896 17.844C719.964 19.384 717.234 20.784 713.706 22.044C713.958 22.688 714.35 23.192 714.882 23.556C715.414 23.92 715.96 24.102 716.52 24.102C717.724 24.102 719.362 23.416 721.434 22.044ZM713.496 20.784C715.764 20 717.71 19.02 719.334 17.844C720.958 16.668 721.77 15.59 721.77 14.61C721.77 14.246 721.63 13.924 721.35 13.644C721.07 13.364 720.748 13.224 720.384 13.224C719.068 13.224 717.64 14.05 716.1 15.702C714.588 17.326 713.72 19.02 713.496 20.784ZM743.625 22.086L744.507 22.8C744.031 23.976 743.275 24.97 742.239 25.782C741.231 26.594 740.307 27 739.467 27C738.655 27 738.011 26.72 737.535 26.16C737.059 25.572 736.821 24.816 736.821 23.892C736.821 22.968 736.975 21.778 737.283 20.322C735.967 22.394 734.553 24.018 733.041 25.194C731.529 26.37 730.255 26.958 729.219 26.958C727.651 26.958 726.867 26.02 726.867 24.144C726.867 22.268 727.511 19.748 728.799 16.584C730.115 13.392 731.053 11.572 731.613 11.124L733.629 12.006C732.481 13.854 731.613 15.674 731.025 17.466C730.437 19.258 730.143 20.462 730.143 21.078C730.143 21.666 730.325 22.142 730.689 22.506C731.081 22.87 731.529 23.052 732.033 23.052C733.153 23.052 734.539 22.03 736.191 19.986C737.871 17.914 739.579 14.834 741.315 10.746L743.457 11.712C743.401 11.936 742.757 13.56 741.525 16.584C740.321 19.608 739.719 21.428 739.719 22.044C739.719 22.632 739.845 23.08 740.097 23.388C740.377 23.696 740.643 23.85 740.895 23.85C741.175 23.85 741.385 23.836 741.525 23.808C741.665 23.78 741.805 23.724 741.945 23.64C742.085 23.556 742.197 23.486 742.281 23.43C742.393 23.374 742.519 23.276 742.659 23.136L742.995 22.8C743.051 22.744 743.149 22.632 743.289 22.464C743.457 22.268 743.569 22.142 743.625 22.086ZM741.189 6.084L742.449 6.756C741.889 7.624 741.161 8.394 740.265 9.066C739.397 9.738 738.529 10.074 737.661 10.074C736.793 10.074 735.883 9.752 734.931 9.108C733.979 8.436 733.209 7.764 732.621 7.092L733.965 5.958C735.421 7.386 736.611 8.1 737.535 8.1C738.963 8.1 740.181 7.428 741.189 6.084ZM765.003 22.086L765.885 22.8C765.409 23.976 764.653 24.97 763.617 25.782C762.609 26.594 761.685 27 760.845 27C760.033 27 759.389 26.72 758.913 26.16C758.437 25.572 758.199 24.816 758.199 23.892C758.199 22.968 758.353 21.778 758.661 20.322C757.345 22.394 755.931 24.018 754.419 25.194C752.907 26.37 751.633 26.958 750.597 26.958C749.029 26.958 748.245 26.02 748.245 24.144C748.245 22.268 748.889 19.748 750.177 16.584C751.493 13.392 752.431 11.572 752.991 11.124L755.007 12.006C753.859 13.854 752.991 15.674 752.403 17.466C751.815 19.258 751.521 20.462 751.521 21.078C751.521 21.666 751.703 22.142 752.067 22.506C752.459 22.87 752.907 23.052 753.411 23.052C754.531 23.052 755.917 22.03 757.569 19.986C759.249 17.914 760.957 14.834 762.693 10.746L764.835 11.712C764.779 11.936 764.135 13.56 762.903 16.584C761.699 19.608 761.097 21.428 761.097 22.044C761.097 22.632 761.223 23.08 761.475 23.388C761.755 23.696 762.021 23.85 762.273 23.85C762.553 23.85 762.763 23.836 762.903 23.808C763.043 23.78 763.183 23.724 763.323 23.64C763.463 23.556 763.575 23.486 763.659 23.43C763.771 23.374 763.897 23.276 764.037 23.136L764.331 22.8C764.415 22.744 764.527 22.632 764.667 22.464C764.835 22.268 764.947 22.142 765.003 22.086ZM785.457 10.662L787.095 11.04C787.067 11.236 786.661 12.09 785.877 13.602C785.121 15.086 784.309 17.046 783.441 19.482C782.573 21.89 782.013 24.326 781.761 26.79L779.073 26.58C779.073 25.04 779.563 23.052 780.543 20.616C780.291 20.588 779.773 20.574 778.989 20.574C778.233 20.574 776.833 20.756 774.789 21.12C773.361 24.312 772.647 27.042 772.647 29.31L769.833 28.932C769.833 26.944 770.575 24.494 772.059 21.582C770.631 21.806 769.203 22.142 767.775 22.59L767.355 20.952C767.355 20.868 768.097 20.63 769.581 20.238C771.093 19.846 772.213 19.594 772.941 19.482C775.181 14.33 776.707 11.348 777.519 10.536L779.325 11.25C779.185 11.53 778.863 12.16 778.359 13.14C777.099 15.576 776.245 17.48 775.797 18.852C778.233 18.6 779.689 18.474 780.165 18.474C780.669 18.474 781.089 18.488 781.425 18.516C783.385 14.008 784.729 11.39 785.457 10.662ZM11.6292 73.036L12.6372 73.876C11.9652 75.416 10.8872 76.648 9.40323 77.572C7.91923 78.496 6.47723 78.958 5.07723 78.958C3.70523 78.958 2.55723 78.524 1.63323 77.656C0.737227 76.788 0.289227 75.598 0.289227 74.086C0.289227 72.574 0.947227 70.936 2.26323 69.172C3.57923 67.408 5.27323 65.952 7.34523 64.804C9.44523 63.656 11.5032 63.082 13.5192 63.082C13.7992 63.082 14.2192 63.11 14.7792 63.166L14.6532 64.804C11.5732 64.944 9.01123 65.882 6.96723 67.618C4.95123 69.354 3.94323 71.202 3.94323 73.162C3.94323 73.974 4.19523 74.632 4.69923 75.136C5.20323 75.64 5.86123 75.892 6.67323 75.892C7.96123 75.892 9.61323 74.94 11.6292 73.036ZM32.9898 74.758L33.9558 75.472C33.5638 76.312 32.8358 77.11 31.7718 77.866C30.7358 78.622 29.7838 79 28.9158 79C27.2638 79 26.4378 78.132 26.4378 76.396C26.4378 75.584 26.6478 74.618 27.0678 73.498L25.5138 75.094C24.0018 76.634 22.6858 77.67 21.5658 78.202C20.4738 78.734 19.3958 79 18.3318 79C17.2678 79 16.4558 78.706 15.8958 78.118C15.3638 77.502 15.0978 76.662 15.0978 75.598C15.0978 73.638 15.8538 71.706 17.3658 69.802C18.8778 67.87 20.8098 66.302 23.1618 65.098C25.5138 63.894 27.8658 63.278 30.2178 63.25L30.3018 64.636L28.5378 65.014C25.9898 65.574 23.7358 66.694 21.7758 68.374C19.8438 70.054 18.8778 71.734 18.8778 73.414C18.8778 75.066 19.5498 75.892 20.8938 75.892C22.1538 75.892 23.7078 75.01 25.5558 73.246C27.4038 71.482 28.9438 69.41 30.1758 67.03L31.9398 68.08C30.2038 71.58 29.3358 73.806 29.3358 74.758C29.3358 75.15 29.4618 75.486 29.7138 75.766C29.9938 76.018 30.2598 76.144 30.5118 76.144C30.7918 76.144 30.9738 76.13 31.0578 76.102C31.1418 76.074 31.2258 76.046 31.3098 76.018C31.3938 75.962 31.4918 75.892 31.6038 75.808C31.7438 75.724 31.8558 75.64 31.9398 75.556C32.0518 75.472 32.2198 75.346 32.4438 75.178C32.6678 75.01 32.8498 74.87 32.9898 74.758ZM37.4107 75.304L39.5107 74.254C39.5107 74.758 39.6927 75.192 40.0567 75.556C40.4487 75.92 40.8967 76.102 41.4007 76.102C43.7807 76.102 46.4967 72.966 49.5487 66.694C49.7167 66.33 49.9127 65.924 50.1367 65.476C50.3607 65 50.5287 64.65 50.6407 64.426C50.7527 64.174 50.8787 63.894 51.0187 63.586C51.1867 63.278 51.3127 63.054 51.3967 62.914C51.5087 62.746 51.6207 62.592 51.7327 62.452C51.9847 62.2 52.2647 62.074 52.5727 62.074C52.9087 62.074 53.2027 62.228 53.4547 62.536C53.7067 62.844 53.8327 63.208 53.8327 63.628C53.8327 64.02 53.3007 65.756 52.2367 68.836C51.2007 71.888 50.6827 73.736 50.6827 74.38C50.6827 75.024 50.8087 75.5 51.0607 75.808C51.3407 76.116 51.6067 76.27 51.8587 76.27C52.1387 76.27 52.3487 76.256 52.4887 76.228C52.6287 76.2 52.7687 76.144 52.9087 76.06C53.0487 75.976 53.1607 75.906 53.2447 75.85C53.3567 75.794 53.4827 75.696 53.6227 75.556L53.9167 75.22C54.0007 75.164 54.1127 75.052 54.2527 74.884C54.4207 74.688 54.5327 74.562 54.5887 74.506L55.4707 75.22C54.9947 76.396 54.2387 77.39 53.2027 78.202C52.1947 79.014 51.2707 79.42 50.4307 79.42C49.6187 79.42 48.9747 79.14 48.4987 78.58C48.0227 77.992 47.7847 77.236 47.7847 76.312C47.7847 75.388 47.9387 74.198 48.2467 72.742C46.9587 74.758 45.5447 76.298 44.0047 77.362C42.4647 78.398 41.2187 78.916 40.2667 78.916C39.3147 78.916 38.6007 78.566 38.1247 77.866C37.6487 77.166 37.4107 76.312 37.4107 75.304ZM88.1539 73.54L89.0359 74.38C87.4399 77.236 85.6059 78.664 83.5339 78.664C82.6939 78.664 82.0359 78.44 81.5599 77.992C81.1119 77.516 80.8879 76.9 80.8879 76.144C80.8879 75.36 81.3499 74.03 82.2739 72.154C83.1979 70.278 83.6879 68.85 83.7439 67.87C83.7719 67.422 83.6319 67.058 83.3239 66.778C83.0439 66.498 82.6519 66.358 82.1479 66.358C81.6439 66.358 81.1259 66.484 80.5939 66.736C80.0899 66.96 79.5859 67.338 79.0819 67.87C78.6059 68.402 78.1579 68.92 77.7379 69.424C77.3459 69.928 76.8979 70.642 76.3939 71.566C75.9179 72.49 75.5119 73.26 75.1759 73.876C74.5879 75.024 73.7479 76.746 72.6559 79.042L70.1359 78.16C70.1359 78.076 70.5979 76.494 71.5219 73.414C72.4459 70.334 72.9079 68.5 72.9079 67.912C72.9079 67.324 72.7679 66.904 72.4879 66.652C72.2079 66.372 71.8579 66.232 71.4379 66.232C70.1779 66.232 68.4279 67.8 66.1879 70.936C63.9759 74.072 62.5619 76.746 61.9459 78.958L59.5519 78.16C59.6919 76.676 60.3499 74.016 61.5259 70.18C62.7019 66.316 63.6959 63.684 64.5079 62.284L66.3979 62.956C65.5299 64.888 64.9279 66.526 64.5919 67.87C64.2559 69.186 63.9619 70.6 63.7099 72.112C66.1179 68.668 68.1339 66.26 69.7579 64.888C71.3819 63.488 72.8519 62.788 74.1679 62.788C75.5959 62.788 76.3099 63.502 76.3099 64.93C76.3099 65.49 76.0579 66.596 75.5539 68.248C75.0779 69.9 74.6999 71.202 74.4199 72.154C78.2839 65.938 81.7419 62.83 84.7939 62.83C85.5499 62.83 86.1519 63.068 86.5999 63.544C87.0479 63.992 87.2719 64.678 87.2719 65.602C87.2719 66.498 86.7399 67.996 85.6759 70.096C84.6399 72.196 84.1219 73.526 84.1219 74.086C84.1219 74.618 84.2339 75.01 84.4579 75.262C84.6819 75.514 84.9619 75.64 85.2979 75.64C86.0259 75.64 86.9779 74.94 88.1539 73.54ZM108.91 74.758L109.876 75.472C109.484 76.312 108.756 77.11 107.692 77.866C106.656 78.622 105.704 79 104.836 79C103.184 79 102.358 78.132 102.358 76.396C102.358 75.584 102.568 74.618 102.988 73.498L101.434 75.094C99.9218 76.634 98.6058 77.67 97.4858 78.202C96.3938 78.734 95.3158 79 94.2518 79C93.1878 79 92.3758 78.706 91.8158 78.118C91.2838 77.502 91.0178 76.662 91.0178 75.598C91.0178 73.638 91.7738 71.706 93.2858 69.802C94.7978 67.87 96.7298 66.302 99.0818 65.098C101.434 63.894 103.786 63.278 106.138 63.25L106.222 64.636L104.458 65.014C101.91 65.574 99.6558 66.694 97.6958 68.374C95.7638 70.054 94.7978 71.734 94.7978 73.414C94.7978 75.066 95.4698 75.892 96.8138 75.892C98.0738 75.892 99.6278 75.01 101.476 73.246C103.324 71.482 104.864 69.41 106.096 67.03L107.86 68.08C106.124 71.58 105.256 73.806 105.256 74.758C105.256 75.15 105.382 75.486 105.634 75.766C105.914 76.018 106.18 76.144 106.432 76.144C106.712 76.144 106.894 76.13 106.978 76.102C107.062 76.074 107.146 76.046 107.23 76.018C107.314 75.962 107.412 75.892 107.524 75.808C107.664 75.724 107.776 75.64 107.86 75.556C107.972 75.472 108.14 75.346 108.364 75.178C108.588 75.01 108.77 74.87 108.91 74.758ZM128.367 62.662L130.005 63.04C129.977 63.236 129.571 64.09 128.787 65.602C128.031 67.086 127.219 69.046 126.351 71.482C125.483 73.89 124.923 76.326 124.671 78.79L121.983 78.58C121.983 77.04 122.473 75.052 123.453 72.616C123.201 72.588 122.683 72.574 121.899 72.574C121.143 72.574 119.743 72.756 117.699 73.12C116.271 76.312 115.557 79.042 115.557 81.31L112.743 80.932C112.743 78.944 113.485 76.494 114.969 73.582C113.541 73.806 112.113 74.142 110.685 74.59L110.265 72.952C110.265 72.868 111.007 72.63 112.491 72.238C114.003 71.846 115.123 71.594 115.851 71.482C118.091 66.33 119.617 63.348 120.429 62.536L122.235 63.25C122.095 63.53 121.773 64.16 121.269 65.14C120.009 67.576 119.155 69.48 118.707 70.852C121.143 70.6 122.599 70.474 123.075 70.474C123.579 70.474 123.999 70.488 124.335 70.516C126.295 66.008 127.639 63.39 128.367 62.662ZM149.925 74.758L150.891 75.472C150.499 76.312 149.771 77.11 148.707 77.866C147.671 78.622 146.719 79 145.851 79C144.199 79 143.373 78.132 143.373 76.396C143.373 75.584 143.583 74.618 144.003 73.498L142.449 75.094C140.937 76.634 139.621 77.67 138.501 78.202C137.409 78.734 136.331 79 135.267 79C134.203 79 133.391 78.706 132.831 78.118C132.299 77.502 132.033 76.662 132.033 75.598C132.033 73.638 132.789 71.706 134.301 69.802C135.813 67.87 137.745 66.302 140.097 65.098C142.449 63.894 144.801 63.278 147.153 63.25L147.237 64.636L145.473 65.014C142.925 65.574 140.671 66.694 138.711 68.374C136.779 70.054 135.813 71.734 135.813 73.414C135.813 75.066 136.485 75.892 137.829 75.892C139.089 75.892 140.643 75.01 142.491 73.246C144.339 71.482 145.879 69.41 147.111 67.03L148.875 68.08C147.139 71.58 146.271 73.806 146.271 74.758C146.271 75.15 146.397 75.486 146.649 75.766C146.929 76.018 147.195 76.144 147.447 76.144C147.727 76.144 147.909 76.13 147.993 76.102C148.077 76.074 148.161 76.046 148.245 76.018C148.329 75.962 148.427 75.892 148.539 75.808C148.679 75.724 148.791 75.64 148.875 75.556C148.987 75.472 149.155 75.346 149.379 75.178C149.603 75.01 149.785 74.87 149.925 74.758ZM180.89 73.54L181.772 74.38C180.176 77.236 178.342 78.664 176.27 78.664C175.43 78.664 174.772 78.44 174.296 77.992C173.848 77.516 173.624 76.9 173.624 76.144C173.624 75.36 174.086 74.03 175.01 72.154C175.934 70.278 176.424 68.85 176.48 67.87C176.508 67.422 176.368 67.058 176.06 66.778C175.78 66.498 175.388 66.358 174.884 66.358C174.38 66.358 173.862 66.484 173.33 66.736C172.826 66.96 172.322 67.338 171.818 67.87C171.342 68.402 170.894 68.92 170.474 69.424C170.082 69.928 169.634 70.642 169.13 71.566C168.654 72.49 168.248 73.26 167.912 73.876C167.324 75.024 166.484 76.746 165.392 79.042L162.872 78.16C162.872 78.076 163.334 76.494 164.258 73.414C165.182 70.334 165.644 68.5 165.644 67.912C165.644 67.324 165.504 66.904 165.224 66.652C164.944 66.372 164.594 66.232 164.174 66.232C162.914 66.232 161.164 67.8 158.924 70.936C156.712 74.072 155.298 76.746 154.682 78.958L152.288 78.16C152.428 76.676 153.086 74.016 154.262 70.18C155.438 66.316 156.432 63.684 157.244 62.284L159.134 62.956C158.266 64.888 157.664 66.526 157.328 67.87C156.992 69.186 156.698 70.6 156.446 72.112C158.854 68.668 160.87 66.26 162.494 64.888C164.118 63.488 165.588 62.788 166.904 62.788C168.332 62.788 169.046 63.502 169.046 64.93C169.046 65.49 168.794 66.596 168.29 68.248C167.814 69.9 167.436 71.202 167.156 72.154C171.02 65.938 174.478 62.83 177.53 62.83C178.286 62.83 178.888 63.068 179.336 63.544C179.784 63.992 180.008 64.678 180.008 65.602C180.008 66.498 179.476 67.996 178.412 70.096C177.376 72.196 176.858 73.526 176.858 74.086C176.858 74.618 176.97 75.01 177.194 75.262C177.418 75.514 177.698 75.64 178.034 75.64C178.762 75.64 179.714 74.94 180.89 73.54ZM198.748 74.338L199.798 75.262C198.174 77.922 196.452 79.252 194.632 79.252C193.596 79.252 192.532 78.58 191.44 77.236C190.376 75.892 189.732 74.59 189.508 73.33C189.34 73.638 188.864 74.45 188.08 75.766C187.296 77.082 186.736 78.16 186.4 79L183.88 78.118C184.468 74.674 185.182 71.426 186.022 68.374C186.89 65.322 187.702 63.18 188.458 61.948L190.18 62.494C189.676 63.782 188.836 67.212 187.66 72.784C189.2 69.62 190.754 67.31 192.322 65.854C193.89 64.37 195.612 63.39 197.488 62.914V65.686C195.472 65.77 193.526 67.128 191.65 69.76C191.762 71.58 192.294 73.092 193.246 74.296C194.226 75.5 195.15 76.102 196.018 76.102C196.438 76.102 197.348 75.514 198.748 74.338ZM220.718 74.758L221.684 75.472C221.292 76.312 220.564 77.11 219.5 77.866C218.464 78.622 217.512 79 216.644 79C214.992 79 214.166 78.132 214.166 76.396C214.166 75.584 214.376 74.618 214.796 73.498L213.242 75.094C211.73 76.634 210.414 77.67 209.294 78.202C208.202 78.734 207.124 79 206.06 79C204.996 79 204.184 78.706 203.624 78.118C203.092 77.502 202.826 76.662 202.826 75.598C202.826 73.638 203.582 71.706 205.094 69.802C206.606 67.87 208.538 66.302 210.89 65.098C213.242 63.894 215.594 63.278 217.946 63.25L218.03 64.636L216.266 65.014C213.718 65.574 211.464 66.694 209.504 68.374C207.572 70.054 206.606 71.734 206.606 73.414C206.606 75.066 207.278 75.892 208.622 75.892C209.882 75.892 211.436 75.01 213.284 73.246C215.132 71.482 216.672 69.41 217.904 67.03L219.668 68.08C217.932 71.58 217.064 73.806 217.064 74.758C217.064 75.15 217.19 75.486 217.442 75.766C217.722 76.018 217.988 76.144 218.24 76.144C218.52 76.144 218.702 76.13 218.786 76.102C218.87 76.074 218.954 76.046 219.038 76.018C219.122 75.962 219.22 75.892 219.332 75.808C219.472 75.724 219.584 75.64 219.668 75.556C219.78 75.472 219.948 75.346 220.172 75.178C220.396 75.01 220.578 74.87 220.718 74.758ZM258.549 74.338L259.599 75.262C257.975 77.922 256.253 79.252 254.433 79.252C253.397 79.252 252.333 78.58 251.241 77.236C250.177 75.892 249.533 74.59 249.309 73.33C249.141 73.638 248.665 74.45 247.881 75.766C247.097 77.082 246.537 78.16 246.201 79L243.681 78.118C244.269 74.674 244.983 71.426 245.823 68.374C246.691 65.322 247.503 63.18 248.259 61.948L249.981 62.494C249.477 63.782 248.637 67.212 247.461 72.784C249.001 69.62 250.555 67.31 252.123 65.854C253.691 64.37 255.413 63.39 257.289 62.914V65.686C255.273 65.77 253.327 67.128 251.451 69.76C251.563 71.58 252.095 73.092 253.047 74.296C254.027 75.5 254.951 76.102 255.819 76.102C256.239 76.102 257.149 75.514 258.549 74.338ZM280.519 74.758L281.485 75.472C281.093 76.312 280.365 77.11 279.301 77.866C278.265 78.622 277.313 79 276.445 79C274.793 79 273.967 78.132 273.967 76.396C273.967 75.584 274.177 74.618 274.597 73.498L273.043 75.094C271.531 76.634 270.215 77.67 269.095 78.202C268.003 78.734 266.925 79 265.861 79C264.797 79 263.985 78.706 263.425 78.118C262.893 77.502 262.627 76.662 262.627 75.598C262.627 73.638 263.383 71.706 264.895 69.802C266.407 67.87 268.339 66.302 270.691 65.098C273.043 63.894 275.395 63.278 277.747 63.25L277.831 64.636L276.067 65.014C273.519 65.574 271.265 66.694 269.305 68.374C267.373 70.054 266.407 71.734 266.407 73.414C266.407 75.066 267.079 75.892 268.423 75.892C269.683 75.892 271.237 75.01 273.085 73.246C274.933 71.482 276.473 69.41 277.705 67.03L279.469 68.08C277.733 71.58 276.865 73.806 276.865 74.758C276.865 75.15 276.991 75.486 277.243 75.766C277.523 76.018 277.789 76.144 278.041 76.144C278.321 76.144 278.503 76.13 278.587 76.102C278.671 76.074 278.755 76.046 278.839 76.018C278.923 75.962 279.021 75.892 279.133 75.808C279.273 75.724 279.385 75.64 279.469 75.556C279.581 75.472 279.749 75.346 279.973 75.178C280.197 75.01 280.379 74.87 280.519 74.758ZM311.484 73.54L312.366 74.38C310.77 77.236 308.936 78.664 306.864 78.664C306.024 78.664 305.366 78.44 304.89 77.992C304.442 77.516 304.218 76.9 304.218 76.144C304.218 75.36 304.68 74.03 305.604 72.154C306.528 70.278 307.018 68.85 307.074 67.87C307.102 67.422 306.962 67.058 306.654 66.778C306.374 66.498 305.982 66.358 305.478 66.358C304.974 66.358 304.456 66.484 303.924 66.736C303.42 66.96 302.916 67.338 302.412 67.87C301.936 68.402 301.488 68.92 301.068 69.424C300.676 69.928 300.228 70.642 299.724 71.566C299.248 72.49 298.842 73.26 298.506 73.876C297.918 75.024 297.078 76.746 295.986 79.042L293.466 78.16C293.466 78.076 293.928 76.494 294.852 73.414C295.776 70.334 296.238 68.5 296.238 67.912C296.238 67.324 296.098 66.904 295.818 66.652C295.538 66.372 295.188 66.232 294.768 66.232C293.508 66.232 291.758 67.8 289.518 70.936C287.306 74.072 285.892 76.746 285.276 78.958L282.882 78.16C283.022 76.676 283.68 74.016 284.856 70.18C286.032 66.316 287.026 63.684 287.838 62.284L289.728 62.956C288.86 64.888 288.258 66.526 287.922 67.87C287.586 69.186 287.292 70.6 287.04 72.112C289.448 68.668 291.464 66.26 293.088 64.888C294.712 63.488 296.182 62.788 297.498 62.788C298.926 62.788 299.64 63.502 299.64 64.93C299.64 65.49 299.388 66.596 298.884 68.248C298.408 69.9 298.03 71.202 297.75 72.154C301.614 65.938 305.072 62.83 308.124 62.83C308.88 62.83 309.482 63.068 309.93 63.544C310.378 63.992 310.602 64.678 310.602 65.602C310.602 66.498 310.07 67.996 309.006 70.096C307.97 72.196 307.452 73.526 307.452 74.086C307.452 74.618 307.564 75.01 307.788 75.262C308.012 75.514 308.292 75.64 308.628 75.64C309.356 75.64 310.308 74.94 311.484 73.54ZM323.084 69.214C324.624 69.158 325.394 69.788 325.394 71.104C325.394 72.84 324.456 74.562 322.58 76.27C320.732 77.95 318.87 78.79 316.994 78.79C315.23 78.79 314.348 77.6 314.348 75.22C314.348 73.344 314.81 71.02 315.734 68.248C316.686 65.448 317.47 63.474 318.086 62.326L319.976 62.956C319.248 65.084 318.506 67.688 317.75 70.768L318.296 70.516C320.172 69.648 321.768 69.214 323.084 69.214ZM322.412 73.54C322.58 73.148 322.664 72.784 322.664 72.448C322.58 71.692 321.922 71.314 320.69 71.314C320.102 71.314 319.01 71.566 317.414 72.07C317.19 72.91 317.078 73.666 317.078 74.338C317.078 74.982 317.232 75.5 317.54 75.892C317.876 76.284 318.31 76.48 318.842 76.48C319.402 76.48 320.06 76.2 320.816 75.64C321.572 75.052 322.104 74.352 322.412 73.54ZM329.426 73.036L328.166 78.58L325.772 78.202C326.332 74.814 327.032 71.664 327.872 68.752C328.74 65.84 329.566 63.754 330.35 62.494L332.408 62.746C331.4 65.35 330.406 68.78 329.426 73.036ZM354.381 74.002C354.381 74.562 354.507 74.996 354.759 75.304C355.039 75.612 355.319 75.766 355.599 75.766C355.879 75.766 356.089 75.752 356.229 75.724C356.369 75.696 356.509 75.64 356.649 75.556C356.789 75.444 356.901 75.36 356.985 75.304C357.097 75.248 357.223 75.15 357.363 75.01C357.531 74.842 357.643 74.73 357.699 74.674C357.811 74.506 358.007 74.282 358.287 74.002L359.169 74.716C358.665 75.892 357.895 76.886 356.859 77.698C355.851 78.51 354.941 78.916 354.129 78.916C353.317 78.916 352.673 78.622 352.197 78.034C351.721 77.446 351.483 76.704 351.483 75.808C351.483 74.884 351.637 73.694 351.945 72.238C350.601 74.366 349.243 76.004 347.871 77.152C346.527 78.3 345.309 78.874 344.217 78.874C342.705 78.874 341.949 77.908 341.949 75.976C341.949 75.36 342.145 74.128 342.537 72.28C341.193 74.38 339.821 76.018 338.421 77.194C337.049 78.342 335.817 78.916 334.725 78.916C333.213 78.916 332.457 77.978 332.457 76.102C332.457 74.226 333.101 71.72 334.389 68.584C335.677 65.42 336.615 63.586 337.203 63.082L339.219 63.964C338.267 65.504 337.441 67.282 336.741 69.298C336.069 71.286 335.733 72.56 335.733 73.12C335.733 73.652 335.887 74.128 336.195 74.548C336.503 74.94 336.839 75.136 337.203 75.136C338.239 75.136 339.835 73.624 341.991 70.6C344.175 67.576 345.645 65 346.401 62.872L348.921 63.964C348.361 64.72 347.605 66.246 346.653 68.542C345.701 70.81 345.225 72.266 345.225 72.91C345.225 73.554 345.421 74.058 345.813 74.422C346.205 74.786 346.597 74.968 346.989 74.968C347.997 74.968 349.481 73.694 351.441 71.146C353.429 68.57 354.955 65.84 356.019 62.956L358.497 64.048C358.329 64.412 357.867 65.336 357.111 66.82C355.291 70.264 354.381 72.658 354.381 74.002ZM378.013 74.758L378.979 75.472C378.587 76.312 377.859 77.11 376.795 77.866C375.759 78.622 374.807 79 373.939 79C372.287 79 371.461 78.132 371.461 76.396C371.461 75.584 371.671 74.618 372.091 73.498L370.537 75.094C369.025 76.634 367.709 77.67 366.589 78.202C365.497 78.734 364.419 79 363.355 79C362.291 79 361.479 78.706 360.919 78.118C360.387 77.502 360.121 76.662 360.121 75.598C360.121 73.638 360.877 71.706 362.389 69.802C363.901 67.87 365.833 66.302 368.185 65.098C370.537 63.894 372.889 63.278 375.241 63.25L375.325 64.636L373.561 65.014C371.013 65.574 368.759 66.694 366.799 68.374C364.867 70.054 363.901 71.734 363.901 73.414C363.901 75.066 364.573 75.892 365.917 75.892C367.177 75.892 368.731 75.01 370.579 73.246C372.427 71.482 373.967 69.41 375.199 67.03L376.963 68.08C375.227 71.58 374.359 73.806 374.359 74.758C374.359 75.15 374.485 75.486 374.737 75.766C375.017 76.018 375.283 76.144 375.535 76.144C375.815 76.144 375.997 76.13 376.081 76.102C376.165 76.074 376.249 76.046 376.333 76.018C376.417 75.962 376.515 75.892 376.627 75.808C376.767 75.724 376.879 75.64 376.963 75.556C377.075 75.472 377.243 75.346 377.467 75.178C377.691 75.01 377.873 74.87 378.013 74.758ZM398.562 74.758L399.528 75.472C399.136 76.312 398.408 77.11 397.344 77.866C396.308 78.622 395.356 79 394.488 79C392.836 79 392.01 78.132 392.01 76.396C392.01 75.584 392.22 74.618 392.64 73.498L391.086 75.094C389.574 76.634 388.258 77.67 387.138 78.202C386.046 78.734 384.968 79 383.904 79C382.84 79 382.028 78.706 381.468 78.118C380.936 77.502 380.67 76.662 380.67 75.598C380.67 73.638 381.426 71.706 382.938 69.802C384.45 67.87 386.382 66.302 388.734 65.098C391.086 63.894 393.438 63.278 395.79 63.25L395.874 64.636L394.11 65.014C391.562 65.574 389.308 66.694 387.348 68.374C385.416 70.054 384.45 71.734 384.45 73.414C384.45 75.066 385.122 75.892 386.466 75.892C387.726 75.892 389.28 75.01 391.128 73.246C392.976 71.482 394.516 69.41 395.748 67.03L397.512 68.08C395.776 71.58 394.908 73.806 394.908 74.758C394.908 75.15 395.034 75.486 395.286 75.766C395.566 76.018 395.832 76.144 396.084 76.144C396.364 76.144 396.546 76.13 396.63 76.102C396.714 76.074 396.798 76.046 396.882 76.018C396.966 75.962 397.064 75.892 397.176 75.808C397.316 75.724 397.428 75.64 397.512 75.556C397.624 75.472 397.792 75.346 398.016 75.178C398.24 75.01 398.422 74.87 398.562 74.758ZM407.351 71.272C409.479 68.08 411.327 65.91 412.895 64.762C414.463 63.586 415.835 62.998 417.011 62.998C418.187 62.998 419.097 63.362 419.741 64.09C420.385 64.79 420.707 65.686 420.707 66.778C420.707 69.802 419.615 72.602 417.431 75.178C415.275 77.726 412.839 79 410.123 79C408.919 79 407.967 78.79 407.267 78.37L408.275 76.564C409.759 76.76 410.669 76.858 411.005 76.858C412.517 76.858 413.931 75.976 415.247 74.212C416.563 72.448 417.221 70.642 417.221 68.794C417.221 68.094 417.011 67.52 416.591 67.072C416.199 66.596 415.681 66.358 415.037 66.358C413.497 66.358 411.747 67.716 409.787 70.432C407.855 73.148 406.035 76.508 404.327 80.512C402.647 84.544 401.177 88.828 399.917 93.364L397.397 92.482C397.453 92.314 397.985 90.858 398.993 88.114C399.973 85.398 400.939 82.696 401.891 80.008C404.523 72.616 405.839 68.57 405.839 67.87C405.839 66.078 405.475 64.454 404.747 62.998L406.847 61.948C407.715 63.152 408.149 64.426 408.149 65.77C408.149 67.086 407.883 68.92 407.351 71.272ZM431.57 69.214C433.11 69.158 433.88 69.788 433.88 71.104C433.88 72.84 432.942 74.562 431.066 76.27C429.218 77.95 427.356 78.79 425.48 78.79C423.716 78.79 422.834 77.6 422.834 75.22C422.834 73.344 423.296 71.02 424.22 68.248C425.172 65.448 425.956 63.474 426.572 62.326L428.462 62.956C427.734 65.084 426.992 67.688 426.236 70.768L426.782 70.516C428.658 69.648 430.254 69.214 431.57 69.214ZM430.898 73.54C431.066 73.148 431.15 72.784 431.15 72.448C431.066 71.692 430.408 71.314 429.176 71.314C428.588 71.314 427.496 71.566 425.9 72.07C425.676 72.91 425.564 73.666 425.564 74.338C425.564 74.982 425.718 75.5 426.026 75.892C426.362 76.284 426.796 76.48 427.328 76.48C427.888 76.48 428.546 76.2 429.302 75.64C430.058 75.052 430.59 74.352 430.898 73.54ZM437.912 73.036L436.652 78.58L434.258 78.202C434.818 74.814 435.518 71.664 436.358 68.752C437.226 65.84 438.052 63.754 438.836 62.494L440.894 62.746C439.886 65.35 438.892 68.78 437.912 73.036ZM463.665 86.77V79H460.305V68.962H448.083V79H444.387V56.488H448.083V65.854H460.305V56.488H464.001V75.892H467.319V86.77H463.665ZM478.123 69.214C479.663 69.158 480.433 69.788 480.433 71.104C480.433 72.84 479.495 74.562 477.619 76.27C475.771 77.95 473.909 78.79 472.033 78.79C470.269 78.79 469.387 77.6 469.387 75.22C469.387 73.344 469.849 71.02 470.773 68.248C471.725 65.448 472.509 63.474 473.125 62.326L475.015 62.956C474.287 65.084 473.545 67.688 472.789 70.768L473.335 70.516C475.211 69.648 476.807 69.214 478.123 69.214ZM477.451 73.54C477.619 73.148 477.703 72.784 477.703 72.448C477.619 71.692 476.961 71.314 475.729 71.314C475.141 71.314 474.049 71.566 472.453 72.07C472.229 72.91 472.117 73.666 472.117 74.338C472.117 74.982 472.271 75.5 472.579 75.892C472.915 76.284 473.349 76.48 473.881 76.48C474.441 76.48 475.099 76.2 475.855 75.64C476.611 75.052 477.143 74.352 477.451 73.54ZM484.465 73.036L483.205 78.58L480.811 78.202C481.371 74.814 482.071 71.664 482.911 68.752C483.779 65.84 484.605 63.754 485.389 62.494L487.447 62.746C486.439 65.35 485.445 68.78 484.465 73.036ZM503.624 64.678C503.624 66.722 501.748 68.416 497.996 69.76C499.004 70.376 499.746 70.936 500.222 71.44C500.726 71.916 500.978 72.462 500.978 73.078C500.978 74.646 500.096 76.032 498.332 77.236C496.568 78.412 494.678 79 492.662 79C491.682 79 490.702 78.846 489.722 78.538C488.742 78.23 488.07 77.852 487.706 77.404L489.302 75.934C489.638 76.27 490.086 76.564 490.646 76.816C491.234 77.068 491.724 77.194 492.116 77.194C493.516 77.194 494.79 76.844 495.938 76.144C497.114 75.416 497.702 74.534 497.702 73.498C497.702 72.938 497.492 72.476 497.072 72.112C496.652 71.72 496.19 71.454 495.686 71.314C495.21 71.146 494.762 70.95 494.342 70.726C493.922 70.474 493.712 70.194 493.712 69.886C493.712 69.578 494.034 69.298 494.678 69.046C495.35 68.766 496.092 68.542 496.904 68.374C497.716 68.178 498.444 67.87 499.088 67.45C499.76 67.002 500.096 66.512 500.096 65.98C500.096 65.448 499.914 65.028 499.55 64.72C499.186 64.412 498.724 64.258 498.164 64.258C497.632 64.258 496.792 64.552 495.644 65.14C494.496 65.728 493.334 66.484 492.158 67.408L491.57 66.232C492.578 65.056 493.936 64.02 495.644 63.124C497.38 62.2 498.766 61.738 499.802 61.738C500.866 61.738 501.762 62.032 502.49 62.62C503.246 63.18 503.624 63.866 503.624 64.678ZM523.211 77.488L523.253 78.496C522.973 78.664 521.699 79.168 519.431 80.008C518.535 85.356 517.219 89.22 515.483 91.6C513.747 93.98 511.619 95.17 509.099 95.17C507.923 95.17 506.985 94.792 506.285 94.036C505.585 93.28 505.235 92.3 505.235 91.096C505.235 88.688 506.341 86.434 508.553 84.334C510.765 82.262 513.719 80.624 517.415 79.42C517.835 77.544 518.591 74.898 519.683 71.482C517.807 74.338 516.099 76.27 514.559 77.278C513.047 78.286 511.675 78.79 510.443 78.79C509.211 78.79 508.273 78.454 507.629 77.782C507.013 77.11 506.705 76.214 506.705 75.094C506.705 73.246 507.475 71.37 509.015 69.466C510.555 67.534 512.487 65.966 514.811 64.762C517.163 63.53 519.431 62.914 521.615 62.914L521.951 64.384C518.843 64.72 516.169 65.812 513.929 67.66C511.717 69.508 510.611 71.286 510.611 72.994C510.611 73.722 510.835 74.324 511.283 74.8C511.731 75.276 512.277 75.514 512.921 75.514C513.873 75.514 515.315 74.506 517.247 72.49C519.179 70.474 520.537 68.752 521.321 67.324L522.875 68.206C521.335 72.322 520.271 75.794 519.683 78.622L523.211 77.488ZM517.163 80.68C514.727 81.8 512.711 83.144 511.115 84.712C509.519 86.28 508.721 87.708 508.721 88.996C508.721 89.668 508.917 90.214 509.309 90.634C509.701 91.054 510.191 91.264 510.779 91.264C511.955 91.264 513.117 90.438 514.265 88.786C515.413 87.134 516.379 84.432 517.163 80.68ZM533.658 69.214C535.198 69.158 535.968 69.788 535.968 71.104C535.968 72.84 535.03 74.562 533.154 76.27C531.306 77.95 529.444 78.79 527.568 78.79C525.804 78.79 524.922 77.6 524.922 75.22C524.922 73.344 525.384 71.02 526.308 68.248C527.26 65.448 528.044 63.474 528.66 62.326L530.55 62.956C529.822 65.084 529.08 67.688 528.324 70.768L528.87 70.516C530.746 69.648 532.342 69.214 533.658 69.214ZM532.986 73.54C533.154 73.148 533.238 72.784 533.238 72.448C533.154 71.692 532.496 71.314 531.264 71.314C530.676 71.314 529.584 71.566 527.988 72.07C527.764 72.91 527.652 73.666 527.652 74.338C527.652 74.982 527.806 75.5 528.114 75.892C528.45 76.284 528.884 76.48 529.416 76.48C529.976 76.48 530.634 76.2 531.39 75.64C532.146 75.052 532.678 74.352 532.986 73.54ZM540 73.036L538.74 78.58L536.346 78.202C536.906 74.814 537.606 71.664 538.446 68.752C539.314 65.84 540.14 63.754 540.924 62.494L542.982 62.746C541.974 65.35 540.98 68.78 540 73.036ZM572.787 69.214C574.327 69.158 575.097 69.788 575.097 71.104C575.097 72.84 574.159 74.562 572.283 76.27C570.435 77.95 568.573 78.79 566.697 78.79C564.933 78.79 564.051 77.6 564.051 75.22C564.051 73.344 564.513 71.02 565.437 68.248C566.389 65.448 567.173 63.474 567.789 62.326L569.679 62.956C568.951 65.084 568.209 67.688 567.453 70.768L567.999 70.516C569.875 69.648 571.471 69.214 572.787 69.214ZM572.115 73.54C572.283 73.148 572.367 72.784 572.367 72.448C572.283 71.692 571.625 71.314 570.393 71.314C569.805 71.314 568.713 71.566 567.117 72.07C566.893 72.91 566.781 73.666 566.781 74.338C566.781 74.982 566.935 75.5 567.243 75.892C567.579 76.284 568.013 76.48 568.545 76.48C569.105 76.48 569.763 76.2 570.519 75.64C571.275 75.052 571.807 74.352 572.115 73.54ZM579.129 73.036L577.869 78.58L575.475 78.202C576.035 74.814 576.735 71.664 577.575 68.752C578.443 65.84 579.269 63.754 580.053 62.494L582.111 62.746C581.103 65.35 580.109 68.78 579.129 73.036ZM589.132 71.272C591.26 68.08 593.108 65.91 594.676 64.762C596.244 63.586 597.616 62.998 598.792 62.998C599.968 62.998 600.878 63.362 601.522 64.09C602.166 64.79 602.488 65.686 602.488 66.778C602.488 69.802 601.396 72.602 599.212 75.178C597.056 77.726 594.62 79 591.904 79C590.7 79 589.748 78.79 589.048 78.37L590.056 76.564C591.54 76.76 592.45 76.858 592.786 76.858C594.298 76.858 595.712 75.976 597.028 74.212C598.344 72.448 599.002 70.642 599.002 68.794C599.002 68.094 598.792 67.52 598.372 67.072C597.98 66.596 597.462 66.358 596.818 66.358C595.278 66.358 593.528 67.716 591.568 70.432C589.636 73.148 587.816 76.508 586.108 80.512C584.428 84.544 582.958 88.828 581.698 93.364L579.178 92.482C579.234 92.314 579.766 90.858 580.774 88.114C581.754 85.398 582.72 82.696 583.672 80.008C586.304 72.616 587.62 68.57 587.62 67.87C587.62 66.078 587.256 64.454 586.528 62.998L588.628 61.948C589.496 63.152 589.93 64.426 589.93 65.77C589.93 67.086 589.664 68.92 589.132 71.272ZM622.507 74.758L623.473 75.472C623.081 76.312 622.353 77.11 621.289 77.866C620.253 78.622 619.301 79 618.433 79C616.781 79 615.955 78.132 615.955 76.396C615.955 75.584 616.165 74.618 616.585 73.498L615.031 75.094C613.519 76.634 612.203 77.67 611.083 78.202C609.991 78.734 608.913 79 607.849 79C606.785 79 605.973 78.706 605.413 78.118C604.881 77.502 604.615 76.662 604.615 75.598C604.615 73.638 605.371 71.706 606.883 69.802C608.395 67.87 610.327 66.302 612.679 65.098C615.031 63.894 617.383 63.278 619.735 63.25L619.819 64.636L618.055 65.014C615.507 65.574 613.253 66.694 611.293 68.374C609.361 70.054 608.395 71.734 608.395 73.414C608.395 75.066 609.067 75.892 610.411 75.892C611.671 75.892 613.225 75.01 615.073 73.246C616.921 71.482 618.461 69.41 619.693 67.03L621.457 68.08C619.721 71.58 618.853 73.806 618.853 74.758C618.853 75.15 618.979 75.486 619.231 75.766C619.511 76.018 619.777 76.144 620.029 76.144C620.309 76.144 620.491 76.13 620.575 76.102C620.659 76.074 620.743 76.046 620.827 76.018C620.911 75.962 621.009 75.892 621.121 75.808C621.261 75.724 621.373 75.64 621.457 75.556C621.569 75.472 621.737 75.346 621.961 75.178C622.185 75.01 622.367 74.87 622.507 74.758ZM636.42 73.036L637.428 73.876C636.756 75.416 635.678 76.648 634.194 77.572C632.71 78.496 631.268 78.958 629.868 78.958C628.496 78.958 627.348 78.524 626.424 77.656C625.528 76.788 625.08 75.598 625.08 74.086C625.08 72.574 625.738 70.936 627.054 69.172C628.37 67.408 630.064 65.952 632.136 64.804C634.236 63.656 636.294 63.082 638.31 63.082C638.59 63.082 639.01 63.11 639.57 63.166L639.444 64.804C636.364 64.944 633.802 65.882 631.758 67.618C629.742 69.354 628.734 71.202 628.734 73.162C628.734 73.974 628.986 74.632 629.49 75.136C629.994 75.64 630.652 75.892 631.464 75.892C632.752 75.892 634.404 74.94 636.42 73.036ZM667.951 73.54L668.833 74.38C667.237 77.236 665.403 78.664 663.331 78.664C662.491 78.664 661.833 78.44 661.357 77.992C660.909 77.516 660.685 76.9 660.685 76.144C660.685 75.36 661.147 74.03 662.071 72.154C662.995 70.278 663.485 68.85 663.541 67.87C663.569 67.422 663.429 67.058 663.121 66.778C662.841 66.498 662.449 66.358 661.945 66.358C661.441 66.358 660.923 66.484 660.391 66.736C659.887 66.96 659.383 67.338 658.879 67.87C658.403 68.402 657.955 68.92 657.535 69.424C657.143 69.928 656.695 70.642 656.191 71.566C655.715 72.49 655.309 73.26 654.973 73.876C654.385 75.024 653.545 76.746 652.453 79.042L649.933 78.16C649.933 78.076 650.395 76.494 651.319 73.414C652.243 70.334 652.705 68.5 652.705 67.912C652.705 67.324 652.565 66.904 652.285 66.652C652.005 66.372 651.655 66.232 651.235 66.232C649.975 66.232 648.225 67.8 645.985 70.936C643.773 74.072 642.359 76.746 641.743 78.958L639.349 78.16C639.489 76.676 640.147 74.016 641.323 70.18C642.499 66.316 643.493 63.684 644.305 62.284L646.195 62.956C645.327 64.888 644.725 66.526 644.389 67.87C644.053 69.186 643.759 70.6 643.507 72.112C645.915 68.668 647.931 66.26 649.555 64.888C651.179 63.488 652.649 62.788 653.965 62.788C655.393 62.788 656.107 63.502 656.107 64.93C656.107 65.49 655.855 66.596 655.351 68.248C654.875 69.9 654.497 71.202 654.217 72.154C658.081 65.938 661.539 62.83 664.591 62.83C665.347 62.83 665.949 63.068 666.397 63.544C666.845 63.992 667.069 64.678 667.069 65.602C667.069 66.498 666.537 67.996 665.473 70.096C664.437 72.196 663.919 73.526 663.919 74.086C663.919 74.618 664.031 75.01 664.255 75.262C664.479 75.514 664.759 75.64 665.095 75.64C665.823 75.64 666.775 74.94 667.951 73.54ZM688.707 74.758L689.673 75.472C689.281 76.312 688.553 77.11 687.489 77.866C686.453 78.622 685.501 79 684.633 79C682.981 79 682.155 78.132 682.155 76.396C682.155 75.584 682.365 74.618 682.785 73.498L681.231 75.094C679.719 76.634 678.403 77.67 677.283 78.202C676.191 78.734 675.113 79 674.049 79C672.985 79 672.173 78.706 671.613 78.118C671.081 77.502 670.815 76.662 670.815 75.598C670.815 73.638 671.571 71.706 673.083 69.802C674.595 67.87 676.527 66.302 678.879 65.098C681.231 63.894 683.583 63.278 685.935 63.25L686.019 64.636L684.255 65.014C681.707 65.574 679.453 66.694 677.493 68.374C675.561 70.054 674.595 71.734 674.595 73.414C674.595 75.066 675.267 75.892 676.611 75.892C677.871 75.892 679.425 75.01 681.273 73.246C683.121 71.482 684.661 69.41 685.893 67.03L687.657 68.08C685.921 71.58 685.053 73.806 685.053 74.758C685.053 75.15 685.179 75.486 685.431 75.766C685.711 76.018 685.977 76.144 686.229 76.144C686.509 76.144 686.691 76.13 686.775 76.102C686.859 76.074 686.943 76.046 687.027 76.018C687.111 75.962 687.209 75.892 687.321 75.808C687.461 75.724 687.573 75.64 687.657 75.556C687.769 75.472 687.937 75.346 688.161 75.178C688.385 75.01 688.567 74.87 688.707 74.758ZM708.835 73.918L709.717 74.59C709.101 75.822 708.247 76.858 707.155 77.698C706.091 78.538 705.125 78.958 704.257 78.958C703.389 78.958 702.703 78.706 702.199 78.202C701.695 77.698 701.443 77.068 701.443 76.312C701.443 75.556 701.919 74.24 702.871 72.364C703.851 70.46 704.341 69.06 704.341 68.164C704.341 67.772 704.173 67.422 703.837 67.114C703.529 66.778 703.151 66.61 702.703 66.61C701.275 66.61 699.833 67.702 698.377 69.886C696.921 72.042 695.297 75.164 693.505 79.252L690.985 78.37C691.517 75.122 692.273 71.958 693.253 68.878C694.261 65.77 695.185 63.544 696.025 62.2L697.747 62.746C696.963 64.734 695.969 68.164 694.765 73.036C698.629 66.428 702.185 63.124 705.433 63.124C706.133 63.124 706.707 63.362 707.155 63.838C707.631 64.314 707.869 64.874 707.869 65.518C707.869 66.162 707.785 66.75 707.617 67.282C707.449 67.786 706.917 68.99 706.021 70.894C705.153 72.77 704.719 73.946 704.719 74.422C704.719 74.898 704.859 75.276 705.139 75.556C705.419 75.808 705.685 75.934 705.937 75.934C706.189 75.934 706.399 75.892 706.567 75.808C706.735 75.724 706.917 75.598 707.113 75.43C707.337 75.262 707.533 75.108 707.701 74.968C707.869 74.828 708.065 74.646 708.289 74.422C708.541 74.17 708.723 74.002 708.835 73.918ZM746.881 74.338L747.931 75.262C746.307 77.922 744.585 79.252 742.765 79.252C741.729 79.252 740.665 78.58 739.573 77.236C738.509 75.892 737.865 74.59 737.641 73.33C737.473 73.638 736.997 74.45 736.213 75.766C735.429 77.082 734.869 78.16 734.533 79L732.013 78.118C732.601 74.674 733.315 71.426 734.155 68.374C735.023 65.322 735.835 63.18 736.591 61.948L738.313 62.494C737.809 63.782 736.969 67.212 735.793 72.784C737.333 69.62 738.887 67.31 740.455 65.854C742.023 64.37 743.745 63.39 745.621 62.914V65.686C743.605 65.77 741.659 67.128 739.783 69.76C739.895 71.58 740.427 73.092 741.379 74.296C742.359 75.5 743.283 76.102 744.151 76.102C744.571 76.102 745.481 75.514 746.881 74.338ZM761.86 66.526C762.588 67.73 762.952 69.06 762.952 70.516C762.952 72.784 762.168 74.814 760.6 76.606C759.032 78.37 757.184 79.252 755.056 79.252C753.432 79.252 752.158 78.79 751.234 77.866C750.338 76.914 749.89 75.612 749.89 73.96C749.89 71.3 750.926 68.92 752.998 66.82C755.07 64.692 757.394 63.628 759.97 63.628C760.446 63.628 760.782 63.642 760.978 63.67L761.104 65.056C758.864 65.056 757.002 65.7 755.518 66.988C754.034 68.276 753.292 69.928 753.292 71.944C753.292 73.148 753.586 74.128 754.174 74.884C754.762 75.612 755.616 75.976 756.736 75.976C757.884 75.976 758.794 75.472 759.466 74.464C760.138 73.456 760.474 72.28 760.474 70.936C760.474 69.564 760.208 68.318 759.676 67.198L761.86 66.526ZM785.446 66.064C785.782 66.484 786.048 67.086 786.244 67.87C786.44 68.626 786.538 69.256 786.538 69.76C786.538 72.224 785.768 74.352 784.228 76.144C782.688 77.908 780.826 78.79 778.642 78.79C777.018 78.79 775.744 78.328 774.82 77.404C773.924 76.452 773.476 75.15 773.476 73.498C773.476 72.966 773.504 72.56 773.56 72.28C773.056 72.336 771.964 72.49 770.284 72.742C769.136 74.786 768.562 76.844 768.562 78.916L766.042 78.706C766.042 77.138 766.546 75.304 767.554 73.204C766.77 73.26 765.622 73.526 764.11 74.002L763.69 72.364C763.69 72.252 764.292 72.042 765.496 71.734C766.728 71.426 767.708 71.216 768.436 71.104C770.676 65.952 772.202 62.97 773.014 62.158L774.82 62.872C774.54 63.488 774.064 64.524 773.392 65.98C772.72 67.408 772.02 68.906 771.292 70.474L774.106 70.18C774.862 68.192 776.122 66.526 777.886 65.182C779.65 63.838 781.54 63.166 783.556 63.166C784.032 63.166 784.368 63.18 784.564 63.208L784.69 64.594C782.45 64.594 780.588 65.238 779.104 66.526C777.62 67.814 776.878 69.466 776.878 71.482C776.878 72.686 777.172 73.666 777.76 74.422C778.348 75.15 779.16 75.514 780.196 75.514C781.232 75.514 782.128 75.052 782.884 74.128C783.668 73.204 784.06 72.084 784.06 70.768C784.06 70.152 783.948 69.424 783.724 68.584C783.5 67.716 783.346 67.1 783.262 66.736L785.446 66.064ZM809.673 86.77V79H806.313V68.962H794.091V79H790.395V56.488H794.091V65.854H806.313V56.488H810.009V75.892H813.327V86.77H809.673ZM832.531 76.354L832.657 77.446C832.545 77.53 831.243 78.034 828.751 78.958C828.415 80.806 827.981 82.626 827.449 84.418C826.945 86.238 826.427 87.61 825.895 88.534C825.391 89.486 824.789 90.424 824.089 91.348C822.689 93.196 820.799 94.12 818.419 94.12C817.243 94.12 816.305 93.756 815.605 93.028C814.905 92.3 814.555 91.306 814.555 90.046C814.555 85.202 818.615 81.31 826.735 78.37L829.003 70.39C826.595 74.002 824.425 76.228 822.493 77.068C821.541 77.516 820.533 77.74 819.469 77.74C818.433 77.74 817.593 77.404 816.949 76.732C816.333 76.06 816.025 75.08 816.025 73.792C816.025 72.504 816.459 70.712 817.327 68.416C818.223 66.092 819.217 64.146 820.309 62.578L822.367 63.46C822.283 63.544 821.891 64.286 821.191 65.686C819.959 68.234 819.343 70.124 819.343 71.356C819.343 72.588 819.581 73.414 820.057 73.834C820.533 74.254 821.233 74.464 822.157 74.464C823.081 74.464 824.117 73.918 825.265 72.826C826.441 71.706 828.247 69.508 830.683 66.232L832.195 67.114C831.971 68.038 831.467 69.718 830.683 72.154C829.927 74.562 829.409 76.41 829.129 77.698L832.531 76.354ZM826.483 79.63C824.719 80.442 823.165 81.366 821.821 82.402C819.301 84.306 818.041 86.154 818.041 87.946C818.041 88.618 818.237 89.164 818.629 89.584C819.021 90.004 819.511 90.214 820.099 90.214C822.899 90.214 825.027 86.686 826.483 79.63ZM850.452 64.678C850.452 66.722 848.576 68.416 844.824 69.76C845.832 70.376 846.574 70.936 847.05 71.44C847.554 71.916 847.806 72.462 847.806 73.078C847.806 74.646 846.924 76.032 845.16 77.236C843.396 78.412 841.506 79 839.49 79C838.51 79 837.53 78.846 836.55 78.538C835.57 78.23 834.898 77.852 834.534 77.404L836.13 75.934C836.466 76.27 836.914 76.564 837.474 76.816C838.062 77.068 838.552 77.194 838.944 77.194C840.344 77.194 841.618 76.844 842.766 76.144C843.942 75.416 844.53 74.534 844.53 73.498C844.53 72.938 844.32 72.476 843.9 72.112C843.48 71.72 843.018 71.454 842.514 71.314C842.038 71.146 841.59 70.95 841.17 70.726C840.75 70.474 840.54 70.194 840.54 69.886C840.54 69.578 840.862 69.298 841.506 69.046C842.178 68.766 842.92 68.542 843.732 68.374C844.544 68.178 845.272 67.87 845.916 67.45C846.588 67.002 846.924 66.512 846.924 65.98C846.924 65.448 846.742 65.028 846.378 64.72C846.014 64.412 845.552 64.258 844.992 64.258C844.46 64.258 843.62 64.552 842.472 65.14C841.324 65.728 840.162 66.484 838.986 67.408L838.398 66.232C839.406 65.056 840.764 64.02 842.472 63.124C844.208 62.2 845.594 61.738 846.63 61.738C847.694 61.738 848.59 62.032 849.318 62.62C850.074 63.18 850.452 63.866 850.452 64.678ZM851.559 78.748C851.223 78.412 851.055 78.006 851.055 77.53C851.055 77.054 851.223 76.648 851.559 76.312C851.895 75.976 852.301 75.808 852.777 75.808C853.253 75.808 853.659 75.976 853.995 76.312C854.331 76.648 854.499 77.054 854.499 77.53C854.499 78.006 854.331 78.412 853.995 78.748C853.659 79.084 853.253 79.252 852.777 79.252C852.301 79.252 851.895 79.084 851.559 78.748Z" fill="white"/>
</svg>
