<svg width="484" height="40" viewBox="0 0 484 40" fill="none" xmlns="http://www.w3.org/2000/svg">
<path d="M2.05637 31.848C1.83237 31.848 1.58037 31.666 1.30037 31.302C1.02037 30.938 0.894367 30.588 0.922368 30.252C0.950368 29.804 1.07637 29.16 1.30037 28.32C1.52437 27.48 1.77637 26.626 2.05637 25.758C2.33637 24.89 2.58837 24.204 2.81237 23.7C2.92437 23.252 3.02237 22.86 3.10637 22.524C3.21837 22.16 3.28837 21.922 3.31637 21.81C3.40037 21.698 3.52637 21.404 3.69437 20.928C3.89037 20.452 4.04437 19.99 4.15637 19.542C4.21237 19.318 4.32437 18.898 4.49237 18.282C4.68837 17.638 4.91237 16.896 5.16437 16.056C5.44437 15.216 5.71037 14.39 5.96237 13.578C6.24237 12.766 6.48037 12.052 6.67637 11.436C6.87237 10.82 6.99837 10.414 7.05437 10.218C7.27837 9.882 7.44637 9.56 7.55837 9.252C7.67037 8.944 7.74037 8.734 7.76837 8.622C7.93637 8.51 8.03437 8.37 8.06237 8.202C8.09037 8.006 8.10437 7.852 8.10437 7.74C8.10437 7.6 8.14637 7.488 8.23037 7.404C8.34237 7.32 8.39837 7.222 8.39837 7.11C8.51037 7.026 8.58037 6.9 8.60837 6.732C8.63637 6.536 8.72037 6.368 8.86037 6.228L9.07037 5.514L11.5484 5.472C11.4924 5.808 11.4084 6.228 11.2964 6.732C11.1844 7.208 10.9184 7.852 10.4984 8.664C10.3584 9.224 10.1904 9.728 9.99437 10.176C9.82637 10.624 9.75637 10.918 9.78437 11.058C9.72837 11.114 9.60237 11.394 9.40637 11.898C9.23837 12.402 9.02837 13.018 8.77637 13.746C8.55237 14.474 8.31437 15.202 8.06237 15.93C7.83837 16.658 7.62837 17.302 7.43237 17.862C7.26437 18.394 7.15237 18.73 7.09637 18.87C6.87237 19.318 6.62037 19.976 6.34037 20.844C6.06037 21.712 5.64037 22.888 5.08037 24.372C4.85637 24.82 4.57637 25.492 4.24037 26.388C3.93237 27.284 3.68037 28.096 3.48437 28.824C3.17637 29.916 2.95237 30.672 2.81237 31.092C2.70037 31.54 2.60237 31.778 2.51837 31.806C2.43437 31.862 2.28037 31.876 2.05637 31.848ZM2.39237 6.816C1.60837 6.844 1.02037 6.802 0.628368 6.69C0.264368 6.578 0.138368 6.298 0.250367 5.85C0.334368 5.514 0.516368 5.262 0.796367 5.094C1.07637 4.926 1.48237 4.8 2.01437 4.716C2.32237 4.66 2.71437 4.59 3.19037 4.506C3.69437 4.422 4.17037 4.338 4.61837 4.254C5.54237 4.142 6.29837 4.044 6.88637 3.96C7.50237 3.876 8.13237 3.806 8.77637 3.75C9.42037 3.694 10.2324 3.638 11.2124 3.582C12.0244 3.526 12.7104 3.484 13.2704 3.456C13.8584 3.4 14.1524 3.372 14.1524 3.372C14.2364 3.372 14.5304 3.4 15.0344 3.456C15.5384 3.512 16.0844 3.582 16.6724 3.666C17.2604 3.75 17.6944 3.848 17.9744 3.96C18.6184 4.1 19.0804 4.296 19.3604 4.548C19.6684 4.8 19.8784 5.164 19.9904 5.64C20.0744 5.976 20.0744 6.186 19.9904 6.27C19.9064 6.326 19.7524 6.41 19.5284 6.522C18.8844 6.718 18.4084 6.816 18.1004 6.816C17.7924 6.816 17.4424 6.746 17.0504 6.606C16.9104 6.466 16.7424 6.34 16.5464 6.228C16.3784 6.116 16.0704 6.032 15.6224 5.976C15.2024 5.892 14.5304 5.822 13.6064 5.766C12.8224 5.85 12.1364 5.892 11.5484 5.892C10.9604 5.892 10.6664 5.962 10.6664 6.102L8.18837 6.228L6.13037 6.438C5.85037 6.466 5.45837 6.508 4.95437 6.564C4.45037 6.592 3.96037 6.634 3.48437 6.69C3.00837 6.718 2.64437 6.76 2.39237 6.816ZM14.7259 29.37C14.3619 29.37 14.0679 29.3 13.8439 29.16C13.6479 29.02 13.3959 28.824 13.0879 28.572C12.5559 28.012 12.1779 27.48 11.9539 26.976C11.7299 26.444 11.6599 25.94 11.7439 25.464C11.8279 25.24 11.8559 25.03 11.8279 24.834C11.8279 24.61 11.8279 24.498 11.8279 24.498C11.6879 24.358 11.6459 24.274 11.7019 24.246C11.7579 24.19 11.8139 24.106 11.8699 23.994C12.0379 23.994 12.0939 23.84 12.0379 23.532C11.9819 23.308 12.0939 22.818 12.3739 22.062C12.6539 21.306 13.0039 20.592 13.4239 19.92C13.5919 19.64 13.8439 19.276 14.1799 18.828C14.5159 18.352 14.8799 17.89 15.2719 17.442C15.6919 16.966 16.0699 16.588 16.4059 16.308C17.1059 15.72 17.7219 15.286 18.2539 15.006C18.7859 14.726 19.3599 14.516 19.9759 14.376C20.5919 14.236 21.0119 14.166 21.2359 14.166C21.4879 14.166 21.8239 14.39 22.2439 14.838C22.8879 15.118 23.3499 15.454 23.6299 15.846C23.9379 16.238 24.1339 16.812 24.2179 17.568C24.3019 18.408 24.2319 19.374 24.0079 20.466C23.8119 21.53 23.1539 22.86 22.0339 24.456C21.3339 25.464 20.6899 26.22 20.1019 26.724C19.5139 27.2 18.8139 27.676 18.0019 28.152C17.4139 28.544 16.8819 28.838 16.4059 29.034C15.9299 29.202 15.3699 29.314 14.7259 29.37ZM18.7579 24.918C19.4299 24.162 19.9619 23.448 20.3539 22.776C20.7739 22.104 21.1659 21.25 21.5299 20.214C21.6419 19.906 21.7119 19.528 21.7399 19.08C21.7679 18.604 21.7539 18.17 21.6979 17.778C21.6699 17.358 21.5719 17.12 21.4039 17.064C21.0679 16.868 20.6619 16.812 20.1859 16.896C19.7099 16.952 19.1919 17.218 18.6319 17.694C17.7639 18.422 17.0079 19.332 16.3639 20.424C15.7199 21.488 15.0899 22.706 14.4739 24.078C14.0539 25.086 13.9559 25.898 14.1799 26.514C14.4319 27.102 14.9499 27.312 15.7339 27.144C16.5459 26.948 17.5539 26.206 18.7579 24.918ZM36.2624 29.916C36.0664 30.028 35.8004 29.986 35.4644 29.79C35.1564 29.594 34.8484 29.3 34.5404 28.908C34.3444 28.572 34.2044 28.208 34.1204 27.816C34.0644 27.424 34.0364 26.878 34.0364 26.178C34.0644 25.618 34.0364 25.254 33.9524 25.086C33.8964 24.918 33.7424 24.946 33.4904 25.17C33.2384 25.366 32.8044 25.772 32.1884 26.388C31.4884 27.088 30.8164 27.634 30.1724 28.026C29.5564 28.418 29.0524 28.6 28.6604 28.572C28.4644 28.572 28.2404 28.474 27.9884 28.278C27.7644 28.054 27.5544 27.788 27.3584 27.48C27.1624 27.144 26.9944 26.808 26.8544 26.472C26.6864 25.856 26.6584 25.072 26.7704 24.12C26.9104 23.14 27.1344 22.118 27.4424 21.054C27.7504 19.99 28.1004 18.982 28.4924 18.03C28.9124 17.078 29.3324 16.308 29.7524 15.72C30.2004 15.132 30.5924 14.838 30.9284 14.838C31.1524 14.838 31.3484 14.95 31.5164 15.174C31.7124 15.398 31.9084 15.748 32.1044 16.224C32.2164 16.42 32.2584 16.588 32.2304 16.728C32.2304 16.868 32.1184 17.036 31.8944 17.232C31.6424 17.568 31.3484 18.072 31.0124 18.744C30.7044 19.416 30.3964 20.144 30.0884 20.928C29.8084 21.712 29.5564 22.468 29.3324 23.196C29.1084 23.924 28.9544 24.526 28.8704 25.002C28.7864 25.45 28.8004 25.674 28.9124 25.674C29.3044 25.674 29.7664 25.52 30.2984 25.212C30.8584 24.876 31.3904 24.47 31.8944 23.994C32.4824 23.406 33.0004 22.762 33.4484 22.062C33.9244 21.362 34.4004 20.62 34.8764 19.836C35.2404 19.276 35.6184 18.66 36.0104 17.988C36.4304 17.316 36.6964 16.84 36.8084 16.56C37.2004 15.832 37.4944 15.342 37.6904 15.09C37.8864 14.81 38.1244 14.628 38.4044 14.544C38.5444 14.544 38.6704 14.544 38.7824 14.544C38.9224 14.544 38.9924 14.544 38.9924 14.544C39.1604 14.572 39.3564 14.698 39.5804 14.922C39.8044 15.034 39.9304 15.146 39.9584 15.258C39.9864 15.342 40.0004 15.454 40.0004 15.594C39.8884 15.874 39.7064 16.294 39.4544 16.854C39.2304 17.386 39.0624 17.778 38.9504 18.03C38.4184 19.234 37.8864 20.424 37.3544 21.6C36.8504 22.748 36.4864 23.924 36.2624 25.128C36.2064 25.52 36.1924 25.982 36.2204 26.514C36.2764 27.018 36.3604 27.382 36.4724 27.606C36.5564 27.774 36.6544 27.97 36.7664 28.194C36.9064 28.39 37.0604 28.558 37.2284 28.698C37.4804 28.866 37.5224 29.048 37.3544 29.244C37.2144 29.44 37.0184 29.608 36.7664 29.748C36.5144 29.86 36.3464 29.916 36.2624 29.916ZM35.7164 12.486C34.8484 12.598 34.1204 12.346 33.5324 11.73C32.9444 11.114 32.4964 10.204 32.1884 9C32.1324 8.776 32.1044 8.58 32.1044 8.412C32.1324 8.216 32.1884 8.048 32.2724 7.908C32.3284 7.796 32.4404 7.712 32.6084 7.656C32.7764 7.572 32.9164 7.558 33.0284 7.614C33.4204 7.754 33.7004 7.936 33.8684 8.16C34.0644 8.356 34.1904 8.608 34.2464 8.916C34.3024 9.056 34.3304 9.196 34.3304 9.336C34.3584 9.476 34.3724 9.532 34.3724 9.504C34.5124 9.952 34.6944 10.26 34.9184 10.428C35.1424 10.596 35.4784 10.582 35.9264 10.386C36.4024 10.19 36.8644 9.966 37.3124 9.714C37.7884 9.462 38.2084 9.154 38.5724 8.79C38.8804 8.482 39.1744 8.202 39.4544 7.95C39.7624 7.698 40.0564 7.432 40.3364 7.152L40.3784 7.11C40.4904 7.026 40.6304 6.998 40.7984 7.026C40.9664 7.054 41.0644 7.096 41.0924 7.152C41.2884 7.348 41.3864 7.544 41.3864 7.74C41.3864 7.936 41.3864 8.146 41.3864 8.37L41.3444 8.454C41.4004 8.622 41.2604 8.944 40.9244 9.42C40.6164 9.896 40.2384 10.302 39.7904 10.638C39.3984 10.946 38.9784 11.226 38.5304 11.478C38.0824 11.73 37.6204 11.968 37.1444 12.192C36.9484 12.304 36.7384 12.374 36.5144 12.402C36.3184 12.402 36.0524 12.43 35.7164 12.486ZM53.994 29.958C53.154 29.986 52.538 29.818 52.146 29.454C51.754 29.062 51.6 28.53 51.684 27.858C51.88 27.662 52.076 27.536 52.272 27.48C52.468 27.424 52.748 27.466 53.112 27.606C53.42 27.718 53.728 27.774 54.036 27.774C54.344 27.774 54.652 27.718 54.96 27.606C55.1 27.522 55.254 27.494 55.422 27.522C55.618 27.522 55.814 27.494 56.01 27.438C56.402 27.298 56.878 27.088 57.438 26.808C58.026 26.528 58.614 26.206 59.202 25.842C59.79 25.45 60.266 25.044 60.63 24.624C60.686 24.568 60.77 24.4 60.882 24.12C60.994 23.812 61.036 23.602 61.008 23.49C60.728 23.49 60.28 23.546 59.664 23.658C59.076 23.742 58.642 23.812 58.362 23.868C57.774 23.952 57.326 23.882 57.018 23.658C56.71 23.434 56.444 23.056 56.22 22.524C56.136 22.3 56.164 22.118 56.304 21.978C56.444 21.81 56.584 21.586 56.724 21.306C56.92 21.278 57.102 21.264 57.27 21.264C57.466 21.236 57.648 21.278 57.816 21.39C57.984 21.502 58.124 21.502 58.236 21.39C58.376 21.278 58.53 21.264 58.698 21.348C58.866 21.404 59.09 21.418 59.37 21.39C59.65 21.362 60.252 21.32 61.176 21.264C61.316 21.264 61.442 21.25 61.554 21.222C61.694 21.166 61.792 21.054 61.848 20.886C61.96 20.578 62.016 20.256 62.016 19.92C62.016 19.556 61.988 19.024 61.932 18.324C61.764 17.848 61.61 17.54 61.47 17.4C61.33 17.232 61.148 17.078 60.924 16.938C60.056 16.854 59.37 16.896 58.866 17.064C58.362 17.204 58.026 17.4 57.858 17.652C57.41 17.988 56.948 18.184 56.472 18.24C56.024 18.296 55.772 18.198 55.716 17.946C55.716 17.806 55.674 17.582 55.59 17.274C55.534 16.966 55.506 16.686 55.506 16.434C55.506 16.154 55.576 16.014 55.716 16.014C56.108 15.538 56.388 15.174 56.556 14.922C56.724 14.642 57.13 14.474 57.774 14.418C58.586 14.25 59.286 14.194 59.874 14.25C60.462 14.278 61.022 14.404 61.554 14.628C61.862 14.712 62.24 14.936 62.688 15.3C63.136 15.664 63.416 16.014 63.528 16.35C63.668 16.462 63.836 16.728 64.032 17.148C64.256 17.54 64.48 18.282 64.704 19.374C64.564 20.41 64.382 21.334 64.158 22.146C63.962 22.958 63.696 23.728 63.36 24.456C63.024 25.212 62.716 25.772 62.436 26.136C62.156 26.472 61.82 26.836 61.428 27.228C60.252 27.956 59.398 28.502 58.866 28.866C58.334 29.23 57.914 29.468 57.606 29.58C57.298 29.692 56.878 29.748 56.346 29.748C55.982 29.916 55.59 30 55.17 30C54.778 29.972 54.386 29.958 53.994 29.958ZM66.9139 29.958C66.0739 29.986 65.4579 29.818 65.0659 29.454C64.6739 29.062 64.5199 28.53 64.6039 27.858C64.7999 27.662 64.9959 27.536 65.1919 27.48C65.3879 27.424 65.6679 27.466 66.0319 27.606C66.3399 27.718 66.6479 27.774 66.9559 27.774C67.2639 27.774 67.5719 27.718 67.8799 27.606C68.0199 27.522 68.1739 27.494 68.3419 27.522C68.5379 27.522 68.7339 27.494 68.9299 27.438C69.3219 27.298 69.7979 27.088 70.3579 26.808C70.9459 26.528 71.5339 26.206 72.1219 25.842C72.7099 25.45 73.1859 25.044 73.5499 24.624C73.6059 24.568 73.6899 24.4 73.8019 24.12C73.9139 23.812 73.9559 23.602 73.9279 23.49C73.6479 23.49 73.1999 23.546 72.5839 23.658C71.9959 23.742 71.5619 23.812 71.2819 23.868C70.6939 23.952 70.2459 23.882 69.9379 23.658C69.6299 23.434 69.3639 23.056 69.1399 22.524C69.0559 22.3 69.0839 22.118 69.2239 21.978C69.3639 21.81 69.5039 21.586 69.6439 21.306C69.8399 21.278 70.0219 21.264 70.1899 21.264C70.3859 21.236 70.5679 21.278 70.7359 21.39C70.9039 21.502 71.0439 21.502 71.1559 21.39C71.2959 21.278 71.4499 21.264 71.6179 21.348C71.7859 21.404 72.0099 21.418 72.2899 21.39C72.5699 21.362 73.1719 21.32 74.0959 21.264C74.2359 21.264 74.3619 21.25 74.4739 21.222C74.6139 21.166 74.7119 21.054 74.7679 20.886C74.8799 20.578 74.9359 20.256 74.9359 19.92C74.9359 19.556 74.9079 19.024 74.8519 18.324C74.6839 17.848 74.5299 17.54 74.3899 17.4C74.2499 17.232 74.0679 17.078 73.8439 16.938C72.9759 16.854 72.2899 16.896 71.7859 17.064C71.2819 17.204 70.9459 17.4 70.7779 17.652C70.3299 17.988 69.8679 18.184 69.3919 18.24C68.9439 18.296 68.6919 18.198 68.6359 17.946C68.6359 17.806 68.5939 17.582 68.5099 17.274C68.4539 16.966 68.4259 16.686 68.4259 16.434C68.4259 16.154 68.4959 16.014 68.6359 16.014C69.0279 15.538 69.3079 15.174 69.4759 14.922C69.6439 14.642 70.0499 14.474 70.6939 14.418C71.5059 14.25 72.2059 14.194 72.7939 14.25C73.3819 14.278 73.9419 14.404 74.4739 14.628C74.7819 14.712 75.1599 14.936 75.6079 15.3C76.0559 15.664 76.3359 16.014 76.4479 16.35C76.5879 16.462 76.7559 16.728 76.9519 17.148C77.1759 17.54 77.3999 18.282 77.6239 19.374C77.4839 20.41 77.3019 21.334 77.0779 22.146C76.8819 22.958 76.6159 23.728 76.2799 24.456C75.9439 25.212 75.6359 25.772 75.3559 26.136C75.0759 26.472 74.7399 26.836 74.3479 27.228C73.1719 27.956 72.3179 28.502 71.7859 28.866C71.2539 29.23 70.8339 29.468 70.5259 29.58C70.2179 29.692 69.7979 29.748 69.2659 29.748C68.9019 29.916 68.5099 30 68.0899 30C67.6979 29.972 67.3059 29.958 66.9139 29.958ZM77.9438 29.832C77.8318 29.776 77.6778 29.664 77.4818 29.496C77.3138 29.328 77.1598 29.16 77.0198 28.992C76.9358 28.908 76.8658 28.838 76.8098 28.782C76.7538 28.698 76.6978 28.642 76.6418 28.614C76.6418 28.418 76.6838 28.278 76.7678 28.194C76.8798 28.11 76.9918 28.012 77.1038 27.9C77.2158 27.732 77.3978 27.648 77.6498 27.648C77.9018 27.648 78.0978 27.578 78.2378 27.438C78.7418 27.074 79.2598 26.696 79.7918 26.304C80.3238 25.912 80.7718 25.45 81.1358 24.918C81.5278 24.358 81.9198 23.756 82.3118 23.112C82.7038 22.468 83.0818 21.838 83.4458 21.222C83.5578 21.026 83.7398 20.676 83.9918 20.172C84.2438 19.668 84.4818 19.178 84.7058 18.702C84.9578 18.198 85.0978 17.848 85.1258 17.652C84.8738 17.568 84.6358 17.498 84.4118 17.442C84.2158 17.358 84.0198 17.288 83.8238 17.232C83.5718 16.84 83.4318 16.616 83.4038 16.56C83.3758 16.476 83.3618 16.21 83.3618 15.762C83.3618 15.426 83.5438 15.216 83.9078 15.132C84.7198 14.936 85.4338 14.81 86.0498 14.754C86.6938 14.698 87.3238 14.586 87.9398 14.418C88.3318 14.306 88.8078 14.264 89.3678 14.292C89.9278 14.32 90.4878 14.446 91.0478 14.67C91.2998 14.782 91.5098 14.922 91.6778 15.09C91.8458 15.258 91.9998 15.454 92.1398 15.678C92.5038 16.182 92.6858 16.616 92.6858 16.98C92.7138 17.344 92.6998 17.694 92.6438 18.03C92.5878 18.366 92.6298 18.744 92.7698 19.164C92.5738 19.92 92.3778 20.592 92.1818 21.18C91.9858 21.74 91.8038 22.272 91.6358 22.776C91.4678 23.252 91.3138 23.7 91.1738 24.12C91.0338 24.54 90.9218 24.96 90.8378 25.38C90.7258 25.828 90.5858 26.276 90.4178 26.724C90.2498 27.172 90.1238 27.634 90.0398 28.11C89.9838 28.474 89.8158 28.74 89.5358 28.908C89.2838 29.076 89.0038 29.23 88.6958 29.37C88.5838 29.398 88.3878 29.37 88.1078 29.286C87.8558 29.174 87.6178 29.02 87.3938 28.824C87.3098 28.516 87.2818 28.236 87.3098 27.984C87.3378 27.732 87.3938 27.48 87.4778 27.228C87.5618 27.004 87.7158 26.5 87.9398 25.716C88.1638 24.932 88.4158 24.05 88.6958 23.07C88.9758 22.09 89.2418 21.18 89.4938 20.34C89.7458 19.5 89.9138 18.912 89.9978 18.576C90.1378 18.128 90.1798 17.792 90.1238 17.568C90.0958 17.344 90.0538 17.134 89.9978 16.938C89.4098 16.714 89.0038 16.644 88.7798 16.728C88.5838 16.784 88.3318 16.84 88.0238 16.896C87.8838 17.008 87.7718 17.134 87.6878 17.274C87.6038 17.414 87.5478 17.554 87.5198 17.694C87.2118 18.506 86.9458 19.15 86.7218 19.626C86.5258 20.102 86.3298 20.536 86.1338 20.928C85.9378 21.292 85.7138 21.698 85.4618 22.146C85.2378 22.594 84.9438 23.21 84.5798 23.994C84.3558 24.498 84.0758 24.96 83.7398 25.38C83.4318 25.8 83.1518 26.248 82.8998 26.724L82.4378 27.312C82.4658 27.312 82.3538 27.424 82.1018 27.648C81.8498 27.872 81.5978 28.096 81.3458 28.32C81.1218 28.544 81.0098 28.656 81.0098 28.656L79.7078 29.664C79.5678 29.776 79.3298 29.832 78.9938 29.832C78.6578 29.832 78.3078 29.832 77.9438 29.832ZM101.989 28.53C101.401 29.034 100.715 29.328 99.9315 29.412C99.1755 29.496 98.4335 29.384 97.7055 29.076C96.9775 28.74 96.3755 28.236 95.8995 27.564C95.4235 26.948 95.1155 26.248 94.9755 25.464C94.8355 24.652 94.8215 23.602 94.9335 22.314C95.0175 21.222 95.3675 20.13 95.9835 19.038C96.5995 17.918 97.3415 16.924 98.2095 16.056C99.1055 15.188 99.9875 14.586 100.855 14.25C101.275 13.97 101.625 13.844 101.905 13.872C102.213 13.872 102.675 13.9 103.291 13.956C103.935 14.04 104.411 14.166 104.719 14.334C105.055 14.502 105.321 14.726 105.517 15.006C105.937 15.426 106.217 15.846 106.357 16.266C106.497 16.658 106.567 17.05 106.567 17.442C106.455 18.058 106.035 18.814 105.307 19.71C104.607 20.578 103.683 21.292 102.535 21.852C101.919 22.048 101.247 22.132 100.519 22.104C99.7915 22.076 99.1895 21.894 98.7135 21.558C98.1815 21.334 97.8315 21.376 97.6635 21.684C97.4955 21.964 97.3415 22.664 97.2015 23.784C97.0895 24.848 97.1735 25.632 97.4535 26.136C97.7335 26.612 98.1115 26.892 98.5875 26.976C99.1475 27.088 99.5815 27.172 99.8895 27.228C100.225 27.256 100.631 27.13 101.107 26.85C101.555 26.57 101.835 26.416 101.947 26.388C102.059 26.332 102.143 26.276 102.199 26.22C102.283 26.136 102.465 25.954 102.745 25.674C102.941 25.478 103.095 25.338 103.207 25.254C103.319 25.142 103.445 25.086 103.585 25.086C103.725 25.086 103.851 25.156 103.963 25.296C104.075 25.408 104.187 25.492 104.299 25.548C104.579 25.548 104.635 25.716 104.467 26.052C104.327 26.388 104.033 26.794 103.585 27.27C103.137 27.718 102.605 28.138 101.989 28.53ZM101.947 19.626C102.255 19.486 102.577 19.29 102.913 19.038C103.249 18.758 103.529 18.464 103.753 18.156C104.005 17.82 104.131 17.54 104.131 17.316C104.131 16.924 103.949 16.602 103.585 16.35C103.221 16.07 102.675 16.028 101.947 16.224C101.639 16.308 101.289 16.518 100.897 16.854C100.505 17.162 100.127 17.512 99.7635 17.904C99.4275 18.296 99.1475 18.646 98.9235 18.954C98.7275 19.262 98.6575 19.444 98.7135 19.5C98.7975 19.64 99.0355 19.752 99.4275 19.836C99.8195 19.892 100.253 19.906 100.729 19.878C101.233 19.85 101.639 19.766 101.947 19.626ZM108.424 37.35C108.088 37.574 107.738 37.56 107.374 37.308C107.038 37.056 106.786 36.678 106.618 36.174C106.45 35.67 106.464 35.138 106.66 34.578C106.716 34.41 106.8 34.13 106.912 33.738C107.024 33.374 107.094 33.052 107.122 32.772C107.15 32.576 107.234 32.24 107.374 31.764C107.514 31.316 107.668 30.868 107.836 30.42C108.032 29.972 108.186 29.65 108.298 29.454C108.466 29.174 108.578 28.852 108.634 28.488C108.718 28.124 108.76 27.844 108.76 27.648C108.816 27.452 108.886 27.228 108.97 26.976C109.082 26.724 109.194 26.528 109.306 26.388C109.362 26.164 109.446 25.926 109.558 25.674C109.67 25.394 109.796 25.156 109.936 24.96C109.992 24.764 110.034 24.526 110.062 24.246C110.118 23.966 110.202 23.812 110.314 23.784C110.342 23.672 110.356 23.56 110.356 23.448C110.384 23.336 110.44 23.182 110.524 22.986C110.58 22.678 110.706 22.23 110.902 21.642C111.098 21.054 111.336 20.41 111.616 19.71C111.924 18.898 112.064 18.128 112.036 17.4C112.036 16.644 111.826 16.182 111.406 16.014C111.182 15.902 111.042 15.748 110.986 15.552C110.93 15.328 110.958 15.104 111.07 14.88C111.182 14.656 111.35 14.502 111.574 14.418C111.826 14.306 112.092 14.264 112.372 14.292C112.68 14.32 112.946 14.376 113.17 14.46C113.394 14.516 113.492 14.572 113.464 14.628C113.464 14.768 113.534 14.852 113.674 14.88C113.73 14.796 113.842 14.894 114.01 15.174C114.206 15.426 114.388 15.72 114.556 16.056C114.724 16.392 114.808 16.63 114.808 16.77C114.752 16.882 114.724 16.952 114.724 16.98C114.724 16.98 114.78 16.98 114.892 16.98C114.892 16.98 115.046 16.91 115.354 16.77C115.662 16.602 115.984 16.42 116.32 16.224C116.684 16 116.922 15.832 117.034 15.72C117.034 15.72 117.104 15.692 117.244 15.636C117.412 15.552 117.552 15.454 117.664 15.342C118.224 15.118 118.826 15.076 119.47 15.216C120.142 15.356 120.674 15.608 121.066 15.972C121.626 16.672 121.906 17.344 121.906 17.988C121.934 18.632 121.752 19.444 121.36 20.424C121.304 20.564 121.178 20.802 120.982 21.138C120.814 21.446 120.646 21.74 120.478 22.02C120.31 22.272 120.226 22.398 120.226 22.398C119.582 23.406 118.826 24.246 117.958 24.918C117.09 25.59 116.208 26.178 115.312 26.682C115.032 26.878 114.738 27.032 114.43 27.144C114.15 27.228 113.898 27.284 113.674 27.312C113.45 27.312 113.296 27.284 113.212 27.228C112.904 27.004 112.624 26.528 112.372 25.8C112.232 26.164 112.092 26.528 111.952 26.892C111.84 27.228 111.77 27.452 111.742 27.564C111.714 27.76 111.686 27.928 111.658 28.068C111.63 28.18 111.56 28.278 111.448 28.362C111.448 28.362 111.434 28.418 111.406 28.53C111.378 28.642 111.28 28.81 111.112 29.034C110.832 29.846 110.58 30.546 110.356 31.134C110.132 31.75 109.95 32.268 109.81 32.688C109.67 33.136 109.558 33.528 109.474 33.864C109.418 34.62 109.264 35.362 109.012 36.09C108.76 36.846 108.564 37.266 108.424 37.35ZM113.422 25.38C113.534 25.324 113.772 25.17 114.136 24.918C114.528 24.638 114.962 24.316 115.438 23.952C115.914 23.56 116.348 23.196 116.74 22.86C117.16 22.524 117.44 22.272 117.58 22.104C117.804 21.852 118.014 21.586 118.21 21.306C118.406 20.998 118.56 20.662 118.672 20.298C118.756 20.074 118.854 19.822 118.966 19.542C119.078 19.262 119.176 18.996 119.26 18.744C119.372 18.52 119.414 18.296 119.386 18.072C119.386 17.82 119.302 17.61 119.134 17.442C119.022 17.414 118.686 17.498 118.126 17.694C117.566 17.862 116.95 18.156 116.278 18.576C115.606 18.968 115.018 19.486 114.514 20.13C113.926 20.886 113.492 21.67 113.212 22.482C112.96 23.294 112.848 23.98 112.876 24.54C112.932 25.1 113.114 25.38 113.422 25.38ZM135.889 29.496C134.965 29.16 134.251 28.53 133.747 27.606C133.243 26.654 132.921 25.73 132.781 24.834C132.753 24.834 132.669 24.89 132.529 25.002C132.417 25.086 132.277 25.226 132.109 25.422C131.717 25.814 131.227 26.304 130.639 26.892C130.051 27.452 129.435 27.956 128.791 28.404C128.175 28.824 127.587 29.006 127.027 28.95C126.803 28.81 126.565 28.656 126.313 28.488C126.089 28.292 125.865 28.096 125.641 27.9C125.529 27.788 125.431 27.676 125.347 27.564C125.291 27.452 125.235 27.326 125.179 27.186C124.871 26.346 124.703 25.604 124.675 24.96C124.647 24.288 124.717 23.63 124.885 22.986C125.081 22.314 125.305 21.572 125.557 20.76C125.585 20.676 125.683 20.326 125.851 19.71C126.047 19.094 126.271 18.394 126.523 17.61C126.775 16.826 127.013 16.126 127.237 15.51C127.489 14.894 127.671 14.53 127.783 14.418C127.867 14.418 127.951 14.418 128.035 14.418C128.147 14.39 128.245 14.376 128.329 14.376C128.609 14.376 128.819 14.474 128.959 14.67C129.071 14.838 129.211 14.964 129.379 15.048C129.575 15.132 129.715 15.244 129.799 15.384C129.939 15.664 129.841 16.266 129.505 17.19C129.169 18.086 128.805 19.108 128.413 20.256C128.049 21.292 127.741 22.342 127.489 23.406C127.237 24.442 127.223 25.31 127.447 26.01C127.643 26.01 127.909 25.842 128.245 25.506C128.609 25.142 128.889 24.89 129.085 24.75C129.365 24.582 129.729 24.26 130.177 23.784C130.653 23.28 131.115 22.776 131.563 22.272C132.011 21.74 132.319 21.334 132.487 21.054C132.599 20.886 132.767 20.578 132.991 20.13C133.215 19.654 133.439 19.15 133.663 18.618C133.915 18.058 134.111 17.54 134.251 17.064C134.419 16.588 134.489 16.252 134.461 16.056C134.433 15.776 134.461 15.566 134.545 15.426C134.657 15.258 134.825 15.104 135.049 14.964C135.189 14.964 135.343 14.964 135.511 14.964C135.679 14.964 135.833 14.978 135.973 15.006C136.141 15.202 136.323 15.384 136.519 15.552C136.715 15.72 136.911 15.902 137.107 16.098C137.247 16.63 137.163 17.344 136.855 18.24C136.547 19.136 136.239 20.102 135.931 21.138C135.623 22.174 135.427 23.224 135.343 24.288C135.259 25.324 135.539 26.234 136.183 27.018C136.771 26.766 137.219 26.528 137.527 26.304C137.863 26.052 138.185 25.8 138.493 25.548C138.801 25.268 139.193 24.988 139.669 24.708C139.949 24.876 140.159 25.212 140.299 25.716C140.439 26.22 140.509 26.626 140.509 26.934C140.397 27.018 140.285 27.102 140.173 27.186C140.089 27.242 140.019 27.326 139.963 27.438C139.795 27.802 139.459 28.166 138.955 28.53C138.451 28.894 137.919 29.188 137.359 29.412C136.799 29.608 136.309 29.636 135.889 29.496ZM148.209 18.996C147.677 19.192 147.229 19.29 146.865 19.29C146.529 19.262 146.151 19.094 145.731 18.786C145.199 18.282 145.017 17.778 145.185 17.274C145.381 16.742 145.843 16.224 146.571 15.72C147.075 15.412 147.439 15.244 147.663 15.216C147.915 15.188 148.293 15.286 148.797 15.51C149.637 16.042 150.001 16.63 149.889 17.274C149.805 17.918 149.245 18.492 148.209 18.996ZM145.269 27.816C144.737 28.012 144.289 28.11 143.925 28.11C143.589 28.082 143.211 27.914 142.791 27.606C142.259 27.102 142.077 26.598 142.245 26.094C142.441 25.562 142.903 25.044 143.631 24.54C144.135 24.232 144.499 24.064 144.723 24.036C144.975 24.008 145.353 24.106 145.857 24.33C146.697 24.862 147.061 25.45 146.949 26.094C146.865 26.738 146.305 27.312 145.269 27.816ZM165.489 30.042C165.209 30.07 164.789 30 164.229 29.832C163.697 29.636 163.333 29.44 163.137 29.244C162.941 28.964 162.759 28.628 162.591 28.236C162.451 27.844 162.339 27.494 162.255 27.186C162.199 26.85 162.171 26.654 162.171 26.598L162.675 23.112C162.815 22.86 162.885 22.594 162.885 22.314C162.913 22.034 162.983 21.768 163.095 21.516C163.067 21.376 163.109 21.096 163.221 20.676C163.361 20.228 163.515 19.738 163.683 19.206C163.879 18.646 164.061 18.142 164.229 17.694C164.397 17.218 164.495 16.91 164.523 16.77C164.635 16.35 164.789 15.93 164.985 15.51C165.181 15.09 165.363 14.67 165.531 14.25C165.755 13.522 165.923 12.99 166.035 12.654C166.147 12.318 166.245 12.052 166.329 11.856C166.441 11.66 166.567 11.436 166.707 11.184C166.847 10.904 167.043 10.484 167.295 9.924L169.773 4.296C169.493 4.156 169.241 3.89 169.017 3.498C168.793 3.078 168.681 2.7 168.681 2.364C168.653 2.196 168.681 2.084 168.765 2.028C168.849 1.944 168.989 1.86 169.185 1.776C169.493 1.776 169.815 1.762 170.151 1.734C170.487 1.706 170.823 1.72 171.159 1.776C171.411 1.804 171.579 1.79 171.663 1.734C171.747 1.65 171.915 1.636 172.167 1.692C172.419 1.776 172.671 1.804 172.923 1.776C173.203 1.748 173.441 1.678 173.637 1.566C173.721 1.566 173.973 1.552 174.393 1.524C174.813 1.496 175.275 1.468 175.779 1.44C176.311 1.412 176.773 1.384 177.165 1.356C177.585 1.328 177.837 1.314 177.921 1.314C177.893 1.314 178.075 1.3 178.467 1.272C178.887 1.244 179.377 1.216 179.937 1.188C180.497 1.132 181.001 1.09 181.449 1.062C181.897 1.006 182.149 0.963998 182.205 0.935999C182.793 0.795999 183.199 0.851999 183.423 1.104C183.647 1.356 183.815 1.594 183.927 1.818C183.983 1.958 184.053 2.112 184.137 2.28C184.221 2.42 184.277 2.546 184.305 2.658C184.361 2.742 184.347 2.798 184.263 2.826C184.123 3.022 183.927 3.162 183.675 3.246C183.451 3.33 183.185 3.316 182.877 3.204C182.765 3.176 182.359 3.176 181.659 3.204C180.959 3.232 180.105 3.288 179.097 3.372C178.117 3.456 177.109 3.554 176.073 3.666C175.065 3.75 174.183 3.834 173.427 3.918C173.147 4.086 172.909 4.31 172.713 4.59C172.517 4.842 172.335 5.122 172.167 5.43C172.083 5.598 171.887 5.99 171.579 6.606C171.299 7.222 170.991 7.894 170.655 8.622C170.319 9.35 170.039 9.98 169.815 10.512C169.591 11.016 169.479 11.254 169.479 11.226C169.255 11.534 169.311 11.716 169.647 11.772C170.011 11.828 170.319 11.856 170.571 11.856C170.795 11.856 171.019 11.912 171.243 12.024C171.495 12.108 171.733 12.136 171.957 12.108C172.097 12.08 172.363 12.122 172.755 12.234C173.175 12.318 173.623 12.444 174.099 12.612C174.603 12.752 175.051 12.906 175.443 13.074C175.863 13.214 176.157 13.34 176.325 13.452C176.969 13.844 177.529 14.236 178.005 14.628C178.481 15.02 178.859 15.496 179.139 16.056C179.419 16.616 179.657 17.19 179.853 17.778C180.049 18.366 180.119 18.982 180.063 19.626C180.063 19.766 180.021 20.06 179.937 20.508C179.881 20.928 179.797 21.362 179.685 21.81C179.573 22.258 179.447 22.594 179.307 22.818C178.971 23.378 178.607 23.91 178.215 24.414C177.851 24.89 177.515 25.31 177.207 25.674C176.759 26.234 176.227 26.71 175.611 27.102C175.023 27.466 174.407 27.802 173.763 28.11C173.259 28.362 172.867 28.558 172.587 28.698C172.335 28.81 172.097 28.894 171.873 28.95C171.649 29.006 171.341 29.076 170.949 29.16C170.977 29.16 170.837 29.202 170.529 29.286C170.221 29.342 169.913 29.412 169.605 29.496C169.297 29.58 169.143 29.622 169.143 29.622C168.779 29.818 168.401 29.944 168.009 30C167.617 30.028 167.225 30.042 166.833 30.042C166.609 30.042 166.385 30.028 166.161 30C165.937 30 165.713 30.014 165.489 30.042ZM165.111 27.816C165.531 27.788 165.965 27.774 166.413 27.774C166.861 27.774 167.309 27.718 167.757 27.606C169.157 27.214 170.459 26.794 171.663 26.346C172.895 25.898 174.015 25.114 175.023 23.994C175.723 23.182 176.241 22.426 176.577 21.726C176.941 21.026 177.221 20.228 177.417 19.332C177.529 18.884 177.529 18.478 177.417 18.114C177.305 17.722 177.207 17.26 177.123 16.728C176.871 16.14 176.633 15.748 176.409 15.552C176.185 15.328 175.961 15.188 175.737 15.132C175.513 15.076 175.289 14.992 175.065 14.88C174.701 14.572 174.183 14.362 173.511 14.25C172.839 14.138 172.377 14.068 172.125 14.04C172.293 14.068 172.251 14.068 171.999 14.04C171.775 13.984 171.439 13.928 170.991 13.872C170.543 13.788 170.095 13.718 169.647 13.662C169.199 13.606 168.849 13.578 168.597 13.578C168.401 14.026 168.191 14.516 167.967 15.048C167.771 15.58 167.561 16.112 167.337 16.644C167.141 17.148 166.959 17.652 166.791 18.156C166.511 18.968 166.245 19.794 165.993 20.634C165.741 21.446 165.503 22.272 165.279 23.112C165.167 23.588 165.055 24.162 164.943 24.834C164.831 25.506 164.775 26.136 164.775 26.724C164.803 27.284 164.915 27.648 165.111 27.816ZM182.952 28.488C182.84 28.264 182.7 28.096 182.532 27.984C182.364 27.844 182.28 27.718 182.28 27.606C182.28 27.494 182.266 27.382 182.238 27.27C182.238 27.13 182.182 27.004 182.07 26.892C181.93 26.724 181.944 26.346 182.112 25.758C182.28 25.142 182.56 24.4 182.952 23.532C183.344 22.636 183.806 21.698 184.338 20.718C184.562 20.494 184.786 20.2 185.01 19.836C185.234 19.472 185.402 19.234 185.514 19.122C185.514 19.01 185.556 18.912 185.64 18.828C185.724 18.716 185.822 18.66 185.934 18.66V18.408C185.934 18.268 186.06 18.03 186.312 17.694C186.592 17.358 186.928 16.994 187.32 16.602C187.712 16.182 188.118 15.79 188.538 15.426C188.958 15.034 189.308 14.754 189.588 14.586C190.176 14.194 190.778 13.956 191.394 13.872C192.038 13.788 192.584 13.928 193.032 14.292C193.116 14.376 193.256 14.516 193.452 14.712C193.648 14.908 193.872 15.132 194.124 15.384C194.404 15.608 194.684 15.846 194.964 16.098L196.518 17.484L195.762 19.584C195.398 20.704 195.3 21.684 195.468 22.524C195.664 23.364 195.944 24.092 196.308 24.708C196.448 25.016 196.728 25.31 197.148 25.59C197.596 25.87 198.016 26.038 198.408 26.094C198.632 26.122 198.842 26.206 199.038 26.346C199.234 26.486 199.332 26.71 199.332 27.018C199.332 27.298 199.276 27.522 199.164 27.69C199.052 27.858 198.856 27.97 198.576 28.026C197.652 28.138 196.784 27.914 195.972 27.354C195.188 26.794 194.46 25.87 193.788 24.582C193.676 24.414 193.522 24.106 193.326 23.658C193.158 23.182 193.06 22.874 193.032 22.734C192.92 22.874 192.71 23.14 192.402 23.532C192.094 23.896 191.856 24.162 191.688 24.33C189.7 26.346 187.978 27.704 186.522 28.404C185.094 29.076 183.904 29.104 182.952 28.488ZM184.464 26.136C184.464 26.332 184.758 26.332 185.346 26.136C185.962 25.912 186.62 25.52 187.32 24.96C188.272 24.148 189.224 23.252 190.176 22.272C191.156 21.292 191.94 20.382 192.528 19.542L193.452 18.03C193.172 17.386 192.864 16.952 192.528 16.728C192.22 16.476 191.954 16.35 191.73 16.35C191.366 16.35 190.82 16.686 190.092 17.358C189.392 18.03 188.636 18.926 187.824 20.046C187.012 21.166 186.242 22.398 185.514 23.742C185.234 24.302 184.982 24.848 184.758 25.38C184.562 25.884 184.464 26.136 184.464 26.136ZM210.946 29.244C210.498 29.104 210.106 28.894 209.77 28.614C209.434 28.306 209.112 27.97 208.804 27.606C208.664 27.438 208.426 27.102 208.09 26.598C207.754 26.094 207.39 25.534 206.998 24.918C206.634 24.302 206.284 23.728 205.948 23.196C205.612 22.636 205.36 22.216 205.192 21.936C205.052 22.356 204.898 22.706 204.73 22.986C204.59 23.238 204.52 23.644 204.52 24.204C204.24 24.596 204.03 25.044 203.89 25.548C203.778 26.024 203.652 26.5 203.512 26.976C203.428 27.284 203.288 27.564 203.092 27.816C202.924 28.068 202.7 28.292 202.42 28.488C202.084 28.46 201.79 28.348 201.538 28.152C201.314 27.956 201.118 27.76 200.95 27.564C200.782 27.228 200.712 26.906 200.74 26.598C200.768 26.29 200.838 25.996 200.95 25.716C201.006 25.464 201.16 24.974 201.412 24.246C201.692 23.518 201.986 22.734 202.294 21.894C202.602 21.026 202.882 20.256 203.134 19.584C203.386 18.884 203.526 18.45 203.554 18.282C203.722 17.722 204.016 17.12 204.436 16.476C204.884 15.804 205.192 15.076 205.36 14.292C205.416 14.096 205.556 13.914 205.78 13.746C206.004 13.55 206.256 13.452 206.536 13.452C206.844 13.424 207.096 13.578 207.292 13.914C207.348 13.942 207.432 13.984 207.544 14.04C207.656 14.068 207.74 14.124 207.796 14.208C208.02 14.46 208.146 14.726 208.174 15.006C208.23 15.286 208.174 15.58 208.006 15.888C207.642 16.532 207.334 17.064 207.082 17.484C206.858 17.876 206.634 18.31 206.41 18.786C206.186 19.262 205.934 19.92 205.654 20.76C206.13 20.648 206.48 20.564 206.704 20.508C206.928 20.424 207.138 20.298 207.334 20.13C207.558 19.934 207.852 19.64 208.216 19.248C208.356 19.108 208.636 18.842 209.056 18.45C209.504 18.03 209.966 17.582 210.442 17.106C210.946 16.63 211.38 16.21 211.744 15.846C212.136 15.482 212.346 15.272 212.374 15.216C212.542 14.964 212.71 14.74 212.878 14.544C213.074 14.32 213.326 14.152 213.634 14.04C214.054 14.096 214.348 14.18 214.516 14.292C214.684 14.376 215.006 14.614 215.482 15.006C215.622 15.118 215.678 15.384 215.65 15.804C215.622 16.196 215.468 16.504 215.188 16.728C214.684 17.12 214.054 17.624 213.298 18.24C212.542 18.856 211.73 19.5 210.862 20.172C210.022 20.844 209.182 21.474 208.342 22.062C208.734 22.706 209.084 23.322 209.392 23.91C209.7 24.47 209.952 24.946 210.148 25.338C210.204 26.038 210.456 26.514 210.904 26.766C211.38 26.99 211.954 27.102 212.626 27.102C212.85 27.214 212.99 27.354 213.046 27.522C213.13 27.662 213.172 27.83 213.172 28.026C213.2 28.194 213.228 28.362 213.256 28.53C212.864 28.782 212.584 29.006 212.416 29.202C212.276 29.37 212.108 29.468 211.912 29.496C211.744 29.496 211.422 29.412 210.946 29.244ZM217.672 28.446C217.588 28.334 217.504 28.194 217.42 28.026C217.364 27.858 217.336 27.718 217.336 27.606C217.336 27.55 217.322 27.48 217.294 27.396C217.294 27.312 217.238 27.27 217.126 27.27C217.042 27.186 217.098 26.864 217.294 26.304C217.518 25.716 217.798 25.044 218.134 24.288C218.498 23.532 218.862 22.804 219.226 22.104C219.618 21.376 219.94 20.802 220.192 20.382C220.332 20.298 220.416 20.186 220.444 20.046C220.5 19.878 220.5 19.794 220.444 19.794C220.444 19.794 220.514 19.668 220.654 19.416C220.822 19.136 220.948 18.954 221.032 18.87C221.256 18.478 221.424 18.086 221.536 17.694C221.648 17.274 221.676 16.924 221.62 16.644C221.508 16.504 221.382 16.462 221.242 16.518C221.102 16.574 221.032 16.602 221.032 16.602C220.92 16.63 220.752 16.686 220.528 16.77C220.332 16.826 220.15 16.91 219.982 17.022C219.338 17.47 218.904 17.68 218.68 17.652C218.456 17.596 218.204 17.232 217.924 16.56C217.812 16.252 217.77 16.028 217.798 15.888C217.826 15.748 217.938 15.594 218.134 15.426C218.358 15.23 218.568 15.104 218.764 15.048C218.96 14.964 219.114 14.88 219.226 14.796C219.534 14.6 219.786 14.46 219.982 14.376C220.206 14.292 220.374 14.236 220.486 14.208C221.214 13.984 221.83 13.942 222.334 14.082C222.838 14.222 223.216 14.586 223.468 15.174C223.86 15.65 224.056 16.196 224.056 16.812C224.056 17.4 223.86 18.086 223.468 18.87L223.048 19.5C222.908 19.78 222.88 19.92 222.964 19.92C223.076 19.92 223.202 19.822 223.342 19.626C223.426 19.514 223.594 19.346 223.846 19.122C224.098 18.898 224.266 18.786 224.35 18.786C224.35 18.786 224.378 18.772 224.434 18.744C224.518 18.716 224.56 18.604 224.56 18.408C224.644 18.324 224.728 18.24 224.812 18.156C224.924 18.072 224.98 18.03 224.98 18.03C225.092 18.03 225.302 17.904 225.61 17.652C225.946 17.372 226.338 17.05 226.786 16.686C227.094 16.462 227.374 16.35 227.626 16.35C228.27 16.154 228.788 16.364 229.18 16.98C229.6 17.596 229.81 18.394 229.81 19.374L228.928 21.642L230.44 19.794C230.608 19.57 230.776 19.374 230.944 19.206C231.14 19.038 231.308 18.898 231.448 18.786C231.504 18.59 231.588 18.478 231.7 18.45C231.812 18.422 231.868 18.408 231.868 18.408C231.868 18.408 231.896 18.408 231.952 18.408C232.008 18.38 232.036 18.324 232.036 18.24C232.176 18.128 232.33 18.03 232.498 17.946C232.666 17.834 232.778 17.722 232.834 17.61C233.31 17.414 233.744 17.386 234.136 17.526C234.528 17.638 234.864 17.988 235.144 18.576C235.34 18.912 235.452 19.206 235.48 19.458C235.508 19.71 235.522 20.088 235.522 20.592C235.466 21.012 235.41 21.348 235.354 21.6C235.326 21.824 235.298 22.062 235.27 22.314C235.242 22.566 235.2 22.916 235.144 23.364C235.032 23.588 234.962 23.826 234.934 24.078C234.934 24.33 234.934 24.568 234.934 24.792C234.934 25.156 234.948 25.408 234.976 25.548C235.004 25.66 235.116 25.716 235.312 25.716C235.704 25.632 236.236 25.436 236.908 25.128C237.608 24.792 238.126 24.47 238.462 24.162C238.882 23.77 239.246 23.574 239.554 23.574C239.89 23.546 240.1 23.7 240.184 24.036C240.24 24.148 240.142 24.4 239.89 24.792C239.666 25.184 239.4 25.562 239.092 25.926C238.812 26.29 238.602 26.472 238.462 26.472C238.378 26.472 238.28 26.556 238.168 26.724C238.056 26.864 237.93 26.976 237.79 27.06C237.594 27.256 237.398 27.438 237.202 27.606C237.034 27.774 236.838 27.858 236.614 27.858C236.502 27.858 236.362 27.9 236.194 27.984C236.054 28.04 235.886 28.068 235.69 28.068C235.41 28.152 234.976 28.11 234.388 27.942C233.828 27.774 233.464 27.382 233.296 26.766C233.184 26.458 233.086 25.968 233.002 25.296C232.918 24.596 232.932 23.896 233.044 23.196C233.156 22.692 233.226 22.23 233.254 21.81C233.282 21.39 233.338 21.096 233.422 20.928C233.422 20.844 233.422 20.648 233.422 20.34C233.422 20.004 233.38 19.836 233.296 19.836C233.184 19.836 232.918 20.046 232.498 20.466C232.106 20.858 231.63 21.362 231.07 21.978C230.538 22.594 230.006 23.238 229.474 23.91C228.942 24.582 228.508 25.184 228.172 25.716C227.92 26.024 227.696 26.402 227.5 26.85C227.304 27.298 227.164 27.55 227.08 27.606C226.884 27.83 226.646 27.858 226.366 27.69C226.114 27.522 225.876 27.256 225.652 26.892C225.568 26.724 225.512 26.584 225.484 26.472C225.456 26.332 225.456 26.15 225.484 25.926C225.54 25.674 225.638 25.31 225.778 24.834C225.946 24.358 226.17 23.686 226.45 22.818C226.758 21.866 227.024 21.012 227.248 20.256C227.5 19.472 227.626 19.08 227.626 19.08C227.626 18.968 227.416 19.08 226.996 19.416C226.576 19.724 226.086 20.116 225.526 20.592C225.274 20.9 224.854 21.362 224.266 21.978C223.678 22.594 223.034 23.294 222.334 24.078C221.634 24.862 220.962 25.688 220.318 26.556C219.506 27.704 218.932 28.404 218.596 28.656C218.288 28.908 217.98 28.838 217.672 28.446ZM249.605 29.454C248.653 29.706 247.981 29.832 247.589 29.832C247.197 29.832 246.777 29.636 246.329 29.244C246.189 29.104 246.105 28.964 246.077 28.824C246.049 28.656 245.979 28.558 245.867 28.53C245.839 28.334 245.853 28.18 245.909 28.068C245.993 27.928 246.175 27.802 246.455 27.69C246.875 27.942 247.407 28.012 248.051 27.9C248.695 27.788 249.325 27.55 249.941 27.186C250.585 26.794 251.089 26.332 251.453 25.8C252.013 25.128 252.447 24.498 252.755 23.91C253.063 23.294 253.231 22.748 253.259 22.272C253.259 21.992 253.217 21.796 253.133 21.684C253.077 21.544 252.937 21.334 252.713 21.054C252.209 21.222 251.747 21.418 251.327 21.642C250.935 21.866 250.613 22.104 250.361 22.356C249.521 23.056 248.863 23.63 248.387 24.078C247.939 24.526 247.547 24.974 247.211 25.422C246.903 25.87 246.511 26.472 246.035 27.228C245.811 27.508 245.601 27.718 245.405 27.858C245.237 27.998 245.055 28.068 244.859 28.068C244.943 28.628 244.747 28.964 244.271 29.076C243.655 28.936 243.207 28.754 242.927 28.53C242.647 28.278 242.563 27.802 242.675 27.102C242.787 26.71 242.899 26.248 243.011 25.716C243.123 25.156 243.249 24.694 243.389 24.33C244.061 22.538 244.649 20.942 245.153 19.542C245.685 18.142 246.147 17.148 246.539 16.56L247.463 14.166C247.939 14.194 248.303 14.292 248.555 14.46C248.807 14.6 249.101 14.95 249.437 15.51C249.437 15.65 249.297 16.056 249.017 16.728C248.765 17.372 248.457 18.114 248.093 18.954C247.757 19.794 247.435 20.578 247.127 21.306C246.847 22.006 246.651 22.496 246.539 22.776C246.427 23.084 246.511 23.028 246.791 22.608C247.099 22.188 247.631 21.656 248.387 21.012C248.751 20.648 249.199 20.312 249.731 20.004C250.263 19.668 250.711 19.416 251.075 19.248C251.467 19.08 251.789 18.982 252.041 18.954C252.293 18.926 252.475 18.898 252.587 18.87C253.287 18.87 253.847 19.052 254.267 19.416C254.687 19.752 254.981 20.144 255.149 20.592C255.345 21.04 255.443 21.404 255.443 21.684C255.527 22.132 255.583 22.566 255.611 22.986C255.667 23.378 255.639 23.798 255.527 24.246C255.443 24.47 255.289 24.778 255.065 25.17C254.841 25.562 254.575 25.968 254.267 26.388C253.987 26.78 253.651 27.102 253.259 27.354C253.007 27.606 252.671 27.872 252.251 28.152C251.831 28.432 251.383 28.698 250.907 28.95C250.459 29.174 250.025 29.342 249.605 29.454ZM258.341 30.126C257.837 30.07 257.417 29.916 257.081 29.664C256.773 29.384 256.549 28.978 256.409 28.446C256.409 27.97 256.465 27.536 256.577 27.144C256.717 26.724 256.829 26.318 256.913 25.926C257.053 25.282 257.249 24.638 257.501 23.994C257.753 23.35 257.977 22.706 258.173 22.062C258.341 21.67 258.481 21.292 258.593 20.928C258.705 20.564 258.817 20.2 258.929 19.836C259.069 19.388 259.209 18.954 259.349 18.534C259.489 18.114 259.629 17.694 259.769 17.274C259.881 16.91 259.965 16.532 260.021 16.14C260.105 15.748 260.175 15.356 260.231 14.964C260.539 14.628 260.875 14.488 261.239 14.544C261.631 14.6 262.107 14.922 262.667 15.51C262.807 15.846 262.877 16.154 262.877 16.434C262.877 16.686 262.807 16.952 262.667 17.232C262.555 17.484 262.401 17.862 262.205 18.366C262.037 18.87 261.855 19.374 261.659 19.878C261.491 20.354 261.365 20.718 261.281 20.97C261.225 21.278 261.071 21.782 260.819 22.482C260.595 23.182 260.357 23.91 260.105 24.666C259.853 25.394 259.671 25.982 259.559 26.43C259.391 26.85 259.265 27.256 259.181 27.648C259.097 28.04 259.013 28.53 258.929 29.118C258.985 29.37 258.943 29.58 258.803 29.748C258.691 29.888 258.537 30.014 258.341 30.126ZM267.258 29.79C267.062 29.678 266.852 29.566 266.628 29.454C266.432 29.342 266.236 29.23 266.04 29.118C265.872 29.006 265.718 28.894 265.578 28.782C264.99 28.25 264.598 27.676 264.402 27.06C264.234 26.416 264.178 25.8 264.234 25.212C264.29 24.624 264.374 24.12 264.486 23.7C264.598 23.252 264.654 22.944 264.654 22.776C264.626 22.552 264.668 22.342 264.78 22.146C264.892 21.922 265.004 21.698 265.116 21.474C265.62 20.494 266.082 19.654 266.502 18.954C266.95 18.226 267.594 17.386 268.434 16.434C268.602 16.294 268.756 16.168 268.896 16.056C269.064 15.916 269.232 15.818 269.4 15.762L270.366 16.476C270.478 16.588 270.548 16.728 270.576 16.896C270.604 17.036 270.576 17.232 270.492 17.484C270.436 17.68 270.366 17.876 270.282 18.072C270.226 18.24 270.142 18.394 270.03 18.534C269.554 18.982 269.176 19.486 268.896 20.046C268.616 20.578 268.322 21.124 268.014 21.684C268.014 21.936 267.916 22.146 267.72 22.314C267.524 22.454 267.412 22.664 267.384 22.944C267.384 23.14 267.356 23.336 267.3 23.532C267.244 23.728 267.188 23.938 267.132 24.162C266.936 24.61 266.852 25.044 266.88 25.464C266.908 25.884 266.922 26.318 266.922 26.766C267.146 26.878 267.342 26.948 267.51 26.976C267.678 26.976 267.902 26.836 268.182 26.556C268.742 26.08 269.134 25.66 269.358 25.296C269.61 24.932 269.806 24.568 269.946 24.204C270.086 23.84 270.282 23.42 270.534 22.944C270.814 22.468 271.052 21.866 271.248 21.138C271.444 20.41 271.584 19.724 271.668 19.08C271.752 18.408 271.752 17.96 271.668 17.736C271.64 17.596 271.654 17.428 271.71 17.232C271.766 17.036 271.682 16.84 271.458 16.644C271.57 16.532 271.626 16.322 271.626 16.014C271.626 15.706 271.598 15.384 271.542 15.048C271.486 14.712 271.402 14.474 271.29 14.334C271.234 13.214 271.192 12.276 271.164 11.52C271.164 10.736 271.178 10.064 271.206 9.504C271.262 8.916 271.332 8.37 271.416 7.866C271.444 7.782 271.612 7.502 271.92 7.026C272.256 6.522 272.564 6.13 272.844 5.85C273.32 5.43 273.964 5.108 274.776 4.884C275.616 4.632 276.33 4.534 276.918 4.59C276.89 4.618 277.058 4.632 277.422 4.632C277.814 4.632 278.248 4.618 278.724 4.59C279.2 4.562 279.55 4.534 279.774 4.506C279.998 4.45 280.222 4.394 280.446 4.338C280.67 4.282 281.048 4.1 281.58 3.792C281.804 3.652 281.986 3.61 282.126 3.666L283.26 4.632C283.232 5.416 283.036 6.004 282.672 6.396C282.308 6.76 281.608 6.998 280.572 7.11C280.404 7.11 280.222 7.11 280.026 7.11C279.83 7.082 279.634 7.096 279.438 7.152C279.27 7.208 279.116 7.208 278.976 7.152C278.864 7.096 278.696 7.068 278.472 7.068C278.164 7.068 277.842 7.11 277.506 7.194C277.17 7.25 276.82 7.236 276.456 7.152C275.448 7.432 274.664 7.81 274.104 8.286C273.544 8.762 273.264 9.546 273.264 10.638C273.376 11.674 273.516 12.598 273.684 13.41C273.88 14.222 273.978 15.118 273.978 16.098C274.034 16.35 274.104 16.56 274.188 16.728C274.272 16.896 274.23 17.078 274.062 17.274C274.202 17.918 274.272 18.548 274.272 19.164C274.272 19.752 274.188 20.2 274.02 20.508C273.964 20.704 273.922 21.068 273.894 21.6C273.894 22.104 273.754 22.636 273.474 23.196C272.83 24.512 272.172 25.688 271.5 26.724C270.828 27.732 269.974 28.586 268.938 29.286C268.742 29.398 268.504 29.482 268.224 29.538C267.972 29.594 267.65 29.678 267.258 29.79ZM284.714 28.53C284.126 29.034 283.44 29.328 282.656 29.412C281.9 29.496 281.158 29.384 280.43 29.076C279.702 28.74 279.1 28.236 278.624 27.564C278.148 26.948 277.84 26.248 277.7 25.464C277.56 24.652 277.546 23.602 277.658 22.314C277.742 21.222 278.092 20.13 278.708 19.038C279.324 17.918 280.066 16.924 280.934 16.056C281.83 15.188 282.712 14.586 283.58 14.25C284 13.97 284.35 13.844 284.63 13.872C284.938 13.872 285.4 13.9 286.016 13.956C286.66 14.04 287.136 14.166 287.444 14.334C287.78 14.502 288.046 14.726 288.242 15.006C288.662 15.426 288.942 15.846 289.082 16.266C289.222 16.658 289.292 17.05 289.292 17.442C289.18 18.058 288.76 18.814 288.032 19.71C287.332 20.578 286.408 21.292 285.26 21.852C284.644 22.048 283.972 22.132 283.244 22.104C282.516 22.076 281.914 21.894 281.438 21.558C280.906 21.334 280.556 21.376 280.388 21.684C280.22 21.964 280.066 22.664 279.926 23.784C279.814 24.848 279.898 25.632 280.178 26.136C280.458 26.612 280.836 26.892 281.312 26.976C281.872 27.088 282.306 27.172 282.614 27.228C282.95 27.256 283.356 27.13 283.832 26.85C284.28 26.57 284.56 26.416 284.672 26.388C284.784 26.332 284.868 26.276 284.924 26.22C285.008 26.136 285.19 25.954 285.47 25.674C285.666 25.478 285.82 25.338 285.932 25.254C286.044 25.142 286.17 25.086 286.31 25.086C286.45 25.086 286.576 25.156 286.688 25.296C286.8 25.408 286.912 25.492 287.024 25.548C287.304 25.548 287.36 25.716 287.192 26.052C287.052 26.388 286.758 26.794 286.31 27.27C285.862 27.718 285.33 28.138 284.714 28.53ZM284.672 19.626C284.98 19.486 285.302 19.29 285.638 19.038C285.974 18.758 286.254 18.464 286.478 18.156C286.73 17.82 286.856 17.54 286.856 17.316C286.856 16.924 286.674 16.602 286.31 16.35C285.946 16.07 285.4 16.028 284.672 16.224C284.364 16.308 284.014 16.518 283.622 16.854C283.23 17.162 282.852 17.512 282.488 17.904C282.152 18.296 281.872 18.646 281.648 18.954C281.452 19.262 281.382 19.444 281.438 19.5C281.522 19.64 281.76 19.752 282.152 19.836C282.544 19.892 282.978 19.906 283.454 19.878C283.958 19.85 284.364 19.766 284.672 19.626ZM291.484 29.79C291.26 29.706 291.022 29.538 290.77 29.286C290.518 29.006 290.308 28.684 290.14 28.32C289.972 27.956 289.888 27.62 289.888 27.312C290.028 27.004 290.21 26.472 290.434 25.716C290.658 24.932 290.938 24.036 291.274 23.028C291.498 22.72 291.666 22.356 291.778 21.936C291.918 21.516 292.044 21.138 292.156 20.802C292.38 20.354 292.646 19.78 292.954 19.08C293.262 18.352 293.556 17.624 293.836 16.896C294.144 16.14 294.41 15.51 294.634 15.006C294.942 14.278 295.124 13.83 295.18 13.662C295.236 13.466 295.278 13.312 295.306 13.2C295.306 12.976 295.362 12.794 295.474 12.654C295.586 12.486 295.698 12.402 295.81 12.402C295.922 12.29 296.048 12.234 296.188 12.234C296.356 12.206 296.496 12.192 296.608 12.192C296.916 12.192 297.182 12.402 297.406 12.822C297.63 13.214 297.742 13.578 297.742 13.914C297.742 14.25 297.616 14.726 297.364 15.342C297.14 15.93 296.874 16.546 296.566 17.19C296.286 17.834 296.048 18.394 295.852 18.87C295.656 19.346 295.6 19.626 295.684 19.71C295.684 19.71 295.88 19.626 296.272 19.458C296.664 19.262 297.084 18.996 297.532 18.66C297.84 18.492 298.176 18.282 298.54 18.03C298.904 17.778 299.254 17.54 299.59 17.316C299.926 17.064 300.206 16.91 300.43 16.854C300.766 16.63 301.116 16.42 301.48 16.224C301.844 16 302.082 15.832 302.194 15.72C302.67 15.496 303.02 15.426 303.244 15.51C303.496 15.594 303.748 15.804 304 16.14C304.308 16.504 304.364 16.826 304.168 17.106C303.972 17.358 303.51 17.708 302.782 18.156C302.194 18.52 301.48 18.954 300.64 19.458C299.828 19.962 299.1 20.41 298.456 20.802C297.84 21.194 297.49 21.432 297.406 21.516C297.406 21.516 297.518 21.726 297.742 22.146C297.966 22.566 298.19 22.944 298.414 23.28C298.638 23.728 298.876 24.148 299.128 24.54C299.408 24.904 299.548 25.156 299.548 25.296C299.772 25.884 300.052 26.374 300.388 26.766C300.724 27.13 301.102 27.368 301.522 27.48C301.97 27.564 302.418 27.508 302.866 27.312C303.426 27.088 303.832 27.018 304.084 27.102C304.364 27.186 304.56 27.396 304.672 27.732C304.784 27.956 304.812 28.124 304.756 28.236C304.728 28.32 304.546 28.53 304.21 28.866C303.678 29.398 303.132 29.734 302.572 29.874C302.04 30.014 301.55 29.972 301.102 29.748C300.822 29.748 300.5 29.636 300.136 29.412C299.772 29.16 299.324 28.754 298.792 28.194C298.288 27.634 297.658 26.85 296.902 25.842C296.902 25.73 296.846 25.576 296.734 25.38C296.65 25.156 296.552 24.946 296.44 24.75C296.328 24.526 296.188 24.288 296.02 24.036C295.852 23.756 295.768 23.616 295.768 23.616C295.768 23.532 295.74 23.462 295.684 23.406C295.656 23.322 295.6 23.224 295.516 23.112C295.46 23 295.39 22.874 295.306 22.734C294.858 22.594 294.536 22.678 294.34 22.986C294.144 23.294 293.934 23.616 293.71 23.952C293.57 24.316 293.388 24.834 293.164 25.506C292.968 26.15 292.8 26.78 292.66 27.396C292.548 28.012 292.52 28.432 292.576 28.656C292.576 29.104 292.506 29.412 292.366 29.58C292.226 29.72 291.932 29.79 291.484 29.79ZM328.252 29.496C327.328 29.16 326.614 28.53 326.11 27.606C325.606 26.654 325.284 25.73 325.144 24.834C325.116 24.834 325.032 24.89 324.892 25.002C324.78 25.086 324.64 25.226 324.472 25.422C324.08 25.814 323.59 26.304 323.002 26.892C322.414 27.452 321.798 27.956 321.154 28.404C320.538 28.824 319.95 29.006 319.39 28.95C319.166 28.81 318.928 28.656 318.676 28.488C318.452 28.292 318.228 28.096 318.004 27.9C317.892 27.788 317.794 27.676 317.71 27.564C317.654 27.452 317.598 27.326 317.542 27.186C317.234 26.346 317.066 25.604 317.038 24.96C317.01 24.288 317.08 23.63 317.248 22.986C317.444 22.314 317.668 21.572 317.92 20.76C317.948 20.676 318.046 20.326 318.214 19.71C318.41 19.094 318.634 18.394 318.886 17.61C319.138 16.826 319.376 16.126 319.6 15.51C319.852 14.894 320.034 14.53 320.146 14.418C320.23 14.418 320.314 14.418 320.398 14.418C320.51 14.39 320.608 14.376 320.692 14.376C320.972 14.376 321.182 14.474 321.322 14.67C321.434 14.838 321.574 14.964 321.742 15.048C321.938 15.132 322.078 15.244 322.162 15.384C322.302 15.664 322.204 16.266 321.868 17.19C321.532 18.086 321.168 19.108 320.776 20.256C320.412 21.292 320.104 22.342 319.852 23.406C319.6 24.442 319.586 25.31 319.81 26.01C320.006 26.01 320.272 25.842 320.608 25.506C320.972 25.142 321.252 24.89 321.448 24.75C321.728 24.582 322.092 24.26 322.54 23.784C323.016 23.28 323.478 22.776 323.926 22.272C324.374 21.74 324.682 21.334 324.85 21.054C324.962 20.886 325.13 20.578 325.354 20.13C325.578 19.654 325.802 19.15 326.026 18.618C326.278 18.058 326.474 17.54 326.614 17.064C326.782 16.588 326.852 16.252 326.824 16.056C326.796 15.776 326.824 15.566 326.908 15.426C327.02 15.258 327.188 15.104 327.412 14.964C327.552 14.964 327.706 14.964 327.874 14.964C328.042 14.964 328.196 14.978 328.336 15.006C328.504 15.202 328.686 15.384 328.882 15.552C329.078 15.72 329.274 15.902 329.47 16.098C329.61 16.63 329.526 17.344 329.218 18.24C328.91 19.136 328.602 20.102 328.294 21.138C327.986 22.174 327.79 23.224 327.706 24.288C327.622 25.324 327.902 26.234 328.546 27.018C329.134 26.766 329.582 26.528 329.89 26.304C330.226 26.052 330.548 25.8 330.856 25.548C331.164 25.268 331.556 24.988 332.032 24.708C332.312 24.876 332.522 25.212 332.662 25.716C332.802 26.22 332.872 26.626 332.872 26.934C332.76 27.018 332.648 27.102 332.536 27.186C332.452 27.242 332.382 27.326 332.326 27.438C332.158 27.802 331.822 28.166 331.318 28.53C330.814 28.894 330.282 29.188 329.722 29.412C329.162 29.608 328.672 29.636 328.252 29.496ZM346.838 31.05C346.726 30.994 346.558 30.952 346.334 30.924C346.138 30.924 345.844 30.924 345.452 30.924C345.34 30.868 345.214 30.784 345.074 30.672C344.934 30.56 344.766 30.378 344.57 30.126C344.626 29.706 344.682 29.3 344.738 28.908C344.822 28.488 344.92 28.096 345.032 27.732C345.256 27.06 345.424 26.374 345.536 25.674C345.676 24.974 345.83 24.274 345.998 23.574L346.964 21.6C347.104 20.9 347.286 20.228 347.51 19.584C347.762 18.912 348 18.254 348.224 17.61C348.448 16.994 348.658 16.42 348.854 15.888C349.078 15.328 349.288 14.81 349.484 14.334C349.624 14.054 349.806 13.62 350.03 13.032C350.254 12.416 350.478 11.772 350.702 11.1C350.954 10.428 351.192 9.882 351.416 9.462C351.472 9.322 351.528 9.21 351.584 9.126C351.64 9.014 351.682 8.86 351.71 8.664C351.346 8.692 350.968 8.636 350.576 8.496C350.184 8.356 349.946 8.188 349.862 7.992C349.862 7.964 349.834 7.824 349.778 7.572C349.75 7.32 349.708 7.068 349.652 6.816C349.624 6.564 349.61 6.452 349.61 6.48C349.778 6.34 350.072 6.228 350.492 6.144C350.94 6.06 351.22 6.004 351.332 5.976C351.808 5.752 352.158 5.612 352.382 5.556C352.606 5.472 353.04 5.36 353.684 5.22C353.824 5.192 354.202 5.108 354.818 4.968C355.434 4.828 356.12 4.674 356.876 4.506C357.66 4.338 358.36 4.198 358.976 4.086C359.592 3.946 359.984 3.876 360.152 3.876C360.432 3.848 360.698 3.834 360.95 3.834C361.23 3.834 361.51 3.778 361.79 3.666C361.846 3.61 362.014 3.596 362.294 3.624C362.574 3.624 362.896 3.624 363.26 3.624C363.624 3.596 363.918 3.54 364.142 3.456C364.394 3.372 364.674 3.344 364.982 3.372C365.318 3.372 365.626 3.316 365.906 3.204C366.046 3.12 366.2 3.092 366.368 3.12C366.564 3.148 366.774 3.162 366.998 3.162C367.362 3.358 367.628 3.554 367.796 3.75C367.992 3.918 368.146 4.156 368.258 4.464V5.262C368.034 5.402 367.768 5.584 367.46 5.808C367.152 6.032 366.886 6.172 366.662 6.228C366.522 6.256 366.368 6.298 366.2 6.354C366.06 6.41 365.892 6.494 365.696 6.606C365.388 6.774 365.108 6.872 364.856 6.9C364.632 6.928 364.394 6.886 364.142 6.774C364.03 6.69 363.904 6.648 363.764 6.648C363.652 6.648 363.526 6.634 363.386 6.606C363.33 6.438 363.26 6.312 363.176 6.228C363.12 6.116 363.064 6.032 363.008 5.976C362.952 5.892 362.868 5.822 362.756 5.766C362.336 5.962 361.902 6.032 361.454 5.976C361.006 5.892 360.572 5.948 360.152 6.144C359.732 6.172 359.312 6.214 358.892 6.27C358.5 6.326 358.108 6.424 357.716 6.564C357.296 6.676 356.862 6.76 356.414 6.816C355.994 6.872 355.588 6.998 355.196 7.194C354.804 7.95 354.552 8.454 354.44 8.706C354.328 8.93 354.202 9.196 354.062 9.504C353.726 10.204 353.404 10.918 353.096 11.646C352.788 12.374 352.508 13.102 352.256 13.83L350.03 19.836C349.946 19.976 349.82 20.298 349.652 20.802C349.484 21.278 349.302 21.824 349.106 22.44C348.91 23.028 348.728 23.574 348.56 24.078C348.42 24.582 348.336 24.946 348.308 25.17C348.224 25.674 348.112 26.164 347.972 26.64C347.86 27.116 347.734 27.592 347.594 28.068C347.482 28.46 347.37 28.852 347.258 29.244C347.174 29.608 347.118 30.014 347.09 30.462C347.09 30.546 347.062 30.63 347.006 30.714C346.95 30.826 346.894 30.938 346.838 31.05ZM358.315 39.66C358.287 39.716 358.161 39.66 357.937 39.492C357.741 39.324 357.545 39.114 357.349 38.862C357.153 38.638 357.069 38.442 357.097 38.274C356.985 37.882 356.999 37.392 357.139 36.804C357.307 36.244 357.657 35.404 358.189 34.284C358.469 33.836 358.721 33.304 358.945 32.688C359.197 32.072 359.477 31.456 359.785 30.84C359.925 30.588 360.233 30.042 360.709 29.202C361.185 28.362 361.689 27.41 362.221 26.346C362.781 25.282 363.243 24.274 363.607 23.322C362.879 24.078 362.207 24.848 361.591 25.632C360.975 26.388 360.401 27.004 359.869 27.48C359.365 27.956 358.889 28.18 358.441 28.152C358.077 28.068 357.685 27.942 357.265 27.774C356.873 27.578 356.607 27.242 356.467 26.766C356.355 26.15 356.313 25.366 356.341 24.414C356.397 23.462 356.579 22.02 356.887 20.088C357.111 19.136 357.237 18.408 357.265 17.904C357.321 17.372 357.307 16.98 357.223 16.728C357.139 16.476 356.985 16.252 356.761 16.056C356.397 15.72 356.201 15.426 356.173 15.174C356.173 14.894 356.369 14.656 356.761 14.46C357.349 14.32 357.769 14.278 358.021 14.334C358.273 14.362 358.581 14.586 358.945 15.006C359.169 15.37 359.365 15.72 359.533 16.056C359.729 16.364 359.827 16.91 359.827 17.694C359.827 18.03 359.771 18.478 359.659 19.038C359.575 19.598 359.491 20.13 359.407 20.634C359.351 21.11 359.309 21.446 359.281 21.642C359.001 22.678 358.819 23.574 358.735 24.33C358.679 25.086 358.721 25.464 358.861 25.464C359.421 25.016 359.953 24.512 360.457 23.952C360.989 23.364 361.535 22.706 362.095 21.978C362.683 21.222 363.327 20.368 364.027 19.416C364.279 18.94 364.531 18.478 364.783 18.03C365.035 17.582 365.245 17.12 365.413 16.644C365.581 16.28 365.749 15.986 365.917 15.762C366.085 15.538 366.225 15.412 366.337 15.384C366.477 15.328 366.645 15.342 366.841 15.426C367.065 15.51 367.261 15.608 367.429 15.72C367.625 15.804 367.723 15.874 367.723 15.93C367.751 15.958 367.821 15.986 367.933 16.014C368.045 16.042 368.157 16.07 368.269 16.098C368.409 16.098 368.479 16.14 368.479 16.224C368.479 16.28 368.409 16.462 368.269 16.77C368.157 17.078 368.017 17.428 367.849 17.82C367.709 18.184 367.583 18.52 367.471 18.828C367.359 19.108 367.317 19.276 367.345 19.332C367.401 19.388 367.359 19.598 367.219 19.962C367.079 20.298 366.911 20.676 366.715 21.096C366.547 21.516 366.393 21.894 366.253 22.23C365.973 23.154 365.651 24.078 365.287 25.002C364.923 25.898 364.489 26.794 363.985 27.69C363.817 28.026 363.565 28.544 363.229 29.244C362.921 29.944 362.613 30.63 362.305 31.302C362.025 32.002 361.801 32.534 361.633 32.898C361.521 33.122 361.353 33.472 361.129 33.948C360.933 34.452 360.709 34.998 360.457 35.586C360.233 36.174 360.009 36.72 359.785 37.224C359.561 37.756 359.393 38.162 359.281 38.442C359.225 38.974 359.099 39.366 358.903 39.618C358.791 39.618 358.665 39.618 358.525 39.618C358.385 39.646 358.315 39.66 358.315 39.66ZM369.395 28.698C369.171 28.866 368.849 28.908 368.429 28.824C368.009 28.74 367.673 28.656 367.421 28.572C367.365 28.46 367.309 28.334 367.253 28.194C367.197 28.054 367.155 27.928 367.127 27.816C367.099 27.676 367.071 27.536 367.043 27.396C367.043 27.256 367.015 27.13 366.959 27.018C367.043 26.934 367.113 26.85 367.169 26.766C367.253 26.682 367.337 26.612 367.421 26.556C367.561 26.556 367.715 26.556 367.883 26.556C368.051 26.556 368.205 26.556 368.345 26.556C368.485 26.5 368.597 26.416 368.681 26.304C368.793 26.164 368.933 26.094 369.101 26.094C369.717 25.702 370.319 25.086 370.907 24.246C371.523 23.406 372.111 22.468 372.671 21.432C373.259 20.396 373.777 19.388 374.225 18.408C374.701 17.4 375.093 16.56 375.401 15.888C375.401 15.832 375.401 15.79 375.401 15.762C375.401 15.734 375.387 15.706 375.359 15.678C375.163 15.734 374.953 15.79 374.729 15.846C374.505 15.874 374.281 15.93 374.057 16.014C374.029 16.042 373.987 16.07 373.931 16.098C373.875 16.126 373.833 16.154 373.805 16.182C373.497 16.434 373.091 16.504 372.587 16.392C372.111 16.28 371.775 16.042 371.579 15.678C371.523 15.566 371.467 15.468 371.411 15.384C371.355 15.3 371.285 15.202 371.201 15.09C371.313 14.838 371.481 14.6 371.705 14.376C371.957 14.124 372.223 13.97 372.503 13.914C373.259 13.746 374.001 13.62 374.729 13.536C375.485 13.424 376.241 13.396 376.997 13.452C377.753 13.508 378.495 13.676 379.223 13.956C379.363 13.984 379.489 14.012 379.601 14.04C379.713 14.068 379.825 14.124 379.937 14.208C380.105 14.32 380.273 14.446 380.441 14.586C380.609 14.726 380.763 14.866 380.903 15.006C381.099 15.174 381.253 15.356 381.365 15.552C381.477 15.748 381.547 15.972 381.575 16.224C381.631 16.504 381.659 16.798 381.659 17.106C381.687 17.414 381.673 17.722 381.617 18.03C381.477 18.73 381.253 19.57 380.945 20.55C380.665 21.502 380.413 22.328 380.189 23.028C379.853 24.12 379.559 25.1 379.307 25.968C379.055 26.808 378.817 27.634 378.593 28.446C378.229 28.558 377.879 28.544 377.543 28.404C377.207 28.264 376.913 28.054 376.661 27.774C376.549 27.382 376.493 27.018 376.493 26.682C376.493 26.318 376.591 25.954 376.787 25.59C376.983 25.198 377.123 24.694 377.207 24.078C377.291 23.462 377.473 22.972 377.753 22.608C377.809 22.496 377.837 22.398 377.837 22.314C377.837 22.146 377.893 21.824 378.005 21.348C378.145 20.872 378.299 20.34 378.467 19.752C378.635 19.136 378.789 18.562 378.929 18.03C379.097 17.498 379.209 17.092 379.265 16.812C379.321 16.644 379.321 16.49 379.265 16.35C379.237 16.21 379.223 16.056 379.223 15.888C378.999 15.776 378.677 15.692 378.257 15.636C377.865 15.58 377.599 15.72 377.459 16.056C377.431 16.112 377.403 16.182 377.375 16.266C377.375 16.322 377.361 16.378 377.333 16.434C377.109 17.134 376.801 17.806 376.409 18.45C376.045 19.094 375.709 19.976 375.401 21.096C375.317 21.404 375.191 21.698 375.023 21.978C374.883 22.23 374.757 22.51 374.645 22.818C374.645 22.846 374.631 22.874 374.603 22.902C374.603 22.93 374.589 22.958 374.561 22.986C374.561 23.014 374.547 23.042 374.519 23.07C374.323 23.322 374.141 23.588 373.973 23.868C373.833 24.12 373.679 24.386 373.511 24.666C373.035 25.45 372.405 26.178 371.621 26.85C370.865 27.522 370.123 28.138 369.395 28.698ZM383.098 26.43C383.07 25.87 383.14 25.212 383.308 24.456C383.504 23.7 383.742 22.958 384.022 22.23C384.302 21.502 384.554 20.914 384.778 20.466C384.806 20.13 384.904 19.836 385.072 19.584C385.268 19.332 385.422 19.052 385.534 18.744C385.618 18.492 385.814 18.086 386.122 17.526C386.43 16.938 386.766 16.35 387.13 15.762C387.494 15.174 387.788 14.754 388.012 14.502C388.068 14.166 388.194 13.886 388.39 13.662C388.586 13.41 388.768 13.158 388.936 12.906C389.16 13.018 389.342 13.102 389.482 13.158C389.622 13.214 389.79 13.354 389.986 13.578C390.126 13.774 390.28 13.956 390.448 14.124C390.644 14.264 390.784 14.488 390.868 14.796C390.868 15.048 390.77 15.3 390.574 15.552C390.406 15.776 390.238 16 390.07 16.224C389.79 16.56 389.58 16.826 389.44 17.022C389.328 17.19 389.188 17.4 389.02 17.652C388.88 17.876 388.642 18.24 388.306 18.744C388.446 18.8 388.6 18.87 388.768 18.954C388.936 19.01 389.09 19.038 389.23 19.038C389.482 19.01 389.72 19.038 389.944 19.122C390.168 19.206 390.392 19.304 390.616 19.416C390.84 19.5 391.064 19.57 391.288 19.626C391.624 19.738 391.974 19.962 392.338 20.298C392.73 20.634 393.08 20.998 393.388 21.39C393.696 21.782 393.892 22.104 393.976 22.356C394.06 22.496 394.172 22.762 394.312 23.154C394.48 23.518 394.508 23.854 394.396 24.162C394.368 24.274 394.34 24.4 394.312 24.54C394.284 24.68 394.27 24.82 394.27 24.96C393.85 25.548 393.514 26.01 393.262 26.346C393.01 26.682 392.576 27.046 391.96 27.438C391.036 27.97 390.112 28.376 389.188 28.656C388.292 28.936 387.382 29.062 386.458 29.034C386.318 29.034 386.178 29.076 386.038 29.16C385.926 29.216 385.8 29.188 385.66 29.076C385.1 29.076 384.68 28.922 384.4 28.614C384.12 28.306 383.826 27.956 383.518 27.564C383.294 27.256 383.154 26.878 383.098 26.43ZM385.45 26.556C385.954 26.612 386.416 26.584 386.836 26.472C387.284 26.36 387.718 26.262 388.138 26.178C388.614 26.094 389.118 25.912 389.65 25.632C390.182 25.324 390.658 24.96 391.078 24.54C391.526 24.092 391.82 23.644 391.96 23.196C392.044 22.972 392.058 22.72 392.002 22.44C391.946 22.16 391.82 21.964 391.624 21.852C391.344 21.656 391.064 21.46 390.784 21.264C390.504 21.068 390.168 20.984 389.776 21.012C389.692 21.04 389.594 21.04 389.482 21.012C389.398 20.956 389.314 20.914 389.23 20.886C389.006 20.83 388.782 20.802 388.558 20.802C388.362 20.802 388.152 20.83 387.928 20.886C387.676 20.97 387.438 21.054 387.214 21.138C386.99 21.222 386.892 21.446 386.92 21.81C386.92 21.866 386.85 21.964 386.71 22.104C386.654 22.16 386.528 22.44 386.332 22.944C386.164 23.448 385.996 23.98 385.828 24.54C385.66 25.1 385.534 25.506 385.45 25.758C385.422 25.87 385.408 25.996 385.408 26.136C385.436 26.248 385.45 26.388 385.45 26.556ZM397.428 29.79C397.204 29.706 396.966 29.538 396.714 29.286C396.462 29.006 396.252 28.684 396.084 28.32C395.916 27.956 395.832 27.62 395.832 27.312C395.972 27.004 396.154 26.472 396.378 25.716C396.602 24.932 396.882 24.036 397.218 23.028C397.442 22.72 397.61 22.356 397.722 21.936C397.862 21.516 397.988 21.138 398.1 20.802C398.324 20.354 398.59 19.78 398.898 19.08C399.206 18.352 399.5 17.624 399.78 16.896C400.088 16.14 400.354 15.51 400.578 15.006C400.886 14.278 401.068 13.83 401.124 13.662C401.18 13.466 401.222 13.312 401.25 13.2C401.25 12.976 401.306 12.794 401.418 12.654C401.53 12.486 401.642 12.402 401.754 12.402C401.866 12.29 401.992 12.234 402.132 12.234C402.3 12.206 402.44 12.192 402.552 12.192C402.86 12.192 403.126 12.402 403.35 12.822C403.574 13.214 403.686 13.578 403.686 13.914C403.686 14.25 403.56 14.726 403.308 15.342C403.084 15.93 402.818 16.546 402.51 17.19C402.23 17.834 401.992 18.394 401.796 18.87C401.6 19.346 401.544 19.626 401.628 19.71C401.628 19.71 401.824 19.626 402.216 19.458C402.608 19.262 403.028 18.996 403.476 18.66C403.784 18.492 404.12 18.282 404.484 18.03C404.848 17.778 405.198 17.54 405.534 17.316C405.87 17.064 406.15 16.91 406.374 16.854C406.71 16.63 407.06 16.42 407.424 16.224C407.788 16 408.026 15.832 408.138 15.72C408.614 15.496 408.964 15.426 409.188 15.51C409.44 15.594 409.692 15.804 409.944 16.14C410.252 16.504 410.308 16.826 410.112 17.106C409.916 17.358 409.454 17.708 408.726 18.156C408.138 18.52 407.424 18.954 406.584 19.458C405.772 19.962 405.044 20.41 404.4 20.802C403.784 21.194 403.434 21.432 403.35 21.516C403.35 21.516 403.462 21.726 403.686 22.146C403.91 22.566 404.134 22.944 404.358 23.28C404.582 23.728 404.82 24.148 405.072 24.54C405.352 24.904 405.492 25.156 405.492 25.296C405.716 25.884 405.996 26.374 406.332 26.766C406.668 27.13 407.046 27.368 407.466 27.48C407.914 27.564 408.362 27.508 408.81 27.312C409.37 27.088 409.776 27.018 410.028 27.102C410.308 27.186 410.504 27.396 410.616 27.732C410.728 27.956 410.756 28.124 410.7 28.236C410.672 28.32 410.49 28.53 410.154 28.866C409.622 29.398 409.076 29.734 408.516 29.874C407.984 30.014 407.494 29.972 407.046 29.748C406.766 29.748 406.444 29.636 406.08 29.412C405.716 29.16 405.268 28.754 404.736 28.194C404.232 27.634 403.602 26.85 402.846 25.842C402.846 25.73 402.79 25.576 402.678 25.38C402.594 25.156 402.496 24.946 402.384 24.75C402.272 24.526 402.132 24.288 401.964 24.036C401.796 23.756 401.712 23.616 401.712 23.616C401.712 23.532 401.684 23.462 401.628 23.406C401.6 23.322 401.544 23.224 401.46 23.112C401.404 23 401.334 22.874 401.25 22.734C400.802 22.594 400.48 22.678 400.284 22.986C400.088 23.294 399.878 23.616 399.654 23.952C399.514 24.316 399.332 24.834 399.108 25.506C398.912 26.15 398.744 26.78 398.604 27.396C398.492 28.012 398.464 28.432 398.52 28.656C398.52 29.104 398.45 29.412 398.31 29.58C398.17 29.72 397.876 29.79 397.428 29.79ZM412.557 28.488C412.445 28.264 412.305 28.096 412.137 27.984C411.969 27.844 411.885 27.718 411.885 27.606C411.885 27.494 411.871 27.382 411.843 27.27C411.843 27.13 411.787 27.004 411.675 26.892C411.535 26.724 411.549 26.346 411.717 25.758C411.885 25.142 412.165 24.4 412.557 23.532C412.949 22.636 413.411 21.698 413.943 20.718C414.167 20.494 414.391 20.2 414.615 19.836C414.839 19.472 415.007 19.234 415.119 19.122C415.119 19.01 415.161 18.912 415.245 18.828C415.329 18.716 415.427 18.66 415.539 18.66V18.408C415.539 18.268 415.665 18.03 415.917 17.694C416.197 17.358 416.533 16.994 416.925 16.602C417.317 16.182 417.723 15.79 418.143 15.426C418.563 15.034 418.913 14.754 419.193 14.586C419.781 14.194 420.383 13.956 420.999 13.872C421.643 13.788 422.189 13.928 422.637 14.292C422.721 14.376 422.861 14.516 423.057 14.712C423.253 14.908 423.477 15.132 423.729 15.384C424.009 15.608 424.289 15.846 424.569 16.098L426.123 17.484L425.367 19.584C425.003 20.704 424.905 21.684 425.073 22.524C425.269 23.364 425.549 24.092 425.913 24.708C426.053 25.016 426.333 25.31 426.753 25.59C427.201 25.87 427.621 26.038 428.013 26.094C428.237 26.122 428.447 26.206 428.643 26.346C428.839 26.486 428.937 26.71 428.937 27.018C428.937 27.298 428.881 27.522 428.769 27.69C428.657 27.858 428.461 27.97 428.181 28.026C427.257 28.138 426.389 27.914 425.577 27.354C424.793 26.794 424.065 25.87 423.393 24.582C423.281 24.414 423.127 24.106 422.931 23.658C422.763 23.182 422.665 22.874 422.637 22.734C422.525 22.874 422.315 23.14 422.007 23.532C421.699 23.896 421.461 24.162 421.293 24.33C419.305 26.346 417.583 27.704 416.127 28.404C414.699 29.076 413.509 29.104 412.557 28.488ZM414.069 26.136C414.069 26.332 414.363 26.332 414.951 26.136C415.567 25.912 416.225 25.52 416.925 24.96C417.877 24.148 418.829 23.252 419.781 22.272C420.761 21.292 421.545 20.382 422.133 19.542L423.057 18.03C422.777 17.386 422.469 16.952 422.133 16.728C421.825 16.476 421.559 16.35 421.335 16.35C420.971 16.35 420.425 16.686 419.697 17.358C418.997 18.03 418.241 18.926 417.429 20.046C416.617 21.166 415.847 22.398 415.119 23.742C414.839 24.302 414.587 24.848 414.363 25.38C414.167 25.884 414.069 26.136 414.069 26.136ZM440.635 29.916C440.439 30.028 440.173 29.986 439.837 29.79C439.529 29.594 439.221 29.3 438.913 28.908C438.717 28.572 438.577 28.208 438.493 27.816C438.437 27.424 438.409 26.878 438.409 26.178C438.437 25.618 438.409 25.254 438.325 25.086C438.269 24.918 438.115 24.946 437.863 25.17C437.611 25.366 437.177 25.772 436.561 26.388C435.861 27.088 435.189 27.634 434.545 28.026C433.929 28.418 433.425 28.6 433.033 28.572C432.837 28.572 432.613 28.474 432.361 28.278C432.137 28.054 431.927 27.788 431.731 27.48C431.535 27.144 431.367 26.808 431.227 26.472C431.059 25.856 431.031 25.072 431.143 24.12C431.283 23.14 431.507 22.118 431.815 21.054C432.123 19.99 432.473 18.982 432.865 18.03C433.285 17.078 433.705 16.308 434.125 15.72C434.573 15.132 434.965 14.838 435.301 14.838C435.525 14.838 435.721 14.95 435.889 15.174C436.085 15.398 436.281 15.748 436.477 16.224C436.589 16.42 436.631 16.588 436.603 16.728C436.603 16.868 436.491 17.036 436.267 17.232C436.015 17.568 435.721 18.072 435.385 18.744C435.077 19.416 434.769 20.144 434.461 20.928C434.181 21.712 433.929 22.468 433.705 23.196C433.481 23.924 433.327 24.526 433.243 25.002C433.159 25.45 433.173 25.674 433.285 25.674C433.677 25.674 434.139 25.52 434.671 25.212C435.231 24.876 435.763 24.47 436.267 23.994C436.855 23.406 437.373 22.762 437.821 22.062C438.297 21.362 438.773 20.62 439.249 19.836C439.613 19.276 439.991 18.66 440.383 17.988C440.803 17.316 441.069 16.84 441.181 16.56C441.573 15.832 441.867 15.342 442.063 15.09C442.259 14.81 442.497 14.628 442.777 14.544C442.917 14.544 443.043 14.544 443.155 14.544C443.295 14.544 443.365 14.544 443.365 14.544C443.533 14.572 443.729 14.698 443.953 14.922C444.177 15.034 444.303 15.146 444.331 15.258C444.359 15.342 444.373 15.454 444.373 15.594C444.261 15.874 444.079 16.294 443.827 16.854C443.603 17.386 443.435 17.778 443.323 18.03C442.791 19.234 442.259 20.424 441.727 21.6C441.223 22.748 440.859 23.924 440.635 25.128C440.579 25.52 440.565 25.982 440.593 26.514C440.649 27.018 440.733 27.382 440.845 27.606C440.929 27.774 441.027 27.97 441.139 28.194C441.279 28.39 441.433 28.558 441.601 28.698C441.853 28.866 441.895 29.048 441.727 29.244C441.587 29.44 441.391 29.608 441.139 29.748C440.887 29.86 440.719 29.916 440.635 29.916ZM440.089 12.486C439.221 12.598 438.493 12.346 437.905 11.73C437.317 11.114 436.869 10.204 436.561 9C436.505 8.776 436.477 8.58 436.477 8.412C436.505 8.216 436.561 8.048 436.645 7.908C436.701 7.796 436.813 7.712 436.981 7.656C437.149 7.572 437.289 7.558 437.401 7.614C437.793 7.754 438.073 7.936 438.241 8.16C438.437 8.356 438.563 8.608 438.619 8.916C438.675 9.056 438.703 9.196 438.703 9.336C438.731 9.476 438.745 9.532 438.745 9.504C438.885 9.952 439.067 10.26 439.291 10.428C439.515 10.596 439.851 10.582 440.299 10.386C440.775 10.19 441.237 9.966 441.685 9.714C442.161 9.462 442.581 9.154 442.945 8.79C443.253 8.482 443.547 8.202 443.827 7.95C444.135 7.698 444.429 7.432 444.709 7.152L444.751 7.11C444.863 7.026 445.003 6.998 445.171 7.026C445.339 7.054 445.437 7.096 445.465 7.152C445.661 7.348 445.759 7.544 445.759 7.74C445.759 7.936 445.759 8.146 445.759 8.37L445.717 8.454C445.773 8.622 445.633 8.944 445.297 9.42C444.989 9.896 444.611 10.302 444.163 10.638C443.771 10.946 443.351 11.226 442.903 11.478C442.455 11.73 441.993 11.968 441.517 12.192C441.321 12.304 441.111 12.374 440.887 12.402C440.691 12.402 440.425 12.43 440.089 12.486ZM455.503 29.454C454.551 29.706 453.879 29.832 453.487 29.832C453.095 29.832 452.675 29.636 452.227 29.244C452.087 29.104 452.003 28.964 451.975 28.824C451.947 28.656 451.877 28.558 451.765 28.53C451.737 28.334 451.751 28.18 451.807 28.068C451.891 27.928 452.073 27.802 452.353 27.69C452.773 27.942 453.305 28.012 453.949 27.9C454.593 27.788 455.223 27.55 455.839 27.186C456.483 26.794 456.987 26.332 457.351 25.8C457.911 25.128 458.345 24.498 458.653 23.91C458.961 23.294 459.129 22.748 459.157 22.272C459.157 21.992 459.115 21.796 459.031 21.684C458.975 21.544 458.835 21.334 458.611 21.054C458.107 21.222 457.645 21.418 457.225 21.642C456.833 21.866 456.511 22.104 456.259 22.356C455.419 23.056 454.761 23.63 454.285 24.078C453.837 24.526 453.445 24.974 453.109 25.422C452.801 25.87 452.409 26.472 451.933 27.228C451.709 27.508 451.499 27.718 451.303 27.858C451.135 27.998 450.953 28.068 450.757 28.068C450.841 28.628 450.645 28.964 450.169 29.076C449.553 28.936 449.105 28.754 448.825 28.53C448.545 28.278 448.461 27.802 448.573 27.102C448.685 26.71 448.797 26.248 448.909 25.716C449.021 25.156 449.147 24.694 449.287 24.33C449.959 22.538 450.547 20.942 451.051 19.542C451.583 18.142 452.045 17.148 452.437 16.56L453.361 14.166C453.837 14.194 454.201 14.292 454.453 14.46C454.705 14.6 454.999 14.95 455.335 15.51C455.335 15.65 455.195 16.056 454.915 16.728C454.663 17.372 454.355 18.114 453.991 18.954C453.655 19.794 453.333 20.578 453.025 21.306C452.745 22.006 452.549 22.496 452.437 22.776C452.325 23.084 452.409 23.028 452.689 22.608C452.997 22.188 453.529 21.656 454.285 21.012C454.649 20.648 455.097 20.312 455.629 20.004C456.161 19.668 456.609 19.416 456.973 19.248C457.365 19.08 457.687 18.982 457.939 18.954C458.191 18.926 458.373 18.898 458.485 18.87C459.185 18.87 459.745 19.052 460.165 19.416C460.585 19.752 460.879 20.144 461.047 20.592C461.243 21.04 461.341 21.404 461.341 21.684C461.425 22.132 461.481 22.566 461.509 22.986C461.565 23.378 461.537 23.798 461.425 24.246C461.341 24.47 461.187 24.778 460.963 25.17C460.739 25.562 460.473 25.968 460.165 26.388C459.885 26.78 459.549 27.102 459.157 27.354C458.905 27.606 458.569 27.872 458.149 28.152C457.729 28.432 457.281 28.698 456.805 28.95C456.357 29.174 455.923 29.342 455.503 29.454ZM464.239 30.126C463.735 30.07 463.315 29.916 462.979 29.664C462.671 29.384 462.447 28.978 462.307 28.446C462.307 27.97 462.363 27.536 462.475 27.144C462.615 26.724 462.727 26.318 462.811 25.926C462.951 25.282 463.147 24.638 463.399 23.994C463.651 23.35 463.875 22.706 464.071 22.062C464.239 21.67 464.379 21.292 464.491 20.928C464.603 20.564 464.715 20.2 464.827 19.836C464.967 19.388 465.107 18.954 465.247 18.534C465.387 18.114 465.527 17.694 465.667 17.274C465.779 16.91 465.863 16.532 465.919 16.14C466.003 15.748 466.073 15.356 466.129 14.964C466.437 14.628 466.773 14.488 467.137 14.544C467.529 14.6 468.005 14.922 468.565 15.51C468.705 15.846 468.775 16.154 468.775 16.434C468.775 16.686 468.705 16.952 468.565 17.232C468.453 17.484 468.299 17.862 468.103 18.366C467.935 18.87 467.753 19.374 467.557 19.878C467.389 20.354 467.263 20.718 467.179 20.97C467.123 21.278 466.969 21.782 466.717 22.482C466.493 23.182 466.255 23.91 466.003 24.666C465.751 25.394 465.569 25.982 465.457 26.43C465.289 26.85 465.163 27.256 465.079 27.648C464.995 28.04 464.911 28.53 464.827 29.118C464.883 29.37 464.841 29.58 464.701 29.748C464.589 29.888 464.435 30.014 464.239 30.126ZM468.663 39.408C468.551 39.408 468.411 39.408 468.243 39.408C468.075 39.436 467.921 39.324 467.781 39.072C467.669 38.932 467.599 38.722 467.571 38.442C467.571 38.162 467.641 37.658 467.781 36.93C467.921 36.454 468.033 35.978 468.117 35.502C468.201 35.054 468.243 34.718 468.243 34.494C468.243 34.382 468.271 34.158 468.327 33.822C468.411 33.514 468.453 33.29 468.453 33.15C468.593 32.926 468.705 32.618 468.789 32.226C468.873 31.834 468.915 31.484 468.915 31.176C468.915 30.84 469.083 30.532 469.419 30.252C469.419 30.028 469.461 29.748 469.545 29.412C469.657 29.076 469.713 28.852 469.713 28.74C469.797 28.348 469.979 27.662 470.259 26.682C470.567 25.674 470.931 24.54 471.351 23.28C471.799 22.02 472.233 20.788 472.653 19.584C473.073 18.38 473.451 17.358 473.787 16.518C474.123 15.734 474.347 15.062 474.459 14.502C474.599 13.914 474.669 13.48 474.669 13.2C474.669 13.088 474.697 13.004 474.753 12.948C474.809 12.864 474.935 12.71 475.131 12.486C475.411 12.206 475.649 12.122 475.845 12.234C476.069 12.346 476.335 12.514 476.643 12.738C476.867 13.102 477.021 13.41 477.105 13.662C477.217 13.914 477.217 14.348 477.105 14.964C477.105 15.384 477.035 15.748 476.895 16.056C476.755 16.364 476.629 16.602 476.517 16.77C476.405 16.91 476.377 16.966 476.433 16.938C477.581 16.406 478.589 16.126 479.457 16.098C480.353 16.042 481.095 16.196 481.683 16.56C482.299 16.896 482.761 17.372 483.069 17.988C483.377 18.604 483.531 19.318 483.531 20.13C483.531 20.466 483.461 20.872 483.321 21.348C483.181 21.796 482.999 22.216 482.775 22.608C482.579 22.972 482.397 23.238 482.229 23.406C482.117 23.406 482.005 23.504 481.893 23.7C481.781 23.868 481.669 24.064 481.557 24.288C481.333 24.568 480.969 24.89 480.465 25.254C479.989 25.59 479.513 25.87 479.037 26.094C478.561 26.29 478.211 26.346 477.987 26.262C477.987 26.262 477.945 26.276 477.861 26.304C477.805 26.304 477.777 26.374 477.777 26.514C477.777 26.57 477.553 26.696 477.105 26.892C476.657 27.06 476.139 27.228 475.551 27.396C474.963 27.536 474.445 27.606 473.997 27.606C473.409 27.606 472.989 27.494 472.737 27.27C472.681 27.326 472.611 27.41 472.527 27.522C472.471 27.634 472.443 27.732 472.443 27.816C472.443 27.984 472.373 28.306 472.233 28.782C472.121 29.23 471.981 29.664 471.813 30.084C471.645 30.504 471.491 30.714 471.351 30.714C471.351 30.714 471.323 30.756 471.267 30.84C471.211 30.924 471.239 31.036 471.351 31.176C471.351 31.176 471.337 31.33 471.309 31.638C471.309 31.974 471.239 32.254 471.099 32.478C471.099 32.702 471.057 33.038 470.973 33.486C470.889 33.934 470.791 34.27 470.679 34.494C470.679 34.83 470.623 35.152 470.511 35.46C470.427 35.796 470.329 35.964 470.217 35.964C470.105 35.992 470.035 36.16 470.007 36.468C469.979 36.804 469.965 37.042 469.965 37.182C469.937 37.882 469.797 38.428 469.545 38.82C469.293 39.212 468.999 39.408 468.663 39.408ZM473.745 25.38C473.969 25.38 474.431 25.282 475.131 25.086C475.831 24.89 476.545 24.652 477.273 24.372C478.029 24.064 478.589 23.756 478.953 23.448C479.681 22.804 480.241 22.076 480.633 21.264C481.053 20.424 481.025 19.626 480.549 18.87C480.325 18.478 479.919 18.324 479.331 18.408C478.743 18.464 478.099 18.688 477.399 19.08C476.699 19.472 476.041 19.962 475.425 20.55C475.089 20.914 474.781 21.362 474.501 21.894C474.221 22.426 473.983 22.958 473.787 23.49C473.619 24.022 473.521 24.47 473.493 24.834C473.465 25.198 473.549 25.38 473.745 25.38Z" fill="#020202"/>
</svg>
