<svg width="536" height="28" viewBox="0 0 536 28" fill="none" xmlns="http://www.w3.org/2000/svg">
<path d="M15.2422 4.25391H9.08984V22H6.62891V4.25391H0.476562V2.09375H15.2422V4.25391ZM17.9219 14.4668C17.9219 13.4004 18.0768 12.4115 18.3867 11.5C18.6966 10.5794 19.1432 9.7819 19.7266 9.10742C20.3008 8.43294 21.0026 7.9043 21.832 7.52148C22.6615 7.12956 23.5957 6.93359 24.6348 6.93359C25.6829 6.93359 26.6217 7.12956 27.4512 7.52148C28.2897 7.9043 29.0007 8.43294 29.584 9.10742C30.1582 9.7819 30.6003 10.5794 30.9102 11.5C31.2201 12.4115 31.375 13.4004 31.375 14.4668V14.7676C31.375 15.834 31.2201 16.8229 30.9102 17.7344C30.6003 18.6458 30.1582 19.4388 29.584 20.1133C29.0007 20.7878 28.2943 21.3164 27.4648 21.6992C26.6354 22.082 25.7012 22.2734 24.6621 22.2734C23.6139 22.2734 22.6706 22.082 21.832 21.6992C21.0026 21.3164 20.3008 20.7878 19.7266 20.1133C19.1432 19.4388 18.6966 18.6458 18.3867 17.7344C18.0768 16.8229 17.9219 15.834 17.9219 14.7676V14.4668ZM20.4512 14.7676C20.4512 15.4967 20.5378 16.194 20.7109 16.8594C20.8841 17.5156 21.1484 18.0944 21.5039 18.5957C21.8503 19.097 22.2878 19.4935 22.8164 19.7852C23.3451 20.0768 23.9603 20.2227 24.6621 20.2227C25.3548 20.2227 25.9609 20.0768 26.4805 19.7852C27.0091 19.4935 27.4512 19.097 27.8066 18.5957C28.153 18.0944 28.4128 17.5156 28.5859 16.8594C28.7591 16.194 28.8457 15.4967 28.8457 14.7676V14.4668C28.8457 13.7467 28.7546 13.0586 28.5723 12.4023C28.3991 11.737 28.1393 11.1536 27.793 10.6523C27.4375 10.151 26.9954 9.75456 26.4668 9.46289C25.9473 9.16211 25.3366 9.01172 24.6348 9.01172C23.9329 9.01172 23.3223 9.16211 22.8027 9.46289C22.2832 9.75456 21.8503 10.151 21.5039 10.6523C21.1484 11.1536 20.8841 11.737 20.7109 12.4023C20.5378 13.0586 20.4512 13.7467 20.4512 14.4668V14.7676ZM45.0742 7.20703H47.6035V22H45.0742V11.0898L37.8418 22H35.3262V7.20703H37.8418V18.1309L45.0742 7.20703ZM45.3887 1.17773C45.3887 1.71549 45.293 2.21224 45.1016 2.66797C44.9102 3.11458 44.6367 3.4974 44.2812 3.81641C43.9258 4.13542 43.4974 4.38607 42.9961 4.56836C42.4948 4.74154 41.9342 4.82812 41.3145 4.82812C40.6855 4.82812 40.1204 4.74154 39.6191 4.56836C39.1178 4.38607 38.6895 4.13542 38.334 3.81641C37.9785 3.4974 37.7005 3.11458 37.5 2.66797C37.3086 2.21224 37.2129 1.71549 37.2129 1.17773H39.2637C39.2637 1.45117 39.3047 1.71549 39.3867 1.9707C39.4688 2.2168 39.5918 2.43099 39.7559 2.61328C39.9199 2.79557 40.1296 2.94141 40.3848 3.05078C40.64 3.16016 40.9499 3.21484 41.3145 3.21484C41.6699 3.21484 41.9707 3.16016 42.2168 3.05078C42.472 2.94141 42.6816 2.79557 42.8457 2.61328C43.0098 2.43099 43.1328 2.2168 43.2148 1.9707C43.2969 1.71549 43.3379 1.45117 43.3379 1.17773H45.3887ZM74.5234 9.01172C74.0677 9.01172 73.6211 9.08464 73.1836 9.23047C72.7461 9.3763 72.3587 9.57682 72.0215 9.83203C71.6751 10.0964 71.3971 10.4062 71.1875 10.7617C70.9779 11.1081 70.873 11.4909 70.873 11.9102H68.4668C68.4668 11.2448 68.6354 10.6113 68.9727 10.0098C69.3099 9.4082 69.7611 8.87956 70.3262 8.42383C70.8822 7.9681 71.5247 7.60807 72.2539 7.34375C72.9831 7.07031 73.7396 6.93359 74.5234 6.93359C75.681 6.93359 76.6973 7.13411 77.5723 7.53516C78.4473 7.9362 79.1764 8.47396 79.7598 9.14844C80.334 9.82292 80.7669 10.6068 81.0586 11.5C81.3503 12.3932 81.4961 13.332 81.4961 14.3164V14.8906C81.4961 15.875 81.3503 16.8138 81.0586 17.707C80.7669 18.6003 80.3294 19.3841 79.7461 20.0586C79.1628 20.7422 78.4336 21.2845 77.5586 21.6855C76.6927 22.0775 75.681 22.2734 74.5234 22.2734C73.6484 22.2734 72.8418 22.1367 72.1035 21.8633C71.3652 21.5898 70.7272 21.2116 70.1895 20.7285C69.6517 20.2546 69.2279 19.694 68.918 19.0469C68.6172 18.3906 68.4668 17.6842 68.4668 16.9277H70.873C70.873 17.3835 70.9688 17.8118 71.1602 18.2129C71.3516 18.6139 71.6113 18.9603 71.9395 19.252C72.2676 19.5527 72.6504 19.7897 73.0879 19.9629C73.5345 20.1361 74.013 20.2227 74.5234 20.2227C75.2891 20.2227 75.9408 20.0905 76.4785 19.8262C77.0163 19.5527 77.4629 19.1927 77.8184 18.7461C78.1647 18.3086 78.4245 17.8073 78.5977 17.2422C78.7799 16.6771 78.8939 16.0983 78.9395 15.5059H73.0742V13.4277H78.9121C78.8574 12.8535 78.7344 12.3021 78.543 11.7734C78.3516 11.2448 78.0827 10.7754 77.7363 10.3652C77.39 9.95508 76.9525 9.62695 76.4238 9.38086C75.8952 9.13477 75.2617 9.01172 74.5234 9.01172ZM91.3398 9.01172C90.8841 9.01172 90.4375 9.08464 90 9.23047C89.5625 9.3763 89.1751 9.57682 88.8379 9.83203C88.4915 10.0964 88.2135 10.4062 88.0039 10.7617C87.7943 11.1081 87.6895 11.4909 87.6895 11.9102H85.2832C85.2832 11.2448 85.4518 10.6113 85.7891 10.0098C86.1263 9.4082 86.5775 8.87956 87.1426 8.42383C87.6986 7.9681 88.3411 7.60807 89.0703 7.34375C89.7995 7.07031 90.556 6.93359 91.3398 6.93359C92.4974 6.93359 93.5137 7.13411 94.3887 7.53516C95.2637 7.9362 95.9928 8.47396 96.5762 9.14844C97.1504 9.82292 97.5833 10.6068 97.875 11.5C98.1667 12.3932 98.3125 13.332 98.3125 14.3164V14.8906C98.3125 15.875 98.1667 16.8138 97.875 17.707C97.5833 18.6003 97.1458 19.3841 96.5625 20.0586C95.9792 20.7422 95.25 21.2845 94.375 21.6855C93.5091 22.0775 92.4974 22.2734 91.3398 22.2734C90.4648 22.2734 89.6582 22.1367 88.9199 21.8633C88.1816 21.5898 87.5436 21.2116 87.0059 20.7285C86.4681 20.2546 86.0443 19.694 85.7344 19.0469C85.4336 18.3906 85.2832 17.6842 85.2832 16.9277H87.6895C87.6895 17.3835 87.7852 17.8118 87.9766 18.2129C88.168 18.6139 88.4277 18.9603 88.7559 19.252C89.084 19.5527 89.4668 19.7897 89.9043 19.9629C90.3509 20.1361 90.8294 20.2227 91.3398 20.2227C92.1055 20.2227 92.7572 20.0905 93.2949 19.8262C93.8327 19.5527 94.2793 19.1927 94.6348 18.7461C94.9811 18.3086 95.2409 17.8073 95.4141 17.2422C95.5964 16.6771 95.7103 16.0983 95.7559 15.5059H89.8906V13.4277H95.7285C95.6738 12.8535 95.5508 12.3021 95.3594 11.7734C95.168 11.2448 94.8991 10.7754 94.5527 10.3652C94.2064 9.95508 93.7689 9.62695 93.2402 9.38086C92.7116 9.13477 92.0781 9.01172 91.3398 9.01172ZM114.855 7.20703V22H112.312V9.29883H106.871L106.857 13.5371C106.857 14.0384 106.844 14.526 106.816 15C106.798 15.4648 106.766 15.9069 106.721 16.3262C106.648 17.0189 106.534 17.6569 106.379 18.2402C106.224 18.8236 106.028 19.3385 105.791 19.7852C105.408 20.5052 104.893 21.0566 104.246 21.4395C103.599 21.8132 102.792 22 101.826 22H101.088L101.129 19.7441L101.689 19.7305C102.209 19.7305 102.637 19.6029 102.975 19.3477C103.321 19.0833 103.594 18.6914 103.795 18.1719C103.895 17.8893 103.982 17.5658 104.055 17.2012C104.128 16.8275 104.187 16.4173 104.232 15.9707C104.26 15.6152 104.278 15.237 104.287 14.8359C104.305 14.4258 104.314 13.9928 104.314 13.5371L104.342 7.20703H114.855ZM126.066 22.2734C125.027 22.2734 124.07 22.0957 123.195 21.7402C122.329 21.3848 121.587 20.888 120.967 20.25C120.347 19.612 119.864 18.8555 119.518 17.9805C119.171 17.1055 118.998 16.153 118.998 15.123V14.5488C118.998 13.3548 119.189 12.2884 119.572 11.3496C119.955 10.4017 120.465 9.59961 121.104 8.94336C121.732 8.29622 122.448 7.79948 123.25 7.45312C124.061 7.10677 124.891 6.93359 125.738 6.93359C126.805 6.93359 127.734 7.12044 128.527 7.49414C129.329 7.85872 129.995 8.36458 130.523 9.01172C131.052 9.66797 131.444 10.4382 131.699 11.3223C131.964 12.2064 132.096 13.1634 132.096 14.1934V15.3281H121.527V15.4238C121.591 16.1439 121.732 16.7773 121.951 17.3242C122.179 17.8711 122.489 18.3542 122.881 18.7734C123.282 19.2201 123.765 19.571 124.33 19.8262C124.895 20.0814 125.52 20.209 126.203 20.209C127.105 20.209 127.908 20.0267 128.609 19.6621C129.311 19.2975 129.895 18.8145 130.359 18.2129L131.904 19.416C131.412 20.1634 130.674 20.8288 129.689 21.4121C128.714 21.9863 127.507 22.2734 126.066 22.2734ZM125.738 9.01172C125.228 9.01172 124.745 9.10742 124.289 9.29883C123.833 9.48112 123.423 9.75 123.059 10.1055C122.694 10.4701 122.384 10.9167 122.129 11.4453C121.883 11.9648 121.71 12.5664 121.609 13.25H129.566V13.127C129.566 12.6712 129.48 12.1836 129.307 11.6641C129.133 11.1354 128.892 10.6797 128.582 10.2969C128.272 9.91406 127.88 9.60417 127.406 9.36719C126.941 9.13021 126.385 9.01172 125.738 9.01172ZM136.334 27.6875V7.20703H138.645L138.768 8.82031C138.968 8.5651 139.187 8.33724 139.424 8.13672C139.661 7.92708 139.916 7.74935 140.189 7.60352C140.572 7.38477 140.996 7.2207 141.461 7.11133C141.935 6.99284 142.441 6.93359 142.979 6.93359C143.926 6.93359 144.765 7.12044 145.494 7.49414C146.223 7.86784 146.834 8.38737 147.326 9.05273C147.818 9.7181 148.192 10.5156 148.447 11.4453C148.702 12.3659 148.83 13.3776 148.83 14.4805V14.7676C148.83 15.8249 148.702 16.8138 148.447 17.7344C148.192 18.6458 147.818 19.4388 147.326 20.1133C146.834 20.7878 146.223 21.3164 145.494 21.6992C144.774 22.082 143.949 22.2734 143.02 22.2734C142.454 22.2734 141.926 22.2142 141.434 22.0957C140.951 21.9772 140.513 21.8086 140.121 21.5898C139.884 21.4531 139.661 21.3027 139.451 21.1387C139.242 20.9655 139.046 20.7786 138.863 20.5781V27.6875H136.334ZM146.301 14.4805C146.301 13.7604 146.219 13.0768 146.055 12.4297C145.9 11.7734 145.658 11.1947 145.33 10.6934C144.993 10.2012 144.569 9.80924 144.059 9.51758C143.548 9.22591 142.938 9.08008 142.227 9.08008C141.835 9.08008 141.47 9.12565 141.133 9.2168C140.805 9.30794 140.508 9.4401 140.244 9.61328C139.952 9.78646 139.693 10.0007 139.465 10.2559C139.237 10.5111 139.036 10.7936 138.863 11.1035V18.2266C139.018 18.5 139.196 18.7552 139.396 18.9922C139.597 19.2292 139.825 19.4297 140.08 19.5938C140.372 19.7852 140.695 19.9355 141.051 20.0449C141.415 20.1543 141.816 20.209 142.254 20.209C142.956 20.209 143.562 20.0632 144.072 19.7715C144.583 19.4707 145.002 19.0697 145.33 18.5684C145.658 18.0671 145.9 17.4883 146.055 16.832C146.219 16.1758 146.301 15.4876 146.301 14.7676V14.4805ZM162.789 7.20703H165.318V22H162.789V11.0898L155.557 22H153.041V7.20703H155.557V18.1309L162.789 7.20703ZM175.066 20.3594C175.066 19.8216 175.23 19.3613 175.559 18.9785C175.887 18.5957 176.383 18.4043 177.049 18.4043C177.705 18.4043 178.202 18.5957 178.539 18.9785C178.885 19.3522 179.059 19.8125 179.059 20.3594C179.059 20.8971 178.885 21.3483 178.539 21.7129C178.193 22.0775 177.696 22.2598 177.049 22.2598C176.393 22.2598 175.896 22.0775 175.559 21.7129C175.23 21.3392 175.066 20.888 175.066 20.3594ZM175.066 8.38281C175.066 7.84505 175.23 7.38477 175.559 7.00195C175.887 6.61914 176.383 6.42773 177.049 6.42773C177.705 6.42773 178.202 6.61914 178.539 7.00195C178.885 7.37565 179.059 7.83594 179.059 8.38281C179.059 8.92057 178.885 9.37174 178.539 9.73633C178.193 10.1009 177.696 10.2832 177.049 10.2832C176.393 10.2832 175.896 10.1009 175.559 9.73633C175.23 9.36263 175.066 8.91146 175.066 8.38281ZM215.631 4.17188H205.992V10.2832H209.629C210.686 10.2832 211.625 10.4199 212.445 10.6934C213.275 10.9668 213.972 11.3542 214.537 11.8555C215.102 12.3659 215.531 12.9766 215.822 13.6875C216.123 14.3984 216.273 15.196 216.273 16.0801C216.273 16.9551 216.123 17.7572 215.822 18.4863C215.531 19.2155 215.102 19.8398 214.537 20.3594C213.972 20.8789 213.275 21.2845 212.445 21.5762C211.625 21.8587 210.686 22 209.629 22H203.449V2.09375H215.631V4.17188ZM205.992 12.3477V19.9355H209.629C210.34 19.9355 210.951 19.8307 211.461 19.6211C211.98 19.4115 212.409 19.1289 212.746 18.7734C213.083 18.418 213.329 18.0078 213.484 17.543C213.648 17.069 213.73 16.5723 213.73 16.0527C213.73 15.5423 213.648 15.0638 213.484 14.6172C213.329 14.1615 213.083 13.765 212.746 13.4277C212.409 13.0996 211.98 12.8398 211.461 12.6484C210.951 12.4479 210.34 12.3477 209.629 12.3477H205.992ZM230.15 22C230.05 21.8086 229.968 21.5716 229.904 21.2891C229.85 20.9974 229.809 20.6966 229.781 20.3867C229.526 20.6419 229.239 20.8835 228.92 21.1113C228.61 21.3392 228.268 21.5397 227.895 21.7129C227.512 21.8861 227.106 22.0228 226.678 22.123C226.249 22.2233 225.794 22.2734 225.311 22.2734C224.527 22.2734 223.816 22.1595 223.178 21.9316C222.549 21.7038 222.016 21.3939 221.578 21.002C221.132 20.6191 220.785 20.1634 220.539 19.6348C220.302 19.097 220.184 18.5182 220.184 17.8984C220.184 17.0872 220.343 16.3763 220.662 15.7656C220.99 15.1549 221.451 14.6445 222.043 14.2344C222.635 13.8333 223.346 13.5326 224.176 13.332C225.014 13.1315 225.949 13.0312 226.979 13.0312H229.74V11.8691C229.74 11.4225 229.658 11.0215 229.494 10.666C229.33 10.3105 229.098 10.0052 228.797 9.75C228.496 9.50391 228.127 9.3125 227.689 9.17578C227.261 9.03906 226.778 8.9707 226.24 8.9707C225.739 8.9707 225.288 9.03451 224.887 9.16211C224.495 9.28971 224.162 9.45833 223.889 9.66797C223.615 9.8776 223.401 10.1283 223.246 10.4199C223.1 10.7025 223.027 10.9987 223.027 11.3086H220.484C220.493 10.7708 220.63 10.2422 220.895 9.72266C221.168 9.20312 221.56 8.73372 222.07 8.31445C222.572 7.9043 223.182 7.57161 223.902 7.31641C224.632 7.0612 225.456 6.93359 226.377 6.93359C227.215 6.93359 227.995 7.03841 228.715 7.24805C229.435 7.44857 230.059 7.75391 230.588 8.16406C231.107 8.58333 231.518 9.10286 231.818 9.72266C232.119 10.3424 232.27 11.0671 232.27 11.8965V18.7734C232.27 19.2656 232.315 19.7897 232.406 20.3457C232.497 20.8926 232.625 21.3711 232.789 21.7812V22H230.15ZM225.68 20.0723C226.172 20.0723 226.632 20.0085 227.061 19.8809C227.489 19.7533 227.881 19.5846 228.236 19.375C228.583 19.1654 228.883 18.9284 229.139 18.6641C229.394 18.3906 229.594 18.1081 229.74 17.8164V14.8223H227.389C226.514 14.8223 225.748 14.8997 225.092 15.0547C224.445 15.2005 223.93 15.4284 223.547 15.7383C223.273 15.957 223.064 16.2168 222.918 16.5176C222.781 16.8184 222.713 17.1602 222.713 17.543C222.713 17.9076 222.772 18.2448 222.891 18.5547C223.018 18.8646 223.205 19.1289 223.451 19.3477C223.697 19.5755 224.007 19.7533 224.381 19.8809C224.755 20.0085 225.188 20.0723 225.68 20.0723ZM242.045 15.6973H239.639V22H237.109V7.20703H239.639V13.4688H241.826L247.336 7.20703H250.412L244.068 14.3301L250.904 22H247.691L242.045 15.6973ZM267.365 9.25781H261.459V22H258.916V9.25781H253.105V7.20703H267.365V9.25781ZM272.998 12.8125H274.352C275.145 12.8125 275.846 12.9264 276.457 13.1543C277.077 13.3822 277.596 13.6966 278.016 14.0977C278.426 14.5078 278.736 14.9909 278.945 15.5469C279.164 16.1029 279.273 16.7044 279.273 17.3516C279.273 17.9987 279.164 18.6048 278.945 19.1699C278.736 19.735 278.426 20.2272 278.016 20.6465C277.596 21.0658 277.081 21.3984 276.471 21.6445C275.86 21.8815 275.154 22 274.352 22H270.469V7.20703H272.998V12.8125ZM283.361 22H280.832V7.20703H283.361V22ZM272.998 14.877V19.9355H274.352C274.78 19.9355 275.145 19.8672 275.445 19.7305C275.746 19.5846 275.992 19.3932 276.184 19.1562C276.366 18.9284 276.498 18.6686 276.58 18.377C276.671 18.0762 276.717 17.7663 276.717 17.4473C276.717 17.1465 276.671 16.8457 276.58 16.5449C276.498 16.235 276.366 15.957 276.184 15.7109C275.992 15.4648 275.746 15.2643 275.445 15.1094C275.145 14.9544 274.78 14.877 274.352 14.877H272.998ZM294.148 8.05469C295.115 8.05469 295.976 8.22786 296.732 8.57422C297.489 8.91146 298.132 9.3763 298.66 9.96875C299.189 10.5703 299.59 11.2812 299.863 12.1016C300.146 12.9128 300.287 13.7969 300.287 14.7539V15.0684C300.287 16.0983 300.137 17.0508 299.836 17.9258C299.544 18.8008 299.116 19.5618 298.551 20.209C297.986 20.8561 297.293 21.362 296.473 21.7266C295.661 22.0911 294.736 22.2734 293.697 22.2734C292.658 22.2734 291.729 22.0911 290.908 21.7266C290.088 21.362 289.395 20.8561 288.83 20.209C288.265 19.5618 287.832 18.8008 287.531 17.9258C287.23 17.0508 287.08 16.0983 287.08 15.0684V13.7148C287.08 12.8581 287.121 12.056 287.203 11.3086C287.294 10.5521 287.422 9.85482 287.586 9.2168C287.741 8.62435 287.928 8.07292 288.146 7.5625C288.365 7.05208 288.616 6.58268 288.898 6.1543C289.473 5.2793 290.17 4.58203 290.99 4.0625C291.82 3.53385 292.74 3.17383 293.752 2.98242C294.235 2.89128 294.682 2.79557 295.092 2.69531C295.511 2.58594 295.876 2.44922 296.186 2.28516C296.486 2.13021 296.723 1.93424 296.896 1.69727C297.07 1.45117 297.156 1.14128 297.156 0.767578H299.234C299.234 1.61523 299.102 2.29883 298.838 2.81836C298.583 3.33789 298.223 3.7526 297.758 4.0625C297.348 4.33594 296.892 4.54102 296.391 4.67773C295.898 4.81445 295.201 4.97852 294.299 5.16992C293.661 5.30664 293.064 5.49805 292.508 5.74414C291.952 5.98112 291.455 6.30469 291.018 6.71484C290.58 7.125 290.211 7.63086 289.91 8.23242C289.609 8.82487 289.391 9.54036 289.254 10.3789C289.546 10.0417 289.869 9.73177 290.225 9.44922C290.58 9.15755 290.963 8.9069 291.373 8.69727C291.783 8.49674 292.221 8.3418 292.686 8.23242C293.15 8.11393 293.638 8.05469 294.148 8.05469ZM293.67 10.1328C292.977 10.1328 292.376 10.2604 291.865 10.5156C291.355 10.7617 290.936 11.0944 290.607 11.5137C290.27 11.9421 290.02 12.4342 289.855 12.9902C289.691 13.5462 289.609 14.1341 289.609 14.7539V15.0684C289.609 15.7611 289.691 16.4219 289.855 17.0508C290.02 17.6706 290.27 18.2129 290.607 18.6777C290.936 19.1517 291.355 19.5299 291.865 19.8125C292.385 20.0859 292.995 20.2227 293.697 20.2227C294.39 20.2227 294.987 20.0859 295.488 19.8125C295.999 19.5299 296.423 19.1517 296.76 18.6777C297.097 18.2129 297.348 17.6706 297.512 17.0508C297.676 16.4219 297.758 15.7611 297.758 15.0684V14.7539C297.758 14.1341 297.676 13.5462 297.512 12.9902C297.348 12.4342 297.097 11.9421 296.76 11.5137C296.423 11.0944 295.994 10.7617 295.475 10.5156C294.964 10.2604 294.363 10.1328 293.67 10.1328ZM311.047 22.2734C310.008 22.2734 309.051 22.0957 308.176 21.7402C307.31 21.3848 306.567 20.888 305.947 20.25C305.327 19.612 304.844 18.8555 304.498 17.9805C304.152 17.1055 303.979 16.153 303.979 15.123V14.5488C303.979 13.3548 304.17 12.2884 304.553 11.3496C304.936 10.4017 305.446 9.59961 306.084 8.94336C306.713 8.29622 307.428 7.79948 308.23 7.45312C309.042 7.10677 309.871 6.93359 310.719 6.93359C311.785 6.93359 312.715 7.12044 313.508 7.49414C314.31 7.85872 314.975 8.36458 315.504 9.01172C316.033 9.66797 316.424 10.4382 316.68 11.3223C316.944 12.2064 317.076 13.1634 317.076 14.1934V15.3281H306.508V15.4238C306.572 16.1439 306.713 16.7773 306.932 17.3242C307.16 17.8711 307.469 18.3542 307.861 18.7734C308.262 19.2201 308.745 19.571 309.311 19.8262C309.876 20.0814 310.5 20.209 311.184 20.209C312.086 20.209 312.888 20.0267 313.59 19.6621C314.292 19.2975 314.875 18.8145 315.34 18.2129L316.885 19.416C316.393 20.1634 315.654 20.8288 314.67 21.4121C313.695 21.9863 312.487 22.2734 311.047 22.2734ZM310.719 9.01172C310.208 9.01172 309.725 9.10742 309.27 9.29883C308.814 9.48112 308.404 9.75 308.039 10.1055C307.674 10.4701 307.365 10.9167 307.109 11.4453C306.863 11.9648 306.69 12.5664 306.59 13.25H314.547V13.127C314.547 12.6712 314.46 12.1836 314.287 11.6641C314.114 11.1354 313.872 10.6797 313.562 10.2969C313.253 9.91406 312.861 9.60417 312.387 9.36719C311.922 9.13021 311.366 9.01172 310.719 9.01172ZM326.127 15.6973H323.721V22H321.191V7.20703H323.721V13.4688H325.908L331.418 7.20703H334.494L328.15 14.3301L334.986 22H331.773L326.127 15.6973ZM364.586 7.20703H367.115V22H364.586V11.0898L357.354 22H354.838V7.20703H357.354V18.1309L364.586 7.20703ZM400.871 4.17188H391.232V22H388.689V2.09375H400.871V4.17188ZM406.6 27.9746C406.363 27.9746 406.085 27.9473 405.766 27.8926C405.447 27.8379 405.205 27.7923 405.041 27.7559L405.451 25.6914C405.679 25.7096 405.902 25.7233 406.121 25.7324C406.349 25.7507 406.527 25.7598 406.654 25.7598C407.001 25.7598 407.315 25.6641 407.598 25.4727C407.889 25.2812 408.149 25.0534 408.377 24.7891C408.596 24.5247 408.783 24.2513 408.938 23.9688C409.102 23.6862 409.229 23.4538 409.32 23.2715L410.332 21.3027L403.961 7.20703H406.791L410.852 16.75L411.508 18.541L412.205 16.8047L416.02 7.20703H418.85L411.344 24.2832C411.171 24.666 410.947 25.0716 410.674 25.5C410.41 25.9284 410.086 26.3249 409.703 26.6895C409.32 27.054 408.874 27.3594 408.363 27.6055C407.853 27.8516 407.265 27.9746 406.6 27.9746ZM434.367 7.20703V22H431.824V9.29883H426.383L426.369 13.5371C426.369 14.0384 426.355 14.526 426.328 15C426.31 15.4648 426.278 15.9069 426.232 16.3262C426.16 17.0189 426.046 17.6569 425.891 18.2402C425.736 18.8236 425.54 19.3385 425.303 19.7852C424.92 20.5052 424.405 21.0566 423.758 21.4395C423.111 21.8132 422.304 22 421.338 22H420.6L420.641 19.7441L421.201 19.7305C421.721 19.7305 422.149 19.6029 422.486 19.3477C422.833 19.0833 423.106 18.6914 423.307 18.1719C423.407 17.8893 423.493 17.5658 423.566 17.2012C423.639 16.8275 423.699 16.4173 423.744 15.9707C423.771 15.6152 423.79 15.237 423.799 14.8359C423.817 14.4258 423.826 13.9928 423.826 13.5371L423.854 7.20703H434.367ZM441.449 12.8125H445.975C446.859 12.8125 447.643 12.9264 448.326 13.1543C449.019 13.373 449.602 13.6829 450.076 14.084C450.55 14.485 450.91 14.9635 451.156 15.5195C451.411 16.0755 451.539 16.6862 451.539 17.3516C451.539 18.0078 451.416 18.623 451.17 19.1973C450.924 19.7624 450.564 20.25 450.09 20.6602C449.616 21.0794 449.033 21.4076 448.34 21.6445C447.647 21.8815 446.859 22 445.975 22H438.92V7.20703H441.449V12.8125ZM441.449 14.877V19.9355H445.975C446.503 19.9355 446.959 19.8672 447.342 19.7305C447.725 19.5938 448.039 19.4115 448.285 19.1836C448.531 18.9557 448.709 18.6914 448.818 18.3906C448.937 18.0898 448.996 17.7754 448.996 17.4473C448.996 17.1283 448.937 16.8184 448.818 16.5176C448.7 16.2077 448.518 15.9297 448.271 15.6836C448.025 15.4466 447.711 15.2552 447.328 15.1094C446.954 14.9544 446.503 14.877 445.975 14.877H441.449ZM460.658 15.6973H458.252V22H455.723V7.20703H458.252V13.4688H460.439L465.949 7.20703H469.025L462.682 14.3301L469.518 22H466.305L460.658 15.6973ZM482.396 22C482.296 21.8086 482.214 21.5716 482.15 21.2891C482.096 20.9974 482.055 20.6966 482.027 20.3867C481.772 20.6419 481.485 20.8835 481.166 21.1113C480.856 21.3392 480.514 21.5397 480.141 21.7129C479.758 21.8861 479.352 22.0228 478.924 22.123C478.495 22.2233 478.04 22.2734 477.557 22.2734C476.773 22.2734 476.062 22.1595 475.424 21.9316C474.795 21.7038 474.262 21.3939 473.824 21.002C473.378 20.6191 473.031 20.1634 472.785 19.6348C472.548 19.097 472.43 18.5182 472.43 17.8984C472.43 17.0872 472.589 16.3763 472.908 15.7656C473.236 15.1549 473.697 14.6445 474.289 14.2344C474.882 13.8333 475.592 13.5326 476.422 13.332C477.26 13.1315 478.195 13.0312 479.225 13.0312H481.986V11.8691C481.986 11.4225 481.904 11.0215 481.74 10.666C481.576 10.3105 481.344 10.0052 481.043 9.75C480.742 9.50391 480.373 9.3125 479.936 9.17578C479.507 9.03906 479.024 8.9707 478.486 8.9707C477.985 8.9707 477.534 9.03451 477.133 9.16211C476.741 9.28971 476.408 9.45833 476.135 9.66797C475.861 9.8776 475.647 10.1283 475.492 10.4199C475.346 10.7025 475.273 10.9987 475.273 11.3086H472.73C472.74 10.7708 472.876 10.2422 473.141 9.72266C473.414 9.20312 473.806 8.73372 474.316 8.31445C474.818 7.9043 475.428 7.57161 476.148 7.31641C476.878 7.0612 477.702 6.93359 478.623 6.93359C479.462 6.93359 480.241 7.03841 480.961 7.24805C481.681 7.44857 482.305 7.75391 482.834 8.16406C483.354 8.58333 483.764 9.10286 484.064 9.72266C484.365 10.3424 484.516 11.0671 484.516 11.8965V18.7734C484.516 19.2656 484.561 19.7897 484.652 20.3457C484.743 20.8926 484.871 21.3711 485.035 21.7812V22H482.396ZM477.926 20.0723C478.418 20.0723 478.878 20.0085 479.307 19.8809C479.735 19.7533 480.127 19.5846 480.482 19.375C480.829 19.1654 481.13 18.9284 481.385 18.6641C481.64 18.3906 481.84 18.1081 481.986 17.8164V14.8223H479.635C478.76 14.8223 477.994 14.8997 477.338 15.0547C476.691 15.2005 476.176 15.4284 475.793 15.7383C475.52 15.957 475.31 16.2168 475.164 16.5176C475.027 16.8184 474.959 17.1602 474.959 17.543C474.959 17.9076 475.018 18.2448 475.137 18.5547C475.264 18.8646 475.451 19.1289 475.697 19.3477C475.943 19.5755 476.253 19.7533 476.627 19.8809C477.001 20.0085 477.434 20.0723 477.926 20.0723ZM499.117 7.20703H501.646V22H499.117V11.0898L491.885 22H489.369V7.20703H491.885V18.1309L499.117 7.20703ZM499.432 1.17773C499.432 1.71549 499.336 2.21224 499.145 2.66797C498.953 3.11458 498.68 3.4974 498.324 3.81641C497.969 4.13542 497.54 4.38607 497.039 4.56836C496.538 4.74154 495.977 4.82812 495.357 4.82812C494.729 4.82812 494.163 4.74154 493.662 4.56836C493.161 4.38607 492.732 4.13542 492.377 3.81641C492.021 3.4974 491.743 3.11458 491.543 2.66797C491.352 2.21224 491.256 1.71549 491.256 1.17773H493.307C493.307 1.45117 493.348 1.71549 493.43 1.9707C493.512 2.2168 493.635 2.43099 493.799 2.61328C493.963 2.79557 494.173 2.94141 494.428 3.05078C494.683 3.16016 494.993 3.21484 495.357 3.21484C495.713 3.21484 496.014 3.16016 496.26 3.05078C496.515 2.94141 496.725 2.79557 496.889 2.61328C497.053 2.43099 497.176 2.2168 497.258 1.9707C497.34 1.71549 497.381 1.45117 497.381 1.17773H499.432ZM508.428 12.8125H509.781C510.574 12.8125 511.276 12.9264 511.887 13.1543C512.507 13.3822 513.026 13.6966 513.445 14.0977C513.855 14.5078 514.165 14.9909 514.375 15.5469C514.594 16.1029 514.703 16.7044 514.703 17.3516C514.703 17.9987 514.594 18.6048 514.375 19.1699C514.165 19.735 513.855 20.2272 513.445 20.6465C513.026 21.0658 512.511 21.3984 511.9 21.6445C511.29 21.8815 510.583 22 509.781 22H505.898V7.20703H508.428V12.8125ZM518.791 22H516.262V7.20703H518.791V22ZM508.428 14.877V19.9355H509.781C510.21 19.9355 510.574 19.8672 510.875 19.7305C511.176 19.5846 511.422 19.3932 511.613 19.1562C511.796 18.9284 511.928 18.6686 512.01 18.377C512.101 18.0762 512.146 17.7663 512.146 17.4473C512.146 17.1465 512.101 16.8457 512.01 16.5449C511.928 16.235 511.796 15.957 511.613 15.7109C511.422 15.4648 511.176 15.2643 510.875 15.1094C510.574 14.9544 510.21 14.877 509.781 14.877H508.428ZM523.111 27.6875V7.20703H525.422L525.545 8.82031C525.745 8.5651 525.964 8.33724 526.201 8.13672C526.438 7.92708 526.693 7.74935 526.967 7.60352C527.35 7.38477 527.773 7.2207 528.238 7.11133C528.712 6.99284 529.218 6.93359 529.756 6.93359C530.704 6.93359 531.542 7.12044 532.271 7.49414C533.001 7.86784 533.611 8.38737 534.104 9.05273C534.596 9.7181 534.969 10.5156 535.225 11.4453C535.48 12.3659 535.607 13.3776 535.607 14.4805V14.7676C535.607 15.8249 535.48 16.8138 535.225 17.7344C534.969 18.6458 534.596 19.4388 534.104 20.1133C533.611 20.7878 533.001 21.3164 532.271 21.6992C531.551 22.082 530.727 22.2734 529.797 22.2734C529.232 22.2734 528.703 22.2142 528.211 22.0957C527.728 21.9772 527.29 21.8086 526.898 21.5898C526.661 21.4531 526.438 21.3027 526.229 21.1387C526.019 20.9655 525.823 20.7786 525.641 20.5781V27.6875H523.111ZM533.078 14.4805C533.078 13.7604 532.996 13.0768 532.832 12.4297C532.677 11.7734 532.436 11.1947 532.107 10.6934C531.77 10.2012 531.346 9.80924 530.836 9.51758C530.326 9.22591 529.715 9.08008 529.004 9.08008C528.612 9.08008 528.247 9.12565 527.91 9.2168C527.582 9.30794 527.286 9.4401 527.021 9.61328C526.73 9.78646 526.47 10.0007 526.242 10.2559C526.014 10.5111 525.814 10.7936 525.641 11.1035V18.2266C525.796 18.5 525.973 18.7552 526.174 18.9922C526.374 19.2292 526.602 19.4297 526.857 19.5938C527.149 19.7852 527.473 19.9355 527.828 20.0449C528.193 20.1543 528.594 20.209 529.031 20.209C529.733 20.209 530.339 20.0632 530.85 19.7715C531.36 19.4707 531.779 19.0697 532.107 18.5684C532.436 18.0671 532.677 17.4883 532.832 16.832C532.996 16.1758 533.078 15.4876 533.078 14.7676V14.4805Z" fill="#020202"/>
</svg>
