<svg width="430" height="38" viewBox="0 0 430 38" fill="none" xmlns="http://www.w3.org/2000/svg">
<path d="M1.97397 30.3659C1.74997 30.3659 1.49797 30.1839 1.21797 29.8199C0.93797 29.4559 0.81197 29.1059 0.83997 28.7699C0.86797 28.3219 0.99397 27.6779 1.21797 26.8379C1.44197 25.9979 1.69397 25.1439 1.97397 24.2759C2.25397 23.4079 2.50597 22.7219 2.72997 22.2179C2.84197 21.7699 2.93997 21.3779 3.02397 21.0419C3.13597 20.6779 3.20597 20.4399 3.23397 20.3279C3.31797 20.2159 3.44397 19.9219 3.61197 19.4459C3.80797 18.9699 3.96197 18.5079 4.07397 18.0599C4.12997 17.8359 4.24197 17.4159 4.40997 16.7999C4.60597 16.1559 4.82997 15.4139 5.08197 14.5739C5.36197 13.7339 5.62797 12.9079 5.87997 12.0959C6.15997 11.2839 6.39797 10.5699 6.59397 9.95394C6.78997 9.33794 6.91597 8.93194 6.97197 8.73594C7.19597 8.39994 7.36397 8.07794 7.47597 7.76994C7.58797 7.46194 7.65797 7.25194 7.68597 7.13994C7.85397 7.02794 7.95197 6.88794 7.97997 6.71994C8.00797 6.52394 8.02197 6.36994 8.02197 6.25794C8.02197 6.11794 8.06397 6.00594 8.14797 5.92194C8.25997 5.83794 8.31597 5.73994 8.31597 5.62794C8.42797 5.54394 8.49797 5.41794 8.52597 5.24994C8.55397 5.05394 8.63797 4.88594 8.77797 4.74594L8.98797 4.03194L11.466 3.98994C11.41 4.32594 11.326 4.74594 11.214 5.24994C11.102 5.72594 10.836 6.36994 10.416 7.18194C10.276 7.74194 10.108 8.24594 9.91197 8.69394C9.74397 9.14194 9.67397 9.43594 9.70197 9.57594C9.64597 9.63194 9.51997 9.91194 9.32397 10.4159C9.15597 10.9199 8.94597 11.5359 8.69397 12.2639C8.46997 12.9919 8.23197 13.7199 7.97997 14.4479C7.75597 15.1759 7.54597 15.8199 7.34997 16.3799C7.18197 16.9119 7.06997 17.2479 7.01397 17.3879C6.78997 17.8359 6.53797 18.4939 6.25797 19.3619C5.97797 20.2299 5.55797 21.4059 4.99797 22.8899C4.77397 23.3379 4.49397 24.0099 4.15797 24.9059C3.84997 25.8019 3.59797 26.6139 3.40197 27.3419C3.09397 28.4339 2.86997 29.1899 2.72997 29.6099C2.61797 30.0579 2.51997 30.2959 2.43597 30.3239C2.35197 30.3799 2.19797 30.3939 1.97397 30.3659ZM2.30997 5.33394C1.52597 5.36194 0.93797 5.31994 0.54597 5.20794C0.18197 5.09594 0.0559702 4.81594 0.16797 4.36794C0.25197 4.03194 0.43397 3.77994 0.71397 3.61194C0.99397 3.44394 1.39997 3.31794 1.93197 3.23394C2.23997 3.17794 2.63197 3.10794 3.10797 3.02394C3.61197 2.93994 4.08797 2.85594 4.53597 2.77194C5.45997 2.65994 6.21597 2.56194 6.80397 2.47794C7.41997 2.39394 8.04997 2.32394 8.69397 2.26794C9.33797 2.21194 10.15 2.15594 11.13 2.09994C11.942 2.04394 12.628 2.00194 13.188 1.97394C13.776 1.91794 14.07 1.88994 14.07 1.88994C14.154 1.88994 14.448 1.91794 14.952 1.97394C15.456 2.02994 16.002 2.09994 16.59 2.18394C17.178 2.26794 17.612 2.36594 17.892 2.47794C18.536 2.61794 18.998 2.81394 19.278 3.06594C19.586 3.31794 19.796 3.68194 19.908 4.15794C19.992 4.49394 19.992 4.70394 19.908 4.78794C19.824 4.84394 19.67 4.92794 19.446 5.03994C18.802 5.23594 18.326 5.33394 18.018 5.33394C17.71 5.33394 17.36 5.26394 16.968 5.12394C16.828 4.98394 16.66 4.85794 16.464 4.74594C16.296 4.63394 15.988 4.54994 15.54 4.49394C15.12 4.40994 14.448 4.33994 13.524 4.28394C12.74 4.36794 12.054 4.40994 11.466 4.40994C10.878 4.40994 10.584 4.47994 10.584 4.61994L8.10597 4.74594L6.04797 4.95594C5.76797 4.98394 5.37597 5.02594 4.87197 5.08194C4.36797 5.10994 3.87797 5.15194 3.40197 5.20794C2.92597 5.23594 2.56197 5.27794 2.30997 5.33394ZM14.6435 27.8879C14.2795 27.8879 13.9855 27.8179 13.7615 27.6779C13.5655 27.5379 13.3135 27.3419 13.0055 27.0899C12.4735 26.5299 12.0955 25.9979 11.8715 25.4939C11.6475 24.9619 11.5775 24.4579 11.6615 23.9819C11.7455 23.7579 11.7735 23.5479 11.7455 23.3519C11.7455 23.1279 11.7455 23.0159 11.7455 23.0159C11.6055 22.8759 11.5635 22.7919 11.6195 22.7639C11.6755 22.7079 11.7315 22.6239 11.7875 22.5119C11.9555 22.5119 12.0115 22.3579 11.9555 22.0499C11.8995 21.8259 12.0115 21.3359 12.2915 20.5799C12.5715 19.8239 12.9215 19.1099 13.3415 18.4379C13.5095 18.1579 13.7615 17.7939 14.0975 17.3459C14.4335 16.8699 14.7975 16.4079 15.1895 15.9599C15.6095 15.4839 15.9875 15.1059 16.3235 14.8259C17.0235 14.2379 17.6395 13.8039 18.1715 13.5239C18.7035 13.2439 19.2775 13.0339 19.8935 12.8939C20.5095 12.7539 20.9295 12.6839 21.1535 12.6839C21.4055 12.6839 21.7415 12.9079 22.1615 13.3559C22.8055 13.6359 23.2675 13.9719 23.5475 14.3639C23.8555 14.7559 24.0515 15.3299 24.1355 16.0859C24.2195 16.9259 24.1495 17.8919 23.9255 18.9839C23.7295 20.0479 23.0715 21.3779 21.9515 22.9739C21.2515 23.9819 20.6075 24.7379 20.0195 25.2419C19.4315 25.7179 18.7315 26.1939 17.9195 26.6699C17.3315 27.0619 16.7995 27.3559 16.3235 27.5519C15.8475 27.7199 15.2875 27.8319 14.6435 27.8879ZM18.6755 23.4359C19.3475 22.6799 19.8795 21.9659 20.2715 21.2939C20.6915 20.6219 21.0835 19.7679 21.4475 18.7319C21.5595 18.4239 21.6295 18.0459 21.6575 17.5979C21.6855 17.1219 21.6715 16.6879 21.6155 16.2959C21.5875 15.8759 21.4895 15.6379 21.3215 15.5819C20.9855 15.3859 20.5795 15.3299 20.1035 15.4139C19.6275 15.4699 19.1095 15.7359 18.5495 16.2119C17.6815 16.9399 16.9255 17.8499 16.2815 18.9419C15.6375 20.0059 15.0075 21.2239 14.3915 22.5959C13.9715 23.6039 13.8735 24.4159 14.0975 25.0319C14.3495 25.6199 14.8675 25.8299 15.6515 25.6619C16.4635 25.4659 17.4715 24.7239 18.6755 23.4359ZM36.18 28.4339C35.984 28.5459 35.718 28.5039 35.382 28.3079C35.074 28.1119 34.766 27.8179 34.458 27.4259C34.262 27.0899 34.122 26.7259 34.038 26.3339C33.982 25.9419 33.954 25.3959 33.954 24.6959C33.982 24.1359 33.954 23.7719 33.87 23.6039C33.814 23.4359 33.66 23.4639 33.408 23.6879C33.156 23.8839 32.722 24.2899 32.106 24.9059C31.406 25.6059 30.734 26.1519 30.09 26.5439C29.474 26.9359 28.97 27.1179 28.578 27.0899C28.382 27.0899 28.158 26.9919 27.906 26.7959C27.682 26.5719 27.472 26.3059 27.276 25.9979C27.08 25.6619 26.912 25.3259 26.772 24.9899C26.604 24.3739 26.576 23.5899 26.688 22.6379C26.828 21.6579 27.052 20.6359 27.36 19.5719C27.668 18.5079 28.018 17.4999 28.41 16.5479C28.83 15.5959 29.25 14.8259 29.67 14.2379C30.118 13.6499 30.51 13.3559 30.846 13.3559C31.07 13.3559 31.266 13.4679 31.434 13.6919C31.63 13.9159 31.826 14.2659 32.022 14.7419C32.134 14.9379 32.176 15.1059 32.148 15.2459C32.148 15.3859 32.036 15.5539 31.812 15.7499C31.56 16.0859 31.266 16.5899 30.93 17.2619C30.622 17.9339 30.314 18.6619 30.006 19.4459C29.726 20.2299 29.474 20.9859 29.25 21.7139C29.026 22.4419 28.872 23.0439 28.788 23.5199C28.704 23.9679 28.718 24.1919 28.83 24.1919C29.222 24.1919 29.684 24.0379 30.216 23.7299C30.776 23.3939 31.308 22.9879 31.812 22.5119C32.4 21.9239 32.918 21.2799 33.366 20.5799C33.842 19.8799 34.318 19.1379 34.794 18.3539C35.158 17.7939 35.536 17.1779 35.928 16.5059C36.348 15.8339 36.614 15.3579 36.726 15.0779C37.118 14.3499 37.412 13.8599 37.608 13.6079C37.804 13.3279 38.042 13.1459 38.322 13.0619C38.462 13.0619 38.588 13.0619 38.7 13.0619C38.84 13.0619 38.91 13.0619 38.91 13.0619C39.078 13.0899 39.274 13.2159 39.498 13.4399C39.722 13.5519 39.848 13.6639 39.876 13.7759C39.904 13.8599 39.918 13.9719 39.918 14.1119C39.806 14.3919 39.624 14.8119 39.372 15.3719C39.148 15.9039 38.98 16.2959 38.868 16.5479C38.336 17.7519 37.804 18.9419 37.272 20.1179C36.768 21.2659 36.404 22.4419 36.18 23.6459C36.124 24.0379 36.11 24.4999 36.138 25.0319C36.194 25.5359 36.278 25.8999 36.39 26.1239C36.474 26.2919 36.572 26.4879 36.684 26.7119C36.824 26.9079 36.978 27.0759 37.146 27.2159C37.398 27.3839 37.44 27.5659 37.272 27.7619C37.132 27.9579 36.936 28.1259 36.684 28.2659C36.432 28.3779 36.264 28.4339 36.18 28.4339ZM35.634 11.0039C34.766 11.1159 34.038 10.8639 33.45 10.2479C32.862 9.63194 32.414 8.72194 32.106 7.51794C32.05 7.29394 32.022 7.09794 32.022 6.92994C32.05 6.73394 32.106 6.56594 32.19 6.42594C32.246 6.31394 32.358 6.22994 32.526 6.17394C32.694 6.08994 32.834 6.07594 32.946 6.13194C33.338 6.27194 33.618 6.45394 33.786 6.67794C33.982 6.87394 34.108 7.12594 34.164 7.43394C34.22 7.57394 34.248 7.71394 34.248 7.85394C34.276 7.99394 34.29 8.04994 34.29 8.02194C34.43 8.46994 34.612 8.77794 34.836 8.94594C35.06 9.11394 35.396 9.09994 35.844 8.90394C36.32 8.70794 36.782 8.48394 37.23 8.23194C37.706 7.97994 38.126 7.67194 38.49 7.30794C38.798 6.99994 39.092 6.71994 39.372 6.46794C39.68 6.21594 39.974 5.94994 40.254 5.66994L40.296 5.62794C40.408 5.54394 40.548 5.51594 40.716 5.54394C40.884 5.57194 40.982 5.61394 41.01 5.66994C41.206 5.86594 41.304 6.06194 41.304 6.25794C41.304 6.45394 41.304 6.66394 41.304 6.88794L41.262 6.97194C41.318 7.13994 41.178 7.46194 40.842 7.93794C40.534 8.41394 40.156 8.81994 39.708 9.15594C39.316 9.46394 38.896 9.74394 38.448 9.99594C38 10.2479 37.538 10.4859 37.062 10.7099C36.866 10.8219 36.656 10.8919 36.432 10.9199C36.236 10.9199 35.97 10.9479 35.634 11.0039ZM53.9116 28.4759C53.0716 28.5039 52.4556 28.3359 52.0636 27.9719C51.6716 27.5799 51.5176 27.0479 51.6016 26.3759C51.7976 26.1799 51.9936 26.0539 52.1896 25.9979C52.3856 25.9419 52.6656 25.9839 53.0296 26.1239C53.3376 26.2359 53.6456 26.2919 53.9536 26.2919C54.2616 26.2919 54.5696 26.2359 54.8776 26.1239C55.0176 26.0399 55.1716 26.0119 55.3396 26.0399C55.5356 26.0399 55.7316 26.0119 55.9276 25.9559C56.3196 25.8159 56.7956 25.6059 57.3556 25.3259C57.9436 25.0459 58.5316 24.7239 59.1196 24.3599C59.7076 23.9679 60.1836 23.5619 60.5476 23.1419C60.6036 23.0859 60.6876 22.9179 60.7996 22.6379C60.9116 22.3299 60.9536 22.1199 60.9256 22.0079C60.6456 22.0079 60.1976 22.0639 59.5816 22.1759C58.9936 22.2599 58.5596 22.3299 58.2796 22.3859C57.6916 22.4699 57.2436 22.3999 56.9356 22.1759C56.6276 21.9519 56.3616 21.5739 56.1376 21.0419C56.0536 20.8179 56.0816 20.6359 56.2216 20.4959C56.3616 20.3279 56.5016 20.1039 56.6416 19.8239C56.8376 19.7959 57.0196 19.7819 57.1876 19.7819C57.3836 19.7539 57.5656 19.7959 57.7336 19.9079C57.9016 20.0199 58.0416 20.0199 58.1536 19.9079C58.2936 19.7959 58.4476 19.7819 58.6156 19.8659C58.7836 19.9219 59.0076 19.9359 59.2876 19.9079C59.5676 19.8799 60.1696 19.8379 61.0936 19.7819C61.2336 19.7819 61.3596 19.7679 61.4716 19.7399C61.6116 19.6839 61.7096 19.5719 61.7656 19.4039C61.8776 19.0959 61.9336 18.7739 61.9336 18.4379C61.9336 18.0739 61.9056 17.5419 61.8496 16.8419C61.6816 16.3659 61.5276 16.0579 61.3876 15.9179C61.2476 15.7499 61.0656 15.5959 60.8416 15.4559C59.9736 15.3719 59.2876 15.4139 58.7836 15.5819C58.2796 15.7219 57.9436 15.9179 57.7756 16.1699C57.3276 16.5059 56.8656 16.7019 56.3896 16.7579C55.9416 16.8139 55.6896 16.7159 55.6336 16.4639C55.6336 16.3239 55.5916 16.0999 55.5076 15.7919C55.4516 15.4839 55.4236 15.2039 55.4236 14.9519C55.4236 14.6719 55.4936 14.5319 55.6336 14.5319C56.0256 14.0559 56.3056 13.6919 56.4736 13.4399C56.6416 13.1599 57.0476 12.9919 57.6916 12.9359C58.5036 12.7679 59.2036 12.7119 59.7916 12.7679C60.3796 12.7959 60.9396 12.9219 61.4716 13.1459C61.7796 13.2299 62.1576 13.4539 62.6056 13.8179C63.0536 14.1819 63.3336 14.5319 63.4456 14.8679C63.5856 14.9799 63.7536 15.2459 63.9496 15.6659C64.1736 16.0579 64.3976 16.7999 64.6216 17.8919C64.4816 18.9279 64.2996 19.8519 64.0756 20.6639C63.8796 21.4759 63.6136 22.2459 63.2776 22.9739C62.9416 23.7299 62.6336 24.2899 62.3536 24.6539C62.0736 24.9899 61.7376 25.3539 61.3456 25.7459C60.1696 26.4739 59.3156 27.0199 58.7836 27.3839C58.2516 27.7479 57.8316 27.9859 57.5236 28.0979C57.2156 28.2099 56.7956 28.2659 56.2636 28.2659C55.8996 28.4339 55.5076 28.5179 55.0876 28.5179C54.6956 28.4899 54.3036 28.4759 53.9116 28.4759ZM66.8315 28.4759C65.9915 28.5039 65.3755 28.3359 64.9835 27.9719C64.5915 27.5799 64.4375 27.0479 64.5215 26.3759C64.7175 26.1799 64.9135 26.0539 65.1095 25.9979C65.3055 25.9419 65.5855 25.9839 65.9495 26.1239C66.2575 26.2359 66.5655 26.2919 66.8735 26.2919C67.1815 26.2919 67.4895 26.2359 67.7975 26.1239C67.9375 26.0399 68.0915 26.0119 68.2595 26.0399C68.4555 26.0399 68.6515 26.0119 68.8475 25.9559C69.2395 25.8159 69.7155 25.6059 70.2755 25.3259C70.8635 25.0459 71.4515 24.7239 72.0395 24.3599C72.6275 23.9679 73.1035 23.5619 73.4675 23.1419C73.5235 23.0859 73.6075 22.9179 73.7195 22.6379C73.8315 22.3299 73.8735 22.1199 73.8455 22.0079C73.5655 22.0079 73.1175 22.0639 72.5015 22.1759C71.9135 22.2599 71.4795 22.3299 71.1995 22.3859C70.6115 22.4699 70.1635 22.3999 69.8555 22.1759C69.5475 21.9519 69.2815 21.5739 69.0575 21.0419C68.9735 20.8179 69.0015 20.6359 69.1415 20.4959C69.2815 20.3279 69.4215 20.1039 69.5615 19.8239C69.7575 19.7959 69.9395 19.7819 70.1075 19.7819C70.3035 19.7539 70.4855 19.7959 70.6535 19.9079C70.8215 20.0199 70.9615 20.0199 71.0735 19.9079C71.2135 19.7959 71.3675 19.7819 71.5355 19.8659C71.7035 19.9219 71.9275 19.9359 72.2075 19.9079C72.4875 19.8799 73.0895 19.8379 74.0135 19.7819C74.1535 19.7819 74.2795 19.7679 74.3915 19.7399C74.5315 19.6839 74.6295 19.5719 74.6855 19.4039C74.7975 19.0959 74.8535 18.7739 74.8535 18.4379C74.8535 18.0739 74.8255 17.5419 74.7695 16.8419C74.6015 16.3659 74.4475 16.0579 74.3075 15.9179C74.1675 15.7499 73.9855 15.5959 73.7615 15.4559C72.8935 15.3719 72.2075 15.4139 71.7035 15.5819C71.1995 15.7219 70.8635 15.9179 70.6955 16.1699C70.2475 16.5059 69.7855 16.7019 69.3095 16.7579C68.8615 16.8139 68.6095 16.7159 68.5535 16.4639C68.5535 16.3239 68.5115 16.0999 68.4275 15.7919C68.3715 15.4839 68.3435 15.2039 68.3435 14.9519C68.3435 14.6719 68.4135 14.5319 68.5535 14.5319C68.9455 14.0559 69.2255 13.6919 69.3935 13.4399C69.5615 13.1599 69.9675 12.9919 70.6115 12.9359C71.4235 12.7679 72.1235 12.7119 72.7115 12.7679C73.2995 12.7959 73.8595 12.9219 74.3915 13.1459C74.6995 13.2299 75.0775 13.4539 75.5255 13.8179C75.9735 14.1819 76.2535 14.5319 76.3655 14.8679C76.5055 14.9799 76.6735 15.2459 76.8695 15.6659C77.0935 16.0579 77.3175 16.7999 77.5415 17.8919C77.4015 18.9279 77.2195 19.8519 76.9955 20.6639C76.7995 21.4759 76.5335 22.2459 76.1975 22.9739C75.8615 23.7299 75.5535 24.2899 75.2735 24.6539C74.9935 24.9899 74.6575 25.3539 74.2655 25.7459C73.0895 26.4739 72.2355 27.0199 71.7035 27.3839C71.1715 27.7479 70.7515 27.9859 70.4435 28.0979C70.1355 28.2099 69.7155 28.2659 69.1835 28.2659C68.8195 28.4339 68.4275 28.5179 68.0075 28.5179C67.6155 28.4899 67.2235 28.4759 66.8315 28.4759ZM77.8614 28.3499C77.7494 28.2939 77.5954 28.1819 77.3994 28.0139C77.2314 27.8459 77.0774 27.6779 76.9374 27.5099C76.8534 27.4259 76.7834 27.3559 76.7274 27.2999C76.6714 27.2159 76.6154 27.1599 76.5594 27.1319C76.5594 26.9359 76.6014 26.7959 76.6854 26.7119C76.7974 26.6279 76.9094 26.5299 77.0214 26.4179C77.1334 26.2499 77.3154 26.1659 77.5674 26.1659C77.8194 26.1659 78.0154 26.0959 78.1554 25.9559C78.6594 25.5919 79.1774 25.2139 79.7094 24.8219C80.2414 24.4299 80.6894 23.9679 81.0534 23.4359C81.4454 22.8759 81.8374 22.2739 82.2294 21.6299C82.6214 20.9859 82.9994 20.3559 83.3634 19.7399C83.4754 19.5439 83.6574 19.1939 83.9094 18.6899C84.1614 18.1859 84.3994 17.6959 84.6234 17.2199C84.8754 16.7159 85.0154 16.3659 85.0434 16.1699C84.7914 16.0859 84.5534 16.0159 84.3294 15.9599C84.1334 15.8759 83.9374 15.8059 83.7414 15.7499C83.4894 15.3579 83.3494 15.1339 83.3214 15.0779C83.2934 14.9939 83.2794 14.7279 83.2794 14.2799C83.2794 13.9439 83.4614 13.7339 83.8254 13.6499C84.6374 13.4539 85.3514 13.3279 85.9674 13.2719C86.6114 13.2159 87.2414 13.1039 87.8574 12.9359C88.2494 12.8239 88.7254 12.7819 89.2854 12.8099C89.8454 12.8379 90.4054 12.9639 90.9654 13.1879C91.2174 13.2999 91.4274 13.4399 91.5954 13.6079C91.7634 13.7759 91.9174 13.9719 92.0574 14.1959C92.4214 14.6999 92.6034 15.1339 92.6034 15.4979C92.6314 15.8619 92.6174 16.2119 92.5614 16.5479C92.5054 16.8839 92.5474 17.2619 92.6874 17.6819C92.4914 18.4379 92.2954 19.1099 92.0994 19.6979C91.9034 20.2579 91.7214 20.7899 91.5534 21.2939C91.3854 21.7699 91.2314 22.2179 91.0914 22.6379C90.9514 23.0579 90.8394 23.4779 90.7554 23.8979C90.6434 24.3459 90.5034 24.7939 90.3354 25.2419C90.1674 25.6899 90.0414 26.1519 89.9574 26.6279C89.9014 26.9919 89.7334 27.2579 89.4534 27.4259C89.2014 27.5939 88.9214 27.7479 88.6134 27.8879C88.5014 27.9159 88.3054 27.8879 88.0254 27.8039C87.7734 27.6919 87.5354 27.5379 87.3114 27.3419C87.2274 27.0339 87.1994 26.7539 87.2274 26.5019C87.2554 26.2499 87.3114 25.9979 87.3954 25.7459C87.4794 25.5219 87.6334 25.0179 87.8574 24.2339C88.0814 23.4499 88.3334 22.5679 88.6134 21.5879C88.8934 20.6079 89.1594 19.6979 89.4114 18.8579C89.6634 18.0179 89.8314 17.4299 89.9154 17.0939C90.0554 16.6459 90.0974 16.3099 90.0414 16.0859C90.0134 15.8619 89.9714 15.6519 89.9154 15.4559C89.3274 15.2319 88.9214 15.1619 88.6974 15.2459C88.5014 15.3019 88.2494 15.3579 87.9414 15.4139C87.8014 15.5259 87.6894 15.6519 87.6054 15.7919C87.5214 15.9319 87.4654 16.0719 87.4374 16.2119C87.1294 17.0239 86.8634 17.6679 86.6394 18.1439C86.4434 18.6199 86.2474 19.0539 86.0514 19.4459C85.8554 19.8099 85.6314 20.2159 85.3794 20.6639C85.1554 21.1119 84.8614 21.7279 84.4974 22.5119C84.2734 23.0159 83.9934 23.4779 83.6574 23.8979C83.3494 24.3179 83.0694 24.7659 82.8174 25.2419L82.3554 25.8299C82.3834 25.8299 82.2714 25.9419 82.0194 26.1659C81.7674 26.3899 81.5154 26.6139 81.2634 26.8379C81.0394 27.0619 80.9274 27.1739 80.9274 27.1739L79.6254 28.1819C79.4854 28.2939 79.2474 28.3499 78.9114 28.3499C78.5754 28.3499 78.2254 28.3499 77.8614 28.3499ZM101.907 27.0479C101.319 27.5519 100.633 27.8459 99.8491 27.9299C99.0931 28.0139 98.3511 27.9019 97.6231 27.5939C96.8951 27.2579 96.2931 26.7539 95.8171 26.0819C95.3411 25.4659 95.0331 24.7659 94.8931 23.9819C94.7531 23.1699 94.7391 22.1199 94.8511 20.8319C94.9351 19.7399 95.2851 18.6479 95.9011 17.5559C96.5171 16.4359 97.2591 15.4419 98.1271 14.5739C99.0231 13.7059 99.9051 13.1039 100.773 12.7679C101.193 12.4879 101.543 12.3619 101.823 12.3899C102.131 12.3899 102.593 12.4179 103.209 12.4739C103.853 12.5579 104.329 12.6839 104.637 12.8519C104.973 13.0199 105.239 13.2439 105.435 13.5239C105.855 13.9439 106.135 14.3639 106.275 14.7839C106.415 15.1759 106.485 15.5679 106.485 15.9599C106.373 16.5759 105.953 17.3319 105.225 18.2279C104.525 19.0959 103.601 19.8099 102.453 20.3699C101.837 20.5659 101.165 20.6499 100.437 20.6219C99.7091 20.5939 99.1071 20.4119 98.6311 20.0759C98.0991 19.8519 97.7491 19.8939 97.5811 20.2019C97.4131 20.4819 97.2591 21.1819 97.1191 22.3019C97.0071 23.3659 97.0911 24.1499 97.3711 24.6539C97.6511 25.1299 98.0291 25.4099 98.5051 25.4939C99.0651 25.6059 99.4991 25.6899 99.8071 25.7459C100.143 25.7739 100.549 25.6479 101.025 25.3679C101.473 25.0879 101.753 24.9339 101.865 24.9059C101.977 24.8499 102.061 24.7939 102.117 24.7379C102.201 24.6539 102.383 24.4719 102.663 24.1919C102.859 23.9959 103.013 23.8559 103.125 23.7719C103.237 23.6599 103.363 23.6039 103.503 23.6039C103.643 23.6039 103.769 23.6739 103.881 23.8139C103.993 23.9259 104.105 24.0099 104.217 24.0659C104.497 24.0659 104.553 24.2339 104.385 24.5699C104.245 24.9059 103.951 25.3119 103.503 25.7879C103.055 26.2359 102.523 26.6559 101.907 27.0479ZM101.865 18.1439C102.173 18.0039 102.495 17.8079 102.831 17.5559C103.167 17.2759 103.447 16.9819 103.671 16.6739C103.923 16.3379 104.049 16.0579 104.049 15.8339C104.049 15.4419 103.867 15.1199 103.503 14.8679C103.139 14.5879 102.593 14.5459 101.865 14.7419C101.557 14.8259 101.207 15.0359 100.815 15.3719C100.423 15.6799 100.045 16.0299 99.6811 16.4219C99.3451 16.8139 99.0651 17.1639 98.8411 17.4719C98.6451 17.7799 98.5751 17.9619 98.6311 18.0179C98.7151 18.1579 98.9531 18.2699 99.3451 18.3539C99.7371 18.4099 100.171 18.4239 100.647 18.3959C101.151 18.3679 101.557 18.2839 101.865 18.1439ZM108.341 35.8679C108.005 36.0919 107.655 36.0779 107.291 35.8259C106.955 35.5739 106.703 35.1959 106.535 34.6919C106.367 34.1879 106.381 33.6559 106.577 33.0959C106.633 32.9279 106.717 32.6479 106.829 32.2559C106.941 31.8919 107.011 31.5699 107.039 31.2899C107.067 31.0939 107.151 30.7579 107.291 30.2819C107.431 29.8339 107.585 29.3859 107.753 28.9379C107.949 28.4899 108.103 28.1679 108.215 27.9719C108.383 27.6919 108.495 27.3699 108.551 27.0059C108.635 26.6419 108.677 26.3619 108.677 26.1659C108.733 25.9699 108.803 25.7459 108.887 25.4939C108.999 25.2419 109.111 25.0459 109.223 24.9059C109.279 24.6819 109.363 24.4439 109.475 24.1919C109.587 23.9119 109.713 23.6739 109.853 23.4779C109.909 23.2819 109.951 23.0439 109.979 22.7639C110.035 22.4839 110.119 22.3299 110.231 22.3019C110.259 22.1899 110.273 22.0779 110.273 21.9659C110.301 21.8539 110.357 21.6999 110.441 21.5039C110.497 21.1959 110.623 20.7479 110.819 20.1599C111.015 19.5719 111.253 18.9279 111.533 18.2279C111.841 17.4159 111.981 16.6459 111.953 15.9179C111.953 15.1619 111.743 14.6999 111.323 14.5319C111.099 14.4199 110.959 14.2659 110.903 14.0699C110.847 13.8459 110.875 13.6219 110.987 13.3979C111.099 13.1739 111.267 13.0199 111.491 12.9359C111.743 12.8239 112.009 12.7819 112.289 12.8099C112.597 12.8379 112.863 12.8939 113.087 12.9779C113.311 13.0339 113.409 13.0899 113.381 13.1459C113.381 13.2859 113.451 13.3699 113.591 13.3979C113.647 13.3139 113.759 13.4119 113.927 13.6919C114.123 13.9439 114.305 14.2379 114.473 14.5739C114.641 14.9099 114.725 15.1479 114.725 15.2879C114.669 15.3999 114.641 15.4699 114.641 15.4979C114.641 15.4979 114.697 15.4979 114.809 15.4979C114.809 15.4979 114.963 15.4279 115.271 15.2879C115.579 15.1199 115.901 14.9379 116.237 14.7419C116.601 14.5179 116.839 14.3499 116.951 14.2379C116.951 14.2379 117.021 14.2099 117.161 14.1539C117.329 14.0699 117.469 13.9719 117.581 13.8599C118.141 13.6359 118.743 13.5939 119.387 13.7339C120.059 13.8739 120.591 14.1259 120.983 14.4899C121.543 15.1899 121.823 15.8619 121.823 16.5059C121.851 17.1499 121.669 17.9619 121.277 18.9419C121.221 19.0819 121.095 19.3199 120.899 19.6559C120.731 19.9639 120.563 20.2579 120.395 20.5379C120.227 20.7899 120.143 20.9159 120.143 20.9159C119.499 21.9239 118.743 22.7639 117.875 23.4359C117.007 24.1079 116.125 24.6959 115.229 25.1999C114.949 25.3959 114.655 25.5499 114.347 25.6619C114.067 25.7459 113.815 25.8019 113.591 25.8299C113.367 25.8299 113.213 25.8019 113.129 25.7459C112.821 25.5219 112.541 25.0459 112.289 24.3179C112.149 24.6819 112.009 25.0459 111.869 25.4099C111.757 25.7459 111.687 25.9699 111.659 26.0819C111.631 26.2779 111.603 26.4459 111.575 26.5859C111.547 26.6979 111.477 26.7959 111.365 26.8799C111.365 26.8799 111.351 26.9359 111.323 27.0479C111.295 27.1599 111.197 27.3279 111.029 27.5519C110.749 28.3639 110.497 29.0639 110.273 29.6519C110.049 30.2679 109.867 30.7859 109.727 31.2059C109.587 31.6539 109.475 32.0459 109.391 32.3819C109.335 33.1379 109.181 33.8799 108.929 34.6079C108.677 35.3639 108.481 35.7839 108.341 35.8679ZM113.339 23.8979C113.451 23.8419 113.689 23.6879 114.053 23.4359C114.445 23.1559 114.879 22.8339 115.355 22.4699C115.831 22.0779 116.265 21.7139 116.657 21.3779C117.077 21.0419 117.357 20.7899 117.497 20.6219C117.721 20.3699 117.931 20.1039 118.127 19.8239C118.323 19.5159 118.477 19.1799 118.589 18.8159C118.673 18.5919 118.771 18.3399 118.883 18.0599C118.995 17.7799 119.093 17.5139 119.177 17.2619C119.289 17.0379 119.331 16.8139 119.303 16.5899C119.303 16.3379 119.219 16.1279 119.051 15.9599C118.939 15.9319 118.603 16.0159 118.043 16.2119C117.483 16.3799 116.867 16.6739 116.195 17.0939C115.523 17.4859 114.935 18.0039 114.431 18.6479C113.843 19.4039 113.409 20.1879 113.129 20.9999C112.877 21.8119 112.765 22.4979 112.793 23.0579C112.849 23.6179 113.031 23.8979 113.339 23.8979ZM135.806 28.0139C134.882 27.6779 134.168 27.0479 133.664 26.1239C133.16 25.1719 132.838 24.2479 132.698 23.3519C132.67 23.3519 132.586 23.4079 132.446 23.5199C132.334 23.6039 132.194 23.7439 132.026 23.9399C131.634 24.3319 131.144 24.8219 130.556 25.4099C129.968 25.9699 129.352 26.4739 128.708 26.9219C128.092 27.3419 127.504 27.5239 126.944 27.4679C126.72 27.3279 126.482 27.1739 126.23 27.0059C126.006 26.8099 125.782 26.6139 125.558 26.4179C125.446 26.3059 125.348 26.1939 125.264 26.0819C125.208 25.9699 125.152 25.8439 125.096 25.7039C124.788 24.8639 124.62 24.1219 124.592 23.4779C124.564 22.8059 124.634 22.1479 124.802 21.5039C124.998 20.8319 125.222 20.0899 125.474 19.2779C125.502 19.1939 125.6 18.8439 125.768 18.2279C125.964 17.6119 126.188 16.9119 126.44 16.1279C126.692 15.3439 126.93 14.6439 127.154 14.0279C127.406 13.4119 127.588 13.0479 127.7 12.9359C127.784 12.9359 127.868 12.9359 127.952 12.9359C128.064 12.9079 128.162 12.8939 128.246 12.8939C128.526 12.8939 128.736 12.9919 128.876 13.1879C128.988 13.3559 129.128 13.4819 129.296 13.5659C129.492 13.6499 129.632 13.7619 129.716 13.9019C129.856 14.1819 129.758 14.7839 129.422 15.7079C129.086 16.6039 128.722 17.6259 128.33 18.7739C127.966 19.8099 127.658 20.8599 127.406 21.9239C127.154 22.9599 127.14 23.8279 127.364 24.5279C127.56 24.5279 127.826 24.3599 128.162 24.0239C128.526 23.6599 128.806 23.4079 129.002 23.2679C129.282 23.0999 129.646 22.7779 130.094 22.3019C130.57 21.7979 131.032 21.2939 131.48 20.7899C131.928 20.2579 132.236 19.8519 132.404 19.5719C132.516 19.4039 132.684 19.0959 132.908 18.6479C133.132 18.1719 133.356 17.6679 133.58 17.1359C133.832 16.5759 134.028 16.0579 134.168 15.5819C134.336 15.1059 134.406 14.7699 134.378 14.5739C134.35 14.2939 134.378 14.0839 134.462 13.9439C134.574 13.7759 134.742 13.6219 134.966 13.4819C135.106 13.4819 135.26 13.4819 135.428 13.4819C135.596 13.4819 135.75 13.4959 135.89 13.5239C136.058 13.7199 136.24 13.9019 136.436 14.0699C136.632 14.2379 136.828 14.4199 137.024 14.6159C137.164 15.1479 137.08 15.8619 136.772 16.7579C136.464 17.6539 136.156 18.6199 135.848 19.6559C135.54 20.6919 135.344 21.7419 135.26 22.8059C135.176 23.8419 135.456 24.7519 136.1 25.5359C136.688 25.2839 137.136 25.0459 137.444 24.8219C137.78 24.5699 138.102 24.3179 138.41 24.0659C138.718 23.7859 139.11 23.5059 139.586 23.2259C139.866 23.3939 140.076 23.7299 140.216 24.2339C140.356 24.7379 140.426 25.1439 140.426 25.4519C140.314 25.5359 140.202 25.6199 140.09 25.7039C140.006 25.7599 139.936 25.8439 139.88 25.9559C139.712 26.3199 139.376 26.6839 138.872 27.0479C138.368 27.4119 137.836 27.7059 137.276 27.9299C136.716 28.1259 136.226 28.1539 135.806 28.0139ZM148.126 17.5139C147.594 17.7099 147.146 17.8079 146.782 17.8079C146.446 17.7799 146.068 17.6119 145.648 17.3039C145.116 16.7999 144.934 16.2959 145.102 15.7919C145.298 15.2599 145.76 14.7419 146.488 14.2379C146.992 13.9299 147.356 13.7619 147.58 13.7339C147.832 13.7059 148.21 13.8039 148.714 14.0279C149.554 14.5599 149.918 15.1479 149.806 15.7919C149.722 16.4359 149.162 17.0099 148.126 17.5139ZM145.186 26.3339C144.654 26.5299 144.206 26.6279 143.842 26.6279C143.506 26.5999 143.128 26.4319 142.708 26.1239C142.176 25.6199 141.994 25.1159 142.162 24.6119C142.358 24.0799 142.82 23.5619 143.548 23.0579C144.052 22.7499 144.416 22.5819 144.64 22.5539C144.892 22.5259 145.27 22.6239 145.774 22.8479C146.614 23.3799 146.978 23.9679 146.866 24.6119C146.782 25.2559 146.222 25.8299 145.186 26.3339ZM184.768 30.5339C184.74 30.7019 184.572 30.7439 184.264 30.6599C183.984 30.6039 183.732 30.4079 183.508 30.0719C183.284 29.5399 183.172 29.0499 183.172 28.6019C183.172 28.1539 183.186 27.4819 183.214 26.5859C183.382 25.6059 183.606 24.3319 183.886 22.7639C184.194 21.1679 184.544 19.3899 184.936 17.4299C185.356 15.4419 185.804 13.3699 186.28 11.2139C186.616 10.0939 186.882 9.07194 187.078 8.14794C187.302 7.19594 187.47 6.42594 187.582 5.83794C187.694 5.24994 187.75 4.95594 187.75 4.95594C187.75 4.87194 187.666 4.91394 187.498 5.08194C187.358 5.22194 187.218 5.38994 187.078 5.58594C186.938 5.78194 186.882 5.93594 186.91 6.04794C186.91 6.04794 186.812 6.18794 186.616 6.46794C186.42 6.74794 186.168 7.12594 185.86 7.60194C185.58 7.88194 185.244 8.44194 184.852 9.28194C184.46 10.1219 184.026 10.9059 183.55 11.6339C183.102 12.4739 182.626 13.3839 182.122 14.3639C181.618 15.3159 181.17 16.1139 180.778 16.7579C180.526 17.1219 180.274 17.5419 180.022 18.0179C179.77 18.4939 179.616 18.8019 179.56 18.9419C179.448 19.2499 179.252 19.6279 178.972 20.0759C178.692 20.4959 178.384 20.9159 178.048 21.3359C177.88 21.5879 177.712 21.8539 177.544 22.1339C177.376 22.3859 177.236 22.6099 177.124 22.8059C177.04 22.9739 176.998 23.0579 176.998 23.0579C176.998 23.1419 176.858 23.3939 176.578 23.8139C176.326 24.2339 176.004 24.6959 175.612 25.1999C175.248 25.7039 174.898 26.1379 174.562 26.5019C173.582 27.5379 172.798 28.1539 172.21 28.3499C171.622 28.5179 170.964 28.2659 170.236 27.5939C169.872 27.1459 169.606 26.6419 169.438 26.0819C169.27 25.4939 169.2 24.7799 169.228 23.9399C169.256 23.0719 169.354 21.9939 169.522 20.7059C169.718 19.7259 169.9 18.7459 170.068 17.7659C170.236 16.7579 170.39 15.8199 170.53 14.9519C170.698 14.0559 170.838 13.2999 170.95 12.6839C171.09 12.0679 171.202 11.6619 171.286 11.4659C171.342 10.9059 171.328 10.5979 171.244 10.5419C171.16 10.4859 170.992 10.6539 170.74 11.0459C170.628 11.2419 170.334 11.7319 169.858 12.5159C169.382 13.2719 168.822 14.2099 168.178 15.3299C167.562 16.4499 166.946 17.6679 166.33 18.9839C165.182 21.1119 164.23 22.8759 163.474 24.2759C162.746 25.6479 162.158 26.7399 161.71 27.5519C161.29 28.3639 160.982 28.9659 160.786 29.3579C160.59 29.7499 160.45 30.0159 160.366 30.1559C160.282 30.2959 160.212 30.3939 160.156 30.4499C159.904 30.4499 159.638 30.3379 159.358 30.1139C159.106 29.9179 158.84 29.6799 158.56 29.3999C158.476 29.2039 158.434 29.0079 158.434 28.8119C158.462 28.6159 158.56 28.3359 158.728 27.9719C158.896 27.5799 159.148 26.9919 159.484 26.2079C159.848 25.4799 160.184 24.8499 160.492 24.3179C160.8 23.7579 161.038 23.4219 161.206 23.3099C161.346 23.0859 161.472 22.8619 161.584 22.6379C161.696 22.4139 161.766 22.1479 161.794 21.8399C161.934 21.6719 162.144 21.3359 162.424 20.8319C162.732 20.2999 163.04 19.7259 163.348 19.1099C163.572 18.7459 163.852 18.2699 164.188 17.6819C164.552 17.0939 164.93 16.4499 165.322 15.7499C165.714 15.0219 166.064 14.3359 166.372 13.6919C167.66 11.4799 168.752 9.61794 169.648 8.10594C170.544 6.56594 171.216 5.58594 171.664 5.16594C171.804 5.02594 171.944 4.82994 172.084 4.57794C172.252 4.32594 172.336 4.10194 172.336 3.90594C172.336 3.31794 172.448 2.78594 172.672 2.30994C172.924 1.80594 173.176 1.58194 173.428 1.63794C173.708 1.63794 173.96 1.66594 174.184 1.72194C174.408 1.77794 174.646 1.95994 174.898 2.26794C175.122 2.60394 175.318 2.93994 175.486 3.27594C175.654 3.61194 175.64 4.28394 175.444 5.29194C175.444 5.68394 175.402 6.13194 175.318 6.63594C175.234 7.11194 175.15 7.55994 175.066 7.97994C175.01 8.37194 174.968 8.67994 174.94 8.90394C174.576 9.99594 174.24 11.2279 173.932 12.5999C173.624 13.9439 173.344 15.3159 173.092 16.7159C172.84 18.0879 172.63 19.3759 172.462 20.5799C172.294 21.7559 172.182 22.7359 172.126 23.5199C172.098 24.2759 172.126 24.7099 172.21 24.8219C172.406 24.9339 172.574 24.9479 172.714 24.8639C172.854 24.7799 173.092 24.4159 173.428 23.7719C173.624 23.4359 173.89 23.0299 174.226 22.5539C174.59 22.0499 174.94 21.5879 175.276 21.1679C175.5 20.7759 175.85 20.1879 176.326 19.4039C176.802 18.6199 177.404 17.6119 178.132 16.3799C178.888 15.1479 179.784 13.6499 180.82 11.8859C181.884 10.0939 183.088 8.02194 184.432 5.66994C185.076 4.68994 185.678 3.73794 186.238 2.81394C186.826 1.86194 187.302 1.24594 187.666 0.965944C188.058 0.601943 188.464 0.517943 188.884 0.713942C189.304 0.881943 189.668 1.24594 189.976 1.80594C190.312 2.36594 190.494 3.06594 190.522 3.90594C190.55 4.29794 190.494 4.92794 190.354 5.79594C190.242 6.66394 190.06 7.65794 189.808 8.77794C189.556 9.86994 189.234 11.0039 188.842 12.1799C188.758 12.6559 188.618 13.2579 188.422 13.9859C188.254 14.6859 188.058 15.4139 187.834 16.1699C187.61 16.9259 187.386 17.6399 187.162 18.3119C187.022 19.2359 186.854 20.1459 186.658 21.0419C186.49 21.9379 186.434 22.5399 186.49 22.8479C186.238 23.2959 186.07 23.9399 185.986 24.7799C185.902 25.6199 185.86 26.4879 185.86 27.3839C185.748 28.4759 185.664 29.2459 185.608 29.6939C185.552 30.1419 185.454 30.3519 185.314 30.3239C184.95 30.2119 184.768 30.2819 184.768 30.5339ZM190.143 36.8759C189.471 37.0719 188.729 37.0999 187.917 36.9599C187.133 36.8479 186.447 36.6099 185.859 36.2459C185.243 35.8819 184.893 35.4759 184.809 35.0279C184.781 34.8599 184.837 34.6779 184.977 34.4819C185.089 34.2859 185.243 34.1459 185.439 34.0619C185.607 34.0059 185.761 34.0619 185.901 34.2299C186.125 34.3699 186.531 34.5379 187.119 34.7339C187.707 34.9579 188.365 34.9999 189.093 34.8599C189.737 34.7199 190.367 34.3419 190.983 33.7259C191.627 33.1099 192.145 32.5359 192.537 32.0039C192.761 31.6679 193.139 31.0659 193.671 30.1979C194.203 29.3299 194.749 28.3779 195.309 27.3419C195.897 26.2779 196.387 25.2979 196.779 24.4019C196.863 24.1779 196.961 23.9119 197.073 23.6039C197.185 23.2959 197.325 23.0439 197.493 22.8479C197.661 22.5119 197.801 22.2039 197.913 21.9239C198.053 21.6159 198.137 21.4059 198.165 21.2939C198.193 21.1539 198.319 20.8739 198.543 20.4539C198.767 20.0339 198.977 19.6139 199.173 19.1939C199.313 18.7739 199.523 18.1579 199.803 17.3459C200.083 16.5339 200.363 15.8759 200.643 15.3719C200.979 14.7279 201.245 14.2099 201.441 13.8179C201.665 13.3979 201.903 13.1459 202.155 13.0619C202.407 12.8659 202.575 12.7679 202.659 12.7679C202.771 12.7679 202.981 12.8519 203.289 13.0199C203.625 13.3559 203.835 13.6919 203.919 14.0279C204.003 14.3359 203.961 14.7279 203.793 15.2039C203.653 15.6519 203.373 16.2679 202.953 17.0519C202.729 17.7239 202.477 18.3399 202.197 18.8999C201.945 19.4319 201.749 19.7819 201.609 19.9499C201.469 20.2859 201.301 20.6639 201.105 21.0839C200.937 21.4759 200.783 21.8399 200.643 22.1759C200.139 23.2959 199.705 24.2059 199.341 24.9059C198.977 25.6059 198.655 26.2499 198.375 26.8379C198.095 27.4259 197.801 28.1119 197.493 28.8959C196.849 29.9319 196.219 30.9119 195.603 31.8359C195.015 32.7879 194.385 33.6699 193.713 34.4819C193.433 34.7339 193.083 35.0279 192.663 35.3639C192.243 35.6999 191.809 36.0079 191.361 36.2879C190.941 36.5679 190.535 36.7639 190.143 36.8759ZM195.813 26.7959C195.393 26.7399 194.973 26.4879 194.553 26.0399C194.161 25.5919 193.853 25.1159 193.629 24.6119C193.405 24.1079 193.321 23.7439 193.377 23.5199C193.377 23.3799 193.377 23.2679 193.377 23.1839C193.377 23.0999 193.377 23.0579 193.377 23.0579C193.209 23.0579 193.055 22.8479 192.915 22.4279C192.803 22.0079 192.719 21.4619 192.663 20.7899C192.607 20.1179 192.565 19.4039 192.537 18.6479C192.537 17.8919 192.565 17.1779 192.621 16.5059C192.733 16.0299 192.789 15.5119 192.789 14.9519C192.789 14.3639 192.803 13.9019 192.831 13.5659C192.803 13.1179 192.845 12.8239 192.957 12.6839C193.069 12.5159 193.181 12.3899 193.293 12.3059C194.077 11.9699 194.595 12.1799 194.847 12.9359C195.127 13.6639 195.197 15.0359 195.057 17.0519C195.001 18.1719 195.001 19.2919 195.057 20.4119C195.113 21.5319 195.267 22.5119 195.519 23.3519C195.799 24.1919 196.177 24.7659 196.653 25.0739C196.849 25.1859 196.947 25.3399 196.947 25.5359C196.947 25.7319 196.891 25.9419 196.779 26.1659C196.667 26.3619 196.513 26.5299 196.317 26.6699C196.149 26.7819 195.981 26.8239 195.813 26.7959ZM202.43 37.9259C202.318 37.9259 202.178 37.9259 202.01 37.9259C201.842 37.9539 201.688 37.8419 201.548 37.5899C201.436 37.4499 201.366 37.2399 201.338 36.9599C201.338 36.6799 201.408 36.1759 201.548 35.4479C201.688 34.9719 201.8 34.4959 201.884 34.0199C201.968 33.5719 202.01 33.2359 202.01 33.0119C202.01 32.8999 202.038 32.6759 202.094 32.3399C202.178 32.0319 202.22 31.8079 202.22 31.6679C202.36 31.4439 202.472 31.1359 202.556 30.7439C202.64 30.3519 202.682 30.0019 202.682 29.6939C202.682 29.3579 202.85 29.0499 203.186 28.7699C203.186 28.5459 203.228 28.2659 203.312 27.9299C203.424 27.5939 203.48 27.3699 203.48 27.2579C203.564 26.8659 203.746 26.1799 204.026 25.1999C204.334 24.1919 204.698 23.0579 205.118 21.7979C205.566 20.5379 206 19.3059 206.42 18.1019C206.84 16.8979 207.218 15.8759 207.554 15.0359C207.89 14.2519 208.114 13.5799 208.226 13.0199C208.366 12.4319 208.436 11.9979 208.436 11.7179C208.436 11.6059 208.464 11.5219 208.52 11.4659C208.576 11.3819 208.702 11.2279 208.898 11.0039C209.178 10.7239 209.416 10.6399 209.612 10.7519C209.836 10.8639 210.102 11.0319 210.41 11.2559C210.634 11.6199 210.788 11.9279 210.872 12.1799C210.984 12.4319 210.984 12.8659 210.872 13.4819C210.872 13.9019 210.802 14.2659 210.662 14.5739C210.522 14.8819 210.396 15.1199 210.284 15.2879C210.172 15.4279 210.144 15.4839 210.2 15.4559C211.348 14.9239 212.356 14.6439 213.224 14.6159C214.12 14.5599 214.862 14.7139 215.45 15.0779C216.066 15.4139 216.528 15.8899 216.836 16.5059C217.144 17.1219 217.298 17.8359 217.298 18.6479C217.298 18.9839 217.228 19.3899 217.088 19.8659C216.948 20.3139 216.766 20.7339 216.542 21.1259C216.346 21.4899 216.164 21.7559 215.996 21.9239C215.884 21.9239 215.772 22.0219 215.66 22.2179C215.548 22.3859 215.436 22.5819 215.324 22.8059C215.1 23.0859 214.736 23.4079 214.232 23.7719C213.756 24.1079 213.28 24.3879 212.804 24.6119C212.328 24.8079 211.978 24.8639 211.754 24.7799C211.754 24.7799 211.712 24.7939 211.628 24.8219C211.572 24.8219 211.544 24.8919 211.544 25.0319C211.544 25.0879 211.32 25.2139 210.872 25.4099C210.424 25.5779 209.906 25.7459 209.318 25.9139C208.73 26.0539 208.212 26.1239 207.764 26.1239C207.176 26.1239 206.756 26.0119 206.504 25.7879C206.448 25.8439 206.378 25.9279 206.294 26.0399C206.238 26.1519 206.21 26.2499 206.21 26.3339C206.21 26.5019 206.14 26.8239 206 27.2999C205.888 27.7479 205.748 28.1819 205.58 28.6019C205.412 29.0219 205.258 29.2319 205.118 29.2319C205.118 29.2319 205.09 29.2739 205.034 29.3579C204.978 29.4419 205.006 29.5539 205.118 29.6939C205.118 29.6939 205.104 29.8479 205.076 30.1559C205.076 30.4919 205.006 30.7719 204.866 30.9959C204.866 31.2199 204.824 31.5559 204.74 32.0039C204.656 32.4519 204.558 32.7879 204.446 33.0119C204.446 33.3479 204.39 33.6699 204.278 33.9779C204.194 34.3139 204.096 34.4819 203.984 34.4819C203.872 34.5099 203.802 34.6779 203.774 34.9859C203.746 35.3219 203.732 35.5599 203.732 35.6999C203.704 36.3999 203.564 36.9459 203.312 37.3379C203.06 37.7299 202.766 37.9259 202.43 37.9259ZM207.512 23.8979C207.736 23.8979 208.198 23.7999 208.898 23.6039C209.598 23.4079 210.312 23.1699 211.04 22.8899C211.796 22.5819 212.356 22.2739 212.72 21.9659C213.448 21.3219 214.008 20.5939 214.4 19.7819C214.82 18.9419 214.792 18.1439 214.316 17.3879C214.092 16.9959 213.686 16.8419 213.098 16.9259C212.51 16.9819 211.866 17.2059 211.166 17.5979C210.466 17.9899 209.808 18.4799 209.192 19.0679C208.856 19.4319 208.548 19.8799 208.268 20.4119C207.988 20.9439 207.75 21.4759 207.554 22.0079C207.386 22.5399 207.288 22.9879 207.26 23.3519C207.232 23.7159 207.316 23.8979 207.512 23.8979ZM223.511 27.2999C223.287 27.3559 222.993 27.3839 222.629 27.3839C222.265 27.3559 221.943 27.3139 221.663 27.2579C221.411 27.1739 221.285 27.0899 221.285 27.0059C221.285 26.8659 221.215 26.7959 221.075 26.7959C221.075 26.7959 221.005 26.7399 220.865 26.6279C220.753 26.5159 220.571 26.4039 220.319 26.2919C220.067 25.8999 219.941 25.4799 219.941 25.0319C219.941 24.5559 220.067 23.8139 220.319 22.8059C220.403 22.1059 220.669 21.2939 221.117 20.3699C221.593 19.4179 222.167 18.4519 222.839 17.4719C223.511 16.4919 224.211 15.6099 224.939 14.8259C225.695 14.0419 226.381 13.4679 226.997 13.1039C227.389 12.7119 227.865 12.5019 228.425 12.4739C228.985 12.4459 229.517 12.5719 230.021 12.8519C230.301 12.9919 230.581 13.2159 230.861 13.5239C231.141 13.8319 231.407 14.1679 231.659 14.5319C231.911 14.8959 232.121 15.2599 232.289 15.6239C232.373 15.9319 232.415 16.2119 232.415 16.4639C232.443 16.6879 232.443 16.9679 232.415 17.3039C232.415 17.6399 232.373 18.1439 232.289 18.8159C232.149 19.3199 232.023 19.9359 231.911 20.6639C231.827 21.3919 231.785 22.0219 231.785 22.5539C231.729 23.0859 231.785 23.4639 231.953 23.6879C232.149 23.9119 232.429 23.9259 232.793 23.7299C233.129 23.5619 233.451 23.4919 233.759 23.5199C234.067 23.5199 234.305 23.6039 234.473 23.7719C234.669 23.9399 234.767 24.1919 234.767 24.5279C234.767 24.8639 234.599 25.2139 234.263 25.5779C233.955 25.9139 233.563 26.2079 233.087 26.4599C232.639 26.6839 232.205 26.7959 231.785 26.7959C231.477 26.7959 231.183 26.6139 230.903 26.2499C230.623 25.8579 230.371 25.3959 230.147 24.8639C229.951 24.3039 229.769 23.7719 229.601 23.2679L229.349 22.3019L227.543 24.0239C227.179 24.4159 226.815 24.7799 226.451 25.1159C226.115 25.4239 225.905 25.6479 225.821 25.7879C225.681 26.0399 225.415 26.2919 225.023 26.5439C224.659 26.7959 224.155 27.0479 223.511 27.2999ZM223.637 24.8219C224.113 24.5419 224.659 24.1359 225.275 23.6039C225.891 23.0439 226.493 22.4419 227.081 21.7979C227.669 21.1259 228.159 20.5099 228.551 19.9499C229.027 19.3059 229.391 18.7039 229.643 18.1439C229.895 17.5839 230.077 17.0519 230.189 16.5479C230.077 16.2399 229.895 15.9179 229.643 15.5819C229.391 15.2179 229.167 15.0219 228.971 14.9939C228.355 14.9939 227.697 15.3859 226.997 16.1699C226.325 16.9259 225.667 17.7519 225.023 18.6479C224.911 18.7879 224.757 19.0119 224.561 19.3199C224.365 19.6279 224.169 19.9219 223.973 20.2019C223.805 20.4539 223.693 20.6219 223.637 20.7059C223.553 20.8179 223.385 21.1399 223.133 21.6719C222.909 22.1759 222.685 22.6939 222.461 23.2259C222.237 23.7299 222.125 24.0659 222.125 24.2339C222.125 24.4019 222.139 24.5839 222.167 24.7799C222.223 24.9759 222.363 25.1019 222.587 25.1579C222.811 25.2139 223.161 25.1019 223.637 24.8219ZM237.974 26.9639C237.89 26.8519 237.806 26.7119 237.722 26.5439C237.666 26.3759 237.638 26.2359 237.638 26.1239C237.638 26.0679 237.624 25.9979 237.596 25.9139C237.596 25.8299 237.54 25.7879 237.428 25.7879C237.344 25.7039 237.4 25.3819 237.596 24.8219C237.82 24.2339 238.1 23.5619 238.436 22.8059C238.8 22.0499 239.164 21.3219 239.528 20.6219C239.92 19.8939 240.242 19.3199 240.494 18.8999C240.634 18.8159 240.718 18.7039 240.746 18.5639C240.802 18.3959 240.802 18.3119 240.746 18.3119C240.746 18.3119 240.816 18.1859 240.956 17.9339C241.124 17.6539 241.25 17.4719 241.334 17.3879C241.558 16.9959 241.726 16.6039 241.838 16.2119C241.95 15.7919 241.978 15.4419 241.922 15.1619C241.81 15.0219 241.684 14.9799 241.544 15.0359C241.404 15.0919 241.334 15.1199 241.334 15.1199C241.222 15.1479 241.054 15.2039 240.83 15.2879C240.634 15.3439 240.452 15.4279 240.284 15.5399C239.64 15.9879 239.206 16.1979 238.982 16.1699C238.758 16.1139 238.506 15.7499 238.226 15.0779C238.114 14.7699 238.072 14.5459 238.1 14.4059C238.128 14.2659 238.24 14.1119 238.436 13.9439C238.66 13.7479 238.87 13.6219 239.066 13.5659C239.262 13.4819 239.416 13.3979 239.528 13.3139C239.836 13.1179 240.088 12.9779 240.284 12.8939C240.508 12.8099 240.676 12.7539 240.788 12.7259C241.516 12.5019 242.132 12.4599 242.636 12.5999C243.14 12.7399 243.518 13.1039 243.77 13.6919C244.162 14.1679 244.358 14.7139 244.358 15.3299C244.358 15.9179 244.162 16.6039 243.77 17.3879L243.35 18.0179C243.21 18.2979 243.182 18.4379 243.266 18.4379C243.378 18.4379 243.504 18.3399 243.644 18.1439C243.728 18.0319 243.896 17.8639 244.148 17.6399C244.4 17.4159 244.568 17.3039 244.652 17.3039C244.652 17.3039 244.68 17.2899 244.736 17.2619C244.82 17.2339 244.862 17.1219 244.862 16.9259C244.946 16.8419 245.03 16.7579 245.114 16.6739C245.226 16.5899 245.282 16.5479 245.282 16.5479C245.394 16.5479 245.604 16.4219 245.912 16.1699C246.248 15.8899 246.64 15.5679 247.088 15.2039C247.396 14.9799 247.676 14.8679 247.928 14.8679C248.572 14.6719 249.09 14.8819 249.482 15.4979C249.902 16.1139 250.112 16.9119 250.112 17.8919L249.23 20.1599L250.742 18.3119C250.91 18.0879 251.078 17.8919 251.246 17.7239C251.442 17.5559 251.61 17.4159 251.75 17.3039C251.806 17.1079 251.89 16.9959 252.002 16.9679C252.114 16.9399 252.17 16.9259 252.17 16.9259C252.17 16.9259 252.198 16.9259 252.254 16.9259C252.31 16.8979 252.338 16.8419 252.338 16.7579C252.478 16.6459 252.632 16.5479 252.8 16.4639C252.968 16.3519 253.08 16.2399 253.136 16.1279C253.612 15.9319 254.046 15.9039 254.438 16.0439C254.83 16.1559 255.166 16.5059 255.446 17.0939C255.642 17.4299 255.754 17.7239 255.782 17.9759C255.81 18.2279 255.824 18.6059 255.824 19.1099C255.768 19.5299 255.712 19.8659 255.656 20.1179C255.628 20.3419 255.6 20.5799 255.572 20.8319C255.544 21.0839 255.502 21.4339 255.446 21.8819C255.334 22.1059 255.264 22.3439 255.236 22.5959C255.236 22.8479 255.236 23.0859 255.236 23.3099C255.236 23.6739 255.25 23.9259 255.278 24.0659C255.306 24.1779 255.418 24.2339 255.614 24.2339C256.006 24.1499 256.538 23.9539 257.21 23.6459C257.91 23.3099 258.428 22.9879 258.764 22.6799C259.184 22.2879 259.548 22.0919 259.856 22.0919C260.192 22.0639 260.402 22.2179 260.486 22.5539C260.542 22.6659 260.444 22.9179 260.192 23.3099C259.968 23.7019 259.702 24.0799 259.394 24.4439C259.114 24.8079 258.904 24.9899 258.764 24.9899C258.68 24.9899 258.582 25.0739 258.47 25.2419C258.358 25.3819 258.232 25.4939 258.092 25.5779C257.896 25.7739 257.7 25.9559 257.504 26.1239C257.336 26.2919 257.14 26.3759 256.916 26.3759C256.804 26.3759 256.664 26.4179 256.496 26.5019C256.356 26.5579 256.188 26.5859 255.992 26.5859C255.712 26.6699 255.278 26.6279 254.69 26.4599C254.13 26.2919 253.766 25.8999 253.598 25.2839C253.486 24.9759 253.388 24.4859 253.304 23.8139C253.22 23.1139 253.234 22.4139 253.346 21.7139C253.458 21.2099 253.528 20.7479 253.556 20.3279C253.584 19.9079 253.64 19.6139 253.724 19.4459C253.724 19.3619 253.724 19.1659 253.724 18.8579C253.724 18.5219 253.682 18.3539 253.598 18.3539C253.486 18.3539 253.22 18.5639 252.8 18.9839C252.408 19.3759 251.932 19.8799 251.372 20.4959C250.84 21.1119 250.308 21.7559 249.776 22.4279C249.244 23.0999 248.81 23.7019 248.474 24.2339C248.222 24.5419 247.998 24.9199 247.802 25.3679C247.606 25.8159 247.466 26.0679 247.382 26.1239C247.186 26.3479 246.948 26.3759 246.668 26.2079C246.416 26.0399 246.178 25.7739 245.954 25.4099C245.87 25.2419 245.814 25.1019 245.786 24.9899C245.758 24.8499 245.758 24.6679 245.786 24.4439C245.842 24.1919 245.94 23.8279 246.08 23.3519C246.248 22.8759 246.472 22.2039 246.752 21.3359C247.06 20.3839 247.326 19.5299 247.55 18.7739C247.802 17.9899 247.928 17.5979 247.928 17.5979C247.928 17.4859 247.718 17.5979 247.298 17.9339C246.878 18.2419 246.388 18.6339 245.828 19.1099C245.576 19.4179 245.156 19.8799 244.568 20.4959C243.98 21.1119 243.336 21.8119 242.636 22.5959C241.936 23.3799 241.264 24.2059 240.62 25.0739C239.808 26.2219 239.234 26.9219 238.898 27.1739C238.59 27.4259 238.282 27.3559 237.974 26.9639ZM279.365 28.7279C279.001 28.6439 278.651 28.5319 278.315 28.3919C277.979 28.2519 277.741 28.0419 277.601 27.7619C277.629 27.6499 277.643 27.5379 277.643 27.4259C277.671 27.3139 277.671 27.2019 277.643 27.0899C277.643 26.7259 277.755 26.1939 277.979 25.4939C278.231 24.7939 278.525 24.0239 278.861 23.1839C279.225 22.3439 279.561 21.5599 279.869 20.8319C279.645 21.1399 279.253 21.5599 278.693 22.0919C278.161 22.6239 277.587 23.1839 276.971 23.7719C276.355 24.3319 275.795 24.8499 275.291 25.3259C274.787 25.7739 274.451 26.0959 274.283 26.2919C273.975 26.7119 273.695 27.0339 273.443 27.2579C273.191 27.4819 272.813 27.8879 272.309 28.4759C272.085 28.4759 271.875 28.4759 271.679 28.4759C271.483 28.4759 271.301 28.4759 271.133 28.4759C270.853 28.2519 270.615 28.0419 270.419 27.8459C270.251 27.6499 270.139 27.3559 270.083 26.9639C270.671 26.4039 271.119 25.9839 271.427 25.7039C271.763 25.3959 272.127 25.0599 272.519 24.6959C272.659 24.5839 272.967 24.3039 273.443 23.8559C273.919 23.3799 274.451 22.8479 275.039 22.2599C275.655 21.6439 276.229 21.0699 276.761 20.5379C277.293 20.0059 277.671 19.6279 277.895 19.4039C277.447 18.6759 277.139 18.1579 276.971 17.8499C276.803 17.5139 276.579 17.0659 276.299 16.5059C276.131 16.1979 275.977 15.8759 275.837 15.5399C275.697 15.1759 275.557 14.8259 275.417 14.4899C275.361 14.3219 275.319 14.1399 275.291 13.9439C275.291 13.7479 275.249 13.5799 275.165 13.4399C275.053 13.1039 275.011 12.7959 275.039 12.5159C275.095 12.2359 275.207 12.0399 275.375 11.9279C275.543 11.9839 275.725 12.0679 275.921 12.1799C276.117 12.2639 276.313 12.3199 276.509 12.3479C276.705 12.3759 276.845 12.4319 276.929 12.5159C277.041 12.5999 277.153 12.6839 277.265 12.7679C277.405 12.8239 277.489 12.9079 277.517 13.0199C277.573 13.1319 277.615 13.2439 277.643 13.3559C277.699 13.4399 277.769 13.5239 277.853 13.6079C277.741 13.7479 277.727 13.8879 277.811 14.0279C277.895 14.1399 277.951 14.2659 277.979 14.4059C278.343 15.5259 278.679 16.4779 278.987 17.2619C279.295 18.0179 279.463 18.4239 279.491 18.4799C279.575 18.5919 279.659 18.6899 279.743 18.7739C279.855 18.8579 279.995 18.9699 280.163 19.1099C280.387 18.4099 280.653 17.6399 280.961 16.7999C281.269 15.9599 281.549 15.1899 281.801 14.4899C282.081 13.7619 282.277 13.2579 282.389 12.9779C282.417 12.8939 282.445 12.8099 282.473 12.7259C282.529 12.6139 282.557 12.5019 282.557 12.3899C282.529 12.1099 282.585 11.9279 282.725 11.8439C282.893 11.7319 283.075 11.6339 283.271 11.5499C283.943 11.6339 284.517 11.9839 284.993 12.5999C285.105 12.9079 285.175 13.1879 285.203 13.4399C285.231 13.6919 285.175 13.9859 285.035 14.3219C284.811 14.7979 284.573 15.3579 284.321 16.0019C284.097 16.6179 283.817 17.3879 283.481 18.3119C283.145 19.2359 282.711 20.3979 282.179 21.7979C281.927 22.5539 281.703 23.1419 281.507 23.5619C281.339 23.9539 281.185 24.3039 281.045 24.6119C280.933 24.9199 280.807 25.2839 280.667 25.7039C280.555 26.0959 280.415 26.6699 280.247 27.4259C280.387 27.6779 280.415 27.9019 280.331 28.0979C280.247 28.2659 280.135 28.4199 279.995 28.5599C279.855 28.7839 279.645 28.8399 279.365 28.7279ZM284.153 26.5859C283.957 26.4459 283.831 26.2779 283.775 26.0819C283.719 25.8579 283.649 25.6619 283.565 25.4939C283.313 25.0179 283.117 24.4999 282.977 23.9399C282.837 23.3799 282.613 22.8759 282.305 22.4279L280.163 22.3019L281.423 20.2019L282.977 20.2859C283.341 20.0619 283.649 19.8379 283.901 19.6139C284.181 19.3619 284.461 19.0959 284.741 18.8159C285.805 17.6679 286.631 16.7859 287.219 16.1699C287.807 15.5539 288.241 15.0919 288.521 14.7839C288.801 14.4759 289.025 14.2239 289.193 14.0279C289.417 13.7199 289.557 13.4539 289.613 13.2299C289.697 12.9779 289.767 12.7819 289.823 12.6419C289.963 12.6139 290.103 12.5999 290.243 12.5999C290.383 12.5999 290.509 12.5999 290.621 12.5999C290.845 12.5999 291.013 12.5999 291.125 12.5999C291.237 12.5999 291.391 12.6699 291.587 12.8099C292.063 13.1739 292.203 13.5659 292.007 13.9859C291.755 14.5459 291.447 15.0639 291.083 15.5399C290.719 15.9879 290.229 16.5059 289.613 17.0939C289.025 17.6539 288.255 18.3959 287.303 19.3199C287.191 19.4039 286.925 19.6139 286.505 19.9499C286.085 20.2859 285.679 20.6079 285.287 20.9159C284.923 21.1959 284.741 21.3359 284.741 21.3359C284.713 21.3919 284.629 21.4339 284.489 21.4619C284.377 21.4619 284.279 21.4899 284.195 21.5459C284.475 21.9099 284.811 22.5119 285.203 23.3519C285.623 24.1639 286.015 25.0039 286.379 25.8719C286.519 26.1799 286.687 26.4879 286.883 26.7959C287.107 27.0759 287.331 27.4259 287.555 27.8459C287.527 28.0699 287.471 28.2939 287.387 28.5179C287.331 28.7699 287.247 28.9239 287.135 28.9799C286.855 29.1479 286.491 29.2319 286.043 29.2319C285.623 29.2319 285.259 29.1899 284.951 29.1059C284.839 28.6859 284.713 28.2659 284.573 27.8459C284.433 27.4259 284.293 27.0059 284.153 26.5859ZM294.24 27.1319C293.904 27.1879 293.54 27.1319 293.148 26.9639C292.756 26.7959 292.406 26.5579 292.098 26.2499C291.818 25.9419 291.636 25.6199 291.552 25.2839C291.44 24.6959 291.51 23.9679 291.762 23.0999C292.042 22.2039 292.434 21.2659 292.938 20.2859C293.47 19.2779 294.058 18.3119 294.702 17.3879C295.374 16.4639 296.06 15.6659 296.76 14.9939C297.488 14.2939 298.16 13.8179 298.776 13.5659C299.084 13.3699 299.322 13.2439 299.49 13.1879C299.686 13.1039 299.882 13.0899 300.078 13.1459C300.302 13.2019 300.624 13.3419 301.044 13.5659C301.436 13.6779 301.73 13.8039 301.926 13.9439C302.122 14.0839 302.374 14.3639 302.682 14.7839C302.906 15.2039 303.074 15.6239 303.186 16.0439C303.298 16.4639 303.396 16.9399 303.48 17.4719C303.704 18.1719 303.788 18.6339 303.732 18.8579C303.676 19.0539 303.592 19.2079 303.48 19.3199C303.256 19.5999 303.2 19.7399 303.312 19.7399C303.312 19.7399 303.298 19.7959 303.27 19.9079C303.27 19.9919 303.214 20.1319 303.102 20.3279C302.906 20.9439 302.752 21.5879 302.64 22.2599C302.556 22.9039 302.57 23.4359 302.682 23.8559C302.906 24.4719 303.312 24.8359 303.9 24.9479C304.488 25.0599 305.09 24.8079 305.706 24.1919C306.014 23.9679 306.308 23.7719 306.588 23.6039C306.868 23.4079 307.008 23.4219 307.008 23.6459C307.008 23.6459 307.05 23.6879 307.134 23.7719C307.218 23.8279 307.316 23.8559 307.428 23.8559C307.568 23.8559 307.652 23.9119 307.68 24.0239C307.736 24.1359 307.736 24.2899 307.68 24.4859C307.652 24.6539 307.568 24.8499 307.428 25.0739C307.008 25.4939 306.798 25.7739 306.798 25.9139C306.798 25.9139 306.742 25.9699 306.63 26.0819C306.546 26.1659 306.392 26.3059 306.168 26.5019C305.664 26.8099 305.02 26.9639 304.236 26.9639C303.48 26.9639 302.892 26.8099 302.472 26.5019C302.052 26.1939 301.66 25.7739 301.296 25.2419C300.96 24.7099 300.736 24.2479 300.624 23.8559L300.414 23.4359L299.196 24.2339C298.888 24.5419 298.552 24.8359 298.188 25.1159C297.852 25.3959 297.628 25.5919 297.516 25.7039C297.432 25.8159 297.334 25.9139 297.222 25.9979C297.138 26.0819 297.04 26.1239 296.928 26.1239C296.816 26.1239 296.718 26.1239 296.634 26.1239C296.55 26.1239 296.508 26.1239 296.508 26.1239C296.508 26.2359 296.368 26.3759 296.088 26.5439C295.836 26.7119 295.528 26.8519 295.164 26.9639C294.828 27.0759 294.52 27.1319 294.24 27.1319ZM293.82 24.8639C293.988 24.8639 294.282 24.7379 294.702 24.4859C295.15 24.2059 295.64 23.8839 296.172 23.5199C296.732 23.1559 297.222 22.7919 297.642 22.4279C298.09 22.0639 298.398 21.7839 298.566 21.5879C298.678 21.4759 298.86 21.2939 299.112 21.0419C299.364 20.7619 299.588 20.5239 299.784 20.3279C300.428 19.5999 300.876 18.8019 301.128 17.9339C301.38 17.0379 301.352 16.3379 301.044 15.8339C300.932 15.5259 300.792 15.3579 300.624 15.3299C300.456 15.3019 300.106 15.3999 299.574 15.6239C299.238 15.8199 298.818 16.1979 298.314 16.7579C297.838 17.2899 297.32 17.9199 296.76 18.6479C296.228 19.3479 295.724 20.0759 295.248 20.8319C294.772 21.5879 294.38 22.2879 294.072 22.9319C293.764 23.5759 293.61 24.0799 293.61 24.4439C293.61 24.5559 293.638 24.6539 293.694 24.7379C293.778 24.8219 293.82 24.8639 293.82 24.8639ZM321.379 13.6079C321.771 13.3839 322.177 13.3139 322.597 13.3979C323.017 13.4539 323.339 13.6359 323.563 13.9439C323.815 14.2239 323.857 14.5879 323.689 15.0359C323.745 14.8679 323.675 14.9799 323.479 15.3719C323.311 15.7359 323.087 16.2119 322.807 16.7999C322.555 17.3879 322.317 17.9479 322.093 18.4799C321.897 18.9839 321.771 19.2779 321.715 19.3619V19.4879C322.163 19.4879 322.429 19.6279 322.513 19.9079C322.625 20.1599 322.667 20.4539 322.639 20.7899C322.303 20.8459 322.065 20.9439 321.925 21.0839C321.785 21.1959 321.603 21.2659 321.379 21.2939C321.295 21.2939 321.197 21.3359 321.085 21.4199C320.973 21.5039 320.903 21.6019 320.875 21.7139C320.847 21.7979 320.763 22.1339 320.623 22.7219C320.511 23.2819 320.371 23.8979 320.203 24.5699C320.063 25.2139 319.937 25.7039 319.825 26.0399C319.769 26.2639 319.657 26.4459 319.489 26.5859C319.321 26.6979 319.209 26.7679 319.153 26.7959C318.593 26.5719 318.215 26.4319 318.019 26.3759C317.851 26.2919 317.683 26.1799 317.515 26.0399C317.487 25.8719 317.487 25.6759 317.515 25.4519C317.543 25.1999 317.613 24.9059 317.725 24.5699C317.865 24.1499 317.977 23.7579 318.061 23.3939C318.173 23.0019 318.285 22.4559 318.397 21.7559C318.285 21.6999 318.047 21.6999 317.683 21.7559C317.347 21.7839 316.983 21.8259 316.591 21.8819C316.199 21.9379 315.863 21.9939 315.583 22.0499C315.331 22.1059 315.219 22.1199 315.247 22.0919C315.107 22.1479 314.841 22.1899 314.449 22.2179C314.085 22.2179 313.707 22.2039 313.315 22.1759C312.951 22.1199 312.685 22.0639 312.517 22.0079L312.265 22.1339C312.237 22.4139 312.111 22.8339 311.887 23.3939C311.663 23.9259 311.551 24.4299 311.551 24.9059C311.523 25.2699 311.467 25.6339 311.383 25.9979C311.299 26.3619 311.243 26.7399 311.215 27.1319C311.187 27.7479 311.019 28.1259 310.711 28.2659C310.431 28.4059 309.997 28.3079 309.409 27.9719C309.269 27.8879 309.129 27.7899 308.989 27.6779C308.877 27.5659 308.751 27.4399 308.611 27.2999L309.283 24.0659C309.395 23.6739 309.493 23.3099 309.577 22.9739C309.661 22.6099 309.759 22.2599 309.871 21.9239C310.095 21.3079 310.305 20.6779 310.501 20.0339C310.725 19.3899 310.977 18.7879 311.257 18.2279C311.257 18.2279 311.299 18.0879 311.383 17.8079C311.495 17.4999 311.621 17.1639 311.761 16.7999C311.901 16.4079 312.013 16.0999 312.097 15.8759C312.181 15.6519 312.195 15.6099 312.139 15.7499C312.223 15.5819 312.349 15.2599 312.517 14.7839C312.685 14.2799 312.839 13.8039 312.979 13.3559C313.147 12.8799 313.231 12.6279 313.231 12.5999C313.287 12.4319 313.371 12.3199 313.483 12.2639C313.595 12.1799 313.735 12.1379 313.903 12.1379C314.379 12.1099 314.771 12.2219 315.079 12.4739C315.387 12.6979 315.555 12.9779 315.583 13.3139C315.555 13.4819 315.541 13.6359 315.541 13.7759C315.541 13.9159 315.513 14.0279 315.457 14.1119L313.273 19.4459V19.7819C313.553 19.9499 313.959 19.9779 314.491 19.8659C315.051 19.7259 315.471 19.6559 315.751 19.6559C315.891 19.6279 316.213 19.5999 316.717 19.5719C317.249 19.5439 317.753 19.5299 318.229 19.5299C318.733 19.5299 318.999 19.5439 319.027 19.5719C319.335 18.7319 319.615 17.9479 319.867 17.2199C320.119 16.4639 320.469 15.6939 320.917 14.9099C320.945 14.8539 321.001 14.6719 321.085 14.3639C321.197 14.0559 321.295 13.8039 321.379 13.6079ZM326.465 27.0059C326.353 26.7819 326.213 26.6139 326.045 26.5019C325.877 26.3619 325.793 26.2359 325.793 26.1239C325.793 26.0119 325.779 25.8999 325.751 25.7879C325.751 25.6479 325.695 25.5219 325.583 25.4099C325.443 25.2419 325.457 24.8639 325.625 24.2759C325.793 23.6599 326.073 22.9179 326.465 22.0499C326.857 21.1539 327.319 20.2159 327.851 19.2359C328.075 19.0119 328.299 18.7179 328.523 18.3539C328.747 17.9899 328.915 17.7519 329.027 17.6399C329.027 17.5279 329.069 17.4299 329.153 17.3459C329.237 17.2339 329.335 17.1779 329.447 17.1779V16.9259C329.447 16.7859 329.573 16.5479 329.825 16.2119C330.105 15.8759 330.441 15.5119 330.833 15.1199C331.225 14.6999 331.631 14.3079 332.051 13.9439C332.471 13.5519 332.821 13.2719 333.101 13.1039C333.689 12.7119 334.291 12.4739 334.907 12.3899C335.551 12.3059 336.097 12.4459 336.545 12.8099C336.629 12.8939 336.769 13.0339 336.965 13.2299C337.161 13.4259 337.385 13.6499 337.637 13.9019C337.917 14.1259 338.197 14.3639 338.477 14.6159L340.031 16.0019L339.275 18.1019C338.911 19.2219 338.813 20.2019 338.981 21.0419C339.177 21.8819 339.457 22.6099 339.821 23.2259C339.961 23.5339 340.241 23.8279 340.661 24.1079C341.109 24.3879 341.529 24.5559 341.921 24.6119C342.145 24.6399 342.355 24.7239 342.551 24.8639C342.747 25.0039 342.845 25.2279 342.845 25.5359C342.845 25.8159 342.789 26.0399 342.677 26.2079C342.565 26.3759 342.369 26.4879 342.089 26.5439C341.165 26.6559 340.297 26.4319 339.485 25.8719C338.701 25.3119 337.973 24.3879 337.301 23.0999C337.189 22.9319 337.035 22.6239 336.839 22.1759C336.671 21.6999 336.573 21.3919 336.545 21.2519C336.433 21.3919 336.223 21.6579 335.915 22.0499C335.607 22.4139 335.369 22.6799 335.201 22.8479C333.213 24.8639 331.491 26.2219 330.035 26.9219C328.607 27.5939 327.417 27.6219 326.465 27.0059ZM327.977 24.6539C327.977 24.8499 328.271 24.8499 328.859 24.6539C329.475 24.4299 330.133 24.0379 330.833 23.4779C331.785 22.6659 332.737 21.7699 333.689 20.7899C334.669 19.8099 335.453 18.8999 336.041 18.0599L336.965 16.5479C336.685 15.9039 336.377 15.4699 336.041 15.2459C335.733 14.9939 335.467 14.8679 335.243 14.8679C334.879 14.8679 334.333 15.2039 333.605 15.8759C332.905 16.5479 332.149 17.4439 331.337 18.5639C330.525 19.6839 329.755 20.9159 329.027 22.2599C328.747 22.8199 328.495 23.3659 328.271 23.8979C328.075 24.4019 327.977 24.6539 327.977 24.6539ZM353.375 29.9039C352.871 29.6239 352.591 29.3159 352.535 28.9799C352.507 28.6439 352.703 28.0559 353.123 27.2159C353.543 26.3759 354.201 25.0739 355.097 23.3099C355.769 22.0499 356.273 21.0699 356.609 20.3699C356.973 19.6419 357.211 19.1239 357.323 18.8159C357.463 18.5079 357.533 18.3119 357.533 18.2279C357.477 17.9759 357.505 17.7799 357.617 17.6399C357.729 17.4719 357.911 17.3319 358.163 17.2199C358.303 17.0799 358.527 16.8279 358.835 16.4639C359.171 16.0999 359.479 15.6659 359.759 15.1619C360.011 14.5739 360.305 13.9719 360.641 13.3559C360.977 12.7399 361.425 11.9699 361.985 11.0459C362.545 10.0939 363.273 8.86194 364.169 7.34994C364.729 6.36994 365.345 5.37594 366.017 4.36794C366.689 3.33194 367.403 2.30994 368.159 1.30194C368.467 0.909943 368.747 0.601942 368.999 0.377944C369.251 0.125944 369.503 0.0139433 369.755 0.041943C370.091 0.041943 370.469 0.153943 370.889 0.377944C371.337 0.601942 371.743 0.895942 372.107 1.25994C372.471 1.62394 372.737 2.01594 372.905 2.43594C373.045 2.65994 373.101 3.13594 373.073 3.86394C373.045 4.59194 372.989 5.47394 372.905 6.50994C372.821 7.54594 372.723 8.65194 372.611 9.82794C372.527 10.9759 372.401 12.3339 372.233 13.9019C372.065 15.4699 371.897 17.1079 371.729 18.8159C371.589 20.5239 371.477 22.1759 371.393 23.7719C371.309 25.3399 371.309 26.7119 371.393 27.8879C371.421 28.1399 371.421 28.3779 371.393 28.6019C371.365 28.8259 371.351 29.0079 371.351 29.1479C371.183 29.3159 370.903 29.3859 370.511 29.3579C370.147 29.3579 369.783 29.2739 369.419 29.1059C369.083 28.9379 368.887 28.7279 368.831 28.4759C368.747 28.3919 368.691 28.2799 368.663 28.1399C368.663 27.9719 368.677 27.6359 368.705 27.1319C368.733 26.6279 368.761 25.8299 368.789 24.7379L368.999 17.9339L368.453 17.9759C368.201 17.9759 367.725 18.0039 367.025 18.0599C366.325 18.1159 365.569 18.1999 364.757 18.3119C363.945 18.3959 363.189 18.4939 362.489 18.6059C361.817 18.6899 361.355 18.7739 361.103 18.8579C360.851 18.8579 360.543 19.0259 360.179 19.3619C359.843 19.6979 359.521 20.1319 359.213 20.6639C359.101 21.0559 358.891 21.4759 358.583 21.9239C358.303 22.3439 358.163 22.6239 358.163 22.7639C357.967 22.9039 357.799 23.0719 357.659 23.2679C357.547 23.4639 357.491 23.5619 357.491 23.5619C357.491 23.7299 357.351 24.1499 357.071 24.8219C356.819 25.4659 356.497 26.1939 356.105 27.0059C355.713 27.7899 355.321 28.4759 354.929 29.0639L354.047 30.4079L353.375 29.9039ZM362.069 16.3799C362.069 16.3799 362.209 16.3519 362.489 16.2959C362.797 16.2399 363.147 16.1839 363.539 16.1279C363.959 16.0439 364.337 16.0019 364.673 16.0019C365.849 15.7219 366.703 15.5399 367.235 15.4559C367.767 15.3439 368.131 15.2879 368.327 15.2879C368.551 15.2879 368.747 15.3299 368.915 15.4139C369.027 15.5539 369.125 15.6379 369.209 15.6659C369.321 15.6939 369.377 15.7079 369.377 15.7079C369.405 15.6519 369.447 15.3299 369.503 14.7419C369.559 14.1539 369.629 13.4259 369.713 12.5579C369.825 11.6899 369.923 10.7939 370.007 9.86994C370.119 8.91794 370.203 8.04994 370.259 7.26594C370.315 6.45394 370.357 5.83794 370.385 5.41794C370.413 4.88594 370.441 4.40994 370.469 3.98994C370.497 3.54194 370.511 3.31794 370.511 3.31794C370.343 3.31794 369.979 3.62594 369.419 4.24194C368.887 4.85794 368.285 5.66994 367.613 6.67794C366.941 7.68594 366.311 8.76394 365.723 9.91194C365.443 10.4439 365.177 10.9199 364.925 11.3399C364.673 11.7599 364.477 11.9699 364.337 11.9699C364.281 12.0259 364.113 12.2779 363.833 12.7259C363.581 13.1459 363.301 13.6359 362.993 14.1959C362.685 14.7279 362.433 15.2179 362.237 15.6659C362.041 16.0859 361.985 16.3239 362.069 16.3799ZM380.169 27.5519C379.553 27.5519 379.091 27.5239 378.783 27.4679C378.475 27.4119 378.237 27.3279 378.069 27.2159C377.901 27.1039 377.705 26.9499 377.481 26.7539C377.369 26.5299 377.229 26.2919 377.061 26.0399C376.893 25.7879 376.753 25.6059 376.641 25.4939C376.529 25.0739 376.473 24.5279 376.473 23.8559C376.501 23.1839 376.585 22.4559 376.725 21.6719C376.893 20.8879 377.117 20.1599 377.397 19.4879C377.509 19.2639 377.607 19.0399 377.691 18.8159C377.775 18.5919 377.817 18.4799 377.817 18.4799C377.817 18.3399 377.985 18.0039 378.321 17.4719C378.685 16.9399 379.077 16.3799 379.497 15.7919C379.945 15.2039 380.309 14.7839 380.589 14.5319C380.785 14.3079 381.079 14.0699 381.471 13.8179C381.891 13.5659 382.255 13.3839 382.563 13.2719C382.871 13.1599 383.179 13.0619 383.487 12.9779C383.823 12.8939 384.201 12.8519 384.621 12.8519C385.013 12.8519 385.377 12.9359 385.713 13.1039C386.049 13.2719 386.371 13.5659 386.679 13.9859C387.183 14.4899 387.463 14.9939 387.519 15.4979C387.603 15.9739 387.589 16.4639 387.477 16.9679C387.337 17.5279 387.155 17.9619 386.931 18.2699C386.707 18.5499 386.455 18.6759 386.175 18.6479C385.895 18.6199 385.573 18.4099 385.209 18.0179C385.097 17.7939 385.041 17.6119 385.041 17.4719C385.041 17.3039 385.097 17.0659 385.209 16.7579C385.321 16.3659 385.321 15.9599 385.209 15.5399C385.097 15.1199 384.915 14.9099 384.663 14.9099C384.299 14.9099 383.893 15.0779 383.445 15.4139C383.025 15.7219 382.591 16.1139 382.143 16.5899C381.947 16.8139 381.667 17.1639 381.303 17.6399C380.967 18.0879 380.631 18.5919 380.295 19.1519C379.959 19.6839 379.679 20.2019 379.455 20.7059C379.147 21.6299 378.895 22.3719 378.699 22.9319C378.531 23.4919 378.447 23.7719 378.447 23.7719C378.447 23.8839 378.475 23.9959 378.531 24.1079C378.615 24.1919 378.657 24.2899 378.657 24.4019C378.657 24.7379 378.853 25.0039 379.245 25.1999C379.553 25.3959 379.917 25.5079 380.337 25.5359C380.757 25.5359 381.275 25.3959 381.891 25.1159C382.339 24.8919 382.759 24.5979 383.151 24.2339C383.571 23.8699 384.005 23.5479 384.453 23.2679C384.761 23.0719 384.999 22.9039 385.167 22.7639C385.363 22.6239 385.461 22.6099 385.461 22.7219C385.461 22.8339 385.503 22.8899 385.587 22.8899C385.671 22.8899 385.769 22.8339 385.881 22.7219C386.049 22.4979 386.231 22.3579 386.427 22.3019C386.623 22.2179 386.791 22.1899 386.931 22.2179C387.099 22.2179 387.183 22.2599 387.183 22.3439C387.127 22.5959 387.183 22.8059 387.351 22.9739C387.351 23.0859 387.309 23.2399 387.225 23.4359C387.169 23.6039 387.085 23.7439 386.973 23.8559C386.833 24.0519 386.623 24.2759 386.343 24.5279C386.091 24.7799 385.853 25.0039 385.629 25.1999C385.405 25.3679 385.293 25.4519 385.293 25.4519C385.181 25.4239 385.069 25.4519 384.957 25.5359C384.873 25.6199 384.775 25.7179 384.663 25.8299C384.439 26.0259 384.229 26.1799 384.033 26.2919C383.837 26.3759 383.683 26.4179 383.571 26.4179C383.375 26.5299 383.221 26.5999 383.109 26.6279C383.025 26.6559 382.983 26.7259 382.983 26.8379C382.703 27.1179 382.353 27.3139 381.933 27.4259C381.541 27.5099 380.953 27.5519 380.169 27.5519ZM394.516 28.6439C393.284 28.6439 392.276 28.1819 391.492 27.2579C390.708 26.3059 390.33 25.1299 390.358 23.7299C390.414 22.7219 390.61 21.6439 390.946 20.4959C391.31 19.3199 391.786 18.1999 392.374 17.1359C392.962 16.0439 393.606 15.0919 394.306 14.2799C395.006 13.4679 395.734 12.8939 396.49 12.5579C396.77 12.4179 397.064 12.3059 397.372 12.2219C397.708 12.1379 398.044 12.0959 398.38 12.0959C398.688 12.0959 399.01 12.1519 399.346 12.2639C399.682 12.3479 399.962 12.4459 400.186 12.5579C400.662 12.7539 401.026 12.9919 401.278 13.2719C401.53 13.5519 401.754 13.9859 401.95 14.5739C402.034 15.1059 402.076 15.4839 402.076 15.7079C402.076 15.9319 402.006 16.2679 401.866 16.7159C401.53 17.7239 401.096 18.5919 400.564 19.3199C400.032 20.0479 399.318 20.6639 398.422 21.1679C398.198 21.3079 397.932 21.4199 397.624 21.5039C397.344 21.5599 397.05 21.5879 396.742 21.5879C396.182 21.5879 395.636 21.4899 395.104 21.2939C394.6 21.0699 394.194 20.7479 393.886 20.3279L393.592 19.9919L393.466 20.3279C393.186 21.0839 392.962 21.7839 392.794 22.4279C392.654 23.0719 392.584 23.6599 392.584 24.1919C392.584 24.5279 392.612 24.8499 392.668 25.1579C392.752 25.4659 392.864 25.7319 393.004 25.9559C393.116 26.1239 393.298 26.2499 393.55 26.3339C393.83 26.3899 394.124 26.4179 394.432 26.4179C394.628 26.4179 394.824 26.4179 395.02 26.4179C395.244 26.3899 395.454 26.3339 395.65 26.2499C396.126 26.0819 396.504 25.8999 396.784 25.7039C397.092 25.5079 397.4 25.2979 397.708 25.0739L397.876 24.9899H397.834C398.17 24.8219 398.464 24.6539 398.716 24.4859C398.996 24.3179 399.136 24.2339 399.136 24.2339C399.248 24.2339 399.36 24.1639 399.472 24.0239C399.696 23.9119 399.976 23.9539 400.312 24.1499C400.676 24.3459 400.858 24.5979 400.858 24.9059C400.83 25.0459 400.704 25.2699 400.48 25.5779C400.256 25.8579 400.004 26.1239 399.724 26.3759C399.472 26.6279 399.262 26.7679 399.094 26.7959C399.066 26.8239 398.968 26.8799 398.8 26.9639C398.632 27.0199 398.52 27.0759 398.464 27.1319H398.506C398.254 27.4679 398.002 27.6359 397.75 27.6359H397.414C397.302 27.8319 396.938 28.0559 396.322 28.3079C395.706 28.5319 395.104 28.6439 394.516 28.6439ZM396.406 19.4039C396.91 19.4039 397.344 19.2639 397.708 18.9839C398.1 18.6759 398.436 18.3399 398.716 17.9759C399.276 17.2199 399.598 16.4919 399.682 15.7919C399.794 15.0639 399.71 14.5599 399.43 14.2799C399.262 14.1959 399.108 14.1539 398.968 14.1539C398.856 14.1259 398.618 14.1679 398.254 14.2799C398.002 14.3359 397.652 14.5459 397.204 14.9099C396.756 15.2739 396.308 15.6799 395.86 16.1279C395.44 16.5759 395.118 16.9539 394.894 17.2619L394.348 18.1439C394.572 18.0599 394.782 18.0179 394.978 18.0179C395.202 17.9899 395.328 18.0039 395.356 18.0599C395.356 18.3119 395.398 18.5499 395.482 18.7739C395.594 18.9699 395.72 19.1239 395.86 19.2359C396.028 19.3479 396.21 19.4039 396.406 19.4039ZM403.848 27.2159C403.624 27.3839 403.302 27.4259 402.882 27.3419C402.462 27.2579 402.126 27.1739 401.874 27.0899C401.818 26.9779 401.762 26.8519 401.706 26.7119C401.65 26.5719 401.608 26.4459 401.58 26.3339C401.552 26.1939 401.524 26.0539 401.496 25.9139C401.496 25.7739 401.468 25.6479 401.412 25.5359C401.496 25.4519 401.566 25.3679 401.622 25.2839C401.706 25.1999 401.79 25.1299 401.874 25.0739C402.014 25.0739 402.168 25.0739 402.336 25.0739C402.504 25.0739 402.658 25.0739 402.798 25.0739C402.938 25.0179 403.05 24.9339 403.134 24.8219C403.246 24.6819 403.386 24.6119 403.554 24.6119C404.17 24.2199 404.772 23.6039 405.36 22.7639C405.976 21.9239 406.564 20.9859 407.124 19.9499C407.712 18.9139 408.23 17.9059 408.678 16.9259C409.154 15.9179 409.546 15.0779 409.854 14.4059C409.854 14.3499 409.854 14.3079 409.854 14.2799C409.854 14.2519 409.84 14.2239 409.812 14.1959C409.616 14.2519 409.406 14.3079 409.182 14.3639C408.958 14.3919 408.734 14.4479 408.51 14.5319C408.482 14.5599 408.44 14.5879 408.384 14.6159C408.328 14.6439 408.286 14.6719 408.258 14.6999C407.95 14.9519 407.544 15.0219 407.04 14.9099C406.564 14.7979 406.228 14.5599 406.032 14.1959C405.976 14.0839 405.92 13.9859 405.864 13.9019C405.808 13.8179 405.738 13.7199 405.654 13.6079C405.766 13.3559 405.934 13.1179 406.158 12.8939C406.41 12.6419 406.676 12.4879 406.956 12.4319C407.712 12.2639 408.454 12.1379 409.182 12.0539C409.938 11.9419 410.694 11.9139 411.45 11.9699C412.206 12.0259 412.948 12.1939 413.676 12.4739C413.816 12.5019 413.942 12.5299 414.054 12.5579C414.166 12.5859 414.278 12.6419 414.39 12.7259C414.558 12.8379 414.726 12.9639 414.894 13.1039C415.062 13.2439 415.216 13.3839 415.356 13.5239C415.552 13.6919 415.706 13.8739 415.818 14.0699C415.93 14.2659 416 14.4899 416.028 14.7419C416.084 15.0219 416.112 15.3159 416.112 15.6239C416.14 15.9319 416.126 16.2399 416.07 16.5479C415.93 17.2479 415.706 18.0879 415.398 19.0679C415.118 20.0199 414.866 20.8459 414.642 21.5459C414.306 22.6379 414.012 23.6179 413.76 24.4859C413.508 25.3259 413.27 26.1519 413.046 26.9639C412.682 27.0759 412.332 27.0619 411.996 26.9219C411.66 26.7819 411.366 26.5719 411.114 26.2919C411.002 25.8999 410.946 25.5359 410.946 25.1999C410.946 24.8359 411.044 24.4719 411.24 24.1079C411.436 23.7159 411.576 23.2119 411.66 22.5959C411.744 21.9799 411.926 21.4899 412.206 21.1259C412.262 21.0139 412.29 20.9159 412.29 20.8319C412.29 20.6639 412.346 20.3419 412.458 19.8659C412.598 19.3899 412.752 18.8579 412.92 18.2699C413.088 17.6539 413.242 17.0799 413.382 16.5479C413.55 16.0159 413.662 15.6099 413.718 15.3299C413.774 15.1619 413.774 15.0079 413.718 14.8679C413.69 14.7279 413.676 14.5739 413.676 14.4059C413.452 14.2939 413.13 14.2099 412.71 14.1539C412.318 14.0979 412.052 14.2379 411.912 14.5739C411.884 14.6299 411.856 14.6999 411.828 14.7839C411.828 14.8399 411.814 14.8959 411.786 14.9519C411.562 15.6519 411.254 16.3239 410.862 16.9679C410.498 17.6119 410.162 18.4939 409.854 19.6139C409.77 19.9219 409.644 20.2159 409.476 20.4959C409.336 20.7479 409.21 21.0279 409.098 21.3359C409.098 21.3639 409.084 21.3919 409.056 21.4199C409.056 21.4479 409.042 21.4759 409.014 21.5039C409.014 21.5319 409 21.5599 408.972 21.5879C408.776 21.8399 408.594 22.1059 408.426 22.3859C408.286 22.6379 408.132 22.9039 407.964 23.1839C407.488 23.9679 406.858 24.6959 406.074 25.3679C405.318 26.0399 404.576 26.6559 403.848 27.2159ZM417.551 24.9479C417.523 24.3879 417.593 23.7299 417.761 22.9739C417.957 22.2179 418.195 21.4759 418.475 20.7479C418.755 20.0199 419.007 19.4319 419.231 18.9839C419.259 18.6479 419.357 18.3539 419.525 18.1019C419.721 17.8499 419.875 17.5699 419.987 17.2619C420.071 17.0099 420.267 16.6039 420.575 16.0439C420.883 15.4559 421.219 14.8679 421.583 14.2799C421.947 13.6919 422.241 13.2719 422.465 13.0199C422.521 12.6839 422.647 12.4039 422.843 12.1799C423.039 11.9279 423.221 11.6759 423.389 11.4239C423.613 11.5359 423.795 11.6199 423.935 11.6759C424.075 11.7319 424.243 11.8719 424.439 12.0959C424.579 12.2919 424.733 12.4739 424.901 12.6419C425.097 12.7819 425.237 13.0059 425.321 13.3139C425.321 13.5659 425.223 13.8179 425.027 14.0699C424.859 14.2939 424.691 14.5179 424.523 14.7419C424.243 15.0779 424.033 15.3439 423.893 15.5399C423.781 15.7079 423.641 15.9179 423.473 16.1699C423.333 16.3939 423.095 16.7579 422.759 17.2619C422.899 17.3179 423.053 17.3879 423.221 17.4719C423.389 17.5279 423.543 17.5559 423.683 17.5559C423.935 17.5279 424.173 17.5559 424.397 17.6399C424.621 17.7239 424.845 17.8219 425.069 17.9339C425.293 18.0179 425.517 18.0879 425.741 18.1439C426.077 18.2559 426.427 18.4799 426.791 18.8159C427.183 19.1519 427.533 19.5159 427.841 19.9079C428.149 20.2999 428.345 20.6219 428.429 20.8739C428.513 21.0139 428.625 21.2799 428.765 21.6719C428.933 22.0359 428.961 22.3719 428.849 22.6799C428.821 22.7919 428.793 22.9179 428.765 23.0579C428.737 23.1979 428.723 23.3379 428.723 23.4779C428.303 24.0659 427.967 24.5279 427.715 24.8639C427.463 25.1999 427.029 25.5639 426.413 25.9559C425.489 26.4879 424.565 26.8939 423.641 27.1739C422.745 27.4539 421.835 27.5799 420.911 27.5519C420.771 27.5519 420.631 27.5939 420.491 27.6779C420.379 27.7339 420.253 27.7059 420.113 27.5939C419.553 27.5939 419.133 27.4399 418.853 27.1319C418.573 26.8239 418.279 26.4739 417.971 26.0819C417.747 25.7739 417.607 25.3959 417.551 24.9479ZM419.903 25.0739C420.407 25.1299 420.869 25.1019 421.289 24.9899C421.737 24.8779 422.171 24.7799 422.591 24.6959C423.067 24.6119 423.571 24.4299 424.103 24.1499C424.635 23.8419 425.111 23.4779 425.531 23.0579C425.979 22.6099 426.273 22.1619 426.413 21.7139C426.497 21.4899 426.511 21.2379 426.455 20.9579C426.399 20.6779 426.273 20.4819 426.077 20.3699C425.797 20.1739 425.517 19.9779 425.237 19.7819C424.957 19.5859 424.621 19.5019 424.229 19.5299C424.145 19.5579 424.047 19.5579 423.935 19.5299C423.851 19.4739 423.767 19.4319 423.683 19.4039C423.459 19.3479 423.235 19.3199 423.011 19.3199C422.815 19.3199 422.605 19.3479 422.381 19.4039C422.129 19.4879 421.891 19.5719 421.667 19.6559C421.443 19.7399 421.345 19.9639 421.373 20.3279C421.373 20.3839 421.303 20.4819 421.163 20.6219C421.107 20.6779 420.981 20.9579 420.785 21.4619C420.617 21.9659 420.449 22.4979 420.281 23.0579C420.113 23.6179 419.987 24.0239 419.903 24.2759C419.875 24.3879 419.861 24.5139 419.861 24.6539C419.889 24.7659 419.903 24.9059 419.903 25.0739Z" fill="#020202"/>
</svg>
