<svg width="471" height="40" viewBox="0 0 471 40" fill="none" xmlns="http://www.w3.org/2000/svg">
<path d="M2.32395 31.848C2.09995 31.848 1.84795 31.666 1.56795 31.302C1.28795 30.938 1.16195 30.588 1.18995 30.252C1.21795 29.804 1.34395 29.16 1.56795 28.32C1.79195 27.48 2.04395 26.626 2.32395 25.758C2.60395 24.89 2.85595 24.204 3.07995 23.7C3.19195 23.252 3.28995 22.86 3.37395 22.524C3.48595 22.16 3.55595 21.922 3.58395 21.81C3.66795 21.698 3.79395 21.404 3.96195 20.928C4.15795 20.452 4.31195 19.99 4.42395 19.542C4.47995 19.318 4.59195 18.898 4.75995 18.282C4.95595 17.638 5.17995 16.896 5.43195 16.056C5.71195 15.216 5.97795 14.39 6.22995 13.578C6.50995 12.766 6.74795 12.052 6.94395 11.436C7.13995 10.82 7.26595 10.414 7.32195 10.218C7.54595 9.882 7.71395 9.56 7.82595 9.252C7.93795 8.944 8.00795 8.734 8.03595 8.622C8.20395 8.51 8.30195 8.37 8.32995 8.202C8.35795 8.006 8.37195 7.852 8.37195 7.74C8.37195 7.6 8.41395 7.488 8.49795 7.404C8.60995 7.32 8.66595 7.222 8.66595 7.11C8.77795 7.026 8.84795 6.9 8.87595 6.732C8.90395 6.536 8.98795 6.368 9.12795 6.228L9.33795 5.514L11.8159 5.472C11.7599 5.808 11.6759 6.228 11.5639 6.732C11.4519 7.208 11.1859 7.852 10.7659 8.664C10.6259 9.224 10.4579 9.728 10.2619 10.176C10.0939 10.624 10.0239 10.918 10.0519 11.058C9.99595 11.114 9.86995 11.394 9.67395 11.898C9.50595 12.402 9.29595 13.018 9.04395 13.746C8.81995 14.474 8.58195 15.202 8.32995 15.93C8.10595 16.658 7.89595 17.302 7.69995 17.862C7.53195 18.394 7.41995 18.73 7.36395 18.87C7.13995 19.318 6.88795 19.976 6.60795 20.844C6.32795 21.712 5.90795 22.888 5.34795 24.372C5.12395 24.82 4.84395 25.492 4.50795 26.388C4.19995 27.284 3.94795 28.096 3.75195 28.824C3.44395 29.916 3.21995 30.672 3.07995 31.092C2.96795 31.54 2.86995 31.778 2.78595 31.806C2.70195 31.862 2.54795 31.876 2.32395 31.848ZM2.65995 6.816C1.87595 6.844 1.28795 6.802 0.895946 6.69C0.531946 6.578 0.405946 6.298 0.517946 5.85C0.601946 5.514 0.783946 5.262 1.06395 5.094C1.34395 4.926 1.74995 4.8 2.28195 4.716C2.58995 4.66 2.98195 4.59 3.45795 4.506C3.96195 4.422 4.43795 4.338 4.88595 4.254C5.80995 4.142 6.56595 4.044 7.15395 3.96C7.76995 3.876 8.39995 3.806 9.04395 3.75C9.68795 3.694 10.4999 3.638 11.4799 3.582C12.2919 3.526 12.9779 3.484 13.5379 3.456C14.1259 3.4 14.4199 3.372 14.4199 3.372C14.5039 3.372 14.7979 3.4 15.3019 3.456C15.8059 3.512 16.3519 3.582 16.9399 3.666C17.5279 3.75 17.9619 3.848 18.2419 3.96C18.8859 4.1 19.3479 4.296 19.6279 4.548C19.9359 4.8 20.1459 5.164 20.2579 5.64C20.3419 5.976 20.3419 6.186 20.2579 6.27C20.1739 6.326 20.0199 6.41 19.7959 6.522C19.1519 6.718 18.6759 6.816 18.3679 6.816C18.0599 6.816 17.7099 6.746 17.3179 6.606C17.1779 6.466 17.0099 6.34 16.8139 6.228C16.6459 6.116 16.3379 6.032 15.8899 5.976C15.4699 5.892 14.7979 5.822 13.8739 5.766C13.0899 5.85 12.4039 5.892 11.8159 5.892C11.2279 5.892 10.9339 5.962 10.9339 6.102L8.45595 6.228L6.39795 6.438C6.11795 6.466 5.72595 6.508 5.22195 6.564C4.71795 6.592 4.22795 6.634 3.75195 6.69C3.27595 6.718 2.91195 6.76 2.65995 6.816ZM14.9935 29.37C14.6295 29.37 14.3355 29.3 14.1115 29.16C13.9155 29.02 13.6635 28.824 13.3555 28.572C12.8235 28.012 12.4455 27.48 12.2215 26.976C11.9975 26.444 11.9275 25.94 12.0115 25.464C12.0955 25.24 12.1235 25.03 12.0955 24.834C12.0955 24.61 12.0955 24.498 12.0955 24.498C11.9555 24.358 11.9135 24.274 11.9695 24.246C12.0255 24.19 12.0815 24.106 12.1375 23.994C12.3055 23.994 12.3615 23.84 12.3055 23.532C12.2495 23.308 12.3615 22.818 12.6415 22.062C12.9215 21.306 13.2715 20.592 13.6915 19.92C13.8595 19.64 14.1115 19.276 14.4475 18.828C14.7835 18.352 15.1475 17.89 15.5395 17.442C15.9595 16.966 16.3375 16.588 16.6735 16.308C17.3735 15.72 17.9895 15.286 18.5215 15.006C19.0535 14.726 19.6275 14.516 20.2435 14.376C20.8595 14.236 21.2795 14.166 21.5035 14.166C21.7555 14.166 22.0915 14.39 22.5115 14.838C23.1555 15.118 23.6175 15.454 23.8975 15.846C24.2055 16.238 24.4015 16.812 24.4855 17.568C24.5695 18.408 24.4995 19.374 24.2755 20.466C24.0795 21.53 23.4215 22.86 22.3015 24.456C21.6015 25.464 20.9575 26.22 20.3695 26.724C19.7815 27.2 19.0815 27.676 18.2695 28.152C17.6815 28.544 17.1495 28.838 16.6735 29.034C16.1975 29.202 15.6375 29.314 14.9935 29.37ZM19.0255 24.918C19.6975 24.162 20.2295 23.448 20.6215 22.776C21.0415 22.104 21.4335 21.25 21.7975 20.214C21.9095 19.906 21.9795 19.528 22.0075 19.08C22.0355 18.604 22.0215 18.17 21.9655 17.778C21.9375 17.358 21.8395 17.12 21.6715 17.064C21.3355 16.868 20.9295 16.812 20.4535 16.896C19.9775 16.952 19.4595 17.218 18.8995 17.694C18.0315 18.422 17.2755 19.332 16.6315 20.424C15.9875 21.488 15.3575 22.706 14.7415 24.078C14.3215 25.086 14.2235 25.898 14.4475 26.514C14.6995 27.102 15.2175 27.312 16.0015 27.144C16.8135 26.948 17.8215 26.206 19.0255 24.918ZM36.53 29.916C36.334 30.028 36.068 29.986 35.732 29.79C35.424 29.594 35.116 29.3 34.808 28.908C34.612 28.572 34.472 28.208 34.388 27.816C34.332 27.424 34.304 26.878 34.304 26.178C34.332 25.618 34.304 25.254 34.22 25.086C34.164 24.918 34.01 24.946 33.758 25.17C33.506 25.366 33.072 25.772 32.456 26.388C31.756 27.088 31.084 27.634 30.44 28.026C29.824 28.418 29.32 28.6 28.928 28.572C28.732 28.572 28.508 28.474 28.256 28.278C28.032 28.054 27.822 27.788 27.626 27.48C27.43 27.144 27.262 26.808 27.122 26.472C26.954 25.856 26.926 25.072 27.038 24.12C27.178 23.14 27.402 22.118 27.71 21.054C28.018 19.99 28.368 18.982 28.76 18.03C29.18 17.078 29.6 16.308 30.02 15.72C30.468 15.132 30.86 14.838 31.196 14.838C31.42 14.838 31.616 14.95 31.784 15.174C31.98 15.398 32.176 15.748 32.372 16.224C32.484 16.42 32.526 16.588 32.498 16.728C32.498 16.868 32.386 17.036 32.162 17.232C31.91 17.568 31.616 18.072 31.28 18.744C30.972 19.416 30.664 20.144 30.356 20.928C30.076 21.712 29.824 22.468 29.6 23.196C29.376 23.924 29.222 24.526 29.138 25.002C29.054 25.45 29.068 25.674 29.18 25.674C29.572 25.674 30.034 25.52 30.566 25.212C31.126 24.876 31.658 24.47 32.162 23.994C32.75 23.406 33.268 22.762 33.716 22.062C34.192 21.362 34.668 20.62 35.144 19.836C35.508 19.276 35.886 18.66 36.278 17.988C36.698 17.316 36.964 16.84 37.076 16.56C37.468 15.832 37.762 15.342 37.958 15.09C38.154 14.81 38.392 14.628 38.672 14.544C38.812 14.544 38.938 14.544 39.05 14.544C39.19 14.544 39.26 14.544 39.26 14.544C39.428 14.572 39.624 14.698 39.848 14.922C40.072 15.034 40.198 15.146 40.226 15.258C40.254 15.342 40.268 15.454 40.268 15.594C40.156 15.874 39.974 16.294 39.722 16.854C39.498 17.386 39.33 17.778 39.218 18.03C38.686 19.234 38.154 20.424 37.622 21.6C37.118 22.748 36.754 23.924 36.53 25.128C36.474 25.52 36.46 25.982 36.488 26.514C36.544 27.018 36.628 27.382 36.74 27.606C36.824 27.774 36.922 27.97 37.034 28.194C37.174 28.39 37.328 28.558 37.496 28.698C37.748 28.866 37.79 29.048 37.622 29.244C37.482 29.44 37.286 29.608 37.034 29.748C36.782 29.86 36.614 29.916 36.53 29.916ZM35.984 12.486C35.116 12.598 34.388 12.346 33.8 11.73C33.212 11.114 32.764 10.204 32.456 9C32.4 8.776 32.372 8.58 32.372 8.412C32.4 8.216 32.456 8.048 32.54 7.908C32.596 7.796 32.708 7.712 32.876 7.656C33.044 7.572 33.184 7.558 33.296 7.614C33.688 7.754 33.968 7.936 34.136 8.16C34.332 8.356 34.458 8.608 34.514 8.916C34.57 9.056 34.598 9.196 34.598 9.336C34.626 9.476 34.64 9.532 34.64 9.504C34.78 9.952 34.962 10.26 35.186 10.428C35.41 10.596 35.746 10.582 36.194 10.386C36.67 10.19 37.132 9.966 37.58 9.714C38.056 9.462 38.476 9.154 38.84 8.79C39.148 8.482 39.442 8.202 39.722 7.95C40.03 7.698 40.324 7.432 40.604 7.152L40.646 7.11C40.758 7.026 40.898 6.998 41.066 7.026C41.234 7.054 41.332 7.096 41.36 7.152C41.556 7.348 41.654 7.544 41.654 7.74C41.654 7.936 41.654 8.146 41.654 8.37L41.612 8.454C41.668 8.622 41.528 8.944 41.192 9.42C40.884 9.896 40.506 10.302 40.058 10.638C39.666 10.946 39.246 11.226 38.798 11.478C38.35 11.73 37.888 11.968 37.412 12.192C37.216 12.304 37.006 12.374 36.782 12.402C36.586 12.402 36.32 12.43 35.984 12.486ZM54.2615 29.958C53.4215 29.986 52.8055 29.818 52.4135 29.454C52.0215 29.062 51.8675 28.53 51.9515 27.858C52.1475 27.662 52.3435 27.536 52.5395 27.48C52.7355 27.424 53.0155 27.466 53.3795 27.606C53.6875 27.718 53.9955 27.774 54.3035 27.774C54.6115 27.774 54.9195 27.718 55.2275 27.606C55.3675 27.522 55.5215 27.494 55.6895 27.522C55.8855 27.522 56.0815 27.494 56.2775 27.438C56.6695 27.298 57.1455 27.088 57.7055 26.808C58.2935 26.528 58.8815 26.206 59.4695 25.842C60.0575 25.45 60.5335 25.044 60.8975 24.624C60.9535 24.568 61.0375 24.4 61.1495 24.12C61.2615 23.812 61.3035 23.602 61.2755 23.49C60.9955 23.49 60.5475 23.546 59.9315 23.658C59.3435 23.742 58.9095 23.812 58.6295 23.868C58.0415 23.952 57.5935 23.882 57.2855 23.658C56.9775 23.434 56.7115 23.056 56.4875 22.524C56.4035 22.3 56.4315 22.118 56.5715 21.978C56.7115 21.81 56.8515 21.586 56.9915 21.306C57.1875 21.278 57.3695 21.264 57.5375 21.264C57.7335 21.236 57.9155 21.278 58.0835 21.39C58.2515 21.502 58.3915 21.502 58.5035 21.39C58.6435 21.278 58.7975 21.264 58.9655 21.348C59.1335 21.404 59.3575 21.418 59.6375 21.39C59.9175 21.362 60.5195 21.32 61.4435 21.264C61.5835 21.264 61.7095 21.25 61.8215 21.222C61.9615 21.166 62.0595 21.054 62.1155 20.886C62.2275 20.578 62.2835 20.256 62.2835 19.92C62.2835 19.556 62.2555 19.024 62.1995 18.324C62.0315 17.848 61.8775 17.54 61.7375 17.4C61.5975 17.232 61.4155 17.078 61.1915 16.938C60.3235 16.854 59.6375 16.896 59.1335 17.064C58.6295 17.204 58.2935 17.4 58.1255 17.652C57.6775 17.988 57.2155 18.184 56.7395 18.24C56.2915 18.296 56.0395 18.198 55.9835 17.946C55.9835 17.806 55.9415 17.582 55.8575 17.274C55.8015 16.966 55.7735 16.686 55.7735 16.434C55.7735 16.154 55.8435 16.014 55.9835 16.014C56.3755 15.538 56.6555 15.174 56.8235 14.922C56.9915 14.642 57.3975 14.474 58.0415 14.418C58.8535 14.25 59.5535 14.194 60.1415 14.25C60.7295 14.278 61.2895 14.404 61.8215 14.628C62.1295 14.712 62.5075 14.936 62.9555 15.3C63.4035 15.664 63.6835 16.014 63.7955 16.35C63.9355 16.462 64.1035 16.728 64.2995 17.148C64.5235 17.54 64.7475 18.282 64.9715 19.374C64.8315 20.41 64.6495 21.334 64.4255 22.146C64.2295 22.958 63.9635 23.728 63.6275 24.456C63.2915 25.212 62.9835 25.772 62.7035 26.136C62.4235 26.472 62.0875 26.836 61.6955 27.228C60.5195 27.956 59.6655 28.502 59.1335 28.866C58.6015 29.23 58.1815 29.468 57.8735 29.58C57.5655 29.692 57.1455 29.748 56.6135 29.748C56.2495 29.916 55.8575 30 55.4375 30C55.0455 29.972 54.6535 29.958 54.2615 29.958ZM67.1815 29.958C66.3415 29.986 65.7255 29.818 65.3335 29.454C64.9415 29.062 64.7875 28.53 64.8715 27.858C65.0675 27.662 65.2635 27.536 65.4595 27.48C65.6555 27.424 65.9355 27.466 66.2995 27.606C66.6075 27.718 66.9155 27.774 67.2235 27.774C67.5315 27.774 67.8395 27.718 68.1475 27.606C68.2875 27.522 68.4415 27.494 68.6095 27.522C68.8055 27.522 69.0015 27.494 69.1975 27.438C69.5895 27.298 70.0655 27.088 70.6255 26.808C71.2135 26.528 71.8015 26.206 72.3895 25.842C72.9775 25.45 73.4535 25.044 73.8175 24.624C73.8735 24.568 73.9575 24.4 74.0695 24.12C74.1815 23.812 74.2235 23.602 74.1955 23.49C73.9155 23.49 73.4675 23.546 72.8515 23.658C72.2635 23.742 71.8295 23.812 71.5495 23.868C70.9615 23.952 70.5135 23.882 70.2055 23.658C69.8975 23.434 69.6315 23.056 69.4075 22.524C69.3235 22.3 69.3515 22.118 69.4915 21.978C69.6315 21.81 69.7715 21.586 69.9115 21.306C70.1075 21.278 70.2895 21.264 70.4575 21.264C70.6535 21.236 70.8355 21.278 71.0035 21.39C71.1715 21.502 71.3115 21.502 71.4235 21.39C71.5635 21.278 71.7175 21.264 71.8855 21.348C72.0535 21.404 72.2775 21.418 72.5575 21.39C72.8375 21.362 73.4395 21.32 74.3635 21.264C74.5035 21.264 74.6295 21.25 74.7415 21.222C74.8815 21.166 74.9795 21.054 75.0355 20.886C75.1475 20.578 75.2035 20.256 75.2035 19.92C75.2035 19.556 75.1755 19.024 75.1195 18.324C74.9515 17.848 74.7975 17.54 74.6575 17.4C74.5175 17.232 74.3355 17.078 74.1115 16.938C73.2435 16.854 72.5575 16.896 72.0535 17.064C71.5495 17.204 71.2135 17.4 71.0455 17.652C70.5975 17.988 70.1355 18.184 69.6595 18.24C69.2115 18.296 68.9595 18.198 68.9035 17.946C68.9035 17.806 68.8615 17.582 68.7775 17.274C68.7215 16.966 68.6935 16.686 68.6935 16.434C68.6935 16.154 68.7635 16.014 68.9035 16.014C69.2955 15.538 69.5755 15.174 69.7435 14.922C69.9115 14.642 70.3175 14.474 70.9615 14.418C71.7735 14.25 72.4735 14.194 73.0615 14.25C73.6495 14.278 74.2095 14.404 74.7415 14.628C75.0495 14.712 75.4275 14.936 75.8755 15.3C76.3235 15.664 76.6035 16.014 76.7155 16.35C76.8555 16.462 77.0235 16.728 77.2195 17.148C77.4435 17.54 77.6675 18.282 77.8915 19.374C77.7515 20.41 77.5695 21.334 77.3455 22.146C77.1495 22.958 76.8835 23.728 76.5475 24.456C76.2115 25.212 75.9035 25.772 75.6235 26.136C75.3435 26.472 75.0075 26.836 74.6155 27.228C73.4395 27.956 72.5855 28.502 72.0535 28.866C71.5215 29.23 71.1015 29.468 70.7935 29.58C70.4855 29.692 70.0655 29.748 69.5335 29.748C69.1695 29.916 68.7775 30 68.3575 30C67.9655 29.972 67.5735 29.958 67.1815 29.958ZM78.2114 29.832C78.0994 29.776 77.9454 29.664 77.7494 29.496C77.5814 29.328 77.4274 29.16 77.2874 28.992C77.2034 28.908 77.1334 28.838 77.0774 28.782C77.0214 28.698 76.9654 28.642 76.9094 28.614C76.9094 28.418 76.9514 28.278 77.0354 28.194C77.1474 28.11 77.2594 28.012 77.3714 27.9C77.4834 27.732 77.6654 27.648 77.9174 27.648C78.1694 27.648 78.3654 27.578 78.5054 27.438C79.0094 27.074 79.5274 26.696 80.0594 26.304C80.5914 25.912 81.0394 25.45 81.4034 24.918C81.7954 24.358 82.1874 23.756 82.5794 23.112C82.9714 22.468 83.3494 21.838 83.7134 21.222C83.8254 21.026 84.0074 20.676 84.2594 20.172C84.5114 19.668 84.7494 19.178 84.9734 18.702C85.2254 18.198 85.3654 17.848 85.3934 17.652C85.1414 17.568 84.9034 17.498 84.6794 17.442C84.4834 17.358 84.2874 17.288 84.0914 17.232C83.8394 16.84 83.6994 16.616 83.6714 16.56C83.6434 16.476 83.6294 16.21 83.6294 15.762C83.6294 15.426 83.8114 15.216 84.1754 15.132C84.9874 14.936 85.7014 14.81 86.3174 14.754C86.9614 14.698 87.5914 14.586 88.2074 14.418C88.5994 14.306 89.0754 14.264 89.6354 14.292C90.1954 14.32 90.7554 14.446 91.3154 14.67C91.5674 14.782 91.7774 14.922 91.9454 15.09C92.1134 15.258 92.2674 15.454 92.4074 15.678C92.7714 16.182 92.9534 16.616 92.9534 16.98C92.9814 17.344 92.9674 17.694 92.9114 18.03C92.8554 18.366 92.8974 18.744 93.0374 19.164C92.8414 19.92 92.6454 20.592 92.4494 21.18C92.2534 21.74 92.0714 22.272 91.9034 22.776C91.7354 23.252 91.5814 23.7 91.4414 24.12C91.3014 24.54 91.1894 24.96 91.1054 25.38C90.9934 25.828 90.8534 26.276 90.6854 26.724C90.5174 27.172 90.3914 27.634 90.3074 28.11C90.2514 28.474 90.0834 28.74 89.8034 28.908C89.5514 29.076 89.2714 29.23 88.9634 29.37C88.8514 29.398 88.6554 29.37 88.3754 29.286C88.1234 29.174 87.8854 29.02 87.6614 28.824C87.5774 28.516 87.5494 28.236 87.5774 27.984C87.6054 27.732 87.6614 27.48 87.7454 27.228C87.8294 27.004 87.9834 26.5 88.2074 25.716C88.4314 24.932 88.6834 24.05 88.9634 23.07C89.2434 22.09 89.5094 21.18 89.7614 20.34C90.0134 19.5 90.1814 18.912 90.2654 18.576C90.4054 18.128 90.4474 17.792 90.3914 17.568C90.3634 17.344 90.3214 17.134 90.2654 16.938C89.6774 16.714 89.2714 16.644 89.0474 16.728C88.8514 16.784 88.5994 16.84 88.2914 16.896C88.1514 17.008 88.0394 17.134 87.9554 17.274C87.8714 17.414 87.8154 17.554 87.7874 17.694C87.4794 18.506 87.2134 19.15 86.9894 19.626C86.7934 20.102 86.5974 20.536 86.4014 20.928C86.2054 21.292 85.9814 21.698 85.7294 22.146C85.5054 22.594 85.2114 23.21 84.8474 23.994C84.6234 24.498 84.3434 24.96 84.0074 25.38C83.6994 25.8 83.4194 26.248 83.1674 26.724L82.7054 27.312C82.7334 27.312 82.6214 27.424 82.3694 27.648C82.1174 27.872 81.8654 28.096 81.6134 28.32C81.3894 28.544 81.2774 28.656 81.2774 28.656L79.9754 29.664C79.8354 29.776 79.5974 29.832 79.2614 29.832C78.9254 29.832 78.5754 29.832 78.2114 29.832ZM102.257 28.53C101.669 29.034 100.983 29.328 100.199 29.412C99.443 29.496 98.701 29.384 97.973 29.076C97.245 28.74 96.643 28.236 96.167 27.564C95.691 26.948 95.383 26.248 95.243 25.464C95.103 24.652 95.089 23.602 95.201 22.314C95.285 21.222 95.635 20.13 96.251 19.038C96.867 17.918 97.609 16.924 98.477 16.056C99.373 15.188 100.255 14.586 101.123 14.25C101.543 13.97 101.893 13.844 102.173 13.872C102.481 13.872 102.943 13.9 103.559 13.956C104.203 14.04 104.679 14.166 104.987 14.334C105.323 14.502 105.589 14.726 105.785 15.006C106.205 15.426 106.485 15.846 106.625 16.266C106.765 16.658 106.835 17.05 106.835 17.442C106.723 18.058 106.303 18.814 105.575 19.71C104.875 20.578 103.951 21.292 102.803 21.852C102.187 22.048 101.515 22.132 100.787 22.104C100.059 22.076 99.457 21.894 98.981 21.558C98.449 21.334 98.099 21.376 97.931 21.684C97.763 21.964 97.609 22.664 97.469 23.784C97.357 24.848 97.441 25.632 97.721 26.136C98.001 26.612 98.379 26.892 98.855 26.976C99.415 27.088 99.849 27.172 100.157 27.228C100.493 27.256 100.899 27.13 101.375 26.85C101.823 26.57 102.103 26.416 102.215 26.388C102.327 26.332 102.411 26.276 102.467 26.22C102.551 26.136 102.733 25.954 103.013 25.674C103.209 25.478 103.363 25.338 103.475 25.254C103.587 25.142 103.713 25.086 103.853 25.086C103.993 25.086 104.119 25.156 104.231 25.296C104.343 25.408 104.455 25.492 104.567 25.548C104.847 25.548 104.903 25.716 104.735 26.052C104.595 26.388 104.301 26.794 103.853 27.27C103.405 27.718 102.873 28.138 102.257 28.53ZM102.215 19.626C102.523 19.486 102.845 19.29 103.181 19.038C103.517 18.758 103.797 18.464 104.021 18.156C104.273 17.82 104.399 17.54 104.399 17.316C104.399 16.924 104.217 16.602 103.853 16.35C103.489 16.07 102.943 16.028 102.215 16.224C101.907 16.308 101.557 16.518 101.165 16.854C100.773 17.162 100.395 17.512 100.031 17.904C99.695 18.296 99.415 18.646 99.191 18.954C98.995 19.262 98.925 19.444 98.981 19.5C99.065 19.64 99.303 19.752 99.695 19.836C100.087 19.892 100.521 19.906 100.997 19.878C101.501 19.85 101.907 19.766 102.215 19.626ZM108.691 37.35C108.355 37.574 108.005 37.56 107.641 37.308C107.305 37.056 107.053 36.678 106.885 36.174C106.717 35.67 106.731 35.138 106.927 34.578C106.983 34.41 107.067 34.13 107.179 33.738C107.291 33.374 107.361 33.052 107.389 32.772C107.417 32.576 107.501 32.24 107.641 31.764C107.781 31.316 107.935 30.868 108.103 30.42C108.299 29.972 108.453 29.65 108.565 29.454C108.733 29.174 108.845 28.852 108.901 28.488C108.985 28.124 109.027 27.844 109.027 27.648C109.083 27.452 109.153 27.228 109.237 26.976C109.349 26.724 109.461 26.528 109.573 26.388C109.629 26.164 109.713 25.926 109.825 25.674C109.937 25.394 110.063 25.156 110.203 24.96C110.259 24.764 110.301 24.526 110.329 24.246C110.385 23.966 110.469 23.812 110.581 23.784C110.609 23.672 110.623 23.56 110.623 23.448C110.651 23.336 110.707 23.182 110.791 22.986C110.847 22.678 110.973 22.23 111.169 21.642C111.365 21.054 111.603 20.41 111.883 19.71C112.191 18.898 112.331 18.128 112.303 17.4C112.303 16.644 112.093 16.182 111.673 16.014C111.449 15.902 111.309 15.748 111.253 15.552C111.197 15.328 111.225 15.104 111.337 14.88C111.449 14.656 111.617 14.502 111.841 14.418C112.093 14.306 112.359 14.264 112.639 14.292C112.947 14.32 113.213 14.376 113.437 14.46C113.661 14.516 113.759 14.572 113.731 14.628C113.731 14.768 113.801 14.852 113.941 14.88C113.997 14.796 114.109 14.894 114.277 15.174C114.473 15.426 114.655 15.72 114.823 16.056C114.991 16.392 115.075 16.63 115.075 16.77C115.019 16.882 114.991 16.952 114.991 16.98C114.991 16.98 115.047 16.98 115.159 16.98C115.159 16.98 115.313 16.91 115.621 16.77C115.929 16.602 116.251 16.42 116.587 16.224C116.951 16 117.189 15.832 117.301 15.72C117.301 15.72 117.371 15.692 117.511 15.636C117.679 15.552 117.819 15.454 117.931 15.342C118.491 15.118 119.093 15.076 119.737 15.216C120.409 15.356 120.941 15.608 121.333 15.972C121.893 16.672 122.173 17.344 122.173 17.988C122.201 18.632 122.019 19.444 121.627 20.424C121.571 20.564 121.445 20.802 121.249 21.138C121.081 21.446 120.913 21.74 120.745 22.02C120.577 22.272 120.493 22.398 120.493 22.398C119.849 23.406 119.093 24.246 118.225 24.918C117.357 25.59 116.475 26.178 115.579 26.682C115.299 26.878 115.005 27.032 114.697 27.144C114.417 27.228 114.165 27.284 113.941 27.312C113.717 27.312 113.563 27.284 113.479 27.228C113.171 27.004 112.891 26.528 112.639 25.8C112.499 26.164 112.359 26.528 112.219 26.892C112.107 27.228 112.037 27.452 112.009 27.564C111.981 27.76 111.953 27.928 111.925 28.068C111.897 28.18 111.827 28.278 111.715 28.362C111.715 28.362 111.701 28.418 111.673 28.53C111.645 28.642 111.547 28.81 111.379 29.034C111.099 29.846 110.847 30.546 110.623 31.134C110.399 31.75 110.217 32.268 110.077 32.688C109.937 33.136 109.825 33.528 109.741 33.864C109.685 34.62 109.531 35.362 109.279 36.09C109.027 36.846 108.831 37.266 108.691 37.35ZM113.689 25.38C113.801 25.324 114.039 25.17 114.403 24.918C114.795 24.638 115.229 24.316 115.705 23.952C116.181 23.56 116.615 23.196 117.007 22.86C117.427 22.524 117.707 22.272 117.847 22.104C118.071 21.852 118.281 21.586 118.477 21.306C118.673 20.998 118.827 20.662 118.939 20.298C119.023 20.074 119.121 19.822 119.233 19.542C119.345 19.262 119.443 18.996 119.527 18.744C119.639 18.52 119.681 18.296 119.653 18.072C119.653 17.82 119.569 17.61 119.401 17.442C119.289 17.414 118.953 17.498 118.393 17.694C117.833 17.862 117.217 18.156 116.545 18.576C115.873 18.968 115.285 19.486 114.781 20.13C114.193 20.886 113.759 21.67 113.479 22.482C113.227 23.294 113.115 23.98 113.143 24.54C113.199 25.1 113.381 25.38 113.689 25.38ZM136.156 29.496C135.232 29.16 134.518 28.53 134.014 27.606C133.51 26.654 133.188 25.73 133.048 24.834C133.02 24.834 132.936 24.89 132.796 25.002C132.684 25.086 132.544 25.226 132.376 25.422C131.984 25.814 131.494 26.304 130.906 26.892C130.318 27.452 129.702 27.956 129.058 28.404C128.442 28.824 127.854 29.006 127.294 28.95C127.07 28.81 126.832 28.656 126.58 28.488C126.356 28.292 126.132 28.096 125.908 27.9C125.796 27.788 125.698 27.676 125.614 27.564C125.558 27.452 125.502 27.326 125.446 27.186C125.138 26.346 124.97 25.604 124.942 24.96C124.914 24.288 124.984 23.63 125.152 22.986C125.348 22.314 125.572 21.572 125.824 20.76C125.852 20.676 125.95 20.326 126.118 19.71C126.314 19.094 126.538 18.394 126.79 17.61C127.042 16.826 127.28 16.126 127.504 15.51C127.756 14.894 127.938 14.53 128.05 14.418C128.134 14.418 128.218 14.418 128.302 14.418C128.414 14.39 128.512 14.376 128.596 14.376C128.876 14.376 129.086 14.474 129.226 14.67C129.338 14.838 129.478 14.964 129.646 15.048C129.842 15.132 129.982 15.244 130.066 15.384C130.206 15.664 130.108 16.266 129.772 17.19C129.436 18.086 129.072 19.108 128.68 20.256C128.316 21.292 128.008 22.342 127.756 23.406C127.504 24.442 127.49 25.31 127.714 26.01C127.91 26.01 128.176 25.842 128.512 25.506C128.876 25.142 129.156 24.89 129.352 24.75C129.632 24.582 129.996 24.26 130.444 23.784C130.92 23.28 131.382 22.776 131.83 22.272C132.278 21.74 132.586 21.334 132.754 21.054C132.866 20.886 133.034 20.578 133.258 20.13C133.482 19.654 133.706 19.15 133.93 18.618C134.182 18.058 134.378 17.54 134.518 17.064C134.686 16.588 134.756 16.252 134.728 16.056C134.7 15.776 134.728 15.566 134.812 15.426C134.924 15.258 135.092 15.104 135.316 14.964C135.456 14.964 135.61 14.964 135.778 14.964C135.946 14.964 136.1 14.978 136.24 15.006C136.408 15.202 136.59 15.384 136.786 15.552C136.982 15.72 137.178 15.902 137.374 16.098C137.514 16.63 137.43 17.344 137.122 18.24C136.814 19.136 136.506 20.102 136.198 21.138C135.89 22.174 135.694 23.224 135.61 24.288C135.526 25.324 135.806 26.234 136.45 27.018C137.038 26.766 137.486 26.528 137.794 26.304C138.13 26.052 138.452 25.8 138.76 25.548C139.068 25.268 139.46 24.988 139.936 24.708C140.216 24.876 140.426 25.212 140.566 25.716C140.706 26.22 140.776 26.626 140.776 26.934C140.664 27.018 140.552 27.102 140.44 27.186C140.356 27.242 140.286 27.326 140.23 27.438C140.062 27.802 139.726 28.166 139.222 28.53C138.718 28.894 138.186 29.188 137.626 29.412C137.066 29.608 136.576 29.636 136.156 29.496ZM148.476 18.996C147.944 19.192 147.496 19.29 147.132 19.29C146.796 19.262 146.418 19.094 145.998 18.786C145.466 18.282 145.284 17.778 145.452 17.274C145.648 16.742 146.11 16.224 146.838 15.72C147.342 15.412 147.706 15.244 147.93 15.216C148.182 15.188 148.56 15.286 149.064 15.51C149.904 16.042 150.268 16.63 150.156 17.274C150.072 17.918 149.512 18.492 148.476 18.996ZM145.536 27.816C145.004 28.012 144.556 28.11 144.192 28.11C143.856 28.082 143.478 27.914 143.058 27.606C142.526 27.102 142.344 26.598 142.512 26.094C142.708 25.562 143.17 25.044 143.898 24.54C144.402 24.232 144.766 24.064 144.99 24.036C145.242 24.008 145.62 24.106 146.124 24.33C146.964 24.862 147.328 25.45 147.216 26.094C147.132 26.738 146.572 27.312 145.536 27.816ZM165.756 30.042C165.476 30.07 165.056 30 164.496 29.832C163.964 29.636 163.6 29.44 163.404 29.244C163.208 28.964 163.026 28.628 162.858 28.236C162.718 27.844 162.606 27.494 162.522 27.186C162.466 26.85 162.438 26.654 162.438 26.598L162.942 23.112C163.082 22.86 163.152 22.594 163.152 22.314C163.18 22.034 163.25 21.768 163.362 21.516C163.334 21.376 163.376 21.096 163.488 20.676C163.628 20.228 163.782 19.738 163.95 19.206C164.146 18.646 164.328 18.142 164.496 17.694C164.664 17.218 164.762 16.91 164.79 16.77C164.902 16.35 165.056 15.93 165.252 15.51C165.448 15.09 165.63 14.67 165.798 14.25C166.022 13.522 166.19 12.99 166.302 12.654C166.414 12.318 166.512 12.052 166.596 11.856C166.708 11.66 166.834 11.436 166.974 11.184C167.114 10.904 167.31 10.484 167.562 9.924L170.04 4.296C169.76 4.156 169.508 3.89 169.284 3.498C169.06 3.078 168.948 2.7 168.948 2.364C168.92 2.196 168.948 2.084 169.032 2.028C169.116 1.944 169.256 1.86 169.452 1.776C169.76 1.776 170.082 1.762 170.418 1.734C170.754 1.706 171.09 1.72 171.426 1.776C171.678 1.804 171.846 1.79 171.93 1.734C172.014 1.65 172.182 1.636 172.434 1.692C172.686 1.776 172.938 1.804 173.19 1.776C173.47 1.748 173.708 1.678 173.904 1.566C173.988 1.566 174.24 1.552 174.66 1.524C175.08 1.496 175.542 1.468 176.046 1.44C176.578 1.412 177.04 1.384 177.432 1.356C177.852 1.328 178.104 1.314 178.188 1.314C178.16 1.314 178.342 1.3 178.734 1.272C179.154 1.244 179.644 1.216 180.204 1.188C180.764 1.132 181.268 1.09 181.716 1.062C182.164 1.006 182.416 0.963998 182.472 0.935999C183.06 0.795999 183.466 0.851999 183.69 1.104C183.914 1.356 184.082 1.594 184.194 1.818C184.25 1.958 184.32 2.112 184.404 2.28C184.488 2.42 184.544 2.546 184.572 2.658C184.628 2.742 184.614 2.798 184.53 2.826C184.39 3.022 184.194 3.162 183.942 3.246C183.718 3.33 183.452 3.316 183.144 3.204C183.032 3.176 182.626 3.176 181.926 3.204C181.226 3.232 180.372 3.288 179.364 3.372C178.384 3.456 177.376 3.554 176.34 3.666C175.332 3.75 174.45 3.834 173.694 3.918C173.414 4.086 173.176 4.31 172.98 4.59C172.784 4.842 172.602 5.122 172.434 5.43C172.35 5.598 172.154 5.99 171.846 6.606C171.566 7.222 171.258 7.894 170.922 8.622C170.586 9.35 170.306 9.98 170.082 10.512C169.858 11.016 169.746 11.254 169.746 11.226C169.522 11.534 169.578 11.716 169.914 11.772C170.278 11.828 170.586 11.856 170.838 11.856C171.062 11.856 171.286 11.912 171.51 12.024C171.762 12.108 172 12.136 172.224 12.108C172.364 12.08 172.63 12.122 173.022 12.234C173.442 12.318 173.89 12.444 174.366 12.612C174.87 12.752 175.318 12.906 175.71 13.074C176.13 13.214 176.424 13.34 176.592 13.452C177.236 13.844 177.796 14.236 178.272 14.628C178.748 15.02 179.126 15.496 179.406 16.056C179.686 16.616 179.924 17.19 180.12 17.778C180.316 18.366 180.386 18.982 180.33 19.626C180.33 19.766 180.288 20.06 180.204 20.508C180.148 20.928 180.064 21.362 179.952 21.81C179.84 22.258 179.714 22.594 179.574 22.818C179.238 23.378 178.874 23.91 178.482 24.414C178.118 24.89 177.782 25.31 177.474 25.674C177.026 26.234 176.494 26.71 175.878 27.102C175.29 27.466 174.674 27.802 174.03 28.11C173.526 28.362 173.134 28.558 172.854 28.698C172.602 28.81 172.364 28.894 172.14 28.95C171.916 29.006 171.608 29.076 171.216 29.16C171.244 29.16 171.104 29.202 170.796 29.286C170.488 29.342 170.18 29.412 169.872 29.496C169.564 29.58 169.41 29.622 169.41 29.622C169.046 29.818 168.668 29.944 168.276 30C167.884 30.028 167.492 30.042 167.1 30.042C166.876 30.042 166.652 30.028 166.428 30C166.204 30 165.98 30.014 165.756 30.042ZM165.378 27.816C165.798 27.788 166.232 27.774 166.68 27.774C167.128 27.774 167.576 27.718 168.024 27.606C169.424 27.214 170.726 26.794 171.93 26.346C173.162 25.898 174.282 25.114 175.29 23.994C175.99 23.182 176.508 22.426 176.844 21.726C177.208 21.026 177.488 20.228 177.684 19.332C177.796 18.884 177.796 18.478 177.684 18.114C177.572 17.722 177.474 17.26 177.39 16.728C177.138 16.14 176.9 15.748 176.676 15.552C176.452 15.328 176.228 15.188 176.004 15.132C175.78 15.076 175.556 14.992 175.332 14.88C174.968 14.572 174.45 14.362 173.778 14.25C173.106 14.138 172.644 14.068 172.392 14.04C172.56 14.068 172.518 14.068 172.266 14.04C172.042 13.984 171.706 13.928 171.258 13.872C170.81 13.788 170.362 13.718 169.914 13.662C169.466 13.606 169.116 13.578 168.864 13.578C168.668 14.026 168.458 14.516 168.234 15.048C168.038 15.58 167.828 16.112 167.604 16.644C167.408 17.148 167.226 17.652 167.058 18.156C166.778 18.968 166.512 19.794 166.26 20.634C166.008 21.446 165.77 22.272 165.546 23.112C165.434 23.588 165.322 24.162 165.21 24.834C165.098 25.506 165.042 26.136 165.042 26.724C165.07 27.284 165.182 27.648 165.378 27.816ZM183.22 28.488C183.108 28.264 182.968 28.096 182.8 27.984C182.632 27.844 182.548 27.718 182.548 27.606C182.548 27.494 182.534 27.382 182.506 27.27C182.506 27.13 182.45 27.004 182.338 26.892C182.198 26.724 182.212 26.346 182.38 25.758C182.548 25.142 182.828 24.4 183.22 23.532C183.612 22.636 184.074 21.698 184.606 20.718C184.83 20.494 185.054 20.2 185.278 19.836C185.502 19.472 185.67 19.234 185.782 19.122C185.782 19.01 185.824 18.912 185.908 18.828C185.992 18.716 186.09 18.66 186.202 18.66V18.408C186.202 18.268 186.328 18.03 186.58 17.694C186.86 17.358 187.196 16.994 187.588 16.602C187.98 16.182 188.386 15.79 188.806 15.426C189.226 15.034 189.576 14.754 189.856 14.586C190.444 14.194 191.046 13.956 191.662 13.872C192.306 13.788 192.852 13.928 193.3 14.292C193.384 14.376 193.524 14.516 193.72 14.712C193.916 14.908 194.14 15.132 194.392 15.384C194.672 15.608 194.952 15.846 195.232 16.098L196.786 17.484L196.03 19.584C195.666 20.704 195.568 21.684 195.736 22.524C195.932 23.364 196.212 24.092 196.576 24.708C196.716 25.016 196.996 25.31 197.416 25.59C197.864 25.87 198.284 26.038 198.676 26.094C198.9 26.122 199.11 26.206 199.306 26.346C199.502 26.486 199.6 26.71 199.6 27.018C199.6 27.298 199.544 27.522 199.432 27.69C199.32 27.858 199.124 27.97 198.844 28.026C197.92 28.138 197.052 27.914 196.24 27.354C195.456 26.794 194.728 25.87 194.056 24.582C193.944 24.414 193.79 24.106 193.594 23.658C193.426 23.182 193.328 22.874 193.3 22.734C193.188 22.874 192.978 23.14 192.67 23.532C192.362 23.896 192.124 24.162 191.956 24.33C189.968 26.346 188.246 27.704 186.79 28.404C185.362 29.076 184.172 29.104 183.22 28.488ZM184.732 26.136C184.732 26.332 185.026 26.332 185.614 26.136C186.23 25.912 186.888 25.52 187.588 24.96C188.54 24.148 189.492 23.252 190.444 22.272C191.424 21.292 192.208 20.382 192.796 19.542L193.72 18.03C193.44 17.386 193.132 16.952 192.796 16.728C192.488 16.476 192.222 16.35 191.998 16.35C191.634 16.35 191.088 16.686 190.36 17.358C189.66 18.03 188.904 18.926 188.092 20.046C187.28 21.166 186.51 22.398 185.782 23.742C185.502 24.302 185.25 24.848 185.026 25.38C184.83 25.884 184.732 26.136 184.732 26.136ZM211.214 29.244C210.766 29.104 210.374 28.894 210.038 28.614C209.702 28.306 209.38 27.97 209.072 27.606C208.932 27.438 208.694 27.102 208.358 26.598C208.022 26.094 207.658 25.534 207.266 24.918C206.902 24.302 206.552 23.728 206.216 23.196C205.88 22.636 205.628 22.216 205.46 21.936C205.32 22.356 205.166 22.706 204.998 22.986C204.858 23.238 204.788 23.644 204.788 24.204C204.508 24.596 204.298 25.044 204.158 25.548C204.046 26.024 203.92 26.5 203.78 26.976C203.696 27.284 203.556 27.564 203.36 27.816C203.192 28.068 202.968 28.292 202.688 28.488C202.352 28.46 202.058 28.348 201.806 28.152C201.582 27.956 201.386 27.76 201.218 27.564C201.05 27.228 200.98 26.906 201.008 26.598C201.036 26.29 201.106 25.996 201.218 25.716C201.274 25.464 201.428 24.974 201.68 24.246C201.96 23.518 202.254 22.734 202.562 21.894C202.87 21.026 203.15 20.256 203.402 19.584C203.654 18.884 203.794 18.45 203.822 18.282C203.99 17.722 204.284 17.12 204.704 16.476C205.152 15.804 205.46 15.076 205.628 14.292C205.684 14.096 205.824 13.914 206.048 13.746C206.272 13.55 206.524 13.452 206.804 13.452C207.112 13.424 207.364 13.578 207.56 13.914C207.616 13.942 207.7 13.984 207.812 14.04C207.924 14.068 208.008 14.124 208.064 14.208C208.288 14.46 208.414 14.726 208.442 15.006C208.498 15.286 208.442 15.58 208.274 15.888C207.91 16.532 207.602 17.064 207.35 17.484C207.126 17.876 206.902 18.31 206.678 18.786C206.454 19.262 206.202 19.92 205.922 20.76C206.398 20.648 206.748 20.564 206.972 20.508C207.196 20.424 207.406 20.298 207.602 20.13C207.826 19.934 208.12 19.64 208.484 19.248C208.624 19.108 208.904 18.842 209.324 18.45C209.772 18.03 210.234 17.582 210.71 17.106C211.214 16.63 211.648 16.21 212.012 15.846C212.404 15.482 212.614 15.272 212.642 15.216C212.81 14.964 212.978 14.74 213.146 14.544C213.342 14.32 213.594 14.152 213.902 14.04C214.322 14.096 214.616 14.18 214.784 14.292C214.952 14.376 215.274 14.614 215.75 15.006C215.89 15.118 215.946 15.384 215.918 15.804C215.89 16.196 215.736 16.504 215.456 16.728C214.952 17.12 214.322 17.624 213.566 18.24C212.81 18.856 211.998 19.5 211.13 20.172C210.29 20.844 209.45 21.474 208.61 22.062C209.002 22.706 209.352 23.322 209.66 23.91C209.968 24.47 210.22 24.946 210.416 25.338C210.472 26.038 210.724 26.514 211.172 26.766C211.648 26.99 212.222 27.102 212.894 27.102C213.118 27.214 213.258 27.354 213.314 27.522C213.398 27.662 213.44 27.83 213.44 28.026C213.468 28.194 213.496 28.362 213.524 28.53C213.132 28.782 212.852 29.006 212.684 29.202C212.544 29.37 212.376 29.468 212.18 29.496C212.012 29.496 211.69 29.412 211.214 29.244ZM217.939 28.446C217.855 28.334 217.771 28.194 217.687 28.026C217.631 27.858 217.603 27.718 217.603 27.606C217.603 27.55 217.589 27.48 217.561 27.396C217.561 27.312 217.505 27.27 217.393 27.27C217.309 27.186 217.365 26.864 217.561 26.304C217.785 25.716 218.065 25.044 218.401 24.288C218.765 23.532 219.129 22.804 219.493 22.104C219.885 21.376 220.207 20.802 220.459 20.382C220.599 20.298 220.683 20.186 220.711 20.046C220.767 19.878 220.767 19.794 220.711 19.794C220.711 19.794 220.781 19.668 220.921 19.416C221.089 19.136 221.215 18.954 221.299 18.87C221.523 18.478 221.691 18.086 221.803 17.694C221.915 17.274 221.943 16.924 221.887 16.644C221.775 16.504 221.649 16.462 221.509 16.518C221.369 16.574 221.299 16.602 221.299 16.602C221.187 16.63 221.019 16.686 220.795 16.77C220.599 16.826 220.417 16.91 220.249 17.022C219.605 17.47 219.171 17.68 218.947 17.652C218.723 17.596 218.471 17.232 218.191 16.56C218.079 16.252 218.037 16.028 218.065 15.888C218.093 15.748 218.205 15.594 218.401 15.426C218.625 15.23 218.835 15.104 219.031 15.048C219.227 14.964 219.381 14.88 219.493 14.796C219.801 14.6 220.053 14.46 220.249 14.376C220.473 14.292 220.641 14.236 220.753 14.208C221.481 13.984 222.097 13.942 222.601 14.082C223.105 14.222 223.483 14.586 223.735 15.174C224.127 15.65 224.323 16.196 224.323 16.812C224.323 17.4 224.127 18.086 223.735 18.87L223.315 19.5C223.175 19.78 223.147 19.92 223.231 19.92C223.343 19.92 223.469 19.822 223.609 19.626C223.693 19.514 223.861 19.346 224.113 19.122C224.365 18.898 224.533 18.786 224.617 18.786C224.617 18.786 224.645 18.772 224.701 18.744C224.785 18.716 224.827 18.604 224.827 18.408C224.911 18.324 224.995 18.24 225.079 18.156C225.191 18.072 225.247 18.03 225.247 18.03C225.359 18.03 225.569 17.904 225.877 17.652C226.213 17.372 226.605 17.05 227.053 16.686C227.361 16.462 227.641 16.35 227.893 16.35C228.537 16.154 229.055 16.364 229.447 16.98C229.867 17.596 230.077 18.394 230.077 19.374L229.195 21.642L230.707 19.794C230.875 19.57 231.043 19.374 231.211 19.206C231.407 19.038 231.575 18.898 231.715 18.786C231.771 18.59 231.855 18.478 231.967 18.45C232.079 18.422 232.135 18.408 232.135 18.408C232.135 18.408 232.163 18.408 232.219 18.408C232.275 18.38 232.303 18.324 232.303 18.24C232.443 18.128 232.597 18.03 232.765 17.946C232.933 17.834 233.045 17.722 233.101 17.61C233.577 17.414 234.011 17.386 234.403 17.526C234.795 17.638 235.131 17.988 235.411 18.576C235.607 18.912 235.719 19.206 235.747 19.458C235.775 19.71 235.789 20.088 235.789 20.592C235.733 21.012 235.677 21.348 235.621 21.6C235.593 21.824 235.565 22.062 235.537 22.314C235.509 22.566 235.467 22.916 235.411 23.364C235.299 23.588 235.229 23.826 235.201 24.078C235.201 24.33 235.201 24.568 235.201 24.792C235.201 25.156 235.215 25.408 235.243 25.548C235.271 25.66 235.383 25.716 235.579 25.716C235.971 25.632 236.503 25.436 237.175 25.128C237.875 24.792 238.393 24.47 238.729 24.162C239.149 23.77 239.513 23.574 239.821 23.574C240.157 23.546 240.367 23.7 240.451 24.036C240.507 24.148 240.409 24.4 240.157 24.792C239.933 25.184 239.667 25.562 239.359 25.926C239.079 26.29 238.869 26.472 238.729 26.472C238.645 26.472 238.547 26.556 238.435 26.724C238.323 26.864 238.197 26.976 238.057 27.06C237.861 27.256 237.665 27.438 237.469 27.606C237.301 27.774 237.105 27.858 236.881 27.858C236.769 27.858 236.629 27.9 236.461 27.984C236.321 28.04 236.153 28.068 235.957 28.068C235.677 28.152 235.243 28.11 234.655 27.942C234.095 27.774 233.731 27.382 233.563 26.766C233.451 26.458 233.353 25.968 233.269 25.296C233.185 24.596 233.199 23.896 233.311 23.196C233.423 22.692 233.493 22.23 233.521 21.81C233.549 21.39 233.605 21.096 233.689 20.928C233.689 20.844 233.689 20.648 233.689 20.34C233.689 20.004 233.647 19.836 233.563 19.836C233.451 19.836 233.185 20.046 232.765 20.466C232.373 20.858 231.897 21.362 231.337 21.978C230.805 22.594 230.273 23.238 229.741 23.91C229.209 24.582 228.775 25.184 228.439 25.716C228.187 26.024 227.963 26.402 227.767 26.85C227.571 27.298 227.431 27.55 227.347 27.606C227.151 27.83 226.913 27.858 226.633 27.69C226.381 27.522 226.143 27.256 225.919 26.892C225.835 26.724 225.779 26.584 225.751 26.472C225.723 26.332 225.723 26.15 225.751 25.926C225.807 25.674 225.905 25.31 226.045 24.834C226.213 24.358 226.437 23.686 226.717 22.818C227.025 21.866 227.291 21.012 227.515 20.256C227.767 19.472 227.893 19.08 227.893 19.08C227.893 18.968 227.683 19.08 227.263 19.416C226.843 19.724 226.353 20.116 225.793 20.592C225.541 20.9 225.121 21.362 224.533 21.978C223.945 22.594 223.301 23.294 222.601 24.078C221.901 24.862 221.229 25.688 220.585 26.556C219.773 27.704 219.199 28.404 218.863 28.656C218.555 28.908 218.247 28.838 217.939 28.446ZM249.872 29.454C248.92 29.706 248.248 29.832 247.856 29.832C247.464 29.832 247.044 29.636 246.596 29.244C246.456 29.104 246.372 28.964 246.344 28.824C246.316 28.656 246.246 28.558 246.134 28.53C246.106 28.334 246.12 28.18 246.176 28.068C246.26 27.928 246.442 27.802 246.722 27.69C247.142 27.942 247.674 28.012 248.318 27.9C248.962 27.788 249.592 27.55 250.208 27.186C250.852 26.794 251.356 26.332 251.72 25.8C252.28 25.128 252.714 24.498 253.022 23.91C253.33 23.294 253.498 22.748 253.526 22.272C253.526 21.992 253.484 21.796 253.4 21.684C253.344 21.544 253.204 21.334 252.98 21.054C252.476 21.222 252.014 21.418 251.594 21.642C251.202 21.866 250.88 22.104 250.628 22.356C249.788 23.056 249.13 23.63 248.654 24.078C248.206 24.526 247.814 24.974 247.478 25.422C247.17 25.87 246.778 26.472 246.302 27.228C246.078 27.508 245.868 27.718 245.672 27.858C245.504 27.998 245.322 28.068 245.126 28.068C245.21 28.628 245.014 28.964 244.538 29.076C243.922 28.936 243.474 28.754 243.194 28.53C242.914 28.278 242.83 27.802 242.942 27.102C243.054 26.71 243.166 26.248 243.278 25.716C243.39 25.156 243.516 24.694 243.656 24.33C244.328 22.538 244.916 20.942 245.42 19.542C245.952 18.142 246.414 17.148 246.806 16.56L247.73 14.166C248.206 14.194 248.57 14.292 248.822 14.46C249.074 14.6 249.368 14.95 249.704 15.51C249.704 15.65 249.564 16.056 249.284 16.728C249.032 17.372 248.724 18.114 248.36 18.954C248.024 19.794 247.702 20.578 247.394 21.306C247.114 22.006 246.918 22.496 246.806 22.776C246.694 23.084 246.778 23.028 247.058 22.608C247.366 22.188 247.898 21.656 248.654 21.012C249.018 20.648 249.466 20.312 249.998 20.004C250.53 19.668 250.978 19.416 251.342 19.248C251.734 19.08 252.056 18.982 252.308 18.954C252.56 18.926 252.742 18.898 252.854 18.87C253.554 18.87 254.114 19.052 254.534 19.416C254.954 19.752 255.248 20.144 255.416 20.592C255.612 21.04 255.71 21.404 255.71 21.684C255.794 22.132 255.85 22.566 255.878 22.986C255.934 23.378 255.906 23.798 255.794 24.246C255.71 24.47 255.556 24.778 255.332 25.17C255.108 25.562 254.842 25.968 254.534 26.388C254.254 26.78 253.918 27.102 253.526 27.354C253.274 27.606 252.938 27.872 252.518 28.152C252.098 28.432 251.65 28.698 251.174 28.95C250.726 29.174 250.292 29.342 249.872 29.454ZM258.608 30.126C258.104 30.07 257.684 29.916 257.348 29.664C257.04 29.384 256.816 28.978 256.676 28.446C256.676 27.97 256.732 27.536 256.844 27.144C256.984 26.724 257.096 26.318 257.18 25.926C257.32 25.282 257.516 24.638 257.768 23.994C258.02 23.35 258.244 22.706 258.44 22.062C258.608 21.67 258.748 21.292 258.86 20.928C258.972 20.564 259.084 20.2 259.196 19.836C259.336 19.388 259.476 18.954 259.616 18.534C259.756 18.114 259.896 17.694 260.036 17.274C260.148 16.91 260.232 16.532 260.288 16.14C260.372 15.748 260.442 15.356 260.498 14.964C260.806 14.628 261.142 14.488 261.506 14.544C261.898 14.6 262.374 14.922 262.934 15.51C263.074 15.846 263.144 16.154 263.144 16.434C263.144 16.686 263.074 16.952 262.934 17.232C262.822 17.484 262.668 17.862 262.472 18.366C262.304 18.87 262.122 19.374 261.926 19.878C261.758 20.354 261.632 20.718 261.548 20.97C261.492 21.278 261.338 21.782 261.086 22.482C260.862 23.182 260.624 23.91 260.372 24.666C260.12 25.394 259.938 25.982 259.826 26.43C259.658 26.85 259.532 27.256 259.448 27.648C259.364 28.04 259.28 28.53 259.196 29.118C259.252 29.37 259.21 29.58 259.07 29.748C258.958 29.888 258.804 30.014 258.608 30.126ZM267.526 29.79C267.33 29.678 267.12 29.566 266.896 29.454C266.7 29.342 266.504 29.23 266.308 29.118C266.14 29.006 265.986 28.894 265.846 28.782C265.258 28.25 264.866 27.676 264.67 27.06C264.502 26.416 264.446 25.8 264.502 25.212C264.558 24.624 264.642 24.12 264.754 23.7C264.866 23.252 264.922 22.944 264.922 22.776C264.894 22.552 264.936 22.342 265.048 22.146C265.16 21.922 265.272 21.698 265.384 21.474C265.888 20.494 266.35 19.654 266.77 18.954C267.218 18.226 267.862 17.386 268.702 16.434C268.87 16.294 269.024 16.168 269.164 16.056C269.332 15.916 269.5 15.818 269.668 15.762L270.634 16.476C270.746 16.588 270.816 16.728 270.844 16.896C270.872 17.036 270.844 17.232 270.76 17.484C270.704 17.68 270.634 17.876 270.55 18.072C270.494 18.24 270.41 18.394 270.298 18.534C269.822 18.982 269.444 19.486 269.164 20.046C268.884 20.578 268.59 21.124 268.282 21.684C268.282 21.936 268.184 22.146 267.988 22.314C267.792 22.454 267.68 22.664 267.652 22.944C267.652 23.14 267.624 23.336 267.568 23.532C267.512 23.728 267.456 23.938 267.4 24.162C267.204 24.61 267.12 25.044 267.148 25.464C267.176 25.884 267.19 26.318 267.19 26.766C267.414 26.878 267.61 26.948 267.778 26.976C267.946 26.976 268.17 26.836 268.45 26.556C269.01 26.08 269.402 25.66 269.626 25.296C269.878 24.932 270.074 24.568 270.214 24.204C270.354 23.84 270.55 23.42 270.802 22.944C271.082 22.468 271.32 21.866 271.516 21.138C271.712 20.41 271.852 19.724 271.936 19.08C272.02 18.408 272.02 17.96 271.936 17.736C271.908 17.596 271.922 17.428 271.978 17.232C272.034 17.036 271.95 16.84 271.726 16.644C271.838 16.532 271.894 16.322 271.894 16.014C271.894 15.706 271.866 15.384 271.81 15.048C271.754 14.712 271.67 14.474 271.558 14.334C271.502 13.214 271.46 12.276 271.432 11.52C271.432 10.736 271.446 10.064 271.474 9.504C271.53 8.916 271.6 8.37 271.684 7.866C271.712 7.782 271.88 7.502 272.188 7.026C272.524 6.522 272.832 6.13 273.112 5.85C273.588 5.43 274.232 5.108 275.044 4.884C275.884 4.632 276.598 4.534 277.186 4.59C277.158 4.618 277.326 4.632 277.69 4.632C278.082 4.632 278.516 4.618 278.992 4.59C279.468 4.562 279.818 4.534 280.042 4.506C280.266 4.45 280.49 4.394 280.714 4.338C280.938 4.282 281.316 4.1 281.848 3.792C282.072 3.652 282.254 3.61 282.394 3.666L283.528 4.632C283.5 5.416 283.304 6.004 282.94 6.396C282.576 6.76 281.876 6.998 280.84 7.11C280.672 7.11 280.49 7.11 280.294 7.11C280.098 7.082 279.902 7.096 279.706 7.152C279.538 7.208 279.384 7.208 279.244 7.152C279.132 7.096 278.964 7.068 278.74 7.068C278.432 7.068 278.11 7.11 277.774 7.194C277.438 7.25 277.088 7.236 276.724 7.152C275.716 7.432 274.932 7.81 274.372 8.286C273.812 8.762 273.532 9.546 273.532 10.638C273.644 11.674 273.784 12.598 273.952 13.41C274.148 14.222 274.246 15.118 274.246 16.098C274.302 16.35 274.372 16.56 274.456 16.728C274.54 16.896 274.498 17.078 274.33 17.274C274.47 17.918 274.54 18.548 274.54 19.164C274.54 19.752 274.456 20.2 274.288 20.508C274.232 20.704 274.19 21.068 274.162 21.6C274.162 22.104 274.022 22.636 273.742 23.196C273.098 24.512 272.44 25.688 271.768 26.724C271.096 27.732 270.242 28.586 269.206 29.286C269.01 29.398 268.772 29.482 268.492 29.538C268.24 29.594 267.918 29.678 267.526 29.79ZM284.982 28.53C284.394 29.034 283.708 29.328 282.924 29.412C282.168 29.496 281.426 29.384 280.698 29.076C279.97 28.74 279.368 28.236 278.892 27.564C278.416 26.948 278.108 26.248 277.968 25.464C277.828 24.652 277.814 23.602 277.926 22.314C278.01 21.222 278.36 20.13 278.976 19.038C279.592 17.918 280.334 16.924 281.202 16.056C282.098 15.188 282.98 14.586 283.848 14.25C284.268 13.97 284.618 13.844 284.898 13.872C285.206 13.872 285.668 13.9 286.284 13.956C286.928 14.04 287.404 14.166 287.712 14.334C288.048 14.502 288.314 14.726 288.51 15.006C288.93 15.426 289.21 15.846 289.35 16.266C289.49 16.658 289.56 17.05 289.56 17.442C289.448 18.058 289.028 18.814 288.3 19.71C287.6 20.578 286.676 21.292 285.528 21.852C284.912 22.048 284.24 22.132 283.512 22.104C282.784 22.076 282.182 21.894 281.706 21.558C281.174 21.334 280.824 21.376 280.656 21.684C280.488 21.964 280.334 22.664 280.194 23.784C280.082 24.848 280.166 25.632 280.446 26.136C280.726 26.612 281.104 26.892 281.58 26.976C282.14 27.088 282.574 27.172 282.882 27.228C283.218 27.256 283.624 27.13 284.1 26.85C284.548 26.57 284.828 26.416 284.94 26.388C285.052 26.332 285.136 26.276 285.192 26.22C285.276 26.136 285.458 25.954 285.738 25.674C285.934 25.478 286.088 25.338 286.2 25.254C286.312 25.142 286.438 25.086 286.578 25.086C286.718 25.086 286.844 25.156 286.956 25.296C287.068 25.408 287.18 25.492 287.292 25.548C287.572 25.548 287.628 25.716 287.46 26.052C287.32 26.388 287.026 26.794 286.578 27.27C286.13 27.718 285.598 28.138 284.982 28.53ZM284.94 19.626C285.248 19.486 285.57 19.29 285.906 19.038C286.242 18.758 286.522 18.464 286.746 18.156C286.998 17.82 287.124 17.54 287.124 17.316C287.124 16.924 286.942 16.602 286.578 16.35C286.214 16.07 285.668 16.028 284.94 16.224C284.632 16.308 284.282 16.518 283.89 16.854C283.498 17.162 283.12 17.512 282.756 17.904C282.42 18.296 282.14 18.646 281.916 18.954C281.72 19.262 281.65 19.444 281.706 19.5C281.79 19.64 282.028 19.752 282.42 19.836C282.812 19.892 283.246 19.906 283.722 19.878C284.226 19.85 284.632 19.766 284.94 19.626ZM291.752 29.79C291.528 29.706 291.29 29.538 291.038 29.286C290.786 29.006 290.576 28.684 290.408 28.32C290.24 27.956 290.156 27.62 290.156 27.312C290.296 27.004 290.478 26.472 290.702 25.716C290.926 24.932 291.206 24.036 291.542 23.028C291.766 22.72 291.934 22.356 292.046 21.936C292.186 21.516 292.312 21.138 292.424 20.802C292.648 20.354 292.914 19.78 293.222 19.08C293.53 18.352 293.824 17.624 294.104 16.896C294.412 16.14 294.678 15.51 294.902 15.006C295.21 14.278 295.392 13.83 295.448 13.662C295.504 13.466 295.546 13.312 295.574 13.2C295.574 12.976 295.63 12.794 295.742 12.654C295.854 12.486 295.966 12.402 296.078 12.402C296.19 12.29 296.316 12.234 296.456 12.234C296.624 12.206 296.764 12.192 296.876 12.192C297.184 12.192 297.45 12.402 297.674 12.822C297.898 13.214 298.01 13.578 298.01 13.914C298.01 14.25 297.884 14.726 297.632 15.342C297.408 15.93 297.142 16.546 296.834 17.19C296.554 17.834 296.316 18.394 296.12 18.87C295.924 19.346 295.868 19.626 295.952 19.71C295.952 19.71 296.148 19.626 296.54 19.458C296.932 19.262 297.352 18.996 297.8 18.66C298.108 18.492 298.444 18.282 298.808 18.03C299.172 17.778 299.522 17.54 299.858 17.316C300.194 17.064 300.474 16.91 300.698 16.854C301.034 16.63 301.384 16.42 301.748 16.224C302.112 16 302.35 15.832 302.462 15.72C302.938 15.496 303.288 15.426 303.512 15.51C303.764 15.594 304.016 15.804 304.268 16.14C304.576 16.504 304.632 16.826 304.436 17.106C304.24 17.358 303.778 17.708 303.05 18.156C302.462 18.52 301.748 18.954 300.908 19.458C300.096 19.962 299.368 20.41 298.724 20.802C298.108 21.194 297.758 21.432 297.674 21.516C297.674 21.516 297.786 21.726 298.01 22.146C298.234 22.566 298.458 22.944 298.682 23.28C298.906 23.728 299.144 24.148 299.396 24.54C299.676 24.904 299.816 25.156 299.816 25.296C300.04 25.884 300.32 26.374 300.656 26.766C300.992 27.13 301.37 27.368 301.79 27.48C302.238 27.564 302.686 27.508 303.134 27.312C303.694 27.088 304.1 27.018 304.352 27.102C304.632 27.186 304.828 27.396 304.94 27.732C305.052 27.956 305.08 28.124 305.024 28.236C304.996 28.32 304.814 28.53 304.478 28.866C303.946 29.398 303.4 29.734 302.84 29.874C302.308 30.014 301.818 29.972 301.37 29.748C301.09 29.748 300.768 29.636 300.404 29.412C300.04 29.16 299.592 28.754 299.06 28.194C298.556 27.634 297.926 26.85 297.17 25.842C297.17 25.73 297.114 25.576 297.002 25.38C296.918 25.156 296.82 24.946 296.708 24.75C296.596 24.526 296.456 24.288 296.288 24.036C296.12 23.756 296.036 23.616 296.036 23.616C296.036 23.532 296.008 23.462 295.952 23.406C295.924 23.322 295.868 23.224 295.784 23.112C295.728 23 295.658 22.874 295.574 22.734C295.126 22.594 294.804 22.678 294.608 22.986C294.412 23.294 294.202 23.616 293.978 23.952C293.838 24.316 293.656 24.834 293.432 25.506C293.236 26.15 293.068 26.78 292.928 27.396C292.816 28.012 292.788 28.432 292.844 28.656C292.844 29.104 292.774 29.412 292.634 29.58C292.494 29.72 292.2 29.79 291.752 29.79ZM328.52 29.496C327.596 29.16 326.882 28.53 326.378 27.606C325.874 26.654 325.552 25.73 325.412 24.834C325.384 24.834 325.3 24.89 325.16 25.002C325.048 25.086 324.908 25.226 324.74 25.422C324.348 25.814 323.858 26.304 323.27 26.892C322.682 27.452 322.066 27.956 321.422 28.404C320.806 28.824 320.218 29.006 319.658 28.95C319.434 28.81 319.196 28.656 318.944 28.488C318.72 28.292 318.496 28.096 318.272 27.9C318.16 27.788 318.062 27.676 317.978 27.564C317.922 27.452 317.866 27.326 317.81 27.186C317.502 26.346 317.334 25.604 317.306 24.96C317.278 24.288 317.348 23.63 317.516 22.986C317.712 22.314 317.936 21.572 318.188 20.76C318.216 20.676 318.314 20.326 318.482 19.71C318.678 19.094 318.902 18.394 319.154 17.61C319.406 16.826 319.644 16.126 319.868 15.51C320.12 14.894 320.302 14.53 320.414 14.418C320.498 14.418 320.582 14.418 320.666 14.418C320.778 14.39 320.876 14.376 320.96 14.376C321.24 14.376 321.45 14.474 321.59 14.67C321.702 14.838 321.842 14.964 322.01 15.048C322.206 15.132 322.346 15.244 322.43 15.384C322.57 15.664 322.472 16.266 322.136 17.19C321.8 18.086 321.436 19.108 321.044 20.256C320.68 21.292 320.372 22.342 320.12 23.406C319.868 24.442 319.854 25.31 320.078 26.01C320.274 26.01 320.54 25.842 320.876 25.506C321.24 25.142 321.52 24.89 321.716 24.75C321.996 24.582 322.36 24.26 322.808 23.784C323.284 23.28 323.746 22.776 324.194 22.272C324.642 21.74 324.95 21.334 325.118 21.054C325.23 20.886 325.398 20.578 325.622 20.13C325.846 19.654 326.07 19.15 326.294 18.618C326.546 18.058 326.742 17.54 326.882 17.064C327.05 16.588 327.12 16.252 327.092 16.056C327.064 15.776 327.092 15.566 327.176 15.426C327.288 15.258 327.456 15.104 327.68 14.964C327.82 14.964 327.974 14.964 328.142 14.964C328.31 14.964 328.464 14.978 328.604 15.006C328.772 15.202 328.954 15.384 329.15 15.552C329.346 15.72 329.542 15.902 329.738 16.098C329.878 16.63 329.794 17.344 329.486 18.24C329.178 19.136 328.87 20.102 328.562 21.138C328.254 22.174 328.058 23.224 327.974 24.288C327.89 25.324 328.17 26.234 328.814 27.018C329.402 26.766 329.85 26.528 330.158 26.304C330.494 26.052 330.816 25.8 331.124 25.548C331.432 25.268 331.824 24.988 332.3 24.708C332.58 24.876 332.79 25.212 332.93 25.716C333.07 26.22 333.14 26.626 333.14 26.934C333.028 27.018 332.916 27.102 332.804 27.186C332.72 27.242 332.65 27.326 332.594 27.438C332.426 27.802 332.09 28.166 331.586 28.53C331.082 28.894 330.55 29.188 329.99 29.412C329.43 29.608 328.94 29.636 328.52 29.496ZM347.106 31.05C346.994 30.994 346.826 30.952 346.602 30.924C346.406 30.924 346.112 30.924 345.72 30.924C345.608 30.868 345.482 30.784 345.342 30.672C345.202 30.56 345.034 30.378 344.838 30.126C344.894 29.706 344.95 29.3 345.006 28.908C345.09 28.488 345.188 28.096 345.3 27.732C345.524 27.06 345.692 26.374 345.804 25.674C345.944 24.974 346.098 24.274 346.266 23.574L347.232 21.6C347.372 20.9 347.554 20.228 347.778 19.584C348.03 18.912 348.268 18.254 348.492 17.61C348.716 16.994 348.926 16.42 349.122 15.888C349.346 15.328 349.556 14.81 349.752 14.334C349.892 14.054 350.074 13.62 350.298 13.032C350.522 12.416 350.746 11.772 350.97 11.1C351.222 10.428 351.46 9.882 351.684 9.462C351.74 9.322 351.796 9.21 351.852 9.126C351.908 9.014 351.95 8.86 351.978 8.664C351.614 8.692 351.236 8.636 350.844 8.496C350.452 8.356 350.214 8.188 350.13 7.992C350.13 7.964 350.102 7.824 350.046 7.572C350.018 7.32 349.976 7.068 349.92 6.816C349.892 6.564 349.878 6.452 349.878 6.48C350.046 6.34 350.34 6.228 350.76 6.144C351.208 6.06 351.488 6.004 351.6 5.976C352.076 5.752 352.426 5.612 352.65 5.556C352.874 5.472 353.308 5.36 353.952 5.22C354.092 5.192 354.47 5.108 355.086 4.968C355.702 4.828 356.388 4.674 357.144 4.506C357.928 4.338 358.628 4.198 359.244 4.086C359.86 3.946 360.252 3.876 360.42 3.876C360.7 3.848 360.966 3.834 361.218 3.834C361.498 3.834 361.778 3.778 362.058 3.666C362.114 3.61 362.282 3.596 362.562 3.624C362.842 3.624 363.164 3.624 363.528 3.624C363.892 3.596 364.186 3.54 364.41 3.456C364.662 3.372 364.942 3.344 365.25 3.372C365.586 3.372 365.894 3.316 366.174 3.204C366.314 3.12 366.468 3.092 366.636 3.12C366.832 3.148 367.042 3.162 367.266 3.162C367.63 3.358 367.896 3.554 368.064 3.75C368.26 3.918 368.414 4.156 368.526 4.464V5.262C368.302 5.402 368.036 5.584 367.728 5.808C367.42 6.032 367.154 6.172 366.93 6.228C366.79 6.256 366.636 6.298 366.468 6.354C366.328 6.41 366.16 6.494 365.964 6.606C365.656 6.774 365.376 6.872 365.124 6.9C364.9 6.928 364.662 6.886 364.41 6.774C364.298 6.69 364.172 6.648 364.032 6.648C363.92 6.648 363.794 6.634 363.654 6.606C363.598 6.438 363.528 6.312 363.444 6.228C363.388 6.116 363.332 6.032 363.276 5.976C363.22 5.892 363.136 5.822 363.024 5.766C362.604 5.962 362.17 6.032 361.722 5.976C361.274 5.892 360.84 5.948 360.42 6.144C360 6.172 359.58 6.214 359.16 6.27C358.768 6.326 358.376 6.424 357.984 6.564C357.564 6.676 357.13 6.76 356.682 6.816C356.262 6.872 355.856 6.998 355.464 7.194C355.072 7.95 354.82 8.454 354.708 8.706C354.596 8.93 354.47 9.196 354.33 9.504C353.994 10.204 353.672 10.918 353.364 11.646C353.056 12.374 352.776 13.102 352.524 13.83L350.298 19.836C350.214 19.976 350.088 20.298 349.92 20.802C349.752 21.278 349.57 21.824 349.374 22.44C349.178 23.028 348.996 23.574 348.828 24.078C348.688 24.582 348.604 24.946 348.576 25.17C348.492 25.674 348.38 26.164 348.24 26.64C348.128 27.116 348.002 27.592 347.862 28.068C347.75 28.46 347.638 28.852 347.526 29.244C347.442 29.608 347.386 30.014 347.358 30.462C347.358 30.546 347.33 30.63 347.274 30.714C347.218 30.826 347.162 30.938 347.106 31.05ZM358.582 39.66C358.554 39.716 358.428 39.66 358.204 39.492C358.008 39.324 357.812 39.114 357.616 38.862C357.42 38.638 357.336 38.442 357.364 38.274C357.252 37.882 357.266 37.392 357.406 36.804C357.574 36.244 357.924 35.404 358.456 34.284C358.736 33.836 358.988 33.304 359.212 32.688C359.464 32.072 359.744 31.456 360.052 30.84C360.192 30.588 360.5 30.042 360.976 29.202C361.452 28.362 361.956 27.41 362.488 26.346C363.048 25.282 363.51 24.274 363.874 23.322C363.146 24.078 362.474 24.848 361.858 25.632C361.242 26.388 360.668 27.004 360.136 27.48C359.632 27.956 359.156 28.18 358.708 28.152C358.344 28.068 357.952 27.942 357.532 27.774C357.14 27.578 356.874 27.242 356.734 26.766C356.622 26.15 356.58 25.366 356.608 24.414C356.664 23.462 356.846 22.02 357.154 20.088C357.378 19.136 357.504 18.408 357.532 17.904C357.588 17.372 357.574 16.98 357.49 16.728C357.406 16.476 357.252 16.252 357.028 16.056C356.664 15.72 356.468 15.426 356.44 15.174C356.44 14.894 356.636 14.656 357.028 14.46C357.616 14.32 358.036 14.278 358.288 14.334C358.54 14.362 358.848 14.586 359.212 15.006C359.436 15.37 359.632 15.72 359.8 16.056C359.996 16.364 360.094 16.91 360.094 17.694C360.094 18.03 360.038 18.478 359.926 19.038C359.842 19.598 359.758 20.13 359.674 20.634C359.618 21.11 359.576 21.446 359.548 21.642C359.268 22.678 359.086 23.574 359.002 24.33C358.946 25.086 358.988 25.464 359.128 25.464C359.688 25.016 360.22 24.512 360.724 23.952C361.256 23.364 361.802 22.706 362.362 21.978C362.95 21.222 363.594 20.368 364.294 19.416C364.546 18.94 364.798 18.478 365.05 18.03C365.302 17.582 365.512 17.12 365.68 16.644C365.848 16.28 366.016 15.986 366.184 15.762C366.352 15.538 366.492 15.412 366.604 15.384C366.744 15.328 366.912 15.342 367.108 15.426C367.332 15.51 367.528 15.608 367.696 15.72C367.892 15.804 367.99 15.874 367.99 15.93C368.018 15.958 368.088 15.986 368.2 16.014C368.312 16.042 368.424 16.07 368.536 16.098C368.676 16.098 368.746 16.14 368.746 16.224C368.746 16.28 368.676 16.462 368.536 16.77C368.424 17.078 368.284 17.428 368.116 17.82C367.976 18.184 367.85 18.52 367.738 18.828C367.626 19.108 367.584 19.276 367.612 19.332C367.668 19.388 367.626 19.598 367.486 19.962C367.346 20.298 367.178 20.676 366.982 21.096C366.814 21.516 366.66 21.894 366.52 22.23C366.24 23.154 365.918 24.078 365.554 25.002C365.19 25.898 364.756 26.794 364.252 27.69C364.084 28.026 363.832 28.544 363.496 29.244C363.188 29.944 362.88 30.63 362.572 31.302C362.292 32.002 362.068 32.534 361.9 32.898C361.788 33.122 361.62 33.472 361.396 33.948C361.2 34.452 360.976 34.998 360.724 35.586C360.5 36.174 360.276 36.72 360.052 37.224C359.828 37.756 359.66 38.162 359.548 38.442C359.492 38.974 359.366 39.366 359.17 39.618C359.058 39.618 358.932 39.618 358.792 39.618C358.652 39.646 358.582 39.66 358.582 39.66ZM369.663 28.698C369.439 28.866 369.117 28.908 368.697 28.824C368.277 28.74 367.941 28.656 367.689 28.572C367.633 28.46 367.577 28.334 367.521 28.194C367.465 28.054 367.423 27.928 367.395 27.816C367.367 27.676 367.339 27.536 367.311 27.396C367.311 27.256 367.283 27.13 367.227 27.018C367.311 26.934 367.381 26.85 367.437 26.766C367.521 26.682 367.605 26.612 367.689 26.556C367.829 26.556 367.983 26.556 368.151 26.556C368.319 26.556 368.473 26.556 368.613 26.556C368.753 26.5 368.865 26.416 368.949 26.304C369.061 26.164 369.201 26.094 369.369 26.094C369.985 25.702 370.587 25.086 371.175 24.246C371.791 23.406 372.379 22.468 372.939 21.432C373.527 20.396 374.045 19.388 374.493 18.408C374.969 17.4 375.361 16.56 375.669 15.888C375.669 15.832 375.669 15.79 375.669 15.762C375.669 15.734 375.655 15.706 375.627 15.678C375.431 15.734 375.221 15.79 374.997 15.846C374.773 15.874 374.549 15.93 374.325 16.014C374.297 16.042 374.255 16.07 374.199 16.098C374.143 16.126 374.101 16.154 374.073 16.182C373.765 16.434 373.359 16.504 372.855 16.392C372.379 16.28 372.043 16.042 371.847 15.678C371.791 15.566 371.735 15.468 371.679 15.384C371.623 15.3 371.553 15.202 371.469 15.09C371.581 14.838 371.749 14.6 371.973 14.376C372.225 14.124 372.491 13.97 372.771 13.914C373.527 13.746 374.269 13.62 374.997 13.536C375.753 13.424 376.509 13.396 377.265 13.452C378.021 13.508 378.763 13.676 379.491 13.956C379.631 13.984 379.757 14.012 379.869 14.04C379.981 14.068 380.093 14.124 380.205 14.208C380.373 14.32 380.541 14.446 380.709 14.586C380.877 14.726 381.031 14.866 381.171 15.006C381.367 15.174 381.521 15.356 381.633 15.552C381.745 15.748 381.815 15.972 381.843 16.224C381.899 16.504 381.927 16.798 381.927 17.106C381.955 17.414 381.941 17.722 381.885 18.03C381.745 18.73 381.521 19.57 381.213 20.55C380.933 21.502 380.681 22.328 380.457 23.028C380.121 24.12 379.827 25.1 379.575 25.968C379.323 26.808 379.085 27.634 378.861 28.446C378.497 28.558 378.147 28.544 377.811 28.404C377.475 28.264 377.181 28.054 376.929 27.774C376.817 27.382 376.761 27.018 376.761 26.682C376.761 26.318 376.859 25.954 377.055 25.59C377.251 25.198 377.391 24.694 377.475 24.078C377.559 23.462 377.741 22.972 378.021 22.608C378.077 22.496 378.105 22.398 378.105 22.314C378.105 22.146 378.161 21.824 378.273 21.348C378.413 20.872 378.567 20.34 378.735 19.752C378.903 19.136 379.057 18.562 379.197 18.03C379.365 17.498 379.477 17.092 379.533 16.812C379.589 16.644 379.589 16.49 379.533 16.35C379.505 16.21 379.491 16.056 379.491 15.888C379.267 15.776 378.945 15.692 378.525 15.636C378.133 15.58 377.867 15.72 377.727 16.056C377.699 16.112 377.671 16.182 377.643 16.266C377.643 16.322 377.629 16.378 377.601 16.434C377.377 17.134 377.069 17.806 376.677 18.45C376.313 19.094 375.977 19.976 375.669 21.096C375.585 21.404 375.459 21.698 375.291 21.978C375.151 22.23 375.025 22.51 374.913 22.818C374.913 22.846 374.899 22.874 374.871 22.902C374.871 22.93 374.857 22.958 374.829 22.986C374.829 23.014 374.815 23.042 374.787 23.07C374.591 23.322 374.409 23.588 374.241 23.868C374.101 24.12 373.947 24.386 373.779 24.666C373.303 25.45 372.673 26.178 371.889 26.85C371.133 27.522 370.391 28.138 369.663 28.698ZM393.446 29.244C392.998 29.104 392.606 28.894 392.27 28.614C391.934 28.306 391.612 27.97 391.304 27.606C391.164 27.438 390.926 27.102 390.59 26.598C390.254 26.094 389.89 25.534 389.498 24.918C389.134 24.302 388.784 23.728 388.448 23.196C388.112 22.636 387.86 22.216 387.692 21.936C387.552 22.356 387.398 22.706 387.23 22.986C387.09 23.238 387.02 23.644 387.02 24.204C386.74 24.596 386.53 25.044 386.39 25.548C386.278 26.024 386.152 26.5 386.012 26.976C385.928 27.284 385.788 27.564 385.592 27.816C385.424 28.068 385.2 28.292 384.92 28.488C384.584 28.46 384.29 28.348 384.038 28.152C383.814 27.956 383.618 27.76 383.45 27.564C383.282 27.228 383.212 26.906 383.24 26.598C383.268 26.29 383.338 25.996 383.45 25.716C383.506 25.464 383.66 24.974 383.912 24.246C384.192 23.518 384.486 22.734 384.794 21.894C385.102 21.026 385.382 20.256 385.634 19.584C385.886 18.884 386.026 18.45 386.054 18.282C386.222 17.722 386.516 17.12 386.936 16.476C387.384 15.804 387.692 15.076 387.86 14.292C387.916 14.096 388.056 13.914 388.28 13.746C388.504 13.55 388.756 13.452 389.036 13.452C389.344 13.424 389.596 13.578 389.792 13.914C389.848 13.942 389.932 13.984 390.044 14.04C390.156 14.068 390.24 14.124 390.296 14.208C390.52 14.46 390.646 14.726 390.674 15.006C390.73 15.286 390.674 15.58 390.506 15.888C390.142 16.532 389.834 17.064 389.582 17.484C389.358 17.876 389.134 18.31 388.91 18.786C388.686 19.262 388.434 19.92 388.154 20.76C388.63 20.648 388.98 20.564 389.204 20.508C389.428 20.424 389.638 20.298 389.834 20.13C390.058 19.934 390.352 19.64 390.716 19.248C390.856 19.108 391.136 18.842 391.556 18.45C392.004 18.03 392.466 17.582 392.942 17.106C393.446 16.63 393.88 16.21 394.244 15.846C394.636 15.482 394.846 15.272 394.874 15.216C395.042 14.964 395.21 14.74 395.378 14.544C395.574 14.32 395.826 14.152 396.134 14.04C396.554 14.096 396.848 14.18 397.016 14.292C397.184 14.376 397.506 14.614 397.982 15.006C398.122 15.118 398.178 15.384 398.15 15.804C398.122 16.196 397.968 16.504 397.688 16.728C397.184 17.12 396.554 17.624 395.798 18.24C395.042 18.856 394.23 19.5 393.362 20.172C392.522 20.844 391.682 21.474 390.842 22.062C391.234 22.706 391.584 23.322 391.892 23.91C392.2 24.47 392.452 24.946 392.648 25.338C392.704 26.038 392.956 26.514 393.404 26.766C393.88 26.99 394.454 27.102 395.126 27.102C395.35 27.214 395.49 27.354 395.546 27.522C395.63 27.662 395.672 27.83 395.672 28.026C395.7 28.194 395.728 28.362 395.756 28.53C395.364 28.782 395.084 29.006 394.916 29.202C394.776 29.37 394.608 29.468 394.412 29.496C394.244 29.496 393.922 29.412 393.446 29.244ZM399.29 28.488C399.178 28.264 399.038 28.096 398.87 27.984C398.702 27.844 398.618 27.718 398.618 27.606C398.618 27.494 398.604 27.382 398.576 27.27C398.576 27.13 398.52 27.004 398.408 26.892C398.268 26.724 398.282 26.346 398.45 25.758C398.618 25.142 398.898 24.4 399.29 23.532C399.682 22.636 400.144 21.698 400.676 20.718C400.9 20.494 401.124 20.2 401.348 19.836C401.572 19.472 401.74 19.234 401.852 19.122C401.852 19.01 401.894 18.912 401.978 18.828C402.062 18.716 402.16 18.66 402.272 18.66V18.408C402.272 18.268 402.398 18.03 402.65 17.694C402.93 17.358 403.266 16.994 403.658 16.602C404.05 16.182 404.456 15.79 404.876 15.426C405.296 15.034 405.646 14.754 405.926 14.586C406.514 14.194 407.116 13.956 407.732 13.872C408.376 13.788 408.922 13.928 409.37 14.292C409.454 14.376 409.594 14.516 409.79 14.712C409.986 14.908 410.21 15.132 410.462 15.384C410.742 15.608 411.022 15.846 411.302 16.098L412.856 17.484L412.1 19.584C411.736 20.704 411.638 21.684 411.806 22.524C412.002 23.364 412.282 24.092 412.646 24.708C412.786 25.016 413.066 25.31 413.486 25.59C413.934 25.87 414.354 26.038 414.746 26.094C414.97 26.122 415.18 26.206 415.376 26.346C415.572 26.486 415.67 26.71 415.67 27.018C415.67 27.298 415.614 27.522 415.502 27.69C415.39 27.858 415.194 27.97 414.914 28.026C413.99 28.138 413.122 27.914 412.31 27.354C411.526 26.794 410.798 25.87 410.126 24.582C410.014 24.414 409.86 24.106 409.664 23.658C409.496 23.182 409.398 22.874 409.37 22.734C409.258 22.874 409.048 23.14 408.74 23.532C408.432 23.896 408.194 24.162 408.026 24.33C406.038 26.346 404.316 27.704 402.86 28.404C401.432 29.076 400.242 29.104 399.29 28.488ZM400.802 26.136C400.802 26.332 401.096 26.332 401.684 26.136C402.3 25.912 402.958 25.52 403.658 24.96C404.61 24.148 405.562 23.252 406.514 22.272C407.494 21.292 408.278 20.382 408.866 19.542L409.79 18.03C409.51 17.386 409.202 16.952 408.866 16.728C408.558 16.476 408.292 16.35 408.068 16.35C407.704 16.35 407.158 16.686 406.43 17.358C405.73 18.03 404.974 18.926 404.162 20.046C403.35 21.166 402.58 22.398 401.852 23.742C401.572 24.302 401.32 24.848 401.096 25.38C400.9 25.884 400.802 26.136 400.802 26.136ZM427.368 29.916C427.172 30.028 426.906 29.986 426.57 29.79C426.262 29.594 425.954 29.3 425.646 28.908C425.45 28.572 425.31 28.208 425.226 27.816C425.17 27.424 425.142 26.878 425.142 26.178C425.17 25.618 425.142 25.254 425.058 25.086C425.002 24.918 424.848 24.946 424.596 25.17C424.344 25.366 423.91 25.772 423.294 26.388C422.594 27.088 421.922 27.634 421.278 28.026C420.662 28.418 420.158 28.6 419.766 28.572C419.57 28.572 419.346 28.474 419.094 28.278C418.87 28.054 418.66 27.788 418.464 27.48C418.268 27.144 418.1 26.808 417.96 26.472C417.792 25.856 417.764 25.072 417.876 24.12C418.016 23.14 418.24 22.118 418.548 21.054C418.856 19.99 419.206 18.982 419.598 18.03C420.018 17.078 420.438 16.308 420.858 15.72C421.306 15.132 421.698 14.838 422.034 14.838C422.258 14.838 422.454 14.95 422.622 15.174C422.818 15.398 423.014 15.748 423.21 16.224C423.322 16.42 423.364 16.588 423.336 16.728C423.336 16.868 423.224 17.036 423 17.232C422.748 17.568 422.454 18.072 422.118 18.744C421.81 19.416 421.502 20.144 421.194 20.928C420.914 21.712 420.662 22.468 420.438 23.196C420.214 23.924 420.06 24.526 419.976 25.002C419.892 25.45 419.906 25.674 420.018 25.674C420.41 25.674 420.872 25.52 421.404 25.212C421.964 24.876 422.496 24.47 423 23.994C423.588 23.406 424.106 22.762 424.554 22.062C425.03 21.362 425.506 20.62 425.982 19.836C426.346 19.276 426.724 18.66 427.116 17.988C427.536 17.316 427.802 16.84 427.914 16.56C428.306 15.832 428.6 15.342 428.796 15.09C428.992 14.81 429.23 14.628 429.51 14.544C429.65 14.544 429.776 14.544 429.888 14.544C430.028 14.544 430.098 14.544 430.098 14.544C430.266 14.572 430.462 14.698 430.686 14.922C430.91 15.034 431.036 15.146 431.064 15.258C431.092 15.342 431.106 15.454 431.106 15.594C430.994 15.874 430.812 16.294 430.56 16.854C430.336 17.386 430.168 17.778 430.056 18.03C429.524 19.234 428.992 20.424 428.46 21.6C427.956 22.748 427.592 23.924 427.368 25.128C427.312 25.52 427.298 25.982 427.326 26.514C427.382 27.018 427.466 27.382 427.578 27.606C427.662 27.774 427.76 27.97 427.872 28.194C428.012 28.39 428.166 28.558 428.334 28.698C428.586 28.866 428.628 29.048 428.46 29.244C428.32 29.44 428.124 29.608 427.872 29.748C427.62 29.86 427.452 29.916 427.368 29.916ZM426.822 12.486C425.954 12.598 425.226 12.346 424.638 11.73C424.05 11.114 423.602 10.204 423.294 9C423.238 8.776 423.21 8.58 423.21 8.412C423.238 8.216 423.294 8.048 423.378 7.908C423.434 7.796 423.546 7.712 423.714 7.656C423.882 7.572 424.022 7.558 424.134 7.614C424.526 7.754 424.806 7.936 424.974 8.16C425.17 8.356 425.296 8.608 425.352 8.916C425.408 9.056 425.436 9.196 425.436 9.336C425.464 9.476 425.478 9.532 425.478 9.504C425.618 9.952 425.8 10.26 426.024 10.428C426.248 10.596 426.584 10.582 427.032 10.386C427.508 10.19 427.97 9.966 428.418 9.714C428.894 9.462 429.314 9.154 429.678 8.79C429.986 8.482 430.28 8.202 430.56 7.95C430.868 7.698 431.162 7.432 431.442 7.152L431.484 7.11C431.596 7.026 431.736 6.998 431.904 7.026C432.072 7.054 432.17 7.096 432.198 7.152C432.394 7.348 432.492 7.544 432.492 7.74C432.492 7.936 432.492 8.146 432.492 8.37L432.45 8.454C432.506 8.622 432.366 8.944 432.03 9.42C431.722 9.896 431.344 10.302 430.896 10.638C430.504 10.946 430.084 11.226 429.636 11.478C429.188 11.73 428.726 11.968 428.25 12.192C428.054 12.304 427.844 12.374 427.62 12.402C427.424 12.402 427.158 12.43 426.822 12.486ZM442.236 29.454C441.284 29.706 440.612 29.832 440.22 29.832C439.828 29.832 439.408 29.636 438.96 29.244C438.82 29.104 438.736 28.964 438.708 28.824C438.68 28.656 438.61 28.558 438.498 28.53C438.47 28.334 438.484 28.18 438.54 28.068C438.624 27.928 438.806 27.802 439.086 27.69C439.506 27.942 440.038 28.012 440.682 27.9C441.326 27.788 441.956 27.55 442.572 27.186C443.216 26.794 443.72 26.332 444.084 25.8C444.644 25.128 445.078 24.498 445.386 23.91C445.694 23.294 445.862 22.748 445.89 22.272C445.89 21.992 445.848 21.796 445.764 21.684C445.708 21.544 445.568 21.334 445.344 21.054C444.84 21.222 444.378 21.418 443.958 21.642C443.566 21.866 443.244 22.104 442.992 22.356C442.152 23.056 441.494 23.63 441.018 24.078C440.57 24.526 440.178 24.974 439.842 25.422C439.534 25.87 439.142 26.472 438.666 27.228C438.442 27.508 438.232 27.718 438.036 27.858C437.868 27.998 437.686 28.068 437.49 28.068C437.574 28.628 437.378 28.964 436.902 29.076C436.286 28.936 435.838 28.754 435.558 28.53C435.278 28.278 435.194 27.802 435.306 27.102C435.418 26.71 435.53 26.248 435.642 25.716C435.754 25.156 435.88 24.694 436.02 24.33C436.692 22.538 437.28 20.942 437.784 19.542C438.316 18.142 438.778 17.148 439.17 16.56L440.094 14.166C440.57 14.194 440.934 14.292 441.186 14.46C441.438 14.6 441.732 14.95 442.068 15.51C442.068 15.65 441.928 16.056 441.648 16.728C441.396 17.372 441.088 18.114 440.724 18.954C440.388 19.794 440.066 20.578 439.758 21.306C439.478 22.006 439.282 22.496 439.17 22.776C439.058 23.084 439.142 23.028 439.422 22.608C439.73 22.188 440.262 21.656 441.018 21.012C441.382 20.648 441.83 20.312 442.362 20.004C442.894 19.668 443.342 19.416 443.706 19.248C444.098 19.08 444.42 18.982 444.672 18.954C444.924 18.926 445.106 18.898 445.218 18.87C445.918 18.87 446.478 19.052 446.898 19.416C447.318 19.752 447.612 20.144 447.78 20.592C447.976 21.04 448.074 21.404 448.074 21.684C448.158 22.132 448.214 22.566 448.242 22.986C448.298 23.378 448.27 23.798 448.158 24.246C448.074 24.47 447.92 24.778 447.696 25.17C447.472 25.562 447.206 25.968 446.898 26.388C446.618 26.78 446.282 27.102 445.89 27.354C445.638 27.606 445.302 27.872 444.882 28.152C444.462 28.432 444.014 28.698 443.538 28.95C443.09 29.174 442.656 29.342 442.236 29.454ZM450.972 30.126C450.468 30.07 450.048 29.916 449.712 29.664C449.404 29.384 449.18 28.978 449.04 28.446C449.04 27.97 449.096 27.536 449.208 27.144C449.348 26.724 449.46 26.318 449.544 25.926C449.684 25.282 449.88 24.638 450.132 23.994C450.384 23.35 450.608 22.706 450.804 22.062C450.972 21.67 451.112 21.292 451.224 20.928C451.336 20.564 451.448 20.2 451.56 19.836C451.7 19.388 451.84 18.954 451.98 18.534C452.12 18.114 452.26 17.694 452.4 17.274C452.512 16.91 452.596 16.532 452.652 16.14C452.736 15.748 452.806 15.356 452.862 14.964C453.17 14.628 453.506 14.488 453.87 14.544C454.262 14.6 454.738 14.922 455.298 15.51C455.438 15.846 455.508 16.154 455.508 16.434C455.508 16.686 455.438 16.952 455.298 17.232C455.186 17.484 455.032 17.862 454.836 18.366C454.668 18.87 454.486 19.374 454.29 19.878C454.122 20.354 453.996 20.718 453.912 20.97C453.856 21.278 453.702 21.782 453.45 22.482C453.226 23.182 452.988 23.91 452.736 24.666C452.484 25.394 452.302 25.982 452.19 26.43C452.022 26.85 451.896 27.256 451.812 27.648C451.728 28.04 451.644 28.53 451.56 29.118C451.616 29.37 451.574 29.58 451.434 29.748C451.322 29.888 451.168 30.014 450.972 30.126ZM455.395 39.408C455.283 39.408 455.143 39.408 454.975 39.408C454.807 39.436 454.653 39.324 454.513 39.072C454.401 38.932 454.331 38.722 454.303 38.442C454.303 38.162 454.373 37.658 454.513 36.93C454.653 36.454 454.765 35.978 454.849 35.502C454.933 35.054 454.975 34.718 454.975 34.494C454.975 34.382 455.003 34.158 455.059 33.822C455.143 33.514 455.185 33.29 455.185 33.15C455.325 32.926 455.437 32.618 455.521 32.226C455.605 31.834 455.647 31.484 455.647 31.176C455.647 30.84 455.815 30.532 456.151 30.252C456.151 30.028 456.193 29.748 456.277 29.412C456.389 29.076 456.445 28.852 456.445 28.74C456.529 28.348 456.711 27.662 456.991 26.682C457.299 25.674 457.663 24.54 458.083 23.28C458.531 22.02 458.965 20.788 459.385 19.584C459.805 18.38 460.183 17.358 460.519 16.518C460.855 15.734 461.079 15.062 461.191 14.502C461.331 13.914 461.401 13.48 461.401 13.2C461.401 13.088 461.429 13.004 461.485 12.948C461.541 12.864 461.667 12.71 461.863 12.486C462.143 12.206 462.381 12.122 462.577 12.234C462.801 12.346 463.067 12.514 463.375 12.738C463.599 13.102 463.753 13.41 463.837 13.662C463.949 13.914 463.949 14.348 463.837 14.964C463.837 15.384 463.767 15.748 463.627 16.056C463.487 16.364 463.361 16.602 463.249 16.77C463.137 16.91 463.109 16.966 463.165 16.938C464.313 16.406 465.321 16.126 466.189 16.098C467.085 16.042 467.827 16.196 468.415 16.56C469.031 16.896 469.493 17.372 469.801 17.988C470.109 18.604 470.263 19.318 470.263 20.13C470.263 20.466 470.193 20.872 470.053 21.348C469.913 21.796 469.731 22.216 469.507 22.608C469.311 22.972 469.129 23.238 468.961 23.406C468.849 23.406 468.737 23.504 468.625 23.7C468.513 23.868 468.401 24.064 468.289 24.288C468.065 24.568 467.701 24.89 467.197 25.254C466.721 25.59 466.245 25.87 465.769 26.094C465.293 26.29 464.943 26.346 464.719 26.262C464.719 26.262 464.677 26.276 464.593 26.304C464.537 26.304 464.509 26.374 464.509 26.514C464.509 26.57 464.285 26.696 463.837 26.892C463.389 27.06 462.871 27.228 462.283 27.396C461.695 27.536 461.177 27.606 460.729 27.606C460.141 27.606 459.721 27.494 459.469 27.27C459.413 27.326 459.343 27.41 459.259 27.522C459.203 27.634 459.175 27.732 459.175 27.816C459.175 27.984 459.105 28.306 458.965 28.782C458.853 29.23 458.713 29.664 458.545 30.084C458.377 30.504 458.223 30.714 458.083 30.714C458.083 30.714 458.055 30.756 457.999 30.84C457.943 30.924 457.971 31.036 458.083 31.176C458.083 31.176 458.069 31.33 458.041 31.638C458.041 31.974 457.971 32.254 457.831 32.478C457.831 32.702 457.789 33.038 457.705 33.486C457.621 33.934 457.523 34.27 457.411 34.494C457.411 34.83 457.355 35.152 457.243 35.46C457.159 35.796 457.061 35.964 456.949 35.964C456.837 35.992 456.767 36.16 456.739 36.468C456.711 36.804 456.697 37.042 456.697 37.182C456.669 37.882 456.529 38.428 456.277 38.82C456.025 39.212 455.731 39.408 455.395 39.408ZM460.477 25.38C460.701 25.38 461.163 25.282 461.863 25.086C462.563 24.89 463.277 24.652 464.005 24.372C464.761 24.064 465.321 23.756 465.685 23.448C466.413 22.804 466.973 22.076 467.365 21.264C467.785 20.424 467.757 19.626 467.281 18.87C467.057 18.478 466.651 18.324 466.063 18.408C465.475 18.464 464.831 18.688 464.131 19.08C463.431 19.472 462.773 19.962 462.157 20.55C461.821 20.914 461.513 21.362 461.233 21.894C460.953 22.426 460.715 22.958 460.519 23.49C460.351 24.022 460.253 24.47 460.225 24.834C460.197 25.198 460.281 25.38 460.477 25.38Z" fill="#020202"/>
</svg>
