<svg width="519" height="40" viewBox="0 0 519 40" fill="none" xmlns="http://www.w3.org/2000/svg">
<path d="M2.0427 31.848C1.8187 31.848 1.5667 31.666 1.2867 31.302C1.0067 30.938 0.880696 30.588 0.908696 30.252C0.936696 29.804 1.0627 29.16 1.2867 28.32C1.5107 27.48 1.7627 26.626 2.0427 25.758C2.3227 24.89 2.5747 24.204 2.7987 23.7C2.9107 23.252 3.0087 22.86 3.0927 22.524C3.2047 22.16 3.2747 21.922 3.3027 21.81C3.3867 21.698 3.5127 21.404 3.6807 20.928C3.8767 20.452 4.0307 19.99 4.1427 19.542C4.1987 19.318 4.3107 18.898 4.4787 18.282C4.6747 17.638 4.8987 16.896 5.1507 16.056C5.4307 15.216 5.6967 14.39 5.9487 13.578C6.2287 12.766 6.4667 12.052 6.6627 11.436C6.8587 10.82 6.9847 10.414 7.0407 10.218C7.2647 9.882 7.4327 9.56 7.5447 9.252C7.6567 8.944 7.7267 8.734 7.7547 8.622C7.9227 8.51 8.0207 8.37 8.0487 8.202C8.0767 8.006 8.0907 7.852 8.0907 7.74C8.0907 7.6 8.1327 7.488 8.2167 7.404C8.3287 7.32 8.3847 7.222 8.3847 7.11C8.4967 7.026 8.5667 6.9 8.5947 6.732C8.6227 6.536 8.7067 6.368 8.8467 6.228L9.0567 5.514L11.5347 5.472C11.4787 5.808 11.3947 6.228 11.2827 6.732C11.1707 7.208 10.9047 7.852 10.4847 8.664C10.3447 9.224 10.1767 9.728 9.9807 10.176C9.8127 10.624 9.7427 10.918 9.7707 11.058C9.7147 11.114 9.5887 11.394 9.3927 11.898C9.2247 12.402 9.0147 13.018 8.7627 13.746C8.5387 14.474 8.3007 15.202 8.0487 15.93C7.8247 16.658 7.6147 17.302 7.4187 17.862C7.2507 18.394 7.1387 18.73 7.0827 18.87C6.8587 19.318 6.6067 19.976 6.3267 20.844C6.0467 21.712 5.6267 22.888 5.0667 24.372C4.8427 24.82 4.5627 25.492 4.2267 26.388C3.9187 27.284 3.6667 28.096 3.4707 28.824C3.1627 29.916 2.9387 30.672 2.7987 31.092C2.6867 31.54 2.5887 31.778 2.5047 31.806C2.4207 31.862 2.2667 31.876 2.0427 31.848ZM2.3787 6.816C1.5947 6.844 1.0067 6.802 0.614696 6.69C0.250696 6.578 0.124696 6.298 0.236696 5.85C0.320696 5.514 0.502696 5.262 0.782695 5.094C1.0627 4.926 1.4687 4.8 2.0007 4.716C2.3087 4.66 2.7007 4.59 3.1767 4.506C3.6807 4.422 4.1567 4.338 4.6047 4.254C5.5287 4.142 6.2847 4.044 6.8727 3.96C7.4887 3.876 8.1187 3.806 8.7627 3.75C9.4067 3.694 10.2187 3.638 11.1987 3.582C12.0107 3.526 12.6967 3.484 13.2567 3.456C13.8447 3.4 14.1387 3.372 14.1387 3.372C14.2227 3.372 14.5167 3.4 15.0207 3.456C15.5247 3.512 16.0707 3.582 16.6587 3.666C17.2467 3.75 17.6807 3.848 17.9607 3.96C18.6047 4.1 19.0667 4.296 19.3467 4.548C19.6547 4.8 19.8647 5.164 19.9767 5.64C20.0607 5.976 20.0607 6.186 19.9767 6.27C19.8927 6.326 19.7387 6.41 19.5147 6.522C18.8707 6.718 18.3947 6.816 18.0867 6.816C17.7787 6.816 17.4287 6.746 17.0367 6.606C16.8967 6.466 16.7287 6.34 16.5327 6.228C16.3647 6.116 16.0567 6.032 15.6087 5.976C15.1887 5.892 14.5167 5.822 13.5927 5.766C12.8087 5.85 12.1227 5.892 11.5347 5.892C10.9467 5.892 10.6527 5.962 10.6527 6.102L8.1747 6.228L6.1167 6.438C5.8367 6.466 5.4447 6.508 4.9407 6.564C4.4367 6.592 3.9467 6.634 3.4707 6.69C2.9947 6.718 2.6307 6.76 2.3787 6.816ZM14.7123 29.37C14.3483 29.37 14.0543 29.3 13.8303 29.16C13.6343 29.02 13.3823 28.824 13.0743 28.572C12.5423 28.012 12.1643 27.48 11.9403 26.976C11.7163 26.444 11.6463 25.94 11.7303 25.464C11.8143 25.24 11.8423 25.03 11.8143 24.834C11.8143 24.61 11.8143 24.498 11.8143 24.498C11.6743 24.358 11.6323 24.274 11.6883 24.246C11.7443 24.19 11.8003 24.106 11.8563 23.994C12.0243 23.994 12.0803 23.84 12.0243 23.532C11.9683 23.308 12.0803 22.818 12.3603 22.062C12.6403 21.306 12.9903 20.592 13.4103 19.92C13.5783 19.64 13.8303 19.276 14.1663 18.828C14.5023 18.352 14.8663 17.89 15.2583 17.442C15.6783 16.966 16.0563 16.588 16.3923 16.308C17.0923 15.72 17.7083 15.286 18.2403 15.006C18.7723 14.726 19.3463 14.516 19.9623 14.376C20.5783 14.236 20.9983 14.166 21.2223 14.166C21.4743 14.166 21.8103 14.39 22.2303 14.838C22.8743 15.118 23.3363 15.454 23.6163 15.846C23.9243 16.238 24.1203 16.812 24.2043 17.568C24.2883 18.408 24.2183 19.374 23.9943 20.466C23.7983 21.53 23.1403 22.86 22.0203 24.456C21.3203 25.464 20.6763 26.22 20.0883 26.724C19.5003 27.2 18.8003 27.676 17.9883 28.152C17.4003 28.544 16.8683 28.838 16.3923 29.034C15.9163 29.202 15.3563 29.314 14.7123 29.37ZM18.7443 24.918C19.4163 24.162 19.9483 23.448 20.3403 22.776C20.7603 22.104 21.1523 21.25 21.5163 20.214C21.6283 19.906 21.6983 19.528 21.7263 19.08C21.7543 18.604 21.7403 18.17 21.6843 17.778C21.6563 17.358 21.5583 17.12 21.3903 17.064C21.0543 16.868 20.6483 16.812 20.1723 16.896C19.6963 16.952 19.1783 17.218 18.6183 17.694C17.7503 18.422 16.9943 19.332 16.3503 20.424C15.7063 21.488 15.0763 22.706 14.4603 24.078C14.0403 25.086 13.9423 25.898 14.1663 26.514C14.4183 27.102 14.9363 27.312 15.7203 27.144C16.5323 26.948 17.5403 26.206 18.7443 24.918ZM36.2487 29.916C36.0527 30.028 35.7867 29.986 35.4507 29.79C35.1427 29.594 34.8347 29.3 34.5267 28.908C34.3307 28.572 34.1907 28.208 34.1067 27.816C34.0507 27.424 34.0227 26.878 34.0227 26.178C34.0507 25.618 34.0227 25.254 33.9387 25.086C33.8827 24.918 33.7287 24.946 33.4767 25.17C33.2247 25.366 32.7907 25.772 32.1747 26.388C31.4747 27.088 30.8027 27.634 30.1587 28.026C29.5427 28.418 29.0387 28.6 28.6467 28.572C28.4507 28.572 28.2267 28.474 27.9747 28.278C27.7507 28.054 27.5407 27.788 27.3447 27.48C27.1487 27.144 26.9807 26.808 26.8407 26.472C26.6727 25.856 26.6447 25.072 26.7567 24.12C26.8967 23.14 27.1207 22.118 27.4287 21.054C27.7367 19.99 28.0867 18.982 28.4787 18.03C28.8987 17.078 29.3187 16.308 29.7387 15.72C30.1867 15.132 30.5787 14.838 30.9147 14.838C31.1387 14.838 31.3347 14.95 31.5027 15.174C31.6987 15.398 31.8947 15.748 32.0907 16.224C32.2027 16.42 32.2447 16.588 32.2167 16.728C32.2167 16.868 32.1047 17.036 31.8807 17.232C31.6287 17.568 31.3347 18.072 30.9987 18.744C30.6907 19.416 30.3827 20.144 30.0747 20.928C29.7947 21.712 29.5427 22.468 29.3187 23.196C29.0947 23.924 28.9407 24.526 28.8567 25.002C28.7727 25.45 28.7867 25.674 28.8987 25.674C29.2907 25.674 29.7527 25.52 30.2847 25.212C30.8447 24.876 31.3767 24.47 31.8807 23.994C32.4687 23.406 32.9867 22.762 33.4347 22.062C33.9107 21.362 34.3867 20.62 34.8627 19.836C35.2267 19.276 35.6047 18.66 35.9967 17.988C36.4167 17.316 36.6827 16.84 36.7947 16.56C37.1867 15.832 37.4807 15.342 37.6767 15.09C37.8727 14.81 38.1107 14.628 38.3907 14.544C38.5307 14.544 38.6567 14.544 38.7687 14.544C38.9087 14.544 38.9787 14.544 38.9787 14.544C39.1467 14.572 39.3427 14.698 39.5667 14.922C39.7907 15.034 39.9167 15.146 39.9447 15.258C39.9727 15.342 39.9867 15.454 39.9867 15.594C39.8747 15.874 39.6927 16.294 39.4407 16.854C39.2167 17.386 39.0487 17.778 38.9367 18.03C38.4047 19.234 37.8727 20.424 37.3407 21.6C36.8367 22.748 36.4727 23.924 36.2487 25.128C36.1927 25.52 36.1787 25.982 36.2067 26.514C36.2627 27.018 36.3467 27.382 36.4587 27.606C36.5427 27.774 36.6407 27.97 36.7527 28.194C36.8927 28.39 37.0467 28.558 37.2147 28.698C37.4667 28.866 37.5087 29.048 37.3407 29.244C37.2007 29.44 37.0047 29.608 36.7527 29.748C36.5007 29.86 36.3327 29.916 36.2487 29.916ZM35.7027 12.486C34.8347 12.598 34.1067 12.346 33.5187 11.73C32.9307 11.114 32.4827 10.204 32.1747 9C32.1187 8.776 32.0907 8.58 32.0907 8.412C32.1187 8.216 32.1747 8.048 32.2587 7.908C32.3147 7.796 32.4267 7.712 32.5947 7.656C32.7627 7.572 32.9027 7.558 33.0147 7.614C33.4067 7.754 33.6867 7.936 33.8547 8.16C34.0507 8.356 34.1767 8.608 34.2327 8.916C34.2887 9.056 34.3167 9.196 34.3167 9.336C34.3447 9.476 34.3587 9.532 34.3587 9.504C34.4987 9.952 34.6807 10.26 34.9047 10.428C35.1287 10.596 35.4647 10.582 35.9127 10.386C36.3887 10.19 36.8507 9.966 37.2987 9.714C37.7747 9.462 38.1947 9.154 38.5587 8.79C38.8667 8.482 39.1607 8.202 39.4407 7.95C39.7487 7.698 40.0427 7.432 40.3227 7.152L40.3647 7.11C40.4767 7.026 40.6167 6.998 40.7847 7.026C40.9527 7.054 41.0507 7.096 41.0787 7.152C41.2747 7.348 41.3727 7.544 41.3727 7.74C41.3727 7.936 41.3727 8.146 41.3727 8.37L41.3307 8.454C41.3867 8.622 41.2467 8.944 40.9107 9.42C40.6027 9.896 40.2247 10.302 39.7767 10.638C39.3847 10.946 38.9647 11.226 38.5167 11.478C38.0687 11.73 37.6067 11.968 37.1307 12.192C36.9347 12.304 36.7247 12.374 36.5007 12.402C36.3047 12.402 36.0387 12.43 35.7027 12.486ZM53.9803 29.958C53.1403 29.986 52.5243 29.818 52.1323 29.454C51.7403 29.062 51.5863 28.53 51.6703 27.858C51.8663 27.662 52.0623 27.536 52.2583 27.48C52.4543 27.424 52.7343 27.466 53.0983 27.606C53.4063 27.718 53.7143 27.774 54.0223 27.774C54.3303 27.774 54.6383 27.718 54.9463 27.606C55.0863 27.522 55.2403 27.494 55.4083 27.522C55.6043 27.522 55.8003 27.494 55.9963 27.438C56.3883 27.298 56.8643 27.088 57.4243 26.808C58.0123 26.528 58.6003 26.206 59.1883 25.842C59.7763 25.45 60.2523 25.044 60.6163 24.624C60.6723 24.568 60.7563 24.4 60.8683 24.12C60.9803 23.812 61.0223 23.602 60.9943 23.49C60.7143 23.49 60.2663 23.546 59.6503 23.658C59.0623 23.742 58.6283 23.812 58.3483 23.868C57.7603 23.952 57.3123 23.882 57.0043 23.658C56.6963 23.434 56.4303 23.056 56.2063 22.524C56.1223 22.3 56.1503 22.118 56.2903 21.978C56.4303 21.81 56.5703 21.586 56.7103 21.306C56.9063 21.278 57.0883 21.264 57.2563 21.264C57.4523 21.236 57.6343 21.278 57.8023 21.39C57.9703 21.502 58.1103 21.502 58.2223 21.39C58.3623 21.278 58.5163 21.264 58.6843 21.348C58.8523 21.404 59.0763 21.418 59.3563 21.39C59.6363 21.362 60.2383 21.32 61.1623 21.264C61.3023 21.264 61.4283 21.25 61.5403 21.222C61.6803 21.166 61.7783 21.054 61.8343 20.886C61.9463 20.578 62.0023 20.256 62.0023 19.92C62.0023 19.556 61.9743 19.024 61.9183 18.324C61.7503 17.848 61.5963 17.54 61.4563 17.4C61.3163 17.232 61.1343 17.078 60.9103 16.938C60.0423 16.854 59.3563 16.896 58.8523 17.064C58.3483 17.204 58.0123 17.4 57.8443 17.652C57.3963 17.988 56.9343 18.184 56.4583 18.24C56.0103 18.296 55.7583 18.198 55.7023 17.946C55.7023 17.806 55.6603 17.582 55.5763 17.274C55.5203 16.966 55.4923 16.686 55.4923 16.434C55.4923 16.154 55.5623 16.014 55.7023 16.014C56.0943 15.538 56.3743 15.174 56.5423 14.922C56.7103 14.642 57.1163 14.474 57.7603 14.418C58.5723 14.25 59.2723 14.194 59.8603 14.25C60.4483 14.278 61.0083 14.404 61.5403 14.628C61.8483 14.712 62.2263 14.936 62.6743 15.3C63.1223 15.664 63.4023 16.014 63.5143 16.35C63.6543 16.462 63.8223 16.728 64.0183 17.148C64.2423 17.54 64.4663 18.282 64.6903 19.374C64.5503 20.41 64.3683 21.334 64.1443 22.146C63.9483 22.958 63.6823 23.728 63.3463 24.456C63.0103 25.212 62.7023 25.772 62.4223 26.136C62.1423 26.472 61.8063 26.836 61.4143 27.228C60.2383 27.956 59.3843 28.502 58.8523 28.866C58.3203 29.23 57.9003 29.468 57.5923 29.58C57.2843 29.692 56.8643 29.748 56.3323 29.748C55.9683 29.916 55.5763 30 55.1563 30C54.7643 29.972 54.3723 29.958 53.9803 29.958ZM66.9002 29.958C66.0602 29.986 65.4442 29.818 65.0522 29.454C64.6602 29.062 64.5062 28.53 64.5902 27.858C64.7862 27.662 64.9822 27.536 65.1782 27.48C65.3742 27.424 65.6542 27.466 66.0182 27.606C66.3262 27.718 66.6342 27.774 66.9422 27.774C67.2502 27.774 67.5582 27.718 67.8662 27.606C68.0062 27.522 68.1602 27.494 68.3282 27.522C68.5242 27.522 68.7202 27.494 68.9162 27.438C69.3082 27.298 69.7842 27.088 70.3442 26.808C70.9322 26.528 71.5202 26.206 72.1082 25.842C72.6962 25.45 73.1722 25.044 73.5362 24.624C73.5922 24.568 73.6762 24.4 73.7882 24.12C73.9002 23.812 73.9422 23.602 73.9142 23.49C73.6342 23.49 73.1862 23.546 72.5702 23.658C71.9822 23.742 71.5482 23.812 71.2682 23.868C70.6802 23.952 70.2322 23.882 69.9242 23.658C69.6162 23.434 69.3502 23.056 69.1262 22.524C69.0422 22.3 69.0702 22.118 69.2102 21.978C69.3502 21.81 69.4902 21.586 69.6302 21.306C69.8262 21.278 70.0082 21.264 70.1762 21.264C70.3722 21.236 70.5542 21.278 70.7222 21.39C70.8902 21.502 71.0302 21.502 71.1422 21.39C71.2822 21.278 71.4362 21.264 71.6042 21.348C71.7722 21.404 71.9962 21.418 72.2762 21.39C72.5562 21.362 73.1582 21.32 74.0822 21.264C74.2222 21.264 74.3482 21.25 74.4602 21.222C74.6002 21.166 74.6982 21.054 74.7542 20.886C74.8662 20.578 74.9222 20.256 74.9222 19.92C74.9222 19.556 74.8942 19.024 74.8382 18.324C74.6702 17.848 74.5162 17.54 74.3762 17.4C74.2362 17.232 74.0542 17.078 73.8302 16.938C72.9622 16.854 72.2762 16.896 71.7722 17.064C71.2682 17.204 70.9322 17.4 70.7642 17.652C70.3162 17.988 69.8542 18.184 69.3782 18.24C68.9302 18.296 68.6782 18.198 68.6222 17.946C68.6222 17.806 68.5802 17.582 68.4962 17.274C68.4402 16.966 68.4122 16.686 68.4122 16.434C68.4122 16.154 68.4822 16.014 68.6222 16.014C69.0142 15.538 69.2942 15.174 69.4622 14.922C69.6302 14.642 70.0362 14.474 70.6802 14.418C71.4922 14.25 72.1922 14.194 72.7802 14.25C73.3682 14.278 73.9282 14.404 74.4602 14.628C74.7682 14.712 75.1462 14.936 75.5942 15.3C76.0422 15.664 76.3222 16.014 76.4342 16.35C76.5742 16.462 76.7422 16.728 76.9382 17.148C77.1622 17.54 77.3862 18.282 77.6102 19.374C77.4702 20.41 77.2882 21.334 77.0642 22.146C76.8682 22.958 76.6022 23.728 76.2662 24.456C75.9302 25.212 75.6222 25.772 75.3422 26.136C75.0622 26.472 74.7262 26.836 74.3342 27.228C73.1582 27.956 72.3042 28.502 71.7722 28.866C71.2402 29.23 70.8202 29.468 70.5122 29.58C70.2042 29.692 69.7842 29.748 69.2522 29.748C68.8882 29.916 68.4962 30 68.0762 30C67.6842 29.972 67.2922 29.958 66.9002 29.958ZM77.9301 29.832C77.8181 29.776 77.6641 29.664 77.4681 29.496C77.3001 29.328 77.1461 29.16 77.0061 28.992C76.9221 28.908 76.8521 28.838 76.7961 28.782C76.7401 28.698 76.6841 28.642 76.6281 28.614C76.6281 28.418 76.6701 28.278 76.7541 28.194C76.8661 28.11 76.9781 28.012 77.0901 27.9C77.2021 27.732 77.3841 27.648 77.6361 27.648C77.8881 27.648 78.0841 27.578 78.2241 27.438C78.7281 27.074 79.2461 26.696 79.7781 26.304C80.3101 25.912 80.7581 25.45 81.1221 24.918C81.5141 24.358 81.9061 23.756 82.2981 23.112C82.6901 22.468 83.0681 21.838 83.4321 21.222C83.5441 21.026 83.7261 20.676 83.9781 20.172C84.2301 19.668 84.4681 19.178 84.6921 18.702C84.9441 18.198 85.0841 17.848 85.1121 17.652C84.8601 17.568 84.6221 17.498 84.3981 17.442C84.2021 17.358 84.0061 17.288 83.8101 17.232C83.5581 16.84 83.4181 16.616 83.3901 16.56C83.3621 16.476 83.3481 16.21 83.3481 15.762C83.3481 15.426 83.5301 15.216 83.8941 15.132C84.7061 14.936 85.4201 14.81 86.0361 14.754C86.6801 14.698 87.3101 14.586 87.9261 14.418C88.3181 14.306 88.7941 14.264 89.3541 14.292C89.9141 14.32 90.4741 14.446 91.0341 14.67C91.2861 14.782 91.4961 14.922 91.6641 15.09C91.8321 15.258 91.9861 15.454 92.1261 15.678C92.4901 16.182 92.6721 16.616 92.6721 16.98C92.7001 17.344 92.6861 17.694 92.6301 18.03C92.5741 18.366 92.6161 18.744 92.7561 19.164C92.5601 19.92 92.3641 20.592 92.1681 21.18C91.9721 21.74 91.7901 22.272 91.6221 22.776C91.4541 23.252 91.3001 23.7 91.1601 24.12C91.0201 24.54 90.9081 24.96 90.8241 25.38C90.7121 25.828 90.5721 26.276 90.4041 26.724C90.2361 27.172 90.1101 27.634 90.0261 28.11C89.9701 28.474 89.8021 28.74 89.5221 28.908C89.2701 29.076 88.9901 29.23 88.6821 29.37C88.5701 29.398 88.3741 29.37 88.0941 29.286C87.8421 29.174 87.6041 29.02 87.3801 28.824C87.2961 28.516 87.2681 28.236 87.2961 27.984C87.3241 27.732 87.3801 27.48 87.4641 27.228C87.5481 27.004 87.7021 26.5 87.9261 25.716C88.1501 24.932 88.4021 24.05 88.6821 23.07C88.9621 22.09 89.2281 21.18 89.4801 20.34C89.7321 19.5 89.9001 18.912 89.9841 18.576C90.1241 18.128 90.1661 17.792 90.1101 17.568C90.0821 17.344 90.0401 17.134 89.9841 16.938C89.3961 16.714 88.9901 16.644 88.7661 16.728C88.5701 16.784 88.3181 16.84 88.0101 16.896C87.8701 17.008 87.7581 17.134 87.6741 17.274C87.5901 17.414 87.5341 17.554 87.5061 17.694C87.1981 18.506 86.9321 19.15 86.7081 19.626C86.5121 20.102 86.3161 20.536 86.1201 20.928C85.9241 21.292 85.7001 21.698 85.4481 22.146C85.2241 22.594 84.9301 23.21 84.5661 23.994C84.3421 24.498 84.0621 24.96 83.7261 25.38C83.4181 25.8 83.1381 26.248 82.8861 26.724L82.4241 27.312C82.4521 27.312 82.3401 27.424 82.0881 27.648C81.8361 27.872 81.5841 28.096 81.3321 28.32C81.1081 28.544 80.9961 28.656 80.9961 28.656L79.6941 29.664C79.5541 29.776 79.3161 29.832 78.9801 29.832C78.6441 29.832 78.2941 29.832 77.9301 29.832ZM101.976 28.53C101.388 29.034 100.702 29.328 99.9178 29.412C99.1618 29.496 98.4198 29.384 97.6918 29.076C96.9638 28.74 96.3618 28.236 95.8858 27.564C95.4098 26.948 95.1018 26.248 94.9618 25.464C94.8218 24.652 94.8078 23.602 94.9198 22.314C95.0038 21.222 95.3538 20.13 95.9698 19.038C96.5858 17.918 97.3278 16.924 98.1958 16.056C99.0918 15.188 99.9738 14.586 100.842 14.25C101.262 13.97 101.612 13.844 101.892 13.872C102.2 13.872 102.662 13.9 103.278 13.956C103.922 14.04 104.398 14.166 104.706 14.334C105.042 14.502 105.308 14.726 105.504 15.006C105.924 15.426 106.204 15.846 106.344 16.266C106.484 16.658 106.554 17.05 106.554 17.442C106.442 18.058 106.022 18.814 105.294 19.71C104.594 20.578 103.67 21.292 102.522 21.852C101.906 22.048 101.234 22.132 100.506 22.104C99.7778 22.076 99.1758 21.894 98.6998 21.558C98.1678 21.334 97.8178 21.376 97.6498 21.684C97.4818 21.964 97.3278 22.664 97.1878 23.784C97.0758 24.848 97.1598 25.632 97.4398 26.136C97.7198 26.612 98.0978 26.892 98.5738 26.976C99.1338 27.088 99.5678 27.172 99.8758 27.228C100.212 27.256 100.618 27.13 101.094 26.85C101.542 26.57 101.822 26.416 101.934 26.388C102.046 26.332 102.13 26.276 102.186 26.22C102.27 26.136 102.452 25.954 102.732 25.674C102.928 25.478 103.082 25.338 103.194 25.254C103.306 25.142 103.432 25.086 103.572 25.086C103.712 25.086 103.838 25.156 103.95 25.296C104.062 25.408 104.174 25.492 104.286 25.548C104.566 25.548 104.622 25.716 104.454 26.052C104.314 26.388 104.02 26.794 103.572 27.27C103.124 27.718 102.592 28.138 101.976 28.53ZM101.934 19.626C102.242 19.486 102.564 19.29 102.9 19.038C103.236 18.758 103.516 18.464 103.74 18.156C103.992 17.82 104.118 17.54 104.118 17.316C104.118 16.924 103.936 16.602 103.572 16.35C103.208 16.07 102.662 16.028 101.934 16.224C101.626 16.308 101.276 16.518 100.884 16.854C100.492 17.162 100.114 17.512 99.7498 17.904C99.4138 18.296 99.1338 18.646 98.9098 18.954C98.7138 19.262 98.6438 19.444 98.6998 19.5C98.7838 19.64 99.0218 19.752 99.4138 19.836C99.8058 19.892 100.24 19.906 100.716 19.878C101.22 19.85 101.626 19.766 101.934 19.626ZM108.41 37.35C108.074 37.574 107.724 37.56 107.36 37.308C107.024 37.056 106.772 36.678 106.604 36.174C106.436 35.67 106.45 35.138 106.646 34.578C106.702 34.41 106.786 34.13 106.898 33.738C107.01 33.374 107.08 33.052 107.108 32.772C107.136 32.576 107.22 32.24 107.36 31.764C107.5 31.316 107.654 30.868 107.822 30.42C108.018 29.972 108.172 29.65 108.284 29.454C108.452 29.174 108.564 28.852 108.62 28.488C108.704 28.124 108.746 27.844 108.746 27.648C108.802 27.452 108.872 27.228 108.956 26.976C109.068 26.724 109.18 26.528 109.292 26.388C109.348 26.164 109.432 25.926 109.544 25.674C109.656 25.394 109.782 25.156 109.922 24.96C109.978 24.764 110.02 24.526 110.048 24.246C110.104 23.966 110.188 23.812 110.3 23.784C110.328 23.672 110.342 23.56 110.342 23.448C110.37 23.336 110.426 23.182 110.51 22.986C110.566 22.678 110.692 22.23 110.888 21.642C111.084 21.054 111.322 20.41 111.602 19.71C111.91 18.898 112.05 18.128 112.022 17.4C112.022 16.644 111.812 16.182 111.392 16.014C111.168 15.902 111.028 15.748 110.972 15.552C110.916 15.328 110.944 15.104 111.056 14.88C111.168 14.656 111.336 14.502 111.56 14.418C111.812 14.306 112.078 14.264 112.358 14.292C112.666 14.32 112.932 14.376 113.156 14.46C113.38 14.516 113.478 14.572 113.45 14.628C113.45 14.768 113.52 14.852 113.66 14.88C113.716 14.796 113.828 14.894 113.996 15.174C114.192 15.426 114.374 15.72 114.542 16.056C114.71 16.392 114.794 16.63 114.794 16.77C114.738 16.882 114.71 16.952 114.71 16.98C114.71 16.98 114.766 16.98 114.878 16.98C114.878 16.98 115.032 16.91 115.34 16.77C115.648 16.602 115.97 16.42 116.306 16.224C116.67 16 116.908 15.832 117.02 15.72C117.02 15.72 117.09 15.692 117.23 15.636C117.398 15.552 117.538 15.454 117.65 15.342C118.21 15.118 118.812 15.076 119.456 15.216C120.128 15.356 120.66 15.608 121.052 15.972C121.612 16.672 121.892 17.344 121.892 17.988C121.92 18.632 121.738 19.444 121.346 20.424C121.29 20.564 121.164 20.802 120.968 21.138C120.8 21.446 120.632 21.74 120.464 22.02C120.296 22.272 120.212 22.398 120.212 22.398C119.568 23.406 118.812 24.246 117.944 24.918C117.076 25.59 116.194 26.178 115.298 26.682C115.018 26.878 114.724 27.032 114.416 27.144C114.136 27.228 113.884 27.284 113.66 27.312C113.436 27.312 113.282 27.284 113.198 27.228C112.89 27.004 112.61 26.528 112.358 25.8C112.218 26.164 112.078 26.528 111.938 26.892C111.826 27.228 111.756 27.452 111.728 27.564C111.7 27.76 111.672 27.928 111.644 28.068C111.616 28.18 111.546 28.278 111.434 28.362C111.434 28.362 111.42 28.418 111.392 28.53C111.364 28.642 111.266 28.81 111.098 29.034C110.818 29.846 110.566 30.546 110.342 31.134C110.118 31.75 109.936 32.268 109.796 32.688C109.656 33.136 109.544 33.528 109.46 33.864C109.404 34.62 109.25 35.362 108.998 36.09C108.746 36.846 108.55 37.266 108.41 37.35ZM113.408 25.38C113.52 25.324 113.758 25.17 114.122 24.918C114.514 24.638 114.948 24.316 115.424 23.952C115.9 23.56 116.334 23.196 116.726 22.86C117.146 22.524 117.426 22.272 117.566 22.104C117.79 21.852 118 21.586 118.196 21.306C118.392 20.998 118.546 20.662 118.658 20.298C118.742 20.074 118.84 19.822 118.952 19.542C119.064 19.262 119.162 18.996 119.246 18.744C119.358 18.52 119.4 18.296 119.372 18.072C119.372 17.82 119.288 17.61 119.12 17.442C119.008 17.414 118.672 17.498 118.112 17.694C117.552 17.862 116.936 18.156 116.264 18.576C115.592 18.968 115.004 19.486 114.5 20.13C113.912 20.886 113.478 21.67 113.198 22.482C112.946 23.294 112.834 23.98 112.862 24.54C112.918 25.1 113.1 25.38 113.408 25.38ZM135.875 29.496C134.951 29.16 134.237 28.53 133.733 27.606C133.229 26.654 132.907 25.73 132.767 24.834C132.739 24.834 132.655 24.89 132.515 25.002C132.403 25.086 132.263 25.226 132.095 25.422C131.703 25.814 131.213 26.304 130.625 26.892C130.037 27.452 129.421 27.956 128.777 28.404C128.161 28.824 127.573 29.006 127.013 28.95C126.789 28.81 126.551 28.656 126.299 28.488C126.075 28.292 125.851 28.096 125.627 27.9C125.515 27.788 125.417 27.676 125.333 27.564C125.277 27.452 125.221 27.326 125.165 27.186C124.857 26.346 124.689 25.604 124.661 24.96C124.633 24.288 124.703 23.63 124.871 22.986C125.067 22.314 125.291 21.572 125.543 20.76C125.571 20.676 125.669 20.326 125.837 19.71C126.033 19.094 126.257 18.394 126.509 17.61C126.761 16.826 126.999 16.126 127.223 15.51C127.475 14.894 127.657 14.53 127.769 14.418C127.853 14.418 127.937 14.418 128.021 14.418C128.133 14.39 128.231 14.376 128.315 14.376C128.595 14.376 128.805 14.474 128.945 14.67C129.057 14.838 129.197 14.964 129.365 15.048C129.561 15.132 129.701 15.244 129.785 15.384C129.925 15.664 129.827 16.266 129.491 17.19C129.155 18.086 128.791 19.108 128.399 20.256C128.035 21.292 127.727 22.342 127.475 23.406C127.223 24.442 127.209 25.31 127.433 26.01C127.629 26.01 127.895 25.842 128.231 25.506C128.595 25.142 128.875 24.89 129.071 24.75C129.351 24.582 129.715 24.26 130.163 23.784C130.639 23.28 131.101 22.776 131.549 22.272C131.997 21.74 132.305 21.334 132.473 21.054C132.585 20.886 132.753 20.578 132.977 20.13C133.201 19.654 133.425 19.15 133.649 18.618C133.901 18.058 134.097 17.54 134.237 17.064C134.405 16.588 134.475 16.252 134.447 16.056C134.419 15.776 134.447 15.566 134.531 15.426C134.643 15.258 134.811 15.104 135.035 14.964C135.175 14.964 135.329 14.964 135.497 14.964C135.665 14.964 135.819 14.978 135.959 15.006C136.127 15.202 136.309 15.384 136.505 15.552C136.701 15.72 136.897 15.902 137.093 16.098C137.233 16.63 137.149 17.344 136.841 18.24C136.533 19.136 136.225 20.102 135.917 21.138C135.609 22.174 135.413 23.224 135.329 24.288C135.245 25.324 135.525 26.234 136.169 27.018C136.757 26.766 137.205 26.528 137.513 26.304C137.849 26.052 138.171 25.8 138.479 25.548C138.787 25.268 139.179 24.988 139.655 24.708C139.935 24.876 140.145 25.212 140.285 25.716C140.425 26.22 140.495 26.626 140.495 26.934C140.383 27.018 140.271 27.102 140.159 27.186C140.075 27.242 140.005 27.326 139.949 27.438C139.781 27.802 139.445 28.166 138.941 28.53C138.437 28.894 137.905 29.188 137.345 29.412C136.785 29.608 136.295 29.636 135.875 29.496ZM148.195 18.996C147.663 19.192 147.215 19.29 146.851 19.29C146.515 19.262 146.137 19.094 145.717 18.786C145.185 18.282 145.003 17.778 145.171 17.274C145.367 16.742 145.829 16.224 146.557 15.72C147.061 15.412 147.425 15.244 147.649 15.216C147.901 15.188 148.279 15.286 148.783 15.51C149.623 16.042 149.987 16.63 149.875 17.274C149.791 17.918 149.231 18.492 148.195 18.996ZM145.255 27.816C144.723 28.012 144.275 28.11 143.911 28.11C143.575 28.082 143.197 27.914 142.777 27.606C142.245 27.102 142.063 26.598 142.231 26.094C142.427 25.562 142.889 25.044 143.617 24.54C144.121 24.232 144.485 24.064 144.709 24.036C144.961 24.008 145.339 24.106 145.843 24.33C146.683 24.862 147.047 25.45 146.935 26.094C146.851 26.738 146.291 27.312 145.255 27.816ZM165.475 30.042C165.195 30.07 164.775 30 164.215 29.832C163.683 29.636 163.319 29.44 163.123 29.244C162.927 28.964 162.745 28.628 162.577 28.236C162.437 27.844 162.325 27.494 162.241 27.186C162.185 26.85 162.157 26.654 162.157 26.598L162.661 23.112C162.801 22.86 162.871 22.594 162.871 22.314C162.899 22.034 162.969 21.768 163.081 21.516C163.053 21.376 163.095 21.096 163.207 20.676C163.347 20.228 163.501 19.738 163.669 19.206C163.865 18.646 164.047 18.142 164.215 17.694C164.383 17.218 164.481 16.91 164.509 16.77C164.621 16.35 164.775 15.93 164.971 15.51C165.167 15.09 165.349 14.67 165.517 14.25C165.741 13.522 165.909 12.99 166.021 12.654C166.133 12.318 166.231 12.052 166.315 11.856C166.427 11.66 166.553 11.436 166.693 11.184C166.833 10.904 167.029 10.484 167.281 9.924L169.759 4.296C169.479 4.156 169.227 3.89 169.003 3.498C168.779 3.078 168.667 2.7 168.667 2.364C168.639 2.196 168.667 2.084 168.751 2.028C168.835 1.944 168.975 1.86 169.171 1.776C169.479 1.776 169.801 1.762 170.137 1.734C170.473 1.706 170.809 1.72 171.145 1.776C171.397 1.804 171.565 1.79 171.649 1.734C171.733 1.65 171.901 1.636 172.153 1.692C172.405 1.776 172.657 1.804 172.909 1.776C173.189 1.748 173.427 1.678 173.623 1.566C173.707 1.566 173.959 1.552 174.379 1.524C174.799 1.496 175.261 1.468 175.765 1.44C176.297 1.412 176.759 1.384 177.151 1.356C177.571 1.328 177.823 1.314 177.907 1.314C177.879 1.314 178.061 1.3 178.453 1.272C178.873 1.244 179.363 1.216 179.923 1.188C180.483 1.132 180.987 1.09 181.435 1.062C181.883 1.006 182.135 0.963998 182.191 0.935999C182.779 0.795999 183.185 0.851999 183.409 1.104C183.633 1.356 183.801 1.594 183.913 1.818C183.969 1.958 184.039 2.112 184.123 2.28C184.207 2.42 184.263 2.546 184.291 2.658C184.347 2.742 184.333 2.798 184.249 2.826C184.109 3.022 183.913 3.162 183.661 3.246C183.437 3.33 183.171 3.316 182.863 3.204C182.751 3.176 182.345 3.176 181.645 3.204C180.945 3.232 180.091 3.288 179.083 3.372C178.103 3.456 177.095 3.554 176.059 3.666C175.051 3.75 174.169 3.834 173.413 3.918C173.133 4.086 172.895 4.31 172.699 4.59C172.503 4.842 172.321 5.122 172.153 5.43C172.069 5.598 171.873 5.99 171.565 6.606C171.285 7.222 170.977 7.894 170.641 8.622C170.305 9.35 170.025 9.98 169.801 10.512C169.577 11.016 169.465 11.254 169.465 11.226C169.241 11.534 169.297 11.716 169.633 11.772C169.997 11.828 170.305 11.856 170.557 11.856C170.781 11.856 171.005 11.912 171.229 12.024C171.481 12.108 171.719 12.136 171.943 12.108C172.083 12.08 172.349 12.122 172.741 12.234C173.161 12.318 173.609 12.444 174.085 12.612C174.589 12.752 175.037 12.906 175.429 13.074C175.849 13.214 176.143 13.34 176.311 13.452C176.955 13.844 177.515 14.236 177.991 14.628C178.467 15.02 178.845 15.496 179.125 16.056C179.405 16.616 179.643 17.19 179.839 17.778C180.035 18.366 180.105 18.982 180.049 19.626C180.049 19.766 180.007 20.06 179.923 20.508C179.867 20.928 179.783 21.362 179.671 21.81C179.559 22.258 179.433 22.594 179.293 22.818C178.957 23.378 178.593 23.91 178.201 24.414C177.837 24.89 177.501 25.31 177.193 25.674C176.745 26.234 176.213 26.71 175.597 27.102C175.009 27.466 174.393 27.802 173.749 28.11C173.245 28.362 172.853 28.558 172.573 28.698C172.321 28.81 172.083 28.894 171.859 28.95C171.635 29.006 171.327 29.076 170.935 29.16C170.963 29.16 170.823 29.202 170.515 29.286C170.207 29.342 169.899 29.412 169.591 29.496C169.283 29.58 169.129 29.622 169.129 29.622C168.765 29.818 168.387 29.944 167.995 30C167.603 30.028 167.211 30.042 166.819 30.042C166.595 30.042 166.371 30.028 166.147 30C165.923 30 165.699 30.014 165.475 30.042ZM165.097 27.816C165.517 27.788 165.951 27.774 166.399 27.774C166.847 27.774 167.295 27.718 167.743 27.606C169.143 27.214 170.445 26.794 171.649 26.346C172.881 25.898 174.001 25.114 175.009 23.994C175.709 23.182 176.227 22.426 176.563 21.726C176.927 21.026 177.207 20.228 177.403 19.332C177.515 18.884 177.515 18.478 177.403 18.114C177.291 17.722 177.193 17.26 177.109 16.728C176.857 16.14 176.619 15.748 176.395 15.552C176.171 15.328 175.947 15.188 175.723 15.132C175.499 15.076 175.275 14.992 175.051 14.88C174.687 14.572 174.169 14.362 173.497 14.25C172.825 14.138 172.363 14.068 172.111 14.04C172.279 14.068 172.237 14.068 171.985 14.04C171.761 13.984 171.425 13.928 170.977 13.872C170.529 13.788 170.081 13.718 169.633 13.662C169.185 13.606 168.835 13.578 168.583 13.578C168.387 14.026 168.177 14.516 167.953 15.048C167.757 15.58 167.547 16.112 167.323 16.644C167.127 17.148 166.945 17.652 166.777 18.156C166.497 18.968 166.231 19.794 165.979 20.634C165.727 21.446 165.489 22.272 165.265 23.112C165.153 23.588 165.041 24.162 164.929 24.834C164.817 25.506 164.761 26.136 164.761 26.724C164.789 27.284 164.901 27.648 165.097 27.816ZM182.938 28.488C182.826 28.264 182.686 28.096 182.518 27.984C182.35 27.844 182.266 27.718 182.266 27.606C182.266 27.494 182.252 27.382 182.224 27.27C182.224 27.13 182.168 27.004 182.056 26.892C181.916 26.724 181.93 26.346 182.098 25.758C182.266 25.142 182.546 24.4 182.938 23.532C183.33 22.636 183.792 21.698 184.324 20.718C184.548 20.494 184.772 20.2 184.996 19.836C185.22 19.472 185.388 19.234 185.5 19.122C185.5 19.01 185.542 18.912 185.626 18.828C185.71 18.716 185.808 18.66 185.92 18.66V18.408C185.92 18.268 186.046 18.03 186.298 17.694C186.578 17.358 186.914 16.994 187.306 16.602C187.698 16.182 188.104 15.79 188.524 15.426C188.944 15.034 189.294 14.754 189.574 14.586C190.162 14.194 190.764 13.956 191.38 13.872C192.024 13.788 192.57 13.928 193.018 14.292C193.102 14.376 193.242 14.516 193.438 14.712C193.634 14.908 193.858 15.132 194.11 15.384C194.39 15.608 194.67 15.846 194.95 16.098L196.504 17.484L195.748 19.584C195.384 20.704 195.286 21.684 195.454 22.524C195.65 23.364 195.93 24.092 196.294 24.708C196.434 25.016 196.714 25.31 197.134 25.59C197.582 25.87 198.002 26.038 198.394 26.094C198.618 26.122 198.828 26.206 199.024 26.346C199.22 26.486 199.318 26.71 199.318 27.018C199.318 27.298 199.262 27.522 199.15 27.69C199.038 27.858 198.842 27.97 198.562 28.026C197.638 28.138 196.77 27.914 195.958 27.354C195.174 26.794 194.446 25.87 193.774 24.582C193.662 24.414 193.508 24.106 193.312 23.658C193.144 23.182 193.046 22.874 193.018 22.734C192.906 22.874 192.696 23.14 192.388 23.532C192.08 23.896 191.842 24.162 191.674 24.33C189.686 26.346 187.964 27.704 186.508 28.404C185.08 29.076 183.89 29.104 182.938 28.488ZM184.45 26.136C184.45 26.332 184.744 26.332 185.332 26.136C185.948 25.912 186.606 25.52 187.306 24.96C188.258 24.148 189.21 23.252 190.162 22.272C191.142 21.292 191.926 20.382 192.514 19.542L193.438 18.03C193.158 17.386 192.85 16.952 192.514 16.728C192.206 16.476 191.94 16.35 191.716 16.35C191.352 16.35 190.806 16.686 190.078 17.358C189.378 18.03 188.622 18.926 187.81 20.046C186.998 21.166 186.228 22.398 185.5 23.742C185.22 24.302 184.968 24.848 184.744 25.38C184.548 25.884 184.45 26.136 184.45 26.136ZM210.932 29.244C210.484 29.104 210.092 28.894 209.756 28.614C209.42 28.306 209.098 27.97 208.79 27.606C208.65 27.438 208.412 27.102 208.076 26.598C207.74 26.094 207.376 25.534 206.984 24.918C206.62 24.302 206.27 23.728 205.934 23.196C205.598 22.636 205.346 22.216 205.178 21.936C205.038 22.356 204.884 22.706 204.716 22.986C204.576 23.238 204.506 23.644 204.506 24.204C204.226 24.596 204.016 25.044 203.876 25.548C203.764 26.024 203.638 26.5 203.498 26.976C203.414 27.284 203.274 27.564 203.078 27.816C202.91 28.068 202.686 28.292 202.406 28.488C202.07 28.46 201.776 28.348 201.524 28.152C201.3 27.956 201.104 27.76 200.936 27.564C200.768 27.228 200.698 26.906 200.726 26.598C200.754 26.29 200.824 25.996 200.936 25.716C200.992 25.464 201.146 24.974 201.398 24.246C201.678 23.518 201.972 22.734 202.28 21.894C202.588 21.026 202.868 20.256 203.12 19.584C203.372 18.884 203.512 18.45 203.54 18.282C203.708 17.722 204.002 17.12 204.422 16.476C204.87 15.804 205.178 15.076 205.346 14.292C205.402 14.096 205.542 13.914 205.766 13.746C205.99 13.55 206.242 13.452 206.522 13.452C206.83 13.424 207.082 13.578 207.278 13.914C207.334 13.942 207.418 13.984 207.53 14.04C207.642 14.068 207.726 14.124 207.782 14.208C208.006 14.46 208.132 14.726 208.16 15.006C208.216 15.286 208.16 15.58 207.992 15.888C207.628 16.532 207.32 17.064 207.068 17.484C206.844 17.876 206.62 18.31 206.396 18.786C206.172 19.262 205.92 19.92 205.64 20.76C206.116 20.648 206.466 20.564 206.69 20.508C206.914 20.424 207.124 20.298 207.32 20.13C207.544 19.934 207.838 19.64 208.202 19.248C208.342 19.108 208.622 18.842 209.042 18.45C209.49 18.03 209.952 17.582 210.428 17.106C210.932 16.63 211.366 16.21 211.73 15.846C212.122 15.482 212.332 15.272 212.36 15.216C212.528 14.964 212.696 14.74 212.864 14.544C213.06 14.32 213.312 14.152 213.62 14.04C214.04 14.096 214.334 14.18 214.502 14.292C214.67 14.376 214.992 14.614 215.468 15.006C215.608 15.118 215.664 15.384 215.636 15.804C215.608 16.196 215.454 16.504 215.174 16.728C214.67 17.12 214.04 17.624 213.284 18.24C212.528 18.856 211.716 19.5 210.848 20.172C210.008 20.844 209.168 21.474 208.328 22.062C208.72 22.706 209.07 23.322 209.378 23.91C209.686 24.47 209.938 24.946 210.134 25.338C210.19 26.038 210.442 26.514 210.89 26.766C211.366 26.99 211.94 27.102 212.612 27.102C212.836 27.214 212.976 27.354 213.032 27.522C213.116 27.662 213.158 27.83 213.158 28.026C213.186 28.194 213.214 28.362 213.242 28.53C212.85 28.782 212.57 29.006 212.402 29.202C212.262 29.37 212.094 29.468 211.898 29.496C211.73 29.496 211.408 29.412 210.932 29.244ZM217.658 28.446C217.574 28.334 217.49 28.194 217.406 28.026C217.35 27.858 217.322 27.718 217.322 27.606C217.322 27.55 217.308 27.48 217.28 27.396C217.28 27.312 217.224 27.27 217.112 27.27C217.028 27.186 217.084 26.864 217.28 26.304C217.504 25.716 217.784 25.044 218.12 24.288C218.484 23.532 218.848 22.804 219.212 22.104C219.604 21.376 219.926 20.802 220.178 20.382C220.318 20.298 220.402 20.186 220.43 20.046C220.486 19.878 220.486 19.794 220.43 19.794C220.43 19.794 220.5 19.668 220.64 19.416C220.808 19.136 220.934 18.954 221.018 18.87C221.242 18.478 221.41 18.086 221.522 17.694C221.634 17.274 221.662 16.924 221.606 16.644C221.494 16.504 221.368 16.462 221.228 16.518C221.088 16.574 221.018 16.602 221.018 16.602C220.906 16.63 220.738 16.686 220.514 16.77C220.318 16.826 220.136 16.91 219.968 17.022C219.324 17.47 218.89 17.68 218.666 17.652C218.442 17.596 218.19 17.232 217.91 16.56C217.798 16.252 217.756 16.028 217.784 15.888C217.812 15.748 217.924 15.594 218.12 15.426C218.344 15.23 218.554 15.104 218.75 15.048C218.946 14.964 219.1 14.88 219.212 14.796C219.52 14.6 219.772 14.46 219.968 14.376C220.192 14.292 220.36 14.236 220.472 14.208C221.2 13.984 221.816 13.942 222.32 14.082C222.824 14.222 223.202 14.586 223.454 15.174C223.846 15.65 224.042 16.196 224.042 16.812C224.042 17.4 223.846 18.086 223.454 18.87L223.034 19.5C222.894 19.78 222.866 19.92 222.95 19.92C223.062 19.92 223.188 19.822 223.328 19.626C223.412 19.514 223.58 19.346 223.832 19.122C224.084 18.898 224.252 18.786 224.336 18.786C224.336 18.786 224.364 18.772 224.42 18.744C224.504 18.716 224.546 18.604 224.546 18.408C224.63 18.324 224.714 18.24 224.798 18.156C224.91 18.072 224.966 18.03 224.966 18.03C225.078 18.03 225.288 17.904 225.596 17.652C225.932 17.372 226.324 17.05 226.772 16.686C227.08 16.462 227.36 16.35 227.612 16.35C228.256 16.154 228.774 16.364 229.166 16.98C229.586 17.596 229.796 18.394 229.796 19.374L228.914 21.642L230.426 19.794C230.594 19.57 230.762 19.374 230.93 19.206C231.126 19.038 231.294 18.898 231.434 18.786C231.49 18.59 231.574 18.478 231.686 18.45C231.798 18.422 231.854 18.408 231.854 18.408C231.854 18.408 231.882 18.408 231.938 18.408C231.994 18.38 232.022 18.324 232.022 18.24C232.162 18.128 232.316 18.03 232.484 17.946C232.652 17.834 232.764 17.722 232.82 17.61C233.296 17.414 233.73 17.386 234.122 17.526C234.514 17.638 234.85 17.988 235.13 18.576C235.326 18.912 235.438 19.206 235.466 19.458C235.494 19.71 235.508 20.088 235.508 20.592C235.452 21.012 235.396 21.348 235.34 21.6C235.312 21.824 235.284 22.062 235.256 22.314C235.228 22.566 235.186 22.916 235.13 23.364C235.018 23.588 234.948 23.826 234.92 24.078C234.92 24.33 234.92 24.568 234.92 24.792C234.92 25.156 234.934 25.408 234.962 25.548C234.99 25.66 235.102 25.716 235.298 25.716C235.69 25.632 236.222 25.436 236.894 25.128C237.594 24.792 238.112 24.47 238.448 24.162C238.868 23.77 239.232 23.574 239.54 23.574C239.876 23.546 240.086 23.7 240.17 24.036C240.226 24.148 240.128 24.4 239.876 24.792C239.652 25.184 239.386 25.562 239.078 25.926C238.798 26.29 238.588 26.472 238.448 26.472C238.364 26.472 238.266 26.556 238.154 26.724C238.042 26.864 237.916 26.976 237.776 27.06C237.58 27.256 237.384 27.438 237.188 27.606C237.02 27.774 236.824 27.858 236.6 27.858C236.488 27.858 236.348 27.9 236.18 27.984C236.04 28.04 235.872 28.068 235.676 28.068C235.396 28.152 234.962 28.11 234.374 27.942C233.814 27.774 233.45 27.382 233.282 26.766C233.17 26.458 233.072 25.968 232.988 25.296C232.904 24.596 232.918 23.896 233.03 23.196C233.142 22.692 233.212 22.23 233.24 21.81C233.268 21.39 233.324 21.096 233.408 20.928C233.408 20.844 233.408 20.648 233.408 20.34C233.408 20.004 233.366 19.836 233.282 19.836C233.17 19.836 232.904 20.046 232.484 20.466C232.092 20.858 231.616 21.362 231.056 21.978C230.524 22.594 229.992 23.238 229.46 23.91C228.928 24.582 228.494 25.184 228.158 25.716C227.906 26.024 227.682 26.402 227.486 26.85C227.29 27.298 227.15 27.55 227.066 27.606C226.87 27.83 226.632 27.858 226.352 27.69C226.1 27.522 225.862 27.256 225.638 26.892C225.554 26.724 225.498 26.584 225.47 26.472C225.442 26.332 225.442 26.15 225.47 25.926C225.526 25.674 225.624 25.31 225.764 24.834C225.932 24.358 226.156 23.686 226.436 22.818C226.744 21.866 227.01 21.012 227.234 20.256C227.486 19.472 227.612 19.08 227.612 19.08C227.612 18.968 227.402 19.08 226.982 19.416C226.562 19.724 226.072 20.116 225.512 20.592C225.26 20.9 224.84 21.362 224.252 21.978C223.664 22.594 223.02 23.294 222.32 24.078C221.62 24.862 220.948 25.688 220.304 26.556C219.492 27.704 218.918 28.404 218.582 28.656C218.274 28.908 217.966 28.838 217.658 28.446ZM249.591 29.454C248.639 29.706 247.967 29.832 247.575 29.832C247.183 29.832 246.763 29.636 246.315 29.244C246.175 29.104 246.091 28.964 246.063 28.824C246.035 28.656 245.965 28.558 245.853 28.53C245.825 28.334 245.839 28.18 245.895 28.068C245.979 27.928 246.161 27.802 246.441 27.69C246.861 27.942 247.393 28.012 248.037 27.9C248.681 27.788 249.311 27.55 249.927 27.186C250.571 26.794 251.075 26.332 251.439 25.8C251.999 25.128 252.433 24.498 252.741 23.91C253.049 23.294 253.217 22.748 253.245 22.272C253.245 21.992 253.203 21.796 253.119 21.684C253.063 21.544 252.923 21.334 252.699 21.054C252.195 21.222 251.733 21.418 251.313 21.642C250.921 21.866 250.599 22.104 250.347 22.356C249.507 23.056 248.849 23.63 248.373 24.078C247.925 24.526 247.533 24.974 247.197 25.422C246.889 25.87 246.497 26.472 246.021 27.228C245.797 27.508 245.587 27.718 245.391 27.858C245.223 27.998 245.041 28.068 244.845 28.068C244.929 28.628 244.733 28.964 244.257 29.076C243.641 28.936 243.193 28.754 242.913 28.53C242.633 28.278 242.549 27.802 242.661 27.102C242.773 26.71 242.885 26.248 242.997 25.716C243.109 25.156 243.235 24.694 243.375 24.33C244.047 22.538 244.635 20.942 245.139 19.542C245.671 18.142 246.133 17.148 246.525 16.56L247.449 14.166C247.925 14.194 248.289 14.292 248.541 14.46C248.793 14.6 249.087 14.95 249.423 15.51C249.423 15.65 249.283 16.056 249.003 16.728C248.751 17.372 248.443 18.114 248.079 18.954C247.743 19.794 247.421 20.578 247.113 21.306C246.833 22.006 246.637 22.496 246.525 22.776C246.413 23.084 246.497 23.028 246.777 22.608C247.085 22.188 247.617 21.656 248.373 21.012C248.737 20.648 249.185 20.312 249.717 20.004C250.249 19.668 250.697 19.416 251.061 19.248C251.453 19.08 251.775 18.982 252.027 18.954C252.279 18.926 252.461 18.898 252.573 18.87C253.273 18.87 253.833 19.052 254.253 19.416C254.673 19.752 254.967 20.144 255.135 20.592C255.331 21.04 255.429 21.404 255.429 21.684C255.513 22.132 255.569 22.566 255.597 22.986C255.653 23.378 255.625 23.798 255.513 24.246C255.429 24.47 255.275 24.778 255.051 25.17C254.827 25.562 254.561 25.968 254.253 26.388C253.973 26.78 253.637 27.102 253.245 27.354C252.993 27.606 252.657 27.872 252.237 28.152C251.817 28.432 251.369 28.698 250.893 28.95C250.445 29.174 250.011 29.342 249.591 29.454ZM258.327 30.126C257.823 30.07 257.403 29.916 257.067 29.664C256.759 29.384 256.535 28.978 256.395 28.446C256.395 27.97 256.451 27.536 256.563 27.144C256.703 26.724 256.815 26.318 256.899 25.926C257.039 25.282 257.235 24.638 257.487 23.994C257.739 23.35 257.963 22.706 258.159 22.062C258.327 21.67 258.467 21.292 258.579 20.928C258.691 20.564 258.803 20.2 258.915 19.836C259.055 19.388 259.195 18.954 259.335 18.534C259.475 18.114 259.615 17.694 259.755 17.274C259.867 16.91 259.951 16.532 260.007 16.14C260.091 15.748 260.161 15.356 260.217 14.964C260.525 14.628 260.861 14.488 261.225 14.544C261.617 14.6 262.093 14.922 262.653 15.51C262.793 15.846 262.863 16.154 262.863 16.434C262.863 16.686 262.793 16.952 262.653 17.232C262.541 17.484 262.387 17.862 262.191 18.366C262.023 18.87 261.841 19.374 261.645 19.878C261.477 20.354 261.351 20.718 261.267 20.97C261.211 21.278 261.057 21.782 260.805 22.482C260.581 23.182 260.343 23.91 260.091 24.666C259.839 25.394 259.657 25.982 259.545 26.43C259.377 26.85 259.251 27.256 259.167 27.648C259.083 28.04 258.999 28.53 258.915 29.118C258.971 29.37 258.929 29.58 258.789 29.748C258.677 29.888 258.523 30.014 258.327 30.126ZM267.244 29.79C267.048 29.678 266.838 29.566 266.614 29.454C266.418 29.342 266.222 29.23 266.026 29.118C265.858 29.006 265.704 28.894 265.564 28.782C264.976 28.25 264.584 27.676 264.388 27.06C264.22 26.416 264.164 25.8 264.22 25.212C264.276 24.624 264.36 24.12 264.472 23.7C264.584 23.252 264.64 22.944 264.64 22.776C264.612 22.552 264.654 22.342 264.766 22.146C264.878 21.922 264.99 21.698 265.102 21.474C265.606 20.494 266.068 19.654 266.488 18.954C266.936 18.226 267.58 17.386 268.42 16.434C268.588 16.294 268.742 16.168 268.882 16.056C269.05 15.916 269.218 15.818 269.386 15.762L270.352 16.476C270.464 16.588 270.534 16.728 270.562 16.896C270.59 17.036 270.562 17.232 270.478 17.484C270.422 17.68 270.352 17.876 270.268 18.072C270.212 18.24 270.128 18.394 270.016 18.534C269.54 18.982 269.162 19.486 268.882 20.046C268.602 20.578 268.308 21.124 268 21.684C268 21.936 267.902 22.146 267.706 22.314C267.51 22.454 267.398 22.664 267.37 22.944C267.37 23.14 267.342 23.336 267.286 23.532C267.23 23.728 267.174 23.938 267.118 24.162C266.922 24.61 266.838 25.044 266.866 25.464C266.894 25.884 266.908 26.318 266.908 26.766C267.132 26.878 267.328 26.948 267.496 26.976C267.664 26.976 267.888 26.836 268.168 26.556C268.728 26.08 269.12 25.66 269.344 25.296C269.596 24.932 269.792 24.568 269.932 24.204C270.072 23.84 270.268 23.42 270.52 22.944C270.8 22.468 271.038 21.866 271.234 21.138C271.43 20.41 271.57 19.724 271.654 19.08C271.738 18.408 271.738 17.96 271.654 17.736C271.626 17.596 271.64 17.428 271.696 17.232C271.752 17.036 271.668 16.84 271.444 16.644C271.556 16.532 271.612 16.322 271.612 16.014C271.612 15.706 271.584 15.384 271.528 15.048C271.472 14.712 271.388 14.474 271.276 14.334C271.22 13.214 271.178 12.276 271.15 11.52C271.15 10.736 271.164 10.064 271.192 9.504C271.248 8.916 271.318 8.37 271.402 7.866C271.43 7.782 271.598 7.502 271.906 7.026C272.242 6.522 272.55 6.13 272.83 5.85C273.306 5.43 273.95 5.108 274.762 4.884C275.602 4.632 276.316 4.534 276.904 4.59C276.876 4.618 277.044 4.632 277.408 4.632C277.8 4.632 278.234 4.618 278.71 4.59C279.186 4.562 279.536 4.534 279.76 4.506C279.984 4.45 280.208 4.394 280.432 4.338C280.656 4.282 281.034 4.1 281.566 3.792C281.79 3.652 281.972 3.61 282.112 3.666L283.246 4.632C283.218 5.416 283.022 6.004 282.658 6.396C282.294 6.76 281.594 6.998 280.558 7.11C280.39 7.11 280.208 7.11 280.012 7.11C279.816 7.082 279.62 7.096 279.424 7.152C279.256 7.208 279.102 7.208 278.962 7.152C278.85 7.096 278.682 7.068 278.458 7.068C278.15 7.068 277.828 7.11 277.492 7.194C277.156 7.25 276.806 7.236 276.442 7.152C275.434 7.432 274.65 7.81 274.09 8.286C273.53 8.762 273.25 9.546 273.25 10.638C273.362 11.674 273.502 12.598 273.67 13.41C273.866 14.222 273.964 15.118 273.964 16.098C274.02 16.35 274.09 16.56 274.174 16.728C274.258 16.896 274.216 17.078 274.048 17.274C274.188 17.918 274.258 18.548 274.258 19.164C274.258 19.752 274.174 20.2 274.006 20.508C273.95 20.704 273.908 21.068 273.88 21.6C273.88 22.104 273.74 22.636 273.46 23.196C272.816 24.512 272.158 25.688 271.486 26.724C270.814 27.732 269.96 28.586 268.924 29.286C268.728 29.398 268.49 29.482 268.21 29.538C267.958 29.594 267.636 29.678 267.244 29.79ZM284.7 28.53C284.112 29.034 283.426 29.328 282.642 29.412C281.886 29.496 281.144 29.384 280.416 29.076C279.688 28.74 279.086 28.236 278.61 27.564C278.134 26.948 277.826 26.248 277.686 25.464C277.546 24.652 277.532 23.602 277.644 22.314C277.728 21.222 278.078 20.13 278.694 19.038C279.31 17.918 280.052 16.924 280.92 16.056C281.816 15.188 282.698 14.586 283.566 14.25C283.986 13.97 284.336 13.844 284.616 13.872C284.924 13.872 285.386 13.9 286.002 13.956C286.646 14.04 287.122 14.166 287.43 14.334C287.766 14.502 288.032 14.726 288.228 15.006C288.648 15.426 288.928 15.846 289.068 16.266C289.208 16.658 289.278 17.05 289.278 17.442C289.166 18.058 288.746 18.814 288.018 19.71C287.318 20.578 286.394 21.292 285.246 21.852C284.63 22.048 283.958 22.132 283.23 22.104C282.502 22.076 281.9 21.894 281.424 21.558C280.892 21.334 280.542 21.376 280.374 21.684C280.206 21.964 280.052 22.664 279.912 23.784C279.8 24.848 279.884 25.632 280.164 26.136C280.444 26.612 280.822 26.892 281.298 26.976C281.858 27.088 282.292 27.172 282.6 27.228C282.936 27.256 283.342 27.13 283.818 26.85C284.266 26.57 284.546 26.416 284.658 26.388C284.77 26.332 284.854 26.276 284.91 26.22C284.994 26.136 285.176 25.954 285.456 25.674C285.652 25.478 285.806 25.338 285.918 25.254C286.03 25.142 286.156 25.086 286.296 25.086C286.436 25.086 286.562 25.156 286.674 25.296C286.786 25.408 286.898 25.492 287.01 25.548C287.29 25.548 287.346 25.716 287.178 26.052C287.038 26.388 286.744 26.794 286.296 27.27C285.848 27.718 285.316 28.138 284.7 28.53ZM284.658 19.626C284.966 19.486 285.288 19.29 285.624 19.038C285.96 18.758 286.24 18.464 286.464 18.156C286.716 17.82 286.842 17.54 286.842 17.316C286.842 16.924 286.66 16.602 286.296 16.35C285.932 16.07 285.386 16.028 284.658 16.224C284.35 16.308 284 16.518 283.608 16.854C283.216 17.162 282.838 17.512 282.474 17.904C282.138 18.296 281.858 18.646 281.634 18.954C281.438 19.262 281.368 19.444 281.424 19.5C281.508 19.64 281.746 19.752 282.138 19.836C282.53 19.892 282.964 19.906 283.44 19.878C283.944 19.85 284.35 19.766 284.658 19.626ZM291.471 29.79C291.247 29.706 291.009 29.538 290.757 29.286C290.505 29.006 290.295 28.684 290.127 28.32C289.959 27.956 289.875 27.62 289.875 27.312C290.015 27.004 290.197 26.472 290.421 25.716C290.645 24.932 290.925 24.036 291.261 23.028C291.485 22.72 291.653 22.356 291.765 21.936C291.905 21.516 292.031 21.138 292.143 20.802C292.367 20.354 292.633 19.78 292.941 19.08C293.249 18.352 293.543 17.624 293.823 16.896C294.131 16.14 294.397 15.51 294.621 15.006C294.929 14.278 295.111 13.83 295.167 13.662C295.223 13.466 295.265 13.312 295.293 13.2C295.293 12.976 295.349 12.794 295.461 12.654C295.573 12.486 295.685 12.402 295.797 12.402C295.909 12.29 296.035 12.234 296.175 12.234C296.343 12.206 296.483 12.192 296.595 12.192C296.903 12.192 297.169 12.402 297.393 12.822C297.617 13.214 297.729 13.578 297.729 13.914C297.729 14.25 297.603 14.726 297.351 15.342C297.127 15.93 296.861 16.546 296.553 17.19C296.273 17.834 296.035 18.394 295.839 18.87C295.643 19.346 295.587 19.626 295.671 19.71C295.671 19.71 295.867 19.626 296.259 19.458C296.651 19.262 297.071 18.996 297.519 18.66C297.827 18.492 298.163 18.282 298.527 18.03C298.891 17.778 299.241 17.54 299.577 17.316C299.913 17.064 300.193 16.91 300.417 16.854C300.753 16.63 301.103 16.42 301.467 16.224C301.831 16 302.069 15.832 302.181 15.72C302.657 15.496 303.007 15.426 303.231 15.51C303.483 15.594 303.735 15.804 303.987 16.14C304.295 16.504 304.351 16.826 304.155 17.106C303.959 17.358 303.497 17.708 302.769 18.156C302.181 18.52 301.467 18.954 300.627 19.458C299.815 19.962 299.087 20.41 298.443 20.802C297.827 21.194 297.477 21.432 297.393 21.516C297.393 21.516 297.505 21.726 297.729 22.146C297.953 22.566 298.177 22.944 298.401 23.28C298.625 23.728 298.863 24.148 299.115 24.54C299.395 24.904 299.535 25.156 299.535 25.296C299.759 25.884 300.039 26.374 300.375 26.766C300.711 27.13 301.089 27.368 301.509 27.48C301.957 27.564 302.405 27.508 302.853 27.312C303.413 27.088 303.819 27.018 304.071 27.102C304.351 27.186 304.547 27.396 304.659 27.732C304.771 27.956 304.799 28.124 304.743 28.236C304.715 28.32 304.533 28.53 304.197 28.866C303.665 29.398 303.119 29.734 302.559 29.874C302.027 30.014 301.537 29.972 301.089 29.748C300.809 29.748 300.487 29.636 300.123 29.412C299.759 29.16 299.311 28.754 298.779 28.194C298.275 27.634 297.645 26.85 296.889 25.842C296.889 25.73 296.833 25.576 296.721 25.38C296.637 25.156 296.539 24.946 296.427 24.75C296.315 24.526 296.175 24.288 296.007 24.036C295.839 23.756 295.755 23.616 295.755 23.616C295.755 23.532 295.727 23.462 295.671 23.406C295.643 23.322 295.587 23.224 295.503 23.112C295.447 23 295.377 22.874 295.293 22.734C294.845 22.594 294.523 22.678 294.327 22.986C294.131 23.294 293.921 23.616 293.697 23.952C293.557 24.316 293.375 24.834 293.151 25.506C292.955 26.15 292.787 26.78 292.647 27.396C292.535 28.012 292.507 28.432 292.563 28.656C292.563 29.104 292.493 29.412 292.353 29.58C292.213 29.72 291.919 29.79 291.471 29.79ZM323.156 30.21C322.792 30.126 322.442 30.014 322.106 29.874C321.77 29.734 321.532 29.524 321.392 29.244C321.42 29.132 321.434 29.02 321.434 28.908C321.462 28.796 321.462 28.684 321.434 28.572C321.434 28.208 321.546 27.676 321.77 26.976C322.022 26.276 322.316 25.506 322.652 24.666C323.016 23.826 323.352 23.042 323.66 22.314C323.436 22.622 323.044 23.042 322.484 23.574C321.952 24.106 321.378 24.666 320.762 25.254C320.146 25.814 319.586 26.332 319.082 26.808C318.578 27.256 318.242 27.578 318.074 27.774C317.766 28.194 317.486 28.516 317.234 28.74C316.982 28.964 316.604 29.37 316.1 29.958C315.876 29.958 315.666 29.958 315.47 29.958C315.274 29.958 315.092 29.958 314.924 29.958C314.644 29.734 314.406 29.524 314.21 29.328C314.042 29.132 313.93 28.838 313.874 28.446C314.462 27.886 314.91 27.466 315.218 27.186C315.554 26.878 315.918 26.542 316.31 26.178C316.45 26.066 316.758 25.786 317.234 25.338C317.71 24.862 318.242 24.33 318.83 23.742C319.446 23.126 320.02 22.552 320.552 22.02C321.084 21.488 321.462 21.11 321.686 20.886C321.238 20.158 320.93 19.64 320.762 19.332C320.594 18.996 320.37 18.548 320.09 17.988C319.922 17.68 319.768 17.358 319.628 17.022C319.488 16.658 319.348 16.308 319.208 15.972C319.152 15.804 319.11 15.622 319.082 15.426C319.082 15.23 319.04 15.062 318.956 14.922C318.844 14.586 318.802 14.278 318.83 13.998C318.886 13.718 318.998 13.522 319.166 13.41C319.334 13.466 319.516 13.55 319.712 13.662C319.908 13.746 320.104 13.802 320.3 13.83C320.496 13.858 320.636 13.914 320.72 13.998C320.832 14.082 320.944 14.166 321.056 14.25C321.196 14.306 321.28 14.39 321.308 14.502C321.364 14.614 321.406 14.726 321.434 14.838C321.49 14.922 321.56 15.006 321.644 15.09C321.532 15.23 321.518 15.37 321.602 15.51C321.686 15.622 321.742 15.748 321.77 15.888C322.134 17.008 322.47 17.96 322.778 18.744C323.086 19.5 323.254 19.906 323.282 19.962C323.366 20.074 323.45 20.172 323.534 20.256C323.646 20.34 323.786 20.452 323.954 20.592C324.178 19.892 324.444 19.122 324.752 18.282C325.06 17.442 325.34 16.672 325.592 15.972C325.872 15.244 326.068 14.74 326.18 14.46C326.208 14.376 326.236 14.292 326.264 14.208C326.32 14.096 326.348 13.984 326.348 13.872C326.32 13.592 326.376 13.41 326.516 13.326C326.684 13.214 326.866 13.116 327.062 13.032C327.734 13.116 328.308 13.466 328.784 14.082C328.896 14.39 328.966 14.67 328.994 14.922C329.022 15.174 328.966 15.468 328.826 15.804C328.602 16.28 328.364 16.84 328.112 17.484C327.888 18.1 327.608 18.87 327.272 19.794C326.936 20.718 326.502 21.88 325.97 23.28C325.718 24.036 325.494 24.624 325.298 25.044C325.13 25.436 324.976 25.786 324.836 26.094C324.724 26.402 324.598 26.766 324.458 27.186C324.346 27.578 324.206 28.152 324.038 28.908C324.178 29.16 324.206 29.384 324.122 29.58C324.038 29.748 323.926 29.902 323.786 30.042C323.646 30.266 323.436 30.322 323.156 30.21ZM327.944 28.068C327.748 27.928 327.622 27.76 327.566 27.564C327.51 27.34 327.44 27.144 327.356 26.976C327.104 26.5 326.908 25.982 326.768 25.422C326.628 24.862 326.404 24.358 326.096 23.91L323.954 23.784L325.214 21.684L326.768 21.768C327.132 21.544 327.44 21.32 327.692 21.096C327.972 20.844 328.252 20.578 328.532 20.298C329.596 19.15 330.422 18.268 331.01 17.652C331.598 17.036 332.032 16.574 332.312 16.266C332.592 15.958 332.816 15.706 332.984 15.51C333.208 15.202 333.348 14.936 333.404 14.712C333.488 14.46 333.558 14.264 333.614 14.124C333.754 14.096 333.894 14.082 334.034 14.082C334.174 14.082 334.3 14.082 334.412 14.082C334.636 14.082 334.804 14.082 334.916 14.082C335.028 14.082 335.182 14.152 335.378 14.292C335.854 14.656 335.994 15.048 335.798 15.468C335.546 16.028 335.238 16.546 334.874 17.022C334.51 17.47 334.02 17.988 333.404 18.576C332.816 19.136 332.046 19.878 331.094 20.802C330.982 20.886 330.716 21.096 330.296 21.432C329.876 21.768 329.47 22.09 329.078 22.398C328.714 22.678 328.532 22.818 328.532 22.818C328.504 22.874 328.42 22.916 328.28 22.944C328.168 22.944 328.07 22.972 327.986 23.028C328.266 23.392 328.602 23.994 328.994 24.834C329.414 25.646 329.806 26.486 330.17 27.354C330.31 27.662 330.478 27.97 330.674 28.278C330.898 28.558 331.122 28.908 331.346 29.328C331.318 29.552 331.262 29.776 331.178 30C331.122 30.252 331.038 30.406 330.926 30.462C330.646 30.63 330.282 30.714 329.834 30.714C329.414 30.714 329.05 30.672 328.742 30.588C328.63 30.168 328.504 29.748 328.364 29.328C328.224 28.908 328.084 28.488 327.944 28.068ZM338.998 28.782C338.774 28.838 338.48 28.866 338.116 28.866C337.752 28.838 337.43 28.796 337.15 28.74C336.898 28.656 336.772 28.572 336.772 28.488C336.772 28.348 336.702 28.278 336.562 28.278C336.562 28.278 336.492 28.222 336.352 28.11C336.24 27.998 336.058 27.886 335.806 27.774C335.554 27.382 335.428 26.962 335.428 26.514C335.428 26.038 335.554 25.296 335.806 24.288C335.89 23.588 336.156 22.776 336.604 21.852C337.08 20.9 337.654 19.934 338.326 18.954C338.998 17.974 339.698 17.092 340.426 16.308C341.182 15.524 341.868 14.95 342.484 14.586C342.876 14.194 343.352 13.984 343.912 13.956C344.472 13.928 345.004 14.054 345.508 14.334C345.788 14.474 346.068 14.698 346.348 15.006C346.628 15.314 346.894 15.65 347.146 16.014C347.398 16.378 347.608 16.742 347.776 17.106C347.86 17.414 347.902 17.694 347.902 17.946C347.93 18.17 347.93 18.45 347.902 18.786C347.902 19.122 347.86 19.626 347.776 20.298C347.636 20.802 347.51 21.418 347.398 22.146C347.314 22.874 347.272 23.504 347.272 24.036C347.216 24.568 347.272 24.946 347.44 25.17C347.636 25.394 347.916 25.408 348.28 25.212C348.616 25.044 348.938 24.974 349.246 25.002C349.554 25.002 349.792 25.086 349.96 25.254C350.156 25.422 350.254 25.674 350.254 26.01C350.254 26.346 350.086 26.696 349.75 27.06C349.442 27.396 349.05 27.69 348.574 27.942C348.126 28.166 347.692 28.278 347.272 28.278C346.964 28.278 346.67 28.096 346.39 27.732C346.11 27.34 345.858 26.878 345.634 26.346C345.438 25.786 345.256 25.254 345.088 24.75L344.836 23.784L343.03 25.506C342.666 25.898 342.302 26.262 341.938 26.598C341.602 26.906 341.392 27.13 341.308 27.27C341.168 27.522 340.902 27.774 340.51 28.026C340.146 28.278 339.642 28.53 338.998 28.782ZM339.124 26.304C339.6 26.024 340.146 25.618 340.762 25.086C341.378 24.526 341.98 23.924 342.568 23.28C343.156 22.608 343.646 21.992 344.038 21.432C344.514 20.788 344.878 20.186 345.13 19.626C345.382 19.066 345.564 18.534 345.676 18.03C345.564 17.722 345.382 17.4 345.13 17.064C344.878 16.7 344.654 16.504 344.458 16.476C343.842 16.476 343.184 16.868 342.484 17.652C341.812 18.408 341.154 19.234 340.51 20.13C340.398 20.27 340.244 20.494 340.048 20.802C339.852 21.11 339.656 21.404 339.46 21.684C339.292 21.936 339.18 22.104 339.124 22.188C339.04 22.3 338.872 22.622 338.62 23.154C338.396 23.658 338.172 24.176 337.948 24.708C337.724 25.212 337.612 25.548 337.612 25.716C337.612 25.884 337.626 26.066 337.654 26.262C337.71 26.458 337.85 26.584 338.074 26.64C338.298 26.696 338.648 26.584 339.124 26.304ZM364.801 15.09C365.193 14.866 365.599 14.796 366.019 14.88C366.439 14.936 366.761 15.118 366.985 15.426C367.237 15.706 367.279 16.07 367.111 16.518C367.167 16.35 367.097 16.462 366.901 16.854C366.733 17.218 366.509 17.694 366.229 18.282C365.977 18.87 365.739 19.43 365.515 19.962C365.319 20.466 365.193 20.76 365.137 20.844V20.97C365.585 20.97 365.851 21.11 365.935 21.39C366.047 21.642 366.089 21.936 366.061 22.272C365.725 22.328 365.487 22.426 365.347 22.566C365.207 22.678 365.025 22.748 364.801 22.776C364.717 22.776 364.619 22.818 364.507 22.902C364.395 22.986 364.325 23.084 364.297 23.196C364.269 23.28 364.185 23.616 364.045 24.204C363.933 24.764 363.793 25.38 363.625 26.052C363.485 26.696 363.359 27.186 363.247 27.522C363.191 27.746 363.079 27.928 362.911 28.068C362.743 28.18 362.631 28.25 362.575 28.278C362.015 28.054 361.637 27.914 361.441 27.858C361.273 27.774 361.105 27.662 360.937 27.522C360.909 27.354 360.909 27.158 360.937 26.934C360.965 26.682 361.035 26.388 361.147 26.052C361.287 25.632 361.399 25.24 361.483 24.876C361.595 24.484 361.707 23.938 361.819 23.238C361.707 23.182 361.469 23.182 361.105 23.238C360.769 23.266 360.405 23.308 360.013 23.364C359.621 23.42 359.285 23.476 359.005 23.532C358.753 23.588 358.641 23.602 358.669 23.574C358.529 23.63 358.263 23.672 357.871 23.7C357.507 23.7 357.129 23.686 356.737 23.658C356.373 23.602 356.107 23.546 355.939 23.49L355.687 23.616C355.659 23.896 355.533 24.316 355.309 24.876C355.085 25.408 354.973 25.912 354.973 26.388C354.945 26.752 354.889 27.116 354.805 27.48C354.721 27.844 354.665 28.222 354.637 28.614C354.609 29.23 354.441 29.608 354.133 29.748C353.853 29.888 353.419 29.79 352.831 29.454C352.691 29.37 352.551 29.272 352.411 29.16C352.299 29.048 352.173 28.922 352.033 28.782L352.705 25.548C352.817 25.156 352.915 24.792 352.999 24.456C353.083 24.092 353.181 23.742 353.293 23.406C353.517 22.79 353.727 22.16 353.923 21.516C354.147 20.872 354.399 20.27 354.679 19.71C354.679 19.71 354.721 19.57 354.805 19.29C354.917 18.982 355.043 18.646 355.183 18.282C355.323 17.89 355.435 17.582 355.519 17.358C355.603 17.134 355.617 17.092 355.561 17.232C355.645 17.064 355.771 16.742 355.939 16.266C356.107 15.762 356.261 15.286 356.401 14.838C356.569 14.362 356.653 14.11 356.653 14.082C356.709 13.914 356.793 13.802 356.905 13.746C357.017 13.662 357.157 13.62 357.325 13.62C357.801 13.592 358.193 13.704 358.501 13.956C358.809 14.18 358.977 14.46 359.005 14.796C358.977 14.964 358.963 15.118 358.963 15.258C358.963 15.398 358.935 15.51 358.879 15.594L356.695 20.928V21.264C356.975 21.432 357.381 21.46 357.913 21.348C358.473 21.208 358.893 21.138 359.173 21.138C359.313 21.11 359.635 21.082 360.139 21.054C360.671 21.026 361.175 21.012 361.651 21.012C362.155 21.012 362.421 21.026 362.449 21.054C362.757 20.214 363.037 19.43 363.289 18.702C363.541 17.946 363.891 17.176 364.339 16.392C364.367 16.336 364.423 16.154 364.507 15.846C364.619 15.538 364.717 15.286 364.801 15.09ZM372.198 28.614C371.862 28.67 371.498 28.614 371.106 28.446C370.714 28.278 370.364 28.04 370.056 27.732C369.776 27.424 369.594 27.102 369.51 26.766C369.398 26.178 369.468 25.45 369.72 24.582C370 23.686 370.392 22.748 370.896 21.768C371.428 20.76 372.016 19.794 372.66 18.87C373.332 17.946 374.018 17.148 374.718 16.476C375.446 15.776 376.118 15.3 376.734 15.048C377.042 14.852 377.28 14.726 377.448 14.67C377.644 14.586 377.84 14.572 378.036 14.628C378.26 14.684 378.582 14.824 379.002 15.048C379.394 15.16 379.688 15.286 379.884 15.426C380.08 15.566 380.332 15.846 380.64 16.266C380.864 16.686 381.032 17.106 381.144 17.526C381.256 17.946 381.354 18.422 381.438 18.954C381.662 19.654 381.746 20.116 381.69 20.34C381.634 20.536 381.55 20.69 381.438 20.802C381.214 21.082 381.158 21.222 381.27 21.222C381.27 21.222 381.256 21.278 381.228 21.39C381.228 21.474 381.172 21.614 381.06 21.81C380.864 22.426 380.71 23.07 380.598 23.742C380.514 24.386 380.528 24.918 380.64 25.338C380.864 25.954 381.27 26.318 381.858 26.43C382.446 26.542 383.048 26.29 383.664 25.674C383.972 25.45 384.266 25.254 384.546 25.086C384.826 24.89 384.966 24.904 384.966 25.128C384.966 25.128 385.008 25.17 385.092 25.254C385.176 25.31 385.274 25.338 385.386 25.338C385.526 25.338 385.61 25.394 385.638 25.506C385.694 25.618 385.694 25.772 385.638 25.968C385.61 26.136 385.526 26.332 385.386 26.556C384.966 26.976 384.756 27.256 384.756 27.396C384.756 27.396 384.7 27.452 384.588 27.564C384.504 27.648 384.35 27.788 384.126 27.984C383.622 28.292 382.978 28.446 382.194 28.446C381.438 28.446 380.85 28.292 380.43 27.984C380.01 27.676 379.618 27.256 379.254 26.724C378.918 26.192 378.694 25.73 378.582 25.338L378.372 24.918L377.154 25.716C376.846 26.024 376.51 26.318 376.146 26.598C375.81 26.878 375.586 27.074 375.474 27.186C375.39 27.298 375.292 27.396 375.18 27.48C375.096 27.564 374.998 27.606 374.886 27.606C374.774 27.606 374.676 27.606 374.592 27.606C374.508 27.606 374.466 27.606 374.466 27.606C374.466 27.718 374.326 27.858 374.046 28.026C373.794 28.194 373.486 28.334 373.122 28.446C372.786 28.558 372.478 28.614 372.198 28.614ZM371.778 26.346C371.946 26.346 372.24 26.22 372.66 25.968C373.108 25.688 373.598 25.366 374.13 25.002C374.69 24.638 375.18 24.274 375.6 23.91C376.048 23.546 376.356 23.266 376.524 23.07C376.636 22.958 376.818 22.776 377.07 22.524C377.322 22.244 377.546 22.006 377.742 21.81C378.386 21.082 378.834 20.284 379.086 19.416C379.338 18.52 379.31 17.82 379.002 17.316C378.89 17.008 378.75 16.84 378.582 16.812C378.414 16.784 378.064 16.882 377.532 17.106C377.196 17.302 376.776 17.68 376.272 18.24C375.796 18.772 375.278 19.402 374.718 20.13C374.186 20.83 373.682 21.558 373.206 22.314C372.73 23.07 372.338 23.77 372.03 24.414C371.722 25.058 371.568 25.562 371.568 25.926C371.568 26.038 371.596 26.136 371.652 26.22C371.736 26.304 371.778 26.346 371.778 26.346ZM398.504 31.05C398.392 30.994 398.224 30.952 398 30.924C397.804 30.924 397.51 30.924 397.118 30.924C397.006 30.868 396.88 30.784 396.74 30.672C396.6 30.56 396.432 30.378 396.236 30.126C396.292 29.706 396.348 29.3 396.404 28.908C396.488 28.488 396.586 28.096 396.698 27.732C396.922 27.06 397.09 26.374 397.202 25.674C397.342 24.974 397.496 24.274 397.664 23.574L398.63 21.6C398.77 20.9 398.952 20.228 399.176 19.584C399.428 18.912 399.666 18.254 399.89 17.61C400.114 16.994 400.324 16.42 400.52 15.888C400.744 15.328 400.954 14.81 401.15 14.334C401.29 14.054 401.472 13.62 401.696 13.032C401.92 12.416 402.144 11.772 402.368 11.1C402.62 10.428 402.858 9.882 403.082 9.462C403.138 9.322 403.194 9.21 403.25 9.126C403.306 9.014 403.348 8.86 403.376 8.664C403.012 8.692 402.634 8.636 402.242 8.496C401.85 8.356 401.612 8.188 401.528 7.992C401.528 7.964 401.5 7.824 401.444 7.572C401.416 7.32 401.374 7.068 401.318 6.816C401.29 6.564 401.276 6.452 401.276 6.48C401.444 6.34 401.738 6.228 402.158 6.144C402.606 6.06 402.886 6.004 402.998 5.976C403.474 5.752 403.824 5.612 404.048 5.556C404.272 5.472 404.706 5.36 405.35 5.22C405.49 5.192 405.868 5.108 406.484 4.968C407.1 4.828 407.786 4.674 408.542 4.506C409.326 4.338 410.026 4.198 410.642 4.086C411.258 3.946 411.65 3.876 411.818 3.876C412.098 3.848 412.364 3.834 412.616 3.834C412.896 3.834 413.176 3.778 413.456 3.666C413.512 3.61 413.68 3.596 413.96 3.624C414.24 3.624 414.562 3.624 414.926 3.624C415.29 3.596 415.584 3.54 415.808 3.456C416.06 3.372 416.34 3.344 416.648 3.372C416.984 3.372 417.292 3.316 417.572 3.204C417.712 3.12 417.866 3.092 418.034 3.12C418.23 3.148 418.44 3.162 418.664 3.162C419.028 3.358 419.294 3.554 419.462 3.75C419.658 3.918 419.812 4.156 419.924 4.464V5.262C419.7 5.402 419.434 5.584 419.126 5.808C418.818 6.032 418.552 6.172 418.328 6.228C418.188 6.256 418.034 6.298 417.866 6.354C417.726 6.41 417.558 6.494 417.362 6.606C417.054 6.774 416.774 6.872 416.522 6.9C416.298 6.928 416.06 6.886 415.808 6.774C415.696 6.69 415.57 6.648 415.43 6.648C415.318 6.648 415.192 6.634 415.052 6.606C414.996 6.438 414.926 6.312 414.842 6.228C414.786 6.116 414.73 6.032 414.674 5.976C414.618 5.892 414.534 5.822 414.422 5.766C414.002 5.962 413.568 6.032 413.12 5.976C412.672 5.892 412.238 5.948 411.818 6.144C411.398 6.172 410.978 6.214 410.558 6.27C410.166 6.326 409.774 6.424 409.382 6.564C408.962 6.676 408.528 6.76 408.08 6.816C407.66 6.872 407.254 6.998 406.862 7.194C406.47 7.95 406.218 8.454 406.106 8.706C405.994 8.93 405.868 9.196 405.728 9.504C405.392 10.204 405.07 10.918 404.762 11.646C404.454 12.374 404.174 13.102 403.922 13.83L401.696 19.836C401.612 19.976 401.486 20.298 401.318 20.802C401.15 21.278 400.968 21.824 400.772 22.44C400.576 23.028 400.394 23.574 400.226 24.078C400.086 24.582 400.002 24.946 399.974 25.17C399.89 25.674 399.778 26.164 399.638 26.64C399.526 27.116 399.4 27.592 399.26 28.068C399.148 28.46 399.036 28.852 398.924 29.244C398.84 29.608 398.784 30.014 398.756 30.462C398.756 30.546 398.728 30.63 398.672 30.714C398.616 30.826 398.56 30.938 398.504 31.05ZM406.159 38.358C405.487 38.554 404.745 38.582 403.933 38.442C403.149 38.33 402.463 38.092 401.875 37.728C401.259 37.364 400.909 36.958 400.825 36.51C400.797 36.342 400.853 36.16 400.993 35.964C401.105 35.768 401.259 35.628 401.455 35.544C401.623 35.488 401.777 35.544 401.917 35.712C402.141 35.852 402.547 36.02 403.135 36.216C403.723 36.44 404.381 36.482 405.109 36.342C405.753 36.202 406.383 35.824 406.999 35.208C407.643 34.592 408.161 34.018 408.553 33.486C408.777 33.15 409.155 32.548 409.687 31.68C410.219 30.812 410.765 29.86 411.325 28.824C411.913 27.76 412.403 26.78 412.795 25.884C412.879 25.66 412.977 25.394 413.089 25.086C413.201 24.778 413.341 24.526 413.509 24.33C413.677 23.994 413.817 23.686 413.929 23.406C414.069 23.098 414.153 22.888 414.181 22.776C414.209 22.636 414.335 22.356 414.559 21.936C414.783 21.516 414.993 21.096 415.189 20.676C415.329 20.256 415.539 19.64 415.819 18.828C416.099 18.016 416.379 17.358 416.659 16.854C416.995 16.21 417.261 15.692 417.457 15.3C417.681 14.88 417.919 14.628 418.171 14.544C418.423 14.348 418.591 14.25 418.675 14.25C418.787 14.25 418.997 14.334 419.305 14.502C419.641 14.838 419.851 15.174 419.935 15.51C420.019 15.818 419.977 16.21 419.809 16.686C419.669 17.134 419.389 17.75 418.969 18.534C418.745 19.206 418.493 19.822 418.213 20.382C417.961 20.914 417.765 21.264 417.625 21.432C417.485 21.768 417.317 22.146 417.121 22.566C416.953 22.958 416.799 23.322 416.659 23.658C416.155 24.778 415.721 25.688 415.357 26.388C414.993 27.088 414.671 27.732 414.391 28.32C414.111 28.908 413.817 29.594 413.509 30.378C412.865 31.414 412.235 32.394 411.619 33.318C411.031 34.27 410.401 35.152 409.729 35.964C409.449 36.216 409.099 36.51 408.679 36.846C408.259 37.182 407.825 37.49 407.377 37.77C406.957 38.05 406.551 38.246 406.159 38.358ZM411.829 28.278C411.409 28.222 410.989 27.97 410.569 27.522C410.177 27.074 409.869 26.598 409.645 26.094C409.421 25.59 409.337 25.226 409.393 25.002C409.393 24.862 409.393 24.75 409.393 24.666C409.393 24.582 409.393 24.54 409.393 24.54C409.225 24.54 409.071 24.33 408.931 23.91C408.819 23.49 408.735 22.944 408.679 22.272C408.623 21.6 408.581 20.886 408.553 20.13C408.553 19.374 408.581 18.66 408.637 17.988C408.749 17.512 408.805 16.994 408.805 16.434C408.805 15.846 408.819 15.384 408.847 15.048C408.819 14.6 408.861 14.306 408.973 14.166C409.085 13.998 409.197 13.872 409.309 13.788C410.093 13.452 410.611 13.662 410.863 14.418C411.143 15.146 411.213 16.518 411.073 18.534C411.017 19.654 411.017 20.774 411.073 21.894C411.129 23.014 411.283 23.994 411.535 24.834C411.815 25.674 412.193 26.248 412.669 26.556C412.865 26.668 412.963 26.822 412.963 27.018C412.963 27.214 412.907 27.424 412.795 27.648C412.683 27.844 412.529 28.012 412.333 28.152C412.165 28.264 411.997 28.306 411.829 28.278ZM420.189 29.202C419.993 29.09 419.783 29.02 419.559 28.992C419.363 28.964 419.153 28.936 418.929 28.908C418.733 28.712 418.565 28.516 418.425 28.32C418.313 28.096 418.229 27.844 418.173 27.564C418.145 27.396 418.173 27.242 418.257 27.102C418.341 26.962 418.425 26.836 418.509 26.724C418.593 26.724 418.691 26.738 418.803 26.766C418.915 26.766 419.027 26.766 419.139 26.766C419.615 26.402 420.035 26.01 420.399 25.59C420.791 25.142 421.169 24.68 421.533 24.204C421.925 23.672 422.275 23.14 422.583 22.608C422.891 22.048 423.143 21.46 423.339 20.844C423.423 20.592 423.479 20.34 423.507 20.088C423.535 19.808 423.605 19.556 423.717 19.332C423.885 18.996 424.011 18.66 424.095 18.324C424.207 17.96 424.319 17.61 424.431 17.274C424.011 17.19 423.689 17.134 423.465 17.106C423.269 17.05 423.087 16.952 422.919 16.812C422.751 16.672 422.513 16.462 422.205 16.182C422.177 15.79 422.219 15.51 422.331 15.342C422.443 15.146 422.709 14.992 423.129 14.88C423.297 14.824 423.465 14.782 423.633 14.754C423.801 14.698 423.969 14.67 424.137 14.67C424.445 14.642 424.753 14.628 425.061 14.628C425.369 14.628 425.691 14.642 426.027 14.67C426.251 14.698 426.475 14.74 426.699 14.796C426.923 14.852 427.147 14.908 427.371 14.964C427.623 15.048 427.875 15.16 428.127 15.3C428.379 15.412 428.631 15.51 428.883 15.594C429.079 15.622 429.261 15.692 429.429 15.804C429.597 15.916 429.779 16.042 429.975 16.182C430.479 16.49 430.871 16.882 431.151 17.358C431.431 17.806 431.571 18.31 431.571 18.87C431.571 19.738 431.445 20.55 431.193 21.306C431.053 21.838 430.899 22.37 430.731 22.902C430.591 23.434 430.437 23.966 430.269 24.498C430.157 24.862 430.045 25.212 429.933 25.548C429.821 25.884 429.737 26.234 429.681 26.598C429.625 26.906 429.583 27.228 429.555 27.564C429.527 27.9 429.485 28.25 429.429 28.614C429.317 28.642 429.205 28.67 429.093 28.698C429.009 28.726 428.897 28.768 428.757 28.824C428.449 28.712 428.127 28.6 427.791 28.488C427.455 28.348 427.217 28.054 427.077 27.606C427.077 27.55 427.077 27.494 427.077 27.438C427.105 27.354 427.119 27.256 427.119 27.144C427.119 27.06 427.119 26.976 427.119 26.892C427.119 26.808 427.119 26.724 427.119 26.64C427.175 26.136 427.259 25.646 427.371 25.17C427.483 24.666 427.623 24.176 427.791 23.7C428.015 23.14 428.197 22.594 428.337 22.062C428.477 21.502 428.617 20.956 428.757 20.424C428.841 20.172 428.897 19.92 428.925 19.668C428.981 19.388 429.023 19.122 429.051 18.87C429.079 18.562 429.009 18.212 428.841 17.82C428.561 17.596 428.267 17.428 427.959 17.316C427.651 17.176 427.315 17.078 426.951 17.022C426.895 17.218 426.797 17.428 426.657 17.652C426.629 17.708 426.615 17.792 426.615 17.904C426.615 17.988 426.587 18.044 426.531 18.072C426.363 18.184 426.251 18.338 426.195 18.534C426.167 18.702 426.139 18.884 426.111 19.08C426.083 19.22 426.041 19.36 425.985 19.5C425.929 19.64 425.859 19.78 425.775 19.92C425.663 20.032 425.593 20.186 425.565 20.382C425.537 20.55 425.509 20.732 425.481 20.928C425.425 21.348 425.327 21.754 425.187 22.146C425.047 22.538 424.865 22.972 424.641 23.448C424.501 23.644 424.375 23.854 424.263 24.078C424.151 24.274 424.039 24.484 423.927 24.708C423.899 24.82 423.843 24.932 423.759 25.044C423.675 25.128 423.605 25.24 423.549 25.38C423.409 25.66 423.255 25.954 423.087 26.262C422.919 26.542 422.723 26.794 422.499 27.018C422.135 27.382 421.771 27.76 421.407 28.152C421.071 28.544 420.665 28.894 420.189 29.202ZM433.708 29.076C433.428 28.88 433.218 28.698 433.078 28.53C432.938 28.362 432.882 28.124 432.91 27.816C432.966 27.396 433.05 26.962 433.162 26.514C433.274 26.038 433.414 25.576 433.582 25.128C433.666 24.624 433.764 24.12 433.876 23.616C434.016 23.112 434.24 22.636 434.548 22.188C435.024 20.844 435.458 19.542 435.85 18.282C436.27 16.994 436.83 15.482 437.53 13.746C437.67 13.438 437.796 13.214 437.908 13.074C438.048 12.906 438.174 12.738 438.286 12.57C438.314 12.458 438.398 12.402 438.538 12.402C438.706 12.374 438.888 12.402 439.084 12.486C439.28 12.542 439.434 12.64 439.546 12.78C439.658 12.752 439.812 12.934 440.008 13.326C440.232 13.718 440.316 14.026 440.26 14.25C440.26 14.362 440.232 14.516 440.176 14.712C440.12 14.908 440.036 15.09 439.924 15.258C439.812 15.37 439.7 15.538 439.588 15.762C439.476 15.958 439.308 16.224 439.084 16.56C438.804 17.344 438.566 18.002 438.37 18.534C438.174 19.066 437.936 19.668 437.656 20.34C437.46 20.62 437.306 20.998 437.194 21.474C437.082 21.95 436.97 22.412 436.858 22.86C436.662 23.364 436.48 23.826 436.312 24.246C436.172 24.666 436.102 24.932 436.102 25.044C435.906 25.66 435.752 26.276 435.64 26.892C435.528 27.48 435.346 27.998 435.094 28.446C435.066 28.866 434.94 29.146 434.716 29.286C434.52 29.426 434.184 29.356 433.708 29.076ZM443.746 29.748C443.298 29.692 442.962 29.608 442.738 29.496C442.514 29.356 442.094 29.062 441.478 28.614C441.142 28.278 440.68 27.76 440.092 27.06C439.504 26.36 438.916 25.618 438.328 24.834C437.74 24.022 437.25 23.336 436.858 22.776L438.58 20.466C438.944 20.914 439.238 21.334 439.462 21.726C439.686 22.118 439.868 22.384 440.008 22.524C440.652 23.476 441.156 24.246 441.52 24.834C441.912 25.422 442.262 25.898 442.57 26.262C442.878 26.626 443.2 26.948 443.536 27.228C443.9 27.508 444.348 27.802 444.88 28.11C444.964 28.166 445.048 28.25 445.132 28.362C445.216 28.474 445.244 28.642 445.216 28.866C445.104 29.174 444.978 29.37 444.838 29.454C444.726 29.51 444.362 29.608 443.746 29.748ZM436.732 22.314C436.564 21.838 436.62 21.362 436.9 20.886C437.208 20.382 437.544 20.032 437.908 19.836C438.02 19.64 438.132 19.514 438.244 19.458C438.384 19.374 438.468 19.276 438.496 19.164C438.552 19.052 438.692 18.898 438.916 18.702C439.168 18.506 439.392 18.324 439.588 18.156C440.036 17.876 440.54 17.54 441.1 17.148C441.688 16.728 442.248 16.308 442.78 15.888C443.312 15.468 443.76 15.104 444.124 14.796C444.516 14.488 444.754 14.292 444.838 14.208C444.922 14.096 445.034 14.026 445.174 13.998C445.342 13.942 445.552 13.97 445.804 14.082C446.14 14.166 446.364 14.306 446.476 14.502C446.588 14.67 446.644 15.006 446.644 15.51C446.728 15.818 446.602 16.154 446.266 16.518C445.958 16.854 445.482 17.232 444.838 17.652C444.614 17.792 444.306 18.002 443.914 18.282C443.55 18.562 443.228 18.828 442.948 19.08C442.752 19.192 442.458 19.388 442.066 19.668C441.702 19.92 441.38 20.172 441.1 20.424C440.876 20.564 440.582 20.816 440.218 21.18C439.854 21.516 439.49 21.768 439.126 21.936C438.23 22.776 437.642 23.224 437.362 23.28C437.082 23.336 436.872 23.014 436.732 22.314ZM452.324 28.782C452.1 28.838 451.806 28.866 451.442 28.866C451.078 28.838 450.756 28.796 450.476 28.74C450.224 28.656 450.098 28.572 450.098 28.488C450.098 28.348 450.028 28.278 449.888 28.278C449.888 28.278 449.818 28.222 449.678 28.11C449.566 27.998 449.384 27.886 449.132 27.774C448.88 27.382 448.754 26.962 448.754 26.514C448.754 26.038 448.88 25.296 449.132 24.288C449.216 23.588 449.482 22.776 449.93 21.852C450.406 20.9 450.98 19.934 451.652 18.954C452.324 17.974 453.024 17.092 453.752 16.308C454.508 15.524 455.194 14.95 455.81 14.586C456.202 14.194 456.678 13.984 457.238 13.956C457.798 13.928 458.33 14.054 458.834 14.334C459.114 14.474 459.394 14.698 459.674 15.006C459.954 15.314 460.22 15.65 460.472 16.014C460.724 16.378 460.934 16.742 461.102 17.106C461.186 17.414 461.228 17.694 461.228 17.946C461.256 18.17 461.256 18.45 461.228 18.786C461.228 19.122 461.186 19.626 461.102 20.298C460.962 20.802 460.836 21.418 460.724 22.146C460.64 22.874 460.598 23.504 460.598 24.036C460.542 24.568 460.598 24.946 460.766 25.17C460.962 25.394 461.242 25.408 461.606 25.212C461.942 25.044 462.264 24.974 462.572 25.002C462.88 25.002 463.118 25.086 463.286 25.254C463.482 25.422 463.58 25.674 463.58 26.01C463.58 26.346 463.412 26.696 463.076 27.06C462.768 27.396 462.376 27.69 461.9 27.942C461.452 28.166 461.018 28.278 460.598 28.278C460.29 28.278 459.996 28.096 459.716 27.732C459.436 27.34 459.184 26.878 458.96 26.346C458.764 25.786 458.582 25.254 458.414 24.75L458.162 23.784L456.356 25.506C455.992 25.898 455.628 26.262 455.264 26.598C454.928 26.906 454.718 27.13 454.634 27.27C454.494 27.522 454.228 27.774 453.836 28.026C453.472 28.278 452.968 28.53 452.324 28.782ZM452.45 26.304C452.926 26.024 453.472 25.618 454.088 25.086C454.704 24.526 455.306 23.924 455.894 23.28C456.482 22.608 456.972 21.992 457.364 21.432C457.84 20.788 458.204 20.186 458.456 19.626C458.708 19.066 458.89 18.534 459.002 18.03C458.89 17.722 458.708 17.4 458.456 17.064C458.204 16.7 457.98 16.504 457.784 16.476C457.168 16.476 456.51 16.868 455.81 17.652C455.138 18.408 454.48 19.234 453.836 20.13C453.724 20.27 453.57 20.494 453.374 20.802C453.178 21.11 452.982 21.404 452.786 21.684C452.618 21.936 452.506 22.104 452.45 22.188C452.366 22.3 452.198 22.622 451.946 23.154C451.722 23.658 451.498 24.176 451.274 24.708C451.05 25.212 450.938 25.548 450.938 25.716C450.938 25.884 450.952 26.066 450.98 26.262C451.036 26.458 451.176 26.584 451.4 26.64C451.624 26.696 451.974 26.584 452.45 26.304ZM475.649 29.916C475.453 30.028 475.187 29.986 474.851 29.79C474.543 29.594 474.235 29.3 473.927 28.908C473.731 28.572 473.591 28.208 473.507 27.816C473.451 27.424 473.423 26.878 473.423 26.178C473.451 25.618 473.423 25.254 473.339 25.086C473.283 24.918 473.129 24.946 472.877 25.17C472.625 25.366 472.191 25.772 471.575 26.388C470.875 27.088 470.203 27.634 469.559 28.026C468.943 28.418 468.439 28.6 468.047 28.572C467.851 28.572 467.627 28.474 467.375 28.278C467.151 28.054 466.941 27.788 466.745 27.48C466.549 27.144 466.381 26.808 466.241 26.472C466.073 25.856 466.045 25.072 466.157 24.12C466.297 23.14 466.521 22.118 466.829 21.054C467.137 19.99 467.487 18.982 467.879 18.03C468.299 17.078 468.719 16.308 469.139 15.72C469.587 15.132 469.979 14.838 470.315 14.838C470.539 14.838 470.735 14.95 470.903 15.174C471.099 15.398 471.295 15.748 471.491 16.224C471.603 16.42 471.645 16.588 471.617 16.728C471.617 16.868 471.505 17.036 471.281 17.232C471.029 17.568 470.735 18.072 470.399 18.744C470.091 19.416 469.783 20.144 469.475 20.928C469.195 21.712 468.943 22.468 468.719 23.196C468.495 23.924 468.341 24.526 468.257 25.002C468.173 25.45 468.187 25.674 468.299 25.674C468.691 25.674 469.153 25.52 469.685 25.212C470.245 24.876 470.777 24.47 471.281 23.994C471.869 23.406 472.387 22.762 472.835 22.062C473.311 21.362 473.787 20.62 474.263 19.836C474.627 19.276 475.005 18.66 475.397 17.988C475.817 17.316 476.083 16.84 476.195 16.56C476.587 15.832 476.881 15.342 477.077 15.09C477.273 14.81 477.511 14.628 477.791 14.544C477.931 14.544 478.057 14.544 478.169 14.544C478.309 14.544 478.379 14.544 478.379 14.544C478.547 14.572 478.743 14.698 478.967 14.922C479.191 15.034 479.317 15.146 479.345 15.258C479.373 15.342 479.387 15.454 479.387 15.594C479.275 15.874 479.093 16.294 478.841 16.854C478.617 17.386 478.449 17.778 478.337 18.03C477.805 19.234 477.273 20.424 476.741 21.6C476.237 22.748 475.873 23.924 475.649 25.128C475.593 25.52 475.579 25.982 475.607 26.514C475.663 27.018 475.747 27.382 475.859 27.606C475.943 27.774 476.041 27.97 476.153 28.194C476.293 28.39 476.447 28.558 476.615 28.698C476.867 28.866 476.909 29.048 476.741 29.244C476.601 29.44 476.405 29.608 476.153 29.748C475.901 29.86 475.733 29.916 475.649 29.916ZM475.103 12.486C474.235 12.598 473.507 12.346 472.919 11.73C472.331 11.114 471.883 10.204 471.575 9C471.519 8.776 471.491 8.58 471.491 8.412C471.519 8.216 471.575 8.048 471.659 7.908C471.715 7.796 471.827 7.712 471.995 7.656C472.163 7.572 472.303 7.558 472.415 7.614C472.807 7.754 473.087 7.936 473.255 8.16C473.451 8.356 473.577 8.608 473.633 8.916C473.689 9.056 473.717 9.196 473.717 9.336C473.745 9.476 473.759 9.532 473.759 9.504C473.899 9.952 474.081 10.26 474.305 10.428C474.529 10.596 474.865 10.582 475.313 10.386C475.789 10.19 476.251 9.966 476.699 9.714C477.175 9.462 477.595 9.154 477.959 8.79C478.267 8.482 478.561 8.202 478.841 7.95C479.149 7.698 479.443 7.432 479.723 7.152L479.765 7.11C479.877 7.026 480.017 6.998 480.185 7.026C480.353 7.054 480.451 7.096 480.479 7.152C480.675 7.348 480.773 7.544 480.773 7.74C480.773 7.936 480.773 8.146 480.773 8.37L480.731 8.454C480.787 8.622 480.647 8.944 480.311 9.42C480.003 9.896 479.625 10.302 479.177 10.638C478.785 10.946 478.365 11.226 477.917 11.478C477.469 11.73 477.007 11.968 476.531 12.192C476.335 12.304 476.125 12.374 475.901 12.402C475.705 12.402 475.439 12.43 475.103 12.486ZM490.517 29.454C489.565 29.706 488.893 29.832 488.501 29.832C488.109 29.832 487.689 29.636 487.241 29.244C487.101 29.104 487.017 28.964 486.989 28.824C486.961 28.656 486.891 28.558 486.779 28.53C486.751 28.334 486.765 28.18 486.821 28.068C486.905 27.928 487.087 27.802 487.367 27.69C487.787 27.942 488.319 28.012 488.963 27.9C489.607 27.788 490.237 27.55 490.853 27.186C491.497 26.794 492.001 26.332 492.365 25.8C492.925 25.128 493.359 24.498 493.667 23.91C493.975 23.294 494.143 22.748 494.171 22.272C494.171 21.992 494.129 21.796 494.045 21.684C493.989 21.544 493.849 21.334 493.625 21.054C493.121 21.222 492.659 21.418 492.239 21.642C491.847 21.866 491.525 22.104 491.273 22.356C490.433 23.056 489.775 23.63 489.299 24.078C488.851 24.526 488.459 24.974 488.123 25.422C487.815 25.87 487.423 26.472 486.947 27.228C486.723 27.508 486.513 27.718 486.317 27.858C486.149 27.998 485.967 28.068 485.771 28.068C485.855 28.628 485.659 28.964 485.183 29.076C484.567 28.936 484.119 28.754 483.839 28.53C483.559 28.278 483.475 27.802 483.587 27.102C483.699 26.71 483.811 26.248 483.923 25.716C484.035 25.156 484.161 24.694 484.301 24.33C484.973 22.538 485.561 20.942 486.065 19.542C486.597 18.142 487.059 17.148 487.451 16.56L488.375 14.166C488.851 14.194 489.215 14.292 489.467 14.46C489.719 14.6 490.013 14.95 490.349 15.51C490.349 15.65 490.209 16.056 489.929 16.728C489.677 17.372 489.369 18.114 489.005 18.954C488.669 19.794 488.347 20.578 488.039 21.306C487.759 22.006 487.563 22.496 487.451 22.776C487.339 23.084 487.423 23.028 487.703 22.608C488.011 22.188 488.543 21.656 489.299 21.012C489.663 20.648 490.111 20.312 490.643 20.004C491.175 19.668 491.623 19.416 491.987 19.248C492.379 19.08 492.701 18.982 492.953 18.954C493.205 18.926 493.387 18.898 493.499 18.87C494.199 18.87 494.759 19.052 495.179 19.416C495.599 19.752 495.893 20.144 496.061 20.592C496.257 21.04 496.355 21.404 496.355 21.684C496.439 22.132 496.495 22.566 496.523 22.986C496.579 23.378 496.551 23.798 496.439 24.246C496.355 24.47 496.201 24.778 495.977 25.17C495.753 25.562 495.487 25.968 495.179 26.388C494.899 26.78 494.563 27.102 494.171 27.354C493.919 27.606 493.583 27.872 493.163 28.152C492.743 28.432 492.295 28.698 491.819 28.95C491.371 29.174 490.937 29.342 490.517 29.454ZM499.253 30.126C498.749 30.07 498.329 29.916 497.993 29.664C497.685 29.384 497.461 28.978 497.321 28.446C497.321 27.97 497.377 27.536 497.489 27.144C497.629 26.724 497.741 26.318 497.825 25.926C497.965 25.282 498.161 24.638 498.413 23.994C498.665 23.35 498.889 22.706 499.085 22.062C499.253 21.67 499.393 21.292 499.505 20.928C499.617 20.564 499.729 20.2 499.841 19.836C499.981 19.388 500.121 18.954 500.261 18.534C500.401 18.114 500.541 17.694 500.681 17.274C500.793 16.91 500.877 16.532 500.933 16.14C501.017 15.748 501.087 15.356 501.143 14.964C501.451 14.628 501.787 14.488 502.151 14.544C502.543 14.6 503.019 14.922 503.579 15.51C503.719 15.846 503.789 16.154 503.789 16.434C503.789 16.686 503.719 16.952 503.579 17.232C503.467 17.484 503.313 17.862 503.117 18.366C502.949 18.87 502.767 19.374 502.571 19.878C502.403 20.354 502.277 20.718 502.193 20.97C502.137 21.278 501.983 21.782 501.731 22.482C501.507 23.182 501.269 23.91 501.017 24.666C500.765 25.394 500.583 25.982 500.471 26.43C500.303 26.85 500.177 27.256 500.093 27.648C500.009 28.04 499.925 28.53 499.841 29.118C499.897 29.37 499.855 29.58 499.715 29.748C499.603 29.888 499.449 30.014 499.253 30.126ZM503.676 39.408C503.564 39.408 503.424 39.408 503.256 39.408C503.088 39.436 502.934 39.324 502.794 39.072C502.682 38.932 502.612 38.722 502.584 38.442C502.584 38.162 502.654 37.658 502.794 36.93C502.934 36.454 503.046 35.978 503.13 35.502C503.214 35.054 503.256 34.718 503.256 34.494C503.256 34.382 503.284 34.158 503.34 33.822C503.424 33.514 503.466 33.29 503.466 33.15C503.606 32.926 503.718 32.618 503.802 32.226C503.886 31.834 503.928 31.484 503.928 31.176C503.928 30.84 504.096 30.532 504.432 30.252C504.432 30.028 504.474 29.748 504.558 29.412C504.67 29.076 504.726 28.852 504.726 28.74C504.81 28.348 504.992 27.662 505.272 26.682C505.58 25.674 505.944 24.54 506.364 23.28C506.812 22.02 507.246 20.788 507.666 19.584C508.086 18.38 508.464 17.358 508.8 16.518C509.136 15.734 509.36 15.062 509.472 14.502C509.612 13.914 509.682 13.48 509.682 13.2C509.682 13.088 509.71 13.004 509.766 12.948C509.822 12.864 509.948 12.71 510.144 12.486C510.424 12.206 510.662 12.122 510.858 12.234C511.082 12.346 511.348 12.514 511.656 12.738C511.88 13.102 512.034 13.41 512.118 13.662C512.23 13.914 512.23 14.348 512.118 14.964C512.118 15.384 512.048 15.748 511.908 16.056C511.768 16.364 511.642 16.602 511.53 16.77C511.418 16.91 511.39 16.966 511.446 16.938C512.594 16.406 513.602 16.126 514.47 16.098C515.366 16.042 516.108 16.196 516.696 16.56C517.312 16.896 517.774 17.372 518.082 17.988C518.39 18.604 518.544 19.318 518.544 20.13C518.544 20.466 518.474 20.872 518.334 21.348C518.194 21.796 518.012 22.216 517.788 22.608C517.592 22.972 517.41 23.238 517.242 23.406C517.13 23.406 517.018 23.504 516.906 23.7C516.794 23.868 516.682 24.064 516.57 24.288C516.346 24.568 515.982 24.89 515.478 25.254C515.002 25.59 514.526 25.87 514.05 26.094C513.574 26.29 513.224 26.346 513 26.262C513 26.262 512.958 26.276 512.874 26.304C512.818 26.304 512.79 26.374 512.79 26.514C512.79 26.57 512.566 26.696 512.118 26.892C511.67 27.06 511.152 27.228 510.564 27.396C509.976 27.536 509.458 27.606 509.01 27.606C508.422 27.606 508.002 27.494 507.75 27.27C507.694 27.326 507.624 27.41 507.54 27.522C507.484 27.634 507.456 27.732 507.456 27.816C507.456 27.984 507.386 28.306 507.246 28.782C507.134 29.23 506.994 29.664 506.826 30.084C506.658 30.504 506.504 30.714 506.364 30.714C506.364 30.714 506.336 30.756 506.28 30.84C506.224 30.924 506.252 31.036 506.364 31.176C506.364 31.176 506.35 31.33 506.322 31.638C506.322 31.974 506.252 32.254 506.112 32.478C506.112 32.702 506.07 33.038 505.986 33.486C505.902 33.934 505.804 34.27 505.692 34.494C505.692 34.83 505.636 35.152 505.524 35.46C505.44 35.796 505.342 35.964 505.23 35.964C505.118 35.992 505.048 36.16 505.02 36.468C504.992 36.804 504.978 37.042 504.978 37.182C504.95 37.882 504.81 38.428 504.558 38.82C504.306 39.212 504.012 39.408 503.676 39.408ZM508.758 25.38C508.982 25.38 509.444 25.282 510.144 25.086C510.844 24.89 511.558 24.652 512.286 24.372C513.042 24.064 513.602 23.756 513.966 23.448C514.694 22.804 515.254 22.076 515.646 21.264C516.066 20.424 516.038 19.626 515.562 18.87C515.338 18.478 514.932 18.324 514.344 18.408C513.756 18.464 513.112 18.688 512.412 19.08C511.712 19.472 511.054 19.962 510.438 20.55C510.102 20.914 509.794 21.362 509.514 21.894C509.234 22.426 508.996 22.958 508.8 23.49C508.632 24.022 508.534 24.47 508.506 24.834C508.478 25.198 508.562 25.38 508.758 25.38Z" fill="#020202"/>
</svg>
