<svg width="387" height="42" viewBox="0 0 387 42" fill="none" xmlns="http://www.w3.org/2000/svg">
<path d="M4.19998 30.9541C3.77998 30.7861 3.34598 30.6041 2.89798 30.4081C2.47798 30.2121 2.07198 29.9181 1.67998 29.5261C1.31598 29.1621 0.993975 28.6441 0.713976 27.9721C0.433975 27.1601 0.237975 26.3621 0.125975 25.5781C0.0419754 24.7941 0.0139753 23.8841 0.0419752 22.8481C0.0419752 21.3921 0.139975 20.1321 0.335975 19.0681C0.559976 17.9761 0.895976 16.8701 1.34398 15.75C1.39998 15.6661 1.49798 15.4281 1.63798 15.0361C1.80598 14.616 1.98798 14.168 2.18398 13.692C2.40798 13.2161 2.57598 12.8521 2.68798 12.6001C2.91198 12.124 3.24798 11.494 3.69598 10.71C4.17198 9.89805 4.67598 9.11405 5.20798 8.35805C6.01998 7.15405 6.69198 6.20205 7.22398 5.50205C7.75598 4.80205 8.25998 4.21405 8.73598 3.73805C9.21198 3.26205 9.74398 2.81405 10.332 2.39405C10.948 1.94605 11.732 1.40005 12.684 0.756049C13.3 0.30805 13.972 0.0700501 14.7 0.0420505C15.456 0.0140492 16.156 0.182049 16.8 0.546049C17.444 0.88205 17.92 1.38605 18.228 2.05805C18.536 2.64605 18.69 3.36005 18.69 4.20005C18.69 5.01205 18.564 5.88005 18.312 6.80405C18.06 7.70005 17.71 8.55405 17.262 9.36605C16.814 10.178 16.296 10.85 15.708 11.382C15.344 11.718 15.008 11.844 14.7 11.76C14.42 11.6761 14.084 11.4521 13.692 11.088C13.44 10.612 13.3 10.3321 13.272 10.2481C13.272 10.164 13.328 10.108 13.44 10.0801C13.608 9.88405 13.832 9.54805 14.112 9.07205C14.392 8.59605 14.672 8.09205 14.952 7.56005C15.232 7.00005 15.428 6.55205 15.54 6.21605C15.764 5.04005 15.918 4.21405 16.002 3.73805C16.086 3.23405 16.002 2.85605 15.75 2.60405C15.638 2.49205 15.47 2.45005 15.246 2.47805C15.05 2.50605 14.714 2.64605 14.238 2.89805C13.594 3.17805 12.754 3.80805 11.718 4.78805C10.682 5.74005 9.72998 6.80405 8.86198 7.98005C7.74198 9.46405 6.80398 10.78 6.04798 11.9281C5.29198 13.0761 4.71798 14.2521 4.32598 15.456C4.26998 15.5681 4.17198 15.7781 4.03198 16.0861C3.91998 16.3941 3.86398 16.5481 3.86398 16.5481C3.89198 16.6601 3.84998 16.94 3.73798 17.388C3.62598 17.8081 3.49998 18.1721 3.35998 18.4801C3.05198 19.7681 2.86998 21.1121 2.81398 22.5121C2.75798 23.8841 2.82798 25.1021 3.02398 26.1661C3.24798 27.2301 3.56998 27.9721 3.98998 28.3921C4.35398 28.6441 4.84398 28.7281 5.45998 28.6441C6.10398 28.5601 6.83198 28.3641 7.64398 28.0561C8.45598 27.7481 9.28198 27.4121 10.122 27.0481C10.794 26.7681 11.41 26.4601 11.97 26.1241C12.53 25.7881 12.95 25.4941 13.23 25.2421C13.454 25.0741 13.734 24.9061 14.07 24.7381C14.434 24.5421 14.742 24.4441 14.994 24.4441C15.386 24.3041 15.61 24.2481 15.666 24.2761C15.722 24.3041 15.75 24.4301 15.75 24.6541C15.75 25.0461 15.526 25.4801 15.078 25.9561C14.658 26.4321 14.112 26.8661 13.44 27.2581C13.216 27.4821 12.922 27.7201 12.558 27.9721C12.194 28.2241 11.816 28.4201 11.424 28.5601C10.836 29.0081 10.108 29.4421 9.23998 29.8621C8.37198 30.2821 7.48998 30.6041 6.59398 30.8281C5.72598 31.0521 4.92798 31.0941 4.19998 30.9541ZM28.5124 36.9601C27.8404 37.1561 27.0984 37.1841 26.2864 37.0441C25.5024 36.9321 24.8164 36.6941 24.2284 36.3301C23.6124 35.9661 23.2624 35.5601 23.1784 35.1121C23.1504 34.9441 23.2064 34.7621 23.3464 34.5661C23.4584 34.3701 23.6124 34.2301 23.8084 34.1461C23.9764 34.0901 24.1304 34.1461 24.2704 34.3141C24.4944 34.4541 24.9004 34.6221 25.4884 34.8181C26.0764 35.0421 26.7344 35.0841 27.4624 34.9441C28.1064 34.8041 28.7364 34.4261 29.3524 33.8101C29.9964 33.1941 30.5144 32.6201 30.9064 32.0881C31.1304 31.7521 31.5084 31.1501 32.0404 30.2821C32.5724 29.4141 33.1184 28.4621 33.6784 27.4261C34.2664 26.3621 34.7564 25.3821 35.1484 24.4861C35.2324 24.2621 35.3304 23.9961 35.4424 23.6881C35.5544 23.3801 35.6944 23.1281 35.8624 22.9321C36.0304 22.5961 36.1704 22.2881 36.2824 22.0081C36.4224 21.7001 36.5064 21.4901 36.5344 21.3781C36.5624 21.2381 36.6884 20.9581 36.9124 20.5381C37.1364 20.1181 37.3464 19.6981 37.5424 19.2781C37.6824 18.8581 37.8924 18.2421 38.1724 17.4301C38.4524 16.6181 38.7324 15.96 39.0124 15.456C39.3484 14.812 39.6144 14.294 39.8104 13.902C40.0344 13.4821 40.2724 13.2301 40.5244 13.146C40.7764 12.95 40.9444 12.852 41.0284 12.852C41.1404 12.852 41.3504 12.936 41.6584 13.1041C41.9944 13.44 42.2044 13.776 42.2884 14.112C42.3724 14.42 42.3304 14.8121 42.1624 15.2881C42.0224 15.736 41.7424 16.352 41.3224 17.1361C41.0984 17.8081 40.8464 18.4241 40.5664 18.9841C40.3144 19.5161 40.1184 19.8661 39.9784 20.0341C39.8384 20.3701 39.6704 20.7481 39.4744 21.1681C39.3064 21.5601 39.1524 21.9241 39.0124 22.2601C38.5084 23.3801 38.0744 24.2901 37.7104 24.9901C37.3464 25.6901 37.0244 26.3341 36.7444 26.9221C36.4644 27.5101 36.1704 28.1961 35.8624 28.9801C35.2184 30.0161 34.5884 30.9961 33.9724 31.9201C33.3844 32.8721 32.7544 33.7541 32.0824 34.5661C31.8024 34.8181 31.4524 35.1121 31.0324 35.4481C30.6124 35.7841 30.1784 36.0921 29.7304 36.3721C29.3104 36.6521 28.9044 36.8481 28.5124 36.9601ZM34.1824 26.8801C33.7624 26.8241 33.3424 26.5721 32.9224 26.1241C32.5304 25.6761 32.2224 25.2001 31.9984 24.6961C31.7744 24.1921 31.6904 23.8281 31.7464 23.6041C31.7464 23.4641 31.7464 23.3521 31.7464 23.2681C31.7464 23.1841 31.7464 23.1421 31.7464 23.1421C31.5784 23.1421 31.4244 22.9321 31.2844 22.5121C31.1724 22.0921 31.0884 21.5461 31.0324 20.8741C30.9764 20.2021 30.9344 19.4881 30.9064 18.7321C30.9064 17.976 30.9344 17.262 30.9904 16.5901C31.1024 16.1141 31.1584 15.5961 31.1584 15.0361C31.1584 14.4481 31.1724 13.9861 31.2004 13.6501C31.1724 13.2021 31.2144 12.9081 31.3264 12.7681C31.4384 12.6001 31.5504 12.4741 31.6624 12.3901C32.4464 12.054 32.9644 12.264 33.2164 13.02C33.4964 13.748 33.5664 15.12 33.4264 17.1361C33.3704 18.2561 33.3704 19.3761 33.4264 20.4961C33.4824 21.6161 33.6364 22.5961 33.8884 23.4361C34.1684 24.2761 34.5464 24.8501 35.0224 25.1581C35.2184 25.2701 35.3164 25.4241 35.3164 25.6201C35.3164 25.8161 35.2604 26.0261 35.1484 26.2501C35.0364 26.4461 34.8824 26.6141 34.6864 26.7541C34.5184 26.8661 34.3504 26.9081 34.1824 26.8801ZM47.3629 28.4761C46.9429 28.4761 46.4109 28.4481 45.7669 28.3921C45.1509 28.3361 44.6189 27.9441 44.1709 27.2161C43.8909 26.7401 43.6809 26.1941 43.5409 25.5781C43.4289 24.9621 43.4289 24.5281 43.5409 24.2761C43.9329 22.1201 44.2409 20.6361 44.4649 19.8241C44.6889 19.0121 44.8149 18.5501 44.8429 18.4381C44.8989 18.3261 45.0109 18.0601 45.1789 17.6401C45.3749 17.1921 45.4869 16.9121 45.5149 16.8001C45.6549 16.352 45.6969 15.8481 45.6409 15.2881C45.6129 15.0641 45.6269 14.868 45.6829 14.7C45.7669 14.504 45.8929 14.336 46.0609 14.196C46.5369 13.8321 46.9149 13.3561 47.1949 12.7681C47.2789 12.5721 47.4329 12.2361 47.6569 11.76C47.9089 11.256 48.1609 10.766 48.4129 10.29C48.6929 9.78605 48.9029 9.43605 49.0429 9.24005C49.4909 8.68005 49.8969 8.09205 50.2609 7.47605C50.6529 6.83205 51.1289 6.27205 51.6889 5.79605C52.0529 5.18005 52.5149 4.62005 53.0749 4.11605C53.6349 3.58405 54.1949 3.09405 54.7549 2.64605C55.3149 2.19805 55.7629 1.80605 56.0989 1.47005C56.2389 1.33005 56.6169 1.20405 57.2329 1.09205C57.8769 0.95205 58.3949 0.82605 58.7869 0.714049C58.9549 0.630049 59.2769 0.700049 59.7529 0.924049C60.2289 1.12005 60.5649 1.34405 60.7609 1.59605C61.1249 2.21205 61.3349 2.71605 61.3909 3.10805C61.4749 3.50005 61.4189 3.96205 61.2229 4.49405C61.0549 4.99805 60.7189 5.78205 60.2149 6.84605C59.6549 7.96605 58.8569 9.03005 57.8209 10.038C56.8129 11.0181 55.7769 11.8721 54.7129 12.6001C54.1809 13.076 53.6209 13.51 53.0329 13.902C52.4729 14.294 51.8989 14.644 51.3109 14.9521C50.9469 15.1481 50.5689 15.3301 50.1769 15.4981C49.8129 15.6661 49.4349 15.82 49.0429 15.96C48.8469 16.016 48.6649 16.128 48.4969 16.2961C48.3289 16.4361 48.1889 16.646 48.0769 16.926C47.9089 17.3181 47.8109 17.6541 47.7829 17.9341C47.7829 18.1861 47.6989 18.3961 47.5309 18.5641C47.4469 18.6481 47.3209 18.9841 47.1529 19.5721C47.0129 20.1321 46.8449 20.8041 46.6489 21.5881C46.4809 22.3441 46.3409 23.0581 46.2289 23.7301C46.1169 24.3741 46.0749 24.8081 46.1029 25.0321C46.1309 25.1721 46.1589 25.3261 46.1869 25.4941C46.2429 25.6341 46.3689 25.7461 46.5649 25.8301C46.9849 25.7461 47.3209 25.6061 47.5729 25.4101C47.8249 25.1861 48.1049 24.8921 48.4129 24.5281C48.7489 24.1081 49.0569 23.6601 49.3369 23.1841C49.6449 22.7081 49.8969 22.2181 50.0929 21.7141C50.2049 21.4061 50.2889 21.0841 50.3449 20.7481C50.4009 20.3841 50.4989 20.0621 50.6389 19.7821C50.6389 19.1381 50.6249 18.6621 50.5969 18.3541C50.5969 18.0181 50.5689 17.7521 50.5129 17.5561C50.4849 17.332 50.4149 17.08 50.3029 16.8001C50.5269 16.6601 50.6529 16.5481 50.6809 16.4641C50.7369 16.3801 50.8629 16.366 51.0589 16.422C51.4229 16.5061 51.7589 16.6461 52.0669 16.8421C52.4029 17.0381 52.7249 17.2901 53.0329 17.598C53.1449 17.71 53.2149 17.8221 53.2429 17.9341C53.2709 18.0461 53.2569 18.1721 53.2009 18.3121C53.1729 18.6481 53.1309 18.9841 53.0749 19.3201C53.0469 19.6281 53.0329 19.9361 53.0329 20.2441C52.8369 20.6081 52.7109 21.0001 52.6549 21.4201C52.5989 21.8121 52.5009 22.2041 52.3609 22.5961C52.1929 22.9601 52.0249 23.3241 51.8569 23.6881C51.6889 24.0521 51.4929 24.3881 51.2689 24.6961C50.9329 25.3121 50.5409 25.8581 50.0929 26.3341C49.6729 26.8101 49.2249 27.2441 48.7489 27.6361L47.3629 28.4761ZM49.2949 12.9781C49.6309 13.0341 49.8689 13.0481 50.0089 13.02C50.1769 12.964 50.3449 12.824 50.5129 12.6001C51.8289 11.732 53.0329 10.878 54.1249 10.038C55.2169 9.17005 56.1269 8.34405 56.8549 7.56005C57.6109 6.74805 58.1009 6.03405 58.3249 5.41805C58.4649 5.11005 58.6189 4.81605 58.7869 4.53605C58.9829 4.25605 59.1089 3.93405 59.1649 3.57005L58.9969 2.39405C58.2129 2.75805 57.5829 3.09405 57.1069 3.40205C56.6589 3.71005 56.0709 4.22805 55.3429 4.95605C55.0629 5.23605 54.6429 5.71205 54.0829 6.38405C53.5509 7.02805 52.9629 7.75605 52.3189 8.56805C51.6749 9.38005 51.0729 10.1781 50.5129 10.9621C49.9809 11.7461 49.5749 12.4181 49.2949 12.9781ZM59.9527 27.3841C59.7287 27.4401 59.4347 27.4681 59.0707 27.4681C58.7067 27.4401 58.3847 27.3981 58.1047 27.3421C57.8527 27.2581 57.7267 27.1741 57.7267 27.0901C57.7267 26.9501 57.6567 26.8801 57.5167 26.8801C57.5167 26.8801 57.4467 26.8241 57.3067 26.7121C57.1947 26.6001 57.0127 26.4881 56.7607 26.3761C56.5087 25.9841 56.3827 25.5641 56.3827 25.1161C56.3827 24.6401 56.5087 23.8981 56.7607 22.8901C56.8447 22.1901 57.1107 21.3781 57.5587 20.4541C58.0347 19.5021 58.6087 18.5361 59.2807 17.5561C59.9527 16.5761 60.6527 15.6941 61.3807 14.9101C62.1367 14.1261 62.8227 13.5521 63.4387 13.1881C63.8307 12.7961 64.3067 12.5861 64.8667 12.558C65.4267 12.53 65.9587 12.656 66.4627 12.936C66.7427 13.076 67.0227 13.3 67.3027 13.608C67.5827 13.9161 67.8487 14.2521 68.1007 14.6161C68.3527 14.9801 68.5627 15.344 68.7307 15.7081C68.8147 16.0161 68.8567 16.2961 68.8567 16.5481C68.8847 16.7721 68.8847 17.0521 68.8567 17.388C68.8567 17.724 68.8147 18.228 68.7307 18.9001C68.5907 19.4041 68.4647 20.0201 68.3527 20.7481C68.2687 21.4761 68.2267 22.1061 68.2267 22.6381C68.1707 23.1701 68.2267 23.5481 68.3947 23.7721C68.5907 23.9961 68.8707 24.0101 69.2347 23.8141C69.5707 23.6461 69.8927 23.5761 70.2007 23.6041C70.5087 23.6041 70.7467 23.6881 70.9147 23.8561C71.1107 24.0241 71.2087 24.2761 71.2087 24.6121C71.2087 24.9481 71.0407 25.2981 70.7047 25.6621C70.3967 25.9981 70.0047 26.2921 69.5287 26.5441C69.0807 26.7681 68.6467 26.8801 68.2267 26.8801C67.9187 26.8801 67.6247 26.6981 67.3447 26.3341C67.0647 25.9421 66.8127 25.4801 66.5887 24.9481C66.3927 24.3881 66.2107 23.8561 66.0427 23.3521L65.7907 22.3861L63.9847 24.1081C63.6207 24.5001 63.2567 24.8641 62.8927 25.2001C62.5567 25.5081 62.3467 25.7321 62.2627 25.8721C62.1227 26.1241 61.8567 26.3761 61.4647 26.6281C61.1007 26.8801 60.5967 27.1321 59.9527 27.3841ZM60.0787 24.9061C60.5547 24.6261 61.1007 24.2201 61.7167 23.6881C62.3327 23.1281 62.9347 22.5261 63.5227 21.8821C64.1107 21.2101 64.6007 20.5941 64.9927 20.0341C65.4687 19.3901 65.8327 18.7881 66.0847 18.2281C66.3367 17.6681 66.5187 17.136 66.6307 16.632C66.5187 16.3241 66.3367 16.0021 66.0847 15.666C65.8327 15.3021 65.6087 15.1061 65.4127 15.078C64.7967 15.078 64.1387 15.4701 63.4387 16.2541C62.7667 17.0101 62.1087 17.8361 61.4647 18.7321C61.3527 18.8721 61.1987 19.0961 61.0027 19.4041C60.8067 19.7121 60.6107 20.0061 60.4147 20.2861C60.2467 20.5381 60.1347 20.7061 60.0787 20.7901C59.9947 20.9021 59.8267 21.2241 59.5747 21.7561C59.3507 22.2601 59.1267 22.7781 58.9027 23.3101C58.6787 23.8141 58.5667 24.1501 58.5667 24.3181C58.5667 24.4861 58.5807 24.6681 58.6087 24.8641C58.6647 25.0601 58.8047 25.1861 59.0287 25.2421C59.2527 25.2981 59.6027 25.1861 60.0787 24.9061ZM72.4421 28.7701C72.3581 28.7421 72.2601 28.7281 72.1481 28.7281C72.0641 28.7281 71.9801 28.7281 71.8961 28.7281C71.7841 28.4761 71.6021 28.2661 71.3501 28.0981C71.0981 27.9301 70.9021 27.7341 70.7621 27.5101C70.5941 27.2021 70.5801 26.9501 70.7201 26.7541C70.8881 26.5301 71.0841 26.3201 71.3081 26.1241C71.5601 25.9001 71.7421 25.6481 71.8541 25.3681C72.0221 25.2841 72.3441 25.0601 72.8201 24.6961C73.2961 24.3321 73.8421 23.8981 74.4581 23.3941C75.0741 22.8901 75.6901 22.3721 76.3061 21.8401C76.9221 21.2801 77.4681 20.7761 77.9441 20.3281C78.4201 19.8801 78.7421 19.5581 78.9101 19.3621C78.8821 19.3341 78.8541 19.3061 78.8261 19.2781C78.7981 19.2501 78.7561 19.2221 78.7001 19.1941C78.5321 18.7741 78.2661 18.3121 77.9021 17.8081C77.5381 17.2761 77.1601 16.7581 76.7681 16.2541C76.4041 15.7221 76.1101 15.26 75.8861 14.868C75.7181 14.56 75.5781 14.266 75.4661 13.986C75.3821 13.7061 75.2701 13.4261 75.1301 13.146C75.1861 13.0341 75.2421 12.9221 75.2981 12.8101C75.3821 12.698 75.4381 12.5861 75.4661 12.4741C76.0261 12.4461 76.4741 12.53 76.8101 12.726C77.1461 12.922 77.5241 13.188 77.9441 13.524C78.0561 13.6081 78.2521 13.8881 78.5321 14.3641C78.8121 14.84 79.1201 15.386 79.4561 16.0021C79.8201 16.5901 80.1841 17.1221 80.5481 17.598C80.9121 18.0461 81.2341 18.3121 81.5141 18.3961C81.7101 17.8921 81.8921 17.2621 82.0601 16.5061C82.2561 15.75 82.4241 14.994 82.5641 14.2381C82.7321 13.4821 82.8441 12.8381 82.9001 12.3061C83.0121 12.1661 83.1101 12.0541 83.1941 11.97C83.3061 11.8581 83.4181 11.7461 83.5301 11.6341C83.9221 11.7461 84.2441 11.9141 84.4961 12.138C84.7481 12.334 85.0421 12.53 85.3781 12.726C85.3781 13.846 85.1961 15.008 84.8321 16.2121C84.4961 17.4161 84.2161 18.5501 83.9921 19.6141C83.9921 19.6421 83.9921 19.6841 83.9921 19.7401C83.9921 19.7681 84.0061 19.7961 84.0341 19.8241C84.6781 19.5161 85.3501 19.0961 86.0501 18.5641C86.7781 18.0321 87.4921 17.4721 88.1921 16.8841C88.9201 16.2961 89.5641 15.7921 90.1241 15.372C90.4041 14.9521 90.7541 14.5741 91.1741 14.2381C91.5941 13.8741 91.9441 13.4821 92.2241 13.0621C92.3641 13.0621 92.4901 13.0621 92.6021 13.0621C92.7141 13.0621 92.8261 13.0621 92.9381 13.0621C93.0781 13.174 93.2601 13.328 93.4841 13.524C93.7081 13.72 93.9181 13.972 94.1141 14.28C94.0861 14.476 94.0441 14.6581 93.9881 14.8261C93.9321 14.994 93.8341 15.1481 93.6941 15.2881C92.9941 15.9881 92.2521 16.66 91.4681 17.304C90.7121 17.9201 89.8581 18.5921 88.9061 19.3201C88.4301 19.6841 87.9401 20.0201 87.4361 20.3281C86.9601 20.6361 86.5121 21.0001 86.0921 21.4201C86.5961 21.7561 87.1701 22.2041 87.8141 22.7641C88.4861 23.3241 89.1161 23.8981 89.7041 24.4861C90.3201 25.0741 90.8101 25.6201 91.1741 26.1241C91.4541 26.4881 91.5521 26.8241 91.4681 27.1321C91.3841 27.4401 91.1881 27.6781 90.8801 27.8461C90.6001 28.0141 90.2921 28.0981 89.9561 28.0981C89.6201 28.0981 89.3401 27.9861 89.1161 27.7621C88.8081 27.4541 88.5141 27.1321 88.2341 26.7961C87.9541 26.4321 87.6601 26.0961 87.3521 25.7881C86.7641 25.2001 86.1481 24.5561 85.5041 23.8561C84.8601 23.1561 84.2161 22.5401 83.5721 22.0081C83.5441 21.9521 83.5021 21.9241 83.4461 21.9241C83.4181 21.8961 83.3761 21.8681 83.3201 21.8401C83.0961 22.4841 82.8581 23.2261 82.6061 24.0661C82.3541 24.8781 82.1721 25.6341 82.0601 26.3341C82.0041 26.7541 81.8501 27.0901 81.5981 27.3421C81.3461 27.5941 81.0241 27.7901 80.6321 27.9301C80.3801 27.7621 80.1421 27.5941 79.9181 27.4261C79.7221 27.2581 79.5121 27.0761 79.2881 26.8801C79.1201 26.7121 79.1061 26.3481 79.2461 25.7881C79.3861 25.2281 79.5821 24.5981 79.8341 23.8981C80.0861 23.1981 80.2961 22.5681 80.4641 22.0081C80.6321 21.4481 80.6741 21.0841 80.5901 20.9161C80.3941 21.1121 80.0441 21.4621 79.5401 21.9661C79.0361 22.4421 78.4761 22.9601 77.8601 23.5201C77.2721 24.0801 76.7261 24.5841 76.2221 25.0321C75.7461 25.4801 75.4241 25.7461 75.2561 25.8301C74.9761 26.2501 74.5281 26.7681 73.9121 27.3841C73.3241 28.0001 72.8341 28.4621 72.4421 28.7701ZM97.6313 27.5941C96.5393 27.1461 95.8253 26.5301 95.4893 25.7461C95.1813 24.9341 95.1253 23.6881 95.3213 22.0081C95.3773 21.1401 95.4053 20.5661 95.4053 20.2861C95.4053 20.0061 95.2513 19.7261 94.9433 19.4461C94.8593 19.3341 94.7053 19.1801 94.4813 18.9841C94.2853 18.7881 94.2013 18.6201 94.2293 18.4801C94.2013 18.2841 94.2153 18.0741 94.2713 17.8501C94.3273 17.5981 94.4113 17.4721 94.5233 17.4721C94.6353 17.4721 94.7473 17.4441 94.8593 17.388C94.9993 17.332 95.1253 17.332 95.2373 17.388C95.3493 17.388 95.4753 17.4021 95.6153 17.4301C95.7553 17.4581 95.8253 17.5281 95.8253 17.6401C95.9373 17.8361 96.1193 17.8641 96.3713 17.7241C96.6233 17.5561 96.8893 17.192 97.1693 16.632C97.4493 16.184 97.8133 15.736 98.2613 15.2881C98.7373 14.8401 99.1993 14.4341 99.6473 14.0701C100.123 13.6781 100.515 13.3981 100.823 13.23C100.963 13.174 101.173 13.104 101.453 13.02C101.733 12.9361 102.027 12.8661 102.335 12.8101C102.671 12.754 102.951 12.7401 103.175 12.7681C103.679 12.7961 104.099 12.9361 104.435 13.1881C104.799 13.4401 105.135 13.7341 105.443 14.0701C105.807 14.3221 106.031 14.6581 106.115 15.078C106.227 15.4981 106.255 15.9461 106.199 16.422C106.143 16.8981 106.017 17.3321 105.821 17.7241C105.737 18.0041 105.499 18.3401 105.107 18.7321C104.715 19.1241 104.267 19.5021 103.763 19.8661C103.259 20.2301 102.797 20.4961 102.377 20.6641C102.013 20.7481 101.537 20.8181 100.949 20.8741C100.389 20.9301 99.8573 20.9581 99.3533 20.9581C98.8773 20.9301 98.5553 20.8741 98.3873 20.7901C98.1913 20.6781 98.0373 20.8321 97.9253 21.2521C97.8133 21.6721 97.7293 22.2741 97.6733 23.0581C97.6173 23.6741 97.6173 24.1221 97.6733 24.4021C97.7293 24.6821 97.7853 24.8781 97.8413 24.9901C98.0373 25.1861 98.3033 25.4381 98.6393 25.7461C99.0033 26.0261 99.5073 26.0681 100.151 25.8721C100.683 25.7321 101.201 25.3681 101.705 24.7801C102.237 24.1921 102.727 23.7161 103.175 23.3521C103.287 23.1561 103.469 23.0441 103.721 23.0161C104.001 22.9601 104.295 22.9741 104.603 23.0581C104.911 23.2541 105.037 23.4921 104.981 23.7721C104.953 24.0241 104.813 24.4161 104.561 24.9481C104.477 25.1441 104.281 25.3961 103.973 25.7041C103.693 25.9841 103.371 26.2781 103.007 26.5861C102.671 26.8661 102.363 27.0901 102.083 27.2581C101.243 27.7061 100.459 27.9441 99.7313 27.9721C99.0033 27.9721 98.3033 27.8461 97.6313 27.5941ZM100.109 19.0681C100.725 18.9281 101.215 18.8301 101.579 18.7741C101.943 18.7181 102.293 18.5641 102.629 18.3121C102.965 18.0321 103.385 17.5141 103.889 16.7581C104.001 16.4501 104.029 16.1421 103.973 15.834C103.945 15.526 103.875 15.316 103.763 15.2041C103.511 14.924 103.203 14.84 102.839 14.9521C102.503 15.036 102.181 15.19 101.873 15.4141C101.677 15.4981 101.383 15.708 100.991 16.044C100.627 16.352 100.263 16.7161 99.8993 17.1361C99.5353 17.5281 99.2413 17.8921 99.0173 18.2281C98.7933 18.5641 98.7373 18.7601 98.8493 18.8161C98.7933 18.9281 98.9473 18.9981 99.3113 19.0261C99.7033 19.0541 99.9693 19.0681 100.109 19.0681ZM110.533 27.6361C110.337 27.5801 110.071 27.5241 109.735 27.4681C109.399 27.4121 109.091 27.3141 108.811 27.1741C108.559 27.0061 108.433 26.7961 108.433 26.5441C108.433 26.3201 108.447 26.1241 108.475 25.9561C108.531 25.7601 108.643 25.5921 108.811 25.4521C108.839 25.3961 108.853 25.3541 108.853 25.3261C108.853 25.2981 108.867 25.2701 108.895 25.2421C108.895 25.1021 108.867 24.9761 108.811 24.8641C108.755 24.7521 108.755 24.6121 108.811 24.4441C108.923 24.1361 109.007 23.8841 109.063 23.6881C109.147 23.4641 109.189 23.1841 109.189 22.8481C109.189 22.7921 109.189 22.7361 109.189 22.6801C109.189 22.5961 109.203 22.5261 109.231 22.4701C109.455 21.8541 109.637 21.2241 109.777 20.5801C109.917 19.9361 110.127 19.3201 110.407 18.7321C110.743 18.0041 111.177 17.0521 111.709 15.8761C112.241 14.6721 112.689 13.566 113.053 12.558C113.165 12.2501 113.291 12.0541 113.431 11.97C113.599 11.8581 113.781 11.8161 113.977 11.844C114.313 11.872 114.649 12.068 114.985 12.432C115.321 12.768 115.573 13.062 115.741 13.314C115.461 13.846 115.125 14.476 114.733 15.2041C114.369 15.9041 114.019 16.5901 113.683 17.2621C113.375 17.9061 113.151 18.4381 113.011 18.8581C113.403 18.8861 113.865 18.8861 114.397 18.8581C114.957 18.8021 115.503 18.8021 116.035 18.8581C116.651 18.9141 117.197 18.9141 117.673 18.8581C118.149 18.8021 118.681 18.7321 119.269 18.6481C119.409 18.2281 119.549 17.7521 119.689 17.22C119.857 16.688 120.025 16.1421 120.193 15.5821C120.389 15.0221 120.627 14.5041 120.907 14.0281C121.187 13.5521 121.537 13.188 121.957 12.936C122.181 12.88 122.349 12.88 122.461 12.936C122.573 12.9641 122.727 13.0481 122.923 13.1881C123.287 13.468 123.553 13.692 123.721 13.8601C123.917 14.0001 123.987 14.1681 123.931 14.3641C123.875 14.5601 123.693 14.8821 123.385 15.3301C123.189 15.6381 123.049 16.0021 122.965 16.422C122.881 16.814 122.727 17.1501 122.503 17.4301C122.447 17.4861 122.335 17.7381 122.167 18.1861C121.999 18.6341 121.803 19.1801 121.579 19.8241C121.355 20.4681 121.131 21.1121 120.907 21.7561C120.683 22.4001 120.487 22.9601 120.319 23.4361C120.179 23.9121 120.109 24.1921 120.109 24.2761C120.081 24.6401 120.025 25.0181 119.941 25.4101C119.857 25.7741 119.815 26.1521 119.815 26.5441C119.815 26.7681 119.745 26.9361 119.605 27.0481C119.493 27.1321 119.339 27.1741 119.143 27.1741C118.863 27.1741 118.555 27.1041 118.219 26.9641C117.883 26.8241 117.631 26.6981 117.463 26.5861C117.351 26.5021 117.253 26.3621 117.169 26.1661C117.113 25.9701 117.071 25.8021 117.043 25.6621C117.211 24.9621 117.407 24.3041 117.631 23.6881C117.883 23.0441 118.107 22.3861 118.303 21.7141C118.359 21.6021 118.387 21.4901 118.387 21.3781C118.387 21.2661 118.359 21.1541 118.303 21.0421C117.379 20.9021 116.441 20.8741 115.489 20.9581C114.537 21.0421 113.599 21.1121 112.675 21.1681C112.535 21.3081 112.367 21.6441 112.171 22.1761C112.003 22.6801 111.849 23.2121 111.709 23.7721C111.569 24.3041 111.457 24.7101 111.373 24.9901C111.401 25.1861 111.373 25.4661 111.289 25.8301C111.205 26.1941 111.093 26.5581 110.953 26.9221C110.813 27.2581 110.673 27.4961 110.533 27.6361ZM135.778 28.5181C135.498 28.2381 135.218 27.8601 134.938 27.3841C134.658 26.8801 134.434 26.3061 134.266 25.6621C134.21 25.4381 134.182 25.1301 134.182 24.7381C134.21 24.3461 134.21 24.0661 134.182 23.8981C134.098 24.0941 133.958 24.3041 133.762 24.5281C133.594 24.7241 133.426 24.8921 133.258 25.0321C133.146 25.1441 132.894 25.3681 132.502 25.7041C132.11 26.0121 131.718 26.2641 131.326 26.4601C130.402 27.0481 129.632 27.3701 129.016 27.4261C128.428 27.4821 127.868 27.1741 127.336 26.5021C126.888 26.1381 126.566 25.7321 126.37 25.2841C126.202 24.8361 126.202 24.2201 126.37 23.4361C126.426 22.4561 126.566 21.5041 126.79 20.5801C127.014 19.6281 127.476 18.3681 128.176 16.8001C128.764 15.652 129.212 14.812 129.52 14.28C129.828 13.72 130.024 13.384 130.108 13.2721C130.528 13.1321 130.878 13.1461 131.158 13.314C131.438 13.454 131.606 13.72 131.662 14.112C131.83 14.3921 131.802 14.8681 131.578 15.54C131.382 16.2121 131.032 17.0381 130.528 18.0181C130.136 18.9701 129.772 19.9221 129.436 20.8741C129.128 21.8261 128.946 22.6381 128.89 23.3101C128.834 23.9821 129.002 24.3881 129.394 24.5281C129.646 24.6681 130.08 24.6261 130.696 24.4021C131.34 24.1781 132.054 23.6181 132.838 22.7221C133.65 21.8261 134.434 20.4681 135.19 18.6481C135.414 18.0881 135.582 17.5981 135.694 17.1781C135.806 16.7301 135.876 16.2401 135.904 15.7081C135.848 15.3721 135.862 15.0781 135.946 14.8261C136.058 14.546 136.282 14.308 136.618 14.112C136.73 13.972 136.884 13.8461 137.08 13.7341C137.276 13.594 137.402 13.594 137.458 13.7341L138.13 13.692C138.242 13.6641 138.312 13.7341 138.34 13.902C138.396 14.042 138.494 14.168 138.634 14.28C138.942 14.5321 139.026 15.0781 138.886 15.9181C138.746 16.7581 138.354 17.9341 137.71 19.4461C137.178 20.5941 136.814 21.4621 136.618 22.0501C136.45 22.6381 136.352 23.2121 136.324 23.7721C136.324 24.2761 136.422 24.7521 136.618 25.2001C136.814 25.6481 137.122 26.0541 137.542 26.4181C137.85 26.6141 138.018 26.8381 138.046 27.0901C138.102 27.3421 138.116 27.6361 138.088 27.9721C138.032 28.2241 137.864 28.4341 137.584 28.6021C137.332 28.7421 137.038 28.8121 136.702 28.8121C136.366 28.8121 136.058 28.7141 135.778 28.5181ZM145.317 28.7281C144.085 28.7281 143.077 28.2661 142.293 27.3421C141.509 26.3901 141.131 25.2141 141.159 23.8141C141.215 22.8061 141.411 21.7281 141.747 20.5801C142.111 19.4041 142.587 18.2841 143.175 17.22C143.763 16.1281 144.407 15.1761 145.107 14.3641C145.807 13.552 146.535 12.978 147.291 12.642C147.571 12.502 147.865 12.3901 148.173 12.3061C148.509 12.222 148.845 12.18 149.181 12.18C149.489 12.18 149.811 12.236 150.147 12.348C150.483 12.4321 150.763 12.5301 150.987 12.642C151.463 12.838 151.827 13.076 152.079 13.3561C152.331 13.6361 152.555 14.0701 152.751 14.6581C152.835 15.19 152.877 15.5681 152.877 15.7921C152.877 16.0161 152.807 16.352 152.667 16.8001C152.331 17.8081 151.897 18.6761 151.365 19.4041C150.833 20.1321 150.119 20.7481 149.223 21.2521C148.999 21.3921 148.733 21.5041 148.425 21.5881C148.145 21.6441 147.851 21.6721 147.543 21.6721C146.983 21.6721 146.437 21.5741 145.905 21.3781C145.401 21.1541 144.995 20.8321 144.687 20.4121L144.393 20.0761L144.267 20.4121C143.987 21.1681 143.763 21.8681 143.595 22.5121C143.455 23.1561 143.385 23.7441 143.385 24.2761C143.385 24.6121 143.413 24.9341 143.469 25.2421C143.553 25.5501 143.665 25.8161 143.805 26.0401C143.917 26.2081 144.099 26.3341 144.351 26.4181C144.631 26.4741 144.925 26.5021 145.233 26.5021C145.429 26.5021 145.625 26.5021 145.821 26.5021C146.045 26.4741 146.255 26.4181 146.451 26.3341C146.927 26.1661 147.305 25.9841 147.585 25.7881C147.893 25.5921 148.201 25.3821 148.509 25.1581L148.677 25.0741H148.635C148.971 24.9061 149.265 24.7381 149.517 24.5701C149.797 24.4021 149.937 24.3181 149.937 24.3181C150.049 24.3181 150.161 24.2481 150.273 24.1081C150.497 23.9961 150.777 24.0381 151.113 24.2341C151.477 24.4301 151.659 24.6821 151.659 24.9901C151.631 25.1301 151.505 25.3541 151.281 25.6621C151.057 25.9421 150.805 26.2081 150.525 26.4601C150.273 26.7121 150.063 26.8521 149.895 26.8801C149.867 26.9081 149.769 26.9641 149.601 27.0481C149.433 27.1041 149.321 27.1601 149.265 27.2161H149.307C149.055 27.5521 148.803 27.7201 148.551 27.7201H148.215C148.103 27.9161 147.739 28.1401 147.123 28.3921C146.507 28.6161 145.905 28.7281 145.317 28.7281ZM147.207 19.4881C147.711 19.4881 148.145 19.3481 148.509 19.0681C148.901 18.7601 149.237 18.4241 149.517 18.0601C150.077 17.304 150.399 16.576 150.483 15.8761C150.595 15.1481 150.511 14.644 150.231 14.3641C150.063 14.2801 149.909 14.2381 149.769 14.2381C149.657 14.21 149.419 14.252 149.055 14.3641C148.803 14.4201 148.453 14.6301 148.005 14.9941C147.557 15.3581 147.109 15.7641 146.661 16.2121C146.241 16.6601 145.919 17.0381 145.695 17.3461L145.149 18.2281C145.373 18.1441 145.583 18.1021 145.779 18.1021C146.003 18.0741 146.129 18.0881 146.157 18.1441C146.157 18.3961 146.199 18.6341 146.283 18.8581C146.395 19.0541 146.521 19.2081 146.661 19.3201C146.829 19.4321 147.011 19.4881 147.207 19.4881ZM171.659 28.4761C171.379 28.3361 171.169 28.1961 171.029 28.0561C170.889 27.8881 170.651 27.7061 170.315 27.5101C170.203 27.1181 170.077 26.7261 169.937 26.3341C169.825 25.9141 169.783 25.5081 169.811 25.1161C169.839 24.8921 169.797 24.6541 169.685 24.4021C169.601 24.1221 169.615 23.8841 169.727 23.6881C169.671 23.2401 169.685 22.6661 169.769 21.9661C169.853 21.2381 169.965 20.5521 170.105 19.9081C170.245 19.2361 170.343 18.7601 170.399 18.4801C170.315 18.3681 170.231 18.2981 170.147 18.2701C170.091 18.2421 170.007 18.2841 169.895 18.3961C169.615 18.6761 169.349 18.9561 169.097 19.2361C168.845 19.5161 168.579 19.8101 168.299 20.1181C168.187 20.2301 168.061 20.3421 167.921 20.4541C167.781 20.5381 167.711 20.6781 167.711 20.8741L166.199 22.8901C166.087 23.1141 165.877 23.4081 165.569 23.7721C165.289 24.1081 165.065 24.5141 164.897 24.9901C164.841 25.1861 164.743 25.3541 164.603 25.4941C164.463 25.6061 164.323 25.7181 164.183 25.8301C163.819 25.6901 163.581 25.5921 163.469 25.5361C163.357 25.4801 163.147 25.3121 162.839 25.0321C162.559 24.7521 162.363 24.5001 162.251 24.2761C162.139 24.0241 162.111 23.7721 162.167 23.5201C162.167 23.1001 162.167 22.5121 162.167 21.7561C162.195 20.9721 162.195 20.2301 162.167 19.5301C162.167 18.8021 162.111 18.2981 161.999 18.0181C161.691 18.0461 161.481 18.0881 161.369 18.1441C161.257 18.2001 161.117 18.3681 160.949 18.6481C160.977 18.6201 160.851 18.8161 160.571 19.2361C160.319 19.6281 159.969 20.1461 159.521 20.7901C159.101 21.4061 158.681 22.0361 158.261 22.6801C157.841 23.2961 157.491 23.8281 157.211 24.2761C156.959 24.6961 156.847 24.8921 156.875 24.8641C156.679 25.0881 156.511 25.3261 156.371 25.5781C156.259 25.8301 156.147 26.0961 156.035 26.3761C155.895 26.7121 155.741 26.9361 155.573 27.0481C155.405 27.1321 155.251 27.1041 155.111 26.9641C154.887 26.8241 154.649 26.6841 154.397 26.5441C154.173 26.4041 153.977 26.2781 153.809 26.1661C153.697 25.9701 153.599 25.7741 153.515 25.5781C153.459 25.3541 153.417 25.1021 153.389 24.8221C153.613 24.6821 153.767 24.5981 153.851 24.5701C153.935 24.5141 154.005 24.4161 154.061 24.2761C154.677 23.3521 155.209 22.5681 155.657 21.9241C156.105 21.2521 156.483 20.7061 156.791 20.2861C157.099 19.8661 157.337 19.5441 157.505 19.3201C157.673 19.0681 157.771 18.9001 157.799 18.8161C157.939 18.5361 158.107 18.2701 158.303 18.0181C158.527 17.7661 158.737 17.5001 158.933 17.22C158.961 17.136 159.101 16.94 159.353 16.632C159.605 16.296 159.871 15.96 160.151 15.6241C160.431 15.2881 160.627 15.0921 160.739 15.0361C160.879 14.9521 160.977 14.8401 161.033 14.7C161.117 14.5321 161.201 14.3641 161.285 14.196C161.341 13.944 161.467 13.762 161.663 13.6501C161.859 13.5381 162.153 13.5101 162.545 13.5661C162.769 13.7621 163.021 13.9721 163.301 14.196C163.581 14.392 163.875 14.602 164.183 14.8261C164.155 15.1061 164.141 15.4001 164.141 15.7081C164.169 16.0161 164.281 16.4921 164.477 17.1361C164.393 17.4721 164.407 17.8221 164.519 18.1861C164.631 18.5501 164.631 18.8861 164.519 19.1941C164.519 19.5581 164.603 19.8241 164.771 19.9921C164.967 20.1321 165.261 19.9921 165.653 19.5721C166.101 19.0121 166.633 18.4101 167.249 17.7661C167.865 17.0941 168.467 16.4641 169.055 15.8761C169.671 15.2601 170.189 14.7421 170.609 14.3221C171.057 13.8741 171.323 13.5941 171.407 13.4821C171.463 13.3421 171.561 13.2721 171.701 13.2721C171.869 13.244 172.023 13.272 172.163 13.3561C172.639 13.6081 172.961 13.7901 173.129 13.902C173.297 14.0141 173.535 14.2241 173.843 14.5321C174.123 14.9241 174.165 15.2741 173.969 15.5821C173.857 15.8621 173.703 16.3241 173.507 16.9681C173.339 17.584 173.157 18.27 172.961 19.0261C172.793 19.7821 172.639 20.4961 172.499 21.1681C172.387 21.8121 172.317 22.3161 172.289 22.6801C172.261 23.2401 172.233 23.8281 172.205 24.4441C172.177 25.0321 172.219 25.6481 172.331 26.2921C172.555 27.1601 172.611 27.7201 172.499 27.9721C172.415 28.1961 172.135 28.3641 171.659 28.4761ZM185.756 29.9881C185.252 29.7081 184.972 29.4001 184.916 29.0641C184.888 28.7281 185.084 28.1401 185.504 27.3001C185.924 26.4601 186.582 25.1581 187.478 23.3941C188.15 22.1341 188.654 21.1541 188.99 20.4541C189.354 19.7261 189.592 19.2081 189.704 18.9001C189.844 18.5921 189.914 18.3961 189.914 18.3121C189.858 18.0601 189.886 17.8641 189.998 17.7241C190.11 17.5561 190.292 17.4161 190.544 17.304C190.684 17.164 190.908 16.9121 191.216 16.5481C191.552 16.1841 191.86 15.7501 192.14 15.2461C192.392 14.6581 192.686 14.056 193.022 13.44C193.358 12.824 193.806 12.0541 194.366 11.1301C194.926 10.1781 195.654 8.94605 196.55 7.43405C197.11 6.45405 197.726 5.46005 198.398 4.45205C199.07 3.41605 199.784 2.39405 200.54 1.38605C200.848 0.994049 201.128 0.686049 201.38 0.46205C201.632 0.21005 201.884 0.0980498 202.136 0.126049C202.472 0.126049 202.85 0.23805 203.27 0.46205C203.718 0.686049 204.124 0.980048 204.488 1.34405C204.852 1.70805 205.118 2.10005 205.286 2.52005C205.426 2.74405 205.482 3.22005 205.454 3.94805C205.426 4.67605 205.37 5.55805 205.286 6.59405C205.202 7.63005 205.104 8.73605 204.992 9.91205C204.908 11.0601 204.782 12.4181 204.614 13.986C204.446 15.554 204.278 17.192 204.11 18.9001C203.97 20.6081 203.858 22.2601 203.774 23.8561C203.69 25.4241 203.69 26.7961 203.774 27.9721C203.802 28.2241 203.802 28.4621 203.774 28.6861C203.746 28.9101 203.732 29.0921 203.732 29.2321C203.564 29.4001 203.284 29.4701 202.892 29.4421C202.528 29.4421 202.164 29.3581 201.8 29.1901C201.464 29.0221 201.268 28.8121 201.212 28.5601C201.128 28.4761 201.072 28.3641 201.044 28.2241C201.044 28.0561 201.058 27.7201 201.086 27.2161C201.114 26.7121 201.142 25.9141 201.17 24.8221L201.38 18.0181L200.834 18.0601C200.582 18.0601 200.106 18.0881 199.406 18.1441C198.706 18.2001 197.95 18.2841 197.138 18.3961C196.326 18.4801 195.57 18.5781 194.87 18.6901C194.198 18.7741 193.736 18.8581 193.484 18.9421C193.232 18.9421 192.924 19.1101 192.56 19.4461C192.224 19.7821 191.902 20.2161 191.594 20.7481C191.482 21.1401 191.272 21.5601 190.964 22.0081C190.684 22.4281 190.544 22.7081 190.544 22.8481C190.348 22.9881 190.18 23.1561 190.04 23.3521C189.928 23.5481 189.872 23.6461 189.872 23.6461C189.872 23.8141 189.732 24.2341 189.452 24.9061C189.2 25.5501 188.878 26.2781 188.486 27.0901C188.094 27.8741 187.702 28.5601 187.31 29.1481L186.428 30.4921L185.756 29.9881ZM194.45 16.4641C194.45 16.4641 194.59 16.4361 194.87 16.3801C195.178 16.3241 195.528 16.2681 195.92 16.2121C196.34 16.1281 196.718 16.0861 197.054 16.0861C198.23 15.806 199.084 15.624 199.616 15.54C200.148 15.428 200.512 15.372 200.708 15.372C200.932 15.372 201.128 15.414 201.296 15.4981C201.408 15.6381 201.506 15.7221 201.59 15.75C201.702 15.7781 201.758 15.7921 201.758 15.7921C201.786 15.7361 201.828 15.4141 201.884 14.8261C201.94 14.2381 202.01 13.5101 202.094 12.642C202.206 11.7741 202.304 10.878 202.388 9.95405C202.5 9.00205 202.584 8.13405 202.64 7.35005C202.696 6.53805 202.738 5.92205 202.766 5.50205C202.794 4.97005 202.822 4.49405 202.85 4.07405C202.878 3.62605 202.892 3.40205 202.892 3.40205C202.724 3.40205 202.36 3.71005 201.8 4.32605C201.268 4.94205 200.666 5.75405 199.994 6.76205C199.322 7.77005 198.692 8.84805 198.104 9.99605C197.824 10.528 197.558 11.004 197.306 11.4241C197.054 11.844 196.858 12.054 196.718 12.054C196.662 12.11 196.494 12.362 196.214 12.8101C195.962 13.23 195.682 13.72 195.374 14.28C195.066 14.812 194.814 15.302 194.618 15.75C194.422 16.1701 194.366 16.4081 194.45 16.4641ZM207.384 27.8041C207.188 27.6921 206.978 27.6221 206.754 27.5941C206.558 27.5661 206.348 27.5381 206.124 27.5101C205.928 27.3141 205.76 27.1181 205.62 26.9221C205.508 26.6981 205.424 26.4461 205.368 26.1661C205.34 25.9981 205.368 25.8441 205.452 25.7041C205.536 25.5641 205.62 25.4381 205.704 25.3261C205.788 25.3261 205.886 25.3401 205.998 25.3681C206.11 25.3681 206.222 25.3681 206.334 25.3681C206.81 25.0041 207.23 24.6121 207.594 24.1921C207.986 23.7441 208.364 23.2821 208.728 22.8061C209.12 22.2741 209.47 21.7421 209.778 21.2101C210.086 20.6501 210.338 20.0621 210.534 19.4461C210.618 19.1941 210.674 18.9421 210.702 18.6901C210.73 18.4101 210.8 18.1581 210.912 17.9341C211.08 17.5981 211.206 17.2621 211.29 16.926C211.402 16.5621 211.514 16.2121 211.626 15.8761C211.206 15.7921 210.884 15.736 210.66 15.7081C210.464 15.6521 210.282 15.5541 210.114 15.4141C209.946 15.2741 209.708 15.0641 209.4 14.784C209.372 14.392 209.414 14.112 209.526 13.9441C209.638 13.7481 209.904 13.5941 210.324 13.4821C210.492 13.4261 210.66 13.3841 210.828 13.3561C210.996 13.3001 211.164 13.2721 211.332 13.2721C211.64 13.244 211.948 13.23 212.256 13.23C212.564 13.23 212.886 13.244 213.222 13.2721C213.446 13.3001 213.67 13.342 213.894 13.3981C214.118 13.4541 214.342 13.5101 214.566 13.5661C214.818 13.6501 215.07 13.762 215.322 13.902C215.574 14.0141 215.826 14.112 216.078 14.196C216.274 14.2241 216.456 14.2941 216.624 14.406C216.792 14.518 216.974 14.644 217.17 14.784C217.674 15.092 218.066 15.484 218.346 15.96C218.626 16.408 218.766 16.912 218.766 17.4721C218.766 18.3401 218.64 19.1521 218.388 19.9081C218.248 20.4401 218.094 20.9721 217.926 21.5041C217.786 22.0361 217.632 22.5681 217.464 23.1001C217.352 23.4641 217.24 23.8141 217.128 24.1501C217.016 24.4861 216.932 24.8361 216.876 25.2001C216.82 25.5081 216.778 25.8301 216.75 26.1661C216.722 26.5021 216.68 26.8521 216.624 27.2161C216.512 27.2441 216.4 27.2721 216.288 27.3001C216.204 27.3281 216.092 27.3701 215.952 27.4261C215.644 27.3141 215.322 27.2021 214.986 27.0901C214.65 26.9501 214.412 26.6561 214.272 26.2081C214.272 26.1521 214.272 26.0961 214.272 26.0401C214.3 25.9561 214.314 25.8581 214.314 25.7461C214.314 25.6621 214.314 25.5781 214.314 25.4941C214.314 25.4101 214.314 25.3261 214.314 25.2421C214.37 24.7381 214.454 24.2481 214.566 23.7721C214.678 23.2681 214.818 22.7781 214.986 22.3021C215.21 21.7421 215.392 21.1961 215.532 20.6641C215.672 20.1041 215.812 19.5581 215.952 19.0261C216.036 18.7741 216.092 18.5221 216.12 18.2701C216.176 17.9901 216.218 17.7241 216.246 17.4721C216.274 17.164 216.204 16.814 216.036 16.422C215.756 16.1981 215.462 16.0301 215.154 15.9181C214.846 15.7781 214.51 15.6801 214.146 15.6241C214.09 15.8201 213.992 16.0301 213.852 16.2541C213.824 16.3101 213.81 16.394 213.81 16.5061C213.81 16.59 213.782 16.646 213.726 16.6741C213.558 16.7861 213.446 16.9401 213.39 17.1361C213.362 17.3041 213.334 17.486 213.306 17.682C213.278 17.822 213.236 17.9621 213.18 18.1021C213.124 18.2421 213.054 18.3821 212.97 18.5221C212.858 18.6341 212.788 18.7881 212.76 18.9841C212.732 19.1521 212.704 19.3341 212.676 19.5301C212.62 19.9501 212.522 20.3561 212.382 20.7481C212.242 21.1401 212.06 21.5741 211.836 22.0501C211.696 22.2461 211.57 22.4561 211.458 22.6801C211.346 22.8761 211.234 23.0861 211.122 23.3101C211.094 23.4221 211.038 23.5341 210.954 23.6461C210.87 23.7301 210.8 23.8421 210.744 23.9821C210.604 24.2621 210.45 24.5561 210.282 24.8641C210.114 25.1441 209.918 25.3961 209.694 25.6201C209.33 25.9841 208.966 26.3621 208.602 26.7541C208.266 27.1461 207.86 27.4961 207.384 27.8041ZM237.283 27.5101C237.199 27.4541 237.017 27.3701 236.737 27.2581C236.485 27.1181 236.331 27.0341 236.275 27.0061C236.079 26.8381 235.967 26.6281 235.939 26.3761C235.911 26.1241 235.897 25.8441 235.897 25.5361C235.925 25.2281 235.897 24.9061 235.813 24.5701C235.897 24.1781 235.981 23.7301 236.065 23.2261C236.149 22.7221 236.289 22.3161 236.485 22.0081C236.597 21.5321 236.765 20.9721 236.989 20.3281C237.241 19.6561 237.465 18.9981 237.661 18.3541C237.885 17.6821 238.025 17.1081 238.081 16.632C237.633 16.9121 237.241 17.2201 236.905 17.5561C236.569 17.8921 236.289 18.2281 236.065 18.5641C235.953 18.7321 235.827 18.8721 235.687 18.9841C235.547 19.0681 235.407 19.1801 235.267 19.3201C234.931 19.6841 234.609 20.0621 234.301 20.4541C233.993 20.8461 233.685 21.2521 233.377 21.6721C232.873 22.3721 232.299 23.0161 231.655 23.6041C231.011 24.1921 230.395 24.7801 229.807 25.3681C229.583 25.6201 229.331 25.7881 229.051 25.8721C228.799 25.9281 228.547 25.9001 228.295 25.7881C227.959 25.6481 227.679 25.4801 227.455 25.2841C227.259 25.0881 227.049 24.8081 226.825 24.4441C226.797 23.8841 226.881 23.2401 227.077 22.5121C227.301 21.7841 227.553 21.0421 227.833 20.2861C228.141 19.5301 228.407 18.8301 228.631 18.1861C228.855 17.5141 228.967 16.9821 228.967 16.5901C228.939 16.5621 228.897 16.5481 228.841 16.5481C228.813 16.5481 228.771 16.5761 228.715 16.632C227.511 17.6681 226.475 18.7601 225.607 19.9081C224.767 21.0561 223.899 22.4281 223.003 24.0241C222.779 24.4441 222.555 24.9761 222.331 25.6201C222.135 26.2361 221.841 26.6981 221.449 27.0061C221.421 27.0061 221.393 27.0061 221.365 27.0061C221.365 26.9781 221.351 26.9641 221.323 26.9641C221.295 26.9081 221.253 26.9081 221.197 26.9641C221.141 27.0201 221.057 27.0621 220.945 27.0901C220.805 27.0901 220.665 27.0201 220.525 26.8801C220.329 26.6841 220.119 26.4881 219.895 26.2921C219.699 26.0961 219.559 25.8581 219.475 25.5781C219.531 25.3541 219.601 25.1581 219.685 24.9901C219.769 24.7941 219.923 24.5701 220.147 24.3181C220.231 24.0381 220.343 23.7861 220.483 23.5621C220.651 23.3381 220.791 23.0861 220.903 22.8061C221.183 22.0781 221.631 21.2381 222.247 20.2861C222.863 19.3341 223.577 18.3961 224.389 17.4721C225.201 16.5481 226.041 15.7361 226.909 15.0361C227.777 14.3361 228.589 13.86 229.345 13.608C229.373 13.608 229.387 13.608 229.387 13.608C229.415 13.608 229.443 13.608 229.471 13.608C229.751 13.6921 230.003 13.7901 230.227 13.902C230.451 13.9861 230.689 14.0841 230.941 14.196C231.053 14.336 231.179 14.518 231.319 14.7421C231.459 14.9381 231.557 15.1481 231.613 15.372C231.725 15.7081 231.711 16.1841 231.571 16.8001C231.431 17.4161 231.263 18.0321 231.067 18.6481C230.871 19.2641 230.703 19.7541 230.563 20.1181C230.535 20.2301 230.437 20.4681 230.269 20.8321C230.101 21.1961 230.003 21.4761 229.975 21.6721C229.975 21.7001 229.975 21.7281 229.975 21.7561C229.975 21.7841 229.989 21.8121 230.017 21.8401C230.465 21.4201 230.899 20.9861 231.319 20.5381C231.767 20.0901 232.173 19.6421 232.537 19.1941C233.405 18.1861 234.287 17.164 235.183 16.128C236.107 15.0641 237.143 14.1961 238.291 13.524C238.571 13.384 238.893 13.412 239.257 13.608C239.649 13.804 239.943 14.0141 240.139 14.2381C240.447 14.4901 240.615 14.8261 240.643 15.2461C240.699 15.8061 240.629 16.5761 240.433 17.5561C240.237 18.5081 239.985 19.4601 239.677 20.4121C239.397 21.3641 239.131 22.1201 238.879 22.6801C238.823 22.8201 238.781 22.9321 238.753 23.0161C238.725 23.1001 238.697 23.2261 238.669 23.3941C238.641 23.5901 238.585 23.7861 238.501 23.9821C238.445 24.1781 238.389 24.3601 238.333 24.5281C238.249 24.8921 238.235 25.2561 238.291 25.6201C238.375 25.9841 238.431 26.3481 238.459 26.7121C238.459 26.7401 238.417 26.7821 238.333 26.8381C238.165 26.9501 237.997 27.0621 237.829 27.1741C237.689 27.2581 237.535 27.3701 237.367 27.5101C237.339 27.5101 237.325 27.5101 237.325 27.5101C237.325 27.5101 237.311 27.5101 237.283 27.5101ZM245.116 27.2161C244.78 27.2721 244.416 27.2161 244.024 27.0481C243.632 26.8801 243.282 26.6421 242.974 26.3341C242.694 26.0261 242.512 25.7041 242.428 25.3681C242.316 24.7801 242.386 24.0521 242.638 23.1841C242.918 22.2881 243.31 21.3501 243.814 20.3701C244.346 19.3621 244.934 18.3961 245.578 17.4721C246.25 16.5481 246.936 15.7501 247.636 15.078C248.364 14.3781 249.036 13.9021 249.652 13.6501C249.96 13.4541 250.198 13.3281 250.366 13.2721C250.562 13.188 250.758 13.174 250.954 13.23C251.178 13.286 251.5 13.4261 251.92 13.6501C252.312 13.762 252.606 13.888 252.802 14.0281C252.998 14.1681 253.25 14.4481 253.558 14.868C253.782 15.2881 253.95 15.7081 254.062 16.128C254.174 16.5481 254.272 17.0241 254.356 17.5561C254.58 18.2561 254.664 18.7181 254.608 18.9421C254.552 19.1381 254.468 19.2921 254.356 19.4041C254.132 19.6841 254.076 19.8241 254.188 19.8241C254.188 19.8241 254.174 19.8801 254.146 19.9921C254.146 20.0761 254.09 20.2161 253.978 20.4121C253.782 21.0281 253.628 21.6721 253.516 22.3441C253.432 22.9881 253.446 23.5201 253.558 23.9401C253.782 24.5561 254.188 24.9201 254.776 25.0321C255.364 25.1441 255.966 24.8921 256.582 24.2761C256.89 24.0521 257.184 23.8561 257.464 23.6881C257.744 23.4921 257.884 23.5061 257.884 23.7301C257.884 23.7301 257.926 23.7721 258.01 23.8561C258.094 23.9121 258.192 23.9401 258.304 23.9401C258.444 23.9401 258.528 23.9961 258.556 24.1081C258.612 24.2201 258.612 24.3741 258.556 24.5701C258.528 24.7381 258.444 24.9341 258.304 25.1581C257.884 25.5781 257.674 25.8581 257.674 25.9981C257.674 25.9981 257.618 26.0541 257.506 26.1661C257.422 26.2501 257.268 26.3901 257.044 26.5861C256.54 26.8941 255.896 27.0481 255.112 27.0481C254.356 27.0481 253.768 26.8941 253.348 26.5861C252.928 26.2781 252.536 25.8581 252.172 25.3261C251.836 24.7941 251.612 24.3321 251.5 23.9401L251.29 23.5201L250.072 24.3181C249.764 24.6261 249.428 24.9201 249.064 25.2001C248.728 25.4801 248.504 25.6761 248.392 25.7881C248.308 25.9001 248.21 25.9981 248.098 26.0821C248.014 26.1661 247.916 26.2081 247.804 26.2081C247.692 26.2081 247.594 26.2081 247.51 26.2081C247.426 26.2081 247.384 26.2081 247.384 26.2081C247.384 26.3201 247.244 26.4601 246.964 26.6281C246.712 26.7961 246.404 26.9361 246.04 27.0481C245.704 27.1601 245.396 27.2161 245.116 27.2161ZM244.696 24.9481C244.864 24.9481 245.158 24.8221 245.578 24.5701C246.026 24.2901 246.516 23.9681 247.048 23.6041C247.608 23.2401 248.098 22.8761 248.518 22.5121C248.966 22.1481 249.274 21.8681 249.442 21.6721C249.554 21.5601 249.736 21.3781 249.988 21.1261C250.24 20.8461 250.464 20.6081 250.66 20.4121C251.304 19.6841 251.752 18.8861 252.004 18.0181C252.256 17.1221 252.228 16.4221 251.92 15.9181C251.808 15.61 251.668 15.442 251.5 15.4141C251.332 15.386 250.982 15.484 250.45 15.7081C250.114 15.9041 249.694 16.2821 249.19 16.8421C248.714 17.3741 248.196 18.0041 247.636 18.7321C247.104 19.4321 246.6 20.1601 246.124 20.9161C245.648 21.6721 245.256 22.3721 244.948 23.0161C244.64 23.6601 244.486 24.1641 244.486 24.5281C244.486 24.6401 244.514 24.7381 244.57 24.8221C244.654 24.9061 244.696 24.9481 244.696 24.9481ZM255.622 41.1601C255.006 41.1601 254.418 41.0481 253.858 40.8241C253.27 40.6001 252.724 40.2361 252.22 39.7321C251.968 39.1161 251.786 38.7101 251.674 38.5141C251.534 38.3461 251.282 38.0941 250.918 37.7581C250.918 37.6181 250.974 37.3521 251.086 36.9601C251.198 36.5961 251.366 36.2741 251.59 35.9941C252.178 35.2941 252.892 34.6641 253.732 34.1041C254.572 33.5721 255.552 33.1101 256.672 32.7181C256.812 32.6621 256.952 32.5921 257.092 32.5081C257.26 32.4521 257.414 32.4241 257.554 32.4241C257.694 32.4241 257.778 32.3401 257.806 32.1721C257.862 32.0041 257.988 31.9901 258.184 32.1301C258.324 32.0741 258.436 32.0041 258.52 31.9201C258.604 31.8361 258.744 31.8221 258.94 31.8781C258.94 31.8781 259.094 31.8361 259.402 31.7521C259.738 31.6681 260.116 31.5561 260.536 31.4161C260.956 31.3041 261.32 31.1921 261.628 31.0801C261.964 30.9961 262.132 30.9541 262.132 30.9541C262.188 30.1981 262.202 29.4141 262.174 28.6021C262.174 27.7901 261.95 27.1881 261.502 26.7961C261.222 26.4881 260.998 26.1381 260.83 25.7461C260.69 25.3541 260.508 24.9341 260.284 24.4861C260.34 24.2341 260.438 24.0241 260.578 23.8561C260.718 23.6881 260.914 23.5481 261.166 23.4361C261.698 23.1841 262.342 22.7921 263.098 22.2601C263.882 21.7001 264.68 21.0421 265.492 20.2861C266.304 19.5301 267.018 18.7181 267.634 17.8501C268.026 17.29 268.166 16.7581 268.054 16.2541C267.97 15.7501 267.48 15.4421 266.584 15.3301C266.024 15.3301 265.394 15.5261 264.694 15.9181C263.994 16.2821 263.266 16.7861 262.51 17.4301C262.062 17.5981 261.74 17.556 261.544 17.304C261.348 17.0241 261.194 16.7161 261.082 16.3801C261.138 16.0721 261.25 15.8061 261.418 15.5821C261.586 15.3301 261.768 15.0921 261.964 14.868C262.188 14.6441 262.384 14.4061 262.552 14.1541C262.776 14.0421 262.972 13.93 263.14 13.818C263.308 13.678 263.49 13.552 263.686 13.44C263.854 13.3281 264.022 13.2441 264.19 13.1881C264.386 13.1041 264.582 13.0621 264.778 13.0621C264.946 13.0621 265.114 13.0341 265.282 12.9781C265.45 12.894 265.632 12.852 265.828 12.852C267.144 12.908 268.18 13.412 268.936 14.3641C269.692 15.3161 270.028 16.2541 269.944 17.1781C269.888 18.1021 269.412 19.3061 268.516 20.7901C268.264 21.2101 267.844 21.6581 267.256 22.1341C266.696 22.6101 266.094 23.0721 265.45 23.5201C264.834 23.9681 264.288 24.3601 263.812 24.6961C263.336 25.0041 263.056 25.2001 262.972 25.2841C263.224 25.5921 263.49 26.1101 263.77 26.8381C264.05 27.5381 264.274 28.2521 264.442 28.9801C264.638 29.7361 264.666 30.3241 264.526 30.7441C264.806 30.8001 265.156 30.7721 265.576 30.6601C266.024 30.5761 266.374 30.5341 266.626 30.5341C266.878 30.7861 267.13 31.0241 267.382 31.2481C267.634 31.4721 267.76 31.7101 267.76 31.9621C267.816 32.1301 267.774 32.2841 267.634 32.4241C267.522 32.5641 267.396 32.6481 267.256 32.6761C266.892 32.7321 266.43 32.7461 265.87 32.7181C265.31 32.6901 264.764 32.7881 264.232 33.0121C263.84 33.6001 263.504 34.2441 263.224 34.9441C262.944 35.6721 262.58 36.4141 262.132 37.1701C261.684 37.9541 260.984 38.7521 260.032 39.5641C259.696 39.8441 259.346 40.0961 258.982 40.3201C258.618 40.5721 258.324 40.6981 258.1 40.6981C257.652 40.8381 257.218 40.9501 256.798 41.0341C256.406 41.1181 256.014 41.1601 255.622 41.1601ZM253.816 39.0181C253.816 39.0741 254.026 39.0881 254.446 39.0601C254.838 39.0601 255.314 38.9901 255.874 38.8501C256.462 38.7381 256.98 38.5561 257.428 38.3041C257.988 37.9681 258.464 37.5621 258.856 37.0861C259.248 36.6381 259.626 36.1481 259.99 35.6161C260.13 35.3921 260.27 35.1401 260.41 34.8601C260.55 34.6081 260.662 34.3421 260.746 34.0621C260.55 33.8381 260.228 33.8521 259.78 34.1041C259.332 34.3561 258.8 34.5941 258.184 34.8181C257.54 35.0421 256.756 35.3781 255.832 35.8261C254.936 36.3021 254.25 36.8201 253.774 37.3801C253.634 37.5761 253.48 37.7581 253.312 37.9261C253.144 38.0941 252.962 38.2481 252.766 38.3881C252.906 38.5841 253.06 38.7381 253.228 38.8501C253.396 38.9621 253.592 39.0181 253.816 39.0181ZM291.432 28.5181C291.152 28.2381 290.872 27.8601 290.592 27.3841C290.312 26.8801 290.088 26.3061 289.92 25.6621C289.864 25.4381 289.836 25.1301 289.836 24.7381C289.864 24.3461 289.864 24.0661 289.836 23.8981C289.752 24.0941 289.612 24.3041 289.416 24.5281C289.248 24.7241 289.08 24.8921 288.912 25.0321C288.8 25.1441 288.548 25.3681 288.156 25.7041C287.764 26.0121 287.372 26.2641 286.98 26.4601C286.056 27.0481 285.286 27.3701 284.67 27.4261C284.082 27.4821 283.522 27.1741 282.99 26.5021C282.542 26.1381 282.22 25.7321 282.024 25.2841C281.856 24.8361 281.856 24.2201 282.024 23.4361C282.08 22.4561 282.22 21.5041 282.444 20.5801C282.668 19.6281 283.13 18.3681 283.83 16.8001C284.418 15.652 284.866 14.812 285.174 14.28C285.482 13.72 285.678 13.384 285.762 13.2721C286.182 13.1321 286.532 13.1461 286.812 13.314C287.092 13.454 287.26 13.72 287.316 14.112C287.484 14.3921 287.456 14.8681 287.232 15.54C287.036 16.2121 286.686 17.0381 286.182 18.0181C285.79 18.9701 285.426 19.9221 285.09 20.8741C284.782 21.8261 284.6 22.6381 284.544 23.3101C284.488 23.9821 284.656 24.3881 285.048 24.5281C285.3 24.6681 285.734 24.6261 286.35 24.4021C286.994 24.1781 287.708 23.6181 288.492 22.7221C289.304 21.8261 290.088 20.4681 290.844 18.6481C291.068 18.0881 291.236 17.5981 291.348 17.1781C291.46 16.7301 291.53 16.2401 291.558 15.7081C291.502 15.3721 291.516 15.0781 291.6 14.8261C291.712 14.546 291.936 14.308 292.272 14.112C292.384 13.972 292.538 13.8461 292.734 13.7341C292.93 13.594 293.056 13.594 293.112 13.7341L293.784 13.692C293.896 13.6641 293.966 13.7341 293.994 13.902C294.05 14.042 294.148 14.168 294.288 14.28C294.596 14.5321 294.68 15.0781 294.54 15.9181C294.4 16.7581 294.008 17.9341 293.364 19.4461C292.832 20.5941 292.468 21.4621 292.272 22.0501C292.104 22.6381 292.006 23.2121 291.978 23.7721C291.978 24.2761 292.076 24.7521 292.272 25.2001C292.468 25.6481 292.776 26.0541 293.196 26.4181C293.504 26.6141 293.672 26.8381 293.7 27.0901C293.756 27.3421 293.77 27.6361 293.742 27.9721C293.686 28.2241 293.518 28.4341 293.238 28.6021C292.986 28.7421 292.692 28.8121 292.356 28.8121C292.02 28.8121 291.712 28.7141 291.432 28.5181ZM308.623 29.6521C308.511 29.5961 308.343 29.5541 308.119 29.5261C307.923 29.5261 307.629 29.5261 307.237 29.5261C307.125 29.4701 306.999 29.3861 306.859 29.2741C306.719 29.1621 306.551 28.9801 306.355 28.7281C306.411 28.3081 306.467 27.9021 306.523 27.5101C306.607 27.0901 306.705 26.6981 306.817 26.3341C307.041 25.6621 307.209 24.9761 307.321 24.2761C307.461 23.5761 307.615 22.8761 307.783 22.1761L308.749 20.2021C308.889 19.5021 309.071 18.8301 309.295 18.1861C309.547 17.5141 309.785 16.8561 310.009 16.2121C310.233 15.5961 310.443 15.0221 310.639 14.49C310.863 13.9301 311.073 13.4121 311.269 12.936C311.409 12.656 311.591 12.2221 311.815 11.6341C312.039 11.018 312.263 10.374 312.487 9.70205C312.739 9.03005 312.977 8.48405 313.201 8.06405C313.257 7.92405 313.313 7.81205 313.369 7.72805C313.425 7.61605 313.467 7.46205 313.495 7.26605C313.131 7.29405 312.753 7.23805 312.361 7.09805C311.969 6.95805 311.731 6.79005 311.647 6.59405C311.647 6.56605 311.619 6.42605 311.563 6.17405C311.535 5.92205 311.493 5.67005 311.437 5.41805C311.409 5.16605 311.395 5.05405 311.395 5.08205C311.563 4.94205 311.857 4.83005 312.277 4.74605C312.725 4.66205 313.005 4.60605 313.117 4.57805C313.593 4.35405 313.943 4.21405 314.167 4.15805C314.391 4.07405 314.825 3.96205 315.469 3.82205C315.609 3.79405 315.987 3.71005 316.603 3.57005C317.219 3.43005 317.905 3.27605 318.661 3.10805C319.445 2.94005 320.145 2.80005 320.761 2.68805C321.377 2.54805 321.769 2.47805 321.937 2.47805C322.217 2.45005 322.483 2.43605 322.735 2.43605C323.015 2.43605 323.295 2.38005 323.575 2.26805C323.631 2.21205 323.799 2.19805 324.079 2.22605C324.359 2.22605 324.681 2.22605 325.045 2.22605C325.409 2.19805 325.703 2.14205 325.927 2.05805C326.179 1.97405 326.459 1.94605 326.767 1.97405C327.103 1.97405 327.411 1.91805 327.691 1.80605C327.831 1.72205 327.985 1.69405 328.153 1.72205C328.349 1.75005 328.559 1.76405 328.783 1.76405C329.147 1.96005 329.413 2.15605 329.581 2.35205C329.777 2.52005 329.931 2.75805 330.043 3.06605V3.86405C329.819 4.00405 329.553 4.18605 329.245 4.41005C328.937 4.63405 328.671 4.77405 328.447 4.83005C328.307 4.85805 328.153 4.90005 327.985 4.95605C327.845 5.01205 327.677 5.09605 327.481 5.20805C327.173 5.37605 326.893 5.47405 326.641 5.50205C326.417 5.53005 326.179 5.48805 325.927 5.37605C325.815 5.29205 325.689 5.25005 325.549 5.25005C325.437 5.25005 325.311 5.23605 325.171 5.20805C325.115 5.04005 325.045 4.91405 324.961 4.83005C324.905 4.71805 324.849 4.63405 324.793 4.57805C324.737 4.49405 324.653 4.42405 324.541 4.36805C324.121 4.56405 323.687 4.63405 323.239 4.57805C322.791 4.49405 322.357 4.55005 321.937 4.74605C321.517 4.77405 321.097 4.81605 320.677 4.87205C320.285 4.92805 319.893 5.02605 319.501 5.16605C319.081 5.27805 318.647 5.36205 318.199 5.41805C317.779 5.47405 317.373 5.60005 316.981 5.79605C316.589 6.55205 316.337 7.05605 316.225 7.30805C316.113 7.53205 315.987 7.79805 315.847 8.10605C315.511 8.80605 315.189 9.52005 314.881 10.2481C314.573 10.9761 314.293 11.7041 314.041 12.432L311.815 18.4381C311.731 18.5781 311.605 18.9001 311.437 19.4041C311.269 19.8801 311.087 20.4261 310.891 21.0421C310.695 21.6301 310.513 22.1761 310.345 22.6801C310.205 23.1841 310.121 23.5481 310.093 23.7721C310.009 24.2761 309.897 24.7661 309.757 25.2421C309.645 25.7181 309.519 26.1941 309.379 26.6701C309.267 27.0621 309.155 27.4541 309.043 27.8461C308.959 28.2101 308.903 28.6161 308.875 29.0641C308.875 29.1481 308.847 29.2321 308.791 29.3161C308.735 29.4281 308.679 29.5401 308.623 29.6521ZM316.488 38.7241C315.872 38.8361 315.452 38.8501 315.228 38.7661C315.004 38.6821 314.696 38.5421 314.304 38.3461C313.996 38.1221 313.758 37.9541 313.59 37.8421C313.422 37.7301 313.338 37.6181 313.338 37.5061C313.338 37.4221 313.366 37.3241 313.422 37.2121C313.478 37.1281 313.576 37.0441 313.716 36.9601C313.884 36.9041 314.108 36.8761 314.388 36.8761C314.584 36.9881 314.906 37.0441 315.354 37.0441C315.83 37.0441 316.124 36.9881 316.236 36.8761C316.236 36.8761 316.362 36.7921 316.614 36.6241C316.894 36.4841 317.258 36.3721 317.706 36.2881C318.574 35.8681 319.344 35.3361 320.016 34.6921C320.688 34.0481 321.332 33.2081 321.948 32.1721C322.2 31.7801 322.466 31.3181 322.746 30.7861C323.026 30.2821 323.222 29.7781 323.334 29.2741C323.558 28.7141 323.81 27.9581 324.09 27.0061C324.398 26.0541 324.664 25.1161 324.888 24.1921C325.112 23.2401 325.238 22.5261 325.266 22.0501C325.434 20.4821 325.7 19.0401 326.064 17.7241C326.456 16.3801 326.792 14.8821 327.072 13.23C327.24 12.838 327.366 12.614 327.45 12.558C327.534 12.474 327.716 12.432 327.996 12.432C328.304 12.432 328.528 12.46 328.668 12.5161C328.836 12.544 329.018 12.712 329.214 13.02C329.494 13.552 329.592 14.182 329.508 14.9101C329.452 15.61 329.242 16.226 328.878 16.7581C328.598 17.1501 328.346 17.7661 328.122 18.6061C327.926 19.4181 327.73 20.4401 327.534 21.6721C327.394 22.2881 327.24 23.0161 327.072 23.8561C326.932 24.6681 326.778 25.5781 326.61 26.5861C326.498 26.8661 326.344 27.3001 326.148 27.8881C325.952 28.4481 325.826 28.8961 325.77 29.2321C325.742 29.3441 325.658 29.5681 325.518 29.9041C325.378 30.2401 325.238 30.5621 325.098 30.8701C324.958 31.2061 324.86 31.4301 324.804 31.5421C323.712 33.8101 322.466 35.5461 321.066 36.7501C319.666 37.9541 318.14 38.6121 316.488 38.7241ZM319.68 26.5441C319.372 26.5441 319.05 26.3761 318.714 26.0401C318.406 25.7041 318.196 25.4381 318.084 25.2421C317.972 24.9621 317.832 24.6961 317.664 24.4441C317.496 24.1921 317.37 23.8841 317.286 23.5201C317.23 23.1561 317.258 22.7081 317.37 22.1761C317.482 21.8121 317.636 21.2941 317.832 20.6221C318.056 19.9221 318.294 19.1661 318.546 18.3541C318.826 17.5421 319.106 16.7441 319.386 15.96C319.694 15.1481 319.974 14.4341 320.226 13.818C320.478 13.174 320.702 12.712 320.898 12.432C321.066 12.2081 321.248 12.0681 321.444 12.0121C321.668 11.9561 321.892 11.9841 322.116 12.0961C322.34 12.1801 322.536 12.362 322.704 12.642C323.012 13.034 323.138 13.37 323.082 13.6501C323.026 13.9301 322.774 14.4761 322.326 15.2881C322.214 15.5961 322.074 15.932 321.906 16.2961C321.738 16.6321 321.654 16.8561 321.654 16.9681C321.626 17.0241 321.57 17.2201 321.486 17.5561C321.43 17.8641 321.36 18.1581 321.276 18.4381C321.192 18.7181 321.108 18.8581 321.024 18.8581C320.912 18.9701 320.786 19.2921 320.646 19.8241C320.506 20.3281 320.38 20.9021 320.268 21.5461C320.156 22.1621 320.086 22.7081 320.058 23.1841C320.03 23.6321 320.072 23.8561 320.184 23.8561C321.052 23.8561 321.948 23.5201 322.872 22.8481C323.824 22.1761 324.776 21.1961 325.728 19.9081L326.442 22.8901C326.05 23.0861 325.686 23.2961 325.35 23.5201C325.014 23.7161 324.706 23.9541 324.426 24.2341C324.342 24.3461 324.146 24.5001 323.838 24.6961C323.53 24.8921 323.222 25.0741 322.914 25.2421C322.634 25.3821 322.452 25.4521 322.368 25.4521C322.368 25.4521 322.326 25.4661 322.242 25.4941C322.186 25.4941 322.158 25.5501 322.158 25.6621C322.158 25.7181 321.976 25.8301 321.612 25.9981C321.248 26.1381 320.87 26.2641 320.478 26.3761C320.086 26.4881 319.82 26.5441 319.68 26.5441ZM330.634 39.4801C330.41 39.3401 330.158 39.2701 329.878 39.2701C329.598 39.2701 329.346 39.2141 329.122 39.1021C328.73 38.9061 328.282 38.6261 327.778 38.2621C327.302 37.8981 326.994 37.5061 326.854 37.0861C326.826 37.0301 326.812 36.9601 326.812 36.8761C326.812 36.8201 326.798 36.7781 326.77 36.7501C326.742 36.6661 326.686 36.5821 326.602 36.4981C326.518 36.4421 326.462 36.3721 326.434 36.2881C326.378 36.1201 326.35 35.9381 326.35 35.7421C326.322 35.5741 326.308 35.4061 326.308 35.2381C326.28 35.0701 326.224 34.9021 326.14 34.7341C326.252 34.5381 326.35 34.3421 326.434 34.1461C326.49 33.9501 326.574 33.7541 326.686 33.5581C326.826 33.5301 326.966 33.5021 327.106 33.4741C327.218 33.4741 327.33 33.4601 327.442 33.4321C327.778 33.4041 327.974 33.6281 328.03 34.1041C328.114 34.5801 328.226 35.0981 328.366 35.6581C328.478 36.0781 328.66 36.4561 328.912 36.7921C329.192 37.1281 329.64 37.3101 330.256 37.3381C330.956 37.3661 331.558 37.1421 332.062 36.6661C332.594 36.2181 333.042 35.6441 333.406 34.9441C333.77 34.2441 334.05 33.5581 334.246 32.8861C334.302 32.7741 334.344 32.6621 334.372 32.5501C334.4 32.4381 334.428 32.3261 334.456 32.2141C334.512 32.1301 334.554 32.0321 334.582 31.9201C334.582 31.6681 334.638 31.3741 334.75 31.0381C334.89 30.7301 334.974 30.4361 335.002 30.1561C335.058 29.6521 335.142 29.1201 335.254 28.5601C335.366 28.0001 335.324 27.4681 335.128 26.9641C335.128 26.9641 335.114 26.8521 335.086 26.6281C335.058 26.4041 335.03 26.1661 335.002 25.9141C334.974 25.6621 334.96 25.5221 334.96 25.4941C334.764 25.2421 334.596 24.9761 334.456 24.6961C334.344 24.3881 334.176 24.1081 333.952 23.8561C333.952 23.6601 333.938 23.4781 333.91 23.3101C333.91 23.1421 333.91 22.9601 333.91 22.7641C333.994 22.7081 334.064 22.6381 334.12 22.5541C334.176 22.4701 334.26 22.4141 334.372 22.3861C335.212 22.0781 336.01 21.6721 336.766 21.1681C337.522 20.6361 338.18 20.0201 338.74 19.3201C339.3 18.6201 339.706 17.8361 339.958 16.9681C340.042 16.6601 340.098 16.352 340.126 16.044C340.154 15.7361 340.126 15.4281 340.042 15.1201C339.818 14.9521 339.58 14.9101 339.328 14.9941C338.264 15.3021 337.466 15.708 336.934 16.2121C336.43 16.7161 335.996 17.2761 335.632 17.892C335.268 18.4801 334.778 19.0821 334.162 19.6981C333.966 19.5021 333.77 19.4181 333.574 19.4461C333.406 19.4461 333.224 19.3761 333.028 19.2361C332.944 19.1521 332.846 19.0401 332.734 18.9001C332.65 18.7321 332.538 18.5081 332.398 18.2281C332.65 17.9481 332.818 17.6401 332.902 17.304C333.014 16.9401 333.168 16.6321 333.364 16.3801C333.812 15.8481 334.218 15.3581 334.582 14.9101C334.946 14.4621 335.436 14.0421 336.052 13.6501C336.696 13.2301 337.368 12.922 338.068 12.726C338.796 12.53 339.51 12.502 340.21 12.642C340.91 12.782 341.512 13.188 342.016 13.8601C342.52 14.476 342.772 15.19 342.772 16.0021C342.8 16.7861 342.66 17.5841 342.352 18.3961C342.044 19.2081 341.624 19.9641 341.092 20.6641C340.532 21.3921 339.902 21.9801 339.202 22.4281C338.53 22.8761 337.83 23.3801 337.102 23.9401C337.298 24.6961 337.494 25.4661 337.69 26.2501C337.886 27.0061 337.956 27.7901 337.9 28.6021C337.816 29.5821 337.69 30.5341 337.522 31.4581C337.382 32.3821 337.158 33.2501 336.85 34.0621C336.542 34.9021 336.136 35.6861 335.632 36.4141C335.128 37.1421 334.47 37.8141 333.658 38.4301C333.21 38.7941 332.706 39.0461 332.146 39.1861C331.614 39.3261 331.11 39.4241 330.634 39.4801ZM347.039 27.2161C346.703 27.2721 346.339 27.2161 345.947 27.0481C345.555 26.8801 345.205 26.6421 344.897 26.3341C344.617 26.0261 344.435 25.7041 344.351 25.3681C344.239 24.7801 344.309 24.0521 344.561 23.1841C344.841 22.2881 345.233 21.3501 345.737 20.3701C346.269 19.3621 346.857 18.3961 347.501 17.4721C348.173 16.5481 348.859 15.7501 349.559 15.078C350.287 14.3781 350.959 13.9021 351.575 13.6501C351.883 13.4541 352.121 13.3281 352.289 13.2721C352.485 13.188 352.681 13.174 352.877 13.23C353.101 13.286 353.423 13.4261 353.843 13.6501C354.235 13.762 354.529 13.888 354.725 14.0281C354.921 14.1681 355.173 14.4481 355.481 14.868C355.705 15.2881 355.873 15.7081 355.985 16.128C356.097 16.5481 356.195 17.0241 356.279 17.5561C356.503 18.2561 356.587 18.7181 356.531 18.9421C356.475 19.1381 356.391 19.2921 356.279 19.4041C356.055 19.6841 355.999 19.8241 356.111 19.8241C356.111 19.8241 356.097 19.8801 356.069 19.9921C356.069 20.0761 356.013 20.2161 355.901 20.4121C355.705 21.0281 355.551 21.6721 355.439 22.3441C355.355 22.9881 355.369 23.5201 355.481 23.9401C355.705 24.5561 356.111 24.9201 356.699 25.0321C357.287 25.1441 357.889 24.8921 358.505 24.2761C358.813 24.0521 359.107 23.8561 359.387 23.6881C359.667 23.4921 359.807 23.5061 359.807 23.7301C359.807 23.7301 359.849 23.7721 359.933 23.8561C360.017 23.9121 360.115 23.9401 360.227 23.9401C360.367 23.9401 360.451 23.9961 360.479 24.1081C360.535 24.2201 360.535 24.3741 360.479 24.5701C360.451 24.7381 360.367 24.9341 360.227 25.1581C359.807 25.5781 359.597 25.8581 359.597 25.9981C359.597 25.9981 359.541 26.0541 359.429 26.1661C359.345 26.2501 359.191 26.3901 358.967 26.5861C358.463 26.8941 357.819 27.0481 357.035 27.0481C356.279 27.0481 355.691 26.8941 355.271 26.5861C354.851 26.2781 354.459 25.8581 354.095 25.3261C353.759 24.7941 353.535 24.3321 353.423 23.9401L353.213 23.5201L351.995 24.3181C351.687 24.6261 351.351 24.9201 350.987 25.2001C350.651 25.4801 350.427 25.6761 350.315 25.7881C350.231 25.9001 350.133 25.9981 350.021 26.0821C349.937 26.1661 349.839 26.2081 349.727 26.2081C349.615 26.2081 349.517 26.2081 349.433 26.2081C349.349 26.2081 349.307 26.2081 349.307 26.2081C349.307 26.3201 349.167 26.4601 348.887 26.6281C348.635 26.7961 348.327 26.9361 347.963 27.0481C347.627 27.1601 347.319 27.2161 347.039 27.2161ZM346.619 24.9481C346.787 24.9481 347.081 24.8221 347.501 24.5701C347.949 24.2901 348.439 23.9681 348.971 23.6041C349.531 23.2401 350.021 22.8761 350.441 22.5121C350.889 22.1481 351.197 21.8681 351.365 21.6721C351.477 21.5601 351.659 21.3781 351.911 21.1261C352.163 20.8461 352.387 20.6081 352.583 20.4121C353.227 19.6841 353.675 18.8861 353.927 18.0181C354.179 17.1221 354.151 16.4221 353.843 15.9181C353.731 15.61 353.591 15.442 353.423 15.4141C353.255 15.386 352.905 15.484 352.373 15.7081C352.037 15.9041 351.617 16.2821 351.113 16.8421C350.637 17.3741 350.119 18.0041 349.559 18.7321C349.027 19.4321 348.523 20.1601 348.047 20.9161C347.571 21.6721 347.179 22.3721 346.871 23.0161C346.563 23.6601 346.409 24.1641 346.409 24.5281C346.409 24.6401 346.437 24.7381 346.493 24.8221C346.577 24.9061 346.619 24.9481 346.619 24.9481ZM361.368 27.3001C361.144 27.4681 360.822 27.5101 360.402 27.4261C359.982 27.3421 359.646 27.2581 359.394 27.1741C359.338 27.0621 359.282 26.9361 359.226 26.7961C359.17 26.6561 359.128 26.5301 359.1 26.4181C359.072 26.2781 359.044 26.1381 359.016 25.9981C359.016 25.8581 358.988 25.7321 358.932 25.6201C359.016 25.5361 359.086 25.4521 359.142 25.3681C359.226 25.2841 359.31 25.2141 359.394 25.1581C359.534 25.1581 359.688 25.1581 359.856 25.1581C360.024 25.1581 360.178 25.1581 360.318 25.1581C360.458 25.1021 360.57 25.0181 360.654 24.9061C360.766 24.7661 360.906 24.6961 361.074 24.6961C361.69 24.3041 362.292 23.6881 362.88 22.8481C363.496 22.0081 364.084 21.0701 364.644 20.0341C365.232 18.9981 365.75 17.9901 366.198 17.01C366.674 16.0021 367.066 15.1621 367.374 14.49C367.374 14.434 367.374 14.392 367.374 14.3641C367.374 14.3361 367.36 14.3081 367.332 14.28C367.136 14.3361 366.926 14.3921 366.702 14.4481C366.478 14.476 366.254 14.5321 366.03 14.6161C366.002 14.6441 365.96 14.672 365.904 14.7C365.848 14.728 365.806 14.7561 365.778 14.784C365.47 15.036 365.064 15.1061 364.56 14.9941C364.084 14.8821 363.748 14.6441 363.552 14.28C363.496 14.168 363.44 14.07 363.384 13.986C363.328 13.9021 363.258 13.8041 363.174 13.692C363.286 13.44 363.454 13.2021 363.678 12.9781C363.93 12.7261 364.196 12.5721 364.476 12.5161C365.232 12.348 365.974 12.222 366.702 12.138C367.458 12.026 368.214 11.998 368.97 12.054C369.726 12.11 370.468 12.278 371.196 12.558C371.336 12.5861 371.462 12.6141 371.574 12.642C371.686 12.6701 371.798 12.7261 371.91 12.8101C372.078 12.9221 372.246 13.0481 372.414 13.1881C372.582 13.3281 372.736 13.468 372.876 13.608C373.072 13.7761 373.226 13.9581 373.338 14.1541C373.45 14.3501 373.52 14.5741 373.548 14.8261C373.604 15.1061 373.632 15.4001 373.632 15.7081C373.66 16.0161 373.646 16.3241 373.59 16.632C373.45 17.332 373.226 18.1721 372.918 19.1521C372.638 20.1041 372.386 20.9301 372.162 21.6301C371.826 22.7221 371.532 23.7021 371.28 24.5701C371.028 25.4101 370.79 26.2361 370.566 27.0481C370.202 27.1601 369.852 27.1461 369.516 27.0061C369.18 26.8661 368.886 26.6561 368.634 26.3761C368.522 25.9841 368.466 25.6201 368.466 25.2841C368.466 24.9201 368.564 24.5561 368.76 24.1921C368.956 23.8001 369.096 23.2961 369.18 22.6801C369.264 22.0641 369.446 21.5741 369.726 21.2101C369.782 21.0981 369.81 21.0001 369.81 20.9161C369.81 20.7481 369.866 20.4261 369.978 19.9501C370.118 19.4741 370.272 18.9421 370.44 18.3541C370.608 17.7381 370.762 17.1641 370.902 16.632C371.07 16.1 371.182 15.6941 371.238 15.4141C371.294 15.2461 371.294 15.092 371.238 14.9521C371.21 14.8121 371.196 14.6581 371.196 14.49C370.972 14.3781 370.65 14.2941 370.23 14.2381C369.838 14.1821 369.572 14.3221 369.432 14.6581C369.404 14.7141 369.376 14.7841 369.348 14.868C369.348 14.924 369.334 14.9801 369.306 15.0361C369.082 15.7361 368.774 16.4081 368.382 17.0521C368.018 17.6961 367.682 18.5781 367.374 19.6981C367.29 20.0061 367.164 20.3001 366.996 20.5801C366.856 20.8321 366.73 21.1121 366.618 21.4201C366.618 21.4481 366.604 21.4761 366.576 21.5041C366.576 21.5321 366.562 21.5601 366.534 21.5881C366.534 21.6161 366.52 21.6441 366.492 21.6721C366.296 21.9241 366.114 22.1901 365.946 22.4701C365.806 22.7221 365.652 22.9881 365.484 23.2681C365.008 24.0521 364.378 24.7801 363.594 25.4521C362.838 26.1241 362.096 26.7401 361.368 27.3001ZM375.071 25.0321C375.043 24.4721 375.113 23.8141 375.281 23.0581C375.477 22.3021 375.715 21.5601 375.995 20.8321C376.275 20.1041 376.527 19.5161 376.751 19.0681C376.779 18.7321 376.877 18.4381 377.045 18.1861C377.241 17.9341 377.395 17.6541 377.507 17.3461C377.591 17.0941 377.787 16.6881 378.095 16.128C378.403 15.54 378.739 14.9521 379.103 14.3641C379.467 13.7761 379.761 13.3561 379.985 13.1041C380.041 12.7681 380.167 12.4881 380.363 12.264C380.559 12.012 380.741 11.76 380.909 11.5081C381.133 11.62 381.315 11.704 381.455 11.76C381.595 11.816 381.763 11.956 381.959 12.18C382.099 12.3761 382.253 12.5581 382.421 12.726C382.617 12.866 382.757 13.09 382.841 13.3981C382.841 13.6501 382.743 13.9021 382.547 14.1541C382.379 14.378 382.211 14.602 382.043 14.8261C381.763 15.1621 381.553 15.4281 381.413 15.6241C381.301 15.7921 381.161 16.0021 380.993 16.2541C380.853 16.4781 380.615 16.8421 380.279 17.3461C380.419 17.4021 380.573 17.4721 380.741 17.5561C380.909 17.6121 381.063 17.6401 381.203 17.6401C381.455 17.612 381.693 17.6401 381.917 17.7241C382.141 17.8081 382.365 17.9061 382.589 18.0181C382.813 18.1021 383.037 18.1721 383.261 18.2281C383.597 18.3401 383.947 18.5641 384.311 18.9001C384.703 19.2361 385.053 19.6001 385.361 19.9921C385.669 20.3841 385.865 20.7061 385.949 20.9581C386.033 21.0981 386.145 21.3641 386.285 21.7561C386.453 22.1201 386.481 22.4561 386.369 22.7641C386.341 22.8761 386.313 23.0021 386.285 23.1421C386.257 23.2821 386.243 23.4221 386.243 23.5621C385.823 24.1501 385.487 24.6121 385.235 24.9481C384.983 25.2841 384.549 25.6481 383.933 26.0401C383.009 26.5721 382.085 26.9781 381.161 27.2581C380.265 27.5381 379.355 27.6641 378.431 27.6361C378.291 27.6361 378.151 27.6781 378.011 27.7621C377.899 27.8181 377.773 27.7901 377.633 27.6781C377.073 27.6781 376.653 27.5241 376.373 27.2161C376.093 26.9081 375.799 26.5581 375.491 26.1661C375.267 25.8581 375.127 25.4801 375.071 25.0321ZM377.423 25.1581C377.927 25.2141 378.389 25.1861 378.809 25.0741C379.257 24.9621 379.691 24.8641 380.111 24.7801C380.587 24.6961 381.091 24.5141 381.623 24.2341C382.155 23.9261 382.631 23.5621 383.051 23.1421C383.499 22.6941 383.793 22.2461 383.933 21.7981C384.017 21.5741 384.031 21.3221 383.975 21.0421C383.919 20.7621 383.793 20.5661 383.597 20.4541C383.317 20.2581 383.037 20.0621 382.757 19.8661C382.477 19.6701 382.141 19.5861 381.749 19.6141C381.665 19.6421 381.567 19.6421 381.455 19.6141C381.371 19.5581 381.287 19.5161 381.203 19.4881C380.979 19.4321 380.755 19.4041 380.531 19.4041C380.335 19.4041 380.125 19.4321 379.901 19.4881C379.649 19.5721 379.411 19.6561 379.187 19.7401C378.963 19.8241 378.865 20.0481 378.893 20.4121C378.893 20.4681 378.823 20.5661 378.683 20.7061C378.627 20.7621 378.501 21.0421 378.305 21.5461C378.137 22.0501 377.969 22.5821 377.801 23.1421C377.633 23.7021 377.507 24.1081 377.423 24.3601C377.395 24.4721 377.381 24.5981 377.381 24.7381C377.409 24.8501 377.423 24.9901 377.423 25.1581Z" fill="#020202"/>
</svg>
