<svg width="293" height="38" viewBox="0 0 293 38" fill="none" xmlns="http://www.w3.org/2000/svg">
<path d="M2.50461 29.848C2.28061 29.848 2.02861 29.666 1.74861 29.302C1.46861 28.938 1.34261 28.588 1.37061 28.252C1.39861 27.804 1.52461 27.16 1.74861 26.32C1.97261 25.48 2.22461 24.626 2.50461 23.758C2.78461 22.89 3.03661 22.204 3.26061 21.7C3.37261 21.252 3.47061 20.86 3.55461 20.524C3.66661 20.16 3.73661 19.922 3.76461 19.81C3.84861 19.698 3.97461 19.404 4.14261 18.928C4.33861 18.452 4.49261 17.99 4.60461 17.542C4.66061 17.318 4.77261 16.898 4.94061 16.282C5.13661 15.638 5.36061 14.896 5.61261 14.056C5.89261 13.216 6.15861 12.39 6.41061 11.578C6.69061 10.766 6.92861 10.052 7.12461 9.436C7.32061 8.82 7.44661 8.414 7.50261 8.218C7.72661 7.882 7.89461 7.56 8.00661 7.252C8.11861 6.944 8.18861 6.734 8.21661 6.622C8.38461 6.51 8.48261 6.37 8.51061 6.202C8.53861 6.006 8.55261 5.852 8.55261 5.74C8.55261 5.6 8.59461 5.488 8.67861 5.404C8.79061 5.32 8.84661 5.222 8.84661 5.11C8.95861 5.026 9.02861 4.9 9.05661 4.732C9.08461 4.536 9.16861 4.368 9.30861 4.228L9.51861 3.514L11.9966 3.472C11.9406 3.808 11.8566 4.228 11.7446 4.732C11.6326 5.208 11.3666 5.852 10.9466 6.664C10.8066 7.224 10.6386 7.728 10.4426 8.176C10.2746 8.624 10.2046 8.918 10.2326 9.058C10.1766 9.114 10.0506 9.394 9.85461 9.898C9.68661 10.402 9.47661 11.018 9.22461 11.746C9.00061 12.474 8.76261 13.202 8.51061 13.93C8.28661 14.658 8.07661 15.302 7.88061 15.862C7.71261 16.394 7.60061 16.73 7.54461 16.87C7.32061 17.318 7.06861 17.976 6.78861 18.844C6.50861 19.712 6.08861 20.888 5.52861 22.372C5.30461 22.82 5.02461 23.492 4.68861 24.388C4.38061 25.284 4.12861 26.096 3.93261 26.824C3.62461 27.916 3.40061 28.672 3.26061 29.092C3.14861 29.54 3.05061 29.778 2.96661 29.806C2.88261 29.862 2.72861 29.876 2.50461 29.848ZM2.84061 4.816C2.05661 4.844 1.46861 4.802 1.07661 4.69C0.71261 4.578 0.58661 4.298 0.69861 3.85C0.78261 3.514 0.96461 3.262 1.24461 3.094C1.52461 2.926 1.93061 2.8 2.46261 2.716C2.77061 2.66 3.16261 2.59 3.63861 2.506C4.14261 2.422 4.61861 2.338 5.06661 2.254C5.99061 2.142 6.74661 2.044 7.33461 1.96C7.95061 1.876 8.58061 1.806 9.22461 1.75C9.86861 1.694 10.6806 1.638 11.6606 1.582C12.4726 1.526 13.1586 1.484 13.7186 1.456C14.3066 1.4 14.6006 1.372 14.6006 1.372C14.6846 1.372 14.9786 1.4 15.4826 1.456C15.9866 1.512 16.5326 1.582 17.1206 1.666C17.7086 1.75 18.1426 1.848 18.4226 1.96C19.0666 2.1 19.5286 2.296 19.8086 2.548C20.1166 2.8 20.3266 3.164 20.4386 3.64C20.5226 3.976 20.5226 4.186 20.4386 4.27C20.3546 4.326 20.2006 4.41 19.9766 4.522C19.3326 4.718 18.8566 4.816 18.5486 4.816C18.2406 4.816 17.8906 4.746 17.4986 4.606C17.3586 4.466 17.1906 4.34 16.9946 4.228C16.8266 4.116 16.5186 4.032 16.0706 3.976C15.6506 3.892 14.9786 3.822 14.0546 3.766C13.2706 3.85 12.5846 3.892 11.9966 3.892C11.4086 3.892 11.1146 3.962 11.1146 4.102L8.63661 4.228L6.57861 4.438C6.29861 4.466 5.90661 4.508 5.40261 4.564C4.89861 4.592 4.40861 4.634 3.93261 4.69C3.45661 4.718 3.09261 4.76 2.84061 4.816ZM15.1742 27.37C14.8102 27.37 14.5162 27.3 14.2922 27.16C14.0962 27.02 13.8442 26.824 13.5362 26.572C13.0042 26.012 12.6262 25.48 12.4022 24.976C12.1782 24.444 12.1082 23.94 12.1922 23.464C12.2762 23.24 12.3042 23.03 12.2762 22.834C12.2762 22.61 12.2762 22.498 12.2762 22.498C12.1362 22.358 12.0942 22.274 12.1502 22.246C12.2062 22.19 12.2622 22.106 12.3182 21.994C12.4862 21.994 12.5422 21.84 12.4862 21.532C12.4302 21.308 12.5422 20.818 12.8222 20.062C13.1022 19.306 13.4522 18.592 13.8722 17.92C14.0402 17.64 14.2922 17.276 14.6282 16.828C14.9642 16.352 15.3282 15.89 15.7202 15.442C16.1402 14.966 16.5182 14.588 16.8542 14.308C17.5542 13.72 18.1702 13.286 18.7022 13.006C19.2342 12.726 19.8082 12.516 20.4242 12.376C21.0402 12.236 21.4602 12.166 21.6842 12.166C21.9362 12.166 22.2722 12.39 22.6922 12.838C23.3362 13.118 23.7982 13.454 24.0782 13.846C24.3862 14.238 24.5822 14.812 24.6662 15.568C24.7502 16.408 24.6802 17.374 24.4562 18.466C24.2602 19.53 23.6022 20.86 22.4822 22.456C21.7822 23.464 21.1382 24.22 20.5502 24.724C19.9622 25.2 19.2622 25.676 18.4502 26.152C17.8622 26.544 17.3302 26.838 16.8542 27.034C16.3782 27.202 15.8182 27.314 15.1742 27.37ZM19.2062 22.918C19.8782 22.162 20.4102 21.448 20.8022 20.776C21.2222 20.104 21.6142 19.25 21.9782 18.214C22.0902 17.906 22.1602 17.528 22.1882 17.08C22.2162 16.604 22.2022 16.17 22.1462 15.778C22.1182 15.358 22.0202 15.12 21.8522 15.064C21.5162 14.868 21.1102 14.812 20.6342 14.896C20.1582 14.952 19.6402 15.218 19.0802 15.694C18.2122 16.422 17.4562 17.332 16.8122 18.424C16.1682 19.488 15.5382 20.706 14.9222 22.078C14.5022 23.086 14.4042 23.898 14.6282 24.514C14.8802 25.102 15.3982 25.312 16.1822 25.144C16.9942 24.948 18.0022 24.206 19.2062 22.918ZM36.7107 27.916C36.5147 28.028 36.2487 27.986 35.9127 27.79C35.6047 27.594 35.2967 27.3 34.9887 26.908C34.7927 26.572 34.6527 26.208 34.5687 25.816C34.5127 25.424 34.4847 24.878 34.4847 24.178C34.5127 23.618 34.4847 23.254 34.4007 23.086C34.3447 22.918 34.1907 22.946 33.9387 23.17C33.6867 23.366 33.2527 23.772 32.6367 24.388C31.9367 25.088 31.2647 25.634 30.6207 26.026C30.0047 26.418 29.5007 26.6 29.1087 26.572C28.9127 26.572 28.6887 26.474 28.4367 26.278C28.2127 26.054 28.0027 25.788 27.8067 25.48C27.6107 25.144 27.4427 24.808 27.3027 24.472C27.1347 23.856 27.1067 23.072 27.2187 22.12C27.3587 21.14 27.5827 20.118 27.8907 19.054C28.1987 17.99 28.5487 16.982 28.9407 16.03C29.3607 15.078 29.7807 14.308 30.2007 13.72C30.6487 13.132 31.0407 12.838 31.3767 12.838C31.6007 12.838 31.7967 12.95 31.9647 13.174C32.1607 13.398 32.3567 13.748 32.5527 14.224C32.6647 14.42 32.7067 14.588 32.6787 14.728C32.6787 14.868 32.5667 15.036 32.3427 15.232C32.0907 15.568 31.7967 16.072 31.4607 16.744C31.1527 17.416 30.8447 18.144 30.5367 18.928C30.2567 19.712 30.0047 20.468 29.7807 21.196C29.5567 21.924 29.4027 22.526 29.3187 23.002C29.2347 23.45 29.2487 23.674 29.3607 23.674C29.7527 23.674 30.2147 23.52 30.7467 23.212C31.3067 22.876 31.8387 22.47 32.3427 21.994C32.9307 21.406 33.4487 20.762 33.8967 20.062C34.3727 19.362 34.8487 18.62 35.3247 17.836C35.6887 17.276 36.0667 16.66 36.4587 15.988C36.8787 15.316 37.1447 14.84 37.2567 14.56C37.6487 13.832 37.9427 13.342 38.1387 13.09C38.3347 12.81 38.5727 12.628 38.8527 12.544C38.9927 12.544 39.1187 12.544 39.2307 12.544C39.3707 12.544 39.4407 12.544 39.4407 12.544C39.6087 12.572 39.8047 12.698 40.0287 12.922C40.2527 13.034 40.3787 13.146 40.4067 13.258C40.4347 13.342 40.4487 13.454 40.4487 13.594C40.3367 13.874 40.1547 14.294 39.9027 14.854C39.6787 15.386 39.5107 15.778 39.3987 16.03C38.8667 17.234 38.3347 18.424 37.8027 19.6C37.2987 20.748 36.9347 21.924 36.7107 23.128C36.6547 23.52 36.6407 23.982 36.6687 24.514C36.7247 25.018 36.8087 25.382 36.9207 25.606C37.0047 25.774 37.1027 25.97 37.2147 26.194C37.3547 26.39 37.5087 26.558 37.6767 26.698C37.9287 26.866 37.9707 27.048 37.8027 27.244C37.6627 27.44 37.4667 27.608 37.2147 27.748C36.9627 27.86 36.7947 27.916 36.7107 27.916ZM36.1647 10.486C35.2967 10.598 34.5687 10.346 33.9807 9.73C33.3927 9.114 32.9447 8.204 32.6367 7C32.5807 6.776 32.5527 6.58 32.5527 6.412C32.5807 6.216 32.6367 6.048 32.7207 5.908C32.7767 5.796 32.8887 5.712 33.0567 5.656C33.2247 5.572 33.3647 5.558 33.4767 5.614C33.8687 5.754 34.1487 5.936 34.3167 6.16C34.5127 6.356 34.6387 6.608 34.6947 6.916C34.7507 7.056 34.7787 7.196 34.7787 7.336C34.8067 7.476 34.8207 7.532 34.8207 7.504C34.9607 7.952 35.1427 8.26 35.3667 8.428C35.5907 8.596 35.9267 8.582 36.3747 8.386C36.8507 8.19 37.3127 7.966 37.7607 7.714C38.2367 7.462 38.6567 7.154 39.0207 6.79C39.3287 6.482 39.6227 6.202 39.9027 5.95C40.2107 5.698 40.5047 5.432 40.7847 5.152L40.8267 5.11C40.9387 5.026 41.0787 4.998 41.2467 5.026C41.4147 5.054 41.5127 5.096 41.5407 5.152C41.7367 5.348 41.8347 5.544 41.8347 5.74C41.8347 5.936 41.8347 6.146 41.8347 6.37L41.7927 6.454C41.8487 6.622 41.7087 6.944 41.3727 7.42C41.0647 7.896 40.6867 8.302 40.2387 8.638C39.8467 8.946 39.4267 9.226 38.9787 9.478C38.5307 9.73 38.0687 9.968 37.5927 10.192C37.3967 10.304 37.1867 10.374 36.9627 10.402C36.7667 10.402 36.5007 10.43 36.1647 10.486ZM47.8502 27.748C47.7662 27.776 47.5702 27.734 47.2622 27.622C46.9542 27.482 46.6182 27.314 46.2542 27.118C45.9182 26.894 45.6522 26.684 45.4562 26.488C45.2322 26.208 45.0222 25.928 44.8262 25.648C44.6582 25.34 44.5742 24.99 44.5742 24.598C44.3782 24.178 44.2662 23.744 44.2382 23.296C44.2382 22.82 44.2242 22.358 44.1962 21.91C44.1682 21.21 44.3222 20.496 44.6582 19.768C44.9942 19.012 45.2602 18.452 45.4562 18.088C45.5962 17.696 45.8762 17.192 46.2962 16.576C46.7442 15.932 47.2902 15.302 47.9342 14.686C48.5782 14.07 49.2502 13.594 49.9502 13.258C50.3982 13.034 50.8462 12.852 51.2942 12.712C51.7702 12.544 52.3162 12.572 52.9322 12.796C53.2402 12.88 53.4642 12.992 53.6042 13.132C53.7442 13.272 53.8982 13.412 54.0662 13.552C54.2902 13.384 54.4722 12.978 54.6122 12.334C54.7802 11.662 54.8782 10.906 54.9062 10.066C54.9622 9.198 54.9202 8.372 54.7802 7.588C54.6682 6.776 54.4302 6.132 54.0662 5.656C53.3942 4.732 52.6522 4.13 51.8402 3.85C51.0282 3.57 50.1042 3.654 49.0682 4.102C48.7322 3.962 48.4242 3.696 48.1442 3.304C47.8922 2.912 47.8222 2.52 47.9342 2.128C48.1582 1.932 48.4382 1.736 48.7742 1.54C49.1102 1.344 49.4462 1.218 49.7822 1.162C50.1742 1.078 50.5662 1.022 50.9582 0.994C51.3782 0.965998 51.8122 1.078 52.2602 1.33C53.7162 1.806 54.8082 2.478 55.5362 3.346C56.2922 4.186 56.8102 5.208 57.0902 6.412C57.3702 7.616 57.5382 9.002 57.5942 10.57C57.6502 11.018 57.6642 11.424 57.6362 11.788C57.6362 12.124 57.5942 12.698 57.5102 13.51C57.2302 13.874 57.1182 14.308 57.1742 14.812C57.2582 15.288 57.2022 15.736 57.0062 16.156C56.9782 16.632 56.8662 17.024 56.6702 17.332C56.4742 17.64 56.3762 17.934 56.3762 18.214C55.8722 19.614 55.1862 20.986 54.3182 22.33C53.4782 23.674 52.5122 24.836 51.4202 25.816C50.3282 26.796 49.1382 27.44 47.8502 27.748ZM47.5982 25.018C47.8782 25.13 48.2982 25.018 48.8582 24.682C49.4182 24.318 49.9922 23.842 50.5802 23.254C51.1682 22.638 51.6582 22.05 52.0502 21.49C52.1902 21.294 52.3722 20.972 52.5962 20.524C52.8482 20.076 53.0722 19.642 53.2682 19.222C53.4922 18.802 53.6182 18.536 53.6462 18.424C53.8982 17.724 54.0382 17.066 54.0662 16.45C54.1222 15.806 54.0522 15.386 53.8562 15.19C53.5482 14.826 53.0442 14.742 52.3442 14.938C51.6722 15.134 51.0282 15.456 50.4122 15.904C49.9642 16.24 49.5582 16.688 49.1942 17.248C48.8582 17.78 48.5082 18.27 48.1442 18.718C48.1722 18.914 48.1162 19.082 47.9762 19.222C47.8642 19.362 47.7382 19.502 47.5982 19.642C47.2342 20.342 46.9962 21 46.8842 21.616C46.7722 22.204 46.7162 22.568 46.7162 22.708C46.7162 23.156 46.7862 23.618 46.9262 24.094C47.0662 24.57 47.2902 24.878 47.5982 25.018ZM57.7008 36.358C57.0288 36.554 56.2868 36.582 55.4748 36.442C54.6908 36.33 54.0048 36.092 53.4168 35.728C52.8008 35.364 52.4508 34.958 52.3668 34.51C52.3388 34.342 52.3948 34.16 52.5348 33.964C52.6468 33.768 52.8008 33.628 52.9968 33.544C53.1648 33.488 53.3188 33.544 53.4588 33.712C53.6828 33.852 54.0888 34.02 54.6768 34.216C55.2648 34.44 55.9228 34.482 56.6508 34.342C57.2948 34.202 57.9248 33.824 58.5408 33.208C59.1848 32.592 59.7028 32.018 60.0948 31.486C60.3188 31.15 60.6968 30.548 61.2288 29.68C61.7608 28.812 62.3068 27.86 62.8668 26.824C63.4548 25.76 63.9448 24.78 64.3368 23.884C64.4208 23.66 64.5188 23.394 64.6308 23.086C64.7428 22.778 64.8828 22.526 65.0508 22.33C65.2188 21.994 65.3588 21.686 65.4708 21.406C65.6108 21.098 65.6948 20.888 65.7228 20.776C65.7508 20.636 65.8768 20.356 66.1008 19.936C66.3248 19.516 66.5348 19.096 66.7308 18.676C66.8708 18.256 67.0808 17.64 67.3608 16.828C67.6408 16.016 67.9208 15.358 68.2008 14.854C68.5368 14.21 68.8028 13.692 68.9988 13.3C69.2228 12.88 69.4608 12.628 69.7128 12.544C69.9648 12.348 70.1328 12.25 70.2168 12.25C70.3288 12.25 70.5388 12.334 70.8468 12.502C71.1828 12.838 71.3928 13.174 71.4768 13.51C71.5608 13.818 71.5188 14.21 71.3508 14.686C71.2108 15.134 70.9308 15.75 70.5108 16.534C70.2868 17.206 70.0348 17.822 69.7548 18.382C69.5028 18.914 69.3068 19.264 69.1668 19.432C69.0268 19.768 68.8588 20.146 68.6628 20.566C68.4948 20.958 68.3408 21.322 68.2008 21.658C67.6968 22.778 67.2628 23.688 66.8988 24.388C66.5348 25.088 66.2128 25.732 65.9328 26.32C65.6528 26.908 65.3588 27.594 65.0508 28.378C64.4068 29.414 63.7768 30.394 63.1608 31.318C62.5728 32.27 61.9428 33.152 61.2708 33.964C60.9908 34.216 60.6408 34.51 60.2208 34.846C59.8008 35.182 59.3668 35.49 58.9188 35.77C58.4988 36.05 58.0928 36.246 57.7008 36.358ZM63.3708 26.278C62.9508 26.222 62.5308 25.97 62.1108 25.522C61.7188 25.074 61.4108 24.598 61.1868 24.094C60.9628 23.59 60.8788 23.226 60.9348 23.002C60.9348 22.862 60.9348 22.75 60.9348 22.666C60.9348 22.582 60.9348 22.54 60.9348 22.54C60.7668 22.54 60.6128 22.33 60.4728 21.91C60.3608 21.49 60.2768 20.944 60.2208 20.272C60.1648 19.6 60.1228 18.886 60.0948 18.13C60.0948 17.374 60.1228 16.66 60.1788 15.988C60.2908 15.512 60.3468 14.994 60.3468 14.434C60.3468 13.846 60.3608 13.384 60.3888 13.048C60.3608 12.6 60.4028 12.306 60.5148 12.166C60.6268 11.998 60.7388 11.872 60.8508 11.788C61.6348 11.452 62.1528 11.662 62.4048 12.418C62.6848 13.146 62.7548 14.518 62.6148 16.534C62.5588 17.654 62.5588 18.774 62.6148 19.894C62.6708 21.014 62.8248 21.994 63.0768 22.834C63.3568 23.674 63.7348 24.248 64.2108 24.556C64.4068 24.668 64.5048 24.822 64.5048 25.018C64.5048 25.214 64.4488 25.424 64.3368 25.648C64.2248 25.844 64.0708 26.012 63.8748 26.152C63.7068 26.264 63.5388 26.306 63.3708 26.278ZM83.1453 27.538C82.9773 27.482 82.8093 27.44 82.6413 27.412C82.4733 27.356 82.3053 27.3 82.1373 27.244C81.9973 27.188 81.8293 27.146 81.6333 27.118C81.3533 26.726 81.2413 26.25 81.2973 25.69C81.3533 25.102 81.4793 24.5 81.6753 23.884C81.8993 23.268 82.1093 22.666 82.3053 22.078C82.5293 21.49 82.6553 20.986 82.6833 20.566C82.6553 20.454 82.6133 20.426 82.5573 20.482C82.5013 20.51 82.4733 20.552 82.4733 20.608C82.2773 20.832 81.9973 20.986 81.6333 21.07C81.2693 21.154 80.9333 21.224 80.6253 21.28C80.0933 21.364 79.5613 21.462 79.0293 21.574C78.4973 21.686 77.9793 21.812 77.4753 21.952C77.3913 21.896 77.2933 21.826 77.1813 21.742C77.0973 21.658 77.0133 21.588 76.9293 21.532C76.7333 21.532 76.5653 21.714 76.4253 22.078C76.2853 22.442 76.1593 22.89 76.0473 23.422C75.9353 23.926 75.8233 24.416 75.7113 24.892C75.6273 25.34 75.5433 25.662 75.4593 25.858C75.0113 25.914 74.6893 25.928 74.4933 25.9C74.3253 25.872 74.0033 25.788 73.5273 25.648C73.3033 25.34 73.1773 25.046 73.1493 24.766C73.1493 24.486 73.1913 24.178 73.2753 23.842C73.4153 23.198 73.5273 22.68 73.6113 22.288C73.7233 21.896 73.9053 21.392 74.1573 20.776C74.2973 20.468 74.4233 20.174 74.5353 19.894C74.6753 19.586 74.7453 19.25 74.7453 18.886C74.9693 18.606 75.1233 18.298 75.2073 17.962C75.2913 17.626 75.3893 17.29 75.5013 16.954C75.9493 15.806 76.2993 14.924 76.5513 14.308C76.8313 13.664 77.0273 13.16 77.1393 12.796C77.2513 12.432 77.3213 12.096 77.3493 11.788C77.3773 11.396 77.6153 11.2 78.0633 11.2C78.3433 11.2 78.6373 11.312 78.9453 11.536C79.2533 11.732 79.4913 11.984 79.6593 12.292C79.8273 12.6 79.8413 12.922 79.7013 13.258C79.6173 13.482 79.4773 13.846 79.2813 14.35C79.1133 14.826 78.9173 15.358 78.6933 15.946C78.4973 16.506 78.3013 17.038 78.1053 17.542C77.9373 18.018 77.7973 18.368 77.6853 18.592C77.6573 18.704 77.6013 18.802 77.5173 18.886C77.4333 18.942 77.3913 19.04 77.3913 19.18C77.5873 19.32 77.9093 19.376 78.3573 19.348C78.8333 19.292 79.1693 19.208 79.3653 19.096C79.7853 19.096 80.1913 19.096 80.5833 19.096C81.0033 19.096 81.4233 19.096 81.8433 19.096C82.2633 19.348 82.5853 19.726 82.8093 20.23C83.0053 19.698 83.2713 18.998 83.6073 18.13C83.9433 17.234 84.2653 16.352 84.5733 15.484C84.8813 14.616 85.0633 13.958 85.1193 13.51C85.1753 13.258 85.2873 13.034 85.4553 12.838C85.6233 12.642 85.8053 12.488 86.0013 12.376C86.3933 12.572 86.7713 12.74 87.1353 12.88C87.5273 12.992 87.7793 13.314 87.8913 13.846C87.8633 14.098 87.8073 14.35 87.7233 14.602C87.6393 14.826 87.5553 15.05 87.4713 15.274C87.1913 16.086 86.8413 16.982 86.4213 17.962C86.0013 18.914 85.6093 19.894 85.2453 20.902C84.9093 21.882 84.6713 22.806 84.5313 23.674C84.5313 23.758 84.4613 24.038 84.3213 24.514C84.2093 24.99 84.0833 25.452 83.9433 25.9C83.8313 26.348 83.7613 26.586 83.7333 26.614C83.7333 26.81 83.6773 26.992 83.5653 27.16C83.4533 27.3 83.3133 27.426 83.1453 27.538ZM101.187 27.664C100.851 27.58 100.585 27.398 100.389 27.118C100.221 26.838 100.011 26.586 99.7586 26.362C99.7866 25.97 99.8706 25.438 100.011 24.766C100.179 24.094 100.375 23.436 100.599 22.792C100.823 22.12 101.033 21.616 101.229 21.28C101.313 20.58 101.481 19.908 101.733 19.264C102.013 18.62 102.251 17.948 102.447 17.248C102.587 16.744 102.727 16.24 102.867 15.736C103.035 15.232 103.175 14.728 103.287 14.224C103.343 14.084 103.357 13.958 103.329 13.846C103.329 13.706 103.357 13.58 103.413 13.468C103.525 13.3 103.651 13.16 103.791 13.048C103.931 12.908 104.071 12.782 104.211 12.67C104.547 12.782 104.799 12.852 104.967 12.88C105.135 12.908 105.373 12.866 105.681 12.754C105.709 12.754 105.919 12.768 106.311 12.796C106.731 12.796 107.165 12.81 107.613 12.838C108.061 12.838 108.341 12.838 108.453 12.838C108.817 12.838 109.167 12.908 109.503 13.048C109.839 13.16 110.189 13.23 110.553 13.258C111.197 13.538 111.757 13.916 112.233 14.392C112.737 14.868 112.919 15.526 112.779 16.366C112.723 16.814 112.681 17.262 112.653 17.71C112.653 18.13 112.541 18.55 112.317 18.97C112.289 19.39 112.177 19.824 111.981 20.272C111.813 20.692 111.631 21.126 111.435 21.574C111.239 22.022 111.085 22.498 110.973 23.002C110.945 23.198 110.875 23.38 110.763 23.548C110.679 23.716 110.623 23.912 110.595 24.136C110.595 24.276 110.581 24.416 110.553 24.556C110.553 24.668 110.539 24.794 110.511 24.934C110.483 25.046 110.427 25.172 110.343 25.312C110.427 25.508 110.343 25.774 110.091 26.11C109.867 26.446 109.559 26.502 109.167 26.278C109.111 26.222 109.041 26.18 108.957 26.152C108.873 26.096 108.803 26.054 108.747 26.026C108.439 25.802 108.271 25.466 108.243 25.018C108.215 24.542 108.243 24.066 108.327 23.59C108.411 23.086 108.481 22.666 108.537 22.33C108.593 22.274 108.719 21.966 108.915 21.406C109.111 20.846 109.321 20.202 109.545 19.474C109.797 18.718 110.007 18.046 110.175 17.458C110.371 16.842 110.469 16.478 110.469 16.366C110.441 16.226 110.413 16.1 110.385 15.988C110.357 15.876 110.315 15.764 110.259 15.652C109.559 15.596 108.831 15.54 108.075 15.484C107.347 15.428 106.647 15.484 105.975 15.652C105.891 15.68 105.807 15.736 105.723 15.82C105.667 15.876 105.625 15.946 105.597 16.03C105.429 16.73 105.219 17.402 104.967 18.046C104.715 18.69 104.505 19.362 104.337 20.062C104.141 20.93 103.833 21.798 103.413 22.666C102.993 23.506 102.741 24.388 102.657 25.312C102.517 25.508 102.419 25.774 102.363 26.11C102.307 26.446 102.237 26.754 102.153 27.034C102.097 27.286 101.943 27.454 101.691 27.538C101.579 27.566 101.481 27.58 101.397 27.58C101.313 27.58 101.243 27.608 101.187 27.664ZM113.957 37.408C113.845 37.408 113.705 37.408 113.537 37.408C113.369 37.436 113.215 37.324 113.075 37.072C112.963 36.932 112.893 36.722 112.865 36.442C112.865 36.162 112.935 35.658 113.075 34.93C113.215 34.454 113.327 33.978 113.411 33.502C113.495 33.054 113.537 32.718 113.537 32.494C113.537 32.382 113.565 32.158 113.621 31.822C113.705 31.514 113.747 31.29 113.747 31.15C113.887 30.926 113.999 30.618 114.083 30.226C114.167 29.834 114.209 29.484 114.209 29.176C114.209 28.84 114.377 28.532 114.713 28.252C114.713 28.028 114.755 27.748 114.839 27.412C114.951 27.076 115.007 26.852 115.007 26.74C115.091 26.348 115.273 25.662 115.553 24.682C115.861 23.674 116.225 22.54 116.645 21.28C117.093 20.02 117.527 18.788 117.947 17.584C118.367 16.38 118.745 15.358 119.081 14.518C119.417 13.734 119.641 13.062 119.753 12.502C119.893 11.914 119.963 11.48 119.963 11.2C119.963 11.088 119.991 11.004 120.047 10.948C120.103 10.864 120.229 10.71 120.425 10.486C120.705 10.206 120.943 10.122 121.139 10.234C121.363 10.346 121.629 10.514 121.937 10.738C122.161 11.102 122.315 11.41 122.399 11.662C122.511 11.914 122.511 12.348 122.399 12.964C122.399 13.384 122.329 13.748 122.189 14.056C122.049 14.364 121.923 14.602 121.811 14.77C121.699 14.91 121.671 14.966 121.727 14.938C122.875 14.406 123.883 14.126 124.751 14.098C125.647 14.042 126.389 14.196 126.977 14.56C127.593 14.896 128.055 15.372 128.363 15.988C128.671 16.604 128.825 17.318 128.825 18.13C128.825 18.466 128.755 18.872 128.615 19.348C128.475 19.796 128.293 20.216 128.069 20.608C127.873 20.972 127.691 21.238 127.523 21.406C127.411 21.406 127.299 21.504 127.187 21.7C127.075 21.868 126.963 22.064 126.851 22.288C126.627 22.568 126.263 22.89 125.759 23.254C125.283 23.59 124.807 23.87 124.331 24.094C123.855 24.29 123.505 24.346 123.281 24.262C123.281 24.262 123.239 24.276 123.155 24.304C123.099 24.304 123.071 24.374 123.071 24.514C123.071 24.57 122.847 24.696 122.399 24.892C121.951 25.06 121.433 25.228 120.845 25.396C120.257 25.536 119.739 25.606 119.291 25.606C118.703 25.606 118.283 25.494 118.031 25.27C117.975 25.326 117.905 25.41 117.821 25.522C117.765 25.634 117.737 25.732 117.737 25.816C117.737 25.984 117.667 26.306 117.527 26.782C117.415 27.23 117.275 27.664 117.107 28.084C116.939 28.504 116.785 28.714 116.645 28.714C116.645 28.714 116.617 28.756 116.561 28.84C116.505 28.924 116.533 29.036 116.645 29.176C116.645 29.176 116.631 29.33 116.603 29.638C116.603 29.974 116.533 30.254 116.393 30.478C116.393 30.702 116.351 31.038 116.267 31.486C116.183 31.934 116.085 32.27 115.973 32.494C115.973 32.83 115.917 33.152 115.805 33.46C115.721 33.796 115.623 33.964 115.511 33.964C115.399 33.992 115.329 34.16 115.301 34.468C115.273 34.804 115.259 35.042 115.259 35.182C115.231 35.882 115.091 36.428 114.839 36.82C114.587 37.212 114.293 37.408 113.957 37.408ZM119.039 23.38C119.263 23.38 119.725 23.282 120.425 23.086C121.125 22.89 121.839 22.652 122.567 22.372C123.323 22.064 123.883 21.756 124.247 21.448C124.975 20.804 125.535 20.076 125.927 19.264C126.347 18.424 126.319 17.626 125.843 16.87C125.619 16.478 125.213 16.324 124.625 16.408C124.037 16.464 123.393 16.688 122.693 17.08C121.993 17.472 121.335 17.962 120.719 18.55C120.383 18.914 120.075 19.362 119.795 19.894C119.515 20.426 119.277 20.958 119.081 21.49C118.913 22.022 118.815 22.47 118.787 22.834C118.759 23.198 118.843 23.38 119.039 23.38ZM135.878 26.404C135.29 26.516 134.912 26.558 134.744 26.53C134.604 26.474 134.38 26.306 134.072 26.026C133.624 25.802 133.246 25.522 132.938 25.186C132.658 24.85 132.448 24.5 132.308 24.136C132.196 23.744 132.154 23.422 132.182 23.17C132.266 22.19 132.504 21.14 132.896 20.02C133.288 18.9 133.764 17.822 134.324 16.786C134.884 15.75 135.486 14.868 136.13 14.14C136.802 13.384 137.446 12.894 138.062 12.67C138.622 12.446 139.154 12.362 139.658 12.418C140.162 12.474 140.526 12.74 140.75 13.216C141.17 14.028 141.072 14.546 140.456 14.77C140.372 14.77 140.274 14.812 140.162 14.896C140.05 14.952 139.994 15.036 139.994 15.148C140.106 15.204 140.414 15.218 140.918 15.19C141.422 15.134 141.926 15.05 142.43 14.938C142.962 14.798 143.312 14.658 143.48 14.518C143.648 14.434 143.774 14.392 143.858 14.392C143.942 14.392 144.152 14.42 144.488 14.476C144.964 14.616 145.202 14.784 145.202 14.98C145.202 15.092 145.244 15.204 145.328 15.316C145.412 15.4 145.51 15.442 145.622 15.442C145.818 15.47 145.79 15.596 145.538 15.82C145.314 16.044 144.922 16.352 144.362 16.744C143.83 17.08 143.494 17.304 143.354 17.416C143.242 17.5 143.228 17.696 143.312 18.004C143.536 18.536 143.55 19.152 143.354 19.852C143.158 20.552 142.808 21.266 142.304 21.994C141.8 22.722 141.184 23.408 140.456 24.052C139.756 24.668 139 25.2 138.188 25.648C137.404 26.068 136.634 26.32 135.878 26.404ZM135.164 24.556C135.276 24.556 135.472 24.5 135.752 24.388C136.032 24.248 136.256 24.136 136.424 24.052C136.536 23.94 136.676 23.814 136.844 23.674C137.04 23.506 137.194 23.408 137.306 23.38C137.418 23.38 137.558 23.338 137.726 23.254C137.894 23.142 138.132 22.932 138.44 22.624C138.748 22.288 139.154 21.798 139.658 21.154C140.218 20.538 140.652 19.978 140.96 19.474C141.268 18.942 141.352 18.452 141.212 18.004C141.184 17.892 141.1 17.822 140.96 17.794C140.848 17.766 140.694 17.696 140.498 17.584C140.218 17.584 139.952 17.514 139.7 17.374C139.476 17.206 139.21 16.996 138.902 16.744L138.23 15.904L137.516 16.618C137.068 17.066 136.592 17.738 136.088 18.634C135.612 19.502 135.206 20.398 134.87 21.322C134.534 22.218 134.338 22.932 134.282 23.464C134.254 23.884 134.324 24.164 134.492 24.304C134.66 24.444 134.884 24.528 135.164 24.556ZM148.08 27.748C147.408 27.972 146.834 27.86 146.358 27.412C146.218 27.3 146.064 27.188 145.896 27.076C145.728 26.964 145.616 26.824 145.56 26.656C145.56 26.628 145.588 26.446 145.644 26.11C145.728 25.746 145.812 25.396 145.896 25.06C146.008 24.696 146.078 24.5 146.106 24.472C146.582 23.492 146.946 22.526 147.198 21.574C147.45 20.594 147.66 19.6 147.828 18.592C147.94 18.004 148.066 17.318 148.206 16.534C148.374 15.75 148.514 15.064 148.626 14.476C148.766 13.888 148.836 13.594 148.836 13.594C148.892 13.454 148.948 13.314 149.004 13.174C149.06 13.034 149.102 12.894 149.13 12.754C149.55 12.446 150.096 12.138 150.768 11.83C151.44 11.494 152.042 11.396 152.574 11.536C152.658 11.452 152.812 11.424 153.036 11.452C153.288 11.452 153.526 11.452 153.75 11.452C154.002 11.452 154.17 11.41 154.254 11.326C154.422 11.382 154.73 11.41 155.178 11.41C155.654 11.41 156.13 11.41 156.606 11.41C157.11 11.41 157.474 11.424 157.698 11.452C158.09 11.676 158.342 11.858 158.454 11.998C158.566 12.138 158.762 12.404 159.042 12.796C159.014 13.104 158.916 13.342 158.748 13.51C158.58 13.65 158.342 13.734 158.034 13.762C157.754 13.762 157.502 13.762 157.278 13.762C157.082 13.734 156.844 13.734 156.564 13.762C156.144 13.762 155.612 13.776 154.968 13.804C154.352 13.832 153.736 13.874 153.12 13.93C152.504 13.958 151.986 14.014 151.566 14.098C151.538 14.406 151.51 14.728 151.482 15.064C151.454 15.372 151.37 15.68 151.23 15.988C151.146 16.296 151.034 16.744 150.894 17.332C150.754 17.892 150.6 18.452 150.432 19.012C150.292 19.544 150.152 19.936 150.012 20.188C149.872 20.384 149.788 20.608 149.76 20.86C149.732 21.084 149.676 21.308 149.592 21.532C149.48 21.84 149.354 22.302 149.214 22.918C149.102 23.534 148.976 24.178 148.836 24.85C148.724 25.522 148.598 26.138 148.458 26.698C148.346 27.23 148.22 27.58 148.08 27.748ZM156.198 37.366C156.002 37.282 155.792 37.142 155.568 36.946C155.344 36.75 155.162 36.526 155.022 36.274C154.882 36.05 154.812 35.854 154.812 35.686C154.812 35.518 154.882 35.07 155.022 34.342C155.162 33.642 155.344 32.774 155.568 31.738C155.82 30.73 156.086 29.694 156.366 28.63C156.674 27.594 156.982 26.67 157.29 25.858C157.346 25.718 157.528 25.256 157.836 24.472C158.172 23.66 158.494 22.68 158.802 21.532C159.026 20.804 159.32 19.978 159.684 19.054C160.048 18.13 160.426 17.206 160.818 16.282C161.21 15.33 161.532 14.49 161.784 13.762C162.036 13.034 162.246 12.446 162.414 11.998C162.61 11.522 162.722 11.228 162.75 11.116C162.806 10.948 162.89 10.808 163.002 10.696C163.142 10.556 163.282 10.444 163.422 10.36C163.562 10.248 163.674 10.178 163.758 10.15C164.262 10.01 164.696 10.22 165.06 10.78C165.2 11.032 165.228 11.326 165.144 11.662C165.06 11.998 164.906 12.418 164.682 12.922L164.388 13.762L165.9 13.426C166.152 13.426 166.46 13.44 166.824 13.468C167.216 13.468 167.594 13.468 167.958 13.468C168.322 13.468 168.588 13.496 168.756 13.552C169.428 13.58 169.89 13.706 170.142 13.93C170.422 14.154 170.66 14.448 170.856 14.812C170.996 14.952 171.164 15.148 171.36 15.4C171.556 15.624 171.668 15.848 171.696 16.072C171.808 16.548 171.808 17.066 171.696 17.626C171.612 18.158 171.444 18.69 171.192 19.222C170.968 19.754 170.66 20.244 170.268 20.692C169.904 21.112 169.512 21.462 169.092 21.742C168.812 21.854 168.56 21.98 168.336 22.12C168.112 22.232 168 22.288 168 22.288C167.972 22.428 167.664 22.652 167.076 22.96C166.488 23.24 165.816 23.506 165.06 23.758C164.304 24.01 163.646 24.178 163.086 24.262C162.89 24.29 162.61 24.318 162.246 24.346C161.882 24.374 161.602 24.332 161.406 24.22C161.098 24.164 160.888 24.136 160.776 24.136C160.664 24.136 160.608 24.192 160.608 24.304C160.58 24.36 160.384 24.948 160.02 26.068C159.656 27.188 159.278 28.49 158.886 29.974C158.354 31.598 157.92 32.886 157.584 33.838C157.248 34.818 156.982 35.546 156.786 36.022C156.618 36.498 156.492 36.82 156.408 36.988C156.324 37.184 156.254 37.31 156.198 37.366ZM161.448 21.868C161.532 22.036 161.798 22.092 162.246 22.036C162.722 21.952 163.282 21.784 163.926 21.532C164.598 21.252 165.256 20.944 165.9 20.608C166.544 20.244 167.076 19.88 167.496 19.516C168.112 18.816 168.616 18.172 169.008 17.584C169.4 16.968 169.456 16.562 169.176 16.366C168.868 15.918 168.294 15.708 167.454 15.736C166.614 15.764 165.578 16.114 164.346 16.786C163.87 16.954 163.506 17.178 163.254 17.458C163.03 17.71 162.834 18.032 162.666 18.424C162.498 18.816 162.288 19.292 162.036 19.852C161.784 20.468 161.616 20.93 161.532 21.238C161.448 21.546 161.42 21.756 161.448 21.868ZM176.523 26.614C176.187 26.67 175.823 26.614 175.431 26.446C175.039 26.278 174.689 26.04 174.381 25.732C174.101 25.424 173.919 25.102 173.835 24.766C173.723 24.178 173.793 23.45 174.045 22.582C174.325 21.686 174.717 20.748 175.221 19.768C175.753 18.76 176.341 17.794 176.985 16.87C177.657 15.946 178.343 15.148 179.043 14.476C179.771 13.776 180.443 13.3 181.059 13.048C181.367 12.852 181.605 12.726 181.773 12.67C181.969 12.586 182.165 12.572 182.361 12.628C182.585 12.684 182.907 12.824 183.327 13.048C183.719 13.16 184.013 13.286 184.209 13.426C184.405 13.566 184.657 13.846 184.965 14.266C185.189 14.686 185.357 15.106 185.469 15.526C185.581 15.946 185.679 16.422 185.763 16.954C185.987 17.654 186.071 18.116 186.015 18.34C185.959 18.536 185.875 18.69 185.763 18.802C185.539 19.082 185.483 19.222 185.595 19.222C185.595 19.222 185.581 19.278 185.553 19.39C185.553 19.474 185.497 19.614 185.385 19.81C185.189 20.426 185.035 21.07 184.923 21.742C184.839 22.386 184.853 22.918 184.965 23.338C185.189 23.954 185.595 24.318 186.183 24.43C186.771 24.542 187.373 24.29 187.989 23.674C188.297 23.45 188.591 23.254 188.871 23.086C189.151 22.89 189.291 22.904 189.291 23.128C189.291 23.128 189.333 23.17 189.417 23.254C189.501 23.31 189.599 23.338 189.711 23.338C189.851 23.338 189.935 23.394 189.963 23.506C190.019 23.618 190.019 23.772 189.963 23.968C189.935 24.136 189.851 24.332 189.711 24.556C189.291 24.976 189.081 25.256 189.081 25.396C189.081 25.396 189.025 25.452 188.913 25.564C188.829 25.648 188.675 25.788 188.451 25.984C187.947 26.292 187.303 26.446 186.519 26.446C185.763 26.446 185.175 26.292 184.755 25.984C184.335 25.676 183.943 25.256 183.579 24.724C183.243 24.192 183.019 23.73 182.907 23.338L182.697 22.918L181.479 23.716C181.171 24.024 180.835 24.318 180.471 24.598C180.135 24.878 179.911 25.074 179.799 25.186C179.715 25.298 179.617 25.396 179.505 25.48C179.421 25.564 179.323 25.606 179.211 25.606C179.099 25.606 179.001 25.606 178.917 25.606C178.833 25.606 178.791 25.606 178.791 25.606C178.791 25.718 178.651 25.858 178.371 26.026C178.119 26.194 177.811 26.334 177.447 26.446C177.111 26.558 176.803 26.614 176.523 26.614ZM176.103 24.346C176.271 24.346 176.565 24.22 176.985 23.968C177.433 23.688 177.923 23.366 178.455 23.002C179.015 22.638 179.505 22.274 179.925 21.91C180.373 21.546 180.681 21.266 180.849 21.07C180.961 20.958 181.143 20.776 181.395 20.524C181.647 20.244 181.871 20.006 182.067 19.81C182.711 19.082 183.159 18.284 183.411 17.416C183.663 16.52 183.635 15.82 183.327 15.316C183.215 15.008 183.075 14.84 182.907 14.812C182.739 14.784 182.389 14.882 181.857 15.106C181.521 15.302 181.101 15.68 180.597 16.24C180.121 16.772 179.603 17.402 179.043 18.13C178.511 18.83 178.007 19.558 177.531 20.314C177.055 21.07 176.663 21.77 176.355 22.414C176.047 23.058 175.893 23.562 175.893 23.926C175.893 24.038 175.921 24.136 175.977 24.22C176.061 24.304 176.103 24.346 176.103 24.346ZM207.861 27.874C207.581 27.734 207.371 27.594 207.231 27.454C207.091 27.286 206.853 27.104 206.517 26.908C206.405 26.516 206.279 26.124 206.139 25.732C206.027 25.312 205.985 24.906 206.013 24.514C206.041 24.29 205.999 24.052 205.887 23.8C205.803 23.52 205.817 23.282 205.929 23.086C205.873 22.638 205.887 22.064 205.971 21.364C206.055 20.636 206.167 19.95 206.307 19.306C206.447 18.634 206.545 18.158 206.601 17.878C206.517 17.766 206.433 17.696 206.349 17.668C206.293 17.64 206.209 17.682 206.097 17.794C205.817 18.074 205.551 18.354 205.299 18.634C205.047 18.914 204.781 19.208 204.501 19.516C204.389 19.628 204.263 19.74 204.123 19.852C203.983 19.936 203.913 20.076 203.913 20.272L202.401 22.288C202.289 22.512 202.079 22.806 201.771 23.17C201.491 23.506 201.267 23.912 201.099 24.388C201.043 24.584 200.945 24.752 200.805 24.892C200.665 25.004 200.525 25.116 200.385 25.228C200.021 25.088 199.783 24.99 199.671 24.934C199.559 24.878 199.349 24.71 199.041 24.43C198.761 24.15 198.565 23.898 198.453 23.674C198.341 23.422 198.313 23.17 198.369 22.918C198.369 22.498 198.369 21.91 198.369 21.154C198.397 20.37 198.397 19.628 198.369 18.928C198.369 18.2 198.313 17.696 198.201 17.416C197.893 17.444 197.683 17.486 197.571 17.542C197.459 17.598 197.319 17.766 197.151 18.046C197.179 18.018 197.053 18.214 196.773 18.634C196.521 19.026 196.171 19.544 195.723 20.188C195.303 20.804 194.883 21.434 194.463 22.078C194.043 22.694 193.693 23.226 193.413 23.674C193.161 24.094 193.049 24.29 193.077 24.262C192.881 24.486 192.713 24.724 192.573 24.976C192.461 25.228 192.349 25.494 192.237 25.774C192.097 26.11 191.943 26.334 191.775 26.446C191.607 26.53 191.453 26.502 191.313 26.362C191.089 26.222 190.851 26.082 190.599 25.942C190.375 25.802 190.179 25.676 190.011 25.564C189.899 25.368 189.801 25.172 189.717 24.976C189.661 24.752 189.619 24.5 189.591 24.22C189.815 24.08 189.969 23.996 190.053 23.968C190.137 23.912 190.207 23.814 190.263 23.674C190.879 22.75 191.411 21.966 191.859 21.322C192.307 20.65 192.685 20.104 192.993 19.684C193.301 19.264 193.539 18.942 193.707 18.718C193.875 18.466 193.973 18.298 194.001 18.214C194.141 17.934 194.309 17.668 194.505 17.416C194.729 17.164 194.939 16.898 195.135 16.618C195.163 16.534 195.303 16.338 195.555 16.03C195.807 15.694 196.073 15.358 196.353 15.022C196.633 14.686 196.829 14.49 196.941 14.434C197.081 14.35 197.179 14.238 197.235 14.098C197.319 13.93 197.403 13.762 197.487 13.594C197.543 13.342 197.669 13.16 197.865 13.048C198.061 12.936 198.355 12.908 198.747 12.964C198.971 13.16 199.223 13.37 199.503 13.594C199.783 13.79 200.077 14 200.385 14.224C200.357 14.504 200.343 14.798 200.343 15.106C200.371 15.414 200.483 15.89 200.679 16.534C200.595 16.87 200.609 17.22 200.721 17.584C200.833 17.948 200.833 18.284 200.721 18.592C200.721 18.956 200.805 19.222 200.973 19.39C201.169 19.53 201.463 19.39 201.855 18.97C202.303 18.41 202.835 17.808 203.451 17.164C204.067 16.492 204.669 15.862 205.257 15.274C205.873 14.658 206.391 14.14 206.811 13.72C207.259 13.272 207.525 12.992 207.609 12.88C207.665 12.74 207.763 12.67 207.903 12.67C208.071 12.642 208.225 12.67 208.365 12.754C208.841 13.006 209.163 13.188 209.331 13.3C209.499 13.412 209.737 13.622 210.045 13.93C210.325 14.322 210.367 14.672 210.171 14.98C210.059 15.26 209.905 15.722 209.709 16.366C209.541 16.982 209.359 17.668 209.163 18.424C208.995 19.18 208.841 19.894 208.701 20.566C208.589 21.21 208.519 21.714 208.491 22.078C208.463 22.638 208.435 23.226 208.407 23.842C208.379 24.43 208.421 25.046 208.533 25.69C208.757 26.558 208.813 27.118 208.701 27.37C208.617 27.594 208.337 27.762 207.861 27.874ZM232.829 27.16C232.521 27.216 232.213 27.23 231.905 27.202C231.597 27.174 231.303 27.062 231.023 26.866C230.911 26.642 230.771 26.39 230.603 26.11C230.463 25.802 230.449 25.536 230.561 25.312C230.701 24.976 230.771 24.5 230.771 23.884C230.799 23.268 230.911 22.75 231.107 22.33C231.135 22.274 231.149 22.232 231.149 22.204C231.177 22.148 231.191 22.092 231.191 22.036C231.219 21.756 231.289 21.406 231.401 20.986C231.541 20.538 231.639 20.188 231.695 19.936C231.723 19.88 231.765 19.642 231.821 19.222C231.877 18.802 231.933 18.354 231.989 17.878C232.045 17.402 232.073 17.066 232.073 16.87C232.073 16.73 232.115 16.618 232.199 16.534C232.311 16.422 232.311 16.282 232.199 16.114C231.751 16.534 231.191 17.108 230.519 17.836C229.875 18.564 229.259 19.306 228.671 20.062C228.083 20.79 227.621 21.42 227.285 21.952C227.229 22.064 227.159 22.162 227.075 22.246C226.991 22.33 226.921 22.414 226.865 22.498C226.753 22.666 226.613 22.82 226.445 22.96C226.277 23.1 226.151 23.282 226.067 23.506C225.591 23.982 225.199 24.43 224.891 24.85C224.611 25.27 224.205 25.704 223.673 26.152C223.309 26.236 222.973 26.208 222.665 26.068C222.385 25.928 222.091 25.802 221.783 25.69C221.727 25.55 221.657 25.41 221.573 25.27C221.489 25.102 221.419 24.948 221.363 24.808C221.447 24.164 221.573 23.38 221.741 22.456C221.909 21.504 222.049 20.566 222.161 19.642C222.301 18.718 222.343 18.004 222.287 17.5C222.259 17.36 222.245 17.248 222.245 17.164C222.245 17.08 222.287 16.982 222.371 16.87C222.371 16.814 222.371 16.758 222.371 16.702C222.399 16.646 222.413 16.604 222.413 16.576C222.273 16.436 222.245 16.296 222.329 16.156C222.413 16.016 222.413 15.876 222.329 15.736C222.301 15.708 222.259 15.68 222.203 15.652C222.175 15.624 222.133 15.596 222.077 15.568C221.461 16.52 220.789 17.416 220.061 18.256C219.361 19.068 218.675 19.922 218.003 20.818C217.555 21.406 217.121 22.092 216.701 22.876C216.309 23.66 215.833 24.304 215.273 24.808C215.077 25.004 214.881 25.228 214.685 25.48C214.517 25.704 214.307 25.9 214.055 26.068C213.999 26.264 213.887 26.418 213.719 26.53C213.579 26.614 213.397 26.656 213.173 26.656C212.753 26.656 212.333 26.516 211.913 26.236C211.493 25.956 211.269 25.634 211.241 25.27C211.241 25.074 211.325 24.878 211.493 24.682C211.521 24.626 211.535 24.57 211.535 24.514C211.563 24.458 211.591 24.416 211.619 24.388C212.151 24.164 212.683 23.758 213.215 23.17C213.775 22.582 214.307 21.952 214.811 21.28C215.315 20.58 215.777 20.006 216.197 19.558C216.589 19.166 216.897 18.76 217.121 18.34C217.345 17.892 217.625 17.458 217.961 17.038C218.381 16.506 218.801 15.932 219.221 15.316C219.669 14.7 220.103 14.098 220.523 13.51C220.971 12.922 221.419 12.404 221.867 11.956C222.063 12.068 222.259 12.166 222.455 12.25C222.679 12.334 222.917 12.376 223.169 12.376C223.309 12.544 223.435 12.712 223.547 12.88C223.687 13.02 223.841 13.16 224.009 13.3C224.401 13.636 224.667 14.084 224.807 14.644C224.947 15.204 225.017 15.806 225.017 16.45C225.017 17.374 224.919 18.312 224.723 19.264C224.555 20.188 224.429 20.972 224.345 21.616C224.345 21.644 224.345 21.672 224.345 21.7C224.373 21.7 224.387 21.714 224.387 21.742C225.003 21.21 225.549 20.594 226.025 19.894C226.501 19.194 227.005 18.536 227.537 17.92C228.517 16.772 229.245 15.932 229.721 15.4C230.225 14.868 230.603 14.49 230.855 14.266C231.107 14.042 231.359 13.818 231.611 13.594C231.807 13.454 232.031 13.272 232.283 13.048C232.563 12.796 232.927 12.446 233.375 11.998C233.599 11.998 233.809 11.998 234.005 11.998C234.229 11.998 234.439 11.998 234.635 11.998C234.859 12.138 235.027 12.25 235.139 12.334C235.251 12.39 235.433 12.446 235.685 12.502C235.713 12.642 235.769 12.852 235.853 13.132C235.937 13.412 235.951 13.622 235.895 13.762C235.839 13.958 235.811 14.154 235.811 14.35C235.811 14.546 235.741 14.742 235.601 14.938C235.377 15.274 235.167 15.834 234.971 16.618C234.803 17.374 234.649 18.13 234.509 18.886C234.397 19.614 234.327 20.132 234.299 20.44C234.187 20.972 234.075 21.336 233.963 21.532C233.851 21.7 233.767 21.882 233.711 22.078C233.655 22.274 233.641 22.498 233.669 22.75C233.697 22.974 233.669 23.184 233.585 23.38C233.557 23.408 233.529 23.436 233.501 23.464C233.501 23.464 233.487 23.478 233.459 23.506C233.459 23.786 233.459 24.08 233.459 24.388C233.487 24.668 233.431 24.92 233.291 25.144C233.347 25.34 233.361 25.55 233.333 25.774C233.305 25.998 233.333 26.222 233.417 26.446C233.305 26.558 233.207 26.67 233.123 26.782C233.039 26.894 232.941 27.02 232.829 27.16ZM237.828 26.488C237.716 26.264 237.576 26.096 237.408 25.984C237.24 25.844 237.156 25.718 237.156 25.606C237.156 25.494 237.142 25.382 237.114 25.27C237.114 25.13 237.058 25.004 236.946 24.892C236.806 24.724 236.82 24.346 236.988 23.758C237.156 23.142 237.436 22.4 237.828 21.532C238.22 20.636 238.682 19.698 239.214 18.718C239.438 18.494 239.662 18.2 239.886 17.836C240.11 17.472 240.278 17.234 240.39 17.122C240.39 17.01 240.432 16.912 240.516 16.828C240.6 16.716 240.698 16.66 240.81 16.66V16.408C240.81 16.268 240.936 16.03 241.188 15.694C241.468 15.358 241.804 14.994 242.196 14.602C242.588 14.182 242.994 13.79 243.414 13.426C243.834 13.034 244.184 12.754 244.464 12.586C245.052 12.194 245.654 11.956 246.27 11.872C246.914 11.788 247.46 11.928 247.908 12.292C247.992 12.376 248.132 12.516 248.328 12.712C248.524 12.908 248.748 13.132 249 13.384C249.28 13.608 249.56 13.846 249.84 14.098L251.394 15.484L250.638 17.584C250.274 18.704 250.176 19.684 250.344 20.524C250.54 21.364 250.82 22.092 251.184 22.708C251.324 23.016 251.604 23.31 252.024 23.59C252.472 23.87 252.892 24.038 253.284 24.094C253.508 24.122 253.718 24.206 253.914 24.346C254.11 24.486 254.208 24.71 254.208 25.018C254.208 25.298 254.152 25.522 254.04 25.69C253.928 25.858 253.732 25.97 253.452 26.026C252.528 26.138 251.66 25.914 250.848 25.354C250.064 24.794 249.336 23.87 248.664 22.582C248.552 22.414 248.398 22.106 248.202 21.658C248.034 21.182 247.936 20.874 247.908 20.734C247.796 20.874 247.586 21.14 247.278 21.532C246.97 21.896 246.732 22.162 246.564 22.33C244.576 24.346 242.854 25.704 241.398 26.404C239.97 27.076 238.78 27.104 237.828 26.488ZM239.34 24.136C239.34 24.332 239.634 24.332 240.222 24.136C240.838 23.912 241.496 23.52 242.196 22.96C243.148 22.148 244.1 21.252 245.052 20.272C246.032 19.292 246.816 18.382 247.404 17.542L248.328 16.03C248.048 15.386 247.74 14.952 247.404 14.728C247.096 14.476 246.83 14.35 246.606 14.35C246.242 14.35 245.696 14.686 244.968 15.358C244.268 16.03 243.512 16.926 242.7 18.046C241.888 19.166 241.118 20.398 240.39 21.742C240.11 22.302 239.858 22.848 239.634 23.38C239.438 23.884 239.34 24.136 239.34 24.136ZM261.916 26.908C261.552 27.076 261.132 27.146 260.656 27.118C260.18 27.09 259.536 26.936 258.724 26.656C258.668 26.656 258.542 26.6 258.346 26.488C258.178 26.376 257.996 26.236 257.8 26.068C257.632 25.872 257.492 25.662 257.38 25.438C256.932 24.794 256.75 23.842 256.834 22.582C256.918 21.322 257.31 19.81 258.01 18.046C258.206 17.626 258.5 17.094 258.892 16.45C259.312 15.806 259.718 15.218 260.11 14.686C260.53 14.126 260.824 13.804 260.992 13.72C260.992 13.72 261.146 13.664 261.454 13.552C261.762 13.44 262.154 13.258 262.63 13.006C262.77 12.95 262.924 12.894 263.092 12.838C263.288 12.782 263.484 12.74 263.68 12.712C263.876 12.684 264.044 12.684 264.184 12.712C264.744 12.74 265.318 12.95 265.906 13.342C266.522 13.706 267.026 14.14 267.418 14.644C267.81 15.12 267.936 15.54 267.796 15.904C267.796 15.96 267.712 16.072 267.544 16.24C267.404 16.38 267.236 16.534 267.04 16.702C266.872 16.842 266.732 16.982 266.62 17.122C266.48 17.29 266.284 17.36 266.032 17.332C265.808 17.304 265.598 17.192 265.402 16.996C265.234 16.772 265.136 16.492 265.108 16.156C265.052 15.932 264.842 15.722 264.478 15.526C264.142 15.33 263.974 15.232 263.974 15.232C263.75 15.232 263.428 15.442 263.008 15.862C262.616 16.254 262.224 16.73 261.832 17.29C261.328 17.794 260.894 18.396 260.53 19.096C260.166 19.768 259.872 20.412 259.648 21.028C259.452 21.616 259.312 22.036 259.228 22.288C259.116 22.568 259.102 22.96 259.186 23.464C259.27 23.968 259.368 24.276 259.48 24.388C259.592 24.444 259.872 24.458 260.32 24.43C260.796 24.402 261.356 24.346 262 24.262C262.644 24.15 263.274 24.024 263.89 23.884C264.506 23.744 265.01 23.59 265.402 23.422C265.934 23.086 266.396 22.89 266.788 22.834C267.18 22.778 267.474 22.778 267.67 22.834C267.978 22.946 268.16 23.1 268.216 23.296C268.272 23.492 268.202 23.716 268.006 23.968C267.81 24.192 267.474 24.43 266.998 24.682C266.55 24.906 266.144 25.158 265.78 25.438C265.444 25.69 265.276 25.886 265.276 26.026C265.164 26.026 265.038 26.068 264.898 26.152C264.786 26.208 264.688 26.222 264.604 26.194C264.548 26.194 264.324 26.236 263.932 26.32C263.54 26.404 263.134 26.502 262.714 26.614C262.322 26.726 262.056 26.824 261.916 26.908ZM278.928 27.454C277.976 27.706 277.304 27.832 276.912 27.832C276.52 27.832 276.1 27.636 275.652 27.244C275.512 27.104 275.428 26.964 275.4 26.824C275.372 26.656 275.302 26.558 275.19 26.53C275.162 26.334 275.176 26.18 275.232 26.068C275.316 25.928 275.498 25.802 275.778 25.69C276.198 25.942 276.73 26.012 277.374 25.9C278.018 25.788 278.648 25.55 279.264 25.186C279.908 24.794 280.412 24.332 280.776 23.8C281.336 23.128 281.77 22.498 282.078 21.91C282.386 21.294 282.554 20.748 282.582 20.272C282.582 19.992 282.54 19.796 282.456 19.684C282.4 19.544 282.26 19.334 282.036 19.054C281.532 19.222 281.07 19.418 280.65 19.642C280.258 19.866 279.936 20.104 279.684 20.356C278.844 21.056 278.186 21.63 277.71 22.078C277.262 22.526 276.87 22.974 276.534 23.422C276.226 23.87 275.834 24.472 275.358 25.228C275.134 25.508 274.924 25.718 274.728 25.858C274.56 25.998 274.378 26.068 274.182 26.068C274.266 26.628 274.07 26.964 273.594 27.076C272.978 26.936 272.53 26.754 272.25 26.53C271.97 26.278 271.886 25.802 271.998 25.102C272.11 24.71 272.222 24.248 272.334 23.716C272.446 23.156 272.572 22.694 272.712 22.33C273.384 20.538 273.972 18.942 274.476 17.542C275.008 16.142 275.47 15.148 275.862 14.56L276.786 12.166C277.262 12.194 277.626 12.292 277.878 12.46C278.13 12.6 278.424 12.95 278.76 13.51C278.76 13.65 278.62 14.056 278.34 14.728C278.088 15.372 277.78 16.114 277.416 16.954C277.08 17.794 276.758 18.578 276.45 19.306C276.17 20.006 275.974 20.496 275.862 20.776C275.75 21.084 275.834 21.028 276.114 20.608C276.422 20.188 276.954 19.656 277.71 19.012C278.074 18.648 278.522 18.312 279.054 18.004C279.586 17.668 280.034 17.416 280.398 17.248C280.79 17.08 281.112 16.982 281.364 16.954C281.616 16.926 281.798 16.898 281.91 16.87C282.61 16.87 283.17 17.052 283.59 17.416C284.01 17.752 284.304 18.144 284.472 18.592C284.668 19.04 284.766 19.404 284.766 19.684C284.85 20.132 284.906 20.566 284.934 20.986C284.99 21.378 284.962 21.798 284.85 22.246C284.766 22.47 284.612 22.778 284.388 23.17C284.164 23.562 283.898 23.968 283.59 24.388C283.31 24.78 282.974 25.102 282.582 25.354C282.33 25.606 281.994 25.872 281.574 26.152C281.154 26.432 280.706 26.698 280.23 26.95C279.782 27.174 279.348 27.342 278.928 27.454ZM287.664 28.126C287.16 28.07 286.74 27.916 286.404 27.664C286.096 27.384 285.872 26.978 285.732 26.446C285.732 25.97 285.788 25.536 285.9 25.144C286.04 24.724 286.152 24.318 286.236 23.926C286.376 23.282 286.572 22.638 286.824 21.994C287.076 21.35 287.3 20.706 287.496 20.062C287.664 19.67 287.804 19.292 287.916 18.928C288.028 18.564 288.14 18.2 288.252 17.836C288.392 17.388 288.532 16.954 288.672 16.534C288.812 16.114 288.952 15.694 289.092 15.274C289.204 14.91 289.288 14.532 289.344 14.14C289.428 13.748 289.498 13.356 289.554 12.964C289.862 12.628 290.198 12.488 290.562 12.544C290.954 12.6 291.43 12.922 291.99 13.51C292.13 13.846 292.2 14.154 292.2 14.434C292.2 14.686 292.13 14.952 291.99 15.232C291.878 15.484 291.724 15.862 291.528 16.366C291.36 16.87 291.178 17.374 290.982 17.878C290.814 18.354 290.688 18.718 290.604 18.97C290.548 19.278 290.394 19.782 290.142 20.482C289.918 21.182 289.68 21.91 289.428 22.666C289.176 23.394 288.994 23.982 288.882 24.43C288.714 24.85 288.588 25.256 288.504 25.648C288.42 26.04 288.336 26.53 288.252 27.118C288.308 27.37 288.266 27.58 288.126 27.748C288.014 27.888 287.86 28.014 287.664 28.126Z" fill="#929783"/>
</svg>
