<svg width="409" height="94" viewBox="0 0 409 94" fill="none" xmlns="http://www.w3.org/2000/svg">
<path d="M16.8081 26.631L18.0381 26.672C18.2021 26.098 18.5711 25.0047 19.1451 23.392C19.7465 21.7793 20.1701 20.7133 20.4161 20.194C17.5735 22.8727 15.3731 24.4853 13.8151 25.032C12.9678 25.3327 12.1068 25.483 11.2321 25.483C9.78347 25.483 8.6628 25.0047 7.87014 24.048C7.07747 23.0913 6.68114 21.752 6.68114 20.03C6.68114 17.57 7.81547 14.29 10.0841 10.19C12.3528 6.06266 14.9358 2.83733 17.8331 0.513999L19.4731 2.031C13.4051 8.56367 10.3711 14.0167 10.3711 18.39C10.3711 20.932 11.3688 22.203 13.3641 22.203C15.3595 22.203 17.3001 21.1097 19.1861 18.923C21.0721 16.7363 23.0265 13.347 25.0491 8.755C25.8691 6.869 26.4978 5.62533 26.9351 5.024C27.3725 4.42267 27.7961 4.122 28.2061 4.122C28.6161 4.122 28.9305 4.245 29.1491 4.491C29.3951 4.737 29.5181 5.065 29.5181 5.475C29.5181 7.22433 28.2608 9.821 25.7461 13.265C23.9968 16.873 22.2338 21.3557 20.4571 26.713C21.7418 26.795 23.1085 27.1093 24.5571 27.656L24.1471 29.05L19.8011 28.435C18.1885 32.371 16.2341 35.3093 13.9381 37.25C11.6695 39.218 8.9498 40.202 5.77914 40.202C4.13914 40.202 2.77247 39.751 1.67914 38.849C0.558471 37.9743 -0.00186259 36.8673 -0.00186259 35.528C-0.00186259 33.068 1.6518 30.9633 4.95914 29.214C8.26647 27.492 12.2161 26.631 16.8081 26.631ZM7.62414 37.373C9.83814 37.373 11.7925 36.471 13.4871 34.667C15.2091 32.8903 16.4801 30.7993 17.3001 28.394C13.6375 28.394 10.5625 29.009 8.07514 30.239C5.5878 31.4963 4.34414 33.0133 4.34414 34.79C4.34414 35.5553 4.6448 36.1703 5.24614 36.635C5.8748 37.127 6.66747 37.373 7.62414 37.373ZM34.3315 19.456C36.4088 16.34 38.2128 14.2217 39.7435 13.101C41.2741 11.953 42.6135 11.379 43.7615 11.379C44.9095 11.379 45.7978 11.7343 46.4265 12.445C47.0551 13.1283 47.3695 14.003 47.3695 15.069C47.3695 18.021 46.3035 20.7543 44.1715 23.269C42.0668 25.7563 39.6888 27 37.0375 27C35.8621 27 34.9328 26.795 34.2495 26.385L35.2335 24.622C36.6821 24.8133 37.5705 24.909 37.8985 24.909C39.3745 24.909 40.7548 24.048 42.0395 22.326C43.3241 20.604 43.9665 18.841 43.9665 17.037C43.9665 16.3537 43.7615 15.7933 43.3515 15.356C42.9688 14.8913 42.4631 14.659 41.8345 14.659C40.3311 14.659 38.6228 15.9847 36.7095 18.636C34.8235 21.2873 33.0468 24.5673 31.3795 28.476C29.7395 32.412 28.3045 36.594 27.0745 41.022L24.6145 40.161C24.6691 39.997 25.1885 38.5757 26.1725 35.897C27.1291 33.2457 28.0721 30.608 29.0015 27.984C31.5708 20.768 32.8555 16.8183 32.8555 16.135C32.8555 14.3857 32.5001 12.8003 31.7895 11.379L33.8395 10.354C34.6868 11.5293 35.1105 12.773 35.1105 14.085C35.1105 15.3697 34.8508 17.16 34.3315 19.456ZM74.4151 22.244L75.2761 22.941C74.8114 24.089 74.0734 25.0593 73.0621 25.852C72.0781 26.6447 71.1761 27.041 70.3561 27.041C69.5634 27.041 68.9347 26.7677 68.4701 26.221C68.0054 25.647 67.7731 24.909 67.7731 24.007C67.7731 23.105 67.9234 21.9433 68.2241 20.522C66.9394 22.5447 65.5591 24.13 64.0831 25.278C62.6071 26.426 61.3634 27 60.3521 27C58.8214 27 58.0561 26.0297 58.0561 24.089C58.0561 23.8977 58.2474 22.7223 58.6301 20.563C57.3454 22.5583 56.0471 24.0617 54.7351 25.073C53.4504 26.057 52.2887 26.549 51.2501 26.549C49.7194 26.549 48.9541 25.5787 48.9541 23.638L50.5121 22.162C50.5121 22.654 50.6897 23.0777 51.0451 23.433C51.4277 23.7883 51.8651 23.966 52.3571 23.966C53.2591 23.966 54.4754 23.2007 56.0061 21.67C57.5641 20.1393 58.9854 18.1303 60.2701 15.643C60.5434 15.0963 60.8577 14.454 61.2131 13.716C61.5957 12.9507 61.8691 12.404 62.0331 12.076C62.1971 11.748 62.3884 11.3927 62.6071 11.01C62.9624 10.4087 63.3314 10.108 63.7141 10.108C64.0967 10.108 64.4111 10.2583 64.6571 10.559C64.9031 10.8597 65.0261 11.215 65.0261 11.625C65.0261 12.0077 64.9031 12.4587 64.6571 12.978C64.4384 13.4973 64.0694 14.208 63.5501 15.11C63.0307 15.9847 62.6207 16.709 62.3201 17.283C61.6094 19.1417 61.2541 20.4127 61.2541 21.096C61.2541 21.7793 61.4317 22.2987 61.7871 22.654C62.1697 23.0093 62.6071 23.187 63.0991 23.187C64.0284 23.187 65.1354 22.4763 66.4201 21.055C67.7321 19.6063 69.0851 17.4607 70.4791 14.618C70.6431 14.2627 70.8344 13.8663 71.0531 13.429C71.2717 12.9643 71.4357 12.6227 71.5451 12.404C71.6544 12.158 71.7774 11.8847 71.9141 11.584C72.0781 11.2833 72.2011 11.0647 72.2831 10.928C72.3924 10.764 72.5017 10.6137 72.6111 10.477C72.8571 10.231 73.1304 10.108 73.4311 10.108C73.7591 10.108 74.0461 10.2583 74.2921 10.559C74.5381 10.8597 74.6611 11.215 74.6611 11.625C74.6611 12.0077 73.9777 13.7023 72.6111 16.709C71.2717 19.6883 70.6021 21.4923 70.6021 22.121C70.6021 22.7497 70.7251 23.2143 70.9711 23.515C71.2444 23.8157 71.5041 23.966 71.7501 23.966C72.0234 23.966 72.2284 23.9523 72.3651 23.925C72.5017 23.8977 72.6384 23.843 72.7751 23.761C72.9117 23.679 73.0211 23.6107 73.1031 23.556C73.2124 23.5013 73.3354 23.4057 73.4721 23.269L73.7591 22.982C73.8411 22.9 73.9504 22.777 74.0871 22.613C74.2511 22.4217 74.3604 22.2987 74.4151 22.244ZM95.5 22.859L96.443 23.556C96.0603 24.376 95.3496 25.155 94.311 25.893C93.2996 26.631 92.3703 27 91.523 27C89.9103 27 89.104 26.1527 89.104 24.458C89.104 23.6653 89.309 22.7223 89.719 21.629L88.202 23.187C86.726 24.6903 85.4413 25.7017 84.348 26.221C83.282 26.7403 82.2296 27 81.191 27C80.1523 27 79.3596 26.713 78.813 26.139C78.2936 25.5377 78.034 24.7177 78.034 23.679C78.034 21.7657 78.772 19.8797 80.248 18.021C81.724 16.135 83.61 14.6043 85.906 13.429C88.202 12.2537 90.498 11.6523 92.794 11.625L92.876 12.978L91.154 13.347C88.6666 13.8937 86.4663 14.987 84.553 16.627C82.667 18.267 81.724 19.907 81.724 21.547C81.724 23.1597 82.38 23.966 83.692 23.966C84.922 23.966 86.439 23.105 88.243 21.383C90.047 19.661 91.5503 17.6383 92.753 15.315L94.475 16.34C92.7803 19.7567 91.933 21.9297 91.933 22.859C91.933 23.2417 92.056 23.5697 92.302 23.843C92.5753 24.089 92.835 24.212 93.081 24.212C93.3543 24.212 93.532 24.1983 93.614 24.171C93.696 24.1437 93.778 24.1163 93.86 24.089C93.942 24.0343 94.0376 23.966 94.147 23.884C94.2836 23.802 94.393 23.72 94.475 23.638C94.5843 23.556 94.7483 23.433 94.967 23.269C95.1856 23.105 95.3633 22.9683 95.5 22.859ZM125.728 21.67L126.589 22.49C125.031 25.278 123.24 26.672 121.218 26.672C120.398 26.672 119.755 26.4533 119.291 26.016C118.853 25.5513 118.635 24.95 118.635 24.212C118.635 23.4467 119.086 22.1483 119.988 20.317C120.89 18.4857 121.368 17.0917 121.423 16.135C121.45 15.6977 121.313 15.3423 121.013 15.069C120.739 14.7957 120.357 14.659 119.865 14.659C119.373 14.659 118.867 14.782 118.348 15.028C117.856 15.2467 117.364 15.6157 116.872 16.135C116.407 16.6543 115.97 17.16 115.56 17.652C115.177 18.144 114.74 18.841 114.248 19.743C113.783 20.645 113.387 21.3967 113.059 21.998C112.485 23.1187 111.665 24.7997 110.599 27.041L108.139 26.18C108.139 26.098 108.59 24.5537 109.492 21.547C110.394 18.5403 110.845 16.75 110.845 16.176C110.845 15.602 110.708 15.192 110.435 14.946C110.161 14.6727 109.82 14.536 109.41 14.536C108.18 14.536 106.471 16.0667 104.285 19.128C102.125 22.1893 100.745 24.7997 100.144 26.959L97.8065 26.18C97.9432 24.7313 98.5855 22.1347 99.7335 18.39C100.882 14.618 101.852 12.0487 102.645 10.682L104.49 11.338C103.642 13.224 103.055 14.823 102.727 16.135C102.399 17.4197 102.112 18.8 101.866 20.276C104.216 16.914 106.184 14.5633 107.77 13.224C109.355 11.8573 110.79 11.174 112.075 11.174C113.469 11.174 114.166 11.871 114.166 13.265C114.166 13.8117 113.92 14.8913 113.428 16.504C112.963 18.1167 112.594 19.3877 112.321 20.317C116.093 14.249 119.468 11.215 122.448 11.215C123.186 11.215 123.773 11.4473 124.211 11.912C124.648 12.3493 124.867 13.019 124.867 13.921C124.867 14.7957 124.347 16.258 123.309 18.308C122.297 20.358 121.792 21.6563 121.792 22.203C121.792 22.7223 121.901 23.105 122.12 23.351C122.338 23.597 122.612 23.72 122.94 23.72C123.65 23.72 124.58 23.0367 125.728 21.67ZM156.157 21.67L157.018 22.49C155.46 25.278 153.67 26.672 151.647 26.672C150.827 26.672 150.185 26.4533 149.72 26.016C149.283 25.5513 149.064 24.95 149.064 24.212C149.064 23.4467 149.515 22.1483 150.417 20.317C151.319 18.4857 151.798 17.0917 151.852 16.135C151.88 15.6977 151.743 15.3423 151.442 15.069C151.169 14.7957 150.786 14.659 150.294 14.659C149.802 14.659 149.297 14.782 148.777 15.028C148.285 15.2467 147.793 15.6157 147.301 16.135C146.837 16.6543 146.399 17.16 145.989 17.652C145.607 18.144 145.169 18.841 144.677 19.743C144.213 20.645 143.816 21.3967 143.488 21.998C142.914 23.1187 142.094 24.7997 141.028 27.041L138.568 26.18C138.568 26.098 139.019 24.5537 139.921 21.547C140.823 18.5403 141.274 16.75 141.274 16.176C141.274 15.602 141.138 15.192 140.864 14.946C140.591 14.6727 140.249 14.536 139.839 14.536C138.609 14.536 136.901 16.0667 134.714 19.128C132.555 22.1893 131.175 24.7997 130.573 26.959L128.236 26.18C128.373 24.7313 129.015 22.1347 130.163 18.39C131.311 14.618 132.282 12.0487 133.074 10.682L134.919 11.338C134.072 13.224 133.484 14.823 133.156 16.135C132.828 17.4197 132.541 18.8 132.295 20.276C134.646 16.914 136.614 14.5633 138.199 13.224C139.785 11.8573 141.22 11.174 142.504 11.174C143.898 11.174 144.595 11.871 144.595 13.265C144.595 13.8117 144.349 14.8913 143.857 16.504C143.393 18.1167 143.024 19.3877 142.75 20.317C146.522 14.249 149.898 11.215 152.877 11.215C153.615 11.215 154.203 11.4473 154.64 11.912C155.078 12.3493 155.296 13.019 155.296 13.921C155.296 14.7957 154.777 16.258 153.738 18.308C152.727 20.358 152.221 21.6563 152.221 22.203C152.221 22.7223 152.331 23.105 152.549 23.351C152.768 23.597 153.041 23.72 153.369 23.72C154.08 23.72 155.009 23.0367 156.157 21.67ZM175.681 24.417L175.804 25.483C175.695 25.565 174.424 26.057 171.991 26.959C171.663 28.763 171.239 30.5397 170.72 32.289C170.228 34.0657 169.722 35.405 169.203 36.307C168.711 37.2363 168.123 38.152 167.44 39.054C166.073 40.858 164.228 41.76 161.905 41.76C160.757 41.76 159.841 41.4047 159.158 40.694C158.475 39.9833 158.133 39.013 158.133 37.783C158.133 33.0543 162.096 29.255 170.023 26.385L172.237 18.595C169.886 22.121 167.768 24.294 165.882 25.114C164.953 25.5513 163.969 25.77 162.93 25.77C161.919 25.77 161.099 25.442 160.47 24.786C159.869 24.13 159.568 23.1733 159.568 21.916C159.568 20.6587 159.992 18.9093 160.839 16.668C161.714 14.3993 162.684 12.4997 163.75 10.969L165.759 11.83C165.677 11.912 165.294 12.6363 164.611 14.003C163.408 16.4903 162.807 18.3353 162.807 19.538C162.807 20.7407 163.039 21.547 163.504 21.957C163.969 22.367 164.652 22.572 165.554 22.572C166.456 22.572 167.467 22.039 168.588 20.973C169.736 19.8797 171.499 17.734 173.877 14.536L175.353 15.397C175.134 16.299 174.642 17.939 173.877 20.317C173.139 22.6677 172.633 24.4717 172.36 25.729L175.681 24.417ZM169.777 27.615C168.055 28.4077 166.538 29.3097 165.226 30.321C162.766 32.1797 161.536 33.9837 161.536 35.733C161.536 36.389 161.727 36.922 162.11 37.332C162.493 37.742 162.971 37.947 163.545 37.947C166.278 37.947 168.356 34.503 169.777 27.615ZM194.98 24.417L195.103 25.483C194.993 25.565 193.722 26.057 191.29 26.959C190.962 28.763 190.538 30.5397 190.019 32.289C189.527 34.0657 189.021 35.405 188.502 36.307C188.01 37.2363 187.422 38.152 186.739 39.054C185.372 40.858 183.527 41.76 181.204 41.76C180.056 41.76 179.14 41.4047 178.457 40.694C177.773 39.9833 177.432 39.013 177.432 37.783C177.432 33.0543 181.395 29.255 189.322 26.385L191.536 18.595C189.185 22.121 187.067 24.294 185.181 25.114C184.251 25.5513 183.267 25.77 182.229 25.77C181.217 25.77 180.397 25.442 179.769 24.786C179.167 24.13 178.867 23.1733 178.867 21.916C178.867 20.6587 179.29 18.9093 180.138 16.668C181.012 14.3993 181.983 12.4997 183.049 10.969L185.058 11.83C184.976 11.912 184.593 12.6363 183.91 14.003C182.707 16.4903 182.106 18.3353 182.106 19.538C182.106 20.7407 182.338 21.547 182.803 21.957C183.267 22.367 183.951 22.572 184.853 22.572C185.755 22.572 186.766 22.039 187.887 20.973C189.035 19.8797 190.798 17.734 193.176 14.536L194.652 15.397C194.433 16.299 193.941 17.939 193.176 20.317C192.438 22.6677 191.932 24.4717 191.659 25.729L194.98 24.417ZM189.076 27.615C187.354 28.4077 185.837 29.3097 184.525 30.321C182.065 32.1797 180.835 33.9837 180.835 35.733C180.835 36.389 181.026 36.922 181.409 37.332C181.791 37.742 182.27 37.947 182.844 37.947C185.577 37.947 187.654 34.503 189.076 27.615ZM244.884 21.67L245.745 22.49C244.187 25.278 242.396 26.672 240.374 26.672C239.554 26.672 238.911 26.4533 238.447 26.016C238.009 25.5513 237.791 24.95 237.791 24.212C237.791 23.4467 238.242 22.1483 239.144 20.317C240.046 18.4857 240.524 17.0917 240.579 16.135C240.606 15.6977 240.469 15.3423 240.169 15.069C239.895 14.7957 239.513 14.659 239.021 14.659C238.529 14.659 238.023 14.782 237.504 15.028C237.012 15.2467 236.52 15.6157 236.028 16.135C235.563 16.6543 235.126 17.16 234.716 17.652C234.333 18.144 233.896 18.841 233.404 19.743C232.939 20.645 232.543 21.3967 232.215 21.998C231.641 23.1187 230.821 24.7997 229.755 27.041L227.295 26.18C227.295 26.098 227.746 24.5537 228.648 21.547C229.55 18.5403 230.001 16.75 230.001 16.176C230.001 15.602 229.864 15.192 229.591 14.946C229.317 14.6727 228.976 14.536 228.566 14.536C227.336 14.536 225.627 16.0667 223.441 19.128C221.281 22.1893 219.901 24.7997 219.3 26.959L216.963 26.18C217.099 24.7313 217.742 22.1347 218.89 18.39C220.038 14.618 221.008 12.0487 221.801 10.682L223.646 11.338C222.798 13.224 222.211 14.823 221.883 16.135C221.555 17.4197 221.268 18.8 221.022 20.276C223.372 16.914 225.34 14.5633 226.926 13.224C228.511 11.8573 229.946 11.174 231.231 11.174C232.625 11.174 233.322 11.871 233.322 13.265C233.322 13.8117 233.076 14.8913 232.584 16.504C232.119 18.1167 231.75 19.3877 231.477 20.317C235.249 14.249 238.624 11.215 241.604 11.215C242.342 11.215 242.929 11.4473 243.367 11.912C243.804 12.3493 244.023 13.019 244.023 13.921C244.023 14.7957 243.503 16.258 242.465 18.308C241.453 20.358 240.948 21.6563 240.948 22.203C240.948 22.7223 241.057 23.105 241.276 23.351C241.494 23.597 241.768 23.72 242.096 23.72C242.806 23.72 243.736 23.0367 244.884 21.67ZM264.407 24.417L264.53 25.483C264.421 25.565 263.15 26.057 260.717 26.959C260.389 28.763 259.966 30.5397 259.446 32.289C258.954 34.0657 258.449 35.405 257.929 36.307C257.437 37.2363 256.85 38.152 256.166 39.054C254.8 40.858 252.955 41.76 250.631 41.76C249.483 41.76 248.568 41.4047 247.884 40.694C247.201 39.9833 246.859 39.013 246.859 37.783C246.859 33.0543 250.823 29.255 258.749 26.385L260.963 18.595C258.613 22.121 256.494 24.294 254.608 25.114C253.679 25.5513 252.695 25.77 251.656 25.77C250.645 25.77 249.825 25.442 249.196 24.786C248.595 24.13 248.294 23.1733 248.294 21.916C248.294 20.6587 248.718 18.9093 249.565 16.668C250.44 14.3993 251.41 12.4997 252.476 10.969L254.485 11.83C254.403 11.912 254.021 12.6363 253.337 14.003C252.135 16.4903 251.533 18.3353 251.533 19.538C251.533 20.7407 251.766 21.547 252.23 21.957C252.695 22.367 253.378 22.572 254.28 22.572C255.182 22.572 256.194 22.039 257.314 20.973C258.462 19.8797 260.225 17.734 262.603 14.536L264.079 15.397C263.861 16.299 263.369 17.939 262.603 20.317C261.865 22.6677 261.36 24.4717 261.086 25.729L264.407 24.417ZM258.503 27.615C256.781 28.4077 255.264 29.3097 253.952 30.321C251.492 32.1797 250.262 33.9837 250.262 35.733C250.262 36.389 250.454 36.922 250.836 37.332C251.219 37.742 251.697 37.947 252.271 37.947C255.005 37.947 257.082 34.503 258.503 27.615ZM283.706 24.417L283.829 25.483C283.72 25.565 282.449 26.057 280.016 26.959C279.688 28.763 279.265 30.5397 278.745 32.289C278.253 34.0657 277.748 35.405 277.228 36.307C276.736 37.2363 276.149 38.152 275.465 39.054C274.099 40.858 272.254 41.76 269.93 41.76C268.782 41.76 267.867 41.4047 267.183 40.694C266.5 39.9833 266.158 39.013 266.158 37.783C266.158 33.0543 270.122 29.255 278.048 26.385L280.262 18.595C277.912 22.121 275.793 24.294 273.907 25.114C272.978 25.5513 271.994 25.77 270.955 25.77C269.944 25.77 269.124 25.442 268.495 24.786C267.894 24.13 267.593 23.1733 267.593 21.916C267.593 20.6587 268.017 18.9093 268.864 16.668C269.739 14.3993 270.709 12.4997 271.775 10.969L273.784 11.83C273.702 11.912 273.32 12.6363 272.636 14.003C271.434 16.4903 270.832 18.3353 270.832 19.538C270.832 20.7407 271.065 21.547 271.529 21.957C271.994 22.367 272.677 22.572 273.579 22.572C274.481 22.572 275.493 22.039 276.613 20.973C277.761 19.8797 279.524 17.734 281.902 14.536L283.378 15.397C283.16 16.299 282.668 17.939 281.902 20.317C281.164 22.6677 280.659 24.4717 280.385 25.729L283.706 24.417ZM277.802 27.615C276.08 28.4077 274.563 29.3097 273.251 30.321C270.791 32.1797 269.561 33.9837 269.561 35.733C269.561 36.389 269.753 36.922 270.135 37.332C270.518 37.742 270.996 37.947 271.57 37.947C274.304 37.947 276.381 34.503 277.802 27.615ZM295.707 22.162L296.527 22.818C295.707 23.9113 294.573 24.8817 293.124 25.729C291.703 26.5763 290.555 27 289.68 27C288.833 27 288.177 26.8223 287.712 26.467C287.275 26.0843 287.056 25.5923 287.056 24.991C287.056 24.3897 287.575 23.5013 288.614 22.326C289.653 21.1233 290.691 19.9207 291.73 18.718C292.796 17.5153 293.329 16.6407 293.329 16.094C293.329 15.5473 293.179 15.0963 292.878 14.741C292.605 14.3583 292.14 14.167 291.484 14.167C290.828 14.167 289.639 14.7273 287.917 15.848L287.548 14.413C288.778 13.4563 290.076 12.6773 291.443 12.076C292.837 11.4747 293.917 11.174 294.682 11.174C295.447 11.174 296.035 11.3517 296.445 11.707C296.882 12.0623 297.101 12.6227 297.101 13.388C297.101 14.1533 296.24 15.766 294.518 18.226C294.163 18.718 293.794 19.2373 293.411 19.784C293.028 20.3307 292.741 20.727 292.55 20.973C292.386 21.219 292.222 21.4787 292.058 21.752C291.785 22.162 291.648 22.49 291.648 22.736C291.648 22.9547 291.757 23.1733 291.976 23.392C292.222 23.6107 292.454 23.72 292.673 23.72C292.919 23.72 293.124 23.7063 293.288 23.679C293.452 23.6243 293.63 23.5423 293.821 23.433C294.012 23.2963 294.176 23.187 294.313 23.105L295.707 22.162ZM317.036 22.859L317.979 23.556C317.596 24.376 316.886 25.155 315.847 25.893C314.836 26.631 313.906 27 313.059 27C311.446 27 310.64 26.1527 310.64 24.458C310.64 23.6653 310.845 22.7223 311.255 21.629L309.738 23.187C308.262 24.6903 306.977 25.7017 305.884 26.221C304.818 26.7403 303.766 27 302.727 27C301.688 27 300.896 26.713 300.349 26.139C299.83 25.5377 299.57 24.7177 299.57 23.679C299.57 21.7657 300.308 19.8797 301.784 18.021C303.26 16.135 305.146 14.6043 307.442 13.429C309.738 12.2537 312.034 11.6523 314.33 11.625L314.412 12.978L312.69 13.347C310.203 13.8937 308.002 14.987 306.089 16.627C304.203 18.267 303.26 19.907 303.26 21.547C303.26 23.1597 303.916 23.966 305.228 23.966C306.458 23.966 307.975 23.105 309.779 21.383C311.583 19.661 313.086 17.6383 314.289 15.315L316.011 16.34C314.316 19.7567 313.469 21.9297 313.469 22.859C313.469 23.2417 313.592 23.5697 313.838 23.843C314.111 24.089 314.371 24.212 314.617 24.212C314.89 24.212 315.068 24.1983 315.15 24.171C315.232 24.1437 315.314 24.1163 315.396 24.089C315.478 24.0343 315.574 23.966 315.683 23.884C315.82 23.802 315.929 23.72 316.011 23.638C316.12 23.556 316.284 23.433 316.503 23.269C316.722 23.105 316.899 22.9683 317.036 22.859ZM336.03 11.051L337.629 11.42C337.601 11.6113 337.205 12.445 336.44 13.921C335.702 15.3697 334.909 17.283 334.062 19.661C333.214 22.0117 332.668 24.3897 332.422 26.795L329.798 26.59C329.798 25.0867 330.276 23.146 331.233 20.768C330.987 20.7407 330.481 20.727 329.716 20.727C328.978 20.727 327.611 20.9047 325.616 21.26C324.222 24.376 323.525 27.041 323.525 29.255L320.778 28.886C320.778 26.9453 321.502 24.5537 322.951 21.711C321.557 21.9297 320.163 22.2577 318.769 22.695L318.359 21.096C318.359 21.014 319.083 20.7817 320.532 20.399C322.008 20.0163 323.101 19.7703 323.812 19.661C325.998 14.6317 327.488 11.7207 328.281 10.928L330.044 11.625C329.907 11.8983 329.593 12.5133 329.101 13.47C327.871 15.848 327.037 17.7067 326.6 19.046C328.978 18.8 330.399 18.677 330.864 18.677C331.356 18.677 331.766 18.6907 332.094 18.718C334.007 14.3173 335.319 11.7617 336.03 11.051ZM357.157 25.524L357.198 26.508C356.925 26.672 355.681 27.164 353.467 27.984C352.592 33.2047 351.308 36.9767 349.613 39.3C347.918 41.6233 345.841 42.785 343.381 42.785C342.233 42.785 341.317 42.416 340.634 41.678C339.951 40.94 339.609 39.9833 339.609 38.808C339.609 36.4573 340.689 34.257 342.848 32.207C345.007 30.1843 347.891 28.5853 351.499 27.41C351.909 25.5787 352.647 22.9957 353.713 19.661C351.882 22.449 350.214 24.335 348.711 25.319C347.235 26.303 345.896 26.795 344.693 26.795C343.49 26.795 342.575 26.467 341.946 25.811C341.345 25.155 341.044 24.2803 341.044 23.187C341.044 21.383 341.796 19.5517 343.299 17.693C344.802 15.807 346.688 14.2763 348.957 13.101C351.253 11.8983 353.467 11.297 355.599 11.297L355.927 12.732C352.893 13.06 350.283 14.126 348.096 15.93C345.937 17.734 344.857 19.4697 344.857 21.137C344.857 21.8477 345.076 22.4353 345.513 22.9C345.95 23.3647 346.483 23.597 347.112 23.597C348.041 23.597 349.449 22.613 351.335 20.645C353.221 18.677 354.547 16.996 355.312 15.602L356.829 16.463C355.326 20.481 354.287 23.8703 353.713 26.631L357.157 25.524ZM351.253 28.64C348.875 29.7333 346.907 31.0453 345.349 32.576C343.791 34.1067 343.012 35.5007 343.012 36.758C343.012 37.414 343.203 37.947 343.586 38.357C343.969 38.767 344.447 38.972 345.021 38.972C346.169 38.972 347.303 38.1657 348.424 36.553C349.545 34.9403 350.488 32.3027 351.253 28.64ZM376.294 22.859L377.237 23.556C376.854 24.376 376.144 25.155 375.105 25.893C374.094 26.631 373.164 27 372.317 27C370.704 27 369.898 26.1527 369.898 24.458C369.898 23.6653 370.103 22.7223 370.513 21.629L368.996 23.187C367.52 24.6903 366.235 25.7017 365.142 26.221C364.076 26.7403 363.024 27 361.985 27C360.946 27 360.154 26.713 359.607 26.139C359.088 25.5377 358.828 24.7177 358.828 23.679C358.828 21.7657 359.566 19.8797 361.042 18.021C362.518 16.135 364.404 14.6043 366.7 13.429C368.996 12.2537 371.292 11.6523 373.588 11.625L373.67 12.978L371.948 13.347C369.461 13.8937 367.26 14.987 365.347 16.627C363.461 18.267 362.518 19.907 362.518 21.547C362.518 23.1597 363.174 23.966 364.486 23.966C365.716 23.966 367.233 23.105 369.037 21.383C370.841 19.661 372.344 17.6383 373.547 15.315L375.269 16.34C373.574 19.7567 372.727 21.9297 372.727 22.859C372.727 23.2417 372.85 23.5697 373.096 23.843C373.369 24.089 373.629 24.212 373.875 24.212C374.148 24.212 374.326 24.1983 374.408 24.171C374.49 24.1437 374.572 24.1163 374.654 24.089C374.736 24.0343 374.832 23.966 374.941 23.884C375.078 23.802 375.187 23.72 375.269 23.638C375.378 23.556 375.542 23.433 375.761 23.269C375.98 23.105 376.157 22.9683 376.294 22.859ZM384.873 19.456C386.951 16.34 388.755 14.2217 390.285 13.101C391.816 11.953 393.155 11.379 394.303 11.379C395.451 11.379 396.34 11.7343 396.968 12.445C397.597 13.1283 397.911 14.003 397.911 15.069C397.911 18.021 396.845 20.7543 394.713 23.269C392.609 25.7563 390.231 27 387.579 27C386.404 27 385.475 26.795 384.791 26.385L385.775 24.622C387.224 24.8133 388.112 24.909 388.44 24.909C389.916 24.909 391.297 24.048 392.581 22.326C393.866 20.604 394.508 18.841 394.508 17.037C394.508 16.3537 394.303 15.7933 393.893 15.356C393.511 14.8913 393.005 14.659 392.376 14.659C390.873 14.659 389.165 15.9847 387.251 18.636C385.365 21.2873 383.589 24.5673 381.921 28.476C380.281 32.412 378.846 36.594 377.616 41.022L375.156 40.161C375.211 39.997 375.73 38.5757 376.714 35.897C377.671 33.2457 378.614 30.608 379.543 27.984C382.113 20.768 383.397 16.8183 383.397 16.135C383.397 14.3857 383.042 12.8003 382.331 11.379L384.381 10.354C385.229 11.5293 385.652 12.773 385.652 14.085C385.652 15.3697 385.393 17.16 384.873 19.456ZM398.963 25.647C398.963 25.155 399.141 24.745 399.496 24.417C399.879 24.0617 400.33 23.884 400.849 23.884C401.396 23.884 401.819 24.048 402.12 24.376C402.421 24.6767 402.571 25.0867 402.571 25.606C402.571 26.8087 401.532 28.1617 399.455 29.665L398.553 28.353C399.646 27.4783 400.207 27.0137 400.234 26.959C399.387 26.6857 398.963 26.2483 398.963 25.647ZM0.659423 77.672C2.13542 74.9113 4.85509 72.0003 8.81842 68.939C7.58842 68.0097 6.35842 66.889 5.12842 65.577C3.92576 64.2377 3.25609 63.076 3.11942 62.092L5.57942 61.805C5.74342 62.6523 7.28776 64.4563 10.2124 67.217C10.3218 65.577 10.3764 63.6637 10.3764 61.477L13.0414 61.723L12.6314 66.602C15.9934 64.224 18.2074 62.8437 19.2734 62.461L21.0774 64.06C20.1208 64.3607 18.5764 65.208 16.4444 66.602C14.3124 67.996 13.0688 68.8707 12.7134 69.226C13.4514 70.21 14.5448 71.3443 15.9934 72.629C17.4421 73.8863 18.7131 74.9113 19.8064 75.704L21.4464 76.852L20.2574 78.328C19.4648 77.8633 18.1391 76.975 16.2804 75.663C14.4491 74.3237 13.0551 73.1483 12.0984 72.137C11.7158 75.171 11.3331 77.3577 10.9504 78.697L8.44942 79.025C9.10542 77.713 9.62476 75.0343 10.0074 70.989C9.40609 71.1803 8.43576 71.932 7.09642 73.244C5.75709 74.5287 4.56809 75.786 3.52942 77.016L1.93042 78.82L0.659423 77.672ZM41.3071 73.859L42.2501 74.556C41.8674 75.376 41.1567 76.155 40.1181 76.893C39.1067 77.631 38.1774 78 37.3301 78C35.7174 78 34.9111 77.1527 34.9111 75.458C34.9111 74.6653 35.1161 73.7223 35.5261 72.629L34.0091 74.187C32.5331 75.6903 31.2484 76.7017 30.1551 77.221C29.0891 77.7403 28.0367 78 26.9981 78C25.9594 78 25.1667 77.713 24.6201 77.139C24.1007 76.5377 23.8411 75.7177 23.8411 74.679C23.8411 72.7657 24.5791 70.8797 26.0551 69.021C27.5311 67.135 29.4171 65.6043 31.7131 64.429C34.0091 63.2537 36.3051 62.6523 38.6011 62.625L38.6831 63.978L36.9611 64.347C34.4737 64.8937 32.2734 65.987 30.3601 67.627C28.4741 69.267 27.5311 70.907 27.5311 72.547C27.5311 74.1597 28.1871 74.966 29.4991 74.966C30.7291 74.966 32.2461 74.105 34.0501 72.383C35.8541 70.661 37.3574 68.6383 38.5601 66.315L40.2821 67.34C38.5874 70.7567 37.7401 72.9297 37.7401 73.859C37.7401 74.2417 37.8631 74.5697 38.1091 74.843C38.3824 75.089 38.6421 75.212 38.8881 75.212C39.1614 75.212 39.3391 75.1983 39.4211 75.171C39.5031 75.1437 39.5851 75.1163 39.6671 75.089C39.7491 75.0343 39.8447 74.966 39.9541 74.884C40.0907 74.802 40.2001 74.72 40.2821 74.638C40.3914 74.556 40.5554 74.433 40.7741 74.269C40.9927 74.105 41.1704 73.9683 41.3071 73.859ZM58.5377 73.449L59.5627 74.351C57.9773 76.9477 56.2963 78.246 54.5196 78.246C53.5083 78.246 52.4696 77.59 51.4036 76.278C50.365 74.966 49.7363 73.695 49.5176 72.465C49.3536 72.7657 48.889 73.5583 48.1236 74.843C47.3583 76.1277 46.8116 77.18 46.4836 78L44.0236 77.139C44.5976 73.777 45.2946 70.6063 46.1146 67.627C46.962 64.6477 47.7546 62.5567 48.4926 61.354L50.1736 61.887C49.6816 63.1443 48.8616 66.4927 47.7136 71.932C49.217 68.8433 50.734 66.5883 52.2646 65.167C53.7953 63.7183 55.4763 62.7617 57.3077 62.297V65.003C55.3397 65.085 53.44 66.4107 51.6086 68.98C51.718 70.7567 52.2373 72.2327 53.1666 73.408C54.1233 74.5833 55.0253 75.171 55.8727 75.171C56.2826 75.171 57.171 74.597 58.5377 73.449ZM71.0468 68.447C72.5501 68.3923 73.3018 69.0073 73.3018 70.292C73.3018 71.9867 72.3861 73.6677 70.5548 75.335C68.7508 76.975 66.9331 77.795 65.1018 77.795C63.3798 77.795 62.5188 76.6333 62.5188 74.31C62.5188 72.4787 62.9698 70.21 63.8718 67.504C64.8011 64.7707 65.5665 62.8437 66.1678 61.723L68.0128 62.338C67.3021 64.4153 66.5778 66.9573 65.8398 69.964L66.3728 69.718C68.2041 68.8707 69.7621 68.447 71.0468 68.447ZM70.3908 72.67C70.5548 72.2873 70.6368 71.932 70.6368 71.604C70.5548 70.866 69.9125 70.497 68.7098 70.497C68.1358 70.497 67.0698 70.743 65.5118 71.235C65.2931 72.055 65.1838 72.793 65.1838 73.449C65.1838 74.0777 65.3341 74.5833 65.6348 74.966C65.9628 75.3487 66.3865 75.54 66.9058 75.54C67.4525 75.54 68.0948 75.2667 68.8328 74.72C69.5708 74.146 70.0901 73.4627 70.3908 72.67ZM77.2378 72.178L76.0078 77.59L73.6708 77.221C74.2175 73.9137 74.9008 70.8387 75.7208 67.996C76.5681 65.1533 77.3745 63.117 78.1398 61.887L80.1488 62.133C79.1648 64.675 78.1945 68.0233 77.2378 72.178ZM97.4169 62.051L99.0159 62.42C98.9885 62.6113 98.5922 63.445 97.8269 64.921C97.0889 66.3697 96.2962 68.283 95.4489 70.661C94.6015 73.0117 94.0549 75.3897 93.8089 77.795L91.1849 77.59C91.1849 76.0867 91.6632 74.146 92.6199 71.768C92.3739 71.7407 91.8682 71.727 91.1029 71.727C90.3649 71.727 88.9982 71.9047 87.0029 72.26C85.6089 75.376 84.9119 78.041 84.9119 80.255L82.1649 79.886C82.1649 77.9453 82.8892 75.5537 84.3379 72.711C82.9439 72.9297 81.5499 73.2577 80.1559 73.695L79.7459 72.096C79.7459 72.014 80.4702 71.7817 81.9189 71.399C83.3949 71.0163 84.4882 70.7703 85.1989 70.661C87.3855 65.6317 88.8752 62.7207 89.6679 61.928L91.4309 62.625C91.2942 62.8983 90.9799 63.5133 90.4879 64.47C89.2579 66.848 88.4242 68.7067 87.9869 70.046C90.3649 69.8 91.7862 69.677 92.2509 69.677C92.7429 69.677 93.1529 69.6907 93.4809 69.718C95.3942 65.3173 96.7062 62.7617 97.4169 62.051ZM118.544 76.524L118.585 77.508C118.312 77.672 117.068 78.164 114.854 78.984C113.98 84.2047 112.695 87.9767 111 90.3C109.306 92.6233 107.228 93.785 104.768 93.785C103.62 93.785 102.705 93.416 102.021 92.678C101.338 91.94 100.996 90.9833 100.996 89.808C100.996 87.4573 102.076 85.257 104.235 83.207C106.395 81.1843 109.278 79.5853 112.886 78.41C113.296 76.5787 114.034 73.9957 115.1 70.661C113.269 73.449 111.602 75.335 110.098 76.319C108.622 77.303 107.283 77.795 106.08 77.795C104.878 77.795 103.962 77.467 103.333 76.811C102.732 76.155 102.431 75.2803 102.431 74.187C102.431 72.383 103.183 70.5517 104.686 68.693C106.19 66.807 108.076 65.2763 110.344 64.101C112.64 62.8983 114.854 62.297 116.986 62.297L117.314 63.732C114.28 64.06 111.67 65.126 109.483 66.93C107.324 68.734 106.244 70.4697 106.244 72.137C106.244 72.8477 106.463 73.4353 106.9 73.9C107.338 74.3647 107.871 74.597 108.499 74.597C109.429 74.597 110.836 73.613 112.722 71.645C114.608 69.677 115.934 67.996 116.699 66.602L118.216 67.463C116.713 71.481 115.674 74.8703 115.1 77.631L118.544 76.524ZM112.64 79.64C110.262 80.7333 108.294 82.0453 106.736 83.576C105.178 85.1067 104.399 86.5007 104.399 87.758C104.399 88.414 104.591 88.947 104.973 89.357C105.356 89.767 105.834 89.972 106.408 89.972C107.556 89.972 108.691 89.1657 109.811 87.553C110.932 85.9403 111.875 83.3027 112.64 79.64ZM137.681 73.859L138.624 74.556C138.241 75.376 137.531 76.155 136.492 76.893C135.481 77.631 134.551 78 133.704 78C132.091 78 131.285 77.1527 131.285 75.458C131.285 74.6653 131.49 73.7223 131.9 72.629L130.383 74.187C128.907 75.6903 127.622 76.7017 126.529 77.221C125.463 77.7403 124.411 78 123.372 78C122.333 78 121.541 77.713 120.994 77.139C120.475 76.5377 120.215 75.7177 120.215 74.679C120.215 72.7657 120.953 70.8797 122.429 69.021C123.905 67.135 125.791 65.6043 128.087 64.429C130.383 63.2537 132.679 62.6523 134.975 62.625L135.057 63.978L133.335 64.347C130.848 64.8937 128.647 65.987 126.734 67.627C124.848 69.267 123.905 70.907 123.905 72.547C123.905 74.1597 124.561 74.966 125.873 74.966C127.103 74.966 128.62 74.105 130.424 72.383C132.228 70.661 133.731 68.6383 134.934 66.315L136.656 67.34C134.961 70.7567 134.114 72.9297 134.114 73.859C134.114 74.2417 134.237 74.5697 134.483 74.843C134.756 75.089 135.016 75.212 135.262 75.212C135.535 75.212 135.713 75.1983 135.795 75.171C135.877 75.1437 135.959 75.1163 136.041 75.089C136.123 75.0343 136.219 74.966 136.328 74.884C136.465 74.802 136.574 74.72 136.656 74.638C136.765 74.556 136.929 74.433 137.148 74.269C137.367 74.105 137.544 73.9683 137.681 73.859ZM146.261 70.456C148.338 67.34 150.142 65.2217 151.673 64.101C153.203 62.953 154.543 62.379 155.691 62.379C156.839 62.379 157.727 62.7343 158.356 63.445C158.984 64.1283 159.299 65.003 159.299 66.069C159.299 69.021 158.233 71.7543 156.101 74.269C153.996 76.7563 151.618 78 148.967 78C147.791 78 146.862 77.795 146.179 77.385L147.163 75.622C148.611 75.8133 149.5 75.909 149.828 75.909C151.304 75.909 152.684 75.048 153.969 73.326C155.253 71.604 155.896 69.841 155.896 68.037C155.896 67.3537 155.691 66.7933 155.281 66.356C154.898 65.8913 154.392 65.659 153.764 65.659C152.26 65.659 150.552 66.9847 148.639 69.636C146.753 72.2873 144.976 75.5673 143.309 79.476C141.669 83.412 140.234 87.594 139.004 92.022L136.544 91.161C136.598 90.997 137.118 89.5757 138.102 86.897C139.058 84.2457 140.001 81.608 140.931 78.984C143.5 71.768 144.785 67.8183 144.785 67.135C144.785 65.3857 144.429 63.8003 143.719 62.379L145.769 61.354C146.616 62.5293 147.04 63.773 147.04 65.085C147.04 66.3697 146.78 68.16 146.261 70.456ZM181.115 77.672C182.591 74.9113 185.311 72.0003 189.274 68.939C188.044 68.0097 186.814 66.889 185.584 65.577C184.382 64.2377 183.712 63.076 183.575 62.092L186.035 61.805C186.199 62.6523 187.744 64.4563 190.668 67.217C190.778 65.577 190.832 63.6637 190.832 61.477L193.497 61.723L193.087 66.602C196.449 64.224 198.663 62.8437 199.729 62.461L201.533 64.06C200.577 64.3607 199.032 65.208 196.9 66.602C194.768 67.996 193.525 68.8707 193.169 69.226C193.907 70.21 195.001 71.3443 196.449 72.629C197.898 73.8863 199.169 74.9113 200.262 75.704L201.902 76.852L200.713 78.328C199.921 77.8633 198.595 76.975 196.736 75.663C194.905 74.3237 193.511 73.1483 192.554 72.137C192.172 75.171 191.789 77.3577 191.406 78.697L188.905 79.025C189.561 77.713 190.081 75.0343 190.463 70.989C189.862 71.1803 188.892 71.932 187.552 73.244C186.213 74.5287 185.024 75.786 183.985 77.016L182.386 78.82L181.115 77.672ZM221.763 73.859L222.706 74.556C222.323 75.376 221.613 76.155 220.574 76.893C219.563 77.631 218.633 78 217.786 78C216.173 78 215.367 77.1527 215.367 75.458C215.367 74.6653 215.572 73.7223 215.982 72.629L214.465 74.187C212.989 75.6903 211.704 76.7017 210.611 77.221C209.545 77.7403 208.493 78 207.454 78C206.415 78 205.623 77.713 205.076 77.139C204.557 76.5377 204.297 75.7177 204.297 74.679C204.297 72.7657 205.035 70.8797 206.511 69.021C207.987 67.135 209.873 65.6043 212.169 64.429C214.465 63.2537 216.761 62.6523 219.057 62.625L219.139 63.978L217.417 64.347C214.93 64.8937 212.729 65.987 210.816 67.627C208.93 69.267 207.987 70.907 207.987 72.547C207.987 74.1597 208.643 74.966 209.955 74.966C211.185 74.966 212.702 74.105 214.506 72.383C216.31 70.661 217.813 68.6383 219.016 66.315L220.738 67.34C219.043 70.7567 218.196 72.9297 218.196 73.859C218.196 74.2417 218.319 74.5697 218.565 74.843C218.838 75.089 219.098 75.212 219.344 75.212C219.617 75.212 219.795 75.1983 219.877 75.171C219.959 75.1437 220.041 75.1163 220.123 75.089C220.205 75.0343 220.301 74.966 220.41 74.884C220.547 74.802 220.656 74.72 220.738 74.638C220.847 74.556 221.011 74.433 221.23 74.269C221.449 74.105 221.626 73.9683 221.763 73.859ZM240.757 62.051L242.356 62.42C242.328 62.6113 241.932 63.445 241.167 64.921C240.429 66.3697 239.636 68.283 238.789 70.661C237.941 73.0117 237.395 75.3897 237.149 77.795L234.525 77.59C234.525 76.0867 235.003 74.146 235.96 71.768C235.714 71.7407 235.208 71.727 234.443 71.727C233.705 71.727 232.338 71.9047 230.343 72.26C228.949 75.376 228.252 78.041 228.252 80.255L225.505 79.886C225.505 77.9453 226.229 75.5537 227.678 72.711C226.284 72.9297 224.89 73.2577 223.496 73.695L223.086 72.096C223.086 72.014 223.81 71.7817 225.259 71.399C226.735 71.0163 227.828 70.7703 228.539 70.661C230.725 65.6317 232.215 62.7207 233.008 61.928L234.771 62.625C234.634 62.8983 234.32 63.5133 233.828 64.47C232.598 66.848 231.764 68.7067 231.327 70.046C233.705 69.8 235.126 69.677 235.591 69.677C236.083 69.677 236.493 69.6907 236.821 69.718C238.734 65.3173 240.046 62.7617 240.757 62.051ZM261.802 73.859L262.745 74.556C262.363 75.376 261.652 76.155 260.613 76.893C259.602 77.631 258.673 78 257.825 78C256.213 78 255.406 77.1527 255.406 75.458C255.406 74.6653 255.611 73.7223 256.021 72.629L254.504 74.187C253.028 75.6903 251.744 76.7017 250.65 77.221C249.584 77.7403 248.532 78 247.493 78C246.455 78 245.662 77.713 245.115 77.139C244.596 76.5377 244.336 75.7177 244.336 74.679C244.336 72.7657 245.074 70.8797 246.55 69.021C248.026 67.135 249.912 65.6043 252.208 64.429C254.504 63.2537 256.8 62.6523 259.096 62.625L259.178 63.978L257.456 64.347C254.969 64.8937 252.769 65.987 250.855 67.627C248.969 69.267 248.026 70.907 248.026 72.547C248.026 74.1597 248.682 74.966 249.994 74.966C251.224 74.966 252.741 74.105 254.545 72.383C256.349 70.661 257.853 68.6383 259.055 66.315L260.777 67.34C259.083 70.7567 258.235 72.9297 258.235 73.859C258.235 74.2417 258.358 74.5697 258.604 74.843C258.878 75.089 259.137 75.212 259.383 75.212C259.657 75.212 259.834 75.1983 259.916 75.171C259.998 75.1437 260.08 75.1163 260.162 75.089C260.244 75.0343 260.34 74.966 260.449 74.884C260.586 74.802 260.695 74.72 260.777 74.638C260.887 74.556 261.051 74.433 261.269 74.269C261.488 74.105 261.666 73.9683 261.802 73.859ZM301.643 76.524L301.684 77.508C301.411 77.672 300.167 78.164 297.953 78.984C297.078 84.2047 295.794 87.9767 294.099 90.3C292.404 92.6233 290.327 93.785 287.867 93.785C286.719 93.785 285.803 93.416 285.12 92.678C284.437 91.94 284.095 90.9833 284.095 89.808C284.095 87.4573 285.175 85.257 287.334 83.207C289.493 81.1843 292.377 79.5853 295.985 78.41C296.395 76.5787 297.133 73.9957 298.199 70.661C296.368 73.449 294.7 75.335 293.197 76.319C291.721 77.303 290.382 77.795 289.179 77.795C287.976 77.795 287.061 77.467 286.432 76.811C285.831 76.155 285.53 75.2803 285.53 74.187C285.53 72.383 286.282 70.5517 287.785 68.693C289.288 66.807 291.174 65.2763 293.443 64.101C295.739 62.8983 297.953 62.297 300.085 62.297L300.413 63.732C297.379 64.06 294.769 65.126 292.582 66.93C290.423 68.734 289.343 70.4697 289.343 72.137C289.343 72.8477 289.562 73.4353 289.999 73.9C290.436 74.3647 290.969 74.597 291.598 74.597C292.527 74.597 293.935 73.613 295.821 71.645C297.707 69.677 299.033 67.996 299.798 66.602L301.315 67.463C299.812 71.481 298.773 74.8703 298.199 77.631L301.643 76.524ZM295.739 79.64C293.361 80.7333 291.393 82.0453 289.835 83.576C288.277 85.1067 287.498 86.5007 287.498 87.758C287.498 88.414 287.689 88.947 288.072 89.357C288.455 89.767 288.933 89.972 289.507 89.972C290.655 89.972 291.789 89.1657 292.91 87.553C294.031 85.9403 294.974 83.3027 295.739 79.64ZM314.876 65.823C315.586 66.9983 315.942 68.2967 315.942 69.718C315.942 71.932 315.176 73.9137 313.646 75.663C312.115 77.385 310.311 78.246 308.234 78.246C306.648 78.246 305.405 77.795 304.503 76.893C303.628 75.9637 303.191 74.6927 303.191 73.08C303.191 70.4833 304.202 68.16 306.225 66.11C308.247 64.0327 310.516 62.994 313.031 62.994C313.495 62.994 313.823 63.0077 314.015 63.035L314.138 64.388C311.951 64.388 310.133 65.0167 308.685 66.274C307.236 67.5313 306.512 69.144 306.512 71.112C306.512 72.2873 306.799 73.244 307.373 73.982C307.947 74.6927 308.78 75.048 309.874 75.048C310.994 75.048 311.883 74.556 312.539 73.572C313.195 72.588 313.523 71.44 313.523 70.128C313.523 68.7887 313.263 67.5723 312.744 66.479L314.876 65.823ZM328.676 72.178L329.66 72.998C329.004 74.5013 327.951 75.704 326.503 76.606C325.054 77.508 323.646 77.959 322.28 77.959C320.94 77.959 319.82 77.5353 318.918 76.688C318.043 75.8407 317.606 74.679 317.606 73.203C317.606 71.727 318.248 70.128 319.533 68.406C320.817 66.684 322.471 65.2627 324.494 64.142C326.544 63.0213 328.553 62.461 330.521 62.461C330.794 62.461 331.204 62.4883 331.751 62.543L331.628 64.142C328.621 64.2787 326.12 65.1943 324.125 66.889C322.157 68.5837 321.173 70.3877 321.173 72.301C321.173 73.0937 321.419 73.736 321.911 74.228C322.403 74.72 323.045 74.966 323.838 74.966C325.095 74.966 326.708 74.0367 328.676 72.178ZM359.456 72.67L360.317 73.49C358.759 76.278 356.968 77.672 354.946 77.672C354.126 77.672 353.483 77.4533 353.019 77.016C352.581 76.5513 352.363 75.95 352.363 75.212C352.363 74.4467 352.814 73.1483 353.716 71.317C354.618 69.4857 355.096 68.0917 355.151 67.135C355.178 66.6977 355.041 66.3423 354.741 66.069C354.467 65.7957 354.085 65.659 353.593 65.659C353.101 65.659 352.595 65.782 352.076 66.028C351.584 66.2467 351.092 66.6157 350.6 67.135C350.135 67.6543 349.698 68.16 349.288 68.652C348.905 69.144 348.468 69.841 347.976 70.743C347.511 71.645 347.115 72.3967 346.787 72.998C346.213 74.1187 345.393 75.7997 344.327 78.041L341.867 77.18C341.867 77.098 342.318 75.5537 343.22 72.547C344.122 69.5403 344.573 67.75 344.573 67.176C344.573 66.602 344.436 66.192 344.163 65.946C343.889 65.6727 343.548 65.536 343.138 65.536C341.908 65.536 340.199 67.0667 338.013 70.128C335.853 73.1893 334.473 75.7997 333.872 77.959L331.535 77.18C331.671 75.7313 332.314 73.1347 333.462 69.39C334.61 65.618 335.58 63.0487 336.373 61.682L338.218 62.338C337.37 64.224 336.783 65.823 336.455 67.135C336.127 68.4197 335.84 69.8 335.594 71.276C337.944 67.914 339.912 65.5633 341.498 64.224C343.083 62.8573 344.518 62.174 345.803 62.174C347.197 62.174 347.894 62.871 347.894 64.265C347.894 64.8117 347.648 65.8913 347.156 67.504C346.691 69.1167 346.322 70.3877 346.049 71.317C349.821 65.249 353.196 62.215 356.176 62.215C356.914 62.215 357.501 62.4473 357.939 62.912C358.376 63.3493 358.595 64.019 358.595 64.921C358.595 65.7957 358.075 67.258 357.037 69.308C356.025 71.358 355.52 72.6563 355.52 73.203C355.52 73.7223 355.629 74.105 355.848 74.351C356.066 74.597 356.34 74.72 356.668 74.72C357.378 74.72 358.308 74.0367 359.456 72.67ZM373.813 65.823C374.524 66.9983 374.879 68.2967 374.879 69.718C374.879 71.932 374.114 73.9137 372.583 75.663C371.053 77.385 369.249 78.246 367.171 78.246C365.586 78.246 364.342 77.795 363.44 76.893C362.566 75.9637 362.128 74.6927 362.128 73.08C362.128 70.4833 363.14 68.16 365.162 66.11C367.185 64.0327 369.454 62.994 371.968 62.994C372.433 62.994 372.761 63.0077 372.952 63.035L373.075 64.388C370.889 64.388 369.071 65.0167 367.622 66.274C366.174 67.5313 365.449 69.144 365.449 71.112C365.449 72.2873 365.736 73.244 366.31 73.982C366.884 74.6927 367.718 75.048 368.811 75.048C369.932 75.048 370.82 74.556 371.476 73.572C372.132 72.588 372.46 71.44 372.46 70.128C372.46 68.7887 372.201 67.5723 371.681 66.479L373.813 65.823ZM382.611 70.456C384.689 67.34 386.493 65.2217 388.023 64.101C389.554 62.953 390.893 62.379 392.041 62.379C393.189 62.379 394.078 62.7343 394.706 63.445C395.335 64.1283 395.649 65.003 395.649 66.069C395.649 69.021 394.583 71.7543 392.451 74.269C390.347 76.7563 387.969 78 385.317 78C384.142 78 383.213 77.795 382.529 77.385L383.513 75.622C384.962 75.8133 385.85 75.909 386.178 75.909C387.654 75.909 389.035 75.048 390.319 73.326C391.604 71.604 392.246 69.841 392.246 68.037C392.246 67.3537 392.041 66.7933 391.631 66.356C391.249 65.8913 390.743 65.659 390.114 65.659C388.611 65.659 386.903 66.9847 384.989 69.636C383.103 72.2873 381.327 75.5673 379.659 79.476C378.019 83.412 376.584 87.594 375.354 92.022L372.894 91.161C372.949 90.997 373.468 89.5757 374.452 86.897C375.409 84.2457 376.352 81.608 377.281 78.984C379.851 71.768 381.135 67.8183 381.135 67.135C381.135 65.3857 380.78 63.8003 380.069 62.379L382.119 61.354C382.967 62.5293 383.39 63.773 383.39 65.085C383.39 66.3697 383.131 68.16 382.611 70.456ZM406.418 51.678L408.345 52.867C404.436 59.5363 401.361 66.0553 399.12 72.424H396.824C398.519 65.6727 401.717 58.7573 406.418 51.678ZM398.095 77.959C398.614 77.959 399.052 77.7813 399.407 77.426C399.762 77.0707 399.94 76.647 399.94 76.155C399.94 75.6357 399.762 75.212 399.407 74.884C399.052 74.5287 398.614 74.351 398.095 74.351C397.603 74.351 397.179 74.5287 396.824 74.884C396.496 75.212 396.332 75.6357 396.332 76.155C396.332 76.647 396.496 77.0707 396.824 77.426C397.179 77.7813 397.603 77.959 398.095 77.959Z" fill="#929783"/>
</svg>
