<svg width="573" height="23" viewBox="0 0 573 23" fill="none" xmlns="http://www.w3.org/2000/svg">
    <g clip-path="url(#clip0_34_30)">
        <path
            d="M11.1231 3.62L13.0031 3.3V17.7L11.1231 18V6.78L2.66313 17.64V17.7L0.803125 18V3.62L2.66313 3.3V17.14L11.1231 6.26V3.62ZM25.5328 6.74C28.6728 6.74 31.1728 8.62 31.1728 12.38C31.1728 16.14 28.6728 18 25.5328 18C22.4128 18 19.9128 16.14 19.9128 12.4C18.2728 12.56 17.7128 14.04 17.7128 15.5V17.7L15.8528 18V7.06L17.7128 6.74V13.24C18.2328 12.54 19.0528 12.1 19.9128 12.08C20.0528 8.52 22.4928 6.74 25.5328 6.74ZM26.1728 17.7C28.6728 17.7 29.2928 14.88 29.2928 12.38C29.2928 8.62 26.7928 7.06 24.9128 7.06C22.4128 7.06 21.7928 9.88 21.7928 12.38C21.7928 16.14 24.2928 17.7 26.1728 17.7ZM41.3556 7.06L43.2356 6.74V17.7L41.3556 18V10.82C39.1756 10.82 37.2956 12.06 35.0956 12.06V17.7L33.2356 18V7.06L35.0956 6.74V11.76C37.2956 11.76 39.1756 10.5 41.3556 10.5V7.06ZM50.6966 11.12C53.5166 11.12 55.6966 12.06 55.6966 14.56C55.6966 17.08 53.1966 18 50.3766 18C49.4366 18.04 48.4766 17.94 47.5566 17.7L45.6966 18V7.06L47.5566 6.74V11.58C48.1566 11.32 49.1366 11.12 50.6966 11.12ZM50.3766 17.7C52.8766 17.7 53.8166 16.14 53.8166 14.56C53.8166 12.5 52.5766 11.44 50.3766 11.44C48.8166 11.44 47.8166 11.88 47.5566 12.38V17.38C48.4766 17.62 49.4366 17.72 50.3766 17.7ZM80.8777 2.8H82.3377V22.82H80.8777V2.8ZM118.838 3.62L120.718 3.3V17.7L118.838 18V6.78L110.378 17.64V17.7L108.518 18V3.62L110.378 3.3V17.14L118.838 6.26V3.62ZM133.248 6.74C136.388 6.74 138.888 8.62 138.888 12.38C138.888 16.14 136.388 18 133.248 18C130.128 18 127.628 16.14 127.628 12.4C125.988 12.56 125.428 14.04 125.428 15.5V17.7L123.568 18V7.06L125.428 6.74V13.24C125.948 12.54 126.768 12.1 127.628 12.08C127.768 8.52 130.208 6.74 133.248 6.74ZM133.888 17.7C136.388 17.7 137.008 14.88 137.008 12.38C137.008 8.62 134.508 7.06 132.628 7.06C130.128 7.06 129.508 9.88 129.508 12.38C129.508 16.14 132.008 17.7 133.888 17.7ZM147.665 7.06L149.545 6.74V17.7L147.665 18V7.38H142.625C142.405 9.66 142.325 11.96 142.345 14.26C142.345 16.76 141.085 18 139.525 18L139.225 17.7C140.785 17.7 142.025 16.76 142.025 13.94C141.985 11.64 142.105 9.34 142.345 7.06H147.665ZM157.005 11.12C159.825 11.12 162.005 12.06 162.005 14.56C162.005 17.08 159.505 18 156.685 18C155.745 18.04 154.785 17.94 153.865 17.7L152.005 18V7.06L153.865 6.74V11.58C154.465 11.32 155.445 11.12 157.005 11.12ZM156.685 17.7C159.185 17.7 160.125 16.14 160.125 14.56C160.125 12.5 158.885 11.44 156.685 11.44C155.125 11.44 154.125 11.88 153.865 12.38V17.38C154.785 17.62 155.745 17.72 156.685 17.7ZM492.624 3.3C496.684 3.3 500.124 5.5 500.124 10.5C500.124 15.5 496.684 18 492.624 18C488.564 18 485.124 15.5 485.124 10.5C485.124 5.5 488.564 3.3 492.624 3.3ZM493.244 17.7C497.004 17.7 498.244 13.94 498.244 10.5C498.244 5.5 494.804 3.62 492.004 3.62C488.244 3.62 486.984 7.06 486.984 10.5C486.984 15.5 490.424 17.7 493.244 17.7ZM506.178 11.48C509.358 11.84 511.238 15.92 511.238 17.72L509.978 18C509.978 16.46 508.878 11.88 505.838 11.78L504.158 13.18V17.72L502.298 18.02V7.08L504.158 6.76V12.78L505.738 11.46L511.338 6.74L511.558 6.98L506.178 11.48ZM522.234 7.06V7.38H518.174V17.7L516.294 18V7.38H512.234V7.06H516.294L518.174 6.74V7.06H522.234ZM531.269 7.06L533.149 6.74V17.7L531.269 18V13.62H528.769C524.709 13.62 524.709 16.44 524.709 18L523.449 17.7C523.449 16.18 524.269 14.24 526.929 13.56C524.729 13.32 523.149 12.32 523.149 10.18C523.149 7.68 525.649 6.74 528.449 6.74C529.409 6.72 530.349 6.82 531.269 7.06ZM531.269 13.32V7.38C530.349 7.14 529.409 7.02 528.469 7.06C525.949 7.06 525.009 8.62 525.009 10.18C525.009 12.24 526.269 13.32 528.469 13.32H531.269ZM541.159 6.74C544.279 6.74 546.799 8.62 546.799 12.38C546.799 16.14 544.279 18 541.159 18C538.039 18 535.539 16.14 535.539 12.38C535.539 4.24 538.039 1.74 540.839 1.74C544.279 1.74 545.539 0.8 545.539 0.8L545.859 2.06C544.199 2.3 542.519 2.4 540.839 2.36C538.459 2.36 536.759 4.16 536.279 9.28C537.259 7.6 539.059 6.74 541.159 6.74ZM541.779 17.7C544.279 17.7 544.919 14.88 544.919 12.38C544.919 8.62 542.419 7.06 540.539 7.06C538.039 7.06 537.399 9.88 537.399 12.38C537.399 16.14 539.899 17.7 541.779 17.7ZM554.5 6.74C557.62 6.74 560.14 8.62 560.14 12.38C560.14 16.14 557.62 18 554.5 18C553.14 18.04 551.82 17.62 550.74 16.8V21.46L548.88 21.76V7.38L550.74 7.06V7.96C551.82 7.14 553.14 6.7 554.5 6.74ZM555.12 17.7C557.62 17.7 558.26 14.88 558.26 12.38C558.26 8.62 555.76 7.06 553.88 7.06C552.62 7.12 551.46 7.74 550.74 8.78V15.66C551.88 16.88 553.46 17.62 555.12 17.7ZM567.2 11.12C570.02 11.12 572.2 12.06 572.2 14.56C572.2 17.08 569.7 18 566.88 18C565.94 18.04 564.98 17.94 564.06 17.7L562.2 18V7.06L564.06 6.74V11.58C564.66 11.32 565.64 11.12 567.2 11.12ZM566.88 17.7C569.38 17.7 570.32 16.14 570.32 14.56C570.32 12.5 569.08 11.44 566.88 11.44C565.32 11.44 564.32 11.88 564.06 12.38V17.38C564.98 17.62 565.94 17.72 566.88 17.7Z"
            fill="#979797" />
        <path
            d="M223.247 13.06L225.527 18.08L227.067 16.94L220.887 3.3L219.607 4.24L219.347 4.44L219.427 4.64L213.507 17.96L213.787 18.08L215.467 14.3C218.187 14.24 220.567 13.18 223.247 13.06Z"
            fill="#262626" />
        <path
            d="M239.605 14.56C239.605 12.8 238.505 11.82 237.105 11.38C237.985 11.24 238.985 10.74 238.985 9.24C238.985 7.38 236.825 6.74 234.905 6.74H230.525L228.665 7.06V18L230.525 17.7C231.565 17.86 232.605 17.98 233.665 18C237.725 18 239.605 17.08 239.605 14.56Z"
            fill="#262626" />
        <path
            d="M250.133 6.74L248.253 7.06H241.693V18L243.553 17.7V7.38H248.253V8.94L250.133 8.62V6.74Z"
            fill="#262626" />
        <path
            d="M261.073 6.86L260.793 6.74L257.013 15.96L252.333 6.76L250.793 7.86L255.613 17.34L256.813 16.5L255.173 20.48C254.593 21.88 252.953 21.22 252.313 20.7L252.013 21.32C252.793 21.96 254.873 22.06 255.473 20.6L261.073 6.86Z"
            fill="#262626" />
        <path
            d="M271.91 16.44L271.61 15.82C270.91 16.9 269.75 17.6 268.47 17.7C266.61 17.7 264.09 16.14 264.09 12.38C264.09 9.88 264.73 7.06 267.23 7.06C268.63 7.1 269.93 7.82 270.69 9L271.29 7.72C270.27 7.06 269.07 6.72 267.85 6.74C264.73 6.74 262.23 8.62 262.23 12.38C262.23 16.14 264.73 18 267.85 18C269.15 18 270.97 17.38 271.91 16.44Z"
            fill="#262626" />
        <path
            d="M282.566 7.38V7.06H278.506V6.74L276.626 7.06H272.566V7.38H276.626V18L278.506 17.7V7.38H282.566Z"
            fill="#262626" />
        <path
            d="M187.186 2.8H188.646V22.82H187.186V2.8ZM307.323 2.8H308.783V22.82H307.323V2.8ZM458.143 2.8H459.603V22.82H458.143V2.8Z"
            fill="#929783" />
        <path
            d="M346.803 14.88L347.343 15.88C345.863 17.3 343.863 18.08 341.803 18C337.743 18 334.303 15.5 334.303 10.5C334.303 5.5 337.743 3.3 341.803 3.3C343.463 3.28 345.083 3.74 346.443 4.68L345.903 5.94C344.763 4.5 343.023 3.64 341.183 3.62C337.423 3.62 336.163 7.06 336.163 10.5C336.163 15.5 339.603 17.7 342.423 17.7C344.303 17.66 345.983 16.56 346.803 14.88ZM354.935 17.7C356.215 17.6 357.375 16.9 358.075 15.82L358.375 16.44C357.435 17.38 355.615 18.02 354.315 18.02C351.375 18.02 348.975 16.34 348.715 13C348.695 12.8 348.695 12.6 348.695 12.38C348.695 8.62 351.195 6.74 354.315 6.74C354.475 6.74 354.655 6.76 354.815 6.76C354.875 6.76 354.935 6.78 354.995 6.78C355.095 6.8 355.195 6.8 355.295 6.82C355.375 6.82 355.435 6.84 355.515 6.84C355.595 6.86 355.675 6.88 355.755 6.9C355.835 6.92 355.915 6.94 355.995 6.94C356.075 6.96 356.135 6.98 356.215 7C356.295 7.02 356.375 7.06 356.435 7.08C356.515 7.1 356.575 7.12 356.655 7.16C356.715 7.18 356.795 7.22 356.875 7.24C356.935 7.28 356.995 7.3 357.055 7.32C357.135 7.36 357.215 7.4 357.275 7.44C357.335 7.48 357.395 7.5 357.455 7.54C357.535 7.58 357.595 7.62 357.655 7.66C357.695 7.68 357.735 7.7 357.755 7.72C358.895 8.52 359.655 9.76 359.835 11.12H358.075C355.435 11.12 353.175 12.28 350.555 12.36V12.38C350.555 16.14 353.055 17.7 354.935 17.7ZM353.695 7.06C351.295 7.06 350.615 9.64 350.575 12.06C353.115 11.96 355.335 10.86 357.895 10.82C357.755 10.16 357.495 9.54 357.135 8.98C357.035 8.82 356.915 8.68 356.815 8.56C356.795 8.54 356.755 8.5 356.735 8.48C356.655 8.38 356.555 8.28 356.455 8.18C356.415 8.16 356.375 8.12 356.355 8.1C356.235 8 356.115 7.9 355.975 7.8C355.835 7.7 355.695 7.62 355.555 7.56C355.535 7.54 355.495 7.52 355.455 7.5C355.355 7.44 355.235 7.4 355.115 7.34C355.095 7.34 355.055 7.32 355.035 7.32C354.895 7.26 354.755 7.22 354.615 7.18C354.595 7.18 354.555 7.16 354.535 7.16C354.415 7.14 354.315 7.12 354.195 7.1C354.155 7.1 354.115 7.08 354.095 7.08C353.955 7.06 353.815 7.06 353.695 7.06ZM369.715 7.06L371.595 6.74V17.7L369.715 18V10.82C367.535 10.82 365.655 12.06 363.455 12.06V17.7L361.595 18V7.06L363.455 6.74V11.76C365.655 11.76 367.535 10.5 369.715 10.5V7.06ZM382.996 7.06V7.38H378.936V17.7L377.056 18V7.38H372.996V7.06H377.056L378.936 6.74V7.06H382.996ZM392.03 7.06L393.91 6.74V17.7L392.03 18V13.62H389.53C385.47 13.62 385.47 16.44 385.47 18L384.21 17.7C384.21 16.18 385.03 14.24 387.69 13.56C385.49 13.32 383.91 12.32 383.91 10.18C383.91 7.68 386.41 6.74 389.21 6.74C390.17 6.72 391.11 6.82 392.03 7.06ZM392.03 13.32V7.38C391.11 7.14 390.17 7.02 389.23 7.06C386.71 7.06 385.77 8.62 385.77 10.18C385.77 12.24 387.03 13.32 389.23 13.32H392.03ZM401.921 6.74C405.041 6.74 407.561 8.62 407.561 12.38C407.561 16.14 405.041 18 401.921 18C398.801 18 396.301 16.14 396.301 12.38C396.301 4.24 398.801 1.74 401.601 1.74C405.041 1.74 406.301 0.8 406.301 0.8L406.621 2.06C404.961 2.3 403.281 2.4 401.601 2.36C399.221 2.36 397.521 4.16 397.041 9.28C398.021 7.6 399.821 6.74 401.921 6.74ZM402.541 17.7C405.041 17.7 405.681 14.88 405.681 12.38C405.681 8.62 403.181 7.06 401.301 7.06C398.801 7.06 398.161 9.88 398.161 12.38C398.161 16.14 400.661 17.7 402.541 17.7ZM415.262 6.74C418.382 6.74 420.902 8.62 420.902 12.38C420.902 16.14 418.382 18 415.262 18C413.902 18.04 412.582 17.62 411.502 16.8V21.46L409.642 21.76V7.38L411.502 7.06V7.96C412.582 7.14 413.902 6.7 415.262 6.74ZM415.882 17.7C418.382 17.7 419.022 14.88 419.022 12.38C419.022 8.62 416.522 7.06 414.642 7.06C413.382 7.12 412.222 7.74 411.502 8.78V15.66C412.642 16.88 414.222 17.62 415.882 17.7ZM427.962 11.12C430.782 11.12 432.962 12.06 432.962 14.56C432.962 17.08 430.462 18 427.642 18C426.702 18.04 425.742 17.94 424.822 17.7L422.962 18V7.06L424.822 6.74V11.58C425.422 11.32 426.402 11.12 427.962 11.12ZM427.642 17.7C430.142 17.7 431.082 16.14 431.082 14.56C431.082 12.5 429.842 11.44 427.642 11.44C426.082 11.44 425.082 11.88 424.822 12.38V17.38C425.742 17.62 426.702 17.72 427.642 17.7Z"
            fill="#979797" />
    </g>
    <defs>
        <clipPath id="clip0_34_30">
            <rect width="573" height="23" fill="white" />
        </clipPath>
    </defs>
</svg>