<svg width="297" height="44" viewBox="0 0 297 44" fill="none" xmlns="http://www.w3.org/2000/svg">
<path d="M34.481 16.1131L34.276 18.5731C33.6473 18.5184 32.964 18.4911 32.226 18.4911C31.5153 18.4911 30.914 18.5047 30.422 18.5321C30.0393 21.5387 29.7933 24.8051 29.684 28.3311H26.814C26.65 27.6204 26.568 26.6774 26.568 25.5021C26.568 24.3267 26.5953 23.3154 26.65 22.4681C26.732 21.5934 26.8277 20.7324 26.937 19.8851C27.0463 19.0377 27.101 18.5457 27.101 18.4091C26.7183 18.3817 25.8163 18.3681 24.395 18.3681C22.9737 18.3681 21.9897 18.3954 21.443 18.4501C18.2723 22.7141 15.3477 25.9531 12.669 28.1671C9.99032 30.3537 7.31165 31.4471 4.63299 31.4471C3.32099 31.4471 2.21399 31.0507 1.31199 30.2581C0.437319 29.4654 -1.45324e-05 28.4131 -1.45324e-05 27.1011C-1.45324e-05 24.6137 1.88599 22.3451 5.65799 20.2951C9.45732 18.2451 14.3637 16.8647 20.377 16.1541C21.0877 15.0607 22.4133 13.3797 24.354 11.1111C26.2947 8.81505 28.208 6.81972 30.094 5.12505C30.914 3.21172 31.5563 1.88605 32.021 1.14805C32.513 0.382719 32.9913 5.28693e-05 33.456 5.28693e-05C33.9207 5.28693e-05 34.3033 0.17772 34.604 0.533053C34.9047 0.888387 35.055 1.35305 35.055 1.92705C35.055 2.47372 34.7407 3.29372 34.112 4.38705C33.5107 5.45305 32.882 7.12039 32.226 9.38905C31.57 11.6304 31.119 13.7487 30.873 15.7441C32.2943 15.7441 33.497 15.8671 34.481 16.1131ZM13.571 24.6821C15.8397 22.5227 17.548 20.4727 18.696 18.5321C14.104 18.8054 10.5507 19.6664 8.03599 21.1151C5.54865 22.5637 4.30499 24.1081 4.30499 25.7481C4.30499 26.4587 4.53732 27.0191 5.00199 27.4291C5.49399 27.8391 6.13632 28.0441 6.92899 28.0441C9.06099 28.0441 11.275 26.9234 13.571 24.6821ZM27.593 15.7441C27.7843 14.8147 28.0303 13.6531 28.331 12.2591C28.659 10.8377 28.8503 10.0041 28.905 9.75805C27.593 11.0154 26.6773 11.9447 26.158 12.5461C25.6387 13.1201 24.723 14.2407 23.411 15.9081C23.8757 15.8807 24.436 15.8671 25.092 15.8671C25.7753 15.8397 26.3357 15.8124 26.773 15.7851C27.2103 15.7577 27.4837 15.7441 27.593 15.7441ZM39.3424 24.7231L41.3924 23.6981C41.3924 24.1901 41.57 24.6137 41.9254 24.9691C42.308 25.3244 42.7454 25.5021 43.2374 25.5021C45.5607 25.5021 48.212 22.4407 51.1914 16.3181C51.3554 15.9627 51.5467 15.5664 51.7654 15.1291C51.984 14.6644 52.148 14.3227 52.2574 14.1041C52.3667 13.8581 52.4897 13.5847 52.6264 13.2841C52.7904 12.9834 52.9134 12.7647 52.9954 12.6281C53.1047 12.4641 53.214 12.3137 53.3234 12.1771C53.5694 11.9311 53.8427 11.8081 54.1434 11.8081C54.4714 11.8081 54.7584 11.9584 55.0044 12.2591C55.2504 12.5597 55.3734 12.9151 55.3734 13.3251C55.3734 13.7077 54.854 15.4024 53.8154 18.4091C52.804 21.3884 52.2984 23.1924 52.2984 23.8211C52.2984 24.4497 52.4214 24.9144 52.6674 25.2151C52.9407 25.5157 53.2004 25.6661 53.4464 25.6661C53.7197 25.6661 53.9247 25.6524 54.0614 25.6251C54.198 25.5977 54.3347 25.5431 54.4714 25.4611C54.608 25.3791 54.7174 25.3107 54.7994 25.2561C54.9087 25.2014 55.0317 25.1057 55.1684 24.9691L55.4554 24.6411C55.5374 24.5864 55.6467 24.4771 55.7834 24.3131C55.9474 24.1217 56.0567 23.9987 56.1114 23.9441L56.9724 24.6411C56.5077 25.7891 55.7697 26.7594 54.7584 27.5521C53.7744 28.3447 52.8724 28.7411 52.0524 28.7411C51.2597 28.7411 50.631 28.4677 50.1664 27.9211C49.7017 27.3471 49.4694 26.6091 49.4694 25.7071C49.4694 24.8051 49.6197 23.6434 49.9204 22.2221C48.663 24.1901 47.2827 25.6934 45.7794 26.7321C44.276 27.7434 43.0597 28.2491 42.1304 28.2491C41.201 28.2491 40.504 27.9074 40.0394 27.2241C39.5747 26.5407 39.3424 25.7071 39.3424 24.7231ZM86.2124 23.5751L87.0734 24.2721C86.6088 25.4201 85.8707 26.3904 84.8594 27.1831C83.8754 27.9757 82.9734 28.3721 82.1534 28.3721C81.3607 28.3721 80.7321 28.0987 80.2674 27.5521C79.8027 26.9781 79.5704 26.2401 79.5704 25.3381C79.5704 24.4361 79.7207 23.2744 80.0214 21.8531C78.7367 23.8757 77.3564 25.4611 75.8804 26.6091C74.4044 27.7571 73.1607 28.3311 72.1494 28.3311C70.6187 28.3311 69.8534 27.3607 69.8534 25.4201C69.8534 25.2287 70.0447 24.0534 70.4274 21.8941C69.1427 23.8894 67.8444 25.3927 66.5324 26.4041C65.2477 27.3881 64.0861 27.8801 63.0474 27.8801C61.5167 27.8801 60.7514 26.9097 60.7514 24.9691L62.3094 23.4931C62.3094 23.9851 62.4871 24.4087 62.8424 24.7641C63.2251 25.1194 63.6624 25.2971 64.1544 25.2971C65.0564 25.2971 66.2727 24.5317 67.8034 23.0011C69.3614 21.4704 70.7827 19.4614 72.0674 16.9741C72.3407 16.4274 72.6551 15.7851 73.0104 15.0471C73.3931 14.2817 73.6664 13.7351 73.8304 13.4071C73.9944 13.0791 74.1857 12.7237 74.4044 12.3411C74.7597 11.7397 75.1287 11.4391 75.5114 11.4391C75.8941 11.4391 76.2084 11.5894 76.4544 11.8901C76.7004 12.1907 76.8234 12.5461 76.8234 12.9561C76.8234 13.3387 76.7004 13.7897 76.4544 14.3091C76.2357 14.8284 75.8667 15.5391 75.3474 16.4411C74.8281 17.3157 74.4181 18.0401 74.1174 18.6141C73.4067 20.4727 73.0514 21.7437 73.0514 22.4271C73.0514 23.1104 73.2291 23.6297 73.5844 23.9851C73.9671 24.3404 74.4044 24.5181 74.8964 24.5181C75.8257 24.5181 76.9327 23.8074 78.2174 22.3861C79.5294 20.9374 80.8824 18.7917 82.2764 15.9491C82.4404 15.5937 82.6318 15.1974 82.8504 14.7601C83.0691 14.2954 83.2331 13.9537 83.3424 13.7351C83.4518 13.4891 83.5748 13.2157 83.7114 12.9151C83.8754 12.6144 83.9984 12.3957 84.0804 12.2591C84.1898 12.0951 84.2991 11.9447 84.4084 11.8081C84.6544 11.5621 84.9277 11.4391 85.2284 11.4391C85.5564 11.4391 85.8434 11.5894 86.0894 11.8901C86.3354 12.1907 86.4584 12.5461 86.4584 12.9561C86.4584 13.3387 85.7751 15.0334 84.4084 18.0401C83.0691 21.0194 82.3994 22.8234 82.3994 23.4521C82.3994 24.0807 82.5224 24.5454 82.7684 24.8461C83.0417 25.1467 83.3014 25.2971 83.5474 25.2971C83.8207 25.2971 84.0257 25.2834 84.1624 25.2561C84.2991 25.2287 84.4357 25.1741 84.5724 25.0921C84.7091 25.0101 84.8184 24.9417 84.9004 24.8871C85.0097 24.8324 85.1327 24.7367 85.2694 24.6001L85.5564 24.3131C85.6384 24.2311 85.7477 24.1081 85.8844 23.9441C86.0484 23.7527 86.1578 23.6297 86.2124 23.5751ZM107.297 24.1901L108.24 24.8871C107.858 25.7071 107.147 26.4861 106.108 27.2241C105.097 27.9621 104.168 28.3311 103.32 28.3311C101.708 28.3311 100.901 27.4837 100.901 25.7891C100.901 24.9964 101.106 24.0534 101.516 22.9601L99.9993 24.5181C98.5233 26.0214 97.2386 27.0327 96.1453 27.5521C95.0793 28.0714 94.027 28.3311 92.9883 28.3311C91.9496 28.3311 91.157 28.0441 90.6103 27.4701C90.091 26.8687 89.8313 26.0487 89.8313 25.0101C89.8313 23.0967 90.5693 21.2107 92.0453 19.3521C93.5213 17.4661 95.4073 15.9354 97.7033 14.7601C99.9993 13.5847 102.295 12.9834 104.591 12.9561L104.673 14.3091L102.951 14.6781C100.464 15.2247 98.2636 16.3181 96.3503 17.9581C94.4643 19.5981 93.5213 21.2381 93.5213 22.8781C93.5213 24.4907 94.1773 25.2971 95.4893 25.2971C96.7193 25.2971 98.2363 24.4361 100.04 22.7141C101.844 20.9921 103.348 18.9694 104.55 16.6461L106.272 17.6711C104.578 21.0877 103.73 23.2607 103.73 24.1901C103.73 24.5727 103.853 24.9007 104.099 25.1741C104.373 25.4201 104.632 25.5431 104.878 25.5431C105.152 25.5431 105.329 25.5294 105.411 25.5021C105.493 25.4747 105.575 25.4474 105.657 25.4201C105.739 25.3654 105.835 25.2971 105.944 25.2151C106.081 25.1331 106.19 25.0511 106.272 24.9691C106.382 24.8871 106.546 24.7641 106.764 24.6001C106.983 24.4361 107.161 24.2994 107.297 24.1901ZM124.815 14.3501C124.815 16.3454 122.984 17.9991 119.321 19.3111C120.305 19.9124 121.029 20.4591 121.494 20.9511C121.986 21.4157 122.232 21.9487 122.232 22.5501C122.232 24.0807 121.371 25.4337 119.649 26.6091C117.927 27.7571 116.082 28.3311 114.114 28.3311C113.157 28.3311 112.201 28.1807 111.244 27.8801C110.287 27.5794 109.631 27.2104 109.276 26.7731L110.834 25.3381C111.162 25.6661 111.599 25.9531 112.146 26.1991C112.72 26.4451 113.198 26.5681 113.581 26.5681C114.948 26.5681 116.191 26.2264 117.312 25.5431C118.46 24.8324 119.034 23.9714 119.034 22.9601C119.034 22.4134 118.829 21.9624 118.419 21.6071C118.009 21.2244 117.558 20.9647 117.066 20.8281C116.601 20.6641 116.164 20.4727 115.754 20.2541C115.344 20.0081 115.139 19.7347 115.139 19.4341C115.139 19.1334 115.453 18.8601 116.082 18.6141C116.738 18.3407 117.462 18.1221 118.255 17.9581C119.048 17.7667 119.758 17.4661 120.387 17.0561C121.043 16.6187 121.371 16.1404 121.371 15.6211C121.371 15.1017 121.193 14.6917 120.838 14.3911C120.483 14.0904 120.032 13.9401 119.485 13.9401C118.966 13.9401 118.146 14.2271 117.025 14.8011C115.904 15.3751 114.77 16.1131 113.622 17.0151L113.048 15.8671C114.032 14.7191 115.358 13.7077 117.025 12.8331C118.72 11.9311 120.073 11.4801 121.084 11.4801C122.123 11.4801 122.997 11.7671 123.708 12.3411C124.446 12.8877 124.815 13.5574 124.815 14.3501ZM164.946 23.8211L166.053 24.5181C165.698 25.6934 165.097 26.6364 164.249 27.3471C163.429 28.0304 162.527 28.3721 161.543 28.3721C160.559 28.3721 159.439 27.7434 158.181 26.4861C156.733 27.7434 154.833 28.3721 152.482 28.3721C150.132 28.3721 148.314 27.8117 147.029 26.6911C145.745 25.5704 145.102 24.2037 145.102 22.5911C145.102 20.9511 145.772 19.5161 147.111 18.2861C148.451 17.0287 150.337 16.0994 152.769 15.4981C152.25 14.0221 151.99 12.8194 151.99 11.8901C151.99 10.4414 152.564 9.23872 153.712 8.28205C154.888 7.29805 156.254 6.80605 157.812 6.80605C159.37 6.80605 160.6 7.16139 161.502 7.87205C162.432 8.55539 162.896 9.45739 162.896 10.5781C162.896 12.9561 160.587 14.7327 155.967 15.9081C157.307 19.1881 158.455 21.5387 159.411 22.9601C160.04 22.0581 160.764 20.3771 161.584 17.9171H162.896C162.787 18.7097 162.473 19.7347 161.953 20.9921C161.461 22.2221 160.928 23.2334 160.354 24.0261C161.284 25.2014 162.09 25.7891 162.773 25.7891C163.703 25.7891 164.427 25.1331 164.946 23.8211ZM160.313 10.5781C160.313 9.81272 160.081 9.21139 159.616 8.77405C159.152 8.30939 158.509 8.07705 157.689 8.07705C156.897 8.07705 156.213 8.40505 155.639 9.06105C155.065 9.68972 154.778 10.4004 154.778 11.1931C154.778 11.9857 155.011 13.1337 155.475 14.6371C158.701 13.7897 160.313 12.4367 160.313 10.5781ZM148.751 21.5661C148.751 22.7141 149.161 23.7801 149.981 24.7641C150.829 25.7481 152.1 26.2401 153.794 26.2401C155.489 26.2401 156.692 25.9257 157.402 25.2971C155.954 23.0831 154.532 20.2267 153.138 16.7281C151.881 17.0014 150.829 17.5891 149.981 18.4911C149.161 19.3931 148.751 20.4181 148.751 21.5661ZM204.562 5.57605L198.699 5.45305C192.713 5.45305 189.72 6.76505 189.72 9.38905C189.72 10.0724 189.966 10.6327 190.458 11.0701C190.977 11.4801 191.742 11.6851 192.754 11.6851C193.765 11.6851 195.091 11.2204 196.731 10.2911L197.346 11.3571C196.498 12.2591 195.542 12.9697 194.476 13.4891C193.41 14.0084 192.344 14.2681 191.278 14.2681C190.212 14.2681 189.296 13.9127 188.531 13.2021C187.765 12.4914 187.383 11.6031 187.383 10.5371C187.383 8.37772 188.544 6.49172 190.868 4.87905C193.218 3.26639 196.389 2.46005 200.38 2.46005C200.708 2.46005 201.883 2.51472 203.906 2.62405C205.928 2.73339 207.527 2.78805 208.703 2.78805C209.878 2.78805 210.958 2.61039 211.942 2.25505C212.324 2.14572 212.557 2.09105 212.639 2.09105C213.021 2.09105 213.213 2.33705 213.213 2.82905C213.213 3.53972 212.584 4.18205 211.327 4.75605C210.097 5.33005 208.675 5.61705 207.063 5.61705C205.259 7.36639 203.673 10.4277 202.307 14.8011C200.967 19.1471 199.355 22.4681 197.469 24.7641C195.61 27.0327 193.396 28.1671 190.827 28.1671C189.815 28.1671 188.859 27.8391 187.957 27.1831L188.9 25.6251C189.228 25.7891 189.597 25.9394 190.007 26.0761L190.581 26.1581C190.717 26.1854 190.922 26.1991 191.196 26.1991C192.562 26.1991 193.779 25.5431 194.845 24.2311C195.938 22.9191 197.072 20.4454 198.248 16.8101C199.45 13.1474 200.38 10.7284 201.036 9.55305C201.719 8.35039 202.894 7.02472 204.562 5.57605ZM223.273 25.7481L223.396 26.8141C223.287 26.8961 222.016 27.3881 219.583 28.2901C219.255 30.0941 218.832 31.8707 218.312 33.6201C217.82 35.3967 217.315 36.7361 216.795 37.6381C216.303 38.5674 215.716 39.4831 215.032 40.3851C213.666 42.1891 211.821 43.0911 209.497 43.0911C208.349 43.0911 207.434 42.7357 206.75 42.0251C206.067 41.3144 205.725 40.3441 205.725 39.1141C205.725 34.3854 209.689 30.5861 217.615 27.7161L219.829 19.9261C217.479 23.4521 215.36 25.6251 213.474 26.4451C212.545 26.8824 211.561 27.1011 210.522 27.1011C209.511 27.1011 208.691 26.7731 208.062 26.1171C207.461 25.4611 207.16 24.5044 207.16 23.2471C207.16 21.9897 207.584 20.2404 208.431 17.9991C209.306 15.7304 210.276 13.8307 211.342 12.3001L213.351 13.1611C213.269 13.2431 212.887 13.9674 212.203 15.3341C211.001 17.8214 210.399 19.6664 210.399 20.8691C210.399 22.0717 210.632 22.8781 211.096 23.2881C211.561 23.6981 212.244 23.9031 213.146 23.9031C214.048 23.9031 215.06 23.3701 216.18 22.3041C217.328 21.2107 219.091 19.0651 221.469 15.8671L222.945 16.7281C222.727 17.6301 222.235 19.2701 221.469 21.6481C220.731 23.9987 220.226 25.8027 219.952 27.0601L223.273 25.7481ZM217.369 28.9461C215.647 29.7387 214.13 30.6407 212.818 31.6521C210.358 33.5107 209.128 35.3147 209.128 37.0641C209.128 37.7201 209.32 38.2531 209.702 38.6631C210.085 39.0731 210.563 39.2781 211.137 39.2781C213.871 39.2781 215.948 35.8341 217.369 28.9461ZM240.768 14.3501C240.768 16.3454 238.937 17.9991 235.274 19.3111C236.258 19.9124 236.982 20.4591 237.447 20.9511C237.939 21.4157 238.185 21.9487 238.185 22.5501C238.185 24.0807 237.324 25.4337 235.602 26.6091C233.88 27.7571 232.035 28.3311 230.067 28.3311C229.11 28.3311 228.154 28.1807 227.197 27.8801C226.24 27.5794 225.584 27.2104 225.229 26.7731L226.787 25.3381C227.115 25.6661 227.552 25.9531 228.099 26.1991C228.673 26.4451 229.151 26.5681 229.534 26.5681C230.901 26.5681 232.144 26.2264 233.265 25.5431C234.413 24.8324 234.987 23.9714 234.987 22.9601C234.987 22.4134 234.782 21.9624 234.372 21.6071C233.962 21.2244 233.511 20.9647 233.019 20.8281C232.554 20.6641 232.117 20.4727 231.707 20.2541C231.297 20.0081 231.092 19.7347 231.092 19.4341C231.092 19.1334 231.406 18.8601 232.035 18.6141C232.691 18.3407 233.415 18.1221 234.208 17.9581C235.001 17.7667 235.711 17.4661 236.34 17.0561C236.996 16.6187 237.324 16.1404 237.324 15.6211C237.324 15.1017 237.146 14.6917 236.791 14.3911C236.436 14.0904 235.985 13.9401 235.438 13.9401C234.919 13.9401 234.099 14.2271 232.978 14.8011C231.857 15.3751 230.723 16.1131 229.575 17.0151L229.001 15.8671C229.985 14.7191 231.311 13.7077 232.978 12.8331C234.673 11.9311 236.026 11.4801 237.037 11.4801C238.076 11.4801 238.95 11.7671 239.661 12.3411C240.399 12.8877 240.768 13.5574 240.768 14.3501ZM259.806 24.1901L260.749 24.8871C260.366 25.7071 259.656 26.4861 258.617 27.2241C257.606 27.9621 256.676 28.3311 255.829 28.3311C254.216 28.3311 253.41 27.4837 253.41 25.7891C253.41 24.9964 253.615 24.0534 254.025 22.9601L252.508 24.5181C251.032 26.0214 249.747 27.0327 248.654 27.5521C247.588 28.0714 246.536 28.3311 245.497 28.3311C244.458 28.3311 243.666 28.0441 243.119 27.4701C242.6 26.8687 242.34 26.0487 242.34 25.0101C242.34 23.0967 243.078 21.2107 244.554 19.3521C246.03 17.4661 247.916 15.9354 250.212 14.7601C252.508 13.5847 254.804 12.9834 257.1 12.9561L257.182 14.3091L255.46 14.6781C252.973 15.2247 250.772 16.3181 248.859 17.9581C246.973 19.5981 246.03 21.2381 246.03 22.8781C246.03 24.4907 246.686 25.2971 247.998 25.2971C249.228 25.2971 250.745 24.4361 252.549 22.7141C254.353 20.9921 255.856 18.9694 257.059 16.6461L258.781 17.6711C257.086 21.0877 256.239 23.2607 256.239 24.1901C256.239 24.5727 256.362 24.9007 256.608 25.1741C256.881 25.4201 257.141 25.5431 257.387 25.5431C257.66 25.5431 257.838 25.5294 257.92 25.5021C258.002 25.4747 258.084 25.4474 258.166 25.4201C258.248 25.3654 258.344 25.2971 258.453 25.2151C258.59 25.1331 258.699 25.0511 258.781 24.9691C258.89 24.8871 259.054 24.7641 259.273 24.6001C259.492 24.4361 259.669 24.2994 259.806 24.1901ZM264.122 24.7231L266.172 23.6981C266.172 24.1901 266.349 24.6137 266.705 24.9691C267.087 25.3244 267.525 25.5021 268.017 25.5021C270.34 25.5021 272.991 22.4407 275.971 16.3181C276.135 15.9627 276.326 15.5664 276.545 15.1291C276.763 14.6644 276.927 14.3227 277.037 14.1041C277.146 13.8581 277.269 13.5847 277.406 13.2841C277.57 12.9834 277.693 12.7647 277.775 12.6281C277.884 12.4641 277.993 12.3137 278.103 12.1771C278.349 11.9311 278.622 11.8081 278.923 11.8081C279.251 11.8081 279.538 11.9584 279.784 12.2591C280.03 12.5597 280.153 12.9151 280.153 13.3251C280.153 13.7077 279.633 15.4024 278.595 18.4091C277.583 21.3884 277.078 23.1924 277.078 23.8211C277.078 24.4497 277.201 24.9144 277.447 25.2151C277.72 25.5157 277.98 25.6661 278.226 25.6661C278.499 25.6661 278.704 25.6524 278.841 25.6251C278.977 25.5977 279.114 25.5431 279.251 25.4611C279.387 25.3791 279.497 25.3107 279.579 25.2561C279.688 25.2014 279.811 25.1057 279.948 24.9691L280.235 24.6411C280.317 24.5864 280.426 24.4771 280.563 24.3131C280.727 24.1217 280.836 23.9987 280.891 23.9441L281.752 24.6411C281.287 25.7891 280.549 26.7594 279.538 27.5521C278.554 28.3447 277.652 28.7411 276.832 28.7411C276.039 28.7411 275.41 28.4677 274.946 27.9211C274.481 27.3471 274.249 26.6091 274.249 25.7071C274.249 24.8051 274.399 23.6434 274.7 22.2221C273.442 24.1901 272.062 25.6934 270.559 26.7321C269.055 27.7434 267.839 28.2491 266.91 28.2491C265.98 28.2491 265.283 27.9074 264.819 27.2241C264.354 26.5407 264.122 25.7071 264.122 24.7231ZM293.936 18.9831C295.439 18.9284 296.191 19.5434 296.191 20.8281C296.191 22.5227 295.275 24.2037 293.444 25.8711C291.64 27.5111 289.822 28.3311 287.991 28.3311C286.269 28.3311 285.408 27.1694 285.408 24.8461C285.408 23.0147 285.859 20.7461 286.761 18.0401C287.69 15.3067 288.455 13.3797 289.057 12.2591L290.902 12.8741C290.191 14.9514 289.467 17.4934 288.729 20.5001C290.915 19.4887 292.651 18.9831 293.936 18.9831ZM293.28 23.2061C293.444 22.8507 293.526 22.4954 293.526 22.1401C293.444 21.4021 292.801 21.0331 291.599 21.0331C291.025 21.0331 289.959 21.2791 288.401 21.7711C288.182 22.5911 288.073 23.3291 288.073 23.9851C288.073 24.6137 288.223 25.1194 288.524 25.5021C288.852 25.8847 289.275 26.0761 289.795 26.0761C290.341 26.0761 290.984 25.8027 291.722 25.2561C292.46 24.6821 292.979 23.9987 293.28 23.2061Z" fill="#B81D1B"/>
</svg>
