<svg width="318" height="35" viewBox="0 0 318 35" fill="none" xmlns="http://www.w3.org/2000/svg">
<path d="M34.481 16.113L34.276 18.573C33.6473 18.5183 32.964 18.491 32.226 18.491C31.5153 18.491 30.914 18.5047 30.422 18.532C30.0393 21.5387 29.7933 24.805 29.684 28.331H26.814C26.65 27.6203 26.568 26.6773 26.568 25.502C26.568 24.3267 26.5953 23.3153 26.65 22.468C26.732 21.5933 26.8277 20.7323 26.937 19.885C27.0463 19.0377 27.101 18.5457 27.101 18.409C26.7183 18.3817 25.8163 18.368 24.395 18.368C22.9737 18.368 21.9897 18.3953 21.443 18.45C18.2723 22.714 15.3477 25.953 12.669 28.167C9.99033 30.3537 7.31167 31.447 4.633 31.447C3.321 31.447 2.214 31.0507 1.312 30.258C0.437334 29.4653 7.26432e-07 28.413 7.26432e-07 27.101C7.26432e-07 24.6137 1.886 22.345 5.658 20.295C9.45733 18.245 14.3637 16.8647 20.377 16.154C21.0877 15.0607 22.4133 13.3797 24.354 11.111C26.2947 8.81499 28.208 6.81966 30.094 5.12499C30.914 3.21166 31.5563 1.88599 32.021 1.14799C32.513 0.382658 32.9913 -8.16584e-06 33.456 -8.16584e-06C33.9207 -8.16584e-06 34.3033 0.177659 34.604 0.532992C34.9047 0.888326 35.055 1.35299 35.055 1.92699C35.055 2.47366 34.7407 3.29366 34.112 4.38699C33.5107 5.45299 32.882 7.12033 32.226 9.38899C31.57 11.6303 31.119 13.7487 30.873 15.744C32.2943 15.744 33.497 15.867 34.481 16.113ZM13.571 24.682C15.8397 22.5227 17.548 20.4727 18.696 18.532C14.104 18.8053 10.5507 19.6663 8.036 21.115C5.54867 22.5637 4.305 24.108 4.305 25.748C4.305 26.4587 4.53733 27.019 5.002 27.429C5.494 27.839 6.13633 28.044 6.929 28.044C9.061 28.044 11.275 26.9233 13.571 24.682ZM27.593 15.744C27.7843 14.8147 28.0303 13.653 28.331 12.259C28.659 10.8377 28.8503 10.004 28.905 9.75799C27.593 11.0153 26.6773 11.9447 26.158 12.546C25.6387 13.12 24.723 14.2407 23.411 15.908C23.8757 15.8807 24.436 15.867 25.092 15.867C25.7753 15.8397 26.3357 15.8123 26.773 15.785C27.2103 15.7577 27.4837 15.744 27.593 15.744ZM52.2574 23.78L53.2824 24.682C51.6971 27.2787 50.0161 28.577 48.2394 28.577C47.2281 28.577 46.1894 27.921 45.1234 26.609C44.0847 25.297 43.4561 24.026 43.2374 22.796C43.0734 23.0967 42.6087 23.8893 41.8434 25.174C41.0781 26.4587 40.5314 27.511 40.2034 28.331L37.7434 27.47C38.3174 24.108 39.0144 20.9373 39.8344 17.958C40.6817 14.9787 41.4744 12.8877 42.2124 11.685L43.8934 12.218C43.4014 13.4753 42.5814 16.8237 41.4334 22.263C42.9367 19.1743 44.4537 16.9193 45.9844 15.498C47.5151 14.0493 49.1961 13.0927 51.0274 12.628V15.334C49.0594 15.416 47.1597 16.7417 45.3284 19.311C45.4377 21.0877 45.9571 22.5637 46.8864 23.739C47.8431 24.9143 48.7451 25.502 49.5924 25.502C50.0024 25.502 50.8907 24.928 52.2574 23.78ZM64.7665 18.778C66.2699 18.7233 67.0215 19.3383 67.0215 20.623C67.0215 22.3177 66.1059 23.9987 64.2745 25.666C62.4705 27.306 60.6529 28.126 58.8215 28.126C57.0995 28.126 56.2385 26.9643 56.2385 24.641C56.2385 22.8097 56.6895 20.541 57.5915 17.835C58.5209 15.1017 59.2862 13.1747 59.8875 12.054L61.7325 12.669C61.0219 14.7463 60.2975 17.2883 59.5595 20.295L60.0925 20.049C61.9239 19.2017 63.4819 18.778 64.7665 18.778ZM64.1105 23.001C64.2745 22.6183 64.3565 22.263 64.3565 21.935C64.2745 21.197 63.6322 20.828 62.4295 20.828C61.8555 20.828 60.7895 21.074 59.2315 21.566C59.0129 22.386 58.9035 23.124 58.9035 23.78C58.9035 24.4087 59.0539 24.9143 59.3545 25.297C59.6825 25.6797 60.1062 25.871 60.6255 25.871C61.1722 25.871 61.8145 25.5977 62.5525 25.051C63.2905 24.477 63.8099 23.7937 64.1105 23.001ZM70.9575 22.509L69.7275 27.921L67.3905 27.552C67.9372 24.2447 68.6205 21.1697 69.4405 18.327C70.2879 15.4843 71.0942 13.448 71.8595 12.218L73.8685 12.464C72.8845 15.006 71.9142 18.3543 70.9575 22.509ZM76.4586 24.723L78.5086 23.698C78.5086 24.19 78.6863 24.6137 79.0416 24.969C79.4243 25.3243 79.8616 25.502 80.3536 25.502C82.6769 25.502 85.3283 22.4407 88.3076 16.318C88.4716 15.9627 88.6629 15.5663 88.8816 15.129C89.1003 14.6643 89.2643 14.3227 89.3736 14.104C89.4829 13.858 89.6059 13.5847 89.7426 13.284C89.9066 12.9833 90.0296 12.7647 90.1116 12.628C90.2209 12.464 90.3303 12.3137 90.4396 12.177C90.6856 11.931 90.9589 11.808 91.2596 11.808C91.5876 11.808 91.8746 11.9583 92.1206 12.259C92.3666 12.5597 92.4896 12.915 92.4896 13.325C92.4896 13.7077 91.9703 15.4023 90.9316 18.409C89.9203 21.3883 89.4146 23.1923 89.4146 23.821C89.4146 24.4497 89.5376 24.9143 89.7836 25.215C90.0569 25.5157 90.3166 25.666 90.5626 25.666C90.8359 25.666 91.0409 25.6523 91.1776 25.625C91.3143 25.5977 91.4509 25.543 91.5876 25.461C91.7243 25.379 91.8336 25.3107 91.9156 25.256C92.0249 25.2013 92.1479 25.1057 92.2846 24.969L92.5716 24.641C92.6536 24.5863 92.7629 24.477 92.8996 24.313C93.0636 24.1217 93.1729 23.9987 93.2276 23.944L94.0886 24.641C93.6239 25.789 92.8859 26.7593 91.8746 27.552C90.8906 28.3447 89.9886 28.741 89.1686 28.741C88.3759 28.741 87.7473 28.4677 87.2826 27.921C86.8179 27.347 86.5856 26.609 86.5856 25.707C86.5856 24.805 86.7359 23.6433 87.0366 22.222C85.7793 24.19 84.3989 25.6933 82.8956 26.732C81.3923 27.7433 80.1759 28.249 79.2466 28.249C78.3173 28.249 77.6203 27.9073 77.1556 27.224C76.6909 26.5407 76.4586 25.707 76.4586 24.723ZM102.009 5.37099C102.009 3.89499 102.555 2.76066 103.649 1.96799C104.742 1.17533 106.286 0.778992 108.282 0.778992C110.304 0.751659 111.671 0.901992 112.382 1.22999L112.013 2.95199C111.056 2.81533 110.017 2.74699 108.897 2.74699C106.491 2.74699 105.289 3.74466 105.289 5.73999C105.289 6.28666 106.013 7.89933 107.462 10.578C108.938 13.2567 109.785 14.8693 110.004 15.416C110.25 15.9627 110.455 16.687 110.619 17.589C110.81 18.4637 110.906 19.1197 110.906 19.557C110.906 21.9623 110.154 24.0397 108.651 25.789C107.147 27.511 105.33 28.372 103.198 28.372C101.612 28.372 100.369 27.921 99.4666 27.019C98.592 26.0897 98.1546 24.764 98.1546 23.042C98.1546 21.2927 98.715 19.5707 99.8356 17.876C100.956 16.1813 102.378 14.9103 104.1 14.063L104.633 15.662C102.528 16.974 101.476 18.8327 101.476 21.238C101.476 22.4133 101.763 23.37 102.337 24.108C102.911 24.8187 103.703 25.174 104.715 25.174C105.726 25.174 106.601 24.723 107.339 23.821C108.104 22.919 108.487 21.7847 108.487 20.418C108.487 19.0513 108.295 17.958 107.913 17.138C107.557 16.318 106.874 15.047 105.863 13.325C103.293 8.81499 102.009 6.16366 102.009 5.37099ZM124.931 23.493L125.874 24.231C125.027 25.4063 123.865 26.3903 122.389 27.183C120.913 27.9483 119.478 28.331 118.084 28.331C116.69 28.331 115.57 27.921 114.722 27.101C113.875 26.281 113.451 25.2013 113.451 23.862C113.451 21.3473 114.777 18.8737 117.428 16.441C120.107 14.0083 122.813 12.792 125.546 12.792C127.35 12.792 128.252 13.5027 128.252 14.924C128.252 16.4 127.296 17.8897 125.382 19.393C123.496 20.8963 120.831 22.263 117.387 23.493C117.633 24.1217 118.016 24.6137 118.535 24.969C119.055 25.3243 119.588 25.502 120.134 25.502C121.31 25.502 122.909 24.8323 124.931 23.493ZM117.182 22.263C119.396 21.4977 121.296 20.541 122.881 19.393C124.467 18.245 125.259 17.1927 125.259 16.236C125.259 15.8807 125.123 15.5663 124.849 15.293C124.576 15.0197 124.262 14.883 123.906 14.883C122.622 14.883 121.228 15.6893 119.724 17.302C118.248 18.8873 117.401 20.541 117.182 22.263ZM144.668 23.78L145.693 24.682C144.107 27.2787 142.426 28.577 140.65 28.577C139.638 28.577 138.6 27.921 137.534 26.609C136.495 25.297 135.866 24.026 135.648 22.796C135.484 23.0967 135.019 23.8893 134.254 25.174C133.488 26.4587 132.942 27.511 132.614 28.331L130.154 27.47C130.728 24.108 131.425 20.9373 132.245 17.958C133.092 14.9787 133.885 12.8877 134.623 11.685L136.304 12.218C135.812 13.4753 134.992 16.8237 133.844 22.263C135.347 19.1743 136.864 16.9193 138.395 15.498C139.925 14.0493 141.606 13.0927 143.438 12.628V15.334C141.47 15.416 139.57 16.7417 137.739 19.311C137.848 21.0877 138.367 22.5637 139.297 23.739C140.253 24.9143 141.155 25.502 142.003 25.502C142.413 25.502 143.301 24.928 144.668 23.78ZM187.208 23.821L188.315 24.518C187.96 25.6933 187.358 26.6363 186.511 27.347C185.691 28.0303 184.789 28.372 183.805 28.372C182.821 28.372 181.7 27.7433 180.443 26.486C178.994 27.7433 177.095 28.372 174.744 28.372C172.393 28.372 170.576 27.8117 169.291 26.691C168.006 25.5703 167.364 24.2037 167.364 22.591C167.364 20.951 168.034 19.516 169.373 18.286C170.712 17.0287 172.598 16.0993 175.031 15.498C174.512 14.022 174.252 12.8193 174.252 11.89C174.252 10.4413 174.826 9.23866 175.974 8.28199C177.149 7.29799 178.516 6.80599 180.074 6.80599C181.632 6.80599 182.862 7.16133 183.764 7.87199C184.693 8.55533 185.158 9.45733 185.158 10.578C185.158 12.956 182.848 14.7327 178.229 15.908C179.568 19.188 180.716 21.5387 181.673 22.96C182.302 22.058 183.026 20.377 183.846 17.917H185.158C185.049 18.7097 184.734 19.7347 184.215 20.992C183.723 22.222 183.19 23.2333 182.616 24.026C183.545 25.2013 184.352 25.789 185.035 25.789C185.964 25.789 186.689 25.133 187.208 23.821ZM182.575 10.578C182.575 9.81266 182.343 9.21133 181.878 8.77399C181.413 8.30933 180.771 8.07699 179.951 8.07699C179.158 8.07699 178.475 8.40499 177.901 9.06099C177.327 9.68966 177.04 10.4003 177.04 11.193C177.04 11.9857 177.272 13.1337 177.737 14.637C180.962 13.7897 182.575 12.4367 182.575 10.578ZM171.013 21.566C171.013 22.714 171.423 23.78 172.243 24.764C173.09 25.748 174.361 26.24 176.056 26.24C177.751 26.24 178.953 25.9257 179.664 25.297C178.215 23.083 176.794 20.2267 175.4 16.728C174.143 17.0013 173.09 17.589 172.243 18.491C171.423 19.393 171.013 20.418 171.013 21.566ZM239.985 2.21399L241.83 3.11599C239.998 6.69666 238.099 11.3023 236.131 16.933C237.388 16.933 238.249 16.9877 238.714 17.097L238.55 19.434C237.976 19.6253 236.855 19.721 235.188 19.721C234.614 21.3063 234.272 22.591 234.163 23.575C234.053 24.559 233.958 25.5157 233.876 26.445C233.821 27.3743 233.78 28.003 233.753 28.331H231.457C231.32 27.8663 231.252 27.388 231.252 26.896C231.252 25.2013 231.703 22.8097 232.605 19.721C230.965 19.721 228.477 19.9123 225.143 20.295C225.006 20.7323 224.664 21.5523 224.118 22.755C223.571 23.9303 223.024 24.9553 222.478 25.83C221.958 26.7047 221.248 27.6613 220.346 28.7C219.444 29.7387 218.501 30.6133 217.517 31.324C214.701 33.3467 211.968 34.358 209.317 34.358C208.223 34.358 207.321 34.0163 206.611 33.333C205.9 32.6497 205.545 31.7887 205.545 30.75C205.545 28.126 207.048 25.748 210.055 23.616C213.089 21.4567 217.284 19.7347 222.642 18.45C224.664 12.546 227.507 8.33666 231.17 5.82199C227.206 5.87666 223.94 6.54633 221.371 7.83099C218.801 9.11566 217.517 10.7557 217.517 12.751C217.517 13.3797 217.612 13.9263 217.804 14.391C217.995 14.8283 218.446 15.5253 219.157 16.482L217.763 17.794C216.56 17.0287 215.644 16.0993 215.016 15.006C214.387 13.9127 214.073 12.8603 214.073 11.849C214.073 10.1543 214.975 8.59633 216.779 7.17499C218.583 5.72633 220.824 4.61933 223.503 3.85399C226.181 3.06133 228.901 2.66499 231.662 2.66499C233.056 2.66499 234.012 2.77433 234.532 2.99299C235.078 3.18433 235.352 3.56699 235.352 4.14099C235.352 4.68766 234.955 5.20699 234.163 5.69899C230.746 7.83099 227.999 11.8763 225.922 17.835C227.534 17.5617 230.035 17.261 233.425 16.933C234.737 13.1063 235.789 10.2773 236.582 8.44599C237.402 6.58733 238.536 4.50999 239.985 2.21399ZM212.597 31.529C213.608 31.529 214.783 31.078 216.123 30.176C217.489 29.3013 218.624 28.1533 219.526 26.732C220.455 25.2833 221.248 23.3017 221.904 20.787C218.268 21.3883 215.33 22.4543 213.089 23.985C210.875 25.4883 209.768 27.1967 209.768 29.11C209.768 29.8753 209.986 30.463 210.424 30.873C210.888 31.3103 211.613 31.529 212.597 31.529ZM261.888 24.19L262.831 24.887C262.448 25.707 261.738 26.486 260.699 27.224C259.688 27.962 258.758 28.331 257.911 28.331C256.298 28.331 255.492 27.4837 255.492 25.789C255.492 24.9963 255.697 24.0533 256.107 22.96L254.59 24.518C253.114 26.0213 251.829 27.0327 250.736 27.552C249.67 28.0713 248.618 28.331 247.579 28.331C246.54 28.331 245.748 28.044 245.201 27.47C244.682 26.8687 244.422 26.0487 244.422 25.01C244.422 23.0967 245.16 21.2107 246.636 19.352C248.112 17.466 249.998 15.9353 252.294 14.76C254.59 13.5847 256.886 12.9833 259.182 12.956L259.264 14.309L257.542 14.678C255.055 15.2247 252.854 16.318 250.941 17.958C249.055 19.598 248.112 21.238 248.112 22.878C248.112 24.4907 248.768 25.297 250.08 25.297C251.31 25.297 252.827 24.436 254.631 22.714C256.435 20.992 257.938 18.9693 259.141 16.646L260.863 17.671C259.168 21.0877 258.321 23.2607 258.321 24.19C258.321 24.5727 258.444 24.9007 258.69 25.174C258.963 25.42 259.223 25.543 259.469 25.543C259.742 25.543 259.92 25.5293 260.002 25.502C260.084 25.4747 260.166 25.4473 260.248 25.42C260.33 25.3653 260.426 25.297 260.535 25.215C260.672 25.133 260.781 25.051 260.863 24.969C260.972 24.887 261.136 24.764 261.355 24.6C261.574 24.436 261.751 24.2993 261.888 24.19ZM279.406 14.35C279.406 16.3453 277.574 17.999 273.912 19.311C274.896 19.9123 275.62 20.459 276.085 20.951C276.577 21.4157 276.823 21.9487 276.823 22.55C276.823 24.0807 275.962 25.4337 274.24 26.609C272.518 27.757 270.673 28.331 268.705 28.331C267.748 28.331 266.791 28.1807 265.835 27.88C264.878 27.5793 264.222 27.2103 263.867 26.773L265.425 25.338C265.753 25.666 266.19 25.953 266.737 26.199C267.311 26.445 267.789 26.568 268.172 26.568C269.538 26.568 270.782 26.2263 271.903 25.543C273.051 24.8323 273.625 23.9713 273.625 22.96C273.625 22.4133 273.42 21.9623 273.01 21.607C272.6 21.2243 272.149 20.9647 271.657 20.828C271.192 20.664 270.755 20.4727 270.345 20.254C269.935 20.008 269.73 19.7347 269.73 19.434C269.73 19.1333 270.044 18.86 270.673 18.614C271.329 18.3407 272.053 18.122 272.846 17.958C273.638 17.7667 274.349 17.466 274.978 17.056C275.634 16.6187 275.962 16.1403 275.962 15.621C275.962 15.1017 275.784 14.6917 275.429 14.391C275.073 14.0903 274.622 13.94 274.076 13.94C273.556 13.94 272.736 14.227 271.616 14.801C270.495 15.375 269.361 16.113 268.213 17.015L267.639 15.867C268.623 14.719 269.948 13.7077 271.616 12.833C273.31 11.931 274.663 11.48 275.675 11.48C276.713 11.48 277.588 11.767 278.299 12.341C279.037 12.8877 279.406 13.5573 279.406 14.35ZM297.911 23.534L298.772 24.231C298.307 25.379 297.569 26.3493 296.558 27.142C295.574 27.9347 294.672 28.331 293.852 28.331C293.059 28.331 292.43 28.0577 291.966 27.511C291.501 26.937 291.269 26.199 291.269 25.297C291.269 24.395 291.419 23.2333 291.72 21.812C290.435 23.8347 289.055 25.42 287.579 26.568C286.103 27.716 284.859 28.29 283.848 28.29C282.317 28.29 281.552 27.3743 281.552 25.543C281.552 23.7117 282.18 21.2517 283.438 18.163C284.722 15.047 285.638 13.2703 286.185 12.833L288.153 13.694C287.032 15.498 286.185 17.2747 285.611 19.024C285.037 20.7733 284.75 21.9487 284.75 22.55C284.75 23.124 284.927 23.5887 285.283 23.944C285.665 24.2993 286.103 24.477 286.595 24.477C287.688 24.477 289.041 23.4793 290.654 21.484C292.294 19.4613 293.961 16.4547 295.656 12.464L297.747 13.407C297.692 13.6257 297.063 15.211 295.861 18.163C294.685 21.115 294.098 22.8917 294.098 23.493C294.098 24.067 294.221 24.5043 294.467 24.805C294.74 25.1057 295 25.256 295.246 25.256C295.519 25.256 295.724 25.2423 295.861 25.215C295.997 25.1877 296.134 25.133 296.271 25.051C296.407 24.969 296.517 24.9007 296.599 24.846C296.708 24.7913 296.831 24.6957 296.968 24.559L297.255 24.231C297.337 24.1763 297.446 24.067 297.583 23.903C297.747 23.7117 297.856 23.5887 297.911 23.534ZM316.115 23.78L317.14 24.682C315.554 27.2787 313.873 28.577 312.097 28.577C311.085 28.577 310.047 27.921 308.981 26.609C307.942 25.297 307.313 24.026 307.095 22.796C306.931 23.0967 306.466 23.8893 305.701 25.174C304.935 26.4587 304.389 27.511 304.061 28.331L301.601 27.47C302.175 24.108 302.872 20.9373 303.692 17.958C304.539 14.9787 305.332 12.8877 306.07 11.685L307.751 12.218C307.259 13.4753 306.439 16.8237 305.291 22.263C306.794 19.1743 308.311 16.9193 309.842 15.498C311.372 14.0493 313.053 13.0927 314.885 12.628V15.334C312.917 15.416 311.017 16.7417 309.186 19.311C309.295 21.0877 309.814 22.5637 310.744 23.739C311.7 24.9143 312.602 25.502 313.45 25.502C313.86 25.502 314.748 24.928 316.115 23.78Z" fill="#B81D1B"/>
</svg>
