<svg width="352" height="49" viewBox="0 0 352 49" fill="none" xmlns="http://www.w3.org/2000/svg">
<path d="M21.607 38.6631L19.475 31.6931H8.815L6.683 38.6631H0L10.332 9.26609H17.917L28.29 38.6631H21.607ZM15.867 19.6801C15.7303 19.2154 15.5527 18.6278 15.334 17.9171C15.1153 17.2064 14.8967 16.4821 14.678 15.7441C14.4593 15.0061 14.2817 14.3638 14.145 13.8171C14.0083 14.3638 13.817 15.0471 13.571 15.8671C13.3523 16.6598 13.1337 17.4251 12.915 18.1631C12.7237 18.8738 12.5733 19.3794 12.464 19.6801L10.373 26.4861H17.999L15.867 19.6801ZM51.5546 38.6631H45.4456V20.8691H39.8286C39.5553 24.1491 39.2136 26.9508 38.8036 29.2741C38.421 31.5701 37.929 33.4424 37.3276 34.8911C36.7536 36.3398 36.0156 37.4058 35.1136 38.0891C34.2116 38.7451 33.1046 39.0731 31.7926 39.0731C31.082 39.0731 30.4396 39.0184 29.8656 38.9091C29.2916 38.7998 28.7723 38.6358 28.3076 38.4171V33.5381C28.6083 33.6474 28.9226 33.7431 29.2506 33.8251C29.5786 33.9071 29.9203 33.9481 30.2756 33.9481C30.6583 33.9481 31.0136 33.7978 31.3416 33.4971C31.697 33.1964 32.025 32.6634 32.3256 31.8981C32.6536 31.1328 32.9543 30.0804 33.2276 28.7411C33.501 27.4018 33.747 25.7208 33.9656 23.6981C34.2116 21.6481 34.4303 19.1744 34.6216 16.2771H51.5546V38.6631ZM86.1394 16.2771V38.6631H80.4404V27.6751C80.4404 26.5818 80.4541 25.5158 80.4814 24.4771C80.5361 23.4384 80.6044 22.4818 80.6864 21.6071H80.5634L74.3724 38.6631H69.7804L63.5074 21.5661H63.3434C63.4527 22.4681 63.5211 23.4384 63.5484 24.4771C63.6031 25.4884 63.6304 26.6091 63.6304 27.8391V38.6631H57.9314V16.2771H66.5824L72.1584 31.4471L77.8164 16.2771H86.1394ZM101.709 15.8261C104.716 15.8261 107.012 16.4821 108.597 17.7941C110.21 19.0788 111.016 21.0604 111.016 23.7391V38.6631H106.752L105.563 35.6291H105.399C104.77 36.4218 104.114 37.0778 103.431 37.5971C102.775 38.1164 102.01 38.4854 101.135 38.7041C100.288 38.9501 99.2355 39.0731 97.9781 39.0731C96.6661 39.0731 95.4771 38.8271 94.4111 38.3351C93.3725 37.8158 92.5525 37.0368 91.9511 35.9981C91.3498 34.9321 91.0491 33.5928 91.0491 31.9801C91.0491 29.6021 91.8828 27.8528 93.5501 26.7321C95.2175 25.5841 97.7185 24.9554 101.053 24.8461L104.948 24.7231V23.7391C104.948 22.5638 104.634 21.7028 104.005 21.1561C103.404 20.6094 102.556 20.3361 101.463 20.3361C100.37 20.3361 99.3038 20.5001 98.2651 20.8281C97.2265 21.1288 96.1878 21.5114 95.1491 21.9761L93.1401 17.8351C94.3428 17.2064 95.6685 16.7144 97.1171 16.3591C98.5931 16.0038 100.124 15.8261 101.709 15.8261ZM102.57 28.3721C100.602 28.4268 99.2355 28.7821 98.4701 29.4381C97.7048 30.0941 97.3221 30.9551 97.3221 32.0211C97.3221 32.9504 97.5955 33.6201 98.1421 34.0301C98.6888 34.4128 99.3995 34.6041 100.274 34.6041C101.586 34.6041 102.693 34.2214 103.595 33.4561C104.497 32.6634 104.948 31.5564 104.948 30.1351V28.2901L102.57 28.3721ZM125.428 15.8671C127.041 15.8671 128.544 16.0858 129.938 16.5231C131.36 16.9331 132.494 17.5754 133.341 18.4501C134.216 19.3248 134.653 20.4454 134.653 21.8121C134.653 23.1514 134.243 24.2174 133.423 25.0101C132.631 25.8028 131.551 26.3768 130.184 26.7321V26.9371C131.141 27.1558 132.002 27.4701 132.767 27.8801C133.533 28.2628 134.134 28.7958 134.571 29.4791C135.036 30.1351 135.268 31.0234 135.268 32.1441C135.268 33.3741 134.872 34.5221 134.079 35.5881C133.314 36.6268 132.111 37.4741 130.471 38.1301C128.859 38.7588 126.781 39.0731 124.239 39.0731C123.037 39.0731 121.902 39.0184 120.836 38.9091C119.77 38.7998 118.8 38.6494 117.925 38.4581C117.051 38.2394 116.285 37.9798 115.629 37.6791V32.6361C116.559 33.0734 117.693 33.4698 119.032 33.8251C120.399 34.1804 121.848 34.3581 123.378 34.3581C124.499 34.3581 125.497 34.2761 126.371 34.1121C127.273 33.9481 127.984 33.6748 128.503 33.2921C129.05 32.9094 129.323 32.4038 129.323 31.7751C129.323 31.1738 129.091 30.6818 128.626 30.2991C128.162 29.8891 127.465 29.5884 126.535 29.3971C125.606 29.2058 124.417 29.1101 122.968 29.1101H120.59V24.8871H122.845C124.868 24.8871 126.426 24.7231 127.519 24.3951C128.64 24.0671 129.2 23.4521 129.2 22.5501C129.2 21.8394 128.845 21.3064 128.134 20.9511C127.424 20.5684 126.262 20.3771 124.649 20.3771C123.583 20.3771 122.422 20.5001 121.164 20.7461C119.907 20.9921 118.718 21.3474 117.597 21.8121L115.793 17.5481C117.078 17.0561 118.486 16.6598 120.016 16.3591C121.547 16.0311 123.351 15.8671 125.428 15.8671ZM169.018 43.5421C168.498 43.5421 168.047 43.2551 167.665 42.6811C167.282 42.1344 167.104 41.3281 167.132 40.2621C167.132 40.0434 167.159 39.7564 167.214 39.4011C165.519 39.3464 163.934 38.9501 162.458 38.2121C160.982 37.4468 159.793 36.4491 158.891 35.2191C157.989 33.9891 157.538 32.6634 157.538 31.2421C157.538 30.2581 157.907 29.3424 158.645 28.4951C159.383 27.6204 160.367 26.8278 161.597 26.1171C162.827 25.3791 164.18 24.7231 165.656 24.1491C164.754 23.5478 164.002 22.8781 163.401 22.1401C162.827 21.3748 162.54 20.5411 162.54 19.6391C162.54 18.7098 162.868 17.7531 163.524 16.7691C164.18 15.7851 165.054 14.8284 166.148 13.8991C167.241 12.9424 168.471 12.0541 169.838 11.2341C171.232 10.4141 172.639 9.68975 174.061 9.06108C174.389 7.83108 174.703 6.66942 175.004 5.57608C175.332 4.45542 175.646 3.40308 175.947 2.41908C176.138 1.76308 176.452 1.20275 176.89 0.738083C177.327 0.246084 177.846 8.5175e-05 178.448 8.5175e-05C178.967 8.5175e-05 179.363 0.232418 179.637 0.697084C179.91 1.16175 180.033 1.70842 180.006 2.33708C179.978 2.61042 179.883 3.19808 179.719 4.10008C179.555 4.97475 179.322 6.06808 179.022 7.38009C180.06 7.16142 180.99 7.05208 181.81 7.05208C183.395 7.05208 184.543 7.32542 185.254 7.87208C185.964 8.39142 186.32 9.14308 186.32 10.1271C186.32 10.6464 186.142 11.1111 185.787 11.5211C185.459 11.9038 184.734 12.2044 183.614 12.4231C182.63 12.5871 181.618 12.7784 180.58 12.9971C179.568 13.1884 178.571 13.4071 177.587 13.6531C177.313 14.8831 177.013 16.1678 176.685 17.5071C176.384 18.8191 176.07 20.1721 175.742 21.5661C176.917 21.4021 177.915 21.3201 178.735 21.3201C179.719 21.3201 180.634 21.4841 181.482 21.8121C182.329 22.1401 182.753 22.7278 182.753 23.5751C182.753 24.0398 182.534 24.5318 182.097 25.0511C181.659 25.5431 180.839 25.9668 179.637 26.3221C178.461 26.6774 176.753 26.8688 174.512 26.8961C174.266 27.9894 174.006 29.0828 173.733 30.1761C173.487 31.2421 173.254 32.3081 173.036 33.3741C174.894 33.0461 176.589 32.6361 178.12 32.1441C179.678 31.6248 181.031 31.1054 182.179 30.5861C183.354 30.0668 184.311 29.6431 185.049 29.3151C185.787 28.9598 186.279 28.7821 186.525 28.7821C186.989 28.7821 187.372 28.9461 187.673 29.2741C187.973 29.5748 188.124 29.9574 188.124 30.4221C188.124 30.8321 187.782 31.4608 187.099 32.3081C186.415 33.1281 185.39 34.0164 184.024 34.9731C182.684 35.9024 180.976 36.7634 178.899 37.5561C176.849 38.3214 174.457 38.8544 171.724 39.1551C171.614 39.6744 171.505 40.1801 171.396 40.6721C171.122 41.7654 170.781 42.5171 170.371 42.9271C169.961 43.3371 169.51 43.5421 169.018 43.5421ZM168.239 33.8661C168.649 31.7888 169.141 29.4654 169.715 26.8961C168.539 27.3061 167.391 27.7571 166.271 28.2491C165.177 28.7411 164.275 29.3151 163.565 29.9711C162.854 30.6271 162.499 31.4198 162.499 32.3491C162.499 32.7318 162.717 33.0461 163.155 33.2921C163.592 33.5108 164.152 33.6748 164.836 33.7841C165.519 33.8661 166.23 33.9071 166.968 33.9071C167.378 33.9071 167.801 33.8934 168.239 33.8661ZM170.74 22.5501C171.013 21.3474 171.286 20.1311 171.56 18.9011C171.86 17.6711 172.161 16.4548 172.462 15.2521C171.013 15.8261 169.824 16.4684 168.895 17.1791C167.965 17.8624 167.501 18.6141 167.501 19.4341C167.501 20.0354 167.788 20.6094 168.362 21.1561C168.936 21.7028 169.66 22.1811 170.535 22.5911C170.589 22.5911 170.658 22.5774 170.74 22.5501ZM231.225 9.38908V14.5141H218.925V38.6631H212.734V9.38908H231.225ZM230.385 16.2771H237.068L241.291 28.8641C241.427 29.2741 241.537 29.6841 241.619 30.0941C241.728 30.5041 241.81 30.9278 241.865 31.3651C241.947 31.8024 242.001 32.2671 242.029 32.7591H242.152C242.234 32.0484 242.343 31.3788 242.48 30.7501C242.644 30.0941 242.821 29.4654 243.013 28.8641L247.154 16.2771H253.714L244.243 41.5331C243.669 43.0638 242.917 44.3484 241.988 45.3871C241.086 46.4258 240.033 47.2048 238.831 47.7241C237.628 48.2434 236.316 48.5031 234.895 48.5031C234.211 48.5031 233.61 48.4621 233.091 48.3801C232.599 48.3254 232.161 48.2571 231.779 48.1751V43.3371C232.079 43.3918 232.435 43.4464 232.845 43.5011C233.282 43.5558 233.733 43.5831 234.198 43.5831C235.045 43.5831 235.769 43.4054 236.371 43.0501C236.999 42.6948 237.519 42.2028 237.929 41.5741C238.339 40.9728 238.667 40.3168 238.913 39.6061L239.282 38.4991L230.385 16.2771ZM265.085 15.8671C266.697 15.8671 268.201 16.0858 269.595 16.5231C271.016 16.9331 272.15 17.5754 272.998 18.4501C273.872 19.3248 274.31 20.4454 274.31 21.8121C274.31 23.1514 273.9 24.2174 273.08 25.0101C272.287 25.8028 271.207 26.3768 269.841 26.7321V26.9371C270.797 27.1558 271.658 27.4701 272.424 27.8801C273.189 28.2628 273.79 28.7958 274.228 29.4791C274.692 30.1351 274.925 31.0234 274.925 32.1441C274.925 33.3741 274.528 34.5221 273.736 35.5881C272.97 36.6268 271.768 37.4741 270.128 38.1301C268.515 38.7588 266.438 39.0731 263.896 39.0731C262.693 39.0731 261.559 39.0184 260.493 38.9091C259.427 38.7998 258.456 38.6494 257.582 38.4581C256.707 38.2394 255.942 37.9798 255.286 37.6791V32.6361C256.215 33.0734 257.349 33.4698 258.689 33.8251C260.055 34.1804 261.504 34.3581 263.035 34.3581C264.155 34.3581 265.153 34.2761 266.028 34.1121C266.93 33.9481 267.64 33.6748 268.16 33.2921C268.706 32.9094 268.98 32.4038 268.98 31.7751C268.98 31.1738 268.747 30.6818 268.283 30.2991C267.818 29.8891 267.121 29.5884 266.192 29.3971C265.262 29.2058 264.073 29.1101 262.625 29.1101H260.247V24.8871H262.502C264.524 24.8871 266.082 24.7231 267.176 24.3951C268.296 24.0671 268.857 23.4521 268.857 22.5501C268.857 21.8394 268.501 21.3064 267.791 20.9511C267.08 20.5684 265.918 20.3771 264.306 20.3771C263.24 20.3771 262.078 20.5001 260.821 20.7461C259.563 20.9921 258.374 21.3474 257.254 21.8121L255.45 17.5481C256.734 17.0561 258.142 16.6598 259.673 16.3591C261.203 16.0311 263.007 15.8671 265.085 15.8671ZM288.852 15.8261C291.858 15.8261 294.154 16.4821 295.74 17.7941C297.352 19.0788 298.159 21.0604 298.159 23.7391V38.6631H293.895L292.706 35.6291H292.542C291.913 36.4218 291.257 37.0778 290.574 37.5971C289.918 38.1164 289.152 38.4854 288.278 38.7041C287.43 38.9501 286.378 39.0731 285.121 39.0731C283.809 39.0731 282.62 38.8271 281.554 38.3351C280.515 37.8158 279.695 37.0368 279.094 35.9981C278.492 34.9321 278.192 33.5928 278.192 31.9801C278.192 29.6021 279.025 27.8528 280.693 26.7321C282.36 25.5841 284.861 24.9554 288.196 24.8461L292.091 24.7231V23.7391C292.091 22.5638 291.776 21.7028 291.148 21.1561C290.546 20.6094 289.699 20.3361 288.606 20.3361C287.512 20.3361 286.446 20.5001 285.408 20.8281C284.369 21.1288 283.33 21.5114 282.292 21.9761L280.283 17.8351C281.485 17.2064 282.811 16.7144 284.26 16.3591C285.736 16.0038 287.266 15.8261 288.852 15.8261ZM289.713 28.3721C287.745 28.4268 286.378 28.7821 285.613 29.4381C284.847 30.0941 284.465 30.9551 284.465 32.0211C284.465 32.9504 284.738 33.6201 285.285 34.0301C285.831 34.4128 286.542 34.6041 287.417 34.6041C288.729 34.6041 289.836 34.2214 290.738 33.4561C291.64 32.6634 292.091 31.5564 292.091 30.1351V28.2901L289.713 28.3721ZM324.461 38.6631H318.352V20.8691H312.735C312.462 24.1491 312.12 26.9508 311.71 29.2741C311.327 31.5701 310.835 33.4424 310.234 34.8911C309.66 36.3398 308.922 37.4058 308.02 38.0891C307.118 38.7451 306.011 39.0731 304.699 39.0731C303.988 39.0731 303.346 39.0184 302.772 38.9091C302.198 38.7998 301.679 38.6358 301.214 38.4171V33.5381C301.515 33.6474 301.829 33.7431 302.157 33.8251C302.485 33.9071 302.827 33.9481 303.182 33.9481C303.565 33.9481 303.92 33.7978 304.248 33.4971C304.603 33.1964 304.931 32.6634 305.232 31.8981C305.56 31.1328 305.861 30.0804 306.134 28.7411C306.407 27.4018 306.653 25.7208 306.872 23.6981C307.118 21.6481 307.337 19.1744 307.528 16.2771H324.461V38.6631ZM341.252 24.9281C343.548 24.9281 345.447 25.1741 346.951 25.6661C348.454 26.1308 349.561 26.8551 350.272 27.8391C351.01 28.8231 351.379 30.0531 351.379 31.5291C351.379 32.9778 351.037 34.2351 350.354 35.3011C349.698 36.3671 348.645 37.2008 347.197 37.8021C345.748 38.3761 343.848 38.6631 341.498 38.6631H330.838V16.2771H336.947V24.9281H341.252ZM345.27 31.6111C345.27 30.7364 344.914 30.1078 344.204 29.7251C343.52 29.3424 342.495 29.1511 341.129 29.1511H336.947V34.4401H341.211C342.413 34.4401 343.384 34.2214 344.122 33.7841C344.887 33.3468 345.27 32.6224 345.27 31.6111Z" fill="white"/>
</svg>
