<svg width="489" height="72" viewBox="0 0 489 72" fill="none" xmlns="http://www.w3.org/2000/svg">
<path d="M50.16 57.36C50.1067 57.68 49.7867 57.76 49.2 57.6C48.6667 57.4934 48.1867 57.12 47.76 56.48C47.3333 55.4667 47.12 54.5334 47.12 53.68C47.12 52.8267 47.1467 51.5467 47.2 49.84C47.52 47.9734 47.9467 45.5467 48.48 42.56C49.0667 39.52 49.7333 36.1334 50.48 32.4C51.28 28.6134 52.1333 24.6667 53.04 20.56C53.68 18.4267 54.1867 16.48 54.56 14.72C54.9867 12.9067 55.3067 11.44 55.52 10.32C55.7333 9.20002 55.84 8.64002 55.84 8.64002C55.84 8.48002 55.68 8.56002 55.36 8.88002C55.0933 9.14668 54.8267 9.46668 54.56 9.84002C54.2933 10.2134 54.1867 10.5067 54.24 10.72C54.24 10.72 54.0533 10.9867 53.68 11.52C53.3067 12.0533 52.8267 12.7733 52.24 13.68C51.7067 14.2134 51.0667 15.28 50.32 16.88C49.5733 18.48 48.7467 19.9734 47.84 21.36C46.9867 22.96 46.08 24.6934 45.12 26.56C44.16 28.3734 43.3067 29.8934 42.56 31.12C42.08 31.8134 41.6 32.6134 41.12 33.52C40.64 34.4267 40.3467 35.0134 40.24 35.28C40.0267 35.8667 39.6533 36.5867 39.12 37.44C38.5867 38.24 38 39.04 37.36 39.84C37.04 40.32 36.72 40.8267 36.4 41.36C36.08 41.84 35.8133 42.2667 35.6 42.64C35.44 42.96 35.36 43.12 35.36 43.12C35.36 43.28 35.0933 43.76 34.56 44.56C34.08 45.36 33.4667 46.24 32.72 47.2C32.0267 48.16 31.36 48.9867 30.72 49.68C28.8533 51.6534 27.36 52.8267 26.24 53.2C25.12 53.52 23.8667 53.04 22.48 51.76C21.7867 50.9067 21.28 49.9467 20.96 48.88C20.64 47.76 20.5067 46.4 20.56 44.8C20.6133 43.1467 20.8 41.0934 21.12 38.64C21.4933 36.7734 21.84 34.9067 22.16 33.04C22.48 31.12 22.7733 29.3334 23.04 27.68C23.36 25.9734 23.6267 24.5334 23.84 23.36C24.1067 22.1867 24.32 21.4134 24.48 21.04C24.5867 19.9734 24.56 19.3867 24.4 19.28C24.24 19.1734 23.92 19.4934 23.44 20.24C23.2267 20.6134 22.6667 21.5467 21.76 23.04C20.8533 24.48 19.7867 26.2667 18.56 28.4C17.3867 30.5334 16.2133 32.8534 15.04 35.36C12.8533 39.4134 11.04 42.7734 9.6 45.44C8.21333 48.0534 7.09333 50.1334 6.24 51.68C5.44 53.2267 4.85333 54.3734 4.48 55.12C4.10667 55.8667 3.84 56.3734 3.68 56.64C3.52 56.9067 3.38667 57.0934 3.28 57.2C2.8 57.2 2.29333 56.9867 1.76 56.56C1.28 56.1867 0.773332 55.7334 0.239999 55.2C0.0799989 54.8267 -1.07288e-06 54.4534 -1.07288e-06 54.08C0.0533322 53.7067 0.239999 53.1734 0.559999 52.48C0.879999 51.7334 1.36 50.6134 2 49.12C2.69333 47.7334 3.33333 46.5334 3.92 45.52C4.50667 44.4534 4.96 43.8134 5.28 43.6C5.54667 43.1734 5.78667 42.7467 6 42.32C6.21333 41.8934 6.34667 41.3867 6.4 40.8C6.66667 40.48 7.06667 39.84 7.6 38.88C8.18667 37.8667 8.77333 36.7734 9.36 35.6C9.78667 34.9067 10.32 34 10.96 32.88C11.6533 31.76 12.3733 30.5334 13.12 29.2C13.8667 27.8134 14.5333 26.5067 15.12 25.28C17.5733 21.0667 19.6533 17.52 21.36 14.64C23.0667 11.7067 24.3467 9.84002 25.2 9.04002C25.4667 8.77335 25.7333 8.40002 26 7.92002C26.32 7.44002 26.48 7.01335 26.48 6.64002C26.48 5.52002 26.6933 4.50668 27.12 3.60002C27.6 2.64002 28.08 2.21335 28.56 2.32002C29.0933 2.32002 29.5733 2.37335 30 2.48002C30.4267 2.58668 30.88 2.93335 31.36 3.52002C31.7867 4.16002 32.16 4.80002 32.48 5.44002C32.8 6.08002 32.7733 7.36002 32.4 9.28002C32.4 10.0267 32.32 10.88 32.16 11.84C32 12.7467 31.84 13.6 31.68 14.4C31.5733 15.1467 31.4933 15.7334 31.44 16.16C30.7467 18.24 30.1067 20.5867 29.52 23.2C28.9333 25.76 28.4 28.3734 27.92 31.04C27.44 33.6534 27.04 36.1067 26.72 38.4C26.4 40.64 26.1867 42.5067 26.08 44C26.0267 45.44 26.08 46.2667 26.24 46.48C26.6133 46.6934 26.9333 46.72 27.2 46.56C27.4667 46.4 27.92 45.7067 28.56 44.48C28.9333 43.84 29.44 43.0667 30.08 42.16C30.7733 41.2 31.44 40.32 32.08 39.52C32.5067 38.7734 33.1733 37.6534 34.08 36.16C34.9867 34.6667 36.1333 32.7467 37.52 30.4C38.96 28.0534 40.6667 25.2 42.64 21.84C44.6667 18.4267 46.96 14.48 49.52 10C50.7467 8.13335 51.8933 6.32002 52.96 4.56002C54.08 2.74668 54.9867 1.57335 55.68 1.04002C56.4267 0.346684 57.2 0.186683 58 0.560015C58.8 0.880017 59.4933 1.57335 60.08 2.64002C60.72 3.70668 61.0667 5.04002 61.12 6.64002C61.1733 7.38668 61.0667 8.58668 60.8 10.24C60.5867 11.8933 60.24 13.7867 59.76 15.92C59.28 18 58.6667 20.16 57.92 22.4C57.76 23.3067 57.4933 24.4534 57.12 25.84C56.8 27.1734 56.4267 28.56 56 30C55.5733 31.44 55.1467 32.8 54.72 34.08C54.4533 35.84 54.1333 37.5734 53.76 39.28C53.44 40.9867 53.3333 42.1334 53.44 42.72C52.96 43.5734 52.64 44.8 52.48 46.4C52.32 48 52.24 49.6534 52.24 51.36C52.0267 53.44 51.8667 54.9067 51.76 55.76C51.6533 56.6134 51.4667 57.0134 51.2 56.96C50.5067 56.7467 50.16 56.88 50.16 57.36ZM76.9381 50.72C75.8181 51.68 74.5115 52.24 73.0181 52.4C71.5781 52.56 70.1648 52.3467 68.7781 51.76C67.3915 51.12 66.2448 50.16 65.3381 48.88C64.4315 47.7067 63.8448 46.3734 63.5781 44.88C63.3115 43.3334 63.2848 41.3334 63.4981 38.88C63.6581 36.8 64.3248 34.72 65.4981 32.64C66.6715 30.5067 68.0848 28.6134 69.7381 26.96C71.4448 25.3067 73.1248 24.16 74.7781 23.52C75.5781 22.9867 76.2448 22.7467 76.7781 22.8C77.3648 22.8 78.2448 22.8534 79.4181 22.96C80.6448 23.12 81.5515 23.36 82.1381 23.68C82.7781 24 83.2848 24.4267 83.6581 24.96C84.4581 25.76 84.9915 26.56 85.2581 27.36C85.5248 28.1067 85.6581 28.8534 85.6581 29.6C85.4448 30.7734 84.6448 32.2134 83.2581 33.92C81.9248 35.5734 80.1648 36.9334 77.9781 38C76.8048 38.3734 75.5248 38.5334 74.1381 38.48C72.7515 38.4267 71.6048 38.08 70.6981 37.44C69.6848 37.0134 69.0181 37.0934 68.6981 37.68C68.3781 38.2134 68.0848 39.5467 67.8181 41.68C67.6048 43.7067 67.7648 45.2 68.2981 46.16C68.8315 47.0667 69.5515 47.6 70.4581 47.76C71.5248 47.9734 72.3515 48.1334 72.9381 48.24C73.5781 48.2934 74.3515 48.0534 75.2581 47.52C76.1115 46.9867 76.6448 46.6934 76.8581 46.64C77.0715 46.5334 77.2315 46.4267 77.3381 46.32C77.4981 46.16 77.8448 45.8134 78.3781 45.28C78.7515 44.9067 79.0448 44.64 79.2581 44.48C79.4715 44.2667 79.7115 44.16 79.9781 44.16C80.2448 44.16 80.4848 44.2934 80.6981 44.56C80.9115 44.7734 81.1248 44.9334 81.3381 45.04C81.8715 45.04 81.9781 45.36 81.6581 46C81.3915 46.64 80.8315 47.4134 79.9781 48.32C79.1248 49.1734 78.1115 49.9734 76.9381 50.72ZM76.8581 33.76C77.4448 33.4934 78.0581 33.12 78.6981 32.64C79.3381 32.1067 79.8715 31.5467 80.2981 30.96C80.7781 30.32 81.0181 29.7867 81.0181 29.36C81.0181 28.6134 80.6715 28 79.9781 27.52C79.2848 26.9867 78.2448 26.9067 76.8581 27.28C76.2715 27.44 75.6048 27.84 74.8581 28.48C74.1115 29.0667 73.3915 29.7334 72.6981 30.48C72.0581 31.2267 71.5248 31.8934 71.0981 32.48C70.7248 33.0667 70.5915 33.4134 70.6981 33.52C70.8581 33.7867 71.3115 34 72.0581 34.16C72.8048 34.2667 73.6315 34.2934 74.5381 34.24C75.4981 34.1867 76.2715 34.0267 76.8581 33.76ZM97.5937 52.64C96.0471 52.9067 94.6337 52.8267 93.3537 52.4C92.0737 51.92 91.0337 51.1467 90.2337 50.08C89.4871 48.96 89.1137 47.5467 89.1137 45.84C88.9537 44.24 89.1404 42.4 89.6737 40.32C90.2071 38.1867 90.9804 36.0534 91.9937 33.92C93.0604 31.7867 94.2071 29.9467 95.4337 28.4C96.5004 27.12 97.5671 25.9467 98.6338 24.88C99.7004 23.8134 100.66 23.0934 101.514 22.72C102.26 22.4 102.954 22.2134 103.594 22.16C104.287 22.0534 104.847 22 105.274 22C106.127 22.2134 107.034 22.6134 107.994 23.2C109.007 23.7334 109.514 24.32 109.514 24.96C109.514 24.96 109.567 25.04 109.674 25.2C109.834 25.3067 109.914 25.36 109.914 25.36C110.234 25.36 110.5 25.7067 110.714 26.4C110.98 27.0934 111.14 27.8934 111.194 28.8C111.247 29.6534 111.114 30.3734 110.794 30.96C110.58 31.9734 110.207 32.8534 109.674 33.6C109.14 34.3467 108.66 34.72 108.234 34.72C108.02 34.72 107.807 34.7467 107.594 34.8C107.434 34.8 107.354 34.9334 107.354 35.2C107.354 35.4667 107.194 35.5734 106.874 35.52C106.607 35.4667 106.314 35.3067 105.994 35.04C105.674 34.72 105.434 34.3467 105.274 33.92C105.274 33.6534 105.38 33.2 105.594 32.56C105.807 31.92 106.02 31.0934 106.234 30.08C106.554 28.5867 106.527 27.6267 106.154 27.2C105.78 26.72 105.06 26.6934 103.994 27.12C102.66 27.8667 101.38 28.9067 100.154 30.24C98.9804 31.5734 97.8871 33.3067 96.8737 35.44C95.8604 37.52 94.9537 40.1334 94.1537 43.28C93.8337 44.5067 93.7004 45.5734 93.7537 46.48C93.8604 47.3867 93.9937 47.8667 94.1537 47.92C94.9004 48.1334 95.9137 48.1867 97.1937 48.08C98.4737 47.92 99.4071 47.68 99.9937 47.36C100.847 46.9334 101.807 46.3734 102.874 45.68C103.94 44.9334 104.874 44.2667 105.674 43.68C105.94 43.52 106.26 43.2534 106.634 42.88C107.007 42.5067 107.407 42.2134 107.834 42C108.26 41.36 108.634 40.9867 108.954 40.88C109.274 40.7734 109.754 40.72 110.394 40.72C110.82 40.8267 111.22 40.9867 111.594 41.2C111.967 41.4134 112.207 41.6267 112.314 41.84C112.474 42.0534 112.394 42.24 112.074 42.4C111.86 42.4 111.727 42.48 111.674 42.64C111.674 42.7467 111.674 42.8 111.674 42.8C111.78 43.0134 111.54 43.4667 110.954 44.16C110.42 44.8 109.727 45.52 108.874 46.32C108.02 47.12 107.194 47.8134 106.394 48.4C105.647 48.9334 105.114 49.2 104.794 49.2C104.26 49.2 103.994 49.36 103.994 49.68C103.994 49.7867 103.594 50.0534 102.794 50.48C102.047 50.9067 101.167 51.3334 100.154 51.76C99.1937 52.1867 98.3404 52.48 97.5937 52.64ZM119.551 50.56C119.391 50.3467 119.231 50.08 119.071 49.76C118.965 49.44 118.911 49.1734 118.911 48.96C118.911 48.8534 118.885 48.72 118.831 48.56C118.831 48.4 118.725 48.32 118.511 48.32C118.351 48.16 118.458 47.5467 118.831 46.48C119.258 45.36 119.791 44.08 120.431 42.64C121.125 41.2 121.818 39.8134 122.511 38.48C123.258 37.0934 123.871 36 124.351 35.2C124.618 35.04 124.778 34.8267 124.831 34.56C124.938 34.24 124.938 34.08 124.831 34.08C124.831 34.08 124.965 33.84 125.231 33.36C125.551 32.8267 125.791 32.48 125.951 32.32C126.378 31.5734 126.698 30.8267 126.911 30.08C127.125 29.28 127.178 28.6134 127.071 28.08C126.858 27.8134 126.618 27.7334 126.351 27.84C126.085 27.9467 125.951 28 125.951 28C125.738 28.0534 125.418 28.16 124.991 28.32C124.618 28.4267 124.271 28.5867 123.951 28.8C122.725 29.6534 121.898 30.0534 121.471 30C121.045 29.8934 120.565 29.2 120.031 27.92C119.818 27.3334 119.738 26.9067 119.791 26.64C119.845 26.3734 120.058 26.08 120.431 25.76C120.858 25.3867 121.258 25.1467 121.631 25.04C122.005 24.88 122.298 24.72 122.511 24.56C123.098 24.1867 123.578 23.92 123.951 23.76C124.378 23.6 124.698 23.4934 124.911 23.44C126.298 23.0134 127.471 22.9334 128.431 23.2C129.391 23.4667 130.111 24.16 130.591 25.28C131.338 26.1867 131.711 27.2267 131.711 28.4C131.711 29.52 131.338 30.8267 130.591 32.32L129.791 33.52C129.525 34.0534 129.471 34.32 129.631 34.32C129.845 34.32 130.085 34.1334 130.351 33.76C130.511 33.5467 130.831 33.2267 131.311 32.8C131.791 32.3734 132.111 32.16 132.271 32.16C132.271 32.16 132.325 32.1334 132.431 32.08C132.591 32.0267 132.671 31.8134 132.671 31.44C132.831 31.28 132.991 31.12 133.151 30.96C133.365 30.8 133.471 30.72 133.471 30.72C133.685 30.72 134.085 30.48 134.671 30C135.311 29.4667 136.058 28.8534 136.911 28.16C137.498 27.7334 138.031 27.52 138.511 27.52C139.738 27.1467 140.725 27.5467 141.471 28.72C142.271 29.8934 142.671 31.4134 142.671 33.28L140.991 37.6L143.871 34.08C144.191 33.6534 144.511 33.28 144.831 32.96C145.205 32.64 145.525 32.3734 145.791 32.16C145.898 31.7867 146.058 31.5734 146.271 31.52C146.485 31.4667 146.591 31.44 146.591 31.44C146.591 31.44 146.645 31.44 146.751 31.44C146.858 31.3867 146.911 31.28 146.911 31.12C147.178 30.9067 147.471 30.72 147.791 30.56C148.111 30.3467 148.325 30.1334 148.431 29.92C149.338 29.5467 150.165 29.4934 150.911 29.76C151.658 29.9734 152.298 30.64 152.831 31.76C153.205 32.4 153.418 32.96 153.471 33.44C153.525 33.92 153.551 34.64 153.551 35.6C153.445 36.4 153.338 37.04 153.231 37.52C153.178 37.9467 153.125 38.4 153.071 38.88C153.018 39.36 152.938 40.0267 152.831 40.88C152.618 41.3067 152.485 41.76 152.431 42.24C152.431 42.72 152.431 43.1734 152.431 43.6C152.431 44.2934 152.458 44.7734 152.511 45.04C152.565 45.2534 152.778 45.36 153.151 45.36C153.898 45.2 154.911 44.8267 156.191 44.24C157.525 43.6 158.511 42.9867 159.151 42.4C159.951 41.6534 160.645 41.28 161.231 41.28C161.871 41.2267 162.271 41.52 162.431 42.16C162.538 42.3734 162.351 42.8534 161.871 43.6C161.445 44.3467 160.938 45.0667 160.351 45.76C159.818 46.4534 159.418 46.8 159.151 46.8C158.991 46.8 158.805 46.96 158.591 47.28C158.378 47.5467 158.138 47.76 157.871 47.92C157.498 48.2934 157.125 48.64 156.751 48.96C156.431 49.28 156.058 49.44 155.631 49.44C155.418 49.44 155.151 49.52 154.831 49.68C154.565 49.7867 154.245 49.84 153.871 49.84C153.338 50 152.511 49.92 151.391 49.6C150.325 49.28 149.631 48.5334 149.311 47.36C149.098 46.7734 148.911 45.84 148.751 44.56C148.591 43.2267 148.618 41.8934 148.831 40.56C149.045 39.6 149.178 38.72 149.231 37.92C149.285 37.12 149.391 36.56 149.551 36.24C149.551 36.08 149.551 35.7067 149.551 35.12C149.551 34.48 149.471 34.16 149.311 34.16C149.098 34.16 148.591 34.56 147.791 35.36C147.045 36.1067 146.138 37.0667 145.071 38.24C144.058 39.4134 143.045 40.64 142.031 41.92C141.018 43.2 140.191 44.3467 139.551 45.36C139.071 45.9467 138.645 46.6667 138.271 47.52C137.898 48.3734 137.631 48.8534 137.471 48.96C137.098 49.3867 136.645 49.44 136.111 49.12C135.631 48.8 135.178 48.2934 134.751 47.6C134.591 47.28 134.485 47.0134 134.431 46.8C134.378 46.5334 134.378 46.1867 134.431 45.76C134.538 45.28 134.725 44.5867 134.991 43.68C135.311 42.7734 135.738 41.4934 136.271 39.84C136.858 38.0267 137.365 36.4 137.791 34.96C138.271 33.4667 138.511 32.72 138.511 32.72C138.511 32.5067 138.111 32.72 137.311 33.36C136.511 33.9467 135.578 34.6934 134.511 35.6C134.031 36.1867 133.231 37.0667 132.111 38.24C130.991 39.4134 129.765 40.7467 128.431 42.24C127.098 43.7334 125.818 45.3067 124.591 46.96C123.045 49.1467 121.951 50.48 121.311 50.96C120.725 51.44 120.138 51.3067 119.551 50.56ZM174.696 50.48C173.576 50.6934 172.856 50.7734 172.536 50.72C172.269 50.6134 171.842 50.2934 171.256 49.76C170.402 49.3334 169.682 48.8 169.096 48.16C168.562 47.52 168.162 46.8534 167.896 46.16C167.682 45.4134 167.602 44.8 167.656 44.32C167.816 42.4534 168.269 40.4534 169.016 38.32C169.762 36.1867 170.669 34.1334 171.736 32.16C172.802 30.1867 173.949 28.5067 175.176 27.12C176.456 25.68 177.682 24.7467 178.856 24.32C179.922 23.8934 180.936 23.7334 181.896 23.84C182.856 23.9467 183.549 24.4534 183.976 25.36C184.776 26.9067 184.589 27.8934 183.416 28.32C183.256 28.32 183.069 28.4 182.856 28.56C182.642 28.6667 182.536 28.8267 182.536 29.04C182.749 29.1467 183.336 29.1734 184.296 29.12C185.256 29.0134 186.216 28.8534 187.176 28.64C188.189 28.3734 188.856 28.1067 189.176 27.84C189.496 27.68 189.736 27.6 189.896 27.6C190.056 27.6 190.456 27.6534 191.096 27.76C192.002 28.0267 192.456 28.3467 192.456 28.72C192.456 28.9334 192.536 29.1467 192.696 29.36C192.856 29.52 193.042 29.6 193.256 29.6C193.629 29.6534 193.576 29.8934 193.096 30.32C192.669 30.7467 191.922 31.3334 190.856 32.08C189.842 32.72 189.202 33.1467 188.936 33.36C188.722 33.52 188.696 33.8934 188.856 34.48C189.282 35.4934 189.309 36.6667 188.936 38C188.562 39.3334 187.896 40.6934 186.936 42.08C185.976 43.4667 184.802 44.7734 183.416 46C182.082 47.1734 180.642 48.1867 179.096 49.04C177.602 49.84 176.136 50.32 174.696 50.48ZM173.336 46.96C173.549 46.96 173.922 46.8534 174.456 46.64C174.989 46.3734 175.416 46.16 175.736 46C175.949 45.7867 176.216 45.5467 176.536 45.28C176.909 44.96 177.202 44.7734 177.416 44.72C177.629 44.72 177.896 44.64 178.216 44.48C178.536 44.2667 178.989 43.8667 179.576 43.28C180.162 42.64 180.936 41.7067 181.896 40.48C182.962 39.3067 183.789 38.24 184.376 37.28C184.962 36.2667 185.122 35.3334 184.856 34.48C184.802 34.2667 184.642 34.1334 184.376 34.08C184.162 34.0267 183.869 33.8934 183.496 33.68C182.962 33.68 182.456 33.5467 181.976 33.28C181.549 32.96 181.042 32.56 180.456 32.08L179.176 30.48L177.816 31.84C176.962 32.6934 176.056 33.9734 175.096 35.68C174.189 37.3334 173.416 39.04 172.776 40.8C172.136 42.5067 171.762 43.8667 171.656 44.88C171.602 45.68 171.736 46.2134 172.056 46.48C172.376 46.7467 172.802 46.9067 173.336 46.96ZM216.274 52.88C215.634 52.72 215.127 52.3734 214.754 51.84C214.434 51.3067 214.034 50.8267 213.554 50.4C213.607 49.6534 213.767 48.64 214.034 47.36C214.354 46.08 214.727 44.8267 215.154 43.6C215.58 42.32 215.98 41.36 216.354 40.72C216.514 39.3867 216.834 38.1067 217.314 36.88C217.847 35.6534 218.3 34.3734 218.674 33.04C218.94 32.08 219.207 31.12 219.474 30.16C219.794 29.2 220.06 28.24 220.274 27.28C220.38 27.0134 220.407 26.7734 220.354 26.56C220.354 26.2934 220.407 26.0534 220.514 25.84C220.727 25.52 220.967 25.2534 221.234 25.04C221.5 24.7734 221.767 24.5334 222.034 24.32C222.674 24.5334 223.154 24.6667 223.474 24.72C223.794 24.7734 224.247 24.6934 224.834 24.48C224.887 24.48 225.287 24.5067 226.034 24.56C226.834 24.56 227.66 24.5867 228.514 24.64C229.367 24.64 229.9 24.64 230.114 24.64C230.807 24.64 231.474 24.7734 232.114 25.04C232.754 25.2534 233.42 25.3867 234.114 25.44C235.34 25.9734 236.407 26.6934 237.314 27.6C238.274 28.5067 238.62 29.76 238.354 31.36C238.247 32.2134 238.167 33.0667 238.114 33.92C238.114 34.72 237.9 35.52 237.474 36.32C237.42 37.12 237.207 37.9467 236.834 38.8C236.514 39.6 236.167 40.4267 235.794 41.28C235.42 42.1334 235.127 43.04 234.914 44C234.86 44.3734 234.727 44.72 234.514 45.04C234.354 45.36 234.247 45.7334 234.194 46.16C234.194 46.4267 234.167 46.6934 234.114 46.96C234.114 47.1734 234.087 47.4134 234.034 47.68C233.98 47.8934 233.874 48.1334 233.714 48.4C233.874 48.7734 233.714 49.28 233.234 49.92C232.807 50.56 232.22 50.6667 231.474 50.24C231.367 50.1334 231.234 50.0534 231.074 50C230.914 49.8934 230.78 49.8134 230.674 49.76C230.087 49.3334 229.767 48.6934 229.714 47.84C229.66 46.9334 229.714 46.0267 229.874 45.12C230.034 44.16 230.167 43.36 230.274 42.72C230.38 42.6134 230.62 42.0267 230.994 40.96C231.367 39.8934 231.767 38.6667 232.194 37.28C232.674 35.84 233.074 34.56 233.394 33.44C233.767 32.2667 233.954 31.5734 233.954 31.36C233.9 31.0934 233.847 30.8534 233.794 30.64C233.74 30.4267 233.66 30.2134 233.554 30C232.22 29.8934 230.834 29.7867 229.394 29.68C228.007 29.5734 226.674 29.68 225.394 30C225.234 30.0534 225.074 30.16 224.914 30.32C224.807 30.4267 224.727 30.56 224.674 30.72C224.354 32.0534 223.954 33.3334 223.474 34.56C222.994 35.7867 222.594 37.0667 222.274 38.4C221.9 40.0534 221.314 41.7067 220.514 43.36C219.714 44.96 219.234 46.64 219.074 48.4C218.807 48.7734 218.62 49.28 218.514 49.92C218.407 50.56 218.274 51.1467 218.114 51.68C218.007 52.16 217.714 52.48 217.234 52.64C217.02 52.6934 216.834 52.72 216.674 52.72C216.514 52.72 216.38 52.7734 216.274 52.88ZM240.597 71.44C240.384 71.44 240.117 71.44 239.797 71.44C239.477 71.4934 239.184 71.28 238.917 70.8C238.704 70.5334 238.571 70.1334 238.517 69.6C238.517 69.0667 238.651 68.1067 238.917 66.72C239.184 65.8134 239.397 64.9067 239.557 64C239.717 63.1467 239.797 62.5067 239.797 62.08C239.797 61.8667 239.851 61.44 239.957 60.8C240.117 60.2134 240.197 59.7867 240.197 59.52C240.464 59.0934 240.677 58.5067 240.837 57.76C240.997 57.0134 241.077 56.3467 241.077 55.76C241.077 55.12 241.397 54.5334 242.037 54C242.037 53.5734 242.117 53.04 242.277 52.4C242.491 51.76 242.597 51.3334 242.597 51.12C242.757 50.3734 243.104 49.0667 243.637 47.2C244.224 45.28 244.917 43.12 245.717 40.72C246.571 38.32 247.397 35.9734 248.197 33.68C248.997 31.3867 249.717 29.44 250.357 27.84C250.997 26.3467 251.424 25.0667 251.638 24C251.904 22.88 252.037 22.0534 252.037 21.52C252.037 21.3067 252.091 21.1467 252.197 21.04C252.304 20.88 252.544 20.5867 252.917 20.16C253.451 19.6267 253.904 19.4667 254.277 19.68C254.704 19.8934 255.211 20.2134 255.798 20.64C256.224 21.3334 256.517 21.92 256.678 22.4C256.891 22.88 256.891 23.7067 256.678 24.88C256.678 25.68 256.544 26.3734 256.277 26.96C256.011 27.5467 255.771 28 255.557 28.32C255.344 28.5867 255.291 28.6934 255.397 28.64C257.584 27.6267 259.504 27.0934 261.158 27.04C262.864 26.9334 264.278 27.2267 265.398 27.92C266.571 28.56 267.451 29.4667 268.037 30.64C268.624 31.8134 268.918 33.1734 268.918 34.72C268.918 35.36 268.784 36.1334 268.518 37.04C268.251 37.8934 267.904 38.6934 267.477 39.44C267.104 40.1334 266.757 40.64 266.437 40.96C266.224 40.96 266.011 41.1467 265.798 41.52C265.584 41.84 265.371 42.2134 265.158 42.64C264.731 43.1734 264.037 43.7867 263.077 44.48C262.171 45.12 261.264 45.6534 260.358 46.08C259.451 46.4534 258.784 46.56 258.358 46.4C258.358 46.4 258.277 46.4267 258.117 46.48C258.011 46.48 257.958 46.6134 257.958 46.88C257.958 46.9867 257.531 47.2267 256.678 47.6C255.824 47.92 254.837 48.24 253.717 48.56C252.597 48.8267 251.611 48.96 250.757 48.96C249.637 48.96 248.837 48.7467 248.357 48.32C248.251 48.4267 248.117 48.5867 247.957 48.8C247.851 49.0134 247.797 49.2 247.797 49.36C247.797 49.68 247.664 50.2934 247.397 51.2C247.184 52.0534 246.917 52.88 246.597 53.68C246.277 54.48 245.984 54.88 245.717 54.88C245.717 54.88 245.664 54.96 245.557 55.12C245.451 55.28 245.504 55.4934 245.717 55.76C245.717 55.76 245.691 56.0534 245.637 56.64C245.637 57.28 245.504 57.8134 245.237 58.24C245.237 58.6667 245.157 59.3067 244.997 60.16C244.837 61.0134 244.651 61.6534 244.437 62.08C244.437 62.72 244.331 63.3334 244.117 63.92C243.957 64.56 243.771 64.88 243.557 64.88C243.344 64.9334 243.211 65.2534 243.157 65.84C243.104 66.48 243.077 66.9334 243.077 67.2C243.024 68.5334 242.757 69.5734 242.277 70.32C241.797 71.0667 241.237 71.44 240.597 71.44ZM250.277 44.72C250.704 44.72 251.584 44.5334 252.917 44.16C254.251 43.7867 255.611 43.3334 256.997 42.8C258.437 42.2134 259.504 41.6267 260.198 41.04C261.584 39.8134 262.651 38.4267 263.398 36.88C264.198 35.28 264.144 33.76 263.237 32.32C262.811 31.5734 262.038 31.28 260.918 31.44C259.797 31.5467 258.571 31.9734 257.238 32.72C255.904 33.4667 254.651 34.4 253.478 35.52C252.837 36.2134 252.251 37.0667 251.717 38.08C251.184 39.0934 250.731 40.1067 250.357 41.12C250.037 42.1334 249.851 42.9867 249.797 43.68C249.744 44.3734 249.904 44.72 250.277 44.72ZM282.032 53.04C281.339 53.0934 280.779 53.04 280.352 52.88C279.925 52.6667 279.392 52.3734 278.752 52C277.579 51.0934 276.699 50.1867 276.112 49.28C275.579 48.32 275.339 47.3867 275.392 46.48C275.499 46 275.499 45.5734 275.392 45.2C275.339 44.8267 275.312 44.64 275.312 44.64C274.992 44.3734 274.885 44.2134 274.992 44.16C275.099 44.0534 275.179 43.8934 275.232 43.68C275.659 43.5734 275.712 43.28 275.392 42.8C275.232 42.3734 275.312 41.4134 275.632 39.92C276.005 38.3734 276.485 36.9334 277.072 35.6C277.339 35.0134 277.712 34.24 278.192 33.28C278.725 32.32 279.312 31.36 279.952 30.4C280.592 29.3867 281.179 28.5867 281.712 28C282.885 26.6667 283.925 25.68 284.832 25.04C285.792 24.3467 286.859 23.7867 288.032 23.36C289.099 22.9334 289.872 22.6934 290.352 22.64C290.832 22.5867 291.499 22.9067 292.352 23.6C293.632 23.9734 294.592 24.5067 295.232 25.2C295.925 25.84 296.459 26.8534 296.832 28.24C297.259 29.7867 297.392 31.6267 297.232 33.76C297.125 35.84 296.219 38.5334 294.512 41.84C293.499 43.92 292.485 45.4934 291.472 46.56C290.512 47.6267 289.339 48.7467 287.952 49.92C286.939 50.7734 286.005 51.44 285.152 51.92C284.299 52.4 283.259 52.7734 282.032 53.04ZM288.432 43.52C289.499 41.92 290.325 40.4534 290.912 39.12C291.552 37.7334 292.059 36 292.432 33.92C292.539 33.3334 292.565 32.6134 292.512 31.76C292.459 30.8534 292.325 30.0267 292.112 29.28C291.952 28.5334 291.712 28.1334 291.392 28.08C290.699 27.8134 289.925 27.8134 289.072 28.08C288.219 28.2934 287.285 28.9334 286.272 30C285.365 31.0667 284.539 32.2667 283.792 33.6C283.099 34.9334 282.459 36.4 281.872 38C281.285 39.6 280.725 41.3067 280.192 43.12C279.659 45.1467 279.685 46.6934 280.272 47.76C280.912 48.8267 281.952 49.0934 283.392 48.56C284.832 47.9734 286.512 46.2934 288.432 43.52ZM304.315 41.04C304.368 40.1867 304.528 39.12 304.795 37.84C305.062 36.56 305.302 35.3334 305.515 34.16C305.782 32.9867 305.862 32.16 305.755 31.68C305.542 31.4134 305.302 31.1734 305.035 30.96C304.768 30.7467 304.502 30.5334 304.235 30.32C304.342 29.7334 304.448 29.2 304.555 28.72C304.715 28.24 305.115 27.84 305.755 27.52L306.315 27.76C306.475 27.7067 306.635 27.6534 306.795 27.6C306.955 27.4934 307.088 27.4134 307.195 27.36C307.728 26.4 308.208 25.36 308.635 24.24C309.062 23.0667 309.435 21.9734 309.755 20.96C310.022 20.0534 310.422 19.0134 310.955 17.84C311.488 16.6667 312.022 15.7067 312.555 14.96C312.875 14.5334 313.142 14.1334 313.355 13.76C313.568 13.3334 313.782 12.9067 313.995 12.48C314.475 11.52 315.142 10.48 315.995 9.36002C316.848 8.18668 317.782 7.09335 318.795 6.08002C319.862 5.01335 320.848 4.21335 321.755 3.68002C322.662 3.09335 323.435 2.77335 324.075 2.72002C324.715 2.61335 325.542 2.53335 326.555 2.48002C327.088 2.80002 327.728 3.33335 328.475 4.08002C329.275 4.82668 329.675 5.52002 329.675 6.16002C329.675 6.69335 329.675 7.28002 329.675 7.92002C329.675 8.50668 329.542 9.04002 329.275 9.52002C329.328 9.89335 329.302 10.2933 329.195 10.72C329.088 11.0934 328.955 11.4934 328.795 11.92C328.742 12.1334 328.662 12.3734 328.555 12.64C328.502 12.9067 328.448 13.1733 328.395 13.44C327.382 15.52 326.448 17.28 325.595 18.72C324.795 20.1067 323.915 21.3334 322.955 22.4C322.048 23.4134 320.955 24.48 319.675 25.6C318.448 26.6667 316.955 27.92 315.195 29.36C316.102 29.6267 316.902 30.08 317.595 30.72C318.288 31.3067 318.662 32.1334 318.715 33.2C318.715 33.4667 318.688 33.76 318.635 34.08C318.635 34.4 318.662 34.72 318.715 35.04C318.822 35.7334 318.875 36.4 318.875 37.04C318.928 37.6267 318.982 38.24 319.035 38.88C319.142 39.52 319.142 40.2934 319.035 41.2C318.928 42.1067 318.822 42.88 318.715 43.52C318.662 43.7334 318.582 43.8667 318.475 43.92C318.422 43.92 318.395 44.0534 318.395 44.32C318.395 45.1734 318.208 45.92 317.835 46.56C317.462 47.2 317.062 47.92 316.635 48.72C316.475 48.9867 316.262 49.2267 315.995 49.44C315.728 49.6 315.488 49.8134 315.275 50.08C314.368 51.1467 313.435 51.76 312.475 51.92C311.568 52.08 310.502 52.32 309.275 52.64L309.115 52.8C308.582 52.3734 308.182 52.1067 307.915 52C307.702 51.8934 307.302 51.7334 306.715 51.52C306.555 50.7734 306.182 50.0267 305.595 49.28C305.062 48.5334 304.742 47.76 304.635 46.96C304.582 46.5867 304.555 46.24 304.555 45.92C304.608 45.5467 304.502 45.2 304.235 44.88C304.608 44.6134 304.662 44.2934 304.395 43.92C304.128 43.5467 304.155 43.2 304.475 42.88C304.475 42.7734 304.475 42.6667 304.475 42.56C304.528 42.4534 304.555 42.3734 304.555 42.32C304.502 42.2134 304.448 42.0534 304.395 41.84C304.342 41.5734 304.315 41.3067 304.315 41.04ZM311.035 47.76C312.315 46.5334 313.168 45.28 313.595 44C314.022 42.6667 314.235 41.3067 314.235 39.92C314.288 38.48 314.315 36.96 314.315 35.36C314.315 35.0934 314.262 34.8267 314.155 34.56C314.102 34.2934 314.128 34.0534 314.235 33.84C314.022 33.2534 313.808 32.6134 313.595 31.92C313.382 31.1734 312.982 30.5334 312.395 30C311.968 30.2134 311.622 30.4534 311.355 30.72C311.088 30.9867 310.742 31.44 310.315 32.08C310.048 32.6134 309.782 33.6 309.515 35.04C309.302 36.48 309.142 38.08 309.035 39.84C308.928 41.5467 308.928 43.1467 309.035 44.64C309.195 46.1334 309.515 47.1734 309.995 47.76H311.035ZM320.955 9.92002C319.142 11.8934 317.542 14.1334 316.155 16.64C314.768 19.1467 313.675 21.68 312.875 24.24L313.755 24.72L317.755 21.44C317.915 21.3334 318.235 20.9867 318.715 20.4C319.195 19.8134 319.648 19.2 320.075 18.56C320.555 17.8667 320.822 17.44 320.875 17.28C321.355 16.9067 321.835 16.2134 322.315 15.2C322.848 14.1867 323.328 13.0667 323.755 11.84C324.182 10.56 324.502 9.36002 324.715 8.24002C324.982 7.06669 325.062 6.18669 324.955 5.60002L324.395 5.84002C323.862 6.53335 323.302 7.22668 322.715 7.92002C322.128 8.56002 321.542 9.22668 320.955 9.92002ZM339.282 50.72C338.162 51.68 336.855 52.24 335.362 52.4C333.922 52.56 332.509 52.3467 331.122 51.76C329.735 51.12 328.589 50.16 327.682 48.88C326.775 47.7067 326.189 46.3734 325.922 44.88C325.655 43.3334 325.629 41.3334 325.842 38.88C326.002 36.8 326.669 34.72 327.842 32.64C329.015 30.5067 330.429 28.6134 332.082 26.96C333.789 25.3067 335.469 24.16 337.122 23.52C337.922 22.9867 338.589 22.7467 339.122 22.8C339.709 22.8 340.589 22.8534 341.762 22.96C342.989 23.12 343.895 23.36 344.482 23.68C345.122 24 345.629 24.4267 346.002 24.96C346.802 25.76 347.335 26.56 347.602 27.36C347.869 28.1067 348.002 28.8534 348.002 29.6C347.789 30.7734 346.989 32.2134 345.602 33.92C344.269 35.5734 342.509 36.9334 340.322 38C339.149 38.3734 337.869 38.5334 336.482 38.48C335.095 38.4267 333.949 38.08 333.042 37.44C332.029 37.0134 331.362 37.0934 331.042 37.68C330.722 38.2134 330.429 39.5467 330.162 41.68C329.949 43.7067 330.109 45.2 330.642 46.16C331.175 47.0667 331.895 47.6 332.802 47.76C333.869 47.9734 334.695 48.1334 335.282 48.24C335.922 48.2934 336.695 48.0534 337.602 47.52C338.455 46.9867 338.989 46.6934 339.202 46.64C339.415 46.5334 339.575 46.4267 339.682 46.32C339.842 46.16 340.189 45.8134 340.722 45.28C341.095 44.9067 341.389 44.64 341.602 44.48C341.815 44.2667 342.055 44.16 342.322 44.16C342.589 44.16 342.829 44.2934 343.042 44.56C343.255 44.7734 343.469 44.9334 343.682 45.04C344.215 45.04 344.322 45.36 344.002 46C343.735 46.64 343.175 47.4134 342.322 48.32C341.469 49.1734 340.455 49.9734 339.282 50.72ZM339.202 33.76C339.789 33.4934 340.402 33.12 341.042 32.64C341.682 32.1067 342.215 31.5467 342.642 30.96C343.122 30.32 343.362 29.7867 343.362 29.36C343.362 28.6134 343.015 28 342.322 27.52C341.629 26.9867 340.589 26.9067 339.202 27.28C338.615 27.44 337.949 27.84 337.202 28.48C336.455 29.0667 335.735 29.7334 335.042 30.48C334.402 31.2267 333.869 31.8934 333.442 32.48C333.069 33.0667 332.935 33.4134 333.042 33.52C333.202 33.7867 333.655 34 334.402 34.16C335.149 34.2667 335.975 34.2934 336.882 34.24C337.842 34.1867 338.615 34.0267 339.202 33.76ZM356.737 53.04C356.524 52.9334 356.284 52.9067 356.017 52.96C355.804 52.96 355.564 52.9334 355.297 52.88C353.377 51.6534 352.097 50.1867 351.457 48.48C350.871 46.7734 350.737 44.9334 351.057 42.96C351.377 40.9867 351.911 39.04 352.657 37.12C353.031 36.2134 353.404 35.3067 353.777 34.4C354.204 33.44 354.764 32.6134 355.457 31.92C355.831 31.0667 356.471 30.16 357.377 29.2C358.284 28.24 359.271 27.36 360.338 26.56C361.457 25.76 362.444 25.1734 363.298 24.8C363.778 24.5334 364.284 24.32 364.817 24.16C365.351 23.9467 365.857 23.7067 366.337 23.44C367.031 23.44 367.618 23.4934 368.098 23.6C368.578 23.7067 368.978 23.8934 369.297 24.16C369.617 24.3734 369.884 24.7467 370.098 25.28C370.311 25.76 370.471 26.4 370.577 27.2C370.258 27.3067 369.831 27.4934 369.297 27.76C368.817 28.0267 368.364 28.24 367.938 28.4C364.684 29.5734 362.177 31.2267 360.417 33.36C358.711 35.4934 357.164 38.0534 355.777 41.04C355.404 41.7867 355.164 42.5867 355.057 43.44C355.004 44.24 354.897 45.04 354.737 45.84C354.631 46.7467 354.871 47.52 355.457 48.16C355.777 48.5867 356.284 48.7734 356.977 48.72C357.724 48.6134 358.444 48.4 359.138 48.08C359.884 47.76 360.364 47.4667 360.577 47.2C360.791 47.04 360.977 46.88 361.137 46.72C361.351 46.56 361.564 46.3734 361.777 46.16C363.751 44.1867 365.378 41.44 366.657 37.92C367.991 34.4 369.138 30.72 370.098 26.88C370.204 26.3467 370.364 25.5467 370.577 24.48C370.844 23.36 371.057 22.2667 371.218 21.2C371.378 20.1334 371.404 19.3867 371.297 18.96C371.244 18.64 371.138 18.3467 370.977 18.08C370.817 17.76 370.871 17.4667 371.137 17.2C370.924 16.9334 370.684 16.3734 370.417 15.52C370.151 14.6667 369.964 14.0534 369.857 13.68C369.377 12.08 368.551 10.88 367.378 10.08C366.204 9.28002 364.871 8.80002 363.377 8.64002C361.884 8.48002 360.391 8.61335 358.897 9.04002C358.577 9.14668 358.257 9.22668 357.938 9.28002C357.617 9.28002 357.297 9.33335 356.977 9.44002C356.284 9.17335 355.777 8.74668 355.457 8.16002C355.137 7.57335 354.924 7.09335 354.817 6.72002C354.817 6.18668 354.897 5.76002 355.057 5.44002C355.271 5.12002 355.537 4.85335 355.857 4.64002C356.231 4.42669 356.631 4.26668 357.057 4.16002C357.697 3.94668 358.337 3.81335 358.977 3.76002C359.671 3.65335 360.177 3.49335 360.497 3.28002C361.244 3.49335 361.991 3.60002 362.738 3.60002C363.537 3.60002 364.284 3.76002 364.977 4.08002C366.044 4.56002 367.031 4.93335 367.938 5.20002C368.898 5.41335 369.751 6.08002 370.498 7.20002C370.924 7.89335 371.431 8.50668 372.017 9.04002C372.657 9.57335 373.164 10.1867 373.537 10.88C373.804 11.4134 374.177 12.16 374.657 13.12C375.191 14.08 375.431 14.8534 375.377 15.44C376.391 17.6267 376.764 19.8667 376.497 22.16C376.231 24.4 375.698 26.64 374.898 28.88C374.098 31.12 373.377 33.28 372.738 35.36C372.684 35.7334 372.498 36.1067 372.178 36.48C371.857 36.8534 371.724 37.2534 371.778 37.68C370.871 39.5467 369.937 41.4134 368.978 43.28C368.071 45.0934 366.977 46.7467 365.698 48.24C364.417 49.7334 362.764 50.96 360.737 51.92C360.364 52.1334 359.697 52.4267 358.737 52.8C357.831 53.12 357.164 53.2 356.737 53.04ZM385.069 53.76C382.723 53.76 380.803 52.88 379.309 51.12C377.816 49.3067 377.096 47.0667 377.149 44.4C377.256 42.48 377.629 40.4267 378.269 38.24C378.963 36 379.869 33.8667 380.989 31.84C382.109 29.76 383.336 27.9467 384.669 26.4C386.003 24.8534 387.389 23.76 388.829 23.12C389.363 22.8534 389.923 22.64 390.509 22.48C391.149 22.32 391.789 22.24 392.429 22.24C393.016 22.24 393.629 22.3467 394.269 22.56C394.909 22.72 395.443 22.9067 395.869 23.12C396.776 23.4934 397.469 23.9467 397.949 24.48C398.429 25.0134 398.856 25.84 399.229 26.96C399.389 27.9734 399.469 28.6934 399.469 29.12C399.469 29.5467 399.336 30.1867 399.069 31.04C398.429 32.96 397.603 34.6134 396.589 36C395.576 37.3867 394.216 38.56 392.509 39.52C392.083 39.7867 391.576 40 390.989 40.16C390.456 40.2667 389.896 40.32 389.309 40.32C388.243 40.32 387.203 40.1334 386.189 39.76C385.229 39.3334 384.456 38.72 383.869 37.92L383.309 37.28L383.069 37.92C382.536 39.36 382.109 40.6934 381.789 41.92C381.523 43.1467 381.389 44.2667 381.389 45.28C381.389 45.92 381.443 46.5334 381.549 47.12C381.709 47.7067 381.923 48.2134 382.189 48.64C382.403 48.96 382.749 49.2 383.229 49.36C383.763 49.4667 384.323 49.52 384.909 49.52C385.283 49.52 385.656 49.52 386.029 49.52C386.456 49.4667 386.856 49.36 387.229 49.2C388.136 48.88 388.856 48.5334 389.389 48.16C389.976 47.7867 390.563 47.3867 391.149 46.96L391.469 46.8H391.389C392.029 46.48 392.589 46.16 393.069 45.84C393.603 45.52 393.869 45.36 393.869 45.36C394.083 45.36 394.296 45.2267 394.509 44.96C394.936 44.7467 395.469 44.8267 396.109 45.2C396.803 45.5734 397.149 46.0534 397.149 46.64C397.096 46.9067 396.856 47.3334 396.429 47.92C396.003 48.4534 395.523 48.96 394.989 49.44C394.509 49.92 394.109 50.1867 393.789 50.24C393.736 50.2934 393.549 50.4 393.229 50.56C392.909 50.6667 392.696 50.7734 392.589 50.88H392.669C392.189 51.52 391.709 51.84 391.229 51.84H390.589C390.376 52.2134 389.683 52.64 388.509 53.12C387.336 53.5467 386.189 53.76 385.069 53.76ZM388.669 36.16C389.629 36.16 390.456 35.8934 391.149 35.36C391.896 34.7734 392.536 34.1334 393.069 33.44C394.136 32 394.749 30.6134 394.909 29.28C395.123 27.8934 394.963 26.9334 394.429 26.4C394.109 26.24 393.816 26.16 393.549 26.16C393.336 26.1067 392.883 26.1867 392.189 26.4C391.709 26.5067 391.043 26.9067 390.189 27.6C389.336 28.2934 388.483 29.0667 387.629 29.92C386.829 30.7734 386.216 31.4934 385.789 32.08L384.749 33.76C385.176 33.6 385.576 33.52 385.949 33.52C386.376 33.4667 386.616 33.4934 386.669 33.6C386.669 34.08 386.749 34.5334 386.909 34.96C387.123 35.3334 387.363 35.6267 387.629 35.84C387.949 36.0534 388.296 36.16 388.669 36.16ZM427.245 25.12C427.992 24.6934 428.765 24.56 429.565 24.72C430.365 24.8267 430.978 25.1734 431.405 25.76C431.885 26.2934 431.965 26.9867 431.645 27.84C431.752 27.52 431.618 27.7334 431.245 28.48C430.925 29.1734 430.498 30.08 429.965 31.2C429.485 32.32 429.032 33.3867 428.605 34.4C428.232 35.36 427.992 35.92 427.885 36.08V36.32C428.738 36.32 429.245 36.5867 429.405 37.12C429.618 37.6 429.698 38.16 429.645 38.8C429.005 38.9067 428.552 39.0934 428.285 39.36C428.018 39.5734 427.672 39.7067 427.245 39.76C427.085 39.76 426.898 39.84 426.685 40C426.472 40.16 426.338 40.3467 426.285 40.56C426.232 40.72 426.072 41.36 425.805 42.48C425.592 43.5467 425.325 44.72 425.005 46C424.738 47.2267 424.498 48.16 424.285 48.8C424.178 49.2267 423.965 49.5734 423.645 49.84C423.325 50.0534 423.112 50.1867 423.005 50.24C421.938 49.8134 421.218 49.5467 420.845 49.44C420.525 49.28 420.205 49.0667 419.885 48.8C419.832 48.48 419.832 48.1067 419.885 47.68C419.938 47.2 420.072 46.64 420.285 46C420.552 45.2 420.765 44.4534 420.925 43.76C421.138 43.0134 421.352 41.9734 421.565 40.64C421.352 40.5334 420.898 40.5334 420.205 40.64C419.565 40.6934 418.872 40.7734 418.125 40.88C417.378 40.9867 416.738 41.0934 416.205 41.2C415.725 41.3067 415.512 41.3334 415.565 41.28C415.298 41.3867 414.792 41.4667 414.045 41.52C413.352 41.52 412.632 41.4934 411.885 41.44C411.192 41.3334 410.685 41.2267 410.365 41.12L409.885 41.36C409.832 41.8934 409.592 42.6934 409.165 43.76C408.738 44.7734 408.525 45.7334 408.525 46.64C408.472 47.3334 408.365 48.0267 408.205 48.72C408.045 49.4134 407.938 50.1334 407.885 50.88C407.832 52.0534 407.512 52.7734 406.925 53.04C406.392 53.3067 405.565 53.12 404.445 52.48C404.178 52.32 403.912 52.1334 403.645 51.92C403.432 51.7067 403.192 51.4667 402.925 51.2L404.205 45.04C404.418 44.2934 404.605 43.6 404.765 42.96C404.925 42.2667 405.112 41.6 405.325 40.96C405.752 39.7867 406.152 38.5867 406.525 37.36C406.952 36.1334 407.432 34.9867 407.965 33.92C407.965 33.92 408.045 33.6534 408.205 33.12C408.418 32.5334 408.658 31.8934 408.925 31.2C409.192 30.4534 409.405 29.8667 409.565 29.44C409.725 29.0134 409.752 28.9334 409.645 29.2C409.805 28.88 410.045 28.2667 410.365 27.36C410.685 26.4 410.978 25.4934 411.245 24.64C411.565 23.7334 411.725 23.2534 411.725 23.2C411.832 22.88 411.992 22.6667 412.205 22.56C412.418 22.4 412.685 22.32 413.005 22.32C413.912 22.2667 414.658 22.48 415.245 22.96C415.832 23.3867 416.152 23.92 416.205 24.56C416.152 24.88 416.125 25.1734 416.125 25.44C416.125 25.7067 416.072 25.92 415.965 26.08L411.805 36.24V36.88C412.338 37.2 413.112 37.2534 414.125 37.04C415.192 36.7734 415.992 36.64 416.525 36.64C416.792 36.5867 417.405 36.5334 418.365 36.48C419.378 36.4267 420.338 36.4 421.245 36.4C422.205 36.4 422.712 36.4267 422.765 36.48C423.352 34.88 423.885 33.3867 424.365 32C424.845 30.56 425.512 29.0934 426.365 27.6C426.418 27.4934 426.525 27.1467 426.685 26.56C426.898 25.9734 427.085 25.4934 427.245 25.12ZM456.694 53.6C456.16 53.8667 455.547 53.7067 454.854 53.12C454.16 52.5334 453.68 52.0534 453.414 51.68C452.934 51.04 452.587 50.16 452.374 49.04C452.16 47.92 452.054 46.9867 452.054 46.24C452.054 44.8534 451.947 44.0534 451.734 43.84C451.574 43.6267 451.227 43.8134 450.694 44.4C450.214 44.9334 449.494 45.68 448.534 46.64C448.107 47.0667 447.414 47.6267 446.454 48.32C445.494 49.0134 444.507 49.6 443.494 50.08C442.48 50.56 441.627 50.8 440.934 50.8C440.454 50.7467 439.974 50.48 439.494 50C439.014 49.52 438.587 48.9867 438.214 48.4C437.894 47.76 437.654 47.2267 437.494 46.8C437.227 46 437.2 44.6934 437.414 42.88C437.68 41.0134 438.107 38.96 438.694 36.72C439.334 34.4267 440.054 32.24 440.854 30.16C441.707 28.0267 442.56 26.2934 443.414 24.96C444.32 23.5734 445.2 22.88 446.054 22.88C446.64 22.88 447.094 23.2267 447.414 23.92C447.787 24.56 448.08 25.0934 448.294 25.52C448.56 26.0534 448.64 26.4 448.534 26.56C448.48 26.72 448.267 27.0134 447.894 27.44C447.467 27.9734 446.96 28.88 446.374 30.16C445.787 31.3867 445.174 32.7467 444.534 34.24C443.947 35.68 443.414 37.0667 442.934 38.4C442.454 39.7334 442.107 40.7467 441.894 41.44C441.787 41.8667 441.627 42.4534 441.414 43.2C441.254 43.9467 441.2 44.5334 441.254 44.96C441.254 45.0134 441.28 45.1467 441.334 45.36C441.387 45.52 441.6 45.6 441.974 45.6C443.147 45.6 444.32 45.12 445.494 44.16C446.72 43.1467 447.92 41.84 449.094 40.24C450.32 38.64 451.467 36.96 452.534 35.2C453.6 33.44 454.587 31.76 455.494 30.16C456.454 28.56 457.28 27.2534 457.974 26.24C458.667 25.1734 459.227 24.6134 459.654 24.56C460.027 24.5067 460.454 24.56 460.934 24.72C461.467 24.8267 461.92 25.0134 462.294 25.28C462.667 25.5467 462.827 25.92 462.774 26.4C462.134 28.3734 461.36 30.3467 460.454 32.32C459.547 34.24 458.694 36.1867 457.894 38.16C457.147 40.1334 456.614 42.16 456.294 44.24C456.08 45.52 456.16 46.7734 456.534 48C456.96 49.2267 457.627 50.32 458.534 51.28C459.067 51.8134 459.014 52.32 458.374 52.8C457.734 53.28 457.174 53.5467 456.694 53.6ZM466.091 53.12C465.451 53.12 464.891 53.04 464.411 52.88C463.985 52.6667 463.638 52.4 463.371 52.08C463.158 51.7067 462.945 51.3334 462.731 50.96C462.518 50.5334 462.331 50.08 462.171 49.6C462.278 49.1734 462.518 48.7467 462.891 48.32C463.265 47.8934 463.771 47.8667 464.411 48.24C464.518 48.24 464.625 48.2934 464.731 48.4C464.838 48.5067 464.971 48.6134 465.131 48.72C467.105 47.8134 468.705 46.64 469.931 45.2C471.211 43.7067 472.438 42.0534 473.611 40.24C472.705 39.9734 471.798 39.5467 470.891 38.96C470.038 38.3734 469.425 37.76 469.051 37.12C468.518 36.2667 468.171 35.2534 468.011 34.08C467.851 32.9067 467.718 32.2667 467.611 32.16C468.091 31.0934 468.385 30.1867 468.491 29.44C468.651 28.6934 468.865 27.9734 469.131 27.28C469.398 26.5334 469.905 25.68 470.651 24.72C471.238 23.9734 471.958 23.28 472.811 22.64C473.665 21.9467 474.491 21.3867 475.291 20.96C476.091 20.5334 476.678 20.32 477.051 20.32C477.638 20.5334 478.198 20.5067 478.731 20.24C479.265 19.9734 479.798 19.9467 480.331 20.16C480.545 20.2134 480.731 20.24 480.891 20.24C481.105 20.1867 481.265 20.1867 481.371 20.24C482.705 20.5067 483.878 20.88 484.891 21.36C485.905 21.84 486.571 22.72 486.891 24C486.625 25.12 486.331 26.24 486.011 27.36C485.745 28.4267 485.318 29.4934 484.731 30.56C484.198 31.5734 483.665 32.64 483.131 33.76C482.651 34.8267 482.038 35.84 481.291 36.8L481.451 37.28C482.038 37.3867 482.758 37.52 483.611 37.68C484.518 37.7867 484.998 37.84 485.051 37.84C485.638 38 486.145 38.2667 486.571 38.64C487.051 38.96 487.558 39.3334 488.091 39.76C488.145 39.9734 488.145 40.1867 488.091 40.4C488.038 40.6134 487.931 40.8534 487.771 41.12C487.185 42.2934 486.571 43.4934 485.931 44.72C485.291 45.8934 484.678 47.0934 484.091 48.32C483.878 48.8534 483.691 49.52 483.531 50.32C483.371 51.12 483.158 51.76 482.891 52.24C482.411 52.72 482.091 53.0134 481.931 53.12C481.825 53.1734 481.718 53.1467 481.611 53.04C481.505 52.9334 481.211 52.88 480.731 52.88C479.985 52.72 479.478 52.32 479.211 51.68C479.105 51.3067 478.945 50.96 478.731 50.64C478.571 50.32 478.545 49.9467 478.651 49.52C478.758 49.2 478.865 48.9067 478.971 48.64C479.078 48.32 479.211 48.0267 479.371 47.76C479.798 46.9067 480.171 46.0534 480.491 45.2C480.811 44.3467 481.158 43.52 481.531 42.72C481.745 42.5067 481.851 42.2134 481.851 41.84H481.291C480.971 41.7867 480.598 41.7334 480.171 41.68C479.798 41.5734 479.371 41.4934 478.891 41.44C478.625 41.6534 478.305 41.8934 477.931 42.16C477.558 42.3734 477.265 42.7734 477.051 43.36C476.465 44 475.905 44.72 475.371 45.52C474.891 46.2667 474.305 46.9867 473.611 47.68C472.918 48.3734 472.225 49.0667 471.531 49.76C470.891 50.4534 470.171 51.1467 469.371 51.84C468.198 52.6934 467.105 53.12 466.091 53.12ZM475.691 36.48C475.958 36.4267 476.331 36.1067 476.811 35.52C477.345 34.88 477.878 34.1867 478.411 33.44C478.998 32.64 479.505 31.92 479.931 31.28C480.358 30.5867 480.598 30.16 480.651 30C480.651 30.1067 480.758 29.8667 480.971 29.28C481.185 28.6934 481.425 28 481.691 27.2C482.011 26.4 482.305 25.6534 482.571 24.96C482.838 24.2667 482.971 23.8934 482.971 23.84C482.278 23.36 481.718 23.12 481.291 23.12C480.865 23.12 480.358 23.2267 479.771 23.44C477.798 23.9734 476.171 24.88 474.891 26.16C473.611 27.3867 472.678 28.9867 472.091 30.96C471.665 32.7734 471.771 34.2934 472.411 35.52C473.105 36.6934 474.198 37.0134 475.691 36.48Z" fill="white"/>
</svg>
