<svg width="1020" height="101" viewBox="0 0 1020 101" fill="none" xmlns="http://www.w3.org/2000/svg">
<path d="M31.522 32.13L24.298 8.61H24.13C24.158 9.17 24.2 10.01 24.256 11.13C24.312 12.25 24.368 13.454 24.424 14.742C24.48 16.002 24.508 17.15 24.508 18.186V32.13H18.838V2.142H27.49L34.588 25.074H34.714L42.232 2.142H50.884V32.13H44.962V17.934C44.962 16.982 44.976 15.89 45.004 14.658C45.06 13.426 45.102 12.264 45.13 11.172C45.186 10.052 45.228 9.212 45.256 8.652H45.088L37.36 32.13H31.522ZM57.9551 32.13V9.198H64.2131V18.06H67.2371C69.5891 18.06 71.5211 18.312 73.0331 18.816C74.5451 19.292 75.6651 20.034 76.3931 21.042C77.1491 22.05 77.5271 23.31 77.5271 24.822C77.5271 26.306 77.1771 27.594 76.4771 28.686C75.8051 29.778 74.7271 30.632 73.2431 31.248C71.7871 31.836 69.8551 32.13 67.4471 32.13H57.9551ZM67.1111 27.804C68.3431 27.804 69.3371 27.58 70.0931 27.132C70.8771 26.684 71.2691 25.942 71.2691 24.906C71.2691 24.01 70.9051 23.366 70.1771 22.974C69.4771 22.582 68.4271 22.386 67.0271 22.386H64.2131V27.804H67.1111ZM80.8451 32.13V9.198H87.1031V32.13H80.8451ZM112.432 18.396C112.432 15.008 112.852 12.138 113.692 9.786C114.532 7.406 115.862 5.516 117.682 4.116C119.502 2.688 121.882 1.722 124.822 1.218C126.306 0.966002 127.804 0.756002 129.316 0.588003C130.856 0.392004 132.438 0.196004 134.062 2.98023e-06L134.776 5.46C134.076 5.544 133.306 5.642 132.466 5.754C131.626 5.838 130.772 5.936 129.904 6.048C129.064 6.132 128.252 6.23 127.468 6.342C126.684 6.454 125.97 6.552 125.326 6.636C124.29 6.804 123.38 7.042 122.596 7.35C121.812 7.63 121.154 8.036 120.622 8.568C120.09 9.1 119.67 9.828 119.362 10.752C119.082 11.648 118.9 12.81 118.816 14.238H119.11C119.446 13.706 119.908 13.174 120.496 12.642C121.112 12.11 121.868 11.662 122.764 11.298C123.66 10.934 124.682 10.752 125.83 10.752C127.65 10.752 129.232 11.13 130.576 11.886C131.92 12.642 132.956 13.762 133.684 15.246C134.412 16.73 134.776 18.578 134.776 20.79C134.776 23.394 134.3 25.564 133.348 27.3C132.396 29.036 131.08 30.352 129.4 31.248C127.72 32.116 125.774 32.55 123.562 32.55C121.882 32.55 120.356 32.242 118.984 31.626C117.612 31.01 116.436 30.1 115.456 28.896C114.476 27.692 113.72 26.208 113.188 24.444C112.684 22.68 112.432 20.664 112.432 18.396ZM123.94 27.468C124.836 27.468 125.606 27.272 126.25 26.88C126.922 26.488 127.44 25.844 127.804 24.948C128.196 24.052 128.392 22.848 128.392 21.336C128.392 19.516 128.084 18.074 127.468 17.01C126.88 15.918 125.844 15.372 124.36 15.372C123.464 15.372 122.624 15.596 121.84 16.044C121.084 16.464 120.44 16.954 119.908 17.514C119.376 18.046 119.012 18.508 118.816 18.9C118.816 19.992 118.9 21.056 119.068 22.092C119.236 23.1 119.516 24.01 119.908 24.822C120.3 25.634 120.818 26.278 121.462 26.754C122.134 27.23 122.96 27.468 123.94 27.468ZM136.669 9.198H143.515L147.841 22.092C147.981 22.512 148.093 22.932 148.177 23.352C148.289 23.772 148.373 24.206 148.429 24.654C148.513 25.102 148.569 25.578 148.597 26.082H148.723C148.807 25.354 148.919 24.668 149.059 24.024C149.227 23.352 149.409 22.708 149.605 22.092L153.847 9.198H160.567L150.865 35.07C150.277 36.638 149.507 37.954 148.555 39.018C147.631 40.082 146.553 40.88 145.321 41.412C144.089 41.944 142.745 42.21 141.289 42.21C140.589 42.21 139.973 42.168 139.441 42.084C138.937 42.028 138.489 41.958 138.097 41.874V36.918C138.405 36.974 138.769 37.03 139.189 37.086C139.637 37.142 140.099 37.17 140.575 37.17C141.443 37.17 142.185 36.988 142.801 36.624C143.445 36.26 143.977 35.756 144.397 35.112C144.817 34.496 145.153 33.824 145.405 33.096L145.783 31.962L136.669 9.198ZM183.659 9.198V27.552H187.019V40.362H181.391V32.13H165.977V40.362H160.349V27.552H162.281C163.289 26.012 164.143 24.262 164.843 22.302C165.543 20.314 166.103 18.2 166.523 15.96C166.943 13.72 167.251 11.466 167.447 9.198H183.659ZM172.697 13.902C172.473 15.582 172.193 17.22 171.857 18.816C171.521 20.384 171.101 21.896 170.597 23.352C170.121 24.808 169.533 26.208 168.833 27.552H177.401V13.902H172.697ZM200.378 8.778C202.506 8.778 204.326 9.184 205.838 9.996C207.378 10.808 208.568 11.984 209.408 13.524C210.248 15.064 210.668 16.954 210.668 19.194V22.218H195.884C195.94 23.982 196.458 25.368 197.438 26.376C198.446 27.384 199.832 27.888 201.596 27.888C203.08 27.888 204.424 27.748 205.628 27.468C206.832 27.16 208.078 26.698 209.366 26.082V30.912C208.246 31.472 207.056 31.878 205.796 32.13C204.564 32.41 203.066 32.55 201.302 32.55C199.006 32.55 196.976 32.13 195.212 31.29C193.448 30.422 192.062 29.12 191.054 27.384C190.046 25.648 189.542 23.464 189.542 20.832C189.542 18.144 189.99 15.918 190.886 14.154C191.81 12.362 193.084 11.018 194.708 10.122C196.332 9.226 198.222 8.778 200.378 8.778ZM200.42 13.23C199.216 13.23 198.208 13.622 197.396 14.406C196.612 15.19 196.15 16.408 196.01 18.06H204.788C204.788 17.136 204.62 16.31 204.284 15.582C203.976 14.854 203.5 14.28 202.856 13.86C202.212 13.44 201.4 13.23 200.42 13.23ZM244.638 9.198V32.13H238.8V20.874C238.8 19.754 238.814 18.662 238.842 17.598C238.898 16.534 238.968 15.554 239.052 14.658H238.926L232.584 32.13H227.88L221.454 14.616H221.286C221.398 15.54 221.468 16.534 221.496 17.598C221.552 18.634 221.58 19.782 221.58 21.042V32.13H215.742V9.198H224.604L230.316 24.738L236.112 9.198H244.638ZM284.127 8.778C286.703 8.778 288.789 9.786 290.385 11.802C291.981 13.79 292.779 16.73 292.779 20.622C292.779 23.226 292.401 25.424 291.645 27.216C290.889 28.98 289.853 30.31 288.537 31.206C287.221 32.102 285.695 32.55 283.959 32.55C282.867 32.55 281.915 32.41 281.103 32.13C280.319 31.85 279.647 31.486 279.087 31.038C278.527 30.59 278.037 30.114 277.617 29.61H277.281C277.393 30.142 277.477 30.702 277.533 31.29C277.589 31.85 277.617 32.41 277.617 32.97V42.21H271.359V9.198H276.441L277.323 12.18H277.617C278.037 11.564 278.541 11.004 279.129 10.5C279.717 9.968 280.417 9.548 281.229 9.24C282.069 8.932 283.035 8.778 284.127 8.778ZM282.111 13.776C281.019 13.776 280.151 14 279.507 14.448C278.863 14.896 278.387 15.582 278.079 16.506C277.799 17.402 277.645 18.536 277.617 19.908V20.58C277.617 22.064 277.757 23.324 278.037 24.36C278.317 25.368 278.793 26.138 279.465 26.67C280.137 27.202 281.047 27.468 282.195 27.468C283.147 27.468 283.931 27.202 284.547 26.67C285.163 26.138 285.625 25.354 285.933 24.318C286.241 23.282 286.395 22.022 286.395 20.538C286.395 18.298 286.045 16.618 285.345 15.498C284.673 14.35 283.595 13.776 282.111 13.776ZM307.345 8.736C310.426 8.736 312.778 9.408 314.402 10.752C316.054 12.068 316.88 14.098 316.88 16.842V32.13H312.511L311.294 29.022H311.125C310.481 29.834 309.809 30.506 309.109 31.038C308.437 31.57 307.653 31.948 306.757 32.172C305.889 32.424 304.811 32.55 303.523 32.55C302.179 32.55 300.961 32.298 299.869 31.794C298.805 31.262 297.965 30.464 297.349 29.4C296.733 28.308 296.425 26.936 296.425 25.284C296.425 22.848 297.279 21.056 298.987 19.908C300.695 18.732 303.257 18.088 306.673 17.976L310.663 17.85V16.842C310.663 15.638 310.341 14.756 309.697 14.196C309.081 13.636 308.213 13.356 307.093 13.356C305.973 13.356 304.881 13.524 303.817 13.86C302.753 14.168 301.689 14.56 300.625 15.036L298.567 10.794C299.799 10.15 301.157 9.646 302.641 9.282C304.153 8.918 305.721 8.736 307.345 8.736ZM308.227 21.588C306.211 21.644 304.811 22.008 304.027 22.68C303.243 23.352 302.851 24.234 302.851 25.326C302.851 26.278 303.131 26.964 303.691 27.384C304.251 27.776 304.979 27.972 305.875 27.972C307.22 27.972 308.354 27.58 309.277 26.796C310.201 25.984 310.663 24.85 310.663 23.394V21.504L308.227 21.588ZM343.907 9.198V27.552H347.267V40.362H341.639V32.13H326.225V40.362H320.597V27.552H322.529C323.537 26.012 324.391 24.262 325.091 22.302C325.791 20.314 326.351 18.2 326.771 15.96C327.191 13.72 327.499 11.466 327.695 9.198H343.907ZM332.945 13.902C332.721 15.582 332.441 17.22 332.105 18.816C331.769 20.384 331.349 21.896 330.845 23.352C330.369 24.808 329.781 26.208 329.081 27.552H337.649V13.902H332.945ZM351.176 32.13V9.198H357.434V18.06H360.458C362.81 18.06 364.742 18.312 366.254 18.816C367.766 19.292 368.886 20.034 369.614 21.042C370.37 22.05 370.748 23.31 370.748 24.822C370.748 26.306 370.398 27.594 369.698 28.686C369.026 29.778 367.948 30.632 366.464 31.248C365.008 31.836 363.076 32.13 360.668 32.13H351.176ZM360.332 27.804C361.564 27.804 362.558 27.58 363.314 27.132C364.098 26.684 364.49 25.942 364.49 24.906C364.49 24.01 364.126 23.366 363.398 22.974C362.698 22.582 361.648 22.386 360.248 22.386H357.434V27.804H360.332ZM374.066 32.13V9.198H380.324V32.13H374.066ZM419.807 8.778C422.383 8.778 424.469 9.786 426.065 11.802C427.661 13.79 428.459 16.73 428.459 20.622C428.459 23.226 428.081 25.424 427.325 27.216C426.569 28.98 425.533 30.31 424.217 31.206C422.901 32.102 421.375 32.55 419.639 32.55C418.547 32.55 417.595 32.41 416.783 32.13C415.999 31.85 415.327 31.486 414.767 31.038C414.207 30.59 413.717 30.114 413.297 29.61H412.961C413.073 30.142 413.157 30.702 413.213 31.29C413.269 31.85 413.297 32.41 413.297 32.97V42.21H407.039V9.198H412.121L413.003 12.18H413.297C413.717 11.564 414.221 11.004 414.809 10.5C415.397 9.968 416.097 9.548 416.909 9.24C417.749 8.932 418.715 8.778 419.807 8.778ZM417.791 13.776C416.699 13.776 415.831 14 415.187 14.448C414.543 14.896 414.067 15.582 413.759 16.506C413.479 17.402 413.325 18.536 413.297 19.908V20.58C413.297 22.064 413.437 23.324 413.717 24.36C413.997 25.368 414.473 26.138 415.145 26.67C415.817 27.202 416.727 27.468 417.875 27.468C418.827 27.468 419.611 27.202 420.227 26.67C420.843 26.138 421.305 25.354 421.613 24.318C421.921 23.282 422.075 22.022 422.075 20.538C422.075 18.298 421.725 16.618 421.025 15.498C420.353 14.35 419.275 13.776 417.791 13.776ZM443.025 8.736C446.105 8.736 448.457 9.408 450.081 10.752C451.733 12.068 452.559 14.098 452.559 16.842V32.13H448.191L446.973 29.022H446.805C446.161 29.834 445.489 30.506 444.789 31.038C444.117 31.57 443.333 31.948 442.437 32.172C441.569 32.424 440.491 32.55 439.203 32.55C437.859 32.55 436.641 32.298 435.549 31.794C434.485 31.262 433.645 30.464 433.029 29.4C432.413 28.308 432.105 26.936 432.105 25.284C432.105 22.848 432.959 21.056 434.667 19.908C436.375 18.732 438.937 18.088 442.353 17.976L446.343 17.85V16.842C446.343 15.638 446.021 14.756 445.377 14.196C444.761 13.636 443.893 13.356 442.773 13.356C441.653 13.356 440.561 13.524 439.497 13.86C438.433 14.168 437.369 14.56 436.305 15.036L434.247 10.794C435.479 10.15 436.837 9.646 438.321 9.282C439.833 8.918 441.401 8.736 443.025 8.736ZM443.907 21.588C441.891 21.644 440.491 22.008 439.707 22.68C438.923 23.352 438.531 24.234 438.531 25.326C438.531 26.278 438.811 26.964 439.371 27.384C439.931 27.776 440.659 27.972 441.555 27.972C442.899 27.972 444.033 27.58 444.957 26.796C445.881 25.984 446.343 24.85 446.343 23.394V21.504L443.907 21.588ZM467.323 8.778C468.975 8.778 470.515 9.002 471.943 9.45C473.399 9.87 474.561 10.528 475.429 11.424C476.325 12.32 476.773 13.468 476.773 14.868C476.773 16.24 476.353 17.332 475.513 18.144C474.701 18.956 473.595 19.544 472.195 19.908V20.118C473.175 20.342 474.057 20.664 474.841 21.084C475.625 21.476 476.241 22.022 476.689 22.722C477.165 23.394 477.403 24.304 477.403 25.452C477.403 26.712 476.997 27.888 476.185 28.98C475.401 30.044 474.169 30.912 472.489 31.584C470.837 32.228 468.709 32.55 466.105 32.55C464.873 32.55 463.711 32.494 462.619 32.382C461.527 32.27 460.533 32.116 459.637 31.92C458.741 31.696 457.957 31.43 457.285 31.122V25.956C458.237 26.404 459.399 26.81 460.771 27.174C462.171 27.538 463.655 27.72 465.223 27.72C466.371 27.72 467.393 27.636 468.289 27.468C469.213 27.3 469.941 27.02 470.473 26.628C471.033 26.236 471.313 25.718 471.313 25.074C471.313 24.458 471.075 23.954 470.599 23.562C470.123 23.142 469.409 22.834 468.457 22.638C467.505 22.442 466.287 22.344 464.803 22.344H462.367V18.018H464.677C466.749 18.018 468.345 17.85 469.465 17.514C470.613 17.178 471.187 16.548 471.187 15.624C471.187 14.896 470.823 14.35 470.095 13.986C469.367 13.594 468.177 13.398 466.525 13.398C465.433 13.398 464.243 13.524 462.955 13.776C461.667 14.028 460.449 14.392 459.301 14.868L457.453 10.5C458.769 9.996 460.211 9.59 461.779 9.282C463.347 8.946 465.195 8.778 467.323 8.778ZM502.884 9.198V27.552H506.244V40.362H500.616V32.13H485.202V40.362H479.574V27.552H481.506C482.514 26.012 483.368 24.262 484.068 22.302C484.768 20.314 485.328 18.2 485.748 15.96C486.168 13.72 486.476 11.466 486.672 9.198H502.884ZM491.922 13.902C491.698 15.582 491.418 17.22 491.082 18.816C490.746 20.384 490.326 21.896 489.822 23.352C489.346 24.808 488.758 26.208 488.058 27.552H496.626V13.902H491.922ZM519.602 8.778C521.73 8.778 523.55 9.184 525.062 9.996C526.602 10.808 527.792 11.984 528.632 13.524C529.472 15.064 529.892 16.954 529.892 19.194V22.218H515.108C515.164 23.982 515.682 25.368 516.662 26.376C517.67 27.384 519.056 27.888 520.82 27.888C522.304 27.888 523.648 27.748 524.852 27.468C526.056 27.16 527.302 26.698 528.59 26.082V30.912C527.47 31.472 526.28 31.878 525.02 32.13C523.788 32.41 522.29 32.55 520.526 32.55C518.23 32.55 516.2 32.13 514.436 31.29C512.672 30.422 511.286 29.12 510.278 27.384C509.27 25.648 508.766 23.464 508.766 20.832C508.766 18.144 509.214 15.918 510.11 14.154C511.034 12.362 512.308 11.018 513.932 10.122C515.556 9.226 517.446 8.778 519.602 8.778ZM519.644 13.23C518.44 13.23 517.432 13.622 516.62 14.406C515.836 15.19 515.374 16.408 515.234 18.06H524.012C524.012 17.136 523.844 16.31 523.508 15.582C523.2 14.854 522.724 14.28 522.08 13.86C521.436 13.44 520.624 13.23 519.644 13.23ZM555.505 32.13H549.247V13.902H543.493C543.213 17.262 542.863 20.132 542.443 22.512C542.051 24.864 541.547 26.782 540.931 28.266C540.343 29.75 539.587 30.842 538.663 31.542C537.739 32.214 536.605 32.55 535.261 32.55C534.533 32.55 533.875 32.494 533.287 32.382C532.699 32.27 532.167 32.102 531.691 31.878V26.88C531.999 26.992 532.321 27.09 532.657 27.174C532.993 27.258 533.343 27.3 533.707 27.3C534.099 27.3 534.463 27.146 534.799 26.838C535.163 26.53 535.499 25.984 535.807 25.2C536.143 24.416 536.451 23.338 536.731 21.966C537.011 20.594 537.263 18.872 537.487 16.8C537.739 14.7 537.963 12.166 538.159 9.198H555.505V32.13ZM568.085 18.27C568.085 18.746 568.057 19.334 568.001 20.034C567.973 20.734 567.931 21.448 567.875 22.176C567.847 22.904 567.805 23.548 567.749 24.108C567.693 24.668 567.651 25.06 567.623 25.284L578.207 9.198H585.725V32.13H579.677V22.974C579.677 22.218 579.705 21.392 579.761 20.496C579.817 19.572 579.873 18.718 579.929 17.934C580.013 17.122 580.069 16.506 580.097 16.086L569.555 32.13H562.037V9.198H568.085V18.27ZM611.25 13.902H603.732V32.13H597.474V13.902H589.956V9.198H611.25V13.902ZM626.148 18.06C628.5 18.06 630.446 18.312 631.986 18.816C633.526 19.292 634.66 20.034 635.388 21.042C636.144 22.05 636.522 23.31 636.522 24.822C636.522 26.306 636.172 27.594 635.472 28.686C634.8 29.778 633.722 30.632 632.238 31.248C630.754 31.836 628.808 32.13 626.4 32.13H615.48V9.198H621.738V18.06H626.148ZM630.264 24.906C630.264 24.01 629.9 23.366 629.172 22.974C628.472 22.582 627.422 22.386 626.022 22.386H621.738V27.804H626.106C627.338 27.804 628.332 27.58 629.088 27.132C629.872 26.684 630.264 25.942 630.264 24.906ZM670.783 32.55C668.515 32.55 666.583 32.144 664.987 31.332C663.391 30.492 662.173 29.204 661.333 27.468C660.493 25.732 660.073 23.506 660.073 20.79C660.073 17.99 660.549 15.708 661.501 13.944C662.453 12.18 663.769 10.878 665.449 10.038C667.157 9.198 669.117 8.778 671.329 8.778C672.897 8.778 674.255 8.932 675.403 9.24C676.579 9.548 677.601 9.912 678.469 10.332L676.621 15.162C675.641 14.77 674.717 14.448 673.849 14.196C673.009 13.944 672.169 13.818 671.329 13.818C670.237 13.818 669.327 14.084 668.599 14.616C667.871 15.12 667.325 15.89 666.961 16.926C666.625 17.934 666.457 19.208 666.457 20.748C666.457 22.26 666.639 23.52 667.003 24.528C667.395 25.508 667.955 26.25 668.683 26.754C669.411 27.23 670.293 27.468 671.329 27.468C672.645 27.468 673.807 27.3 674.815 26.964C675.823 26.6 676.803 26.11 677.755 25.494V30.828C676.803 31.444 675.795 31.878 674.731 32.13C673.695 32.41 672.379 32.55 670.783 32.55ZM723.541 15.204C723.541 16.436 723.149 17.486 722.365 18.354C721.609 19.222 720.475 19.782 718.963 20.034V20.202C720.559 20.398 721.833 20.944 722.785 21.84C723.765 22.736 724.255 23.884 724.255 25.284C724.255 26.264 724.059 27.174 723.667 28.014C723.303 28.854 722.715 29.582 721.903 30.198C721.091 30.814 720.041 31.29 718.753 31.626C717.493 31.962 715.953 32.13 714.133 32.13H703.213V9.198H714.133C715.925 9.198 717.521 9.394 718.921 9.786C720.349 10.15 721.469 10.766 722.281 11.634C723.121 12.502 723.541 13.692 723.541 15.204ZM717.787 24.948C717.787 24.052 717.437 23.408 716.737 23.016C716.037 22.596 714.987 22.386 713.587 22.386H709.471V27.804H713.713C714.889 27.804 715.855 27.594 716.611 27.174C717.395 26.726 717.787 25.984 717.787 24.948ZM717.199 15.708C717.199 14.98 716.919 14.448 716.359 14.112C715.799 13.776 714.973 13.608 713.881 13.608H709.471V18.144H713.167C714.483 18.144 715.477 17.962 716.149 17.598C716.849 17.206 717.199 16.576 717.199 15.708ZM739.035 8.736C742.115 8.736 744.467 9.408 746.091 10.752C747.743 12.068 748.569 14.098 748.569 16.842V32.13H744.201L742.983 29.022H742.815C742.171 29.834 741.499 30.506 740.799 31.038C740.127 31.57 739.343 31.948 738.447 32.172C737.579 32.424 736.501 32.55 735.213 32.55C733.869 32.55 732.651 32.298 731.559 31.794C730.495 31.262 729.655 30.464 729.039 29.4C728.423 28.308 728.115 26.936 728.115 25.284C728.115 22.848 728.969 21.056 730.677 19.908C732.385 18.732 734.947 18.088 738.363 17.976L742.353 17.85V16.842C742.353 15.638 742.031 14.756 741.387 14.196C740.771 13.636 739.903 13.356 738.783 13.356C737.663 13.356 736.571 13.524 735.507 13.86C734.443 14.168 733.379 14.56 732.315 15.036L730.257 10.794C731.489 10.15 732.847 9.646 734.331 9.282C735.843 8.918 737.411 8.736 739.035 8.736ZM739.917 21.588C737.901 21.644 736.501 22.008 735.717 22.68C734.933 23.352 734.541 24.234 734.541 25.326C734.541 26.278 734.821 26.964 735.381 27.384C735.941 27.776 736.669 27.972 737.565 27.972C738.909 27.972 740.043 27.58 740.967 26.796C741.891 25.984 742.353 24.85 742.353 23.394V21.504L739.917 21.588ZM783.871 9.198V32.13H778.033V20.874C778.033 19.754 778.047 18.662 778.075 17.598C778.131 16.534 778.201 15.554 778.285 14.658H778.159L771.817 32.13H767.113L760.687 14.616H760.519C760.631 15.54 760.701 16.534 760.729 17.598C760.785 18.634 760.813 19.782 760.813 21.042V32.13H754.975V9.198H763.837L769.549 24.738L775.345 9.198H783.871ZM796.46 18.27C796.46 18.746 796.432 19.334 796.376 20.034C796.348 20.734 796.306 21.448 796.25 22.176C796.222 22.904 796.18 23.548 796.124 24.108C796.068 24.668 796.026 25.06 795.998 25.284L806.582 9.198H814.1V32.13H808.052V22.974C808.052 22.218 808.08 21.392 808.136 20.496C808.192 19.572 808.248 18.718 808.304 17.934C808.388 17.122 808.444 16.506 808.472 16.086L797.93 32.13H790.412V9.198H796.46V18.27ZM861.148 15.204C861.148 16.436 860.756 17.486 859.972 18.354C859.216 19.222 858.082 19.782 856.57 20.034V20.202C858.166 20.398 859.44 20.944 860.392 21.84C861.372 22.736 861.862 23.884 861.862 25.284C861.862 26.264 861.666 27.174 861.274 28.014C860.91 28.854 860.322 29.582 859.51 30.198C858.698 30.814 857.648 31.29 856.36 31.626C855.1 31.962 853.56 32.13 851.74 32.13H840.82V9.198H851.74C853.532 9.198 855.128 9.394 856.528 9.786C857.956 10.15 859.076 10.766 859.888 11.634C860.728 12.502 861.148 13.692 861.148 15.204ZM855.394 24.948C855.394 24.052 855.044 23.408 854.344 23.016C853.644 22.596 852.594 22.386 851.194 22.386H847.078V27.804H851.32C852.496 27.804 853.462 27.594 854.218 27.174C855.002 26.726 855.394 25.984 855.394 24.948ZM854.806 15.708C854.806 14.98 854.526 14.448 853.966 14.112C853.406 13.776 852.58 13.608 851.488 13.608H847.078V18.144H850.774C852.09 18.144 853.084 17.962 853.756 17.598C854.456 17.206 854.806 16.576 854.806 15.708ZM876.684 8.778C878.812 8.778 880.632 9.184 882.144 9.996C883.684 10.808 884.874 11.984 885.714 13.524C886.554 15.064 886.974 16.954 886.974 19.194V22.218H872.19C872.246 23.982 872.764 25.368 873.744 26.376C874.752 27.384 876.138 27.888 877.902 27.888C879.386 27.888 880.73 27.748 881.934 27.468C883.138 27.16 884.384 26.698 885.672 26.082V30.912C884.552 31.472 883.362 31.878 882.102 32.13C880.87 32.41 879.372 32.55 877.608 32.55C875.312 32.55 873.282 32.13 871.518 31.29C869.754 30.422 868.368 29.12 867.36 27.384C866.352 25.648 865.848 23.464 865.848 20.832C865.848 18.144 866.296 15.918 867.192 14.154C868.116 12.362 869.39 11.018 871.014 10.122C872.638 9.226 874.528 8.778 876.684 8.778ZM876.726 13.23C875.522 13.23 874.514 13.622 873.702 14.406C872.918 15.19 872.456 16.408 872.316 18.06H881.094C881.094 17.136 880.926 16.31 880.59 15.582C880.282 14.854 879.806 14.28 879.162 13.86C878.518 13.44 877.706 13.23 876.726 13.23ZM897.551 17.598C897.551 18.578 897.789 19.32 898.265 19.824C898.769 20.328 899.455 20.58 900.323 20.58C901.527 20.58 902.647 20.454 903.683 20.202C904.719 19.922 905.755 19.558 906.791 19.11V9.198H913.049V32.13H906.791V23.016C905.811 23.548 904.691 24.038 903.431 24.486C902.171 24.906 900.743 25.116 899.147 25.116C896.767 25.116 894.863 24.5 893.435 23.268C892.007 22.036 891.293 20.188 891.293 17.724V9.198H897.551V17.598ZM929.061 8.778C931.189 8.778 933.009 9.184 934.521 9.996C936.061 10.808 937.251 11.984 938.091 13.524C938.931 15.064 939.351 16.954 939.351 19.194V22.218H924.567C924.623 23.982 925.141 25.368 926.121 26.376C927.129 27.384 928.515 27.888 930.279 27.888C931.763 27.888 933.107 27.748 934.311 27.468C935.515 27.16 936.761 26.698 938.049 26.082V30.912C936.929 31.472 935.739 31.878 934.479 32.13C933.247 32.41 931.749 32.55 929.985 32.55C927.689 32.55 925.659 32.13 923.895 31.29C922.131 30.422 920.745 29.12 919.737 27.384C918.729 25.648 918.225 23.464 918.225 20.832C918.225 18.144 918.673 15.918 919.569 14.154C920.493 12.362 921.767 11.018 923.391 10.122C925.015 9.226 926.905 8.778 929.061 8.778ZM929.103 13.23C927.899 13.23 926.891 13.622 926.079 14.406C925.295 15.19 924.833 16.408 924.693 18.06H933.471C933.471 17.136 933.303 16.31 932.967 15.582C932.659 14.854 932.183 14.28 931.539 13.86C930.895 13.44 930.083 13.23 929.103 13.23ZM957.194 8.778C959.77 8.778 961.856 9.786 963.452 11.802C965.048 13.79 965.846 16.73 965.846 20.622C965.846 23.226 965.468 25.424 964.712 27.216C963.956 28.98 962.92 30.31 961.604 31.206C960.288 32.102 958.762 32.55 957.026 32.55C955.934 32.55 954.982 32.41 954.17 32.13C953.386 31.85 952.714 31.486 952.154 31.038C951.594 30.59 951.104 30.114 950.684 29.61H950.348C950.46 30.142 950.544 30.702 950.6 31.29C950.656 31.85 950.684 32.41 950.684 32.97V42.21H944.426V9.198H949.508L950.39 12.18H950.684C951.104 11.564 951.608 11.004 952.196 10.5C952.784 9.968 953.484 9.548 954.296 9.24C955.136 8.932 956.102 8.778 957.194 8.778ZM955.178 13.776C954.086 13.776 953.218 14 952.574 14.448C951.93 14.896 951.454 15.582 951.146 16.506C950.866 17.402 950.712 18.536 950.684 19.908V20.58C950.684 22.064 950.824 23.324 951.104 24.36C951.384 25.368 951.86 26.138 952.532 26.67C953.204 27.202 954.114 27.468 955.262 27.468C956.214 27.468 956.998 27.202 957.614 26.67C958.23 26.138 958.692 25.354 959 24.318C959.308 23.282 959.462 22.022 959.462 20.538C959.462 18.298 959.112 16.618 958.412 15.498C957.74 14.35 956.662 13.776 955.178 13.776ZM966.342 46.2C963.822 46.872 962.562 46.438 962.562 44.898C962.562 44.086 963.038 43.414 963.99 42.882C965.39 42.014 966.524 40.74 967.392 39.06C968.232 37.38 968.89 35.476 969.366 33.348C969.87 31.22 970.262 29.064 970.542 26.88C970.682 25.984 970.948 25.396 971.34 25.116C971.732 24.808 972.152 24.654 972.6 24.654C973.468 24.654 974.28 25.004 975.036 25.704C975.792 26.376 976.17 27.496 976.17 29.064C976.17 31.192 975.848 33.222 975.204 35.154C974.588 37.086 973.776 38.822 972.768 40.362C971.788 41.93 970.724 43.218 969.576 44.226C968.428 45.234 967.35 45.892 966.342 46.2ZM20.832 67.198V90.13H14.574V71.902H6.258V90.13H-9.08971e-07V67.198H20.832ZM48.2304 78.622C48.2304 80.526 47.9644 82.22 47.4324 83.704C46.9284 85.188 46.1864 86.448 45.2064 87.484C44.2544 88.492 43.0924 89.262 41.7204 89.794C40.3484 90.298 38.7944 90.55 37.0584 90.55C35.4624 90.55 33.9784 90.298 32.6064 89.794C31.2624 89.262 30.1004 88.492 29.1204 87.484C28.1404 86.448 27.3704 85.188 26.8104 83.704C26.2784 82.22 26.0124 80.526 26.0124 78.622C26.0124 76.074 26.4604 73.932 27.3564 72.196C28.2524 70.432 29.5404 69.088 31.2204 68.164C32.9004 67.24 34.8884 66.778 37.1844 66.778C39.3404 66.778 41.2444 67.24 42.8964 68.164C44.5484 69.088 45.8504 70.432 46.8024 72.196C47.7544 73.932 48.2304 76.074 48.2304 78.622ZM32.3964 78.622C32.3964 80.134 32.5504 81.408 32.8584 82.444C33.1944 83.452 33.7124 84.222 34.4124 84.754C35.1124 85.258 36.0224 85.51 37.1424 85.51C38.2624 85.51 39.1584 85.258 39.8304 84.754C40.5304 84.222 41.0344 83.452 41.3424 82.444C41.6784 81.408 41.8464 80.134 41.8464 78.622C41.8464 77.11 41.6784 75.85 41.3424 74.842C41.0344 73.834 40.5304 73.078 39.8304 72.574C39.1304 72.07 38.2204 71.818 37.1004 71.818C35.4484 71.818 34.2444 72.392 33.4884 73.54C32.7604 74.66 32.3964 76.354 32.3964 78.622ZM62.7263 90.55C60.4583 90.55 58.5263 90.144 56.9303 89.332C55.3343 88.492 54.1163 87.204 53.2763 85.468C52.4363 83.732 52.0163 81.506 52.0163 78.79C52.0163 75.99 52.4923 73.708 53.4443 71.944C54.3963 70.18 55.7123 68.878 57.3923 68.038C59.1003 67.198 61.0603 66.778 63.2723 66.778C64.8403 66.778 66.1983 66.932 67.3463 67.24C68.5223 67.548 69.5443 67.912 70.4123 68.332L68.5643 73.162C67.5843 72.77 66.6603 72.448 65.7923 72.196C64.9523 71.944 64.1123 71.818 63.2723 71.818C62.1803 71.818 61.2703 72.084 60.5423 72.616C59.8143 73.12 59.2683 73.89 58.9043 74.926C58.5683 75.934 58.4003 77.208 58.4003 78.748C58.4003 80.26 58.5823 81.52 58.9463 82.528C59.3383 83.508 59.8983 84.25 60.6263 84.754C61.3543 85.23 62.2363 85.468 63.2723 85.468C64.5883 85.468 65.7503 85.3 66.7583 84.964C67.7663 84.6 68.7463 84.11 69.6983 83.494V88.828C68.7463 89.444 67.7383 89.878 66.6743 90.13C65.6383 90.41 64.3223 90.55 62.7263 90.55ZM95.3046 73.204C95.3046 74.436 94.9126 75.486 94.1286 76.354C93.3726 77.222 92.2386 77.782 90.7266 78.034V78.202C92.3226 78.398 93.5966 78.944 94.5486 79.84C95.5286 80.736 96.0186 81.884 96.0186 83.284C96.0186 84.264 95.8226 85.174 95.4306 86.014C95.0666 86.854 94.4786 87.582 93.6666 88.198C92.8546 88.814 91.8046 89.29 90.5166 89.626C89.2566 89.962 87.7166 90.13 85.8966 90.13H74.9766V67.198H85.8966C87.6886 67.198 89.2846 67.394 90.6846 67.786C92.1126 68.15 93.2326 68.766 94.0446 69.634C94.8846 70.502 95.3046 71.692 95.3046 73.204ZM89.5506 82.948C89.5506 82.052 89.2006 81.408 88.5006 81.016C87.8006 80.596 86.7506 80.386 85.3506 80.386H81.2346V85.804H85.4766C86.6526 85.804 87.6186 85.594 88.3746 85.174C89.1586 84.726 89.5506 83.984 89.5506 82.948ZM88.9626 73.708C88.9626 72.98 88.6826 72.448 88.1226 72.112C87.5626 71.776 86.7366 71.608 85.6446 71.608H81.2346V76.144H84.9306C86.2466 76.144 87.2406 75.962 87.9126 75.598C88.6126 75.206 88.9626 74.576 88.9626 73.708ZM104.877 90.13H98.1146L104.289 81.058C103.505 80.722 102.763 80.274 102.063 79.714C101.391 79.126 100.845 78.384 100.425 77.488C100.005 76.592 99.7946 75.528 99.7946 74.296C99.7946 72 100.663 70.25 102.399 69.046C104.135 67.814 106.361 67.198 109.077 67.198H119.745V90.13H113.487V81.604H110.043L104.877 90.13ZM105.927 74.338C105.927 75.29 106.305 76.046 107.061 76.606C107.817 77.138 108.797 77.404 110.001 77.404H113.487V71.608H109.203C108.083 71.608 107.257 71.888 106.725 72.448C106.193 72.98 105.927 73.61 105.927 74.338ZM160.433 67.198V85.552H163.793V98.362H158.165V90.13H126.287V67.198H132.545V85.426H140.231V67.198H146.489V85.426H154.175V67.198H160.433ZM177.122 66.778C179.25 66.778 181.07 67.184 182.582 67.996C184.122 68.808 185.312 69.984 186.152 71.524C186.992 73.064 187.412 74.954 187.412 77.194V80.218H172.628C172.684 81.982 173.202 83.368 174.182 84.376C175.19 85.384 176.576 85.888 178.34 85.888C179.824 85.888 181.168 85.748 182.372 85.468C183.576 85.16 184.822 84.698 186.11 84.082V88.912C184.99 89.472 183.8 89.878 182.54 90.13C181.308 90.41 179.81 90.55 178.046 90.55C175.75 90.55 173.72 90.13 171.956 89.29C170.192 88.422 168.806 87.12 167.798 85.384C166.79 83.648 166.286 81.464 166.286 78.832C166.286 76.144 166.734 73.918 167.63 72.154C168.554 70.362 169.828 69.018 171.452 68.122C173.076 67.226 174.966 66.778 177.122 66.778ZM177.164 71.23C175.96 71.23 174.952 71.622 174.14 72.406C173.356 73.19 172.894 74.408 172.754 76.06H181.532C181.532 75.136 181.364 74.31 181.028 73.582C180.72 72.854 180.244 72.28 179.6 71.86C178.956 71.44 178.144 71.23 177.164 71.23ZM169.772 61.318C169.772 60.338 170.052 59.638 170.612 59.218C171.172 58.77 171.844 58.546 172.628 58.546C173.412 58.546 174.084 58.77 174.644 59.218C175.232 59.638 175.526 60.338 175.526 61.318C175.526 62.242 175.232 62.928 174.644 63.376C174.084 63.824 173.412 64.048 172.628 64.048C171.844 64.048 171.172 63.824 170.612 63.376C170.052 62.928 169.772 62.242 169.772 61.318ZM178.046 61.318C178.046 60.338 178.326 59.638 178.886 59.218C179.446 58.77 180.132 58.546 180.944 58.546C181.728 58.546 182.4 58.77 182.96 59.218C183.548 59.638 183.842 60.338 183.842 61.318C183.842 62.242 183.548 62.928 182.96 63.376C182.4 63.824 181.728 64.048 180.944 64.048C180.16 64.048 179.474 63.824 178.886 63.376C178.326 62.928 178.046 62.242 178.046 61.318ZM198.744 67.198V76.018H207.48V67.198H213.738V90.13H207.48V80.68H198.744V90.13H192.486V67.198H198.744ZM226.553 67.198V76.018H235.289V67.198H241.547V90.13H235.289V80.68H226.553V90.13H220.295V67.198H226.553ZM248.104 90.13V67.198H254.362V76.06H257.386C259.738 76.06 261.67 76.312 263.182 76.816C264.694 77.292 265.814 78.034 266.542 79.042C267.298 80.05 267.676 81.31 267.676 82.822C267.676 84.306 267.326 85.594 266.626 86.686C265.954 87.778 264.876 88.632 263.392 89.248C261.936 89.836 260.004 90.13 257.596 90.13H248.104ZM257.26 85.804C258.492 85.804 259.486 85.58 260.242 85.132C261.026 84.684 261.418 83.942 261.418 82.906C261.418 82.01 261.054 81.366 260.326 80.974C259.626 80.582 258.576 80.386 257.176 80.386H254.362V85.804H257.26ZM270.994 90.13V67.198H277.252V90.13H270.994ZM305.753 57.328C305.613 58.784 305.207 60.072 304.535 61.192C303.863 62.284 302.813 63.138 301.385 63.754C299.957 64.37 298.039 64.678 295.631 64.678C293.167 64.678 291.235 64.384 289.835 63.796C288.463 63.18 287.483 62.326 286.895 61.234C286.307 60.142 285.957 58.84 285.845 57.328H291.431C291.571 58.868 291.963 59.89 292.607 60.394C293.251 60.898 294.301 61.15 295.757 61.15C296.961 61.15 297.941 60.884 298.697 60.352C299.481 59.792 299.943 58.784 300.083 57.328H305.753ZM289.835 76.27C289.835 76.746 289.807 77.334 289.751 78.034C289.723 78.734 289.681 79.448 289.625 80.176C289.597 80.904 289.555 81.548 289.499 82.108C289.443 82.668 289.401 83.06 289.373 83.284L299.957 67.198H307.475V90.13H301.427V80.974C301.427 80.218 301.455 79.392 301.511 78.496C301.567 77.572 301.623 76.718 301.679 75.934C301.763 75.122 301.819 74.506 301.847 74.086L291.305 90.13H283.787V67.198H289.835V76.27ZM337.345 93.406C336.281 93.406 335.329 93.112 334.489 92.524C333.677 91.964 333.271 91.124 333.271 90.004C333.271 88.968 333.579 88.226 334.195 87.778C334.811 87.302 335.637 87.064 336.673 87.064C337.093 87.064 337.513 87.12 337.933 87.232C338.353 87.316 339.137 87.428 340.285 87.568C342.217 86.588 343.925 85.636 345.409 84.712C346.893 83.76 348.055 82.822 348.895 81.898C349.735 80.946 350.155 79.98 350.155 79C350.155 78.076 349.791 77.53 349.063 77.362C348.363 77.166 347.509 77.054 346.501 77.026C346.389 77.026 346.263 77.026 346.123 77.026C346.011 76.998 345.885 76.984 345.745 76.984C344.317 76.9 342.973 76.732 341.713 76.48C340.481 76.2 339.473 75.71 338.689 75.01C337.905 74.282 337.513 73.204 337.513 71.776C337.513 70.18 337.723 68.612 338.143 67.072C338.563 65.504 339.095 64.062 339.739 62.746C339.487 62.522 339.333 62.256 339.277 61.948C339.249 61.612 339.235 61.276 339.235 60.94C339.235 60.604 339.487 60.268 339.991 59.932C340.495 59.596 341.181 59.26 342.049 58.924C342.777 57.944 343.477 57.174 344.149 56.614C344.821 56.026 345.353 55.732 345.745 55.732C346.221 55.732 346.641 55.886 347.005 56.194C347.397 56.502 347.691 56.894 347.887 57.37C349.567 57.034 351.317 56.768 353.137 56.572C354.985 56.376 356.777 56.278 358.513 56.278C359.521 56.278 360.431 56.362 361.243 56.53C362.083 56.67 362.741 56.964 363.217 57.412C363.721 57.832 363.973 58.49 363.973 59.386C363.973 60.142 363.721 60.702 363.217 61.066C362.741 61.402 362.097 61.584 361.285 61.612C359.661 61.64 357.925 61.766 356.077 61.99C354.229 62.214 352.409 62.466 350.617 62.746C348.853 62.998 347.271 63.194 345.871 63.334C345.423 64.146 344.989 64.986 344.569 65.854C344.177 66.694 343.841 67.478 343.561 68.206C343.309 68.934 343.183 69.522 343.183 69.97C343.183 70.754 343.519 71.23 344.191 71.398C344.863 71.566 345.661 71.678 346.585 71.734C347.677 71.818 348.769 71.958 349.861 72.154C350.953 72.322 351.947 72.63 352.843 73.078C353.767 73.526 354.509 74.198 355.069 75.094C355.629 75.962 355.909 77.124 355.909 78.58C355.909 79.952 355.517 81.338 354.733 82.738C353.977 84.138 352.941 85.482 351.625 86.77C350.337 88.03 348.881 89.15 347.257 90.13C345.661 91.138 343.995 91.936 342.259 92.524C340.551 93.112 338.913 93.406 337.345 93.406ZM380.638 90.844C378.79 90.844 377.068 90.382 375.472 89.458C373.876 88.506 372.588 87.106 371.608 85.258C370.628 83.41 370.138 81.114 370.138 78.37C370.138 76.522 370.46 74.758 371.104 73.078C371.748 71.37 372.476 69.858 373.288 68.542C373.148 68.178 373.078 67.758 373.078 67.282C373.078 66.19 373.386 65.112 374.002 64.048C374.646 62.956 375.486 61.962 376.522 61.066C377.586 60.17 378.776 59.456 380.092 58.924C381.408 58.392 382.752 58.126 384.124 58.126C386.252 58.126 388.128 58.658 389.752 59.722C391.376 60.786 392.65 62.27 393.574 64.174C394.498 66.05 394.96 68.22 394.96 70.684C394.96 73.652 394.568 76.368 393.784 78.832C393.028 81.296 391.978 83.424 390.634 85.216C389.318 87.008 387.792 88.394 386.056 89.374C384.348 90.354 382.542 90.844 380.638 90.844ZM380.89 64.72C380.946 64.888 380.974 65.084 380.974 65.308C380.974 65.728 380.89 66.078 380.722 66.358C380.554 66.638 380.33 66.946 380.05 67.282C379.686 67.702 379.266 68.346 378.79 69.214C378.342 70.054 377.908 71.034 377.488 72.154C377.068 73.274 376.718 74.436 376.438 75.64C376.186 76.816 376.06 77.936 376.06 79C376.06 80.876 376.41 82.346 377.11 83.41C377.81 84.474 378.846 85.006 380.218 85.006C381.366 85.006 382.472 84.628 383.536 83.872C384.628 83.116 385.594 82.094 386.434 80.806C387.274 79.49 387.932 77.992 388.408 76.312C388.912 74.632 389.164 72.854 389.164 70.978C389.164 69.634 388.982 68.416 388.618 67.324C388.254 66.232 387.736 65.364 387.064 64.72C386.392 64.076 385.594 63.754 384.67 63.754C383.914 63.754 383.214 63.852 382.57 64.048C381.954 64.216 381.394 64.44 380.89 64.72ZM410.74 76.06C409.648 76.06 408.752 75.85 408.052 75.43C407.38 75.01 407.044 74.31 407.044 73.33C407.044 73.05 407.45 72.7 408.262 72.28C409.074 71.832 410.18 71.398 411.58 70.978C413.008 70.53 414.646 70.166 416.494 69.886C418.342 69.578 420.288 69.424 422.332 69.424C424.04 69.424 425.216 69.634 425.86 70.054C426.532 70.474 426.868 71.174 426.868 72.154C426.868 72.546 426.42 72.966 425.524 73.414C424.628 73.862 423.41 74.296 421.87 74.716C420.33 75.108 418.594 75.43 416.662 75.682C414.758 75.934 412.784 76.06 410.74 76.06ZM452.145 90.13H445.887V71.902H440.133C439.853 75.262 439.503 78.132 439.083 80.512C438.691 82.864 438.187 84.782 437.571 86.266C436.983 87.75 436.227 88.842 435.303 89.542C434.379 90.214 433.245 90.55 431.901 90.55C431.173 90.55 430.515 90.494 429.927 90.382C429.339 90.27 428.807 90.102 428.331 89.878V84.88C428.639 84.992 428.961 85.09 429.297 85.174C429.633 85.258 429.983 85.3 430.347 85.3C430.739 85.3 431.103 85.146 431.439 84.838C431.803 84.53 432.139 83.984 432.447 83.2C432.783 82.416 433.091 81.338 433.371 79.966C433.651 78.594 433.903 76.872 434.127 74.8C434.379 72.7 434.603 70.166 434.799 67.198H452.145V90.13ZM468.128 66.778C470.256 66.778 472.076 67.184 473.588 67.996C475.128 68.808 476.318 69.984 477.158 71.524C477.998 73.064 478.418 74.954 478.418 77.194V80.218H463.634C463.69 81.982 464.208 83.368 465.188 84.376C466.196 85.384 467.582 85.888 469.346 85.888C470.83 85.888 472.174 85.748 473.378 85.468C474.582 85.16 475.828 84.698 477.116 84.082V88.912C475.996 89.472 474.806 89.878 473.546 90.13C472.314 90.41 470.816 90.55 469.052 90.55C466.756 90.55 464.726 90.13 462.962 89.29C461.198 88.422 459.812 87.12 458.804 85.384C457.796 83.648 457.292 81.464 457.292 78.832C457.292 76.144 457.74 73.918 458.636 72.154C459.56 70.362 460.834 69.018 462.458 68.122C464.082 67.226 465.972 66.778 468.128 66.778ZM468.17 71.23C466.966 71.23 465.958 71.622 465.146 72.406C464.362 73.19 463.9 74.408 463.76 76.06H472.538C472.538 75.136 472.37 74.31 472.034 73.582C471.726 72.854 471.25 72.28 470.606 71.86C469.962 71.44 469.15 71.23 468.17 71.23ZM502.476 71.902H494.958V90.13H488.7V71.902H481.182V67.198H502.476V71.902ZM512.965 67.198V76.018H521.701V67.198H527.959V90.13H521.701V80.68H512.965V90.13H506.707V67.198H512.965ZM543.966 66.778C546.094 66.778 547.914 67.184 549.426 67.996C550.966 68.808 552.156 69.984 552.996 71.524C553.836 73.064 554.256 74.954 554.256 77.194V80.218H539.472C539.528 81.982 540.046 83.368 541.026 84.376C542.034 85.384 543.42 85.888 545.184 85.888C546.668 85.888 548.012 85.748 549.216 85.468C550.42 85.16 551.666 84.698 552.954 84.082V88.912C551.834 89.472 550.644 89.878 549.384 90.13C548.152 90.41 546.654 90.55 544.89 90.55C542.594 90.55 540.564 90.13 538.8 89.29C537.036 88.422 535.65 87.12 534.642 85.384C533.634 83.648 533.13 81.464 533.13 78.832C533.13 76.144 533.578 73.918 534.474 72.154C535.398 70.362 536.672 69.018 538.296 68.122C539.92 67.226 541.81 66.778 543.966 66.778ZM544.008 71.23C542.804 71.23 541.796 71.622 540.984 72.406C540.2 73.19 539.738 74.408 539.598 76.06H548.376C548.376 75.136 548.208 74.31 547.872 73.582C547.564 72.854 547.088 72.28 546.444 71.86C545.8 71.44 544.988 71.23 544.008 71.23ZM588.226 67.198V90.13H582.388V78.874C582.388 77.754 582.402 76.662 582.43 75.598C582.486 74.534 582.556 73.554 582.64 72.658H582.514L576.172 90.13H571.468L565.042 72.616H564.874C564.986 73.54 565.056 74.534 565.084 75.598C565.14 76.634 565.168 77.782 565.168 79.042V90.13H559.33V67.198H568.192L573.904 82.738L579.7 67.198H588.226ZM591.492 67.198H598.338L602.664 80.092C602.804 80.512 602.916 80.932 603 81.352C603.112 81.772 603.196 82.206 603.252 82.654C603.336 83.102 603.392 83.578 603.42 84.082H603.546C603.63 83.354 603.742 82.668 603.882 82.024C604.05 81.352 604.232 80.708 604.428 80.092L608.67 67.198H615.39L605.688 93.07C605.1 94.638 604.33 95.954 603.378 97.018C602.454 98.082 601.376 98.88 600.144 99.412C598.912 99.944 597.568 100.21 596.112 100.21C595.412 100.21 594.796 100.168 594.264 100.084C593.76 100.028 593.312 99.958 592.92 99.874V94.918C593.228 94.974 593.592 95.03 594.012 95.086C594.46 95.142 594.922 95.17 595.398 95.17C596.266 95.17 597.008 94.988 597.624 94.624C598.268 94.26 598.8 93.756 599.22 93.112C599.64 92.496 599.976 91.824 600.228 91.096L600.606 89.962L591.492 67.198ZM670.527 78.622C670.527 81.17 670.093 83.34 669.225 85.132C668.357 86.896 667.111 88.24 665.487 89.164C663.891 90.088 661.987 90.55 659.775 90.55C657.899 90.55 656.205 90.2 654.693 89.5C653.209 88.772 651.991 87.68 651.039 86.224C650.115 84.768 649.513 82.92 649.233 80.68H645.117V90.13H638.859V67.198H645.117V76.018H649.317C649.597 74.03 650.199 72.35 651.123 70.978C652.075 69.606 653.293 68.57 654.777 67.87C656.289 67.142 657.997 66.778 659.901 66.778C661.973 66.778 663.807 67.24 665.403 68.164C666.999 69.088 668.245 70.432 669.141 72.196C670.065 73.932 670.527 76.074 670.527 78.622ZM655.533 78.622C655.533 80.134 655.673 81.408 655.953 82.444C656.261 83.452 656.737 84.222 657.381 84.754C658.025 85.258 658.851 85.51 659.859 85.51C660.867 85.51 661.679 85.258 662.295 84.754C662.939 84.222 663.401 83.452 663.681 82.444C663.989 81.408 664.143 80.134 664.143 78.622C664.143 77.11 663.989 75.85 663.681 74.842C663.401 73.834 662.939 73.078 662.295 72.574C661.679 72.07 660.853 71.818 659.817 71.818C658.809 71.818 657.983 72.07 657.339 72.574C656.723 73.078 656.261 73.834 655.953 74.842C655.673 75.85 655.533 77.11 655.533 78.622ZM674.305 76.396C674.305 73.008 674.725 70.138 675.565 67.786C676.405 65.406 677.735 63.516 679.555 62.116C681.375 60.688 683.755 59.722 686.695 59.218C688.179 58.966 689.677 58.756 691.189 58.588C692.729 58.392 694.311 58.196 695.935 58L696.649 63.46C695.949 63.544 695.179 63.642 694.339 63.754C693.499 63.838 692.645 63.936 691.777 64.048C690.937 64.132 690.125 64.23 689.341 64.342C688.557 64.454 687.843 64.552 687.199 64.636C686.163 64.804 685.253 65.042 684.469 65.35C683.685 65.63 683.027 66.036 682.495 66.568C681.963 67.1 681.543 67.828 681.235 68.752C680.955 69.648 680.773 70.81 680.689 72.238H680.983C681.319 71.706 681.781 71.174 682.369 70.642C682.985 70.11 683.741 69.662 684.637 69.298C685.533 68.934 686.555 68.752 687.703 68.752C689.523 68.752 691.105 69.13 692.449 69.886C693.793 70.642 694.829 71.762 695.557 73.246C696.285 74.73 696.649 76.578 696.649 78.79C696.649 81.394 696.173 83.564 695.221 85.3C694.269 87.036 692.953 88.352 691.273 89.248C689.593 90.116 687.647 90.55 685.435 90.55C683.755 90.55 682.229 90.242 680.857 89.626C679.485 89.01 678.309 88.1 677.329 86.896C676.349 85.692 675.593 84.208 675.061 82.444C674.557 80.68 674.305 78.664 674.305 76.396ZM685.813 85.468C686.709 85.468 687.479 85.272 688.123 84.88C688.795 84.488 689.313 83.844 689.677 82.948C690.069 82.052 690.265 80.848 690.265 79.336C690.265 77.516 689.957 76.074 689.341 75.01C688.753 73.918 687.717 73.372 686.233 73.372C685.337 73.372 684.497 73.596 683.713 74.044C682.957 74.464 682.313 74.954 681.781 75.514C681.249 76.046 680.885 76.508 680.689 76.9C680.689 77.992 680.773 79.056 680.941 80.092C681.109 81.1 681.389 82.01 681.781 82.822C682.173 83.634 682.691 84.278 683.335 84.754C684.007 85.23 684.833 85.468 685.813 85.468ZM707.866 76.27C707.866 76.746 707.838 77.334 707.782 78.034C707.754 78.734 707.712 79.448 707.656 80.176C707.628 80.904 707.586 81.548 707.53 82.108C707.474 82.668 707.432 83.06 707.404 83.284L717.988 67.198H725.506V90.13H719.458V80.974C719.458 80.218 719.486 79.392 719.542 78.496C719.598 77.572 719.654 76.718 719.71 75.934C719.794 75.122 719.85 74.506 719.878 74.086L709.336 90.13H701.818V67.198H707.866V76.27ZM752.585 90.13H746.327V71.902H740.573C740.293 75.262 739.943 78.132 739.523 80.512C739.131 82.864 738.627 84.782 738.011 86.266C737.423 87.75 736.667 88.842 735.743 89.542C734.819 90.214 733.685 90.55 732.341 90.55C731.613 90.55 730.955 90.494 730.367 90.382C729.779 90.27 729.247 90.102 728.771 89.878V84.88C729.079 84.992 729.401 85.09 729.737 85.174C730.073 85.258 730.423 85.3 730.787 85.3C731.179 85.3 731.543 85.146 731.879 84.838C732.243 84.53 732.579 83.984 732.887 83.2C733.223 82.416 733.531 81.338 733.811 79.966C734.091 78.594 734.343 76.872 734.567 74.8C734.819 72.7 735.043 70.166 735.239 67.198H752.585V90.13ZM768.567 66.778C770.695 66.778 772.515 67.184 774.027 67.996C775.567 68.808 776.757 69.984 777.597 71.524C778.437 73.064 778.857 74.954 778.857 77.194V80.218H764.073C764.129 81.982 764.647 83.368 765.627 84.376C766.635 85.384 768.021 85.888 769.785 85.888C771.269 85.888 772.613 85.748 773.817 85.468C775.021 85.16 776.267 84.698 777.555 84.082V88.912C776.435 89.472 775.245 89.878 773.985 90.13C772.753 90.41 771.255 90.55 769.491 90.55C767.195 90.55 765.165 90.13 763.401 89.29C761.637 88.422 760.251 87.12 759.243 85.384C758.235 83.648 757.731 81.464 757.731 78.832C757.731 76.144 758.179 73.918 759.075 72.154C759.999 70.362 761.273 69.018 762.897 68.122C764.521 67.226 766.411 66.778 768.567 66.778ZM768.609 71.23C767.405 71.23 766.397 71.622 765.585 72.406C764.801 73.19 764.339 74.408 764.199 76.06H772.977C772.977 75.136 772.809 74.31 772.473 73.582C772.165 72.854 771.689 72.28 771.045 71.86C770.401 71.44 769.589 71.23 768.609 71.23ZM815.6 78.622C815.6 81.17 815.166 83.34 814.298 85.132C813.43 86.896 812.184 88.24 810.56 89.164C808.964 90.088 807.06 90.55 804.848 90.55C802.972 90.55 801.278 90.2 799.766 89.5C798.282 88.772 797.064 87.68 796.112 86.224C795.188 84.768 794.586 82.92 794.306 80.68H790.19V90.13H783.932V67.198H790.19V76.018H794.39C794.67 74.03 795.272 72.35 796.196 70.978C797.148 69.606 798.366 68.57 799.85 67.87C801.362 67.142 803.07 66.778 804.974 66.778C807.046 66.778 808.88 67.24 810.476 68.164C812.072 69.088 813.318 70.432 814.214 72.196C815.138 73.932 815.6 76.074 815.6 78.622ZM800.606 78.622C800.606 80.134 800.746 81.408 801.026 82.444C801.334 83.452 801.81 84.222 802.454 84.754C803.098 85.258 803.924 85.51 804.932 85.51C805.94 85.51 806.752 85.258 807.368 84.754C808.012 84.222 808.474 83.452 808.754 82.444C809.062 81.408 809.216 80.134 809.216 78.622C809.216 77.11 809.062 75.85 808.754 74.842C808.474 73.834 808.012 73.078 807.368 72.574C806.752 72.07 805.926 71.818 804.89 71.818C803.882 71.818 803.056 72.07 802.412 72.574C801.796 73.078 801.334 73.834 801.026 74.842C800.746 75.85 800.606 77.11 800.606 78.622ZM859.801 90.13L857.617 82.99H846.697L844.513 90.13H837.667L848.251 60.016H856.021L866.647 90.13H859.801ZM853.921 70.684C853.781 70.208 853.599 69.606 853.375 68.878C853.151 68.15 852.927 67.408 852.703 66.652C852.479 65.896 852.297 65.238 852.157 64.678C852.017 65.238 851.821 65.938 851.569 66.778C851.345 67.59 851.121 68.374 850.897 69.13C850.701 69.858 850.547 70.376 850.435 70.684L848.293 77.656H856.105L853.921 70.684ZM890.479 90.13H884.221V71.902H878.467C878.187 75.262 877.837 78.132 877.417 80.512C877.025 82.864 876.521 84.782 875.905 86.266C875.317 87.75 874.561 88.842 873.637 89.542C872.713 90.214 871.579 90.55 870.235 90.55C869.507 90.55 868.849 90.494 868.261 90.382C867.673 90.27 867.141 90.102 866.665 89.878V84.88C866.973 84.992 867.295 85.09 867.631 85.174C867.967 85.258 868.317 85.3 868.681 85.3C869.073 85.3 869.437 85.146 869.773 84.838C870.137 84.53 870.473 83.984 870.781 83.2C871.117 82.416 871.425 81.338 871.705 79.966C871.985 78.594 872.237 76.872 872.461 74.8C872.713 72.7 872.937 70.166 873.133 67.198H890.479V90.13ZM925.908 67.198V90.13H920.07V78.874C920.07 77.754 920.084 76.662 920.112 75.598C920.168 74.534 920.238 73.554 920.322 72.658H920.196L913.854 90.13H909.15L902.724 72.616H902.556C902.668 73.54 902.738 74.534 902.766 75.598C902.822 76.634 902.85 77.782 902.85 79.042V90.13H897.012V67.198H905.874L911.586 82.738L917.382 67.198H925.908ZM941.857 66.736C944.937 66.736 947.289 67.408 948.913 68.752C950.565 70.068 951.391 72.098 951.391 74.842V90.13H947.023L945.805 87.022H945.637C944.993 87.834 944.321 88.506 943.621 89.038C942.949 89.57 942.165 89.948 941.269 90.172C940.401 90.424 939.323 90.55 938.035 90.55C936.691 90.55 935.473 90.298 934.381 89.794C933.317 89.262 932.477 88.464 931.861 87.4C931.245 86.308 930.937 84.936 930.937 83.284C930.937 80.848 931.791 79.056 933.499 77.908C935.207 76.732 937.769 76.088 941.185 75.976L945.175 75.85V74.842C945.175 73.638 944.853 72.756 944.209 72.196C943.593 71.636 942.725 71.356 941.605 71.356C940.485 71.356 939.393 71.524 938.329 71.86C937.265 72.168 936.201 72.56 935.137 73.036L933.079 68.794C934.311 68.15 935.669 67.646 937.153 67.282C938.665 66.918 940.233 66.736 941.857 66.736ZM942.739 79.588C940.723 79.644 939.323 80.008 938.539 80.68C937.755 81.352 937.363 82.234 937.363 83.326C937.363 84.278 937.643 84.964 938.203 85.384C938.763 85.776 939.491 85.972 940.387 85.972C941.731 85.972 942.865 85.58 943.789 84.796C944.713 83.984 945.175 82.85 945.175 81.394V79.504L942.739 79.588ZM966.155 66.778C967.807 66.778 969.347 67.002 970.775 67.45C972.231 67.87 973.393 68.528 974.261 69.424C975.157 70.32 975.605 71.468 975.605 72.868C975.605 74.24 975.185 75.332 974.345 76.144C973.533 76.956 972.427 77.544 971.027 77.908V78.118C972.007 78.342 972.889 78.664 973.673 79.084C974.457 79.476 975.073 80.022 975.521 80.722C975.997 81.394 976.235 82.304 976.235 83.452C976.235 84.712 975.829 85.888 975.017 86.98C974.233 88.044 973.001 88.912 971.321 89.584C969.669 90.228 967.541 90.55 964.937 90.55C963.705 90.55 962.543 90.494 961.451 90.382C960.359 90.27 959.365 90.116 958.469 89.92C957.573 89.696 956.789 89.43 956.117 89.122V83.956C957.069 84.404 958.231 84.81 959.603 85.174C961.003 85.538 962.487 85.72 964.055 85.72C965.203 85.72 966.225 85.636 967.121 85.468C968.045 85.3 968.773 85.02 969.305 84.628C969.865 84.236 970.145 83.718 970.145 83.074C970.145 82.458 969.907 81.954 969.431 81.562C968.955 81.142 968.241 80.834 967.289 80.638C966.337 80.442 965.119 80.344 963.635 80.344H961.199V76.018H963.509C965.581 76.018 967.177 75.85 968.297 75.514C969.445 75.178 970.019 74.548 970.019 73.624C970.019 72.896 969.655 72.35 968.927 71.986C968.199 71.594 967.009 71.398 965.357 71.398C964.265 71.398 963.075 71.524 961.787 71.776C960.499 72.028 959.281 72.392 958.133 72.868L956.285 68.5C957.601 67.996 959.043 67.59 960.611 67.282C962.179 66.946 964.027 66.778 966.155 66.778ZM990.502 66.736C993.582 66.736 995.934 67.408 997.558 68.752C999.21 70.068 1000.04 72.098 1000.04 74.842V90.13H995.668L994.45 87.022H994.282C993.638 87.834 992.966 88.506 992.266 89.038C991.594 89.57 990.81 89.948 989.914 90.172C989.046 90.424 987.968 90.55 986.68 90.55C985.336 90.55 984.118 90.298 983.026 89.794C981.962 89.262 981.122 88.464 980.506 87.4C979.89 86.308 979.582 84.936 979.582 83.284C979.582 80.848 980.436 79.056 982.144 77.908C983.852 76.732 986.414 76.088 989.83 75.976L993.82 75.85V74.842C993.82 73.638 993.498 72.756 992.854 72.196C992.238 71.636 991.37 71.356 990.25 71.356C989.13 71.356 988.038 71.524 986.974 71.86C985.91 72.168 984.846 72.56 983.782 73.036L981.724 68.794C982.956 68.15 984.314 67.646 985.798 67.282C987.31 66.918 988.878 66.736 990.502 66.736ZM991.384 79.588C989.368 79.644 987.968 80.008 987.184 80.68C986.4 81.352 986.008 82.234 986.008 83.326C986.008 84.278 986.288 84.964 986.848 85.384C987.408 85.776 988.136 85.972 989.032 85.972C990.376 85.972 991.51 85.58 992.434 84.796C993.358 83.984 993.82 82.85 993.82 81.394V79.504L991.384 79.588ZM1009 80.554C1008.61 80.554 1008.26 80.4 1007.95 80.092C1007.67 79.756 1007.53 79.154 1007.53 78.286C1007.53 77.67 1007.65 76.704 1007.87 75.388C1008.09 74.072 1008.4 72.56 1008.79 70.852C1009.21 69.116 1009.69 67.31 1010.22 65.434C1010.75 63.53 1011.33 61.668 1011.94 59.848C1012.56 58 1013.19 56.334 1013.83 54.85C1014.14 54.122 1014.62 53.576 1015.26 53.212C1015.93 52.82 1016.66 52.624 1017.45 52.624C1018.26 52.624 1018.85 53.002 1019.21 53.758C1019.57 54.514 1019.76 55.34 1019.76 56.236C1019.76 56.572 1019.59 57.202 1019.25 58.126C1018.94 59.05 1018.52 60.17 1017.99 61.486C1017.46 62.802 1016.87 64.23 1016.23 65.77C1015.61 67.282 1014.98 68.822 1014.34 70.39C1013.72 71.93 1013.15 73.4 1012.62 74.8C1012.08 76.2 1011.65 77.432 1011.31 78.496C1011.09 79.252 1010.78 79.784 1010.39 80.092C1010.03 80.4 1009.56 80.554 1009 80.554ZM1006.82 92.272C1006.48 92.272 1006.09 92.188 1005.64 92.02C1005.2 91.852 1004.8 91.446 1004.47 90.802C1004.16 90.186 1004.01 89.192 1004.01 87.82C1004.01 86.756 1004.34 85.944 1005.01 85.384C1005.69 84.824 1006.58 84.544 1007.7 84.544C1008.65 84.544 1009.38 84.81 1009.89 85.342C1010.42 85.874 1010.68 86.63 1010.68 87.61C1010.68 88.506 1010.46 89.304 1010.01 90.004C1009.59 90.704 1009.07 91.25 1008.46 91.642C1007.87 92.062 1007.32 92.272 1006.82 92.272Z" fill="#E32929"/>
</svg>
