<svg width="1033" height="101" viewBox="0 0 1033 101" fill="none" xmlns="http://www.w3.org/2000/svg">
<path d="M37.7769 32.13L30.5529 8.61H30.3849C30.4129 9.17 30.4549 10.01 30.5109 11.13C30.5669 12.25 30.6229 13.454 30.6789 14.742C30.7349 16.002 30.7629 17.15 30.7629 18.186V32.13H25.0929V2.142H33.7449L40.8429 25.074H40.9689L48.4869 2.142H57.1389V32.13H51.2169V17.934C51.2169 16.982 51.2309 15.89 51.2589 14.658C51.3149 13.426 51.3569 12.264 51.3849 11.172C51.4409 10.052 51.4829 9.212 51.5109 8.652H51.3429L43.6149 32.13H37.7769ZM64.21 32.13V9.198H70.468V18.06H73.492C75.844 18.06 77.776 18.312 79.288 18.816C80.8 19.292 81.92 20.034 82.648 21.042C83.404 22.05 83.782 23.31 83.782 24.822C83.782 26.306 83.432 27.594 82.732 28.686C82.06 29.778 80.982 30.632 79.498 31.248C78.042 31.836 76.11 32.13 73.702 32.13H64.21ZM73.366 27.804C74.598 27.804 75.592 27.58 76.348 27.132C77.132 26.684 77.524 25.942 77.524 24.906C77.524 24.01 77.16 23.366 76.432 22.974C75.732 22.582 74.682 22.386 73.282 22.386H70.468V27.804H73.366ZM87.1 32.13V9.198H93.358V32.13H87.1ZM118.687 18.396C118.687 15.008 119.107 12.138 119.947 9.786C120.787 7.406 122.117 5.516 123.937 4.116C125.757 2.688 128.137 1.722 131.077 1.218C132.561 0.966002 134.059 0.756002 135.571 0.588003C137.111 0.392004 138.693 0.196004 140.317 2.98023e-06L141.031 5.46C140.331 5.544 139.561 5.642 138.721 5.754C137.881 5.838 137.027 5.936 136.159 6.048C135.319 6.132 134.507 6.23 133.723 6.342C132.939 6.454 132.225 6.552 131.581 6.636C130.545 6.804 129.635 7.042 128.851 7.35C128.067 7.63 127.409 8.036 126.877 8.568C126.345 9.1 125.925 9.828 125.617 10.752C125.337 11.648 125.155 12.81 125.071 14.238H125.365C125.701 13.706 126.163 13.174 126.751 12.642C127.367 12.11 128.123 11.662 129.019 11.298C129.915 10.934 130.937 10.752 132.085 10.752C133.905 10.752 135.487 11.13 136.831 11.886C138.175 12.642 139.211 13.762 139.939 15.246C140.667 16.73 141.031 18.578 141.031 20.79C141.031 23.394 140.555 25.564 139.603 27.3C138.651 29.036 137.335 30.352 135.655 31.248C133.975 32.116 132.029 32.55 129.817 32.55C128.137 32.55 126.611 32.242 125.239 31.626C123.867 31.01 122.691 30.1 121.711 28.896C120.731 27.692 119.975 26.208 119.443 24.444C118.939 22.68 118.687 20.664 118.687 18.396ZM130.195 27.468C131.091 27.468 131.861 27.272 132.505 26.88C133.177 26.488 133.695 25.844 134.059 24.948C134.451 24.052 134.647 22.848 134.647 21.336C134.647 19.516 134.339 18.074 133.723 17.01C133.135 15.918 132.099 15.372 130.615 15.372C129.719 15.372 128.879 15.596 128.095 16.044C127.339 16.464 126.695 16.954 126.163 17.514C125.631 18.046 125.267 18.508 125.071 18.9C125.071 19.992 125.155 21.056 125.323 22.092C125.491 23.1 125.771 24.01 126.163 24.822C126.555 25.634 127.073 26.278 127.717 26.754C128.389 27.23 129.215 27.468 130.195 27.468ZM142.924 9.198H149.77L154.096 22.092C154.236 22.512 154.348 22.932 154.432 23.352C154.544 23.772 154.628 24.206 154.684 24.654C154.768 25.102 154.824 25.578 154.852 26.082H154.978C155.062 25.354 155.174 24.668 155.314 24.024C155.482 23.352 155.664 22.708 155.86 22.092L160.102 9.198H166.822L157.12 35.07C156.532 36.638 155.762 37.954 154.81 39.018C153.886 40.082 152.808 40.88 151.576 41.412C150.344 41.944 149 42.21 147.544 42.21C146.844 42.21 146.228 42.168 145.696 42.084C145.192 42.028 144.744 41.958 144.352 41.874V36.918C144.66 36.974 145.024 37.03 145.444 37.086C145.892 37.142 146.354 37.17 146.83 37.17C147.698 37.17 148.44 36.988 149.056 36.624C149.7 36.26 150.232 35.756 150.652 35.112C151.072 34.496 151.408 33.824 151.66 33.096L152.038 31.962L142.924 9.198ZM189.914 9.198V27.552H193.274V40.362H187.646V32.13H172.232V40.362H166.604V27.552H168.536C169.544 26.012 170.398 24.262 171.098 22.302C171.798 20.314 172.358 18.2 172.778 15.96C173.198 13.72 173.506 11.466 173.702 9.198H189.914ZM178.952 13.902C178.728 15.582 178.448 17.22 178.112 18.816C177.776 20.384 177.356 21.896 176.852 23.352C176.376 24.808 175.788 26.208 175.088 27.552H183.656V13.902H178.952ZM206.633 8.778C208.761 8.778 210.581 9.184 212.093 9.996C213.633 10.808 214.823 11.984 215.663 13.524C216.503 15.064 216.923 16.954 216.923 19.194V22.218H202.139C202.195 23.982 202.713 25.368 203.693 26.376C204.701 27.384 206.087 27.888 207.851 27.888C209.335 27.888 210.679 27.748 211.883 27.468C213.087 27.16 214.333 26.698 215.621 26.082V30.912C214.501 31.472 213.311 31.878 212.051 32.13C210.819 32.41 209.321 32.55 207.557 32.55C205.261 32.55 203.231 32.13 201.467 31.29C199.703 30.422 198.317 29.12 197.309 27.384C196.301 25.648 195.797 23.464 195.797 20.832C195.797 18.144 196.245 15.918 197.141 14.154C198.065 12.362 199.339 11.018 200.963 10.122C202.587 9.226 204.477 8.778 206.633 8.778ZM206.675 13.23C205.471 13.23 204.463 13.622 203.651 14.406C202.867 15.19 202.405 16.408 202.265 18.06H211.043C211.043 17.136 210.875 16.31 210.539 15.582C210.231 14.854 209.755 14.28 209.111 13.86C208.467 13.44 207.655 13.23 206.675 13.23ZM250.893 9.198V32.13H245.055V20.874C245.055 19.754 245.069 18.662 245.097 17.598C245.153 16.534 245.223 15.554 245.307 14.658H245.181L238.839 32.13H234.135L227.709 14.616H227.541C227.653 15.54 227.723 16.534 227.751 17.598C227.807 18.634 227.835 19.782 227.835 21.042V32.13H221.997V9.198H230.859L236.571 24.738L242.367 9.198H250.893ZM290.382 8.778C292.958 8.778 295.044 9.786 296.64 11.802C298.236 13.79 299.034 16.73 299.034 20.622C299.034 23.226 298.656 25.424 297.9 27.216C297.144 28.98 296.108 30.31 294.792 31.206C293.476 32.102 291.95 32.55 290.214 32.55C289.122 32.55 288.17 32.41 287.358 32.13C286.574 31.85 285.902 31.486 285.342 31.038C284.782 30.59 284.292 30.114 283.872 29.61H283.536C283.648 30.142 283.732 30.702 283.788 31.29C283.844 31.85 283.872 32.41 283.872 32.97V42.21H277.614V9.198H282.696L283.578 12.18H283.872C284.292 11.564 284.796 11.004 285.384 10.5C285.972 9.968 286.672 9.548 287.484 9.24C288.324 8.932 289.29 8.778 290.382 8.778ZM288.366 13.776C287.274 13.776 286.406 14 285.762 14.448C285.118 14.896 284.642 15.582 284.334 16.506C284.054 17.402 283.9 18.536 283.872 19.908V20.58C283.872 22.064 284.012 23.324 284.292 24.36C284.572 25.368 285.048 26.138 285.72 26.67C286.392 27.202 287.302 27.468 288.45 27.468C289.402 27.468 290.186 27.202 290.802 26.67C291.418 26.138 291.88 25.354 292.188 24.318C292.496 23.282 292.65 22.022 292.65 20.538C292.65 18.298 292.3 16.618 291.6 15.498C290.928 14.35 289.85 13.776 288.366 13.776ZM313.6 8.736C316.68 8.736 319.032 9.408 320.656 10.752C322.308 12.068 323.134 14.098 323.134 16.842V32.13H318.766L317.548 29.022H317.38C316.736 29.834 316.064 30.506 315.364 31.038C314.692 31.57 313.908 31.948 313.012 32.172C312.144 32.424 311.066 32.55 309.778 32.55C308.434 32.55 307.216 32.298 306.124 31.794C305.06 31.262 304.22 30.464 303.604 29.4C302.988 28.308 302.68 26.936 302.68 25.284C302.68 22.848 303.534 21.056 305.242 19.908C306.95 18.732 309.512 18.088 312.928 17.976L316.918 17.85V16.842C316.918 15.638 316.596 14.756 315.952 14.196C315.336 13.636 314.468 13.356 313.348 13.356C312.228 13.356 311.136 13.524 310.072 13.86C309.008 14.168 307.944 14.56 306.88 15.036L304.822 10.794C306.054 10.15 307.412 9.646 308.896 9.282C310.408 8.918 311.976 8.736 313.6 8.736ZM314.482 21.588C312.466 21.644 311.066 22.008 310.282 22.68C309.498 23.352 309.106 24.234 309.106 25.326C309.106 26.278 309.386 26.964 309.946 27.384C310.506 27.776 311.234 27.972 312.13 27.972C313.474 27.972 314.608 27.58 315.532 26.796C316.456 25.984 316.918 24.85 316.918 23.394V21.504L314.482 21.588ZM350.162 9.198V27.552H353.522V40.362H347.894V32.13H332.48V40.362H326.852V27.552H328.784C329.792 26.012 330.646 24.262 331.346 22.302C332.046 20.314 332.606 18.2 333.026 15.96C333.446 13.72 333.754 11.466 333.95 9.198H350.162ZM339.2 13.902C338.976 15.582 338.696 17.22 338.36 18.816C338.024 20.384 337.604 21.896 337.1 23.352C336.624 24.808 336.036 26.208 335.336 27.552H343.904V13.902H339.2ZM357.431 32.13V9.198H363.689V18.06H366.713C369.065 18.06 370.997 18.312 372.509 18.816C374.021 19.292 375.141 20.034 375.869 21.042C376.625 22.05 377.003 23.31 377.003 24.822C377.003 26.306 376.653 27.594 375.953 28.686C375.281 29.778 374.203 30.632 372.719 31.248C371.263 31.836 369.331 32.13 366.923 32.13H357.431ZM366.587 27.804C367.819 27.804 368.813 27.58 369.569 27.132C370.353 26.684 370.745 25.942 370.745 24.906C370.745 24.01 370.381 23.366 369.653 22.974C368.953 22.582 367.903 22.386 366.503 22.386H363.689V27.804H366.587ZM380.321 32.13V9.198H386.579V32.13H380.321ZM426.062 8.778C428.638 8.778 430.724 9.786 432.32 11.802C433.916 13.79 434.714 16.73 434.714 20.622C434.714 23.226 434.336 25.424 433.58 27.216C432.824 28.98 431.788 30.31 430.472 31.206C429.156 32.102 427.63 32.55 425.894 32.55C424.802 32.55 423.85 32.41 423.038 32.13C422.254 31.85 421.582 31.486 421.022 31.038C420.462 30.59 419.972 30.114 419.552 29.61H419.216C419.328 30.142 419.412 30.702 419.468 31.29C419.524 31.85 419.552 32.41 419.552 32.97V42.21H413.294V9.198H418.376L419.258 12.18H419.552C419.972 11.564 420.476 11.004 421.064 10.5C421.652 9.968 422.352 9.548 423.164 9.24C424.004 8.932 424.97 8.778 426.062 8.778ZM424.046 13.776C422.954 13.776 422.086 14 421.442 14.448C420.798 14.896 420.322 15.582 420.014 16.506C419.734 17.402 419.58 18.536 419.552 19.908V20.58C419.552 22.064 419.692 23.324 419.972 24.36C420.252 25.368 420.728 26.138 421.4 26.67C422.072 27.202 422.982 27.468 424.13 27.468C425.082 27.468 425.866 27.202 426.482 26.67C427.098 26.138 427.56 25.354 427.868 24.318C428.176 23.282 428.33 22.022 428.33 20.538C428.33 18.298 427.98 16.618 427.28 15.498C426.608 14.35 425.53 13.776 424.046 13.776ZM449.28 8.736C452.36 8.736 454.712 9.408 456.336 10.752C457.988 12.068 458.814 14.098 458.814 16.842V32.13H454.446L453.228 29.022H453.06C452.416 29.834 451.744 30.506 451.044 31.038C450.372 31.57 449.588 31.948 448.692 32.172C447.824 32.424 446.746 32.55 445.458 32.55C444.114 32.55 442.896 32.298 441.804 31.794C440.74 31.262 439.9 30.464 439.284 29.4C438.668 28.308 438.36 26.936 438.36 25.284C438.36 22.848 439.214 21.056 440.922 19.908C442.63 18.732 445.192 18.088 448.608 17.976L452.598 17.85V16.842C452.598 15.638 452.276 14.756 451.632 14.196C451.016 13.636 450.148 13.356 449.028 13.356C447.908 13.356 446.816 13.524 445.752 13.86C444.688 14.168 443.624 14.56 442.56 15.036L440.502 10.794C441.734 10.15 443.092 9.646 444.576 9.282C446.088 8.918 447.656 8.736 449.28 8.736ZM450.162 21.588C448.146 21.644 446.746 22.008 445.962 22.68C445.178 23.352 444.786 24.234 444.786 25.326C444.786 26.278 445.066 26.964 445.626 27.384C446.186 27.776 446.914 27.972 447.81 27.972C449.154 27.972 450.288 27.58 451.212 26.796C452.136 25.984 452.598 24.85 452.598 23.394V21.504L450.162 21.588ZM473.578 8.778C475.23 8.778 476.77 9.002 478.198 9.45C479.654 9.87 480.816 10.528 481.684 11.424C482.58 12.32 483.028 13.468 483.028 14.868C483.028 16.24 482.608 17.332 481.768 18.144C480.956 18.956 479.85 19.544 478.45 19.908V20.118C479.43 20.342 480.312 20.664 481.096 21.084C481.88 21.476 482.496 22.022 482.944 22.722C483.42 23.394 483.658 24.304 483.658 25.452C483.658 26.712 483.252 27.888 482.44 28.98C481.656 30.044 480.424 30.912 478.744 31.584C477.092 32.228 474.964 32.55 472.36 32.55C471.128 32.55 469.966 32.494 468.874 32.382C467.782 32.27 466.788 32.116 465.892 31.92C464.996 31.696 464.212 31.43 463.54 31.122V25.956C464.492 26.404 465.654 26.81 467.026 27.174C468.426 27.538 469.91 27.72 471.478 27.72C472.626 27.72 473.648 27.636 474.544 27.468C475.468 27.3 476.196 27.02 476.728 26.628C477.288 26.236 477.568 25.718 477.568 25.074C477.568 24.458 477.33 23.954 476.854 23.562C476.378 23.142 475.664 22.834 474.712 22.638C473.76 22.442 472.542 22.344 471.058 22.344H468.622V18.018H470.932C473.004 18.018 474.6 17.85 475.72 17.514C476.868 17.178 477.442 16.548 477.442 15.624C477.442 14.896 477.078 14.35 476.35 13.986C475.622 13.594 474.432 13.398 472.78 13.398C471.688 13.398 470.498 13.524 469.21 13.776C467.922 14.028 466.704 14.392 465.556 14.868L463.708 10.5C465.024 9.996 466.466 9.59 468.034 9.282C469.602 8.946 471.45 8.778 473.578 8.778ZM509.139 9.198V27.552H512.499V40.362H506.871V32.13H491.457V40.362H485.829V27.552H487.761C488.769 26.012 489.623 24.262 490.323 22.302C491.023 20.314 491.583 18.2 492.003 15.96C492.423 13.72 492.731 11.466 492.927 9.198H509.139ZM498.177 13.902C497.953 15.582 497.673 17.22 497.337 18.816C497.001 20.384 496.581 21.896 496.077 23.352C495.601 24.808 495.013 26.208 494.313 27.552H502.881V13.902H498.177ZM525.857 8.778C527.985 8.778 529.805 9.184 531.317 9.996C532.857 10.808 534.047 11.984 534.887 13.524C535.727 15.064 536.147 16.954 536.147 19.194V22.218H521.363C521.419 23.982 521.937 25.368 522.917 26.376C523.925 27.384 525.311 27.888 527.075 27.888C528.559 27.888 529.903 27.748 531.107 27.468C532.311 27.16 533.557 26.698 534.845 26.082V30.912C533.725 31.472 532.535 31.878 531.275 32.13C530.043 32.41 528.545 32.55 526.781 32.55C524.485 32.55 522.455 32.13 520.691 31.29C518.927 30.422 517.541 29.12 516.533 27.384C515.525 25.648 515.021 23.464 515.021 20.832C515.021 18.144 515.469 15.918 516.365 14.154C517.289 12.362 518.563 11.018 520.187 10.122C521.811 9.226 523.701 8.778 525.857 8.778ZM525.899 13.23C524.695 13.23 523.687 13.622 522.875 14.406C522.091 15.19 521.629 16.408 521.489 18.06H530.267C530.267 17.136 530.099 16.31 529.763 15.582C529.455 14.854 528.979 14.28 528.335 13.86C527.691 13.44 526.879 13.23 525.899 13.23ZM561.76 32.13H555.502V13.902H549.748C549.468 17.262 549.118 20.132 548.698 22.512C548.306 24.864 547.802 26.782 547.186 28.266C546.598 29.75 545.842 30.842 544.918 31.542C543.994 32.214 542.86 32.55 541.516 32.55C540.788 32.55 540.13 32.494 539.542 32.382C538.954 32.27 538.422 32.102 537.946 31.878V26.88C538.254 26.992 538.576 27.09 538.912 27.174C539.248 27.258 539.598 27.3 539.962 27.3C540.354 27.3 540.718 27.146 541.054 26.838C541.418 26.53 541.754 25.984 542.062 25.2C542.398 24.416 542.706 23.338 542.986 21.966C543.266 20.594 543.518 18.872 543.742 16.8C543.994 14.7 544.218 12.166 544.414 9.198H561.76V32.13ZM574.34 18.27C574.34 18.746 574.312 19.334 574.256 20.034C574.228 20.734 574.186 21.448 574.13 22.176C574.102 22.904 574.06 23.548 574.004 24.108C573.948 24.668 573.906 25.06 573.878 25.284L584.462 9.198H591.98V32.13H585.932V22.974C585.932 22.218 585.96 21.392 586.016 20.496C586.072 19.572 586.128 18.718 586.184 17.934C586.268 17.122 586.324 16.506 586.352 16.086L575.81 32.13H568.292V9.198H574.34V18.27ZM617.505 13.902H609.987V32.13H603.729V13.902H596.211V9.198H617.505V13.902ZM632.403 18.06C634.755 18.06 636.701 18.312 638.241 18.816C639.781 19.292 640.915 20.034 641.643 21.042C642.399 22.05 642.777 23.31 642.777 24.822C642.777 26.306 642.427 27.594 641.727 28.686C641.055 29.778 639.977 30.632 638.493 31.248C637.009 31.836 635.063 32.13 632.655 32.13H621.735V9.198H627.993V18.06H632.403ZM636.519 24.906C636.519 24.01 636.155 23.366 635.427 22.974C634.727 22.582 633.677 22.386 632.277 22.386H627.993V27.804H632.361C633.593 27.804 634.587 27.58 635.343 27.132C636.127 26.684 636.519 25.942 636.519 24.906ZM677.038 32.55C674.77 32.55 672.838 32.144 671.242 31.332C669.646 30.492 668.428 29.204 667.588 27.468C666.748 25.732 666.328 23.506 666.328 20.79C666.328 17.99 666.804 15.708 667.756 13.944C668.708 12.18 670.024 10.878 671.704 10.038C673.412 9.198 675.372 8.778 677.584 8.778C679.152 8.778 680.51 8.932 681.658 9.24C682.834 9.548 683.856 9.912 684.724 10.332L682.876 15.162C681.896 14.77 680.972 14.448 680.104 14.196C679.264 13.944 678.424 13.818 677.584 13.818C676.492 13.818 675.582 14.084 674.854 14.616C674.126 15.12 673.58 15.89 673.216 16.926C672.88 17.934 672.712 19.208 672.712 20.748C672.712 22.26 672.894 23.52 673.258 24.528C673.65 25.508 674.21 26.25 674.938 26.754C675.666 27.23 676.548 27.468 677.584 27.468C678.9 27.468 680.062 27.3 681.07 26.964C682.078 26.6 683.058 26.11 684.01 25.494V30.828C683.058 31.444 682.05 31.878 680.986 32.13C679.95 32.41 678.634 32.55 677.038 32.55ZM729.796 15.204C729.796 16.436 729.404 17.486 728.62 18.354C727.864 19.222 726.73 19.782 725.218 20.034V20.202C726.814 20.398 728.088 20.944 729.04 21.84C730.02 22.736 730.51 23.884 730.51 25.284C730.51 26.264 730.314 27.174 729.922 28.014C729.558 28.854 728.97 29.582 728.158 30.198C727.346 30.814 726.296 31.29 725.008 31.626C723.748 31.962 722.208 32.13 720.388 32.13H709.468V9.198H720.388C722.18 9.198 723.776 9.394 725.176 9.786C726.604 10.15 727.724 10.766 728.536 11.634C729.376 12.502 729.796 13.692 729.796 15.204ZM724.042 24.948C724.042 24.052 723.692 23.408 722.992 23.016C722.292 22.596 721.242 22.386 719.842 22.386H715.726V27.804H719.968C721.144 27.804 722.11 27.594 722.866 27.174C723.65 26.726 724.042 25.984 724.042 24.948ZM723.454 15.708C723.454 14.98 723.174 14.448 722.614 14.112C722.054 13.776 721.228 13.608 720.136 13.608H715.726V18.144H719.422C720.738 18.144 721.732 17.962 722.404 17.598C723.104 17.206 723.454 16.576 723.454 15.708ZM745.29 8.736C748.37 8.736 750.722 9.408 752.346 10.752C753.998 12.068 754.824 14.098 754.824 16.842V32.13H750.456L749.238 29.022H749.07C748.426 29.834 747.754 30.506 747.054 31.038C746.382 31.57 745.598 31.948 744.702 32.172C743.834 32.424 742.756 32.55 741.468 32.55C740.124 32.55 738.906 32.298 737.814 31.794C736.75 31.262 735.91 30.464 735.294 29.4C734.678 28.308 734.37 26.936 734.37 25.284C734.37 22.848 735.224 21.056 736.932 19.908C738.64 18.732 741.202 18.088 744.618 17.976L748.608 17.85V16.842C748.608 15.638 748.286 14.756 747.642 14.196C747.026 13.636 746.158 13.356 745.038 13.356C743.918 13.356 742.826 13.524 741.762 13.86C740.698 14.168 739.634 14.56 738.57 15.036L736.512 10.794C737.744 10.15 739.102 9.646 740.586 9.282C742.098 8.918 743.666 8.736 745.29 8.736ZM746.172 21.588C744.156 21.644 742.756 22.008 741.972 22.68C741.188 23.352 740.796 24.234 740.796 25.326C740.796 26.278 741.076 26.964 741.636 27.384C742.196 27.776 742.924 27.972 743.82 27.972C745.164 27.972 746.298 27.58 747.222 26.796C748.146 25.984 748.608 24.85 748.608 23.394V21.504L746.172 21.588ZM790.125 9.198V32.13H784.287V20.874C784.287 19.754 784.301 18.662 784.329 17.598C784.385 16.534 784.455 15.554 784.539 14.658H784.413L778.071 32.13H773.367L766.941 14.616H766.773C766.885 15.54 766.955 16.534 766.983 17.598C767.039 18.634 767.067 19.782 767.067 21.042V32.13H761.229V9.198H770.091L775.803 24.738L781.599 9.198H790.125ZM802.715 18.27C802.715 18.746 802.687 19.334 802.631 20.034C802.603 20.734 802.561 21.448 802.505 22.176C802.477 22.904 802.435 23.548 802.379 24.108C802.323 24.668 802.281 25.06 802.253 25.284L812.837 9.198H820.355V32.13H814.307V22.974C814.307 22.218 814.335 21.392 814.391 20.496C814.447 19.572 814.503 18.718 814.559 17.934C814.643 17.122 814.699 16.506 814.727 16.086L804.185 32.13H796.667V9.198H802.715V18.27ZM867.403 15.204C867.403 16.436 867.011 17.486 866.227 18.354C865.471 19.222 864.337 19.782 862.825 20.034V20.202C864.421 20.398 865.695 20.944 866.647 21.84C867.627 22.736 868.117 23.884 868.117 25.284C868.117 26.264 867.921 27.174 867.529 28.014C867.165 28.854 866.577 29.582 865.765 30.198C864.953 30.814 863.903 31.29 862.615 31.626C861.355 31.962 859.815 32.13 857.995 32.13H847.075V9.198H857.995C859.787 9.198 861.383 9.394 862.783 9.786C864.211 10.15 865.331 10.766 866.143 11.634C866.983 12.502 867.403 13.692 867.403 15.204ZM861.649 24.948C861.649 24.052 861.299 23.408 860.599 23.016C859.899 22.596 858.849 22.386 857.449 22.386H853.333V27.804H857.575C858.751 27.804 859.717 27.594 860.473 27.174C861.257 26.726 861.649 25.984 861.649 24.948ZM861.061 15.708C861.061 14.98 860.781 14.448 860.221 14.112C859.661 13.776 858.835 13.608 857.743 13.608H853.333V18.144H857.029C858.345 18.144 859.339 17.962 860.011 17.598C860.711 17.206 861.061 16.576 861.061 15.708ZM882.939 8.778C885.067 8.778 886.887 9.184 888.399 9.996C889.939 10.808 891.129 11.984 891.969 13.524C892.809 15.064 893.229 16.954 893.229 19.194V22.218H878.445C878.501 23.982 879.019 25.368 879.999 26.376C881.007 27.384 882.393 27.888 884.157 27.888C885.641 27.888 886.985 27.748 888.189 27.468C889.393 27.16 890.639 26.698 891.927 26.082V30.912C890.807 31.472 889.617 31.878 888.357 32.13C887.125 32.41 885.627 32.55 883.863 32.55C881.567 32.55 879.537 32.13 877.773 31.29C876.009 30.422 874.623 29.12 873.615 27.384C872.607 25.648 872.103 23.464 872.103 20.832C872.103 18.144 872.551 15.918 873.447 14.154C874.371 12.362 875.645 11.018 877.269 10.122C878.893 9.226 880.783 8.778 882.939 8.778ZM882.981 13.23C881.777 13.23 880.769 13.622 879.957 14.406C879.173 15.19 878.711 16.408 878.571 18.06H887.349C887.349 17.136 887.181 16.31 886.845 15.582C886.537 14.854 886.061 14.28 885.417 13.86C884.773 13.44 883.961 13.23 882.981 13.23ZM903.806 17.598C903.806 18.578 904.044 19.32 904.52 19.824C905.024 20.328 905.71 20.58 906.578 20.58C907.782 20.58 908.902 20.454 909.938 20.202C910.974 19.922 912.01 19.558 913.046 19.11V9.198H919.304V32.13H913.046V23.016C912.066 23.548 910.946 24.038 909.686 24.486C908.426 24.906 906.998 25.116 905.402 25.116C903.022 25.116 901.118 24.5 899.69 23.268C898.262 22.036 897.548 20.188 897.548 17.724V9.198H903.806V17.598ZM935.316 8.778C937.444 8.778 939.264 9.184 940.776 9.996C942.316 10.808 943.506 11.984 944.346 13.524C945.186 15.064 945.606 16.954 945.606 19.194V22.218H930.822C930.878 23.982 931.396 25.368 932.376 26.376C933.384 27.384 934.77 27.888 936.534 27.888C938.018 27.888 939.362 27.748 940.566 27.468C941.77 27.16 943.016 26.698 944.304 26.082V30.912C943.184 31.472 941.994 31.878 940.734 32.13C939.502 32.41 938.004 32.55 936.24 32.55C933.944 32.55 931.914 32.13 930.15 31.29C928.386 30.422 927 29.12 925.992 27.384C924.984 25.648 924.48 23.464 924.48 20.832C924.48 18.144 924.928 15.918 925.824 14.154C926.748 12.362 928.022 11.018 929.646 10.122C931.27 9.226 933.16 8.778 935.316 8.778ZM935.358 13.23C934.154 13.23 933.146 13.622 932.334 14.406C931.55 15.19 931.088 16.408 930.948 18.06H939.726C939.726 17.136 939.558 16.31 939.222 15.582C938.914 14.854 938.438 14.28 937.794 13.86C937.15 13.44 936.338 13.23 935.358 13.23ZM963.449 8.778C966.025 8.778 968.111 9.786 969.707 11.802C971.303 13.79 972.101 16.73 972.101 20.622C972.101 23.226 971.723 25.424 970.967 27.216C970.211 28.98 969.175 30.31 967.859 31.206C966.543 32.102 965.017 32.55 963.281 32.55C962.189 32.55 961.237 32.41 960.425 32.13C959.641 31.85 958.969 31.486 958.409 31.038C957.849 30.59 957.359 30.114 956.939 29.61H956.603C956.715 30.142 956.799 30.702 956.855 31.29C956.911 31.85 956.939 32.41 956.939 32.97V42.21H950.681V9.198H955.763L956.645 12.18H956.939C957.359 11.564 957.863 11.004 958.451 10.5C959.039 9.968 959.739 9.548 960.551 9.24C961.391 8.932 962.357 8.778 963.449 8.778ZM961.433 13.776C960.341 13.776 959.473 14 958.829 14.448C958.185 14.896 957.709 15.582 957.401 16.506C957.121 17.402 956.967 18.536 956.939 19.908V20.58C956.939 22.064 957.079 23.324 957.359 24.36C957.639 25.368 958.115 26.138 958.787 26.67C959.459 27.202 960.369 27.468 961.517 27.468C962.469 27.468 963.253 27.202 963.869 26.67C964.485 26.138 964.947 25.354 965.255 24.318C965.563 23.282 965.717 22.022 965.717 20.538C965.717 18.298 965.367 16.618 964.667 15.498C963.995 14.35 962.917 13.776 961.433 13.776ZM972.597 46.2C970.077 46.872 968.817 46.438 968.817 44.898C968.817 44.086 969.293 43.414 970.245 42.882C971.645 42.014 972.779 40.74 973.647 39.06C974.487 37.38 975.145 35.476 975.621 33.348C976.125 31.22 976.517 29.064 976.797 26.88C976.937 25.984 977.203 25.396 977.595 25.116C977.987 24.808 978.407 24.654 978.855 24.654C979.723 24.654 980.535 25.004 981.291 25.704C982.047 26.376 982.425 27.496 982.425 29.064C982.425 31.192 982.103 33.222 981.459 35.154C980.843 37.086 980.031 38.822 979.023 40.362C978.043 41.93 976.979 43.218 975.831 44.226C974.683 45.234 973.605 45.892 972.597 46.2ZM20.832 67.198V90.13H14.574V71.902H6.258V90.13H-9.08971e-07V67.198H20.832ZM48.2304 78.622C48.2304 80.526 47.9644 82.22 47.4324 83.704C46.9284 85.188 46.1864 86.448 45.2064 87.484C44.2544 88.492 43.0924 89.262 41.7204 89.794C40.3484 90.298 38.7944 90.55 37.0584 90.55C35.4624 90.55 33.9784 90.298 32.6064 89.794C31.2624 89.262 30.1004 88.492 29.1204 87.484C28.1404 86.448 27.3704 85.188 26.8104 83.704C26.2784 82.22 26.0124 80.526 26.0124 78.622C26.0124 76.074 26.4604 73.932 27.3564 72.196C28.2524 70.432 29.5404 69.088 31.2204 68.164C32.9004 67.24 34.8884 66.778 37.1844 66.778C39.3404 66.778 41.2444 67.24 42.8964 68.164C44.5484 69.088 45.8504 70.432 46.8024 72.196C47.7544 73.932 48.2304 76.074 48.2304 78.622ZM32.3964 78.622C32.3964 80.134 32.5504 81.408 32.8584 82.444C33.1944 83.452 33.7124 84.222 34.4124 84.754C35.1124 85.258 36.0224 85.51 37.1424 85.51C38.2624 85.51 39.1584 85.258 39.8304 84.754C40.5304 84.222 41.0344 83.452 41.3424 82.444C41.6784 81.408 41.8464 80.134 41.8464 78.622C41.8464 77.11 41.6784 75.85 41.3424 74.842C41.0344 73.834 40.5304 73.078 39.8304 72.574C39.1304 72.07 38.2204 71.818 37.1004 71.818C35.4484 71.818 34.2444 72.392 33.4884 73.54C32.7604 74.66 32.3964 76.354 32.3964 78.622ZM62.7263 90.55C60.4583 90.55 58.5263 90.144 56.9303 89.332C55.3343 88.492 54.1163 87.204 53.2763 85.468C52.4363 83.732 52.0163 81.506 52.0163 78.79C52.0163 75.99 52.4923 73.708 53.4443 71.944C54.3963 70.18 55.7123 68.878 57.3923 68.038C59.1003 67.198 61.0603 66.778 63.2723 66.778C64.8403 66.778 66.1983 66.932 67.3463 67.24C68.5223 67.548 69.5443 67.912 70.4123 68.332L68.5643 73.162C67.5843 72.77 66.6603 72.448 65.7923 72.196C64.9523 71.944 64.1123 71.818 63.2723 71.818C62.1803 71.818 61.2703 72.084 60.5423 72.616C59.8143 73.12 59.2683 73.89 58.9043 74.926C58.5683 75.934 58.4003 77.208 58.4003 78.748C58.4003 80.26 58.5823 81.52 58.9463 82.528C59.3383 83.508 59.8983 84.25 60.6263 84.754C61.3543 85.23 62.2363 85.468 63.2723 85.468C64.5883 85.468 65.7503 85.3 66.7583 84.964C67.7663 84.6 68.7463 84.11 69.6983 83.494V88.828C68.7463 89.444 67.7383 89.878 66.6743 90.13C65.6383 90.41 64.3223 90.55 62.7263 90.55ZM95.3046 73.204C95.3046 74.436 94.9126 75.486 94.1286 76.354C93.3726 77.222 92.2386 77.782 90.7266 78.034V78.202C92.3226 78.398 93.5966 78.944 94.5486 79.84C95.5286 80.736 96.0186 81.884 96.0186 83.284C96.0186 84.264 95.8226 85.174 95.4306 86.014C95.0666 86.854 94.4786 87.582 93.6666 88.198C92.8546 88.814 91.8046 89.29 90.5166 89.626C89.2566 89.962 87.7166 90.13 85.8966 90.13H74.9766V67.198H85.8966C87.6886 67.198 89.2846 67.394 90.6846 67.786C92.1126 68.15 93.2326 68.766 94.0446 69.634C94.8846 70.502 95.3046 71.692 95.3046 73.204ZM89.5506 82.948C89.5506 82.052 89.2006 81.408 88.5006 81.016C87.8006 80.596 86.7506 80.386 85.3506 80.386H81.2346V85.804H85.4766C86.6526 85.804 87.6186 85.594 88.3746 85.174C89.1586 84.726 89.5506 83.984 89.5506 82.948ZM88.9626 73.708C88.9626 72.98 88.6826 72.448 88.1226 72.112C87.5626 71.776 86.7366 71.608 85.6446 71.608H81.2346V76.144H84.9306C86.2466 76.144 87.2406 75.962 87.9126 75.598C88.6126 75.206 88.9626 74.576 88.9626 73.708ZM104.877 90.13H98.1146L104.289 81.058C103.505 80.722 102.763 80.274 102.063 79.714C101.391 79.126 100.845 78.384 100.425 77.488C100.005 76.592 99.7946 75.528 99.7946 74.296C99.7946 72 100.663 70.25 102.399 69.046C104.135 67.814 106.361 67.198 109.077 67.198H119.745V90.13H113.487V81.604H110.043L104.877 90.13ZM105.927 74.338C105.927 75.29 106.305 76.046 107.061 76.606C107.817 77.138 108.797 77.404 110.001 77.404H113.487V71.608H109.203C108.083 71.608 107.257 71.888 106.725 72.448C106.193 72.98 105.927 73.61 105.927 74.338ZM160.433 67.198V85.552H163.793V98.362H158.165V90.13H126.287V67.198H132.545V85.426H140.231V67.198H146.489V85.426H154.175V67.198H160.433ZM177.122 66.778C179.25 66.778 181.07 67.184 182.582 67.996C184.122 68.808 185.312 69.984 186.152 71.524C186.992 73.064 187.412 74.954 187.412 77.194V80.218H172.628C172.684 81.982 173.202 83.368 174.182 84.376C175.19 85.384 176.576 85.888 178.34 85.888C179.824 85.888 181.168 85.748 182.372 85.468C183.576 85.16 184.822 84.698 186.11 84.082V88.912C184.99 89.472 183.8 89.878 182.54 90.13C181.308 90.41 179.81 90.55 178.046 90.55C175.75 90.55 173.72 90.13 171.956 89.29C170.192 88.422 168.806 87.12 167.798 85.384C166.79 83.648 166.286 81.464 166.286 78.832C166.286 76.144 166.734 73.918 167.63 72.154C168.554 70.362 169.828 69.018 171.452 68.122C173.076 67.226 174.966 66.778 177.122 66.778ZM177.164 71.23C175.96 71.23 174.952 71.622 174.14 72.406C173.356 73.19 172.894 74.408 172.754 76.06H181.532C181.532 75.136 181.364 74.31 181.028 73.582C180.72 72.854 180.244 72.28 179.6 71.86C178.956 71.44 178.144 71.23 177.164 71.23ZM169.772 61.318C169.772 60.338 170.052 59.638 170.612 59.218C171.172 58.77 171.844 58.546 172.628 58.546C173.412 58.546 174.084 58.77 174.644 59.218C175.232 59.638 175.526 60.338 175.526 61.318C175.526 62.242 175.232 62.928 174.644 63.376C174.084 63.824 173.412 64.048 172.628 64.048C171.844 64.048 171.172 63.824 170.612 63.376C170.052 62.928 169.772 62.242 169.772 61.318ZM178.046 61.318C178.046 60.338 178.326 59.638 178.886 59.218C179.446 58.77 180.132 58.546 180.944 58.546C181.728 58.546 182.4 58.77 182.96 59.218C183.548 59.638 183.842 60.338 183.842 61.318C183.842 62.242 183.548 62.928 182.96 63.376C182.4 63.824 181.728 64.048 180.944 64.048C180.16 64.048 179.474 63.824 178.886 63.376C178.326 62.928 178.046 62.242 178.046 61.318ZM198.744 67.198V76.018H207.48V67.198H213.738V90.13H207.48V80.68H198.744V90.13H192.486V67.198H198.744ZM226.553 67.198V76.018H235.289V67.198H241.547V90.13H235.289V80.68H226.553V90.13H220.295V67.198H226.553ZM248.104 90.13V67.198H254.362V76.06H257.386C259.738 76.06 261.67 76.312 263.182 76.816C264.694 77.292 265.814 78.034 266.542 79.042C267.298 80.05 267.676 81.31 267.676 82.822C267.676 84.306 267.326 85.594 266.626 86.686C265.954 87.778 264.876 88.632 263.392 89.248C261.936 89.836 260.004 90.13 257.596 90.13H248.104ZM257.26 85.804C258.492 85.804 259.486 85.58 260.242 85.132C261.026 84.684 261.418 83.942 261.418 82.906C261.418 82.01 261.054 81.366 260.326 80.974C259.626 80.582 258.576 80.386 257.176 80.386H254.362V85.804H257.26ZM270.994 90.13V67.198H277.252V90.13H270.994ZM305.753 57.328C305.613 58.784 305.207 60.072 304.535 61.192C303.863 62.284 302.813 63.138 301.385 63.754C299.957 64.37 298.039 64.678 295.631 64.678C293.167 64.678 291.235 64.384 289.835 63.796C288.463 63.18 287.483 62.326 286.895 61.234C286.307 60.142 285.957 58.84 285.845 57.328H291.431C291.571 58.868 291.963 59.89 292.607 60.394C293.251 60.898 294.301 61.15 295.757 61.15C296.961 61.15 297.941 60.884 298.697 60.352C299.481 59.792 299.943 58.784 300.083 57.328H305.753ZM289.835 76.27C289.835 76.746 289.807 77.334 289.751 78.034C289.723 78.734 289.681 79.448 289.625 80.176C289.597 80.904 289.555 81.548 289.499 82.108C289.443 82.668 289.401 83.06 289.373 83.284L299.957 67.198H307.475V90.13H301.427V80.974C301.427 80.218 301.455 79.392 301.511 78.496C301.567 77.572 301.623 76.718 301.679 75.934C301.763 75.122 301.819 74.506 301.847 74.086L291.305 90.13H283.787V67.198H289.835V76.27ZM340.453 67.198V76.018H349.189V67.198H355.447V90.13H349.189V80.68H340.453V90.13H334.195V67.198H340.453ZM371.412 66.736C374.492 66.736 376.844 67.408 378.468 68.752C380.12 70.068 380.946 72.098 380.946 74.842V90.13H376.578L375.36 87.022H375.192C374.548 87.834 373.876 88.506 373.176 89.038C372.504 89.57 371.72 89.948 370.824 90.172C369.956 90.424 368.878 90.55 367.59 90.55C366.246 90.55 365.028 90.298 363.936 89.794C362.872 89.262 362.032 88.464 361.416 87.4C360.8 86.308 360.492 84.936 360.492 83.284C360.492 80.848 361.346 79.056 363.054 77.908C364.762 76.732 367.324 76.088 370.74 75.976L374.73 75.85V74.842C374.73 73.638 374.408 72.756 373.764 72.196C373.148 71.636 372.28 71.356 371.16 71.356C370.04 71.356 368.948 71.524 367.884 71.86C366.82 72.168 365.756 72.56 364.692 73.036L362.634 68.794C363.866 68.15 365.224 67.646 366.708 67.282C368.22 66.918 369.788 66.736 371.412 66.736ZM372.294 79.588C370.278 79.644 368.878 80.008 368.094 80.68C367.31 81.352 366.918 82.234 366.918 83.326C366.918 84.278 367.198 84.964 367.758 85.384C368.318 85.776 369.046 85.972 369.942 85.972C371.286 85.972 372.42 85.58 373.344 84.796C374.268 83.984 374.73 82.85 374.73 81.394V79.504L372.294 79.588ZM421.498 67.198V90.13H387.352V67.198H393.61V85.426H401.296V67.198H407.554V85.426H415.24V67.198H421.498ZM437.489 66.778C439.617 66.778 441.437 67.184 442.949 67.996C444.489 68.808 445.679 69.984 446.519 71.524C447.359 73.064 447.779 74.954 447.779 77.194V80.218H432.995C433.051 81.982 433.569 83.368 434.549 84.376C435.557 85.384 436.943 85.888 438.707 85.888C440.191 85.888 441.535 85.748 442.739 85.468C443.943 85.16 445.189 84.698 446.477 84.082V88.912C445.357 89.472 444.167 89.878 442.907 90.13C441.675 90.41 440.177 90.55 438.413 90.55C436.117 90.55 434.087 90.13 432.323 89.29C430.559 88.422 429.173 87.12 428.165 85.384C427.157 83.648 426.653 81.464 426.653 78.832C426.653 76.144 427.101 73.918 427.997 72.154C428.921 70.362 430.195 69.018 431.819 68.122C433.443 67.226 435.333 66.778 437.489 66.778ZM437.531 71.23C436.327 71.23 435.319 71.622 434.507 72.406C433.723 73.19 433.261 74.408 433.121 76.06H441.899C441.899 75.136 441.731 74.31 441.395 73.582C441.087 72.854 440.611 72.28 439.967 71.86C439.323 71.44 438.511 71.23 437.531 71.23ZM481.75 67.198V90.13H475.912V78.874C475.912 77.754 475.926 76.662 475.954 75.598C476.01 74.534 476.08 73.554 476.164 72.658H476.038L469.696 90.13H464.992L458.566 72.616H458.398C458.51 73.54 458.58 74.534 458.608 75.598C458.664 76.634 458.692 77.782 458.692 79.042V90.13H452.854V67.198H461.716L467.428 82.738L473.224 67.198H481.75ZM485.015 67.198H491.861L496.187 80.092C496.327 80.512 496.439 80.932 496.523 81.352C496.635 81.772 496.719 82.206 496.775 82.654C496.859 83.102 496.915 83.578 496.943 84.082H497.069C497.153 83.354 497.265 82.668 497.405 82.024C497.573 81.352 497.755 80.708 497.951 80.092L502.193 67.198H508.913L499.211 93.07C498.623 94.638 497.853 95.954 496.901 97.018C495.977 98.082 494.899 98.88 493.667 99.412C492.435 99.944 491.091 100.21 489.635 100.21C488.935 100.21 488.319 100.168 487.787 100.084C487.283 100.028 486.835 99.958 486.443 99.874V94.918C486.751 94.974 487.115 95.03 487.535 95.086C487.983 95.142 488.445 95.17 488.921 95.17C489.789 95.17 490.531 94.988 491.147 94.624C491.791 94.26 492.323 93.756 492.743 93.112C493.163 92.496 493.499 91.824 493.751 91.096L494.129 89.962L485.015 67.198ZM535.533 93.406C534.469 93.406 533.517 93.112 532.677 92.524C531.865 91.964 531.459 91.124 531.459 90.004C531.459 88.968 531.767 88.226 532.383 87.778C532.999 87.302 533.825 87.064 534.861 87.064C535.281 87.064 535.701 87.12 536.121 87.232C536.541 87.316 537.325 87.428 538.473 87.568C540.405 86.588 542.113 85.636 543.597 84.712C545.081 83.76 546.243 82.822 547.083 81.898C547.923 80.946 548.343 79.98 548.343 79C548.343 78.076 547.979 77.53 547.251 77.362C546.551 77.166 545.697 77.054 544.689 77.026C544.577 77.026 544.451 77.026 544.311 77.026C544.199 76.998 544.073 76.984 543.933 76.984C542.505 76.9 541.161 76.732 539.901 76.48C538.669 76.2 537.661 75.71 536.877 75.01C536.093 74.282 535.701 73.204 535.701 71.776C535.701 70.18 535.911 68.612 536.331 67.072C536.751 65.504 537.283 64.062 537.927 62.746C537.675 62.522 537.521 62.256 537.465 61.948C537.437 61.612 537.423 61.276 537.423 60.94C537.423 60.604 537.675 60.268 538.179 59.932C538.683 59.596 539.369 59.26 540.237 58.924C540.965 57.944 541.665 57.174 542.337 56.614C543.009 56.026 543.541 55.732 543.933 55.732C544.409 55.732 544.829 55.886 545.193 56.194C545.585 56.502 545.879 56.894 546.075 57.37C547.755 57.034 549.505 56.768 551.325 56.572C553.173 56.376 554.965 56.278 556.701 56.278C557.709 56.278 558.619 56.362 559.431 56.53C560.271 56.67 560.929 56.964 561.405 57.412C561.909 57.832 562.161 58.49 562.161 59.386C562.161 60.142 561.909 60.702 561.405 61.066C560.929 61.402 560.285 61.584 559.473 61.612C557.849 61.64 556.113 61.766 554.265 61.99C552.417 62.214 550.597 62.466 548.805 62.746C547.041 62.998 545.459 63.194 544.059 63.334C543.611 64.146 543.177 64.986 542.757 65.854C542.365 66.694 542.029 67.478 541.749 68.206C541.497 68.934 541.371 69.522 541.371 69.97C541.371 70.754 541.707 71.23 542.379 71.398C543.051 71.566 543.849 71.678 544.773 71.734C545.865 71.818 546.957 71.958 548.049 72.154C549.141 72.322 550.135 72.63 551.031 73.078C551.955 73.526 552.697 74.198 553.257 75.094C553.817 75.962 554.097 77.124 554.097 78.58C554.097 79.952 553.705 81.338 552.921 82.738C552.165 84.138 551.129 85.482 549.813 86.77C548.525 88.03 547.069 89.15 545.445 90.13C543.849 91.138 542.183 91.936 540.447 92.524C538.739 93.112 537.101 93.406 535.533 93.406ZM578.825 90.844C576.977 90.844 575.255 90.382 573.659 89.458C572.063 88.506 570.775 87.106 569.795 85.258C568.815 83.41 568.325 81.114 568.325 78.37C568.325 76.522 568.647 74.758 569.291 73.078C569.935 71.37 570.663 69.858 571.475 68.542C571.335 68.178 571.265 67.758 571.265 67.282C571.265 66.19 571.573 65.112 572.189 64.048C572.833 62.956 573.673 61.962 574.709 61.066C575.773 60.17 576.963 59.456 578.279 58.924C579.595 58.392 580.939 58.126 582.311 58.126C584.439 58.126 586.315 58.658 587.939 59.722C589.563 60.786 590.837 62.27 591.761 64.174C592.685 66.05 593.147 68.22 593.147 70.684C593.147 73.652 592.755 76.368 591.971 78.832C591.215 81.296 590.165 83.424 588.821 85.216C587.505 87.008 585.979 88.394 584.243 89.374C582.535 90.354 580.729 90.844 578.825 90.844ZM579.077 64.72C579.133 64.888 579.161 65.084 579.161 65.308C579.161 65.728 579.077 66.078 578.909 66.358C578.741 66.638 578.517 66.946 578.237 67.282C577.873 67.702 577.453 68.346 576.977 69.214C576.529 70.054 576.095 71.034 575.675 72.154C575.255 73.274 574.905 74.436 574.625 75.64C574.373 76.816 574.247 77.936 574.247 79C574.247 80.876 574.597 82.346 575.297 83.41C575.997 84.474 577.033 85.006 578.405 85.006C579.553 85.006 580.659 84.628 581.723 83.872C582.815 83.116 583.781 82.094 584.621 80.806C585.461 79.49 586.119 77.992 586.595 76.312C587.099 74.632 587.351 72.854 587.351 70.978C587.351 69.634 587.169 68.416 586.805 67.324C586.441 66.232 585.923 65.364 585.251 64.72C584.579 64.076 583.781 63.754 582.857 63.754C582.101 63.754 581.401 63.852 580.757 64.048C580.141 64.216 579.581 64.44 579.077 64.72ZM608.927 76.06C607.835 76.06 606.939 75.85 606.239 75.43C605.567 75.01 605.231 74.31 605.231 73.33C605.231 73.05 605.637 72.7 606.449 72.28C607.261 71.832 608.367 71.398 609.767 70.978C611.195 70.53 612.833 70.166 614.681 69.886C616.529 69.578 618.475 69.424 620.519 69.424C622.227 69.424 623.403 69.634 624.047 70.054C624.719 70.474 625.055 71.174 625.055 72.154C625.055 72.546 624.607 72.966 623.711 73.414C622.815 73.862 621.597 74.296 620.057 74.716C618.517 75.108 616.781 75.43 614.849 75.682C612.945 75.934 610.971 76.06 608.927 76.06ZM650.333 90.13H644.075V71.902H638.321C638.041 75.262 637.691 78.132 637.271 80.512C636.879 82.864 636.375 84.782 635.759 86.266C635.171 87.75 634.415 88.842 633.491 89.542C632.567 90.214 631.433 90.55 630.089 90.55C629.361 90.55 628.703 90.494 628.115 90.382C627.527 90.27 626.995 90.102 626.519 89.878V84.88C626.827 84.992 627.149 85.09 627.485 85.174C627.821 85.258 628.171 85.3 628.535 85.3C628.927 85.3 629.291 85.146 629.627 84.838C629.991 84.53 630.327 83.984 630.635 83.2C630.971 82.416 631.279 81.338 631.559 79.966C631.839 78.594 632.091 76.872 632.315 74.8C632.567 72.7 632.791 70.166 632.987 67.198H650.333V90.13ZM666.315 66.778C668.443 66.778 670.263 67.184 671.775 67.996C673.315 68.808 674.505 69.984 675.345 71.524C676.185 73.064 676.605 74.954 676.605 77.194V80.218H661.821C661.877 81.982 662.395 83.368 663.375 84.376C664.383 85.384 665.769 85.888 667.533 85.888C669.017 85.888 670.361 85.748 671.565 85.468C672.769 85.16 674.015 84.698 675.303 84.082V88.912C674.183 89.472 672.993 89.878 671.733 90.13C670.501 90.41 669.003 90.55 667.239 90.55C664.943 90.55 662.913 90.13 661.149 89.29C659.385 88.422 657.999 87.12 656.991 85.384C655.983 83.648 655.479 81.464 655.479 78.832C655.479 76.144 655.927 73.918 656.823 72.154C657.747 70.362 659.021 69.018 660.645 68.122C662.269 67.226 664.159 66.778 666.315 66.778ZM666.357 71.23C665.153 71.23 664.145 71.622 663.333 72.406C662.549 73.19 662.087 74.408 661.947 76.06H670.725C670.725 75.136 670.557 74.31 670.221 73.582C669.913 72.854 669.437 72.28 668.793 71.86C668.149 71.44 667.337 71.23 666.357 71.23ZM700.664 71.902H693.146V90.13H686.888V71.902H679.37V67.198H700.664V71.902ZM711.153 67.198V76.018H719.889V67.198H726.147V90.13H719.889V80.68H711.153V90.13H704.895V67.198H711.153ZM742.153 66.778C744.281 66.778 746.101 67.184 747.613 67.996C749.153 68.808 750.343 69.984 751.183 71.524C752.023 73.064 752.443 74.954 752.443 77.194V80.218H737.659C737.715 81.982 738.233 83.368 739.213 84.376C740.221 85.384 741.607 85.888 743.371 85.888C744.855 85.888 746.199 85.748 747.403 85.468C748.607 85.16 749.853 84.698 751.141 84.082V88.912C750.021 89.472 748.831 89.878 747.571 90.13C746.339 90.41 744.841 90.55 743.077 90.55C740.781 90.55 738.751 90.13 736.987 89.29C735.223 88.422 733.837 87.12 732.829 85.384C731.821 83.648 731.317 81.464 731.317 78.832C731.317 76.144 731.765 73.918 732.661 72.154C733.585 70.362 734.859 69.018 736.483 68.122C738.107 67.226 739.997 66.778 742.153 66.778ZM742.195 71.23C740.991 71.23 739.983 71.622 739.171 72.406C738.387 73.19 737.925 74.408 737.785 76.06H746.563C746.563 75.136 746.395 74.31 746.059 73.582C745.751 72.854 745.275 72.28 744.631 71.86C743.987 71.44 743.175 71.23 742.195 71.23ZM786.414 67.198V90.13H780.576V78.874C780.576 77.754 780.59 76.662 780.618 75.598C780.674 74.534 780.744 73.554 780.828 72.658H780.702L774.36 90.13H769.656L763.23 72.616H763.062C763.174 73.54 763.244 74.534 763.272 75.598C763.328 76.634 763.356 77.782 763.356 79.042V90.13H757.518V67.198H766.38L772.092 82.738L777.888 67.198H786.414ZM789.679 67.198H796.525L800.851 80.092C800.991 80.512 801.103 80.932 801.187 81.352C801.299 81.772 801.383 82.206 801.439 82.654C801.523 83.102 801.579 83.578 801.607 84.082H801.733C801.817 83.354 801.929 82.668 802.069 82.024C802.237 81.352 802.419 80.708 802.615 80.092L806.857 67.198H813.577L803.875 93.07C803.287 94.638 802.517 95.954 801.565 97.018C800.641 98.082 799.563 98.88 798.331 99.412C797.099 99.944 795.755 100.21 794.299 100.21C793.599 100.21 792.983 100.168 792.451 100.084C791.947 100.028 791.499 99.958 791.107 99.874V94.918C791.415 94.974 791.779 95.03 792.199 95.086C792.647 95.142 793.109 95.17 793.585 95.17C794.453 95.17 795.195 94.988 795.811 94.624C796.455 94.26 796.987 93.756 797.407 93.112C797.827 92.496 798.163 91.824 798.415 91.096L798.793 89.962L789.679 67.198ZM868.715 78.622C868.715 81.17 868.281 83.34 867.413 85.132C866.545 86.896 865.299 88.24 863.675 89.164C862.079 90.088 860.175 90.55 857.963 90.55C856.087 90.55 854.393 90.2 852.881 89.5C851.397 88.772 850.179 87.68 849.227 86.224C848.303 84.768 847.701 82.92 847.421 80.68H843.305V90.13H837.047V67.198H843.305V76.018H847.505C847.785 74.03 848.387 72.35 849.311 70.978C850.263 69.606 851.481 68.57 852.965 67.87C854.477 67.142 856.185 66.778 858.089 66.778C860.161 66.778 861.995 67.24 863.591 68.164C865.187 69.088 866.433 70.432 867.329 72.196C868.253 73.932 868.715 76.074 868.715 78.622ZM853.721 78.622C853.721 80.134 853.861 81.408 854.141 82.444C854.449 83.452 854.925 84.222 855.569 84.754C856.213 85.258 857.039 85.51 858.047 85.51C859.055 85.51 859.867 85.258 860.483 84.754C861.127 84.222 861.589 83.452 861.869 82.444C862.177 81.408 862.331 80.134 862.331 78.622C862.331 77.11 862.177 75.85 861.869 74.842C861.589 73.834 861.127 73.078 860.483 72.574C859.867 72.07 859.041 71.818 858.005 71.818C856.997 71.818 856.171 72.07 855.527 72.574C854.911 73.078 854.449 73.834 854.141 74.842C853.861 75.85 853.721 77.11 853.721 78.622ZM872.493 76.396C872.493 73.008 872.913 70.138 873.753 67.786C874.593 65.406 875.923 63.516 877.743 62.116C879.563 60.688 881.943 59.722 884.883 59.218C886.367 58.966 887.865 58.756 889.377 58.588C890.917 58.392 892.499 58.196 894.123 58L894.837 63.46C894.137 63.544 893.367 63.642 892.527 63.754C891.687 63.838 890.833 63.936 889.965 64.048C889.125 64.132 888.313 64.23 887.529 64.342C886.745 64.454 886.031 64.552 885.387 64.636C884.351 64.804 883.441 65.042 882.657 65.35C881.873 65.63 881.215 66.036 880.683 66.568C880.151 67.1 879.731 67.828 879.423 68.752C879.143 69.648 878.961 70.81 878.877 72.238H879.171C879.507 71.706 879.969 71.174 880.557 70.642C881.173 70.11 881.929 69.662 882.825 69.298C883.721 68.934 884.743 68.752 885.891 68.752C887.711 68.752 889.293 69.13 890.637 69.886C891.981 70.642 893.017 71.762 893.745 73.246C894.473 74.73 894.837 76.578 894.837 78.79C894.837 81.394 894.361 83.564 893.409 85.3C892.457 87.036 891.141 88.352 889.461 89.248C887.781 90.116 885.835 90.55 883.623 90.55C881.943 90.55 880.417 90.242 879.045 89.626C877.673 89.01 876.497 88.1 875.517 86.896C874.537 85.692 873.781 84.208 873.249 82.444C872.745 80.68 872.493 78.664 872.493 76.396ZM884.001 85.468C884.897 85.468 885.667 85.272 886.311 84.88C886.983 84.488 887.501 83.844 887.865 82.948C888.257 82.052 888.453 80.848 888.453 79.336C888.453 77.516 888.145 76.074 887.529 75.01C886.941 73.918 885.905 73.372 884.421 73.372C883.525 73.372 882.685 73.596 881.901 74.044C881.145 74.464 880.501 74.954 879.969 75.514C879.437 76.046 879.073 76.508 878.877 76.9C878.877 77.992 878.961 79.056 879.129 80.092C879.297 81.1 879.577 82.01 879.969 82.822C880.361 83.634 880.879 84.278 881.523 84.754C882.195 85.23 883.021 85.468 884.001 85.468ZM906.054 76.27C906.054 76.746 906.026 77.334 905.97 78.034C905.942 78.734 905.9 79.448 905.844 80.176C905.816 80.904 905.774 81.548 905.718 82.108C905.662 82.668 905.62 83.06 905.592 83.284L916.176 67.198H923.694V90.13H917.646V80.974C917.646 80.218 917.674 79.392 917.73 78.496C917.786 77.572 917.842 76.718 917.898 75.934C917.982 75.122 918.038 74.506 918.066 74.086L907.524 90.13H900.006V67.198H906.054V76.27ZM950.772 90.13H944.514V71.902H938.76C938.48 75.262 938.13 78.132 937.71 80.512C937.318 82.864 936.814 84.782 936.198 86.266C935.61 87.75 934.854 88.842 933.93 89.542C933.006 90.214 931.872 90.55 930.528 90.55C929.8 90.55 929.142 90.494 928.554 90.382C927.966 90.27 927.434 90.102 926.958 89.878V84.88C927.266 84.992 927.588 85.09 927.924 85.174C928.26 85.258 928.61 85.3 928.974 85.3C929.366 85.3 929.73 85.146 930.066 84.838C930.43 84.53 930.766 83.984 931.074 83.2C931.41 82.416 931.718 81.338 931.998 79.966C932.278 78.594 932.53 76.872 932.754 74.8C933.006 72.7 933.23 70.166 933.426 67.198H950.772V90.13ZM966.755 66.778C968.883 66.778 970.703 67.184 972.215 67.996C973.755 68.808 974.945 69.984 975.785 71.524C976.625 73.064 977.045 74.954 977.045 77.194V80.218H962.261C962.317 81.982 962.835 83.368 963.815 84.376C964.823 85.384 966.209 85.888 967.973 85.888C969.457 85.888 970.801 85.748 972.005 85.468C973.209 85.16 974.455 84.698 975.743 84.082V88.912C974.623 89.472 973.433 89.878 972.173 90.13C970.941 90.41 969.443 90.55 967.679 90.55C965.383 90.55 963.353 90.13 961.589 89.29C959.825 88.422 958.439 87.12 957.431 85.384C956.423 83.648 955.919 81.464 955.919 78.832C955.919 76.144 956.367 73.918 957.263 72.154C958.187 70.362 959.461 69.018 961.085 68.122C962.709 67.226 964.599 66.778 966.755 66.778ZM966.797 71.23C965.593 71.23 964.585 71.622 963.773 72.406C962.989 73.19 962.527 74.408 962.387 76.06H971.165C971.165 75.136 970.997 74.31 970.661 73.582C970.353 72.854 969.877 72.28 969.233 71.86C968.589 71.44 967.777 71.23 966.797 71.23ZM1013.79 78.622C1013.79 81.17 1013.35 83.34 1012.49 85.132C1011.62 86.896 1010.37 88.24 1008.75 89.164C1007.15 90.088 1005.25 90.55 1003.04 90.55C1001.16 90.55 999.465 90.2 997.953 89.5C996.469 88.772 995.251 87.68 994.299 86.224C993.375 84.768 992.773 82.92 992.493 80.68H988.377V90.13H982.119V67.198H988.377V76.018H992.577C992.857 74.03 993.459 72.35 994.383 70.978C995.335 69.606 996.553 68.57 998.037 67.87C999.549 67.142 1001.26 66.778 1003.16 66.778C1005.23 66.778 1007.07 67.24 1008.66 68.164C1010.26 69.088 1011.51 70.432 1012.4 72.196C1013.33 73.932 1013.79 76.074 1013.79 78.622ZM998.793 78.622C998.793 80.134 998.933 81.408 999.213 82.444C999.521 83.452 999.997 84.222 1000.64 84.754C1001.29 85.258 1002.11 85.51 1003.12 85.51C1004.13 85.51 1004.94 85.258 1005.56 84.754C1006.2 84.222 1006.66 83.452 1006.94 82.444C1007.25 81.408 1007.4 80.134 1007.4 78.622C1007.4 77.11 1007.25 75.85 1006.94 74.842C1006.66 73.834 1006.2 73.078 1005.56 72.574C1004.94 72.07 1004.11 71.818 1003.08 71.818C1002.07 71.818 1001.24 72.07 1000.6 72.574C999.983 73.078 999.521 73.834 999.213 74.842C998.933 75.85 998.793 77.11 998.793 78.622ZM1021.51 80.554C1021.12 80.554 1020.77 80.4 1020.46 80.092C1020.18 79.756 1020.04 79.154 1020.04 78.286C1020.04 77.67 1020.16 76.704 1020.38 75.388C1020.6 74.072 1020.91 72.56 1021.3 70.852C1021.72 69.116 1022.2 67.31 1022.73 65.434C1023.26 63.53 1023.84 61.668 1024.45 59.848C1025.07 58 1025.7 56.334 1026.34 54.85C1026.65 54.122 1027.13 53.576 1027.77 53.212C1028.44 52.82 1029.17 52.624 1029.96 52.624C1030.77 52.624 1031.36 53.002 1031.72 53.758C1032.08 54.514 1032.27 55.34 1032.27 56.236C1032.27 56.572 1032.1 57.202 1031.76 58.126C1031.45 59.05 1031.03 60.17 1030.5 61.486C1029.97 62.802 1029.38 64.23 1028.74 65.77C1028.12 67.282 1027.49 68.822 1026.85 70.39C1026.23 71.93 1025.66 73.4 1025.13 74.8C1024.59 76.2 1024.16 77.432 1023.82 78.496C1023.6 79.252 1023.29 79.784 1022.9 80.092C1022.54 80.4 1022.07 80.554 1021.51 80.554ZM1019.33 92.272C1018.99 92.272 1018.6 92.188 1018.15 92.02C1017.71 91.852 1017.31 91.446 1016.98 90.802C1016.67 90.186 1016.52 89.192 1016.52 87.82C1016.52 86.756 1016.85 85.944 1017.52 85.384C1018.2 84.824 1019.09 84.544 1020.21 84.544C1021.16 84.544 1021.89 84.81 1022.4 85.342C1022.93 85.874 1023.19 86.63 1023.19 87.61C1023.19 88.506 1022.97 89.304 1022.52 90.004C1022.1 90.704 1021.58 91.25 1020.97 91.642C1020.38 92.062 1019.83 92.272 1019.33 92.272Z" fill="#E32929"/>
</svg>
