<svg width="321" height="38" viewBox="0 0 321 38" fill="none" xmlns="http://www.w3.org/2000/svg">
<path d="M1.722 28.9459C0.874667 28.8913 0.369001 28.7409 0.205001 28.4949C0.068334 28.2489 5.81145e-07 27.9893 5.81145e-07 27.7159C0.136667 27.3059 0.287001 26.9096 0.451001 26.5269C0.642334 26.1443 0.779001 25.7343 0.861001 25.2969C0.943001 24.9416 1.025 24.6136 1.107 24.3129C1.189 24.0123 1.28467 23.6843 1.394 23.3289C1.61267 22.6729 1.85867 21.8666 2.132 20.9099C2.43267 19.9533 2.747 18.9966 3.075 18.0399C3.403 17.0833 3.69 16.2906 3.936 15.6619C4.15467 15.0333 4.33233 14.5003 4.469 14.0629C4.633 13.6256 4.797 13.2019 4.961 12.7919C5.125 12.3819 5.30267 11.8899 5.494 11.3159C5.63067 10.9606 5.75367 10.6189 5.863 10.2909C5.97233 9.9356 6.08167 9.58026 6.191 9.22493C6.32767 8.8696 6.45067 8.52793 6.56 8.19993C6.69667 7.8446 6.81967 7.48926 6.929 7.13393C7.22967 6.50526 7.48933 5.90393 7.708 5.32993C7.954 4.75593 8.17267 4.12726 8.364 3.44393C8.47333 3.19793 8.45967 3.02026 8.323 2.91093C8.21367 2.80159 8.159 2.56926 8.159 2.21393C8.13167 1.88593 8.21367 1.6536 8.405 1.51693C8.62367 1.35293 8.897 1.31193 9.225 1.39393C9.60767 1.47593 10.1407 1.54426 10.824 1.59893C11.5347 1.6536 12.177 1.68093 12.751 1.68093C13.3523 1.6536 13.6803 1.62626 13.735 1.59893C13.8717 1.54426 14.3227 1.46226 15.088 1.35293C15.8533 1.21626 16.7827 1.06593 17.876 0.901929C18.9693 0.737928 20.09 0.587594 21.238 0.450928C22.4133 0.314261 23.452 0.191261 24.354 0.0819275C24.6547 0.0272615 24.9417 0.0272615 25.215 0.0819275C25.5157 0.136595 25.8027 0.191262 26.076 0.245928C26.4313 0.300595 26.7867 0.491929 27.142 0.819928C27.4973 1.14793 27.6203 1.54426 27.511 2.00893C27.4017 2.3096 27.1693 2.4736 26.814 2.50093C26.4587 2.50093 25.9803 2.44626 25.379 2.33693C25.3243 2.33693 25.2697 2.44626 25.215 2.66493C25.1603 2.8836 25.092 3.14326 25.01 3.44393C24.9553 3.7446 24.8597 4.05893 24.723 4.38693C24.559 4.57826 24.3677 4.94726 24.149 5.49393C23.9577 6.04059 23.7527 6.64193 23.534 7.29793C23.3153 7.95393 23.1377 8.55526 23.001 9.10193C22.8643 9.6486 22.796 10.0313 22.796 10.2499C22.4133 10.8513 22.14 11.5073 21.976 12.2179C21.8393 12.9286 21.6617 13.5983 21.443 14.2269C21.4157 14.3363 21.3063 14.7189 21.115 15.3749C20.951 16.0036 20.746 16.7689 20.5 17.6709C20.254 18.5729 20.008 19.4749 19.762 20.3769C19.516 21.2516 19.311 22.0033 19.147 22.6319C18.983 23.2606 18.901 23.6159 18.901 23.6979C18.8737 24.2446 18.8053 24.8049 18.696 25.3789C18.614 25.9529 18.5593 26.5133 18.532 27.0599C18.5593 27.1693 18.573 27.2649 18.573 27.3469C18.573 27.4016 18.5183 27.4563 18.409 27.5109C18.1903 27.7023 17.8213 27.7979 17.302 27.7979C16.7827 27.7706 16.4547 27.6749 16.318 27.5109C16.2087 27.2923 16.113 27.1009 16.031 26.9369C15.949 26.7456 15.9217 26.5406 15.949 26.3219C16.0037 25.5566 16.0993 24.7913 16.236 24.0259C16.3727 23.2606 16.4957 22.5226 16.605 21.8119C16.7417 21.1013 16.9057 20.4589 17.097 19.8849C17.2883 19.3109 17.425 18.9966 17.507 18.9419L18.286 16.0309C18.5867 15.2109 18.778 14.5686 18.86 14.1039C18.942 13.6119 19.024 13.1336 19.106 12.6689C19.2153 12.2043 19.4067 11.6029 19.68 10.8649C19.9533 10.1816 20.172 9.49826 20.336 8.81493C20.5273 8.10426 20.7187 7.40726 20.91 6.72393C21.1013 6.06793 21.2927 5.49393 21.484 5.00193C21.6753 4.48259 21.8257 4.03159 21.935 3.64893C22.0717 3.26626 22.1263 2.93826 22.099 2.66493C21.4977 2.71959 20.9373 2.78793 20.418 2.86993C19.926 2.95193 19.4067 3.03393 18.86 3.11593C18.3407 3.1706 17.6983 3.2526 16.933 3.36193C16.4683 3.4166 15.8533 3.51226 15.088 3.64893C14.3227 3.75826 13.612 3.8676 12.956 3.97693C12.3273 4.05893 11.931 4.09993 11.767 4.09993C11.5757 4.12726 11.4117 4.18193 11.275 4.26393C11.1383 4.34593 11.07 4.45526 11.07 4.59193C10.66 5.41193 10.2637 6.2456 9.881 7.09293C9.49833 7.91293 9.15667 8.7056 8.856 9.47093C8.58267 10.2089 8.37767 10.8649 8.241 11.4389C8.18633 11.5483 8.077 11.8216 7.913 12.2589C7.749 12.6963 7.55767 13.2019 7.339 13.7759C7.12033 14.3499 6.91533 14.8966 6.724 15.4159C6.53267 15.9353 6.38233 16.3453 6.273 16.6459C6.191 16.9193 6.16367 16.9876 6.191 16.8509C5.781 18.1629 5.43933 19.2016 5.166 19.9669C4.92 20.7049 4.715 21.2926 4.551 21.7299C4.387 22.1673 4.25033 22.5499 4.141 22.8779C4.03167 23.2059 3.92233 23.6023 3.813 24.0669C3.649 24.5043 3.51233 24.9553 3.403 25.4199C3.29367 25.8846 3.18433 26.3493 3.075 26.8139C3.04767 26.9506 3.00667 27.1009 2.952 27.2649C2.92467 27.4289 2.87 27.7706 2.788 28.2899C2.67867 28.5086 2.542 28.6726 2.378 28.7819C2.24133 28.9186 2.02267 28.9733 1.722 28.9459ZM23.8831 37.1869C23.7738 37.1869 23.6371 37.1869 23.4731 37.1869C23.3091 37.2143 23.1588 37.1049 23.0221 36.8589C22.9128 36.7223 22.8445 36.5173 22.8171 36.2439C22.8171 35.9706 22.8855 35.4786 23.0221 34.7679C23.1588 34.3033 23.2681 33.8386 23.3501 33.3739C23.4321 32.9366 23.4731 32.6086 23.4731 32.3899C23.4731 32.2806 23.5005 32.0619 23.5551 31.7339C23.6371 31.4333 23.6781 31.2146 23.6781 31.0779C23.8148 30.8593 23.9241 30.5586 24.0061 30.1759C24.0881 29.7933 24.1291 29.4516 24.1291 29.1509C24.1291 28.8229 24.2931 28.5223 24.6211 28.2489C24.6211 28.0303 24.6621 27.7569 24.7441 27.4289C24.8535 27.1009 24.9081 26.8823 24.9081 26.7729C24.9901 26.3903 25.1678 25.7206 25.4411 24.7639C25.7418 23.7799 26.0971 22.6729 26.5071 21.4429C26.9445 20.2129 27.3681 19.0103 27.7781 17.8349C28.1881 16.6596 28.5571 15.6619 28.8851 14.8419C29.2131 14.0766 29.4318 13.4206 29.5411 12.8739C29.6778 12.2999 29.7461 11.8763 29.7461 11.6029C29.7461 11.4936 29.7735 11.4116 29.8281 11.3569C29.8828 11.2749 30.0058 11.1246 30.1971 10.9059C30.4705 10.6326 30.7028 10.5506 30.8941 10.6599C31.1128 10.7693 31.3725 10.9333 31.6731 11.1519C31.8918 11.5073 32.0421 11.8079 32.1241 12.0539C32.2335 12.2999 32.2335 12.7236 32.1241 13.3249C32.1241 13.7349 32.0558 14.0903 31.9191 14.3909C31.7825 14.6916 31.6595 14.9239 31.5501 15.0879C31.4408 15.2246 31.4135 15.2793 31.4681 15.2519C32.5888 14.7326 33.5728 14.4593 34.4201 14.4319C35.2948 14.3773 36.0191 14.5276 36.5931 14.8829C37.1945 15.2109 37.6455 15.6756 37.9461 16.2769C38.2468 16.8783 38.3971 17.5753 38.3971 18.3679C38.3971 18.6959 38.3288 19.0923 38.1921 19.5569C38.0555 19.9943 37.8778 20.4043 37.6591 20.7869C37.4678 21.1423 37.2901 21.4019 37.1261 21.5659C37.0168 21.5659 36.9075 21.6616 36.7981 21.8529C36.6888 22.0169 36.5795 22.2083 36.4701 22.4269C36.2515 22.7003 35.8961 23.0146 35.4041 23.3699C34.9395 23.6979 34.4748 23.9713 34.0101 24.1899C33.5455 24.3813 33.2038 24.4359 32.9851 24.3539C32.9851 24.3539 32.9441 24.3676 32.8621 24.3949C32.8075 24.3949 32.7801 24.4633 32.7801 24.5999C32.7801 24.6546 32.5615 24.7776 32.1241 24.9689C31.6868 25.1329 31.1811 25.2969 30.6071 25.4609C30.0331 25.5976 29.5275 25.6659 29.0901 25.6659C28.5161 25.6659 28.1061 25.5566 27.8601 25.3379C27.8055 25.3926 27.7371 25.4746 27.6551 25.5839C27.6005 25.6933 27.5731 25.7889 27.5731 25.8709C27.5731 26.0349 27.5048 26.3493 27.3681 26.8139C27.2588 27.2513 27.1221 27.6749 26.9581 28.0849C26.7941 28.4949 26.6438 28.6999 26.5071 28.6999C26.5071 28.6999 26.4798 28.7409 26.4251 28.8229C26.3705 28.9049 26.3978 29.0143 26.5071 29.1509C26.5071 29.1509 26.4935 29.3013 26.4661 29.6019C26.4661 29.9299 26.3978 30.2033 26.2611 30.4219C26.2611 30.6406 26.2201 30.9686 26.1381 31.4059C26.0561 31.8433 25.9605 32.1713 25.8511 32.3899C25.8511 32.7179 25.7965 33.0323 25.6871 33.3329C25.6051 33.6609 25.5095 33.8249 25.4001 33.8249C25.2908 33.8523 25.2225 34.0163 25.1951 34.3169C25.1678 34.6449 25.1541 34.8773 25.1541 35.0139C25.1268 35.6973 24.9901 36.2303 24.7441 36.6129C24.4981 36.9956 24.2111 37.1869 23.8831 37.1869ZM28.8441 23.4929C29.0628 23.4929 29.5138 23.3973 30.1971 23.2059C30.8805 23.0146 31.5775 22.7823 32.2881 22.5089C33.0261 22.2083 33.5728 21.9076 33.9281 21.6069C34.6388 20.9783 35.1855 20.2676 35.5681 19.4749C35.9781 18.6549 35.9508 17.8759 35.4861 17.1379C35.2675 16.7553 34.8711 16.6049 34.2971 16.6869C33.7231 16.7416 33.0945 16.9603 32.4111 17.3429C31.7278 17.7256 31.0855 18.2039 30.4841 18.7779C30.1561 19.1333 29.8555 19.5706 29.5821 20.0899C29.3088 20.6093 29.0765 21.1286 28.8851 21.6479C28.7211 22.1673 28.6255 22.6046 28.5981 22.9599C28.5708 23.3153 28.6528 23.4929 28.8441 23.4929ZM50.3759 27.9209C50.1025 27.6476 49.8292 27.2786 49.5559 26.8139C49.2825 26.3219 49.0639 25.7616 48.8999 25.1329C48.8452 24.9143 48.8179 24.6136 48.8179 24.2309C48.8452 23.8483 48.8452 23.5749 48.8179 23.4109C48.7359 23.6023 48.5992 23.8073 48.4079 24.0259C48.2439 24.2173 48.0799 24.3813 47.9159 24.5179C47.8065 24.6273 47.5605 24.8459 47.1779 25.1739C46.7952 25.4746 46.4125 25.7206 46.0299 25.9119C45.1279 26.4859 44.3762 26.8003 43.7749 26.8549C43.2009 26.9096 42.6542 26.6089 42.1349 25.9529C41.6975 25.5976 41.3832 25.2013 41.1919 24.7639C41.0279 24.3266 41.0279 23.7253 41.1919 22.9599C41.2465 22.0033 41.3832 21.0739 41.6019 20.1719C41.8205 19.2426 42.2715 18.0126 42.9549 16.4819C43.5289 15.3613 43.9662 14.5413 44.2669 14.0219C44.5675 13.4753 44.7589 13.1473 44.8409 13.0379C45.2509 12.9013 45.5925 12.9149 45.8659 13.0789C46.1392 13.2156 46.3032 13.4753 46.3579 13.8579C46.5219 14.1313 46.4945 14.5959 46.2759 15.2519C46.0845 15.9079 45.7429 16.7143 45.2509 17.6709C44.8682 18.6003 44.5129 19.5296 44.1849 20.4589C43.8842 21.3883 43.7065 22.1809 43.6519 22.8369C43.5972 23.4929 43.7612 23.8893 44.1439 24.0259C44.3899 24.1626 44.8135 24.1216 45.4149 23.9029C46.0435 23.6843 46.7405 23.1376 47.5059 22.2629C48.2985 21.3883 49.0639 20.0626 49.8019 18.2859C50.0205 17.7393 50.1845 17.2609 50.2939 16.8509C50.4032 16.4136 50.4715 15.9353 50.4989 15.4159C50.4442 15.0879 50.4579 14.8009 50.5399 14.5549C50.6492 14.2816 50.8679 14.0493 51.1959 13.8579C51.3052 13.7213 51.4555 13.5983 51.6469 13.4889C51.8382 13.3523 51.9612 13.3523 52.0159 13.4889L52.6719 13.4479C52.7812 13.4206 52.8495 13.4889 52.8769 13.6529C52.9315 13.7896 53.0272 13.9126 53.1639 14.0219C53.4645 14.2679 53.5465 14.8009 53.4099 15.6209C53.2732 16.4409 52.8905 17.5889 52.2619 19.0649C51.7425 20.1856 51.3872 21.0329 51.1959 21.6069C51.0319 22.1809 50.9362 22.7413 50.9089 23.2879C50.9089 23.7799 51.0045 24.2446 51.1959 24.6819C51.3872 25.1193 51.6879 25.5156 52.0979 25.8709C52.3985 26.0623 52.5625 26.2809 52.5899 26.5269C52.6445 26.7729 52.6582 27.0599 52.6309 27.3879C52.5762 27.6339 52.4122 27.8389 52.1389 28.0029C51.8929 28.1396 51.6059 28.2079 51.2779 28.2079C50.9499 28.2079 50.6492 28.1123 50.3759 27.9209ZM57.5147 27.7569C56.8587 27.9756 56.2983 27.8663 55.8337 27.4289C55.697 27.3196 55.5467 27.2103 55.3827 27.1009C55.2187 26.9916 55.1093 26.8549 55.0547 26.6909C55.0547 26.6636 55.082 26.4859 55.1367 26.1579C55.2187 25.8026 55.3007 25.4609 55.3827 25.1329C55.492 24.7776 55.5603 24.5863 55.5877 24.5589C56.0523 23.6023 56.4077 22.6593 56.6537 21.7299C56.8997 20.7733 57.1047 19.8029 57.2687 18.8189C57.378 18.2449 57.501 17.5753 57.6377 16.8099C57.8017 16.0446 57.9383 15.3749 58.0477 14.8009C58.1843 14.2269 58.2527 13.9399 58.2527 13.9399C58.3073 13.8033 58.362 13.6666 58.4167 13.5299C58.4713 13.3933 58.5123 13.2566 58.5397 13.1199C58.9497 12.8193 59.4827 12.5186 60.1387 12.2179C60.7947 11.8899 61.3823 11.7943 61.9017 11.9309C61.9837 11.8489 62.134 11.8216 62.3527 11.8489C62.5987 11.8489 62.831 11.8489 63.0497 11.8489C63.2957 11.8489 63.4597 11.8079 63.5417 11.7259C63.7057 11.7806 64.0063 11.8079 64.4437 11.8079C64.9083 11.8079 65.373 11.8079 65.8377 11.8079C66.3297 11.8079 66.685 11.8216 66.9037 11.8489C67.2863 12.0676 67.5323 12.2453 67.6417 12.3819C67.751 12.5186 67.9423 12.7783 68.2157 13.1609C68.1883 13.4616 68.0927 13.6939 67.9287 13.8579C67.7647 13.9946 67.5323 14.0766 67.2317 14.1039C66.9583 14.1039 66.7123 14.1039 66.4937 14.1039C66.3023 14.0766 66.07 14.0766 65.7967 14.1039C65.3867 14.1039 64.8673 14.1176 64.2387 14.1449C63.6373 14.1723 63.036 14.2133 62.4347 14.2679C61.8333 14.2953 61.3277 14.3499 60.9177 14.4319C60.8903 14.7326 60.863 15.0469 60.8357 15.3749C60.8083 15.6756 60.7263 15.9763 60.5897 16.2769C60.5077 16.5776 60.3983 17.0149 60.2617 17.5889C60.125 18.1356 59.9747 18.6823 59.8107 19.2289C59.674 19.7483 59.5373 20.1309 59.4007 20.3769C59.264 20.5683 59.182 20.7869 59.1547 21.0329C59.1273 21.2516 59.0727 21.4703 58.9907 21.6889C58.8813 21.9896 58.7583 22.4406 58.6217 23.0419C58.5123 23.6433 58.3893 24.2719 58.2527 24.9279C58.1433 25.5839 58.0203 26.1853 57.8837 26.7319C57.7743 27.2513 57.6513 27.5929 57.5147 27.7569ZM66.9559 26.7319C66.7372 26.8959 66.4229 26.9369 66.0129 26.8549C65.6029 26.7729 65.2749 26.6909 65.0289 26.6089C64.9742 26.4996 64.9196 26.3766 64.8649 26.2399C64.8102 26.1033 64.7692 25.9803 64.7419 25.8709C64.7146 25.7343 64.6872 25.5976 64.6599 25.4609C64.6599 25.3243 64.6325 25.2013 64.5779 25.0919C64.6599 25.0099 64.7282 24.9279 64.7829 24.8459C64.8649 24.7639 64.9469 24.6956 65.0289 24.6409C65.1656 24.6409 65.3159 24.6409 65.4799 24.6409C65.6439 24.6409 65.7942 24.6409 65.9309 24.6409C66.0676 24.5863 66.1769 24.5043 66.2589 24.3949C66.3682 24.2583 66.5049 24.1899 66.6689 24.1899C67.2702 23.8073 67.8579 23.2059 68.4319 22.3859C69.0332 21.5659 69.6072 20.6503 70.1539 19.6389C70.7279 18.6276 71.2336 17.6436 71.6709 16.6869C72.1356 15.7029 72.5182 14.8829 72.8189 14.2269C72.8189 14.1723 72.8189 14.1313 72.8189 14.1039C72.8189 14.0766 72.8052 14.0493 72.7779 14.0219C72.5866 14.0766 72.3816 14.1313 72.1629 14.1859C71.9442 14.2133 71.7256 14.2679 71.5069 14.3499C71.4796 14.3773 71.4386 14.4046 71.3839 14.4319C71.3292 14.4593 71.2882 14.4866 71.2609 14.5139C70.9602 14.7599 70.5639 14.8283 70.0719 14.7189C69.6072 14.6096 69.2792 14.3773 69.0879 14.0219C69.0332 13.9126 68.9786 13.8169 68.9239 13.7349C68.8692 13.6529 68.8009 13.5573 68.7189 13.4479C68.8282 13.2019 68.9922 12.9696 69.2109 12.7509C69.4569 12.5049 69.7166 12.3546 69.9899 12.2999C70.7279 12.1359 71.4522 12.0129 72.1629 11.9309C72.9009 11.8216 73.6389 11.7943 74.3769 11.8489C75.1149 11.9036 75.8392 12.0676 76.5499 12.3409C76.6866 12.3683 76.8096 12.3956 76.9189 12.4229C77.0282 12.4503 77.1376 12.5049 77.2469 12.5869C77.4109 12.6963 77.5749 12.8193 77.7389 12.9559C77.9029 13.0926 78.0532 13.2293 78.1899 13.3659C78.3812 13.5299 78.5316 13.7076 78.6409 13.8989C78.7502 14.0903 78.8186 14.3089 78.8459 14.5549C78.9006 14.8283 78.9279 15.1153 78.9279 15.4159C78.9552 15.7166 78.9416 16.0173 78.8869 16.3179C78.7502 17.0013 78.5316 17.8213 78.2309 18.7779C77.9576 19.7073 77.7116 20.5136 77.4929 21.1969C77.1649 22.2629 76.8779 23.2196 76.6319 24.0669C76.3859 24.8869 76.1536 25.6933 75.9349 26.4859C75.5796 26.5953 75.2379 26.5816 74.9099 26.4449C74.5819 26.3083 74.2949 26.1033 74.0489 25.8299C73.9396 25.4473 73.8849 25.0919 73.8849 24.7639C73.8849 24.4086 73.9806 24.0533 74.1719 23.6979C74.3632 23.3153 74.4999 22.8233 74.5819 22.2219C74.6639 21.6206 74.8416 21.1423 75.1149 20.7869C75.1696 20.6776 75.1969 20.5819 75.1969 20.4999C75.1969 20.3359 75.2516 20.0216 75.3609 19.5569C75.4976 19.0923 75.6479 18.5729 75.8119 17.9989C75.9759 17.3976 76.1262 16.8373 76.2629 16.3179C76.4269 15.7986 76.5362 15.4023 76.5909 15.1289C76.6456 14.9649 76.6456 14.8146 76.5909 14.6779C76.5636 14.5413 76.5499 14.3909 76.5499 14.2269C76.3312 14.1176 76.0169 14.0356 75.6069 13.9809C75.2242 13.9263 74.9646 14.0629 74.8279 14.3909C74.8006 14.4456 74.7732 14.5139 74.7459 14.5959C74.7459 14.6506 74.7322 14.7053 74.7049 14.7599C74.4862 15.4433 74.1856 16.0993 73.8029 16.7279C73.4476 17.3566 73.1196 18.2176 72.8189 19.3109C72.7369 19.6116 72.6139 19.8986 72.4499 20.1719C72.3132 20.4179 72.1902 20.6913 72.0809 20.9919C72.0809 21.0193 72.0672 21.0466 72.0399 21.0739C72.0399 21.1013 72.0262 21.1286 71.9989 21.1559C71.9989 21.1833 71.9852 21.2106 71.9579 21.2379C71.7666 21.4839 71.5889 21.7436 71.4249 22.0169C71.2882 22.2629 71.1379 22.5226 70.9739 22.7959C70.5092 23.5613 69.8942 24.2719 69.1289 24.9279C68.3909 25.5839 67.6666 26.1853 66.9559 26.7319ZM83.9408 26.8139C83.7221 26.8686 83.4351 26.8959 83.0798 26.8959C82.7244 26.8686 82.4101 26.8276 82.1368 26.7729C81.8908 26.6909 81.7678 26.6089 81.7678 26.5269C81.7678 26.3903 81.6994 26.3219 81.5628 26.3219C81.5628 26.3219 81.4944 26.2673 81.3578 26.1579C81.2484 26.0486 81.0708 25.9393 80.8248 25.8299C80.5788 25.4473 80.4558 25.0373 80.4558 24.5999C80.4558 24.1353 80.5788 23.4109 80.8248 22.4269C80.9068 21.7436 81.1664 20.9509 81.6038 20.0489C82.0684 19.1196 82.6288 18.1766 83.2848 17.2199C83.9408 16.2633 84.6241 15.4023 85.3348 14.6369C86.0728 13.8716 86.7424 13.3113 87.3438 12.9559C87.7264 12.5733 88.1911 12.3683 88.7378 12.3409C89.2844 12.3136 89.8038 12.4366 90.2958 12.7099C90.5691 12.8466 90.8424 13.0653 91.1158 13.3659C91.3891 13.6666 91.6488 13.9946 91.8948 14.3499C92.1408 14.7053 92.3458 15.0606 92.5098 15.4159C92.5918 15.7166 92.6328 15.9899 92.6328 16.2359C92.6601 16.4546 92.6601 16.7279 92.6328 17.0559C92.6328 17.3839 92.5918 17.8759 92.5098 18.5319C92.3731 19.0239 92.2501 19.6253 92.1408 20.3359C92.0588 21.0466 92.0178 21.6616 92.0178 22.1809C91.9631 22.7003 92.0178 23.0693 92.1818 23.2879C92.3731 23.5066 92.6464 23.5203 93.0018 23.3289C93.3298 23.1649 93.6441 23.0966 93.9448 23.1239C94.2454 23.1239 94.4778 23.2059 94.6418 23.3699C94.8331 23.5339 94.9288 23.7799 94.9288 24.1079C94.9288 24.4359 94.7648 24.7776 94.4368 25.1329C94.1361 25.4609 93.7534 25.7479 93.2888 25.9939C92.8514 26.2126 92.4278 26.3219 92.0178 26.3219C91.7171 26.3219 91.4301 26.1443 91.1568 25.7889C90.8834 25.4063 90.6374 24.9553 90.4188 24.4359C90.2274 23.8893 90.0498 23.3699 89.8858 22.8779L89.6398 21.9349L87.8768 23.6159C87.5214 23.9986 87.1661 24.3539 86.8108 24.6819C86.4828 24.9826 86.2778 25.2013 86.1958 25.3379C86.0591 25.5839 85.7994 25.8299 85.4168 26.0759C85.0614 26.3219 84.5694 26.5679 83.9408 26.8139ZM84.0638 24.3949C84.5284 24.1216 85.0614 23.7253 85.6628 23.2059C86.2641 22.6593 86.8518 22.0716 87.4258 21.4429C87.9998 20.7869 88.4781 20.1856 88.8608 19.6389C89.3254 19.0103 89.6808 18.4226 89.9268 17.8759C90.1728 17.3293 90.3504 16.8099 90.4598 16.3179C90.3504 16.0173 90.1728 15.7029 89.9268 15.3749C89.6808 15.0196 89.4621 14.8283 89.2708 14.8009C88.6694 14.8009 88.0271 15.1836 87.3438 15.9489C86.6878 16.6869 86.0454 17.4933 85.4168 18.3679C85.3074 18.5046 85.1571 18.7233 84.9658 19.0239C84.7744 19.3246 84.5831 19.6116 84.3918 19.8849C84.2278 20.1309 84.1184 20.2949 84.0638 20.3769C83.9818 20.4863 83.8178 20.8006 83.5718 21.3199C83.3531 21.8119 83.1344 22.3176 82.9158 22.8369C82.6971 23.3289 82.5878 23.6569 82.5878 23.8209C82.5878 23.9849 82.6014 24.1626 82.6288 24.3539C82.6834 24.5453 82.8201 24.6683 83.0388 24.7229C83.2574 24.7776 83.5991 24.6683 84.0638 24.3949ZM98.5928 26.8549C98.2375 26.5269 97.9095 26.2536 97.6088 26.0349C97.3355 25.7889 97.1032 25.5019 96.9118 25.1739C96.7478 24.8186 96.6248 24.3266 96.5428 23.6979C96.5155 23.2059 96.5428 22.7413 96.6248 22.3039C96.7068 21.8666 96.8298 21.4429 96.9938 21.0329C97.2398 20.4316 97.4995 19.8439 97.7728 19.2699C98.0462 18.6959 98.3195 18.1083 98.5928 17.5069C98.9482 16.6596 99.3308 15.9216 99.7408 15.2929C100.151 14.6369 100.547 14.3089 100.93 14.3089C101.394 14.3363 101.722 14.5003 101.914 14.8009C102.132 15.0743 102.419 15.4433 102.775 15.9079C102.72 16.1813 102.624 16.4546 102.488 16.7279C102.351 16.9739 102.187 17.2063 101.996 17.4249C101.64 17.7803 101.34 18.1766 101.094 18.6139C100.848 19.0513 100.656 19.5023 100.52 19.9669C100.328 20.3769 100.137 20.7869 99.9458 21.1969C99.7545 21.5796 99.5768 21.9759 99.4128 22.3859C98.9208 23.2879 98.7432 23.8346 98.8798 24.0259C99.0165 24.2173 99.3308 24.1489 99.8228 23.8209C100.342 23.4929 100.889 23.0146 101.463 22.3859C101.955 21.8666 102.337 21.4703 102.611 21.1969C102.884 20.9236 103.144 20.6229 103.39 20.2949C103.472 20.2129 103.663 19.9669 103.964 19.5569C104.292 19.1196 104.62 18.6686 104.948 18.2039C105.303 17.7119 105.563 17.3703 105.727 17.1789C105.945 16.9056 106.137 16.6323 106.301 16.3589C106.465 16.0583 106.601 15.7576 106.711 15.4569C106.765 15.1836 106.875 15.0059 107.039 14.9239C107.23 14.8146 107.462 14.7873 107.736 14.8419C108.009 15.0059 108.282 15.1973 108.556 15.4159C108.829 15.6073 109.061 15.9353 109.253 16.3999C109.389 16.6733 109.335 17.0969 109.089 17.6709C108.87 18.2449 108.61 18.8189 108.31 19.3929C108.064 19.8849 107.872 20.3906 107.736 20.9099C107.626 21.4293 107.503 21.9623 107.367 22.5089C107.285 22.8916 107.367 23.3289 107.613 23.8209C108.159 23.6023 108.569 23.3563 108.843 23.0829C109.143 22.7823 109.417 22.4679 109.663 22.1399C109.936 21.8119 110.291 21.5113 110.729 21.2379C110.865 20.9099 111.07 20.6503 111.344 20.4589C111.644 20.2403 111.849 19.9533 111.959 19.5979L113.558 17.7119C113.776 17.4659 113.968 17.1653 114.132 16.8099C114.323 16.4273 114.514 16.1129 114.706 15.8669C114.924 15.5936 115.157 15.4979 115.403 15.5799C116.25 15.8806 116.81 16.4546 117.084 17.3019C117.084 17.6573 116.933 18.2449 116.633 19.0649C116.359 19.8576 116.154 20.6503 116.018 21.4429C115.936 21.9076 115.881 22.3859 115.854 22.8779C115.854 23.3426 115.922 23.8209 116.059 24.3129C116.277 24.4769 116.551 24.5179 116.879 24.4359C117.234 24.3266 117.548 24.2719 117.822 24.2719C118.04 24.5453 118.136 24.8869 118.109 25.2969C118.081 25.7069 118.04 26.0076 117.986 26.1989C117.74 26.3356 117.494 26.4586 117.248 26.5679C117.002 26.6499 116.728 26.6773 116.428 26.6499C116.018 26.5679 115.731 26.4723 115.567 26.3629C115.403 26.2536 115.252 26.1169 115.116 25.9529C115.006 25.7616 114.815 25.5566 114.542 25.3379C114.104 24.9553 113.804 24.4633 113.64 23.8619C113.503 23.2606 113.407 22.6456 113.353 22.0169C113.243 21.9896 113.066 22.0989 112.82 22.3449C112.574 22.5909 112.287 22.9189 111.959 23.3289C111.631 23.7116 111.262 24.1353 110.852 24.5999C110.469 25.0373 110.045 25.4609 109.581 25.8709C109.28 26.1443 108.952 26.3629 108.597 26.5269C108.241 26.6636 107.804 26.6773 107.285 26.5679C106.957 26.3766 106.67 26.1169 106.424 25.7889C106.205 25.4336 105.932 25.1466 105.604 24.9279C105.494 24.6273 105.385 24.3539 105.276 24.1079C105.194 23.8346 105.125 23.5613 105.071 23.2879C105.016 23.0419 104.975 22.7959 104.948 22.5499C104.92 22.2766 104.975 22.0306 105.112 21.8119C104.948 21.7573 104.77 21.8666 104.579 22.1399C104.387 22.3859 104.169 22.6866 103.923 23.0419C103.677 23.3699 103.376 23.6706 103.021 23.9439C102.583 24.2993 102.214 24.6273 101.914 24.9279C101.613 25.2286 101.312 25.5293 101.012 25.8299C100.711 26.1306 100.342 26.4723 99.9048 26.8549H98.5928ZM123.597 26.6499C123.269 26.7046 122.914 26.6499 122.531 26.4859C122.149 26.3219 121.807 26.0896 121.506 25.7889C121.233 25.4883 121.055 25.1739 120.973 24.8459C120.864 24.2719 120.932 23.5613 121.178 22.7139C121.452 21.8393 121.834 20.9236 122.326 19.9669C122.846 18.9829 123.42 18.0399 124.048 17.1379C124.704 16.2359 125.374 15.4569 126.057 14.8009C126.768 14.1176 127.424 13.6529 128.025 13.4069C128.326 13.2156 128.558 13.0926 128.722 13.0379C128.914 12.9559 129.105 12.9423 129.296 12.9969C129.515 13.0516 129.829 13.1883 130.239 13.4069C130.622 13.5163 130.909 13.6393 131.1 13.7759C131.292 13.9126 131.538 14.1859 131.838 14.5959C132.057 15.0059 132.221 15.4159 132.33 15.8259C132.44 16.2359 132.535 16.7006 132.617 17.2199C132.836 17.9033 132.918 18.3543 132.863 18.5729C132.809 18.7643 132.727 18.9146 132.617 19.0239C132.399 19.2973 132.344 19.4339 132.453 19.4339C132.453 19.4339 132.44 19.4886 132.412 19.5979C132.412 19.6799 132.358 19.8166 132.248 20.0079C132.057 20.6093 131.907 21.2379 131.797 21.8939C131.715 22.5226 131.729 23.0419 131.838 23.4519C132.057 24.0533 132.453 24.4086 133.027 24.5179C133.601 24.6273 134.189 24.3813 134.79 23.7799C135.091 23.5613 135.378 23.3699 135.651 23.2059C135.925 23.0146 136.061 23.0283 136.061 23.2469C136.061 23.2469 136.102 23.2879 136.184 23.3699C136.266 23.4246 136.362 23.4519 136.471 23.4519C136.608 23.4519 136.69 23.5066 136.717 23.6159C136.772 23.7253 136.772 23.8756 136.717 24.0669C136.69 24.2309 136.608 24.4223 136.471 24.6409C136.061 25.0509 135.856 25.3243 135.856 25.4609C135.856 25.4609 135.802 25.5156 135.692 25.6249C135.61 25.7069 135.46 25.8436 135.241 26.0349C134.749 26.3356 134.121 26.4859 133.355 26.4859C132.617 26.4859 132.043 26.3356 131.633 26.0349C131.223 25.7343 130.841 25.3243 130.485 24.8049C130.157 24.2856 129.939 23.8346 129.829 23.4519L129.624 23.0419L128.435 23.8209C128.135 24.1216 127.807 24.4086 127.451 24.6819C127.123 24.9553 126.905 25.1466 126.795 25.2559C126.713 25.3653 126.618 25.4609 126.508 25.5429C126.426 25.6249 126.331 25.6659 126.221 25.6659C126.112 25.6659 126.016 25.6659 125.934 25.6659C125.852 25.6659 125.811 25.6659 125.811 25.6659C125.811 25.7753 125.675 25.9119 125.401 26.0759C125.155 26.2399 124.855 26.3766 124.499 26.4859C124.171 26.5953 123.871 26.6499 123.597 26.6499ZM123.187 24.4359C123.351 24.4359 123.638 24.3129 124.048 24.0669C124.486 23.7936 124.964 23.4793 125.483 23.1239C126.03 22.7686 126.508 22.4133 126.918 22.0579C127.356 21.7026 127.656 21.4293 127.82 21.2379C127.93 21.1286 128.107 20.9509 128.353 20.7049C128.599 20.4316 128.818 20.1993 129.009 20.0079C129.638 19.2973 130.075 18.5183 130.321 17.6709C130.567 16.7963 130.54 16.1129 130.239 15.6209C130.13 15.3203 129.993 15.1563 129.829 15.1289C129.665 15.1016 129.324 15.1973 128.804 15.4159C128.476 15.6073 128.066 15.9763 127.574 16.5229C127.11 17.0423 126.604 17.6573 126.057 18.3679C125.538 19.0513 125.046 19.7619 124.581 20.4999C124.117 21.2379 123.734 21.9213 123.433 22.5499C123.133 23.1786 122.982 23.6706 122.982 24.0259C122.982 24.1353 123.01 24.2309 123.064 24.3129C123.146 24.3949 123.187 24.4359 123.187 24.4359ZM145.088 26.5679C144.514 27.0599 143.844 27.3469 143.079 27.4289C142.341 27.5109 141.616 27.4016 140.906 27.1009C140.195 26.7729 139.607 26.2809 139.143 25.6249C138.678 25.0236 138.377 24.3403 138.241 23.5749C138.104 22.7823 138.09 21.7573 138.2 20.4999C138.282 19.4339 138.623 18.3679 139.225 17.3019C139.826 16.2086 140.55 15.2383 141.398 14.3909C142.272 13.5436 143.133 12.9559 143.981 12.6279C144.391 12.3546 144.732 12.2316 145.006 12.2589C145.306 12.2589 145.757 12.2863 146.359 12.3409C146.987 12.4229 147.452 12.5459 147.753 12.7099C148.081 12.8739 148.34 13.0926 148.532 13.3659C148.942 13.7759 149.215 14.1859 149.352 14.5959C149.488 14.9786 149.557 15.3613 149.557 15.7439C149.447 16.3453 149.037 17.0833 148.327 17.9579C147.643 18.8053 146.741 19.5023 145.621 20.0489C145.019 20.2403 144.363 20.3223 143.653 20.2949C142.942 20.2676 142.354 20.0899 141.89 19.7619C141.37 19.5433 141.029 19.5843 140.865 19.8849C140.701 20.1583 140.55 20.8416 140.414 21.9349C140.304 22.9736 140.386 23.7389 140.66 24.2309C140.933 24.6956 141.302 24.9689 141.767 25.0509C142.313 25.1603 142.737 25.2423 143.038 25.2969C143.366 25.3243 143.762 25.2013 144.227 24.9279C144.664 24.6546 144.937 24.5043 145.047 24.4769C145.156 24.4223 145.238 24.3676 145.293 24.3129C145.375 24.2309 145.552 24.0533 145.826 23.7799C146.017 23.5886 146.167 23.4519 146.277 23.3699C146.386 23.2606 146.509 23.2059 146.646 23.2059C146.782 23.2059 146.905 23.2743 147.015 23.4109C147.124 23.5203 147.233 23.6023 147.343 23.6569C147.616 23.6569 147.671 23.8209 147.507 24.1489C147.37 24.4769 147.083 24.8733 146.646 25.3379C146.208 25.7753 145.689 26.1853 145.088 26.5679ZM145.047 17.8759C145.347 17.7393 145.662 17.5479 145.99 17.3019C146.318 17.0286 146.591 16.7416 146.81 16.4409C147.056 16.1129 147.179 15.8396 147.179 15.6209C147.179 15.2383 147.001 14.9239 146.646 14.6779C146.29 14.4046 145.757 14.3636 145.047 14.5549C144.746 14.6369 144.404 14.8419 144.022 15.1699C143.639 15.4706 143.27 15.8123 142.915 16.1949C142.587 16.5776 142.313 16.9193 142.095 17.2199C141.903 17.5206 141.835 17.6983 141.89 17.7529C141.972 17.8896 142.204 17.9989 142.587 18.0809C142.969 18.1356 143.393 18.1493 143.858 18.1219C144.35 18.0946 144.746 18.0126 145.047 17.8759ZM170.475 27.1829C170.174 27.2376 169.873 27.2513 169.573 27.2239C169.272 27.1966 168.985 27.0873 168.712 26.8959C168.602 26.6773 168.466 26.4313 168.302 26.1579C168.165 25.8573 168.151 25.5976 168.261 25.3789C168.397 25.0509 168.466 24.5863 168.466 23.9849C168.493 23.3836 168.602 22.8779 168.794 22.4679C168.821 22.4133 168.835 22.3723 168.835 22.3449C168.862 22.2903 168.876 22.2356 168.876 22.1809C168.903 21.9076 168.971 21.5659 169.081 21.1559C169.217 20.7186 169.313 20.3769 169.368 20.1309C169.395 20.0763 169.436 19.8439 169.491 19.4339C169.545 19.0239 169.6 18.5866 169.655 18.1219C169.709 17.6573 169.737 17.3293 169.737 17.1379C169.737 17.0013 169.778 16.8919 169.86 16.8099C169.969 16.7006 169.969 16.5639 169.86 16.3999C169.422 16.8099 168.876 17.3703 168.22 18.0809C167.591 18.7916 166.99 19.5159 166.416 20.2539C165.842 20.9646 165.391 21.5796 165.063 22.0989C165.008 22.2083 164.94 22.3039 164.858 22.3859C164.776 22.4679 164.707 22.5499 164.653 22.6319C164.543 22.7959 164.407 22.9463 164.243 23.0829C164.079 23.2196 163.956 23.3973 163.874 23.6159C163.409 24.0806 163.026 24.5179 162.726 24.9279C162.452 25.3379 162.056 25.7616 161.537 26.1989C161.181 26.2809 160.853 26.2536 160.553 26.1169C160.279 25.9803 159.992 25.8573 159.692 25.7479C159.637 25.6113 159.569 25.4746 159.487 25.3379C159.405 25.1739 159.336 25.0236 159.282 24.8869C159.364 24.2583 159.487 23.4929 159.651 22.5909C159.815 21.6616 159.951 20.7459 160.061 19.8439C160.197 18.9419 160.238 18.2449 160.184 17.7529C160.156 17.6163 160.143 17.5069 160.143 17.4249C160.143 17.3429 160.184 17.2473 160.266 17.1379C160.266 17.0833 160.266 17.0286 160.266 16.9739C160.293 16.9193 160.307 16.8783 160.307 16.8509C160.17 16.7143 160.143 16.5776 160.225 16.4409C160.307 16.3043 160.307 16.1676 160.225 16.0309C160.197 16.0036 160.156 15.9763 160.102 15.9489C160.074 15.9216 160.033 15.8943 159.979 15.8669C159.377 16.7963 158.721 17.6709 158.011 18.4909C157.327 19.2836 156.658 20.1173 156.002 20.9919C155.564 21.5659 155.141 22.2356 154.731 23.0009C154.348 23.7663 153.883 24.3949 153.337 24.8869C153.145 25.0783 152.954 25.2969 152.763 25.5429C152.599 25.7616 152.394 25.9529 152.148 26.1169C152.093 26.3083 151.984 26.4586 151.82 26.5679C151.683 26.6499 151.505 26.6909 151.287 26.6909C150.877 26.6909 150.467 26.5543 150.057 26.2809C149.647 26.0076 149.428 25.6933 149.401 25.3379C149.401 25.1466 149.483 24.9553 149.647 24.7639C149.674 24.7093 149.688 24.6546 149.688 24.5999C149.715 24.5453 149.742 24.5043 149.77 24.4769C150.289 24.2583 150.808 23.8619 151.328 23.2879C151.874 22.7139 152.394 22.0989 152.886 21.4429C153.378 20.7596 153.829 20.1993 154.239 19.7619C154.621 19.3793 154.922 18.9829 155.141 18.5729C155.359 18.1356 155.633 17.7119 155.961 17.3019C156.371 16.7826 156.781 16.2223 157.191 15.6209C157.628 15.0196 158.052 14.4319 158.462 13.8579C158.899 13.2839 159.336 12.7783 159.774 12.3409C159.965 12.4503 160.156 12.5459 160.348 12.6279C160.566 12.7099 160.799 12.7509 161.045 12.7509C161.181 12.9149 161.304 13.0789 161.414 13.2429C161.55 13.3796 161.701 13.5163 161.865 13.6529C162.247 13.9809 162.507 14.4183 162.644 14.9649C162.78 15.5116 162.849 16.0993 162.849 16.7279C162.849 17.6299 162.753 18.5456 162.562 19.4749C162.398 20.3769 162.275 21.1423 162.193 21.7709C162.193 21.7983 162.193 21.8256 162.193 21.8529C162.22 21.8529 162.234 21.8666 162.234 21.8939C162.835 21.3746 163.368 20.7733 163.833 20.0899C164.297 19.4066 164.789 18.7643 165.309 18.1629C166.265 17.0423 166.976 16.2223 167.441 15.7029C167.933 15.1836 168.302 14.8146 168.548 14.5959C168.794 14.3773 169.04 14.1586 169.286 13.9399C169.477 13.8033 169.696 13.6256 169.942 13.4069C170.215 13.1609 170.57 12.8193 171.008 12.3819C171.226 12.3819 171.431 12.3819 171.623 12.3819C171.841 12.3819 172.046 12.3819 172.238 12.3819C172.456 12.5186 172.62 12.6279 172.73 12.7099C172.839 12.7646 173.017 12.8193 173.263 12.8739C173.29 13.0106 173.345 13.2156 173.427 13.4889C173.509 13.7623 173.522 13.9673 173.468 14.1039C173.413 14.2953 173.386 14.4866 173.386 14.6779C173.386 14.8693 173.317 15.0606 173.181 15.2519C172.962 15.5799 172.757 16.1266 172.566 16.8919C172.402 17.6299 172.251 18.3679 172.115 19.1059C172.005 19.8166 171.937 20.3223 171.91 20.6229C171.8 21.1423 171.691 21.4976 171.582 21.6889C171.472 21.8529 171.39 22.0306 171.336 22.2219C171.281 22.4133 171.267 22.6319 171.295 22.8779C171.322 23.0966 171.295 23.3016 171.213 23.4929C171.185 23.5203 171.158 23.5476 171.131 23.5749C171.131 23.5749 171.117 23.5886 171.09 23.6159C171.09 23.8893 171.09 24.1763 171.09 24.4769C171.117 24.7503 171.062 24.9963 170.926 25.2149C170.98 25.4063 170.994 25.6113 170.967 25.8299C170.939 26.0486 170.967 26.2673 171.049 26.4859C170.939 26.5953 170.844 26.7046 170.762 26.8139C170.68 26.9233 170.584 27.0463 170.475 27.1829ZM187.13 27.0599C186.938 27.0053 186.679 26.9506 186.351 26.8959C186.023 26.8413 185.722 26.7456 185.449 26.6089C185.203 26.4449 185.08 26.2399 185.08 25.9939C185.08 25.7753 185.093 25.5839 185.121 25.4199C185.175 25.2286 185.285 25.0646 185.449 24.9279C185.476 24.8733 185.49 24.8323 185.49 24.8049C185.49 24.7776 185.503 24.7503 185.531 24.7229C185.531 24.5863 185.503 24.4633 185.449 24.3539C185.394 24.2446 185.394 24.1079 185.449 23.9439C185.558 23.6433 185.64 23.3973 185.695 23.2059C185.777 22.9873 185.818 22.7139 185.818 22.3859C185.818 22.3313 185.818 22.2766 185.818 22.2219C185.818 22.1399 185.831 22.0716 185.859 22.0169C186.077 21.4156 186.255 20.8006 186.392 20.1719C186.528 19.5433 186.733 18.9419 187.007 18.3679C187.335 17.6573 187.758 16.7279 188.278 15.5799C188.797 14.4046 189.234 13.3249 189.59 12.3409C189.699 12.0403 189.822 11.8489 189.959 11.7669C190.123 11.6576 190.3 11.6166 190.492 11.6439C190.82 11.6713 191.148 11.8626 191.476 12.2179C191.804 12.5459 192.05 12.8329 192.214 13.0789C191.94 13.5983 191.612 14.2133 191.23 14.9239C190.874 15.6073 190.533 16.2769 190.205 16.9329C189.904 17.5616 189.685 18.0809 189.549 18.4909C189.931 18.5183 190.382 18.5183 190.902 18.4909C191.448 18.4363 191.981 18.4363 192.501 18.4909C193.102 18.5456 193.635 18.5456 194.1 18.4909C194.564 18.4363 195.084 18.3679 195.658 18.2859C195.794 17.8759 195.931 17.4113 196.068 16.8919C196.232 16.3726 196.396 15.8396 196.56 15.2929C196.751 14.7463 196.983 14.2406 197.257 13.7759C197.53 13.3113 197.872 12.9559 198.282 12.7099C198.5 12.6553 198.664 12.6553 198.774 12.7099C198.883 12.7373 199.033 12.8193 199.225 12.9559C199.58 13.2293 199.84 13.4479 200.004 13.6119C200.195 13.7486 200.263 13.9126 200.209 14.1039C200.154 14.2953 199.976 14.6096 199.676 15.0469C199.484 15.3476 199.348 15.7029 199.266 16.1129C199.184 16.4956 199.033 16.8236 198.815 17.0969C198.76 17.1516 198.651 17.3976 198.487 17.8349C198.323 18.2723 198.131 18.8053 197.913 19.4339C197.694 20.0626 197.475 20.6913 197.257 21.3199C197.038 21.9486 196.847 22.4953 196.683 22.9599C196.546 23.4246 196.478 23.6979 196.478 23.7799C196.45 24.1353 196.396 24.5043 196.314 24.8869C196.232 25.2423 196.191 25.6113 196.191 25.9939C196.191 26.2126 196.122 26.3766 195.986 26.4859C195.876 26.5679 195.726 26.6089 195.535 26.6089C195.261 26.6089 194.961 26.5406 194.633 26.4039C194.305 26.2673 194.059 26.1443 193.895 26.0349C193.785 25.9529 193.69 25.8163 193.608 25.6249C193.553 25.4336 193.512 25.2696 193.485 25.1329C193.649 24.4496 193.84 23.8073 194.059 23.2059C194.305 22.5773 194.523 21.9349 194.715 21.2789C194.769 21.1696 194.797 21.0603 194.797 20.9509C194.797 20.8416 194.769 20.7323 194.715 20.6229C193.813 20.4863 192.897 20.4589 191.968 20.5409C191.038 20.6229 190.123 20.6913 189.221 20.7459C189.084 20.8826 188.92 21.2106 188.729 21.7299C188.565 22.2219 188.414 22.7413 188.278 23.2879C188.141 23.8073 188.032 24.2036 187.95 24.4769C187.977 24.6683 187.95 24.9416 187.868 25.2969C187.786 25.6523 187.676 26.0076 187.54 26.3629C187.403 26.6909 187.266 26.9233 187.13 27.0599ZM205.459 26.8139C205.241 26.8686 204.954 26.8959 204.598 26.8959C204.243 26.8686 203.929 26.8276 203.655 26.7729C203.409 26.6909 203.286 26.6089 203.286 26.5269C203.286 26.3903 203.218 26.3219 203.081 26.3219C203.081 26.3219 203.013 26.2673 202.876 26.1579C202.767 26.0486 202.589 25.9393 202.343 25.8299C202.097 25.4473 201.974 25.0373 201.974 24.5999C201.974 24.1353 202.097 23.4109 202.343 22.4269C202.425 21.7436 202.685 20.9509 203.122 20.0489C203.587 19.1196 204.147 18.1766 204.803 17.2199C205.459 16.2633 206.143 15.4023 206.853 14.6369C207.591 13.8716 208.261 13.3113 208.862 12.9559C209.245 12.5733 209.71 12.3683 210.256 12.3409C210.803 12.3136 211.322 12.4366 211.814 12.7099C212.088 12.8466 212.361 13.0653 212.634 13.3659C212.908 13.6666 213.167 13.9946 213.413 14.3499C213.659 14.7053 213.864 15.0606 214.028 15.4159C214.11 15.7166 214.151 15.9899 214.151 16.2359C214.179 16.4546 214.179 16.7279 214.151 17.0559C214.151 17.3839 214.11 17.8759 214.028 18.5319C213.892 19.0239 213.769 19.6253 213.659 20.3359C213.577 21.0466 213.536 21.6616 213.536 22.1809C213.482 22.7003 213.536 23.0693 213.7 23.2879C213.892 23.5066 214.165 23.5203 214.52 23.3289C214.848 23.1649 215.163 23.0966 215.463 23.1239C215.764 23.1239 215.996 23.2059 216.16 23.3699C216.352 23.5339 216.447 23.7799 216.447 24.1079C216.447 24.4359 216.283 24.7776 215.955 25.1329C215.655 25.4609 215.272 25.7479 214.807 25.9939C214.37 26.2126 213.946 26.3219 213.536 26.3219C213.236 26.3219 212.949 26.1443 212.675 25.7889C212.402 25.4063 212.156 24.9553 211.937 24.4359C211.746 23.8893 211.568 23.3699 211.404 22.8779L211.158 21.9349L209.395 23.6159C209.04 23.9986 208.685 24.3539 208.329 24.6819C208.001 24.9826 207.796 25.2013 207.714 25.3379C207.578 25.5839 207.318 25.8299 206.935 26.0759C206.58 26.3219 206.088 26.5679 205.459 26.8139ZM205.582 24.3949C206.047 24.1216 206.58 23.7253 207.181 23.2059C207.783 22.6593 208.37 22.0716 208.944 21.4429C209.518 20.7869 209.997 20.1856 210.379 19.6389C210.844 19.0103 211.199 18.4226 211.445 17.8759C211.691 17.3293 211.869 16.8099 211.978 16.3179C211.869 16.0173 211.691 15.7029 211.445 15.3749C211.199 15.0196 210.981 14.8283 210.789 14.8009C210.188 14.8009 209.546 15.1836 208.862 15.9489C208.206 16.6869 207.564 17.4933 206.935 18.3679C206.826 18.5046 206.676 18.7233 206.484 19.0239C206.293 19.3246 206.102 19.6116 205.91 19.8849C205.746 20.1309 205.637 20.2949 205.582 20.3769C205.5 20.4863 205.336 20.8006 205.09 21.3199C204.872 21.8119 204.653 22.3176 204.434 22.8369C204.216 23.3289 204.106 23.6569 204.106 23.8209C204.106 23.9849 204.12 24.1626 204.147 24.3539C204.202 24.5453 204.339 24.6683 204.557 24.7229C204.776 24.7776 205.118 24.6683 205.582 24.3949ZM233.608 20.6639C233.253 21.7573 232.843 22.8506 232.378 23.9439C231.913 25.0373 231.572 26.1443 231.353 27.2649C231.326 27.4563 231.271 27.5929 231.189 27.6749C231.107 27.7569 230.97 27.8253 230.779 27.8799C230.287 28.0439 229.945 28.0303 229.754 27.8389C229.563 27.6203 229.317 27.3606 229.016 27.0599C228.934 26.7046 228.907 26.3493 228.934 25.9939C228.989 25.6386 229.098 25.2969 229.262 24.9689C229.59 24.3129 229.877 23.6569 230.123 23.0009C230.369 22.3449 230.601 21.6753 230.82 20.9919C230.656 20.7186 230.492 20.4589 230.328 20.2129C230.191 19.9396 230.055 19.6663 229.918 19.3929C230.137 18.9283 230.328 18.6276 230.492 18.4909C230.683 18.3543 231.08 18.2449 231.681 18.1629C231.927 17.8076 232.159 17.2883 232.378 16.6049C232.624 15.9216 232.856 15.2109 233.075 14.4729C233.239 13.8716 233.403 13.3113 233.567 12.7919C233.758 12.2453 233.95 11.7806 234.141 11.3979C234.36 11.0153 234.592 10.7556 234.838 10.6189C235.084 10.6463 235.412 10.7009 235.822 10.7829C236.232 10.8649 236.451 11.0563 236.478 11.3569C236.533 11.6303 236.492 12.0539 236.355 12.6279C236.218 13.1746 236.041 13.7896 235.822 14.4729C235.603 15.1289 235.385 15.7576 235.166 16.3589C234.975 16.9329 234.824 17.3839 234.715 17.7119C235.18 17.7119 235.672 17.7119 236.191 17.7119C236.71 17.7119 237.202 17.6573 237.667 17.5479C237.995 17.4659 238.323 17.4113 238.651 17.3839C238.979 17.3566 239.321 17.3429 239.676 17.3429L238.856 19.9669C238.637 19.9669 238.419 19.9806 238.2 20.0079C238.009 20.0079 237.804 20.0489 237.585 20.1309C237.011 20.3496 236.382 20.4316 235.699 20.3769C235.016 20.3223 234.319 20.4179 233.608 20.6639ZM246.154 12.6689C246.837 12.8603 247.343 13.1336 247.671 13.4889C247.999 13.8443 248.259 14.3636 248.45 15.0469C248.805 16.3863 248.792 17.7529 248.409 19.1469C248.054 20.5136 247.466 21.8119 246.646 23.0419C245.826 24.2446 244.91 25.2833 243.899 26.1579C243.462 26.5406 242.983 26.8959 242.464 27.2239C241.945 27.5246 241.412 27.7023 240.865 27.7569C240.318 27.7843 239.758 27.6066 239.184 27.2239C238.774 26.9233 238.378 26.5133 237.995 25.9939C237.612 25.4473 237.435 24.9143 237.462 24.3949C237.489 24.2309 237.503 24.0806 237.503 23.9439C237.503 23.7799 237.476 23.6159 237.421 23.4519C237.312 23.3973 237.257 23.3289 237.257 23.2469C237.284 23.1376 237.325 23.0419 237.38 22.9599C237.517 22.9326 237.571 22.8643 237.544 22.7549C237.517 22.6456 237.489 22.5636 237.462 22.5089C237.38 22.2903 237.394 21.9349 237.503 21.4429C237.612 20.9236 237.749 20.4179 237.913 19.9259C238.104 19.4066 238.241 19.0376 238.323 18.8189C238.706 17.9443 239.157 17.0969 239.676 16.2769C240.195 15.4569 240.81 14.7189 241.521 14.0629C242.232 13.4069 243.038 12.9013 243.94 12.5459C244.459 12.3273 244.842 12.2043 245.088 12.1769C245.334 12.1223 245.689 12.2863 246.154 12.6689ZM244.145 22.8779C244.692 22.1399 245.129 21.3609 245.457 20.5409C245.812 19.7209 246.058 18.8599 246.195 17.9579C246.359 17.0559 246.332 16.3179 246.113 15.7439C245.894 15.1426 245.525 14.8283 245.006 14.8009C244.487 14.7736 243.831 15.1563 243.038 15.9489C242.573 16.4409 242.136 17.0969 241.726 17.9169C241.316 18.7096 240.961 19.5433 240.66 20.4179C240.359 21.2653 240.113 22.0169 239.922 22.6729C239.813 23.0829 239.758 23.5749 239.758 24.1489C239.785 24.6956 239.936 25.1193 240.209 25.4199C240.51 25.7206 240.988 25.7069 241.644 25.3789C242.163 25.1329 242.628 24.7639 243.038 24.2719C243.448 23.7799 243.817 23.3153 244.145 22.8779ZM253.89 27.7979C253.699 27.6886 253.494 27.5793 253.275 27.4699C253.084 27.3606 252.893 27.2513 252.701 27.1419C252.537 27.0326 252.387 26.9233 252.25 26.8139C251.676 26.2946 251.294 25.7343 251.102 25.1329C250.938 24.5043 250.884 23.9029 250.938 23.3289C250.993 22.7549 251.075 22.2629 251.184 21.8529C251.294 21.4156 251.348 21.1149 251.348 20.9509C251.321 20.7323 251.362 20.5273 251.471 20.3359C251.581 20.1173 251.69 19.8986 251.799 19.6799C252.291 18.7233 252.742 17.9033 253.152 17.2199C253.59 16.5093 254.218 15.6893 255.038 14.7599C255.202 14.6233 255.353 14.5003 255.489 14.3909C255.653 14.2543 255.817 14.1586 255.981 14.1039L256.924 14.8009C257.034 14.9103 257.102 15.0469 257.129 15.2109C257.157 15.3476 257.129 15.5389 257.047 15.7849C256.993 15.9763 256.924 16.1676 256.842 16.3589C256.788 16.5229 256.706 16.6733 256.596 16.8099C256.132 17.2473 255.763 17.7393 255.489 18.2859C255.216 18.8053 254.929 19.3383 254.628 19.8849C254.628 20.1309 254.533 20.3359 254.341 20.4999C254.15 20.6366 254.041 20.8416 254.013 21.1149C254.013 21.3063 253.986 21.4976 253.931 21.6889C253.877 21.8803 253.822 22.0853 253.767 22.3039C253.576 22.7413 253.494 23.1649 253.521 23.5749C253.549 23.9849 253.562 24.4086 253.562 24.8459C253.781 24.9553 253.972 25.0236 254.136 25.0509C254.3 25.0509 254.519 24.9143 254.792 24.6409C255.339 24.1763 255.722 23.7663 255.94 23.4109C256.186 23.0556 256.378 22.7003 256.514 22.3449C256.651 21.9896 256.842 21.5796 257.088 21.1149C257.362 20.6503 257.594 20.0626 257.785 19.3519C257.977 18.6413 258.113 17.9716 258.195 17.3429C258.277 16.6869 258.277 16.2496 258.195 16.0309C258.168 15.8943 258.182 15.7303 258.236 15.5389C258.291 15.3476 258.209 15.1563 257.99 14.9649C258.1 14.8556 258.154 14.6506 258.154 14.3499C258.154 14.0493 258.127 13.7349 258.072 13.4069C258.018 13.0789 257.936 12.8466 257.826 12.7099C257.772 11.6166 257.731 10.7009 257.703 9.96293C257.703 9.1976 257.717 8.5416 257.744 7.99493C257.799 7.42093 257.867 6.88793 257.949 6.39593C257.977 6.31393 258.141 6.04059 258.441 5.57593C258.769 5.08393 259.07 4.70126 259.343 4.42793C259.808 4.01793 260.437 3.70359 261.229 3.48493C262.049 3.23893 262.746 3.14326 263.32 3.19793C263.293 3.22526 263.457 3.23893 263.812 3.23893C264.195 3.23893 264.619 3.22526 265.083 3.19793C265.548 3.1706 265.89 3.14326 266.108 3.11593C266.327 3.06126 266.546 3.0066 266.764 2.95193C266.983 2.89726 267.352 2.7196 267.871 2.41893C268.09 2.28226 268.268 2.24126 268.404 2.29593L269.511 3.23893C269.484 4.00426 269.293 4.57826 268.937 4.96093C268.582 5.31626 267.899 5.5486 266.887 5.65793C266.723 5.65793 266.546 5.65793 266.354 5.65793C266.163 5.6306 265.972 5.64426 265.78 5.69893C265.616 5.75359 265.466 5.75359 265.329 5.69893C265.22 5.64426 265.056 5.61693 264.837 5.61693C264.537 5.61693 264.222 5.65793 263.894 5.73993C263.566 5.7946 263.225 5.78093 262.869 5.69893C261.885 5.97226 261.12 6.34126 260.573 6.80593C260.027 7.2706 259.753 8.03593 259.753 9.10193C259.863 10.1133 259.999 11.0153 260.163 11.8079C260.355 12.6006 260.45 13.4753 260.45 14.4319C260.505 14.6779 260.573 14.8829 260.655 15.0469C260.737 15.2109 260.696 15.3886 260.532 15.5799C260.669 16.2086 260.737 16.8236 260.737 17.4249C260.737 17.9989 260.655 18.4363 260.491 18.7369C260.437 18.9283 260.396 19.2836 260.368 19.8029C260.368 20.2949 260.232 20.8143 259.958 21.3609C259.33 22.6456 258.687 23.7936 258.031 24.8049C257.375 25.7889 256.542 26.6226 255.53 27.3059C255.339 27.4153 255.107 27.4973 254.833 27.5519C254.587 27.6066 254.273 27.6886 253.89 27.7979ZM273.514 27.9209C273.24 27.6476 272.967 27.2786 272.694 26.8139C272.42 26.3219 272.202 25.7616 272.038 25.1329C271.983 24.9143 271.956 24.6136 271.956 24.2309C271.983 23.8483 271.983 23.5749 271.956 23.4109C271.874 23.6023 271.737 23.8073 271.546 24.0259C271.382 24.2173 271.218 24.3813 271.054 24.5179C270.944 24.6273 270.698 24.8459 270.316 25.1739C269.933 25.4746 269.55 25.7206 269.168 25.9119C268.266 26.4859 267.514 26.8003 266.913 26.8549C266.339 26.9096 265.792 26.6089 265.273 25.9529C264.835 25.5976 264.521 25.2013 264.33 24.7639C264.166 24.3266 264.166 23.7253 264.33 22.9599C264.384 22.0033 264.521 21.0739 264.74 20.1719C264.958 19.2426 265.409 18.0126 266.093 16.4819C266.667 15.3613 267.104 14.5413 267.405 14.0219C267.705 13.4753 267.897 13.1473 267.979 13.0379C268.389 12.9013 268.73 12.9149 269.004 13.0789C269.277 13.2156 269.441 13.4753 269.496 13.8579C269.66 14.1313 269.632 14.5959 269.414 15.2519C269.222 15.9079 268.881 16.7143 268.389 17.6709C268.006 18.6003 267.651 19.5296 267.323 20.4589C267.022 21.3883 266.844 22.1809 266.79 22.8369C266.735 23.4929 266.899 23.8893 267.282 24.0259C267.528 24.1626 267.951 24.1216 268.553 23.9029C269.181 23.6843 269.878 23.1376 270.644 22.2629C271.436 21.3883 272.202 20.0626 272.94 18.2859C273.158 17.7393 273.322 17.2609 273.432 16.8509C273.541 16.4136 273.609 15.9353 273.637 15.4159C273.582 15.0879 273.596 14.8009 273.678 14.5549C273.787 14.2816 274.006 14.0493 274.334 13.8579C274.443 13.7213 274.593 13.5983 274.785 13.4889C274.976 13.3523 275.099 13.3523 275.154 13.4889L275.81 13.4479C275.919 13.4206 275.987 13.4889 276.015 13.6529C276.069 13.7896 276.165 13.9126 276.302 14.0219C276.602 14.2679 276.684 14.8009 276.548 15.6209C276.411 16.4409 276.028 17.5889 275.4 19.0649C274.88 20.1856 274.525 21.0329 274.334 21.6069C274.17 22.1809 274.074 22.7413 274.047 23.2879C274.047 23.7799 274.142 24.2446 274.334 24.6819C274.525 25.1193 274.826 25.5156 275.236 25.8709C275.536 26.0623 275.7 26.2809 275.728 26.5269C275.782 26.7729 275.796 27.0599 275.769 27.3879C275.714 27.6339 275.55 27.8389 275.277 28.0029C275.031 28.1396 274.744 28.2079 274.416 28.2079C274.088 28.2079 273.787 28.1123 273.514 27.9209ZM279.393 27.2239C279.201 27.1146 278.996 27.0463 278.778 27.0189C278.586 26.9916 278.381 26.9643 278.163 26.9369C277.971 26.7456 277.807 26.5543 277.671 26.3629C277.561 26.1443 277.479 25.8983 277.425 25.6249C277.397 25.4609 277.425 25.3106 277.507 25.1739C277.589 25.0373 277.671 24.9143 277.753 24.8049C277.835 24.8049 277.93 24.8186 278.04 24.8459C278.149 24.8459 278.258 24.8459 278.368 24.8459C278.832 24.4906 279.242 24.1079 279.598 23.6979C279.98 23.2606 280.349 22.8096 280.705 22.3449C281.087 21.8256 281.429 21.3063 281.73 20.7869C282.03 20.2403 282.276 19.6663 282.468 19.0649C282.55 18.8189 282.604 18.5729 282.632 18.3269C282.659 18.0536 282.727 17.8076 282.837 17.5889C283.001 17.2609 283.124 16.9329 283.206 16.6049C283.315 16.2496 283.424 15.9079 283.534 15.5799C283.124 15.4979 282.809 15.4433 282.591 15.4159C282.399 15.3613 282.222 15.2656 282.058 15.1289C281.894 14.9923 281.661 14.7873 281.361 14.5139C281.333 14.1313 281.374 13.8579 281.484 13.6939C281.593 13.5026 281.853 13.3523 282.263 13.2429C282.427 13.1883 282.591 13.1473 282.755 13.1199C282.919 13.0653 283.083 13.0379 283.247 13.0379C283.547 13.0106 283.848 12.9969 284.149 12.9969C284.449 12.9969 284.764 13.0106 285.092 13.0379C285.31 13.0653 285.529 13.1063 285.748 13.1609C285.966 13.2156 286.185 13.2703 286.404 13.3249C286.65 13.4069 286.896 13.5163 287.142 13.6529C287.388 13.7623 287.634 13.8579 287.88 13.9399C288.071 13.9673 288.249 14.0356 288.413 14.1449C288.577 14.2543 288.754 14.3773 288.946 14.5139C289.438 14.8146 289.82 15.1973 290.094 15.6619C290.367 16.0993 290.504 16.5913 290.504 17.1379C290.504 17.9853 290.381 18.7779 290.135 19.5159C289.998 20.0353 289.848 20.5546 289.684 21.0739C289.547 21.5933 289.397 22.1126 289.233 22.6319C289.123 22.9873 289.014 23.3289 288.905 23.6569C288.795 23.9849 288.713 24.3266 288.659 24.6819C288.604 24.9826 288.563 25.2969 288.536 25.6249C288.508 25.9529 288.467 26.2946 288.413 26.6499C288.303 26.6773 288.194 26.7046 288.085 26.7319C288.003 26.7593 287.893 26.8003 287.757 26.8549C287.456 26.7456 287.142 26.6363 286.814 26.5269C286.486 26.3903 286.253 26.1033 286.117 25.6659C286.117 25.6113 286.117 25.5566 286.117 25.5019C286.144 25.4199 286.158 25.3243 286.158 25.2149C286.158 25.1329 286.158 25.0509 286.158 24.9689C286.158 24.8869 286.158 24.8049 286.158 24.7229C286.212 24.2309 286.294 23.7526 286.404 23.2879C286.513 22.7959 286.65 22.3176 286.814 21.8529C287.032 21.3063 287.21 20.7733 287.347 20.2539C287.483 19.7073 287.62 19.1743 287.757 18.6549C287.839 18.4089 287.893 18.1629 287.921 17.9169C287.975 17.6436 288.016 17.3839 288.044 17.1379C288.071 16.8373 288.003 16.4956 287.839 16.1129C287.565 15.8943 287.278 15.7303 286.978 15.6209C286.677 15.4843 286.349 15.3886 285.994 15.3339C285.939 15.5253 285.843 15.7303 285.707 15.9489C285.679 16.0036 285.666 16.0856 285.666 16.1949C285.666 16.2769 285.638 16.3316 285.584 16.3589C285.42 16.4683 285.31 16.6186 285.256 16.8099C285.228 16.9739 285.201 17.1516 285.174 17.3429C285.146 17.4796 285.105 17.6163 285.051 17.7529C284.996 17.8896 284.928 18.0263 284.846 18.1629C284.736 18.2723 284.668 18.4226 284.641 18.6139C284.613 18.7779 284.586 18.9556 284.559 19.1469C284.504 19.5569 284.408 19.9533 284.272 20.3359C284.135 20.7186 283.957 21.1423 283.739 21.6069C283.602 21.7983 283.479 22.0033 283.37 22.2219C283.26 22.4133 283.151 22.6183 283.042 22.8369C283.014 22.9463 282.96 23.0556 282.878 23.1649C282.796 23.2469 282.727 23.3563 282.673 23.4929C282.536 23.7663 282.386 24.0533 282.222 24.3539C282.058 24.6273 281.866 24.8733 281.648 25.0919C281.292 25.4473 280.937 25.8163 280.582 26.1989C280.254 26.5816 279.857 26.9233 279.393 27.2239ZM296.238 28.1259C295.036 28.1259 294.052 27.6749 293.286 26.7729C292.521 25.8436 292.152 24.6956 292.179 23.3289C292.234 22.3449 292.425 21.2926 292.753 20.1719C293.109 19.0239 293.573 17.9306 294.147 16.8919C294.721 15.8259 295.35 14.8966 296.033 14.1039C296.717 13.3113 297.427 12.7509 298.165 12.4229C298.439 12.2863 298.726 12.1769 299.026 12.0949C299.354 12.0129 299.682 11.9719 300.01 11.9719C300.311 11.9719 300.625 12.0266 300.953 12.1359C301.281 12.2179 301.555 12.3136 301.773 12.4229C302.238 12.6143 302.593 12.8466 302.839 13.1199C303.085 13.3933 303.304 13.8169 303.495 14.3909C303.577 14.9103 303.618 15.2793 303.618 15.4979C303.618 15.7166 303.55 16.0446 303.413 16.4819C303.085 17.4659 302.662 18.3133 302.142 19.0239C301.623 19.7346 300.926 20.3359 300.051 20.8279C299.833 20.9646 299.573 21.0739 299.272 21.1559C298.999 21.2106 298.712 21.2379 298.411 21.2379C297.865 21.2379 297.332 21.1423 296.812 20.9509C296.32 20.7323 295.924 20.4179 295.623 20.0079L295.336 19.6799L295.213 20.0079C294.94 20.7459 294.721 21.4293 294.557 22.0579C294.421 22.6866 294.352 23.2606 294.352 23.7799C294.352 24.1079 294.38 24.4223 294.434 24.7229C294.516 25.0236 294.626 25.2833 294.762 25.5019C294.872 25.6659 295.049 25.7889 295.295 25.8709C295.569 25.9256 295.856 25.9529 296.156 25.9529C296.348 25.9529 296.539 25.9529 296.73 25.9529C296.949 25.9256 297.154 25.8709 297.345 25.7889C297.81 25.6249 298.179 25.4473 298.452 25.2559C298.753 25.0646 299.054 24.8596 299.354 24.6409L299.518 24.5589H299.477C299.805 24.3949 300.092 24.2309 300.338 24.0669C300.612 23.9029 300.748 23.8209 300.748 23.8209C300.858 23.8209 300.967 23.7526 301.076 23.6159C301.295 23.5066 301.568 23.5476 301.896 23.7389C302.252 23.9303 302.429 24.1763 302.429 24.4769C302.402 24.6136 302.279 24.8323 302.06 25.1329C301.842 25.4063 301.596 25.6659 301.322 25.9119C301.076 26.1579 300.871 26.2946 300.707 26.3219C300.68 26.3493 300.584 26.4039 300.42 26.4859C300.256 26.5406 300.147 26.5953 300.092 26.6499H300.133C299.887 26.9779 299.641 27.1419 299.395 27.1419H299.067C298.958 27.3333 298.603 27.5519 298.001 27.7979C297.4 28.0166 296.812 28.1259 296.238 28.1259ZM298.083 19.1059C298.575 19.1059 298.999 18.9693 299.354 18.6959C299.737 18.3953 300.065 18.0673 300.338 17.7119C300.885 16.9739 301.199 16.2633 301.281 15.5799C301.391 14.8693 301.309 14.3773 301.035 14.1039C300.871 14.0219 300.721 13.9809 300.584 13.9809C300.475 13.9536 300.243 13.9946 299.887 14.1039C299.641 14.1586 299.3 14.3636 298.862 14.7189C298.425 15.0743 297.988 15.4706 297.55 15.9079C297.14 16.3453 296.826 16.7143 296.607 17.0149L296.074 17.8759C296.293 17.7939 296.498 17.7529 296.689 17.7529C296.908 17.7256 297.031 17.7393 297.058 17.7939C297.058 18.0399 297.099 18.2723 297.181 18.4909C297.291 18.6823 297.414 18.8326 297.55 18.9419C297.714 19.0513 297.892 19.1059 298.083 19.1059ZM315.434 27.9209C315.243 28.0303 314.983 27.9893 314.655 27.7979C314.355 27.6066 314.054 27.3196 313.753 26.9369C313.562 26.6089 313.425 26.2536 313.343 25.8709C313.289 25.4883 313.261 24.9553 313.261 24.2719C313.289 23.7253 313.261 23.3699 313.179 23.2059C313.125 23.0419 312.974 23.0693 312.728 23.2879C312.482 23.4793 312.059 23.8756 311.457 24.4769C310.774 25.1603 310.118 25.6933 309.489 26.0759C308.888 26.4586 308.396 26.6363 308.013 26.6089C307.822 26.6089 307.603 26.5133 307.357 26.3219C307.139 26.1033 306.934 25.8436 306.742 25.5429C306.551 25.2149 306.387 24.8869 306.25 24.5589C306.086 23.9576 306.059 23.1923 306.168 22.2629C306.305 21.3063 306.524 20.3086 306.824 19.2699C307.125 18.2313 307.467 17.2473 307.849 16.3179C308.259 15.3886 308.669 14.6369 309.079 14.0629C309.517 13.4889 309.899 13.2019 310.227 13.2019C310.446 13.2019 310.637 13.3113 310.801 13.5299C310.993 13.7486 311.184 14.0903 311.375 14.5549C311.485 14.7463 311.526 14.9103 311.498 15.0469C311.498 15.1836 311.389 15.3476 311.17 15.5389C310.924 15.8669 310.637 16.3589 310.309 17.0149C310.009 17.6709 309.708 18.3816 309.407 19.1469C309.134 19.9123 308.888 20.6503 308.669 21.3609C308.451 22.0716 308.3 22.6593 308.218 23.1239C308.136 23.5613 308.15 23.7799 308.259 23.7799C308.642 23.7799 309.093 23.6296 309.612 23.3289C310.159 23.0009 310.678 22.6046 311.17 22.1399C311.744 21.5659 312.25 20.9373 312.687 20.2539C313.152 19.5706 313.617 18.8463 314.081 18.0809C314.437 17.5343 314.806 16.9329 315.188 16.2769C315.598 15.6209 315.858 15.1563 315.967 14.8829C316.35 14.1723 316.637 13.6939 316.828 13.4479C317.02 13.1746 317.252 12.9969 317.525 12.9149C317.662 12.9149 317.785 12.9149 317.894 12.9149C318.031 12.9149 318.099 12.9149 318.099 12.9149C318.263 12.9423 318.455 13.0653 318.673 13.2839C318.892 13.3933 319.015 13.5026 319.042 13.6119C319.07 13.6939 319.083 13.8033 319.083 13.9399C318.974 14.2133 318.796 14.6233 318.55 15.1699C318.332 15.6893 318.168 16.0719 318.058 16.3179C317.539 17.4933 317.02 18.6549 316.5 19.8029C316.008 20.9236 315.653 22.0716 315.434 23.2469C315.38 23.6296 315.366 24.0806 315.393 24.5999C315.448 25.0919 315.53 25.4473 315.639 25.6659C315.721 25.8299 315.817 26.0213 315.926 26.2399C316.063 26.4313 316.213 26.5953 316.377 26.7319C316.623 26.8959 316.664 27.0736 316.5 27.2649C316.364 27.4563 316.172 27.6203 315.926 27.7569C315.68 27.8663 315.516 27.9209 315.434 27.9209ZM314.901 10.9059C314.054 11.0153 313.343 10.7693 312.769 10.1679C312.195 9.5666 311.758 8.67826 311.457 7.50293C311.403 7.28426 311.375 7.09293 311.375 6.92893C311.403 6.7376 311.457 6.5736 311.539 6.43693C311.594 6.3276 311.703 6.2456 311.867 6.19093C312.031 6.10893 312.168 6.09526 312.277 6.14993C312.66 6.2866 312.933 6.46426 313.097 6.68293C313.289 6.87426 313.412 7.12026 313.466 7.42093C313.521 7.5576 313.548 7.69426 313.548 7.83093C313.576 7.9676 313.589 8.02226 313.589 7.99493C313.726 8.43226 313.904 8.73293 314.122 8.89693C314.341 9.06093 314.669 9.04726 315.106 8.85593C315.571 8.6646 316.022 8.44593 316.459 8.19993C316.924 7.95393 317.334 7.65326 317.689 7.29793C317.99 6.99726 318.277 6.72393 318.55 6.47793C318.851 6.23193 319.138 5.97226 319.411 5.69893L319.452 5.65793C319.562 5.57593 319.698 5.54859 319.862 5.57593C320.026 5.60326 320.122 5.64426 320.149 5.69893C320.341 5.89026 320.436 6.0816 320.436 6.27293C320.436 6.46426 320.436 6.66926 320.436 6.88793L320.395 6.96993C320.45 7.13393 320.313 7.44826 319.985 7.91293C319.685 8.3776 319.316 8.77393 318.878 9.10193C318.496 9.4026 318.086 9.67593 317.648 9.92193C317.211 10.1679 316.76 10.4003 316.295 10.6189C316.104 10.7283 315.899 10.7966 315.68 10.8239C315.489 10.8239 315.229 10.8513 314.901 10.9059Z" fill="#FEFAEF"/>
</svg>
