<svg width="214" height="38" viewBox="0 0 214 38" fill="none" xmlns="http://www.w3.org/2000/svg">
<path d="M1.722 28.9459C0.874667 28.8913 0.369001 28.7409 0.205001 28.4949C0.068334 28.2489 5.81145e-07 27.9893 5.81145e-07 27.7159C0.136667 27.3059 0.287001 26.9096 0.451001 26.5269C0.642334 26.1443 0.779001 25.7343 0.861001 25.2969C0.943001 24.9416 1.025 24.6136 1.107 24.3129C1.189 24.0123 1.28467 23.6843 1.394 23.3289C1.61267 22.6729 1.85867 21.8666 2.132 20.9099C2.43267 19.9533 2.747 18.9966 3.075 18.0399C3.403 17.0833 3.69 16.2906 3.936 15.6619C4.15467 15.0333 4.33233 14.5003 4.469 14.0629C4.633 13.6256 4.797 13.2019 4.961 12.7919C5.125 12.3819 5.30267 11.8899 5.494 11.3159C5.63067 10.9606 5.75367 10.6189 5.863 10.2909C5.97233 9.9356 6.08167 9.58026 6.191 9.22493C6.32767 8.8696 6.45067 8.52793 6.56 8.19993C6.69667 7.8446 6.81967 7.48926 6.929 7.13393C7.22967 6.50526 7.48933 5.90393 7.708 5.32993C7.954 4.75593 8.17267 4.12726 8.364 3.44393C8.47333 3.19793 8.45967 3.02026 8.323 2.91093C8.21367 2.80159 8.159 2.56926 8.159 2.21393C8.13167 1.88593 8.21367 1.6536 8.405 1.51693C8.62367 1.35293 8.897 1.31193 9.225 1.39393C9.60767 1.47593 10.1407 1.54426 10.824 1.59893C11.5347 1.6536 12.177 1.68093 12.751 1.68093C13.3523 1.6536 13.6803 1.62626 13.735 1.59893C13.8717 1.54426 14.3227 1.46226 15.088 1.35293C15.8533 1.21626 16.7827 1.06593 17.876 0.901929C18.9693 0.737928 20.09 0.587594 21.238 0.450928C22.4133 0.314261 23.452 0.191261 24.354 0.0819275C24.6547 0.0272615 24.9417 0.0272615 25.215 0.0819275C25.5157 0.136595 25.8027 0.191262 26.076 0.245928C26.4313 0.300595 26.7867 0.491929 27.142 0.819928C27.4973 1.14793 27.6203 1.54426 27.511 2.00893C27.4017 2.3096 27.1693 2.4736 26.814 2.50093C26.4587 2.50093 25.9803 2.44626 25.379 2.33693C25.3243 2.33693 25.2697 2.44626 25.215 2.66493C25.1603 2.8836 25.092 3.14326 25.01 3.44393C24.9553 3.7446 24.8597 4.05893 24.723 4.38693C24.559 4.57826 24.3677 4.94726 24.149 5.49393C23.9577 6.04059 23.7527 6.64193 23.534 7.29793C23.3153 7.95393 23.1377 8.55526 23.001 9.10193C22.8643 9.6486 22.796 10.0313 22.796 10.2499C22.4133 10.8513 22.14 11.5073 21.976 12.2179C21.8393 12.9286 21.6617 13.5983 21.443 14.2269C21.4157 14.3363 21.3063 14.7189 21.115 15.3749C20.951 16.0036 20.746 16.7689 20.5 17.6709C20.254 18.5729 20.008 19.4749 19.762 20.3769C19.516 21.2516 19.311 22.0033 19.147 22.6319C18.983 23.2606 18.901 23.6159 18.901 23.6979C18.8737 24.2446 18.8053 24.8049 18.696 25.3789C18.614 25.9529 18.5593 26.5133 18.532 27.0599C18.5593 27.1693 18.573 27.2649 18.573 27.3469C18.573 27.4016 18.5183 27.4563 18.409 27.5109C18.1903 27.7023 17.8213 27.7979 17.302 27.7979C16.7827 27.7706 16.4547 27.6749 16.318 27.5109C16.2087 27.2923 16.113 27.1009 16.031 26.9369C15.949 26.7456 15.9217 26.5406 15.949 26.3219C16.0037 25.5566 16.0993 24.7913 16.236 24.0259C16.3727 23.2606 16.4957 22.5226 16.605 21.8119C16.7417 21.1013 16.9057 20.4589 17.097 19.8849C17.2883 19.3109 17.425 18.9966 17.507 18.9419L18.286 16.0309C18.5867 15.2109 18.778 14.5686 18.86 14.1039C18.942 13.6119 19.024 13.1336 19.106 12.6689C19.2153 12.2043 19.4067 11.6029 19.68 10.8649C19.9533 10.1816 20.172 9.49826 20.336 8.81493C20.5273 8.10426 20.7187 7.40726 20.91 6.72393C21.1013 6.06793 21.2927 5.49393 21.484 5.00193C21.6753 4.48259 21.8257 4.03159 21.935 3.64893C22.0717 3.26626 22.1263 2.93826 22.099 2.66493C21.4977 2.71959 20.9373 2.78793 20.418 2.86993C19.926 2.95193 19.4067 3.03393 18.86 3.11593C18.3407 3.1706 17.6983 3.2526 16.933 3.36193C16.4683 3.4166 15.8533 3.51226 15.088 3.64893C14.3227 3.75826 13.612 3.8676 12.956 3.97693C12.3273 4.05893 11.931 4.09993 11.767 4.09993C11.5757 4.12726 11.4117 4.18193 11.275 4.26393C11.1383 4.34593 11.07 4.45526 11.07 4.59193C10.66 5.41193 10.2637 6.2456 9.881 7.09293C9.49833 7.91293 9.15667 8.7056 8.856 9.47093C8.58267 10.2089 8.37767 10.8649 8.241 11.4389C8.18633 11.5483 8.077 11.8216 7.913 12.2589C7.749 12.6963 7.55767 13.2019 7.339 13.7759C7.12033 14.3499 6.91533 14.8966 6.724 15.4159C6.53267 15.9353 6.38233 16.3453 6.273 16.6459C6.191 16.9193 6.16367 16.9876 6.191 16.8509C5.781 18.1629 5.43933 19.2016 5.166 19.9669C4.92 20.7049 4.715 21.2926 4.551 21.7299C4.387 22.1673 4.25033 22.5499 4.141 22.8779C4.03167 23.2059 3.92233 23.6023 3.813 24.0669C3.649 24.5043 3.51233 24.9553 3.403 25.4199C3.29367 25.8846 3.18433 26.3493 3.075 26.8139C3.04767 26.9506 3.00667 27.1009 2.952 27.2649C2.92467 27.4289 2.87 27.7706 2.788 28.2899C2.67867 28.5086 2.542 28.6726 2.378 28.7819C2.24133 28.9186 2.02267 28.9733 1.722 28.9459ZM23.8831 37.1869C23.7738 37.1869 23.6371 37.1869 23.4731 37.1869C23.3091 37.2143 23.1588 37.1049 23.0221 36.8589C22.9128 36.7223 22.8445 36.5173 22.8171 36.2439C22.8171 35.9706 22.8855 35.4786 23.0221 34.7679C23.1588 34.3033 23.2681 33.8386 23.3501 33.3739C23.4321 32.9366 23.4731 32.6086 23.4731 32.3899C23.4731 32.2806 23.5005 32.0619 23.5551 31.7339C23.6371 31.4333 23.6781 31.2146 23.6781 31.0779C23.8148 30.8593 23.9241 30.5586 24.0061 30.1759C24.0881 29.7933 24.1291 29.4516 24.1291 29.1509C24.1291 28.8229 24.2931 28.5223 24.6211 28.2489C24.6211 28.0303 24.6621 27.7569 24.7441 27.4289C24.8535 27.1009 24.9081 26.8823 24.9081 26.7729C24.9901 26.3903 25.1678 25.7206 25.4411 24.7639C25.7418 23.7799 26.0971 22.6729 26.5071 21.4429C26.9445 20.2129 27.3681 19.0103 27.7781 17.8349C28.1881 16.6596 28.5571 15.6619 28.8851 14.8419C29.2131 14.0766 29.4318 13.4206 29.5411 12.8739C29.6778 12.2999 29.7461 11.8763 29.7461 11.6029C29.7461 11.4936 29.7735 11.4116 29.8281 11.3569C29.8828 11.2749 30.0058 11.1246 30.1971 10.9059C30.4705 10.6326 30.7028 10.5506 30.8941 10.6599C31.1128 10.7693 31.3725 10.9333 31.6731 11.1519C31.8918 11.5073 32.0421 11.8079 32.1241 12.0539C32.2335 12.2999 32.2335 12.7236 32.1241 13.3249C32.1241 13.7349 32.0558 14.0903 31.9191 14.3909C31.7825 14.6916 31.6595 14.9239 31.5501 15.0879C31.4408 15.2246 31.4135 15.2793 31.4681 15.2519C32.5888 14.7326 33.5728 14.4593 34.4201 14.4319C35.2948 14.3773 36.0191 14.5276 36.5931 14.8829C37.1945 15.2109 37.6455 15.6756 37.9461 16.2769C38.2468 16.8783 38.3971 17.5753 38.3971 18.3679C38.3971 18.6959 38.3288 19.0923 38.1921 19.5569C38.0555 19.9943 37.8778 20.4043 37.6591 20.7869C37.4678 21.1423 37.2901 21.4019 37.1261 21.5659C37.0168 21.5659 36.9075 21.6616 36.7981 21.8529C36.6888 22.0169 36.5795 22.2083 36.4701 22.4269C36.2515 22.7003 35.8961 23.0146 35.4041 23.3699C34.9395 23.6979 34.4748 23.9713 34.0101 24.1899C33.5455 24.3813 33.2038 24.4359 32.9851 24.3539C32.9851 24.3539 32.9441 24.3676 32.8621 24.3949C32.8075 24.3949 32.7801 24.4633 32.7801 24.5999C32.7801 24.6546 32.5615 24.7776 32.1241 24.9689C31.6868 25.1329 31.1811 25.2969 30.6071 25.4609C30.0331 25.5976 29.5275 25.6659 29.0901 25.6659C28.5161 25.6659 28.1061 25.5566 27.8601 25.3379C27.8055 25.3926 27.7371 25.4746 27.6551 25.5839C27.6005 25.6933 27.5731 25.7889 27.5731 25.8709C27.5731 26.0349 27.5048 26.3493 27.3681 26.8139C27.2588 27.2513 27.1221 27.6749 26.9581 28.0849C26.7941 28.4949 26.6438 28.6999 26.5071 28.6999C26.5071 28.6999 26.4798 28.7409 26.4251 28.8229C26.3705 28.9049 26.3978 29.0143 26.5071 29.1509C26.5071 29.1509 26.4935 29.3013 26.4661 29.6019C26.4661 29.9299 26.3978 30.2033 26.2611 30.4219C26.2611 30.6406 26.2201 30.9686 26.1381 31.4059C26.0561 31.8433 25.9605 32.1713 25.8511 32.3899C25.8511 32.7179 25.7965 33.0323 25.6871 33.3329C25.6051 33.6609 25.5095 33.8249 25.4001 33.8249C25.2908 33.8523 25.2225 34.0163 25.1951 34.3169C25.1678 34.6449 25.1541 34.8773 25.1541 35.0139C25.1268 35.6973 24.9901 36.2303 24.7441 36.6129C24.4981 36.9956 24.2111 37.1869 23.8831 37.1869ZM28.8441 23.4929C29.0628 23.4929 29.5138 23.3973 30.1971 23.2059C30.8805 23.0146 31.5775 22.7823 32.2881 22.5089C33.0261 22.2083 33.5728 21.9076 33.9281 21.6069C34.6388 20.9783 35.1855 20.2676 35.5681 19.4749C35.9781 18.6549 35.9508 17.8759 35.4861 17.1379C35.2675 16.7553 34.8711 16.6049 34.2971 16.6869C33.7231 16.7416 33.0945 16.9603 32.4111 17.3429C31.7278 17.7256 31.0855 18.2039 30.4841 18.7779C30.1561 19.1333 29.8555 19.5706 29.5821 20.0899C29.3088 20.6093 29.0765 21.1286 28.8851 21.6479C28.7211 22.1673 28.6255 22.6046 28.5981 22.9599C28.5708 23.3153 28.6528 23.4929 28.8441 23.4929ZM43.8063 27.3879C43.4509 27.3879 43.1639 27.3196 42.9453 27.1829C42.7539 27.0463 42.5079 26.8549 42.2073 26.6089C41.6879 26.0623 41.3189 25.5429 41.1003 25.0509C40.8816 24.5316 40.8133 24.0396 40.8953 23.5749C40.9773 23.3563 41.0046 23.1513 40.9773 22.9599C40.9773 22.7413 40.9773 22.6319 40.9773 22.6319C40.8406 22.4953 40.7996 22.4133 40.8543 22.3859C40.9089 22.3313 40.9636 22.2493 41.0183 22.1399C41.1823 22.1399 41.2369 21.9896 41.1823 21.6889C41.1276 21.4703 41.2369 20.9919 41.5103 20.2539C41.7836 19.5159 42.1253 18.8189 42.5353 18.1629C42.6993 17.8896 42.9453 17.5343 43.2733 17.0969C43.6013 16.6323 43.9566 16.1813 44.3393 15.7439C44.7493 15.2793 45.1183 14.9103 45.4463 14.6369C46.1296 14.0629 46.7309 13.6393 47.2503 13.3659C47.7696 13.0926 48.3299 12.8876 48.9313 12.7509C49.5326 12.6143 49.9426 12.5459 50.1613 12.5459C50.4073 12.5459 50.7353 12.7646 51.1453 13.2019C51.7739 13.4753 52.2249 13.8033 52.4983 14.1859C52.7989 14.5686 52.9903 15.1289 53.0723 15.8669C53.1543 16.6869 53.0859 17.6299 52.8673 18.6959C52.6759 19.7346 52.0336 21.0329 50.9403 22.5909C50.2569 23.5749 49.6283 24.3129 49.0543 24.8049C48.4803 25.2696 47.7969 25.7343 47.0043 26.1989C46.4303 26.5816 45.9109 26.8686 45.4463 27.0599C44.9816 27.2239 44.4349 27.3333 43.8063 27.3879ZM47.7423 23.0419C48.3983 22.3039 48.9176 21.6069 49.3003 20.9509C49.7103 20.2949 50.0929 19.4613 50.4483 18.4499C50.5576 18.1493 50.6259 17.7803 50.6533 17.3429C50.6806 16.8783 50.6669 16.4546 50.6123 16.0719C50.5849 15.6619 50.4893 15.4296 50.3253 15.3749C49.9973 15.1836 49.6009 15.1289 49.1363 15.2109C48.6716 15.2656 48.1659 15.5253 47.6193 15.9899C46.7719 16.7006 46.0339 17.5889 45.4053 18.6549C44.7766 19.6936 44.1616 20.8826 43.5603 22.2219C43.1503 23.2059 43.0546 23.9986 43.2733 24.5999C43.5193 25.1739 44.0249 25.3789 44.7903 25.2149C45.5829 25.0236 46.5669 24.2993 47.7423 23.0419ZM57.1944 27.7569C56.5384 27.9756 55.978 27.8663 55.5134 27.4289C55.3767 27.3196 55.2264 27.2103 55.0624 27.1009C54.8984 26.9916 54.789 26.8549 54.7344 26.6909C54.7344 26.6636 54.7617 26.4859 54.8164 26.1579C54.8984 25.8026 54.9804 25.4609 55.0624 25.1329C55.1717 24.7776 55.24 24.5863 55.2674 24.5589C55.732 23.6023 56.0874 22.6593 56.3334 21.7299C56.5794 20.7733 56.7844 19.8029 56.9484 18.8189C57.0577 18.2449 57.1807 17.5753 57.3174 16.8099C57.4814 16.0446 57.618 15.3749 57.7274 14.8009C57.864 14.2269 57.9324 13.9399 57.9324 13.9399C57.987 13.8033 58.0417 13.6666 58.0964 13.5299C58.151 13.3933 58.192 13.2566 58.2194 13.1199C58.6294 12.8193 59.1624 12.5186 59.8184 12.2179C60.4744 11.8899 61.062 11.7943 61.5814 11.9309C61.6634 11.8489 61.8137 11.8216 62.0324 11.8489C62.2784 11.8489 62.5107 11.8489 62.7294 11.8489C62.9754 11.8489 63.1394 11.8079 63.2214 11.7259C63.3854 11.7806 63.686 11.8079 64.1234 11.8079C64.588 11.8079 65.0527 11.8079 65.5174 11.8079C66.0094 11.8079 66.3647 11.8216 66.5834 11.8489C66.966 12.0676 67.212 12.2453 67.3214 12.3819C67.4307 12.5186 67.622 12.7783 67.8954 13.1609C67.868 13.4616 67.7724 13.6939 67.6084 13.8579C67.4444 13.9946 67.212 14.0766 66.9114 14.1039C66.638 14.1039 66.392 14.1039 66.1734 14.1039C65.982 14.0766 65.7497 14.0766 65.4764 14.1039C65.0664 14.1039 64.547 14.1176 63.9184 14.1449C63.317 14.1723 62.7157 14.2133 62.1144 14.2679C61.513 14.2953 61.0074 14.3499 60.5974 14.4319C60.57 14.7326 60.5427 15.0469 60.5154 15.3749C60.488 15.6756 60.406 15.9763 60.2694 16.2769C60.1874 16.5776 60.078 17.0149 59.9414 17.5889C59.8047 18.1356 59.6544 18.6823 59.4904 19.2289C59.3537 19.7483 59.217 20.1309 59.0804 20.3769C58.9437 20.5683 58.8617 20.7869 58.8344 21.0329C58.807 21.2516 58.7524 21.4703 58.6704 21.6889C58.561 21.9896 58.438 22.4406 58.3014 23.0419C58.192 23.6433 58.069 24.2719 57.9324 24.9279C57.823 25.5839 57.7 26.1853 57.5634 26.7319C57.454 27.2513 57.331 27.5929 57.1944 27.7569ZM65.1186 37.1459C64.9272 37.0639 64.7222 36.9273 64.5036 36.7359C64.2849 36.5446 64.1072 36.3259 63.9706 36.0799C63.8339 35.8613 63.7656 35.6699 63.7656 35.5059C63.7656 35.3419 63.8339 34.9046 63.9706 34.1939C64.1072 33.5106 64.2849 32.6633 64.5036 31.6519C64.7496 30.6679 65.0092 29.6566 65.2826 28.6179C65.5832 27.6066 65.8839 26.7046 66.1846 25.9119C66.2392 25.7753 66.4169 25.3243 66.7176 24.5589C67.0456 23.7663 67.3599 22.8096 67.6606 21.6889C67.8792 20.9783 68.1662 20.1719 68.5216 19.2699C68.8769 18.3679 69.2459 17.4659 69.6286 16.5639C70.0112 15.6346 70.3256 14.8146 70.5716 14.1039C70.8176 13.3933 71.0226 12.8193 71.1866 12.3819C71.3779 11.9173 71.4872 11.6303 71.5146 11.5209C71.5692 11.3569 71.6512 11.2203 71.7606 11.1109C71.8972 10.9743 72.0339 10.8649 72.1706 10.7829C72.3072 10.6736 72.4166 10.6053 72.4986 10.5779C72.9906 10.4413 73.4142 10.6463 73.7696 11.1929C73.9062 11.4389 73.9336 11.7259 73.8516 12.0539C73.7696 12.3819 73.6192 12.7919 73.4006 13.2839L73.1136 14.1039L74.5896 13.7759C74.8356 13.7759 75.1362 13.7896 75.4916 13.8169C75.8742 13.8169 76.2432 13.8169 76.5986 13.8169C76.9539 13.8169 77.2136 13.8443 77.3776 13.8989C78.0336 13.9263 78.4846 14.0493 78.7306 14.2679C79.0039 14.4866 79.2362 14.7736 79.4276 15.1289C79.5642 15.2656 79.7282 15.4569 79.9196 15.7029C80.1109 15.9216 80.2202 16.1403 80.2476 16.3589C80.3569 16.8236 80.3569 17.3293 80.2476 17.8759C80.1656 18.3953 80.0016 18.9146 79.7556 19.4339C79.5369 19.9533 79.2362 20.4316 78.8536 20.8689C78.4982 21.2789 78.1156 21.6206 77.7056 21.8939C77.4322 22.0033 77.1862 22.1263 76.9676 22.2629C76.7489 22.3723 76.6396 22.4269 76.6396 22.4269C76.6122 22.5636 76.3116 22.7823 75.7376 23.0829C75.1636 23.3563 74.5076 23.6159 73.7696 23.8619C73.0316 24.1079 72.3892 24.2719 71.8426 24.3539C71.6512 24.3813 71.3779 24.4086 71.0226 24.4359C70.6672 24.4633 70.3939 24.4223 70.2026 24.3129C69.9019 24.2583 69.6969 24.2309 69.5876 24.2309C69.4782 24.2309 69.4236 24.2856 69.4236 24.3949C69.3962 24.4496 69.2049 25.0236 68.8496 26.1169C68.4942 27.2103 68.1252 28.4813 67.7426 29.9299C67.2232 31.5153 66.7996 32.7726 66.4716 33.7019C66.1436 34.6586 65.8839 35.3693 65.6926 35.8339C65.5286 36.2986 65.4056 36.6129 65.3236 36.7769C65.2416 36.9683 65.1732 37.0913 65.1186 37.1459ZM70.2436 22.0169C70.3256 22.1809 70.5852 22.2356 71.0226 22.1809C71.4872 22.0989 72.0339 21.9349 72.6626 21.6889C73.3186 21.4156 73.9609 21.1149 74.5896 20.7869C75.2182 20.4316 75.7376 20.0763 76.1476 19.7209C76.7489 19.0376 77.2409 18.4089 77.6236 17.8349C78.0062 17.2336 78.0609 16.8373 77.7876 16.6459C77.4869 16.2086 76.9266 16.0036 76.1066 16.0309C75.2866 16.0583 74.2752 16.3999 73.0726 17.0559C72.6079 17.2199 72.2526 17.4386 72.0066 17.7119C71.7879 17.9579 71.5966 18.2723 71.4326 18.6549C71.2686 19.0376 71.0636 19.5023 70.8176 20.0489C70.5716 20.6503 70.4076 21.1013 70.3256 21.4019C70.2436 21.7026 70.2162 21.9076 70.2436 22.0169ZM85.9027 26.8139C85.684 26.8686 85.397 26.8959 85.0417 26.8959C84.6864 26.8686 84.372 26.8276 84.0987 26.7729C83.8527 26.6909 83.7297 26.6089 83.7297 26.5269C83.7297 26.3903 83.6614 26.3219 83.5247 26.3219C83.5247 26.3219 83.4564 26.2673 83.3197 26.1579C83.2104 26.0486 83.0327 25.9393 82.7867 25.8299C82.5407 25.4473 82.4177 25.0373 82.4177 24.5999C82.4177 24.1353 82.5407 23.4109 82.7867 22.4269C82.8687 21.7436 83.1284 20.9509 83.5657 20.0489C84.0304 19.1196 84.5907 18.1766 85.2467 17.2199C85.9027 16.2633 86.586 15.4023 87.2967 14.6369C88.0347 13.8716 88.7044 13.3113 89.3057 12.9559C89.6884 12.5733 90.153 12.3683 90.6997 12.3409C91.2464 12.3136 91.7657 12.4366 92.2577 12.7099C92.531 12.8466 92.8044 13.0653 93.0777 13.3659C93.351 13.6666 93.6107 13.9946 93.8567 14.3499C94.1027 14.7053 94.3077 15.0606 94.4717 15.4159C94.5537 15.7166 94.5947 15.9899 94.5947 16.2359C94.622 16.4546 94.622 16.7279 94.5947 17.0559C94.5947 17.3839 94.5537 17.8759 94.4717 18.5319C94.335 19.0239 94.212 19.6253 94.1027 20.3359C94.0207 21.0466 93.9797 21.6616 93.9797 22.1809C93.925 22.7003 93.9797 23.0693 94.1437 23.2879C94.335 23.5066 94.6084 23.5203 94.9637 23.3289C95.2917 23.1649 95.606 23.0966 95.9067 23.1239C96.2074 23.1239 96.4397 23.2059 96.6037 23.3699C96.795 23.5339 96.8907 23.7799 96.8907 24.1079C96.8907 24.4359 96.7267 24.7776 96.3987 25.1329C96.098 25.4609 95.7154 25.7479 95.2507 25.9939C94.8134 26.2126 94.3897 26.3219 93.9797 26.3219C93.679 26.3219 93.392 26.1443 93.1187 25.7889C92.8454 25.4063 92.5994 24.9553 92.3807 24.4359C92.1894 23.8893 92.0117 23.3699 91.8477 22.8779L91.6017 21.9349L89.8387 23.6159C89.4834 23.9986 89.128 24.3539 88.7727 24.6819C88.4447 24.9826 88.2397 25.2013 88.1577 25.3379C88.021 25.5839 87.7614 25.8299 87.3787 26.0759C87.0234 26.3219 86.5314 26.5679 85.9027 26.8139ZM86.0257 24.3949C86.4904 24.1216 87.0234 23.7253 87.6247 23.2059C88.226 22.6593 88.8137 22.0716 89.3877 21.4429C89.9617 20.7869 90.44 20.1856 90.8227 19.6389C91.2874 19.0103 91.6427 18.4226 91.8887 17.8759C92.1347 17.3293 92.3124 16.8099 92.4217 16.3179C92.3124 16.0173 92.1347 15.7029 91.8887 15.3749C91.6427 15.0196 91.424 14.8283 91.2327 14.8009C90.6314 14.8009 89.989 15.1836 89.3057 15.9489C88.6497 16.6869 88.0074 17.4933 87.3787 18.3679C87.2694 18.5046 87.119 18.7233 86.9277 19.0239C86.7364 19.3246 86.545 19.6116 86.3537 19.8849C86.1897 20.1309 86.0804 20.2949 86.0257 20.3769C85.9437 20.4863 85.7797 20.8006 85.5337 21.3199C85.315 21.8119 85.0964 22.3176 84.8777 22.8369C84.659 23.3289 84.5497 23.6569 84.5497 23.8209C84.5497 23.9849 84.5634 24.1626 84.5907 24.3539C84.6454 24.5453 84.782 24.6683 85.0007 24.7229C85.2194 24.7776 85.561 24.6683 86.0257 24.3949ZM115.192 27.8799C114.918 27.7433 114.713 27.6066 114.577 27.4699C114.44 27.3059 114.208 27.1283 113.88 26.9369C113.77 26.5543 113.647 26.1716 113.511 25.7889C113.401 25.3789 113.36 24.9826 113.388 24.5999C113.415 24.3813 113.374 24.1489 113.265 23.9029C113.183 23.6296 113.196 23.3973 113.306 23.2059C113.251 22.7686 113.265 22.2083 113.347 21.5249C113.429 20.8143 113.538 20.1446 113.675 19.5159C113.811 18.8599 113.907 18.3953 113.962 18.1219C113.88 18.0126 113.798 17.9443 113.716 17.9169C113.661 17.8896 113.579 17.9306 113.47 18.0399C113.196 18.3133 112.937 18.5866 112.691 18.8599C112.445 19.1333 112.185 19.4203 111.912 19.7209C111.802 19.8303 111.679 19.9396 111.543 20.0489C111.406 20.1309 111.338 20.2676 111.338 20.4589L109.862 22.4269C109.752 22.6456 109.547 22.9326 109.247 23.2879C108.973 23.6159 108.755 24.0123 108.591 24.4769C108.536 24.6683 108.44 24.8323 108.304 24.9689C108.167 25.0783 108.03 25.1876 107.894 25.2969C107.538 25.1603 107.306 25.0646 107.197 25.0099C107.087 24.9553 106.882 24.7913 106.582 24.5179C106.308 24.2446 106.117 23.9986 106.008 23.7799C105.898 23.5339 105.871 23.2879 105.926 23.0419C105.926 22.6319 105.926 22.0579 105.926 21.3199C105.953 20.5546 105.953 19.8303 105.926 19.1469C105.926 18.4363 105.871 17.9443 105.762 17.6709C105.461 17.6983 105.256 17.7393 105.147 17.7939C105.037 17.8486 104.901 18.0126 104.737 18.2859C104.764 18.2586 104.641 18.4499 104.368 18.8599C104.122 19.2426 103.78 19.7483 103.343 20.3769C102.933 20.9783 102.523 21.5933 102.113 22.2219C101.703 22.8233 101.361 23.3426 101.088 23.7799C100.842 24.1899 100.732 24.3813 100.76 24.3539C100.568 24.5726 100.404 24.8049 100.268 25.0509C100.158 25.2969 100.049 25.5566 99.9397 25.8299C99.8031 26.1579 99.6527 26.3766 99.4887 26.4859C99.3247 26.5679 99.1744 26.5406 99.0377 26.4039C98.8191 26.2673 98.5867 26.1306 98.3407 25.9939C98.1221 25.8573 97.9307 25.7343 97.7667 25.6249C97.6574 25.4336 97.5617 25.2423 97.4797 25.0509C97.4251 24.8323 97.3841 24.5863 97.3567 24.3129C97.5754 24.1763 97.7257 24.0943 97.8077 24.0669C97.8897 24.0123 97.9581 23.9166 98.0127 23.7799C98.6141 22.8779 99.1334 22.1126 99.5707 21.4839C100.008 20.8279 100.377 20.2949 100.678 19.8849C100.978 19.4749 101.211 19.1606 101.375 18.9419C101.539 18.6959 101.634 18.5319 101.662 18.4499C101.798 18.1766 101.962 17.9169 102.154 17.6709C102.372 17.4249 102.577 17.1653 102.769 16.8919C102.796 16.8099 102.933 16.6186 103.179 16.3179C103.425 15.9899 103.684 15.6619 103.958 15.3339C104.231 15.0059 104.422 14.8146 104.532 14.7599C104.668 14.6779 104.764 14.5686 104.819 14.4319C104.901 14.2679 104.983 14.1039 105.065 13.9399C105.119 13.6939 105.242 13.5163 105.434 13.4069C105.625 13.2976 105.912 13.2703 106.295 13.3249C106.513 13.5163 106.759 13.7213 107.033 13.9399C107.306 14.1313 107.593 14.3363 107.894 14.5549C107.866 14.8283 107.853 15.1153 107.853 15.4159C107.88 15.7166 107.989 16.1813 108.181 16.8099C108.099 17.1379 108.112 17.4796 108.222 17.8349C108.331 18.1903 108.331 18.5183 108.222 18.8189C108.222 19.1743 108.304 19.4339 108.468 19.5979C108.659 19.7346 108.946 19.5979 109.329 19.1879C109.766 18.6413 110.285 18.0536 110.887 17.4249C111.488 16.7689 112.076 16.1539 112.65 15.5799C113.251 14.9786 113.757 14.4729 114.167 14.0629C114.604 13.6256 114.864 13.3523 114.946 13.2429C115 13.1063 115.096 13.0379 115.233 13.0379C115.397 13.0106 115.547 13.0379 115.684 13.1199C116.148 13.3659 116.463 13.5436 116.627 13.6529C116.791 13.7623 117.023 13.9673 117.324 14.2679C117.597 14.6506 117.638 14.9923 117.447 15.2929C117.337 15.5663 117.187 16.0173 116.996 16.6459C116.832 17.2473 116.654 17.9169 116.463 18.6549C116.299 19.3929 116.148 20.0899 116.012 20.7459C115.902 21.3746 115.834 21.8666 115.807 22.2219C115.779 22.7686 115.752 23.3426 115.725 23.9439C115.697 24.5179 115.738 25.1193 115.848 25.7479C116.066 26.5953 116.121 27.1419 116.012 27.3879C115.93 27.6066 115.656 27.7706 115.192 27.8799ZM139.565 27.1829C139.264 27.2376 138.963 27.2513 138.663 27.2239C138.362 27.1966 138.075 27.0873 137.802 26.8959C137.692 26.6773 137.556 26.4313 137.392 26.1579C137.255 25.8573 137.241 25.5976 137.351 25.3789C137.487 25.0509 137.556 24.5863 137.556 23.9849C137.583 23.3836 137.692 22.8779 137.884 22.4679C137.911 22.4133 137.925 22.3723 137.925 22.3449C137.952 22.2903 137.966 22.2356 137.966 22.1809C137.993 21.9076 138.061 21.5659 138.171 21.1559C138.307 20.7186 138.403 20.3769 138.458 20.1309C138.485 20.0763 138.526 19.8439 138.581 19.4339C138.635 19.0239 138.69 18.5866 138.745 18.1219C138.799 17.6573 138.827 17.3293 138.827 17.1379C138.827 17.0013 138.868 16.8919 138.95 16.8099C139.059 16.7006 139.059 16.5639 138.95 16.3999C138.512 16.8099 137.966 17.3703 137.31 18.0809C136.681 18.7916 136.08 19.5159 135.506 20.2539C134.932 20.9646 134.481 21.5796 134.153 22.0989C134.098 22.2083 134.03 22.3039 133.948 22.3859C133.866 22.4679 133.797 22.5499 133.743 22.6319C133.633 22.7959 133.497 22.9463 133.333 23.0829C133.169 23.2196 133.046 23.3973 132.964 23.6159C132.499 24.0806 132.116 24.5179 131.816 24.9279C131.542 25.3379 131.146 25.7616 130.627 26.1989C130.271 26.2809 129.943 26.2536 129.643 26.1169C129.369 25.9803 129.082 25.8573 128.782 25.7479C128.727 25.6113 128.659 25.4746 128.577 25.3379C128.495 25.1739 128.426 25.0236 128.372 24.8869C128.454 24.2583 128.577 23.4929 128.741 22.5909C128.905 21.6616 129.041 20.7459 129.151 19.8439C129.287 18.9419 129.328 18.2449 129.274 17.7529C129.246 17.6163 129.233 17.5069 129.233 17.4249C129.233 17.3429 129.274 17.2473 129.356 17.1379C129.356 17.0833 129.356 17.0286 129.356 16.9739C129.383 16.9193 129.397 16.8783 129.397 16.8509C129.26 16.7143 129.233 16.5776 129.315 16.4409C129.397 16.3043 129.397 16.1676 129.315 16.0309C129.287 16.0036 129.246 15.9763 129.192 15.9489C129.164 15.9216 129.123 15.8943 129.069 15.8669C128.467 16.7963 127.811 17.6709 127.101 18.4909C126.417 19.2836 125.748 20.1173 125.092 20.9919C124.654 21.5659 124.231 22.2356 123.821 23.0009C123.438 23.7663 122.973 24.3949 122.427 24.8869C122.235 25.0783 122.044 25.2969 121.853 25.5429C121.689 25.7616 121.484 25.9529 121.238 26.1169C121.183 26.3083 121.074 26.4586 120.91 26.5679C120.773 26.6499 120.595 26.6909 120.377 26.6909C119.967 26.6909 119.557 26.5543 119.147 26.2809C118.737 26.0076 118.518 25.6933 118.491 25.3379C118.491 25.1466 118.573 24.9553 118.737 24.7639C118.764 24.7093 118.778 24.6546 118.778 24.5999C118.805 24.5453 118.832 24.5043 118.86 24.4769C119.379 24.2583 119.898 23.8619 120.418 23.2879C120.964 22.7139 121.484 22.0989 121.976 21.4429C122.468 20.7596 122.919 20.1993 123.329 19.7619C123.711 19.3793 124.012 18.9829 124.231 18.5729C124.449 18.1356 124.723 17.7119 125.051 17.3019C125.461 16.7826 125.871 16.2223 126.281 15.6209C126.718 15.0196 127.142 14.4319 127.552 13.8579C127.989 13.2839 128.426 12.7783 128.864 12.3409C129.055 12.4503 129.246 12.5459 129.438 12.6279C129.656 12.7099 129.889 12.7509 130.135 12.7509C130.271 12.9149 130.394 13.0789 130.504 13.2429C130.64 13.3796 130.791 13.5163 130.955 13.6529C131.337 13.9809 131.597 14.4183 131.734 14.9649C131.87 15.5116 131.939 16.0993 131.939 16.7279C131.939 17.6299 131.843 18.5456 131.652 19.4749C131.488 20.3769 131.365 21.1423 131.283 21.7709C131.283 21.7983 131.283 21.8256 131.283 21.8529C131.31 21.8529 131.324 21.8666 131.324 21.8939C131.925 21.3746 132.458 20.7733 132.923 20.0899C133.387 19.4066 133.879 18.7643 134.399 18.1629C135.355 17.0423 136.066 16.2223 136.531 15.7029C137.023 15.1836 137.392 14.8146 137.638 14.5959C137.884 14.3773 138.13 14.1586 138.376 13.9399C138.567 13.8033 138.786 13.6256 139.032 13.4069C139.305 13.1609 139.66 12.8193 140.098 12.3819C140.316 12.3819 140.521 12.3819 140.713 12.3819C140.931 12.3819 141.136 12.3819 141.328 12.3819C141.546 12.5186 141.71 12.6279 141.82 12.7099C141.929 12.7646 142.107 12.8193 142.353 12.8739C142.38 13.0106 142.435 13.2156 142.517 13.4889C142.599 13.7623 142.612 13.9673 142.558 14.1039C142.503 14.2953 142.476 14.4866 142.476 14.6779C142.476 14.8693 142.407 15.0606 142.271 15.2519C142.052 15.5799 141.847 16.1266 141.656 16.8919C141.492 17.6299 141.341 18.3679 141.205 19.1059C141.095 19.8166 141.027 20.3223 141 20.6229C140.89 21.1423 140.781 21.4976 140.672 21.6889C140.562 21.8529 140.48 22.0306 140.426 22.2219C140.371 22.4133 140.357 22.6319 140.385 22.8779C140.412 23.0966 140.385 23.3016 140.303 23.4929C140.275 23.5203 140.248 23.5476 140.221 23.5749C140.221 23.5749 140.207 23.5886 140.18 23.6159C140.18 23.8893 140.18 24.1763 140.18 24.4769C140.207 24.7503 140.152 24.9963 140.016 25.2149C140.07 25.4063 140.084 25.6113 140.057 25.8299C140.029 26.0486 140.057 26.2673 140.139 26.4859C140.029 26.5953 139.934 26.7046 139.852 26.8139C139.77 26.9233 139.674 27.0463 139.565 27.1829ZM146.7 26.6499C146.372 26.7046 146.017 26.6499 145.634 26.4859C145.251 26.3219 144.91 26.0896 144.609 25.7889C144.336 25.4883 144.158 25.1739 144.076 24.8459C143.967 24.2719 144.035 23.5613 144.281 22.7139C144.554 21.8393 144.937 20.9236 145.429 19.9669C145.948 18.9829 146.522 18.0399 147.151 17.1379C147.807 16.2359 148.477 15.4569 149.16 14.8009C149.871 14.1176 150.527 13.6529 151.128 13.4069C151.429 13.2156 151.661 13.0926 151.825 13.0379C152.016 12.9559 152.208 12.9423 152.399 12.9969C152.618 13.0516 152.932 13.1883 153.342 13.4069C153.725 13.5163 154.012 13.6393 154.203 13.7759C154.394 13.9126 154.64 14.1859 154.941 14.5959C155.16 15.0059 155.324 15.4159 155.433 15.8259C155.542 16.2359 155.638 16.7006 155.72 17.2199C155.939 17.9033 156.021 18.3543 155.966 18.5729C155.911 18.7643 155.829 18.9146 155.72 19.0239C155.501 19.2973 155.447 19.4339 155.556 19.4339C155.556 19.4339 155.542 19.4886 155.515 19.5979C155.515 19.6799 155.46 19.8166 155.351 20.0079C155.16 20.6093 155.009 21.2379 154.9 21.8939C154.818 22.5226 154.832 23.0419 154.941 23.4519C155.16 24.0533 155.556 24.4086 156.13 24.5179C156.704 24.6273 157.292 24.3813 157.893 23.7799C158.194 23.5613 158.481 23.3699 158.754 23.2059C159.027 23.0146 159.164 23.0283 159.164 23.2469C159.164 23.2469 159.205 23.2879 159.287 23.3699C159.369 23.4246 159.465 23.4519 159.574 23.4519C159.711 23.4519 159.793 23.5066 159.82 23.6159C159.875 23.7253 159.875 23.8756 159.82 24.0669C159.793 24.2309 159.711 24.4223 159.574 24.6409C159.164 25.0509 158.959 25.3243 158.959 25.4609C158.959 25.4609 158.904 25.5156 158.795 25.6249C158.713 25.7069 158.563 25.8436 158.344 26.0349C157.852 26.3356 157.223 26.4859 156.458 26.4859C155.72 26.4859 155.146 26.3356 154.736 26.0349C154.326 25.7343 153.943 25.3243 153.588 24.8049C153.26 24.2856 153.041 23.8346 152.932 23.4519L152.727 23.0419L151.538 23.8209C151.237 24.1216 150.909 24.4086 150.554 24.6819C150.226 24.9553 150.007 25.1466 149.898 25.2559C149.816 25.3653 149.72 25.4609 149.611 25.5429C149.529 25.6249 149.433 25.6659 149.324 25.6659C149.215 25.6659 149.119 25.6659 149.037 25.6659C148.955 25.6659 148.914 25.6659 148.914 25.6659C148.914 25.7753 148.777 25.9119 148.504 26.0759C148.258 26.2399 147.957 26.3766 147.602 26.4859C147.274 26.5953 146.973 26.6499 146.7 26.6499ZM146.29 24.4359C146.454 24.4359 146.741 24.3129 147.151 24.0669C147.588 23.7936 148.067 23.4793 148.586 23.1239C149.133 22.7686 149.611 22.4133 150.021 22.0579C150.458 21.7026 150.759 21.4293 150.923 21.2379C151.032 21.1286 151.21 20.9509 151.456 20.7049C151.702 20.4316 151.921 20.1993 152.112 20.0079C152.741 19.2973 153.178 18.5183 153.424 17.6709C153.67 16.7963 153.643 16.1129 153.342 15.6209C153.233 15.3203 153.096 15.1563 152.932 15.1289C152.768 15.1016 152.426 15.1973 151.907 15.4159C151.579 15.6073 151.169 15.9763 150.677 16.5229C150.212 17.0423 149.707 17.6573 149.16 18.3679C148.641 19.0513 148.149 19.7619 147.684 20.4999C147.219 21.2379 146.837 21.9213 146.536 22.5499C146.235 23.1786 146.085 23.6706 146.085 24.0259C146.085 24.1353 146.112 24.2309 146.167 24.3129C146.249 24.3949 146.29 24.4359 146.29 24.4359ZM173.733 27.7569C173.624 27.7023 173.501 27.6886 173.364 27.7159C173.255 27.7159 173.132 27.7023 172.995 27.6749C172.011 27.0463 171.355 26.2946 171.027 25.4199C170.726 24.5453 170.658 23.6023 170.822 22.5909C170.986 21.5796 171.259 20.5819 171.642 19.5979C171.833 19.1333 172.025 18.6686 172.216 18.2039C172.435 17.7119 172.722 17.2883 173.077 16.9329C173.268 16.4956 173.596 16.0309 174.061 15.5389C174.526 15.0469 175.031 14.5959 175.578 14.1859C176.152 13.7759 176.658 13.4753 177.095 13.2839C177.341 13.1473 177.601 13.0379 177.874 12.9559C178.147 12.8466 178.407 12.7236 178.653 12.5869C179.008 12.5869 179.309 12.6143 179.555 12.6689C179.801 12.7236 180.006 12.8193 180.17 12.9559C180.334 13.0653 180.471 13.2566 180.58 13.5299C180.689 13.7759 180.771 14.1039 180.826 14.5139C180.662 14.5686 180.443 14.6643 180.17 14.8009C179.924 14.9376 179.692 15.0469 179.473 15.1289C177.806 15.7303 176.521 16.5776 175.619 17.6709C174.744 18.7643 173.952 20.0763 173.241 21.6069C173.05 21.9896 172.927 22.3996 172.872 22.8369C172.845 23.2469 172.79 23.6569 172.708 24.0669C172.653 24.5316 172.776 24.9279 173.077 25.2559C173.241 25.4746 173.501 25.5703 173.856 25.5429C174.239 25.4883 174.608 25.3789 174.963 25.2149C175.346 25.0509 175.592 24.9006 175.701 24.7639C175.81 24.6819 175.906 24.5999 175.988 24.5179C176.097 24.4359 176.207 24.3403 176.316 24.2309C177.327 23.2196 178.161 21.8119 178.817 20.0079C179.5 18.2039 180.088 16.3179 180.58 14.3499C180.635 14.0766 180.717 13.6666 180.826 13.1199C180.963 12.5459 181.072 11.9856 181.154 11.4389C181.236 10.8923 181.25 10.5096 181.195 10.2909C181.168 10.1269 181.113 9.9766 181.031 9.83993C180.949 9.67593 180.976 9.5256 181.113 9.38893C181.004 9.25226 180.881 8.96526 180.744 8.52793C180.607 8.0906 180.512 7.77626 180.457 7.58493C180.211 6.76493 179.787 6.14993 179.186 5.73993C178.585 5.32993 177.901 5.08393 177.136 5.00193C176.371 4.91993 175.605 4.98826 174.84 5.20693C174.676 5.2616 174.512 5.3026 174.348 5.32993C174.184 5.32993 174.02 5.35726 173.856 5.41193C173.501 5.27526 173.241 5.05659 173.077 4.75593C172.913 4.45526 172.804 4.20926 172.749 4.01793C172.749 3.7446 172.79 3.52593 172.872 3.36193C172.981 3.19793 173.118 3.06126 173.282 2.95193C173.473 2.8426 173.678 2.7606 173.897 2.70593C174.225 2.59659 174.553 2.52826 174.881 2.50093C175.236 2.44626 175.496 2.36426 175.66 2.25493C176.043 2.36426 176.425 2.41893 176.808 2.41893C177.218 2.41893 177.601 2.50093 177.956 2.66493C178.503 2.91093 179.008 3.10226 179.473 3.23893C179.965 3.34826 180.402 3.68993 180.785 4.26393C181.004 4.61926 181.263 4.93359 181.564 5.20693C181.892 5.48026 182.152 5.7946 182.343 6.14993C182.48 6.42326 182.671 6.80593 182.917 7.29793C183.19 7.78993 183.313 8.18626 183.286 8.48693C183.805 9.6076 183.997 10.7556 183.86 11.9309C183.723 13.0789 183.45 14.2269 183.04 15.3749C182.63 16.5229 182.261 17.6299 181.933 18.6959C181.906 18.8873 181.81 19.0786 181.646 19.2699C181.482 19.4613 181.414 19.6663 181.441 19.8849C180.976 20.8416 180.498 21.7983 180.006 22.7549C179.541 23.6843 178.981 24.5316 178.325 25.2969C177.669 26.0623 176.822 26.6909 175.783 27.1829C175.592 27.2923 175.25 27.4426 174.758 27.6339C174.293 27.7979 173.952 27.8389 173.733 27.7569ZM196.535 13.4479C196.918 13.2293 197.314 13.1609 197.724 13.2429C198.134 13.2976 198.448 13.4753 198.667 13.7759C198.913 14.0493 198.954 14.4046 198.79 14.8419C198.845 14.6779 198.776 14.7873 198.585 15.1699C198.421 15.5253 198.202 15.9899 197.929 16.5639C197.683 17.1379 197.451 17.6846 197.232 18.2039C197.041 18.6959 196.918 18.9829 196.863 19.0649V19.1879C197.3 19.1879 197.56 19.3246 197.642 19.5979C197.751 19.8439 197.792 20.1309 197.765 20.4589C197.437 20.5136 197.205 20.6093 197.068 20.7459C196.931 20.8553 196.754 20.9236 196.535 20.9509C196.453 20.9509 196.357 20.9919 196.248 21.0739C196.139 21.1559 196.07 21.2516 196.043 21.3609C196.016 21.4429 195.934 21.7709 195.797 22.3449C195.688 22.8916 195.551 23.4929 195.387 24.1489C195.25 24.7776 195.127 25.2559 195.018 25.5839C194.963 25.8026 194.854 25.9803 194.69 26.1169C194.526 26.2263 194.417 26.2946 194.362 26.3219C193.815 26.1033 193.446 25.9666 193.255 25.9119C193.091 25.8299 192.927 25.7206 192.763 25.5839C192.736 25.4199 192.736 25.2286 192.763 25.0099C192.79 24.7639 192.859 24.4769 192.968 24.1489C193.105 23.7389 193.214 23.3563 193.296 23.0009C193.405 22.6183 193.515 22.0853 193.624 21.4019C193.515 21.3473 193.282 21.3473 192.927 21.4019C192.599 21.4293 192.244 21.4703 191.861 21.5249C191.478 21.5796 191.15 21.6343 190.877 21.6889C190.631 21.7436 190.522 21.7573 190.549 21.7299C190.412 21.7846 190.153 21.8256 189.77 21.8529C189.415 21.8529 189.046 21.8393 188.663 21.8119C188.308 21.7573 188.048 21.7026 187.884 21.6479L187.638 21.7709C187.611 22.0443 187.488 22.4543 187.269 23.0009C187.05 23.5203 186.941 24.0123 186.941 24.4769C186.914 24.8323 186.859 25.1876 186.777 25.5429C186.695 25.8983 186.64 26.2673 186.613 26.6499C186.586 27.2513 186.422 27.6203 186.121 27.7569C185.848 27.8936 185.424 27.7979 184.85 27.4699C184.713 27.3879 184.577 27.2923 184.44 27.1829C184.331 27.0736 184.208 26.9506 184.071 26.8139L184.727 23.6569C184.836 23.2743 184.932 22.9189 185.014 22.5909C185.096 22.2356 185.192 21.8939 185.301 21.5659C185.52 20.9646 185.725 20.3496 185.916 19.7209C186.135 19.0923 186.381 18.5046 186.654 17.9579C186.654 17.9579 186.695 17.8213 186.777 17.5479C186.886 17.2473 187.009 16.9193 187.146 16.5639C187.283 16.1813 187.392 15.8806 187.474 15.6619C187.556 15.4433 187.57 15.4023 187.515 15.5389C187.597 15.3749 187.72 15.0606 187.884 14.5959C188.048 14.1039 188.198 13.6393 188.335 13.2019C188.499 12.7373 188.581 12.4913 188.581 12.4639C188.636 12.2999 188.718 12.1906 188.827 12.1359C188.936 12.0539 189.073 12.0129 189.237 12.0129C189.702 11.9856 190.084 12.0949 190.385 12.3409C190.686 12.5596 190.85 12.8329 190.877 13.1609C190.85 13.3249 190.836 13.4753 190.836 13.6119C190.836 13.7486 190.809 13.8579 190.754 13.9399L188.622 19.1469V19.4749C188.895 19.6389 189.292 19.6663 189.811 19.5569C190.358 19.4203 190.768 19.3519 191.041 19.3519C191.178 19.3246 191.492 19.2973 191.984 19.2699C192.503 19.2426 192.995 19.2289 193.46 19.2289C193.952 19.2289 194.212 19.2426 194.239 19.2699C194.54 18.4499 194.813 17.6846 195.059 16.9739C195.305 16.2359 195.647 15.4843 196.084 14.7189C196.111 14.6643 196.166 14.4866 196.248 14.1859C196.357 13.8853 196.453 13.6393 196.535 13.4479ZM201.87 27.7979C201.542 27.7979 201.255 27.7569 201.009 27.6749C200.79 27.5656 200.612 27.4289 200.476 27.2649C200.366 27.0736 200.257 26.8823 200.148 26.6909C200.038 26.4723 199.943 26.2399 199.861 25.9939C199.915 25.7753 200.038 25.5566 200.23 25.3379C200.421 25.1193 200.681 25.1056 201.009 25.2969C201.063 25.2969 201.118 25.3243 201.173 25.3789C201.227 25.4336 201.296 25.4883 201.378 25.5429C202.389 25.0783 203.209 24.4769 203.838 23.7389C204.494 22.9736 205.122 22.1263 205.724 21.1969C205.259 21.0603 204.794 20.8416 204.33 20.5409C203.892 20.2403 203.578 19.9259 203.387 19.5979C203.113 19.1606 202.936 18.6413 202.854 18.0399C202.772 17.4386 202.703 17.1106 202.649 17.0559C202.895 16.5093 203.045 16.0446 203.1 15.6619C203.182 15.2793 203.291 14.9103 203.428 14.5549C203.564 14.1723 203.824 13.7349 204.207 13.2429C204.507 12.8603 204.876 12.5049 205.314 12.1769C205.751 11.8216 206.175 11.5346 206.585 11.3159C206.995 11.0973 207.295 10.9879 207.487 10.9879C207.787 11.0973 208.074 11.0836 208.348 10.9469C208.621 10.8103 208.894 10.7966 209.168 10.9059C209.277 10.9333 209.373 10.9469 209.455 10.9469C209.564 10.9196 209.646 10.9196 209.701 10.9469C210.384 11.0836 210.985 11.2749 211.505 11.5209C212.024 11.7669 212.366 12.2179 212.53 12.8739C212.393 13.4479 212.243 14.0219 212.079 14.5959C211.942 15.1426 211.723 15.6893 211.423 16.2359C211.149 16.7553 210.876 17.3019 210.603 17.8759C210.357 18.4226 210.042 18.9419 209.66 19.4339L209.742 19.6799C210.042 19.7346 210.411 19.8029 210.849 19.8849C211.313 19.9396 211.559 19.9669 211.587 19.9669C211.887 20.0489 212.147 20.1856 212.366 20.3769C212.612 20.5409 212.871 20.7323 213.145 20.9509C213.172 21.0603 213.172 21.1696 213.145 21.2789C213.117 21.3883 213.063 21.5113 212.981 21.6479C212.68 22.2493 212.366 22.8643 212.038 23.4929C211.71 24.0943 211.395 24.7093 211.095 25.3379C210.985 25.6113 210.89 25.9529 210.808 26.3629C210.726 26.7729 210.616 27.1009 210.48 27.3469C210.234 27.5929 210.07 27.7433 209.988 27.7979C209.933 27.8253 209.878 27.8116 209.824 27.7569C209.769 27.7023 209.619 27.6749 209.373 27.6749C208.99 27.5929 208.73 27.3879 208.594 27.0599C208.539 26.8686 208.457 26.6909 208.348 26.5269C208.266 26.3629 208.252 26.1716 208.307 25.9529C208.361 25.7889 208.416 25.6386 208.471 25.5019C208.525 25.3379 208.594 25.1876 208.676 25.0509C208.894 24.6136 209.086 24.1763 209.25 23.7389C209.414 23.3016 209.591 22.8779 209.783 22.4679C209.892 22.3586 209.947 22.2083 209.947 22.0169H209.66C209.496 21.9896 209.304 21.9623 209.086 21.9349C208.894 21.8803 208.676 21.8393 208.43 21.8119C208.293 21.9213 208.129 22.0443 207.938 22.1809C207.746 22.2903 207.596 22.4953 207.487 22.7959C207.186 23.1239 206.899 23.4929 206.626 23.9029C206.38 24.2856 206.079 24.6546 205.724 25.0099C205.368 25.3653 205.013 25.7206 204.658 26.0759C204.33 26.4313 203.961 26.7866 203.551 27.1419C202.949 27.5793 202.389 27.7979 201.87 27.7979ZM206.79 19.2699C206.926 19.2426 207.118 19.0786 207.364 18.7779C207.637 18.4499 207.91 18.0946 208.184 17.7119C208.484 17.3019 208.744 16.9329 208.963 16.6049C209.181 16.2496 209.304 16.0309 209.332 15.9489C209.332 16.0036 209.386 15.8806 209.496 15.5799C209.605 15.2793 209.728 14.9239 209.865 14.5139C210.029 14.1039 210.179 13.7213 210.316 13.3659C210.452 13.0106 210.521 12.8193 210.521 12.7919C210.165 12.5459 209.878 12.4229 209.66 12.4229C209.441 12.4229 209.181 12.4776 208.881 12.5869C207.869 12.8603 207.036 13.3249 206.38 13.9809C205.724 14.6096 205.245 15.4296 204.945 16.4409C204.726 17.3703 204.781 18.1493 205.109 18.7779C205.464 19.3793 206.024 19.5433 206.79 19.2699Z" fill="#FEFAEF"/>
</svg>
